<?xml version="1.0" standalone="no"?>
<!DOCTYPE svg PUBLIC "-//W3C//DTD SVG 1.1//EN" "http://www.w3.org/Graphics/SVG/1.1/DTD/svg11.dtd" >
<svg xmlns="http://www.w3.org/2000/svg" xmlns:xlink="http://www.w3.org/1999/xlink" version="1.1" viewBox="0 0 723 800">
   <path fill="currentColor"
d="M598.623 800c0 -83.8057 -4.40332 -158.411 -13.208 -223.821c-8.80469 -65.4082 -20.126 -122.641 -33.9619 -171.697c-13.8369 -49.0566 -27.9883 -90.5508 -42.4531 -124.481c28.3838 4.34082 57.5049 6.76074 87.3652 7.26074
c-2.13574 -30.5146 -5.78516 -58.8682 -10.9502 -85.0615c-8.80469 -44.6543 -20.126 -83.7266 -33.9619 -117.217c-13.8369 -33.4902 -27.9883 -61.8184 -42.4531 -84.9824c32.0762 3.34863 65.0947 5.02344 99.0566 5.02344s68.8682 -1.6748 104.717 -5.02344
c-14.4639 23.1641 -28.6152 51.4219 -42.4531 84.7734c-13.8359 33.3506 -25.1572 72.3535 -33.9619 117.007c-5.17285 26.2393 -8.82715 54.6953 -10.9609 85.3672c28.4746 -0.69043 57.5996 -3.07324 87.376 -7.14746c-14.4639 33.9307 -28.6152 75.3223 -42.4531 124.175
c-13.8359 48.8525 -25.1572 105.982 -33.9619 171.391c-8.80371 65.4092 -13.208 140.221 -13.208 224.435h-24.5273zM268.739 800c0 -96.6992 -3.30273 -182.782 -9.90625 -258.255c-6.60352 -75.4717 -15.0947 -141.509 -25.4717 -198.112
c-8.98926 -49.0283 -18.1543 -91.5098 -27.4961 -127.443c-11.8301 69.4102 -21.666 148.919 -29.5068 238.527c-8.80371 100.629 -13.208 215.724 -13.208 345.283h-24.5273c0 -128.932 -4.40332 -243.71 -13.208 -344.34
c-8.80469 -100.629 -20.126 -188.679 -33.9619 -264.15c-13.8369 -75.4717 -27.9883 -139.309 -42.4531 -191.51c32.0762 7.54688 65.0947 11.3213 99.0566 11.3213s68.8682 -3.77441 104.717 -11.3213c-14.4639 52.2012 -28.6152 115.88 -42.4531 191.038
c-0.639648 3.47363 -1.27344 6.97461 -1.90234 10.5029c21.8867 4.63281 44.3516 6.9502 67.3965 6.9502c25.4717 0 51.6514 -2.83105 78.5371 -8.49121c-10.8477 39.1504 -21.4609 86.9102 -31.8398 143.278c-10.377 56.3682 -18.8682 122.288 -25.4717 197.759
c-6.60254 75.4727 -9.90527 161.793 -9.90527 258.963h-18.3955zM441.239 800c0 -62.8545 -3.30273 -118.809 -9.90625 -167.866c-6.60352 -49.0557 -15.0947 -91.9805 -25.4717 -128.772c-10.3779 -36.793 -20.9912 -67.9131 -31.8398 -93.3613
c21.2881 3.25488 43.1289 5.07031 65.5244 5.44531c-1.60156 -22.8857 -4.33984 -44.1504 -8.21289 -63.7959c-6.60352 -33.4912 -15.0947 -62.7949 -25.4717 -87.9131c-10.3779 -25.1172 -20.9912 -46.3633 -31.8398 -63.7363
c24.0576 2.51172 48.8213 3.76758 74.293 3.76758s51.6514 -1.25586 78.5371 -3.76758c-10.8477 17.373 -21.4609 38.5664 -31.8398 63.5801c-10.377 25.0127 -18.8682 54.2656 -25.4717 87.7549c-3.87988 19.6797 -6.62012 41.0215 -8.2207 64.0254
c21.3564 -0.517578 43.2012 -2.30469 65.5322 -5.36035c-10.8477 25.4482 -21.4609 56.4922 -31.8398 93.1309c-10.377 36.6396 -18.8682 79.4873 -25.4717 128.543c-6.60254 49.0566 -9.90527 105.166 -9.90527 168.326h-18.3955z" />
</svg>
