<?xml version="1.0" standalone="no"?>
<!DOCTYPE svg PUBLIC "-//W3C//DTD SVG 1.1//EN" "http://www.w3.org/Graphics/SVG/1.1/DTD/svg11.dtd" >
<svg xmlns="http://www.w3.org/2000/svg" xmlns:xlink="http://www.w3.org/1999/xlink" version="1.1" viewBox="0 0 723 800">
   <path fill="currentColor"
d="M598.623 800c0 -83.8057 -4.40332 -158.411 -13.208 -223.821c-8.80469 -65.4082 -20.126 -122.641 -33.9619 -171.697c-13.8369 -49.0566 -27.9883 -90.5508 -42.4531 -124.481c24.499 3.74707 49.5488 6.0625 75.1484 6.94824
c-8.61523 -61.5762 -19.5137 -115.731 -32.6953 -162.467c-13.8369 -49.0566 -27.9883 -90.5508 -42.4531 -124.481c32.0762 4.90527 65.0947 7.3584 99.0566 7.3584s68.8682 -2.45312 104.717 -7.3584c-14.4639 33.9307 -28.6152 75.3223 -42.4531 124.175
c-13.2109 46.6455 -24.1289 100.837 -32.7529 162.576c24.5898 -1.00488 49.6582 -3.25488 75.2061 -6.75098c-14.4639 33.9307 -28.6152 75.3223 -42.4531 124.175c-13.8359 48.8525 -25.1572 105.982 -33.9619 171.391c-8.80371 65.4092 -13.208 140.221 -13.208 224.435
h-24.5273zM268.739 800c0 -96.6992 -3.30273 -182.782 -9.90625 -258.255c-6.60352 -75.4717 -15.0947 -141.509 -25.4717 -198.112c-8.98926 -49.0283 -18.1543 -91.5098 -27.4961 -127.443c-11.8301 69.4102 -21.666 148.919 -29.5068 238.527
c-8.80371 100.629 -13.208 215.724 -13.208 345.283h-24.5273c0 -128.932 -4.40332 -243.71 -13.208 -344.34c-8.80469 -100.629 -20.126 -188.679 -33.9619 -264.15c-13.8369 -75.4717 -27.9883 -139.309 -42.4531 -191.51
c32.0762 7.54688 65.0947 11.3213 99.0566 11.3213s68.8682 -3.77441 104.717 -11.3213c-14.4639 52.2012 -28.6152 115.88 -42.4531 191.038c-0.639648 3.47363 -1.27344 6.97461 -1.90234 10.5029c21.8867 4.63281 44.3516 6.9502 67.3965 6.9502
c25.4717 0 51.6514 -2.83105 78.5371 -8.49121c-10.8477 39.1504 -21.4609 86.9102 -31.8398 143.278c-10.377 56.3682 -18.8682 122.288 -25.4717 197.759c-6.60254 75.4727 -9.90527 161.793 -9.90527 258.963h-18.3955zM441.239 800
c0 -62.8545 -3.30273 -118.809 -9.90625 -167.866c-6.60352 -49.0557 -15.0947 -91.9805 -25.4717 -128.772c-10.3779 -36.793 -20.9912 -67.9131 -31.8398 -93.3613c18.375 2.80957 37.1621 4.54688 56.3613 5.21094c-6.46094 -46.1816 -14.6357 -86.7988 -24.5215 -121.85
c-10.3779 -36.793 -20.9912 -67.9131 -31.8398 -93.3613c24.0576 3.67871 48.8213 5.51855 74.293 5.51855s51.6514 -1.83984 78.5371 -5.51855c-10.8477 25.4482 -21.4609 56.4922 -31.8398 93.1309c-9.9082 34.9844 -18.0967 75.6279 -24.5654 121.932
c18.4434 -0.75293 37.2451 -2.44043 56.4053 -5.0625c-10.8477 25.4482 -21.4609 56.4922 -31.8398 93.1309c-10.377 36.6396 -18.8682 79.4873 -25.4717 128.543c-6.60254 49.0566 -9.90527 105.166 -9.90527 168.326h-18.3955z" />
</svg>
