<?xml version="1.0" standalone="no"?>
<!DOCTYPE svg PUBLIC "-//W3C//DTD SVG 1.1//EN" "http://www.w3.org/Graphics/SVG/1.1/DTD/svg11.dtd" >
<svg xmlns="http://www.w3.org/2000/svg" xmlns:xlink="http://www.w3.org/1999/xlink" version="1.1" viewBox="0 0 953 800">
   <path fill="currentColor"
d="M746.339 613.654c-45 -48.2998 -81.9014 -88.7998 -110.701 -121.5c-22.1406 -25.1406 -41.623 -45.9365 -58.4453 -62.3877c-55.0352 0.614258 -104.531 3.88086 -148.49 9.79785c-49.0566 6.60352 -91.9805 15.0947 -128.773 25.4717
c-36.792 10.3779 -67.9131 20.9912 -93.3613 31.8398c3.67969 -24.0566 5.51953 -48.8213 5.51953 -74.292c0 -25.4717 -1.83984 -51.6514 -5.51953 -78.5381c25.4482 10.8477 56.4922 21.4619 93.1318 31.8398c36.6387 10.377 79.4863 18.8682 128.543 25.4717
c41.4766 5.58203 87.9951 8.80664 139.554 9.66992c16.6143 -16.7393 33.2275 -34.0967 49.8418 -52.0732c18.3008 -19.7998 37.875 -41.25 58.7256 -64.3506c20.8496 -23.0996 44.1748 -48.4492 69.9756 -76.0498l9.44922 6.75
c-24.6006 39.2998 -45.6748 75.375 -63.2256 108.226c-17.5498 32.8506 -32.0254 60.375 -43.4248 82.5742c9.60059 18.9014 23.4004 45.0762 41.4004 78.5264c18 33.4492 39.749 70.875 65.25 112.274zM828.623 800c0 -83.8057 -4.40332 -158.411 -13.208 -223.821
c-8.80469 -65.4082 -20.126 -122.641 -33.9619 -171.697c-13.8369 -49.0566 -27.9883 -90.5508 -42.4531 -124.481c24.499 3.74707 49.5488 6.0625 75.1484 6.94824c-8.61523 -61.5762 -19.5137 -115.731 -32.6953 -162.467
c-13.8369 -49.0566 -27.9883 -90.5508 -42.4531 -124.481c32.0762 4.90527 65.0947 7.3584 99.0566 7.3584s68.8682 -2.45312 104.717 -7.3584c-14.4639 33.9307 -28.6152 75.3223 -42.4531 124.175c-13.2109 46.6455 -24.1289 100.837 -32.7529 162.576
c24.5898 -1.00488 49.6582 -3.25488 75.2061 -6.75098c-14.4639 33.9307 -28.6152 75.3223 -42.4531 124.175c-13.8359 48.8525 -25.1572 105.982 -33.9619 171.391c-8.80371 65.4092 -13.208 140.221 -13.208 224.435h-24.5273zM138.623 800
c0 -128.932 -4.40332 -243.71 -13.208 -344.34c-8.80469 -100.629 -20.126 -188.679 -33.9619 -264.15c-13.8369 -75.4717 -27.9883 -139.309 -42.4531 -191.51c32.0762 7.54688 65.0947 11.3213 99.0566 11.3213s68.8682 -3.77441 104.717 -11.3213
c-14.4639 52.2012 -28.6152 115.88 -42.4531 191.038c-13.8359 75.1572 -25.1572 163.05 -33.9619 263.679c-8.80371 100.629 -13.208 215.724 -13.208 345.283h-24.5273z" />
</svg>
