<?xml version="1.0" standalone="no"?>
<!DOCTYPE svg PUBLIC "-//W3C//DTD SVG 1.1//EN" "http://www.w3.org/Graphics/SVG/1.1/DTD/svg11.dtd" >
<svg xmlns="http://www.w3.org/2000/svg" xmlns:xlink="http://www.w3.org/1999/xlink" version="1.1" viewBox="0 0 808 800">
   <path fill="currentColor"
d="M653.983 305.771c-5.37402 -40.8438 -11.3008 -78.9307 -17.7773 -114.261c-13.8369 -75.4717 -27.9883 -139.309 -42.4531 -191.51c32.0762 7.54688 65.0947 11.3213 99.0566 11.3213s68.8682 -3.77441 104.717 -11.3213
c-14.4639 52.2012 -28.6152 115.88 -42.4531 191.038c-13.8359 75.1572 -25.1572 163.05 -33.9619 263.679c-8.80371 100.629 -13.208 215.724 -13.208 345.283h-24.5273c0 -78.8105 -1.64551 -152.332 -4.93555 -220.567
c-14.4893 1.45703 -28.5771 3.10645 -42.2617 4.94824c-65.4082 8.80469 -122.641 20.126 -171.697 33.9619c-49.0566 13.8369 -90.5508 27.9883 -124.481 42.4531c3.74707 -24.499 6.0625 -49.5488 6.94824 -75.1484c-61.5762 8.61523 -115.731 19.5137 -162.467 32.6953
c-49.0566 13.8369 -90.5508 27.9883 -124.481 42.4531c4.90527 -32.0762 7.3584 -65.0947 7.3584 -99.0566s-2.45312 -68.8682 -7.3584 -104.717c33.9307 14.4639 75.3223 28.6152 124.175 42.4531c46.6455 13.2109 100.837 24.1289 162.576 32.7529
c-1.00488 -24.5898 -3.25488 -49.6582 -6.75098 -75.2061c33.9307 14.4639 75.3223 28.6152 124.175 42.4531c48.8525 13.8359 105.982 25.1572 171.391 33.9619c13.1689 1.77246 26.7188 3.36621 40.6494 4.78223c-1.70898 -28.5039 -3.72461 -56.0234 -6.04688 -82.5596
c-3.18262 -36.3779 -6.69434 -71.1123 -10.5352 -104.202c-7.94531 0.913086 -15.7637 1.8877 -23.4541 2.92285c-65.4082 8.80469 -122.641 20.126 -171.697 33.9619c-49.0566 13.8369 -90.5508 27.9883 -124.481 42.4531
c3.74707 -24.499 6.0625 -49.5488 6.94824 -75.1484c-61.5762 8.61523 -115.731 19.5137 -162.467 32.6953c-49.0566 13.8369 -90.5508 27.9883 -124.481 42.4531c4.90527 -32.0762 7.3584 -65.0947 7.3584 -99.0566s-2.45312 -68.8682 -7.3584 -104.717
c33.9307 14.4639 75.3223 28.6152 124.175 42.4531c46.6455 13.2109 100.837 24.1289 162.576 32.7529c-1.00488 -24.5898 -3.25488 -49.6582 -6.75098 -75.2061c33.9307 14.4639 75.3223 28.6152 124.175 42.4531c48.8525 13.8359 105.982 25.1572 171.391 33.9619
c6.05859 0.81543 12.1982 1.59277 18.418 2.33301z" />
</svg>
