<?xml version="1.0" standalone="no"?>
<!DOCTYPE svg PUBLIC "-//W3C//DTD SVG 1.1//EN" "http://www.w3.org/Graphics/SVG/1.1/DTD/svg11.dtd" >
<svg xmlns="http://www.w3.org/2000/svg" xmlns:xlink="http://www.w3.org/1999/xlink" version="1.1" viewBox="0 0 1664 905">
   <path fill="currentColor"
d="M585 666.173c-83.8057 0 -158.411 4.40332 -223.821 13.208c-65.4082 8.80469 -122.641 20.126 -171.697 33.9619c-49.0566 13.8369 -90.5508 27.9883 -124.481 42.4531c4.90527 -32.0762 7.3584 -65.0947 7.3584 -99.0566s-2.45312 -68.8682 -7.3584 -104.717
c33.9307 14.4639 75.3223 28.6152 124.175 42.4531c48.8525 13.8359 105.982 25.1572 171.391 33.9619c60.9688 8.20605 130.107 12.5898 207.414 13.1475c-29.1201 -32.043 -55.2822 -61.2383 -78.4863 -87.585c-51.1992 -58.1338 -94.3994 -103.2 -129.6 -135.2
c32.5332 -32.5332 65.0664 -66.3994 97.5996 -101.6c31.6025 -34.1924 65.3428 -71.1523 101.222 -110.88c-73.2012 0.833008 -139.045 5.1875 -197.536 13.0605c-65.4082 8.80469 -122.641 20.126 -171.697 33.9619c-49.0566 13.8369 -90.5508 27.9883 -124.481 42.4531
c4.90527 -32.0762 7.3584 -65.0947 7.3584 -99.0566s-2.45312 -68.8682 -7.3584 -104.717c33.9307 14.4639 75.3223 28.6152 124.175 42.4531c48.8525 13.8359 105.982 25.1572 171.391 33.9619c64.3867 8.66602 137.884 13.0693 220.492 13.2051
c32.04 -35.252 67.1182 -73.2666 105.236 -114.043l16.7998 12c-43.7334 69.8672 -81.2002 134 -112.4 192.4s-56.9336 107.334 -77.2002 146.8c17.0664 33.6006 41.6006 80.1338 73.6006 139.601c32 59.4658 70.666 126 116 199.6l-16.7998 12
c-36.8135 -39.5137 -70.5781 -76.0908 -101.294 -109.731v5.9043zM1539.43 800c0 -128.932 -4.40332 -243.71 -13.208 -344.34c-8.80469 -100.629 -20.126 -188.679 -33.9619 -264.15c-2.53223 -13.8096 -5.07422 -27.2285 -7.62695 -40.2588
c-117.036 0.623047 -222.008 5.00098 -314.919 13.1299c-6.73242 0.588867 -13.4092 1.18945 -20.0293 1.80078c20.3818 1.76953 41.2617 2.6543 62.6396 2.6543c25.4707 0 51.6504 -1.25586 78.5371 -3.76758c-10.8477 17.373 -21.4609 38.5664 -31.8398 63.5801
c-10.377 25.0137 -18.8682 54.2656 -25.4717 87.7559c-3.87988 19.6797 -6.62012 41.0215 -8.2207 64.0254c21.3555 -0.517578 43.2002 -2.30469 65.5322 -5.36133c-10.8477 25.4482 -21.4609 56.4922 -31.8398 93.1318c-10.377 36.6387 -18.8682 79.4863 -25.4717 128.543
c-6.60254 49.0566 -9.90527 105.165 -9.90527 168.325h-18.3955c0 -62.8535 -3.30273 -118.808 -9.90625 -167.865c-6.60352 -49.0566 -15.0947 -91.9805 -25.4717 -128.773c-10.3779 -36.792 -20.9912 -67.9131 -31.8398 -93.3613
c21.2881 3.25586 43.1289 5.07129 65.5244 5.44629c-1.60156 -22.8857 -4.33887 -44.1514 -8.21289 -63.7969c-6.60352 -33.4902 -15.0947 -62.7949 -25.4717 -87.9121c-9.9668 -24.1221 -20.1504 -44.6738 -30.5508 -61.6523
c-7.96777 0.756836 -15.8535 1.53027 -23.6562 2.32129c-9.91113 16.5117 -19.625 36.2373 -29.1426 59.1738c-10.377 25.0137 -18.8682 54.2656 -25.4717 87.7559c-3.87988 19.6797 -6.62012 41.0215 -8.2207 64.0254c21.3555 -0.517578 43.2002 -2.30469 65.5322 -5.36133
c-10.8477 25.4482 -21.4609 56.4922 -31.8398 93.1318c-10.377 36.6387 -18.8682 79.4863 -25.4717 128.543c-6.60254 49.0566 -9.90527 105.165 -9.90527 168.325h-10.1162c40.0176 4.96289 82.5986 9.41895 127.742 13.3691
c100.629 8.80371 215.724 13.208 345.283 13.208v24.5273c-128.932 0 -243.71 4.40332 -344.34 13.208c-100.629 8.80469 -188.679 20.126 -264.15 33.9619c-75.4717 13.8369 -139.309 27.9883 -191.51 42.4531c7.54688 -32.0762 11.3213 -65.0947 11.3213 -99.0566
s-3.77441 -68.8682 -11.3213 -104.717c52.2012 14.4639 115.88 28.6152 191.038 42.4531c39.1045 7.19922 81.6572 13.7168 127.657 19.5537c-0.0361328 -62.4307 -3.33887 -118.039 -9.90625 -166.826c-6.60352 -49.0566 -15.0947 -91.9805 -25.4717 -128.773
c-10.3779 -36.792 -20.9912 -67.9131 -31.8398 -93.3613c21.2881 3.25586 43.1289 5.07129 65.5244 5.44629c-1.60156 -22.8857 -4.33887 -44.1514 -8.21289 -63.7969c-6.60352 -33.4902 -15.0947 -62.7949 -25.4717 -87.9121
c-6.45312 -15.6182 -12.9971 -29.7393 -19.6318 -42.3633c-25.2168 3.73535 -49.2754 7.70215 -72.1758 11.9004c-75.4717 13.8369 -139.309 27.9883 -191.51 42.4531c7.54688 -32.0762 11.3213 -65.0947 11.3213 -99.0566s-3.77441 -68.8682 -11.3213 -104.717
c52.2012 14.4639 115.88 28.6152 191.038 42.4531c75.1572 13.8359 163.05 25.1572 263.679 33.9619c91.6406 8.01758 195.278 12.3857 310.913 13.1025c-9.80566 -47.8662 -19.7646 -90.0469 -29.877 -126.54c32.0762 7.54688 65.0947 11.3213 99.0566 11.3213
s68.8682 -3.77441 104.717 -11.3213c-14.4639 52.2012 -28.6152 115.88 -42.4531 191.038c-13.8359 75.1572 -25.1572 163.05 -33.9619 263.679c-8.80371 100.629 -13.208 215.724 -13.208 345.283h-24.5273zM1482.2 676.943
c-45 -48.2988 -81.9014 -88.7988 -110.701 -121.5c-28.7988 -32.7002 -53.0996 -58.0498 -72.8994 -76.0498c18.2998 -18.2998 36.5996 -37.3496 54.8994 -57.1494c18.3008 -19.8008 37.876 -41.251 58.7256 -64.3506s44.1748 -48.4502 69.9756 -76.0508l9.44922 6.75
c-24.6006 39.3008 -45.6748 75.375 -63.2256 108.226c-17.5498 32.8506 -32.0244 60.375 -43.4248 82.5752c9.60059 18.9004 23.4004 45.0752 41.4004 78.5254c18 33.4492 39.75 70.875 65.25 112.274z" />
</svg>
