<?xml version="1.0" standalone="no"?>
<!DOCTYPE svg PUBLIC "-//W3C//DTD SVG 1.1//EN" "http://www.w3.org/Graphics/SVG/1.1/DTD/svg11.dtd" >
<svg xmlns="http://www.w3.org/2000/svg" xmlns:xlink="http://www.w3.org/1999/xlink" version="1.1" viewBox="0 0 1664 905">
   <path fill="currentColor"
d="M585 666.173c-83.8057 0 -158.411 4.40332 -223.821 13.208c-65.4082 8.80469 -122.641 20.126 -171.697 33.9619c-49.0566 13.8369 -90.5508 27.9883 -124.481 42.4531c4.90527 -32.0762 7.3584 -65.0947 7.3584 -99.0566s-2.45312 -68.8682 -7.3584 -104.717
c33.9307 14.4639 75.3223 28.6152 124.175 42.4531c48.8525 13.8359 105.982 25.1572 171.391 33.9619c60.9688 8.20605 130.107 12.5898 207.414 13.1475c-29.1201 -32.043 -55.2822 -61.2383 -78.4863 -87.585c-51.1992 -58.1338 -94.3994 -103.2 -129.6 -135.2
c32.5332 -32.5332 65.0664 -66.3994 97.5996 -101.6c31.6025 -34.1924 65.3428 -71.1523 101.222 -110.88c-73.2012 0.833008 -139.045 5.1875 -197.536 13.0605c-65.4082 8.80469 -122.641 20.126 -171.697 33.9619c-49.0566 13.8369 -90.5508 27.9883 -124.481 42.4531
c4.90527 -32.0762 7.3584 -65.0947 7.3584 -99.0566s-2.45312 -68.8682 -7.3584 -104.717c33.9307 14.4639 75.3223 28.6152 124.175 42.4531c48.8525 13.8359 105.982 25.1572 171.391 33.9619c64.3867 8.66602 137.884 13.0693 220.492 13.2051
c32.04 -35.252 67.1182 -73.2666 105.236 -114.043l16.7998 12c-43.7334 69.8672 -81.2002 134 -112.4 192.4s-56.9336 107.334 -77.2002 146.8c17.0664 33.6006 41.6006 80.1338 73.6006 139.601c32 59.4658 70.666 126 116 199.6l-16.7998 12
c-36.8135 -39.5137 -70.5781 -76.0908 -101.294 -109.731v5.9043zM1539.43 800c0 -128.932 -4.40332 -243.71 -13.208 -344.34c-8.80469 -100.629 -20.126 -188.679 -33.9619 -264.15c-2.53223 -13.8096 -5.07422 -27.2285 -7.62695 -40.2588
c-117.036 0.623047 -222.008 5.00098 -314.919 13.1299c-7.52344 0.658203 -14.9756 1.33008 -22.3584 2.0166c21.1201 2.79395 42.7754 4.19043 64.9688 4.19043c25.4707 0 51.6504 -1.83984 78.5371 -5.51953c-10.8477 25.4482 -21.4609 56.4922 -31.8398 93.1318
c-9.9082 34.9834 -18.0967 75.627 -24.5654 121.932c18.4424 -0.75293 37.2441 -2.44141 56.4053 -5.06348c-10.8477 25.4482 -21.4609 56.4922 -31.8398 93.1318c-10.377 36.6387 -18.8682 79.4863 -25.4717 128.543c-6.60254 49.0566 -9.90527 105.165 -9.90527 168.325
h-18.3955c0 -62.8535 -3.30273 -118.808 -9.90625 -167.865c-6.60352 -49.0566 -15.0947 -91.9805 -25.4717 -128.773c-10.3779 -36.792 -20.9912 -67.9131 -31.8398 -93.3613c18.375 2.81055 37.1621 4.54785 56.3613 5.21191
c-6.46094 -46.1826 -14.6357 -86.7988 -24.5215 -121.851c-10.0908 -35.7754 -20.4053 -66.1895 -30.9414 -91.2393c-7.53516 0.716797 -14.9971 1.44824 -22.3838 2.19434c-10.2168 24.6172 -20.2256 54.2227 -30.0244 88.8154
c-9.9082 34.9834 -18.0967 75.627 -24.5654 121.932c18.4424 -0.75293 37.2441 -2.44141 56.4053 -5.06348c-10.8477 25.4482 -21.4609 56.4922 -31.8398 93.1318c-10.377 36.6387 -18.8682 79.4863 -25.4717 128.543c-6.60254 49.0566 -9.90527 105.165 -9.90527 168.325
h-10.1162c40.0176 4.96289 82.5986 9.41895 127.742 13.3691c100.629 8.80371 215.724 13.208 345.283 13.208v24.5273c-128.932 0 -243.71 4.40332 -344.34 13.208c-100.629 8.80469 -188.679 20.126 -264.15 33.9619c-75.4717 13.8369 -139.309 27.9883 -191.51 42.4531
c7.54688 -32.0762 11.3213 -65.0947 11.3213 -99.0566s-3.77441 -68.8682 -11.3213 -104.717c52.2012 14.4639 115.88 28.6152 191.038 42.4531c39.1045 7.19922 81.6572 13.7168 127.657 19.5537c-0.0361328 -62.4307 -3.33887 -118.039 -9.90625 -166.826
c-6.60352 -49.0566 -15.0947 -91.9805 -25.4717 -128.773c-10.3779 -36.792 -20.9912 -67.9131 -31.8398 -93.3613c18.375 2.81055 37.1621 4.54785 56.3613 5.21191c-6.46094 -46.1826 -14.6357 -86.7988 -24.5215 -121.851
c-7.57129 -26.8428 -15.2686 -50.667 -23.0908 -71.4727c-23.96 3.58496 -46.8652 7.37988 -68.7168 11.3857c-75.4717 13.8369 -139.309 27.9883 -191.51 42.4531c7.54688 -32.0762 11.3213 -65.0947 11.3213 -99.0566s-3.77441 -68.8682 -11.3213 -104.717
c52.2012 14.4639 115.88 28.6152 191.038 42.4531c75.1572 13.8359 163.05 25.1572 263.679 33.9619c91.6406 8.01758 195.278 12.3857 310.913 13.1025c-9.80566 -47.8662 -19.7646 -90.0469 -29.877 -126.54c32.0762 7.54688 65.0947 11.3213 99.0566 11.3213
s68.8682 -3.77441 104.717 -11.3213c-14.4639 52.2012 -28.6152 115.88 -42.4531 191.038c-13.8359 75.1572 -25.1572 163.05 -33.9619 263.679c-8.80371 100.629 -13.208 215.724 -13.208 345.283h-24.5273zM1482.2 676.943
c-45 -48.2988 -81.9014 -88.7988 -110.701 -121.5c-28.7988 -32.7002 -53.0996 -58.0498 -72.8994 -76.0498c18.2998 -18.2998 36.5996 -37.3496 54.8994 -57.1494c18.3008 -19.8008 37.876 -41.251 58.7256 -64.3506s44.1748 -48.4502 69.9756 -76.0508l9.44922 6.75
c-24.6006 39.3008 -45.6748 75.375 -63.2256 108.226c-17.5498 32.8506 -32.0244 60.375 -43.4248 82.5752c9.60059 18.9004 23.4004 45.0752 41.4004 78.5254c18 33.4492 39.75 70.875 65.25 112.274z" />
</svg>
