<?xml version="1.0" standalone="no"?>
<!DOCTYPE svg PUBLIC "-//W3C//DTD SVG 1.1//EN" "http://www.w3.org/Graphics/SVG/1.1/DTD/svg11.dtd" >
<svg xmlns="http://www.w3.org/2000/svg" xmlns:xlink="http://www.w3.org/1999/xlink" version="1.1" viewBox="0 0 1956 910">
   <path fill="currentColor"
d="M941.069 738.101c0 -50.2832 -2.64258 -95.0459 -7.9248 -134.292c-5.2832 -39.2451 -12.0762 -73.585 -20.377 -103.019c-8.30273 -29.4346 -16.793 -54.3311 -25.4727 -74.6895c14.7002 2.24805 29.7295 3.6377 45.0889 4.16895
c-5.16895 -36.9453 -11.708 -69.4385 -19.6162 -97.4795c-8.30273 -29.4346 -16.793 -54.3311 -25.4727 -74.6895c19.2461 2.94336 39.0576 4.41504 59.4346 4.41504s41.3203 -1.47168 62.8301 -4.41504c-8.67871 20.3584 -17.1689 45.1934 -25.4717 74.5049
c-7.92676 27.9873 -14.4775 60.502 -19.6523 97.5459c13.5859 -0.555664 27.416 -1.74414 41.4902 -3.56641c-0.28125 -2.18457 -0.572266 -4.37207 -0.87207 -6.5625c33.9307 14.4639 75.3223 28.6152 124.175 42.4531c47.1064 13.3408 101.908 24.3447 164.407 33.0078
c-1.26855 -24.6709 -4.12891 -49.8252 -8.58203 -75.4609c43.0664 14.4639 95.6006 28.6152 157.606 42.4531c54.4883 12.1582 117.089 22.375 187.805 30.6484c-6.89941 -66.9297 -15.0371 -127.675 -24.4111 -182.235c-10.2451 10.2461 -10.9209 10.9219 -25.1729 25.1738
c-15.6807 -13.127 -31.0801 -25.4561 -46.1992 -36.9873c-52.4756 -40.0244 -100.951 -72.4883 -145.423 -97.3936c-44.4727 -24.9043 -83.8193 -44.2383 -118.04 -58.0029c26.1494 -19.2129 51.2314 -40.8252 75.2461 -64.8398s46.9629 -50.4326 68.8428 -79.25
c13.7656 34.2207 33.0273 73.4951 57.7861 117.824c24.7607 44.3271 57.1523 92.7295 97.1768 145.206c10.9434 14.3467 22.6152 28.957 35.0156 43.832c-0.995117 -5.71582 -2.00391 -11.3633 -3.02637 -16.9414c-13.8369 -75.4717 -27.9883 -139.309 -42.4531 -191.51
c32.0762 7.54688 65.0947 11.3213 99.0566 11.3213s68.8682 -3.77441 104.717 -11.3213c-14.4639 52.2012 -28.6152 115.88 -42.4531 191.038c-11.3428 61.6143 -20.9951 131.787 -28.957 210.52c75.1807 6.72461 159.476 10.0879 252.884 10.0879v24.5273
c-95.0498 0 -180.776 3.51562 -257.182 10.5469c-0.237305 2.65625 -0.472656 5.32227 -0.707031 7.99707c-8.80371 100.629 -13.208 215.724 -13.208 345.283h-24.5273c0 -128.932 -4.40332 -243.71 -13.208 -344.34
c-0.102539 -1.1709 -0.205078 -2.34082 -0.308594 -3.50879c-72.6582 8.36816 -136.945 18.7656 -192.864 31.1914c-62.2637 13.8369 -114.929 27.9883 -157.995 42.4531c4.77246 -24.583 7.71582 -49.7197 8.83008 -75.4102
c-62.3545 8.65527 -117.138 19.6416 -164.349 32.957c-49.0566 13.8369 -90.5508 27.9883 -124.481 42.4531c4.90527 -32.0762 7.3584 -65.0947 7.3584 -99.0566c0 -29.8701 -1.89746 -60.4707 -5.69238 -91.8008c-7.69336 19.0039 -15.2373 41.5596 -22.6318 67.667
c-8.30176 29.3115 -15.0947 63.5898 -20.3779 102.835c-5.28223 39.2451 -7.9248 84.1318 -7.9248 134.66h-14.7158zM863.939 457.938c-9.4082 -7.87598 -18.6475 -15.2734 -27.7188 -22.1924c-31.4854 -24.0146 -60.5713 -43.4932 -87.2539 -58.4365
c-26.6836 -14.9424 -50.292 -26.543 -70.8242 -34.8018c15.6895 -11.5273 30.7393 -24.4951 45.1475 -38.9033c14.4092 -14.4092 28.1777 -30.2598 41.3057 -47.5498c8.25977 20.5322 19.8164 44.0967 34.6719 70.6943c14.8564 26.5957 34.291 55.6377 58.3057 87.123
c6.9834 9.1543 14.46 18.4883 22.4316 28.001zM813.54 595.938c-9.4082 -7.87598 -18.6484 -15.2734 -27.7197 -22.1924c-31.4854 -24.0146 -60.5703 -43.4932 -87.2539 -58.4365c-26.6836 -14.9424 -50.291 -26.543 -70.8242 -34.8018
c15.6904 -11.5273 30.7393 -24.4951 45.1484 -38.9033c14.4082 -14.4092 28.1777 -30.2598 41.3057 -47.5498c8.25879 20.5322 19.8164 44.0967 34.6709 70.6943c14.8564 26.5957 34.292 55.6377 58.3066 87.123c6.98242 9.1543 14.46 18.4883 22.4316 28.001z
M676.881 910.062c-15.6807 -13.127 -31.0801 -25.4561 -46.1992 -36.9873c-52.4756 -40.0244 -100.951 -72.4883 -145.423 -97.3936c-44.4727 -24.9043 -83.8193 -44.2383 -118.04 -58.0029c26.1494 -19.2129 51.2314 -40.8252 75.2461 -64.8398
s46.9629 -50.4326 68.8428 -79.25c13.7139 34.0928 32.8838 73.2021 57.5098 117.329c-1.29785 -69.3506 -4.65723 -133.232 -10.0781 -191.648c-75.2148 0.6875 -142.734 5.05859 -202.561 13.1113c-65.4082 8.80469 -122.641 20.126 -171.697 33.9619
c-49.0566 13.8369 -90.5508 27.9883 -124.481 42.4531c4.90527 -32.0762 7.3584 -65.0947 7.3584 -99.0566s-2.45312 -68.8682 -7.3584 -104.717c33.9307 14.4639 75.3223 28.6152 124.175 42.4531c48.8525 13.8359 105.982 25.1572 171.391 33.9619
c59.2041 7.96875 126.11 12.333 200.721 13.0889l-0.0644531 -0.606445c-8.80469 -83.0195 -20.126 -155.66 -33.9619 -217.925c-13.8369 -62.2637 -27.9883 -114.929 -42.4531 -157.995c32.0762 6.22656 65.0947 9.33984 99.0566 9.33984
s68.8682 -3.11328 104.717 -9.33984c-14.4639 43.0664 -28.6152 95.6006 -42.4531 157.606c-13.8359 62.0049 -25.1572 134.516 -33.9619 217.535c-8.12109 76.583 -12.499 163.323 -13.1289 260.218c20.4111 32.4619 44.4883 66.8818 72.2344 103.26
c11.6377 15.2568 24.0996 30.8125 37.3857 46.667c-11.8145 11.8154 -11.8145 11.8154 -26.7754 26.7764z" />
</svg>
