<?xml version="1.0" standalone="no"?>
<!DOCTYPE svg PUBLIC "-//W3C//DTD SVG 1.1//EN" "http://www.w3.org/Graphics/SVG/1.1/DTD/svg11.dtd" >
<svg xmlns="http://www.w3.org/2000/svg" xmlns:xlink="http://www.w3.org/1999/xlink" version="1.1" viewBox="0 0 1956 905">
   <path fill="currentColor"
d="M941.069 738.101c0 -50.2832 -2.64258 -95.0459 -7.9248 -134.292c-5.2832 -39.2451 -12.0762 -73.585 -20.377 -103.019c-8.30273 -29.4346 -16.793 -54.3311 -25.4727 -74.6895c17.0303 2.60449 34.5039 4.05664 52.4199 4.35645
c-1.28125 -18.3086 -3.47168 -35.3203 -6.57031 -51.0361c-5.2832 -26.793 -12.0762 -50.2363 -20.377 -70.3301c-8.30273 -20.0947 -16.793 -37.0918 -25.4727 -50.9902c19.2461 2.00977 39.0576 3.01465 59.4346 3.01465s41.3203 -1.00488 62.8301 -3.01465
c-8.67871 13.8984 -17.1689 30.8535 -25.4717 50.8643c-8.30176 20.0107 -15.0947 43.4121 -20.3779 70.2041c-3.10352 15.7441 -5.2959 32.8174 -6.57715 51.2197c15.8379 -0.383789 32.0107 -1.63965 48.5195 -3.76855
c-0.193359 -2.19629 -0.392578 -4.39453 -0.598633 -6.59766c23.1641 14.4639 51.4219 28.6152 84.7734 42.4531c33.3506 13.8359 72.3535 25.1572 117.007 33.9619c26.7881 5.28125 55.8867 8.97949 87.2959 11.0938
c-0.871094 -28.5166 -3.89648 -57.6865 -9.07617 -87.5088c43.0664 14.4639 95.6006 28.6152 157.606 42.4531c54.4883 12.1582 117.089 22.375 187.805 30.6484c-7.81445 -75.8047 -17.2168 -143.676 -28.2051 -203.614
c-13.8369 -75.4717 -27.9883 -139.309 -42.4531 -191.51c32.0762 7.54688 65.0947 11.3213 99.0566 11.3213s68.8682 -3.77441 104.717 -11.3213c-14.4639 52.2012 -28.6152 115.88 -42.4531 191.038c-11.3428 61.6143 -20.9951 131.787 -28.957 210.52
c75.1807 6.72461 159.476 10.0879 252.884 10.0879v24.5273c-95.0498 0 -180.776 3.51562 -257.182 10.5469c-0.237305 2.65625 -0.472656 5.32227 -0.707031 7.99707c-8.80371 100.629 -13.208 215.724 -13.208 345.283h-24.5273
c0 -128.932 -4.40332 -243.71 -13.208 -344.34c-0.102539 -1.1709 -0.205078 -2.34082 -0.308594 -3.50879c-72.6582 8.36816 -136.945 18.7656 -192.864 31.1914c-62.2637 13.8369 -114.929 27.9883 -157.995 42.4531c5.51855 -28.4268 8.59082 -57.5928 9.21875 -87.5
c-31.2607 2.11523 -60.2666 5.80957 -87.0195 11.085c-44.6543 8.80469 -83.7266 20.126 -117.217 33.9619c-33.4902 13.8369 -61.8184 27.9883 -84.9824 42.4531c3.34863 -32.0762 5.02344 -65.0947 5.02344 -99.0566c0 -29.5244 -1.26562 -59.7617 -3.79688 -90.7119
c-7.54102 18.7754 -14.9385 40.9678 -22.1924 66.5781c-8.30176 29.3115 -15.0947 63.5898 -20.3779 102.835c-5.28223 39.2451 -7.9248 84.1318 -7.9248 134.66h-14.7158zM866.78 455.099c-24.2744 -24.2744 -47.751 -44.0146 -70.4316 -59.2246
s-44.0605 -26.9834 -64.1396 -35.3223c-20.0801 -8.33789 -38.1016 -14.3525 -54.0664 -18.0439c15.0293 -12.1875 29.749 -25.4854 44.1572 -39.8945c14.4092 -14.4082 28.5078 -29.9287 42.2959 -46.5586c3.69141 15.9639 9.67676 33.957 17.9561 53.9775
c8.2793 20.0195 20.0225 41.3701 35.2324 64.0508c15.21 22.6797 35.0098 46.2168 59.4023 70.6094zM816.38 593.099c-24.2734 -24.2744 -47.751 -44.0146 -70.4316 -59.2246s-44.0605 -26.9834 -64.1396 -35.3223c-20.0791 -8.33789 -38.1016 -14.3525 -54.0664 -18.0439
c15.0293 -12.1875 29.749 -25.4854 44.1582 -39.8945c14.4082 -14.4082 28.5068 -29.9287 42.2959 -46.5586c3.69141 15.9639 9.67578 33.957 17.9551 53.9775c8.2793 20.0195 20.0234 41.3701 35.2334 64.0508c15.209 22.6797 35.0098 46.2168 59.4014 70.6094z
M1585.61 331.329c-40.4561 -40.457 -79.585 -73.3574 -117.386 -98.707s-73.4346 -44.9727 -106.899 -58.8701c-33.4658 -13.8975 -63.5029 -23.9219 -90.1104 -30.0732c25.0488 -20.3135 49.5811 -42.4766 73.5957 -66.4912s47.5127 -49.8818 70.4932 -77.5986
c6.15234 26.6074 16.127 56.5957 29.9258 89.9629c13.7988 33.3662 33.3721 68.9512 58.7217 106.751c25.3496 37.8008 58.3496 77.0293 99.0029 117.683zM681.614 905.329c-40.4561 -40.457 -79.585 -73.3574 -117.386 -98.707s-73.4346 -44.9727 -106.899 -58.8701
c-33.4658 -13.8975 -63.5029 -23.9219 -90.1104 -30.0732c25.0488 -20.3135 49.5811 -42.4766 73.5957 -66.4912s47.5127 -49.8818 70.4932 -77.5986c6.15234 26.6074 16.127 56.5957 29.9258 89.9629c7.58984 18.3525 16.9268 37.376 28.0098 57.0703
c-0.81543 -80.9053 -4.31738 -154.688 -10.5039 -221.353c-75.2148 0.6875 -142.734 5.05859 -202.561 13.1113c-65.4082 8.80469 -122.641 20.126 -171.697 33.9619c-49.0566 13.8369 -90.5508 27.9883 -124.481 42.4531c4.90527 -32.0762 7.3584 -65.0947 7.3584 -99.0566
s-2.45312 -68.8682 -7.3584 -104.717c33.9307 14.4639 75.3223 28.6152 124.175 42.4531c48.8525 13.8359 105.982 25.1572 171.391 33.9619c59.2041 7.96875 126.11 12.333 200.721 13.0889l-0.0644531 -0.606445c-8.80469 -83.0195 -20.126 -155.66 -33.9619 -217.925
c-13.8369 -62.2637 -27.9883 -114.929 -42.4531 -157.995c32.0762 6.22656 65.0947 9.33984 99.0566 9.33984s68.8682 -3.11328 104.717 -9.33984c-14.4639 43.0664 -28.6152 95.6006 -42.4531 157.606c-13.8359 62.0049 -25.1572 134.516 -33.9619 217.535
c-8.80371 83.0186 -13.208 177.972 -13.208 284.858h-2.09863c2.62988 4.07422 5.3291 8.17578 8.09668 12.3027c25.3496 37.8008 58.3496 77.0293 99.0029 117.683z" />
</svg>
