<?xml version="1.0" standalone="no"?>
<!DOCTYPE svg PUBLIC "-//W3C//DTD SVG 1.1//EN" "http://www.w3.org/Graphics/SVG/1.1/DTD/svg11.dtd" >
<svg xmlns="http://www.w3.org/2000/svg" xmlns:xlink="http://www.w3.org/1999/xlink" version="1.1" viewBox="0 0 4051 919">
   <path fill="currentColor"
d="M3529.27 674.462c-40.457 -40.4561 -79.585 -73.3574 -117.386 -98.707c-37.8018 -25.3496 -73.4355 -44.9717 -106.9 -58.8701c-10.3379 -4.29297 -20.3496 -8.2168 -30.0332 -11.7705v6.05859c-83.8057 0 -158.411 4.40332 -223.821 13.208
c-65.4082 8.80469 -122.641 20.126 -171.697 33.9619c-49.0566 13.8369 -90.5508 27.9883 -124.481 42.4531c4.90527 -32.0762 7.3584 -65.0947 7.3584 -99.0566s-2.45312 -68.8682 -7.3584 -104.717c33.9307 14.4639 75.3223 28.6152 124.175 42.4531
c48.8525 13.8359 105.982 25.1572 171.391 33.9619c49.7305 6.69336 104.896 10.8438 165.497 12.4492c24.6543 -20.0605 48.8057 -41.915 72.4561 -65.5664c24.0146 -24.0146 47.5127 -49.8809 70.4941 -77.5977c6.15234 26.6074 16.127 56.5947 29.9248 89.9629
c13.7988 33.3662 33.373 68.9502 58.7217 106.751c25.3506 37.8008 58.3506 77.0293 99.0029 117.683zM3691.9 511.827c-40.457 -40.4561 -79.585 -73.3574 -117.387 -98.707c-37.8008 -25.3486 -73.4346 -44.9717 -106.899 -58.8701
c-33.4648 -13.8965 -63.5029 -23.9209 -90.1104 -30.0723c16.123 -13.0752 32.0312 -26.916 47.7256 -41.5234c-79.4492 1.96094 -152.639 5.87012 -219.569 11.7266c-100.629 8.80469 -188.679 20.126 -264.15 33.9619c-75.4717 13.8369 -139.309 27.9883 -191.51 42.4531
c7.54688 -32.0762 11.3213 -65.0947 11.3213 -99.0566s-3.77441 -68.8682 -11.3213 -104.717c52.2012 14.4639 115.88 28.6152 191.038 42.4531c75.1572 13.8359 163.05 25.1572 263.679 33.9619c74.7764 6.54199 157.54 10.6543 248.291 12.3359
c23.3516 -23.4736 46.2139 -48.7031 68.5859 -75.6855c5.31641 22.9941 13.4883 48.5127 24.5156 76.5566c1.29492 0 2.5918 0.000976562 3.89062 0.000976562v9.70898c0.500977 1.22754 1.00684 2.45898 1.51855 3.69629c13.7988 33.3662 33.373 68.9502 58.7217 106.751
c25.3506 37.8008 58.3506 77.0293 99.0029 117.683zM3854.53 349.193c-40.4561 -40.457 -79.584 -73.3574 -117.386 -98.707c-37.8008 -25.3496 -73.4346 -44.9727 -106.899 -58.8701s-63.5029 -23.9219 -90.1104 -30.0732
c25.0488 -20.3135 49.5811 -42.4766 73.5957 -66.4912s47.5127 -49.8818 70.4941 -77.5986c6.15137 26.6074 16.126 56.5947 29.9248 89.9629c13.7988 33.3662 33.373 68.9512 58.7217 106.751c25.3496 37.8008 58.3496 77.0293 99.0029 117.683zM4002.56 830.489
c-50.3701 -50.3701 -101.944 -88.4785 -154.721 -114.33c-52.7773 -25.8506 -104.486 -42.9395 -155.127 -51.2676c-50.6416 -8.32812 -97.2207 -11.6299 -139.731 -9.90625c51.9951 -46.0967 103.956 -95.1094 155.886 -147.039s103.828 -106.776 155.693 -164.54
c-1.72168 42.5098 1.51758 89.0254 9.72168 139.547c8.20605 50.5186 25.2334 102.166 51.084 154.943c25.8516 52.7744 64.082 104.473 114.698 155.089zM3830 741.173c-174.058 0 -329.009 4.40332 -464.858 13.208s-254.717 20.126 -356.604 33.9619
c-101.887 13.8369 -188.066 27.9883 -258.538 42.4531c10.1885 -32.0762 15.2842 -65.0947 15.2842 -99.0566s-5.0957 -68.8682 -15.2842 -104.717c70.4717 14.4639 156.438 28.6152 257.901 42.4531c101.462 13.8359 220.117 25.1572 355.966 33.9619
c135.85 8.80371 291.228 13.208 466.133 13.208v24.5273zM2728.64 526c-60 -64.3994 -109.201 -118.399 -147.602 -162c-29.5215 -33.5215 -55.498 -61.249 -77.9277 -83.1846c-73.3809 0.820312 -139.375 5.17578 -197.986 13.0654
c-65.4082 8.80469 -122.641 20.126 -171.697 33.9619c-49.0566 13.8369 -90.5508 27.9883 -124.481 42.4531c4.90527 -32.0762 7.3584 -65.0947 7.3584 -99.0566s-2.45312 -68.8682 -7.3584 -104.717c33.9307 14.4639 75.3223 28.6152 124.175 42.4531
c48.8525 13.8359 105.982 25.1572 171.391 33.9619c55.3027 7.44336 117.327 11.7422 186.072 12.8926c22.1523 -22.3184 44.3037 -45.4619 66.4551 -69.4297c24.4014 -26.4004 50.501 -55.001 78.3008 -85.8008s58.9004 -64.5996 93.3008 -101.4l12.5996 9
c-32.8008 52.4004 -60.9004 100.5 -84.3008 144.301s-42.7002 80.5 -57.9004 110.1c12.8008 25.2012 31.2012 60.1006 55.2012 104.701c24 44.5986 52.999 94.5 87 149.699zM2664 740.673c-106.368 0 -201.061 4.40332 -284.08 13.208s-155.66 20.126 -217.925 33.9619
c-62.2637 13.8369 -114.929 27.9883 -157.995 42.4531c6.22656 -32.0762 9.33984 -65.0947 9.33984 -99.0566s-3.11328 -68.8682 -9.33984 -104.717c43.0664 14.4639 95.6006 28.6152 157.606 42.4531c62.0049 13.8359 134.516 25.1572 217.535 33.9619
c83.0186 8.80371 177.972 13.208 284.858 13.208v24.5273zM1946.24 790c-80 -85.8662 -145.601 -157.866 -196.801 -216c-51.1992 -58.1338 -94.3994 -103.2 -129.6 -135.2c30.4453 -30.4453 60.8916 -62.0586 91.3369 -94.8398
c-39.2549 -38.918 -77.2559 -70.6953 -114.002 -95.3379c-37.8008 -25.3496 -73.4346 -44.9727 -106.899 -58.8701c-33.4658 -13.8975 -63.5029 -23.9219 -90.1104 -30.0732c25.0488 -20.3135 49.5811 -42.4766 73.5957 -66.4912s47.5127 -49.8818 70.4932 -77.5986
c6.15234 26.6074 16.127 56.5957 29.9258 89.9629c13.7988 33.3662 33.3721 68.9512 58.7217 106.751c24.5029 36.5381 56.1533 74.4092 94.9531 113.612c29.5176 -32.0273 60.8457 -66.3994 93.9854 -103.115c37.0664 -41.0664 78.5332 -86.1338 124.4 -135.2l16.7998 12
c-43.7334 69.8672 -81.2002 134 -112.4 192.4s-56.9336 107.334 -77.2002 146.8c17.0664 33.6006 41.6006 80.1338 73.6006 139.601c32 59.4658 70.666 126 116 199.6zM1544.56 507.329c-40.4561 -40.457 -79.585 -73.3574 -117.386 -98.707
s-73.4346 -44.9727 -106.899 -58.8701c-33.4658 -13.8975 -63.5029 -23.9219 -90.1104 -30.0732c25.0488 -20.3135 49.5811 -42.4766 73.5957 -66.4912s47.5127 -49.8818 70.4932 -77.5986c6.15234 26.6074 16.127 56.5957 29.9258 89.9629
c13.7988 33.3662 33.3721 68.9512 58.7217 106.751c25.3496 37.8008 58.3496 77.0293 99.0029 117.683zM1374.56 667.329c-40.4561 -40.457 -79.585 -73.3574 -117.386 -98.707s-73.4346 -44.9727 -106.899 -58.8701c-33.4658 -13.8975 -63.5029 -23.9219 -90.1104 -30.0732
c25.0488 -20.3135 49.5811 -42.4766 73.5957 -66.4912s47.5127 -49.8818 70.4932 -77.5986c6.15234 26.6074 16.127 56.5957 29.9258 89.9629c13.7988 33.3662 33.3721 68.9512 58.7217 106.751c25.3496 37.8008 58.3496 77.0293 99.0029 117.683zM1204.56 827.329
c-40.4561 -40.457 -79.585 -73.3574 -117.386 -98.707s-73.4346 -44.9727 -106.899 -58.8701c-33.4658 -13.8975 -63.5029 -23.9219 -90.1104 -30.0732c25.0488 -20.3135 49.5811 -42.4766 73.5957 -66.4912s47.5127 -49.8818 70.4932 -77.5986
c6.15234 26.6074 16.127 56.5957 29.9258 89.9629c13.7988 33.3662 33.3721 68.9512 58.7217 106.751c25.3496 37.8008 58.3496 77.0293 99.0029 117.683zM860 829.173c-128.932 0 -243.71 4.40332 -344.34 13.208c-100.629 8.80469 -188.679 20.126 -264.15 33.9619
c-75.4717 13.8369 -139.309 27.9883 -191.51 42.4531c7.54688 -32.0762 11.3213 -65.0947 11.3213 -99.0566s-3.77441 -68.8682 -11.3213 -104.717c52.2012 14.4639 115.88 28.6152 191.038 42.4531c75.1572 13.8359 163.05 25.1572 263.679 33.9619
c96.5527 8.44727 206.423 12.8438 329.609 13.1865c-0.441406 -67.2207 -3.79297 -128.359 -10.0547 -183.419c-99.9971 0.415039 -189.446 4.80762 -268.352 13.1758c-83.0195 8.80469 -155.66 20.126 -217.925 33.9619
c-62.2637 13.8369 -114.929 27.9883 -157.995 42.4531c6.22656 -32.0762 9.33984 -65.0947 9.33984 -99.0566c0 -32.834 -2.91016 -66.5508 -8.72949 -101.148c-0.204102 0.0683594 -0.407227 0.136719 -0.610352 0.205078
c0.115234 -0.59375 0.229492 -1.18848 0.342773 -1.7832c-0.113281 -0.663086 -0.227539 -1.32617 -0.342773 -1.99023c0.224609 0.0751953 0.450195 0.151367 0.674805 0.226562c5.77637 -30.9619 8.66504 -62.7979 8.66504 -95.5098
c0 -32.834 -2.91016 -66.5508 -8.72949 -101.148c-0.204102 0.0683594 -0.407227 0.136719 -0.610352 0.205078c0.115234 -0.59375 0.229492 -1.18848 0.342773 -1.7832c-0.113281 -0.663086 -0.227539 -1.32617 -0.342773 -1.99023
c0.224609 0.0751953 0.450195 0.151367 0.674805 0.226562c5.77637 -30.9619 8.66504 -62.7979 8.66504 -95.5098c0 -33.9619 -3.11328 -68.8682 -9.33984 -104.717c43.0664 14.4639 95.6006 28.6152 157.606 42.4531c62.0049 13.8359 134.516 25.1572 217.535 33.9619
c76.6719 8.13086 163.524 12.5088 260.555 13.1309c-7.87109 -34.1357 -17.3682 -64.6641 -28.4902 -91.5859c-13.8369 -33.4902 -27.9883 -61.8184 -42.4531 -84.9824c32.0762 3.34863 65.0947 5.02344 99.0566 5.02344s68.8682 -1.6748 104.717 -5.02344
c-14.4639 23.1641 -28.6152 51.4219 -42.4531 84.7734c-13.8359 33.3506 -25.1572 72.3535 -33.9619 117.007c-5.17285 26.2393 -8.82715 54.6953 -10.9609 85.3672c28.4746 -0.69043 57.5996 -3.07324 87.376 -7.14746c-14.4639 33.9307 -28.6152 75.3223 -42.4531 124.175
c-13.8359 48.8525 -25.1572 105.982 -33.9619 171.391c-8.80371 65.4092 -13.208 140.221 -13.208 224.435h-8.90332v9.17285zM842.118 307.261c-2.13574 -30.5146 -5.78516 -58.8682 -10.9502 -85.0615l-0.193359 -0.978516
c-98.667 0.496094 -187.018 4.88379 -265.055 13.1602c-83.0195 8.80469 -155.66 20.126 -217.925 33.9619c-59.5537 13.2344 -110.327 26.7568 -152.318 40.5664c41.9805 13.8086 92.6221 27.3311 151.93 40.5664c62.0049 13.8359 134.516 25.1572 217.535 33.9619
c66.8545 7.08984 141.449 11.3262 223.782 12.707c-11.1885 -36.9053 -22.5791 -68.9531 -34.1709 -96.1445c28.3838 4.34082 57.5049 6.76074 87.3652 7.26074zM796.379 421.561c-84.8379 1.25 -161.657 5.52344 -230.459 12.8203
c-83.0195 8.80469 -155.66 20.126 -217.925 33.9619c-59.5537 13.2344 -110.327 26.7568 -152.318 40.5664c41.9805 13.8086 92.6221 27.3311 151.93 40.5664c62.0049 13.8359 134.516 25.1572 217.535 33.9619c78.125 8.28516 166.82 12.6738 266.083 13.1621
c-0.0185547 -0.140625 -0.0380859 -0.280273 -0.0566406 -0.420898c-8.80469 -65.4082 -20.126 -122.641 -33.9619 -171.697c-0.275391 -0.976562 -0.550781 -1.9502 -0.827148 -2.9209z" />
</svg>
