<?xml version="1.0" standalone="no"?>
<!DOCTYPE svg PUBLIC "-//W3C//DTD SVG 1.1//EN" "http://www.w3.org/Graphics/SVG/1.1/DTD/svg11.dtd" >
<svg xmlns="http://www.w3.org/2000/svg" xmlns:xlink="http://www.w3.org/1999/xlink" version="1.1" viewBox="0 0 1192 1046">
   <path fill="currentColor"
d="M386.4 850c-80 -85.8662 -145.601 -157.866 -196.801 -216c-51.1992 -58.1338 -94.3994 -103.2 -129.6 -135.2c32.5332 -32.5332 65.0664 -66.3994 97.5996 -101.6c32.5342 -35.2002 67.334 -73.334 104.4 -114.4s78.5332 -86.1338 124.4 -135.2l16.7998 12
c-43.7334 69.8672 -81.2002 134 -112.4 192.4s-56.9336 107.334 -77.2002 146.8c17.0664 33.6006 41.6006 80.1338 73.6006 139.601c32 59.4658 70.666 126 116 199.6zM1168.8 1046.5c-60 -64.3994 -109.201 -118.399 -147.602 -162
c-29.5215 -33.5215 -55.498 -61.249 -77.9277 -83.1846c-73.3809 0.820312 -139.375 5.17578 -197.986 13.0654c-65.4082 8.80469 -122.641 20.126 -171.697 33.9619c-49.0566 13.8369 -90.5508 27.9883 -124.481 42.4531c4.90527 -32.0762 7.3584 -65.0947 7.3584 -99.0566
s-2.45312 -68.8682 -7.3584 -104.717c33.9307 14.4639 75.3223 28.6152 124.175 42.4531c48.8525 13.8359 105.982 25.1572 171.391 33.9619c55.3027 7.44336 117.327 11.7422 186.072 12.8926c22.1523 -22.3184 44.3037 -45.4619 66.4551 -69.4297
c24.4014 -26.4004 50.501 -55.001 78.3008 -85.8008c26.9424 -29.8506 56.9863 -62.5186 90.1289 -98.0059c-58.5645 -62.8994 -106.708 -115.764 -144.43 -158.594c-29.5215 -33.5215 -55.498 -61.249 -77.9277 -83.1846
c-73.3809 0.820312 -139.375 5.17578 -197.986 13.0654c-65.4082 8.80469 -122.641 20.126 -171.697 33.9619c-49.0566 13.8369 -90.5508 27.9883 -124.481 42.4531c4.90527 -32.0762 7.3584 -65.0947 7.3584 -99.0566s-2.45312 -68.8682 -7.3584 -104.717
c33.9307 14.4639 75.3223 28.6152 124.175 42.4531c48.8525 13.8359 105.982 25.1572 171.391 33.9619c55.3027 7.44336 117.327 11.7422 186.072 12.8926c22.1523 -22.3184 44.3037 -45.4619 66.4551 -69.4297c24.4014 -26.4004 50.501 -55.001 78.3008 -85.8008
s58.9004 -64.5996 93.3008 -101.4l12.5996 9c-32.8008 52.4004 -60.9004 100.5 -84.3008 144.301s-42.7002 80.5 -57.9004 110.1c12.8008 25.2012 31.2012 60.1006 55.2012 104.701c24 44.5986 52.999 94.5 87 149.699l-7.83887 5.59961l7.83887 5.59961
c-32.8008 52.4004 -60.9004 100.5 -84.3008 144.301s-42.7002 80.5 -57.9004 110.1c12.8008 25.2012 31.2012 60.1006 55.2012 104.701c24 44.5986 52.999 94.5 87 149.699zM792.959 733.403c-9.40918 -7.87598 -18.6484 -15.2734 -27.7197 -22.1924
c-31.4854 -24.0146 -60.5703 -43.4932 -87.2529 -58.4355c-26.6836 -14.9434 -50.293 -26.543 -70.8252 -34.8018c15.6904 -11.5273 30.7393 -24.4951 45.1484 -38.9043s28.1777 -30.2588 41.3057 -47.5498c8.25977 20.5322 19.8164 44.0967 34.6719 70.6943
c14.8564 26.5967 34.291 55.6377 58.3057 87.124c6.98242 9.15332 14.459 18.4873 22.4316 28zM890.539 635.822c-9.4082 -7.87598 -18.6484 -15.2734 -27.7188 -22.1924c-31.4863 -24.0146 -60.5713 -43.4932 -87.2539 -58.4355
c-26.6836 -14.9424 -50.292 -26.543 -70.8242 -34.8018c11.9834 -8.80566 23.5938 -18.4492 34.8301 -28.9346c-29.7803 -22.4707 -57.3799 -40.8223 -82.7998 -55.0576c-26.6836 -14.9424 -50.292 -26.543 -70.8242 -34.8018
c15.6895 -11.5273 30.7383 -24.4951 45.1484 -38.9043c14.4082 -14.4092 28.1768 -30.2588 41.3057 -47.5498c8.25879 20.5322 19.8154 44.0977 34.6709 70.6953c14.1855 25.3945 32.5439 53.0186 55.0791 82.8701c10.0059 -10.8584 19.6875 -22.4492 29.043 -34.7715
c8.25977 20.5322 19.8164 44.0967 34.6719 70.6943c14.8564 26.5967 34.291 55.6377 58.3057 87.124c6.9834 9.1543 14.46 18.4873 22.4316 28zM988.12 538.242c-9.4082 -7.87695 -18.6475 -15.2744 -27.7188 -22.1924
c-31.4863 -24.0146 -60.5713 -43.4932 -87.2539 -58.4365c-26.6836 -14.9424 -50.292 -26.543 -70.8242 -34.8008c15.6895 -11.5283 30.7383 -24.4961 45.1484 -38.9053c14.4082 -14.4082 28.1768 -30.2588 41.3057 -47.5488
c8.25879 20.5312 19.8154 44.0967 34.6709 70.6934c14.8564 26.5977 34.291 55.6387 58.3057 87.125c6.98242 9.15332 14.46 18.4873 22.4326 28c-7.08984 7.08887 -7.08984 7.08887 -16.0664 16.0654z" />
</svg>
