<?xml version="1.0" standalone="no"?>
<!DOCTYPE svg PUBLIC "-//W3C//DTD SVG 1.1//EN" "http://www.w3.org/Graphics/SVG/1.1/DTD/svg11.dtd" >
<svg xmlns="http://www.w3.org/2000/svg" xmlns:xlink="http://www.w3.org/1999/xlink" version="1.1" viewBox="0 0 1192 1046">
   <path fill="currentColor"
d="M386.4 850c-80 -85.8662 -145.601 -157.866 -196.801 -216c-51.1992 -58.1338 -94.3994 -103.2 -129.6 -135.2c32.5332 -32.5332 65.0664 -66.3994 97.5996 -101.6c32.5342 -35.2002 67.334 -73.334 104.4 -114.4s78.5332 -86.1338 124.4 -135.2l16.7998 12
c-43.7334 69.8672 -81.2002 134 -112.4 192.4s-56.9336 107.334 -77.2002 146.8c17.0664 33.6006 41.6006 80.1338 73.6006 139.601c32 59.4658 70.666 126 116 199.6zM1168.8 1046.5c-60 -64.3994 -109.201 -118.399 -147.602 -162
c-29.5215 -33.5215 -55.498 -61.249 -77.9277 -83.1846c-73.3809 0.820312 -139.375 5.17578 -197.986 13.0654c-65.4082 8.80469 -122.641 20.126 -171.697 33.9619c-49.0566 13.8369 -90.5508 27.9883 -124.481 42.4531c4.90527 -32.0762 7.3584 -65.0947 7.3584 -99.0566
s-2.45312 -68.8682 -7.3584 -104.717c33.9307 14.4639 75.3223 28.6152 124.175 42.4531c48.8525 13.8359 105.982 25.1572 171.391 33.9619c55.3027 7.44336 117.327 11.7422 186.072 12.8926c22.1523 -22.3184 44.3037 -45.4619 66.4551 -69.4297
c24.4014 -26.4004 50.501 -55.001 78.3008 -85.8008c26.9424 -29.8506 56.9863 -62.5186 90.1289 -98.0059c-58.5645 -62.8994 -106.708 -115.764 -144.43 -158.594c-29.5215 -33.5215 -55.498 -61.249 -77.9277 -83.1846
c-73.3809 0.820312 -139.375 5.17578 -197.986 13.0654c-65.4082 8.80469 -122.641 20.126 -171.697 33.9619c-49.0566 13.8369 -90.5508 27.9883 -124.481 42.4531c4.90527 -32.0762 7.3584 -65.0947 7.3584 -99.0566s-2.45312 -68.8682 -7.3584 -104.717
c33.9307 14.4639 75.3223 28.6152 124.175 42.4531c48.8525 13.8359 105.982 25.1572 171.391 33.9619c55.3027 7.44336 117.327 11.7422 186.072 12.8926c22.1523 -22.3184 44.3037 -45.4619 66.4551 -69.4297c24.4014 -26.4004 50.501 -55.001 78.3008 -85.8008
s58.9004 -64.5996 93.3008 -101.4l12.5996 9c-32.8008 52.4004 -60.9004 100.5 -84.3008 144.301s-42.7002 80.5 -57.9004 110.1c12.8008 25.2012 31.2012 60.1006 55.2012 104.701c24 44.5986 52.999 94.5 87 149.699l-7.83887 5.59961l7.83887 5.59961
c-32.8008 52.4004 -60.9004 100.5 -84.3008 144.301s-42.7002 80.5 -57.9004 110.1c12.8008 25.2012 31.2012 60.1006 55.2012 104.701c24 44.5986 52.999 94.5 87 149.699zM795.799 730.563c-24.2734 -24.2734 -47.751 -44.0146 -70.4307 -59.2246
c-22.6816 -15.209 -44.0615 -26.9834 -64.1396 -35.3213c-20.0801 -8.33887 -38.1025 -14.3535 -54.0674 -18.0439c15.0303 -12.1885 29.749 -25.4863 44.1572 -39.8955c14.4092 -14.4082 28.5088 -29.9287 42.2969 -46.5586
c3.69141 15.9639 9.67578 33.957 17.9551 53.9775c8.2793 20.0195 20.0234 41.3711 35.2324 64.0508c15.2109 22.6807 35.0107 46.2178 59.4023 70.6094zM893.38 632.982c-24.2744 -24.2744 -47.751 -44.0146 -70.4316 -59.2236
c-22.6816 -15.21 -44.0605 -26.9844 -64.1396 -35.3223c-20.0801 -8.33887 -38.1016 -14.3535 -54.0664 -18.0439c13.2744 -10.7656 26.3076 -22.3965 39.0986 -34.8936c-13.4893 -11.6602 -26.7178 -21.8379 -39.6865 -30.5352
c-22.6807 -15.209 -44.0615 -26.9834 -64.1396 -35.3213c-20.0801 -8.33789 -38.1025 -14.3525 -54.0664 -18.0439c15.0293 -12.1875 29.748 -25.4863 44.1572 -39.8955c14.4092 -14.4082 28.5078 -29.9277 42.2969 -46.5586c3.69043 15.9648 9.6748 33.957 17.9541 53.9785
c8.2793 20.0195 20.0244 41.3701 35.2334 64.0498c8.7168 12.998 18.9404 26.2773 30.6729 39.8379c11.8574 -12.2607 23.502 -25.2852 34.9326 -39.0723c3.69141 15.9648 9.67676 33.957 17.9561 53.9775c8.2793 20.0195 20.0225 41.3711 35.2324 64.0508
c15.21 22.6807 35.0098 46.2178 59.4023 70.6094zM990.96 535.401c-24.2734 -24.2734 -47.75 -44.0137 -70.4307 -59.2236s-44.0615 -26.9834 -64.1396 -35.3223c-20.0801 -8.33789 -38.1025 -14.3525 -54.0664 -18.043c15.0293 -12.1885 29.748 -25.4873 44.1572 -39.8955
c14.4092 -14.4092 28.5078 -29.9287 42.2969 -46.5586c3.69043 15.9639 9.6748 33.957 17.9541 53.9775c8.2793 20.0195 20.0244 41.3701 35.2334 64.0508c15.21 22.6807 35.0098 46.2178 59.4014 70.6084z" />
</svg>
