<?xml version="1.0" standalone="no"?>
<!DOCTYPE svg PUBLIC "-//W3C//DTD SVG 1.1//EN" "http://www.w3.org/Graphics/SVG/1.1/DTD/svg11.dtd" >
<svg xmlns="http://www.w3.org/2000/svg" xmlns:xlink="http://www.w3.org/1999/xlink" version="1.1" viewBox="0 0 1010 800">
   <path fill="currentColor"
d="M704.376 800c0 -128.932 -4.40332 -243.71 -13.208 -344.34c-0.102539 -1.1709 -0.205078 -2.34082 -0.308594 -3.50879c-72.6582 8.36816 -136.945 18.7656 -192.864 31.1914c-62.2637 13.8369 -114.929 27.9883 -157.995 42.4531
c5.51855 -28.4268 8.59082 -57.5928 9.21875 -87.5c-31.2607 2.11523 -60.2666 5.80957 -87.0195 11.085c-44.6543 8.80469 -83.7266 20.126 -117.217 33.9619c-33.4902 13.8369 -61.8184 27.9883 -84.9824 42.4531c3.34863 -32.0762 5.02344 -65.0947 5.02344 -99.0566
s-1.6748 -68.8682 -5.02344 -104.717c23.1641 14.4639 51.4219 28.6152 84.7734 42.4531c33.3506 13.8359 72.3535 25.1572 117.007 33.9619c26.7881 5.28125 55.8867 8.97949 87.2959 11.0938c-0.871094 -28.5166 -3.89648 -57.6865 -9.07617 -87.5088
c43.0664 14.4639 95.6006 28.6152 157.606 42.4531c54.4883 12.1582 117.089 22.375 187.805 30.6484c-7.81445 -75.8047 -17.2168 -143.676 -28.2051 -203.614c-13.8369 -75.4717 -27.9883 -139.309 -42.4531 -191.51c32.0762 7.54688 65.0947 11.3213 99.0566 11.3213
s68.8682 -3.77441 104.717 -11.3213c-14.4639 52.2012 -28.6152 115.88 -42.4531 191.038c-11.3428 61.6143 -20.9951 131.787 -28.957 210.52c75.1807 6.72461 159.476 10.0879 252.884 10.0879v24.5273c-95.0498 0 -180.776 3.51562 -257.182 10.5469
c-0.237305 2.65625 -0.472656 5.32227 -0.707031 7.99707c-8.80371 100.629 -13.208 215.724 -13.208 345.283h-24.5273z" />
</svg>
