<?xml version="1.0" standalone="no"?>
<!DOCTYPE svg PUBLIC "-//W3C//DTD SVG 1.1//EN" "http://www.w3.org/Graphics/SVG/1.1/DTD/svg11.dtd" >
<svg xmlns="http://www.w3.org/2000/svg" xmlns:xlink="http://www.w3.org/1999/xlink" version="1.1" viewBox="0 0 1760 800">
   <path fill="currentColor"
d="M1454.38 800c0 -128.932 -4.40332 -243.71 -13.208 -344.34c-0.102539 -1.1709 -0.205078 -2.34082 -0.308594 -3.50879c-72.6582 8.36816 -136.945 18.7656 -192.864 31.1914c-62.2637 13.8369 -114.929 27.9883 -157.995 42.4531
c4.77246 -24.583 7.71582 -49.7197 8.83008 -75.4102c-62.3545 8.65527 -117.138 19.6416 -164.349 32.957c-49.0566 13.8369 -90.5508 27.9883 -124.481 42.4531c4.90527 -32.0762 7.3584 -65.0947 7.3584 -99.0566s-2.45312 -68.8682 -7.3584 -104.717
c33.9307 14.4639 75.3223 28.6152 124.175 42.4531c47.1064 13.3408 101.908 24.3447 164.407 33.0078c-1.26855 -24.6709 -4.12891 -49.8252 -8.58203 -75.4609c43.0664 14.4639 95.6006 28.6152 157.606 42.4531c54.4883 12.1582 117.089 22.375 187.805 30.6484
c-7.81445 -75.8047 -17.2168 -143.676 -28.2051 -203.614c-13.8369 -75.4717 -27.9883 -139.309 -42.4531 -191.51c32.0762 7.54688 65.0947 11.3213 99.0566 11.3213s68.8682 -3.77441 104.717 -11.3213c-14.4639 52.2012 -28.6152 115.88 -42.4531 191.038
c-11.3428 61.6143 -20.9951 131.787 -28.957 210.52c75.1807 6.72461 159.476 10.0879 252.884 10.0879v24.5273c-95.0498 0 -180.776 3.51562 -257.182 10.5469c-0.237305 2.65625 -0.472656 5.32227 -0.707031 7.99707c-8.80371 100.629 -13.208 215.724 -13.208 345.283
h-24.5273zM722.32 286.751c24.5898 -1.00488 49.6582 -3.25488 75.2061 -6.75098c-14.4639 33.9307 -28.6152 75.3223 -42.4531 124.175c-13.8359 48.8525 -25.1572 105.982 -33.9619 171.391c-8.80371 65.4092 -13.208 140.221 -13.208 224.435h-24.5273
c0 -67.7402 -2.87695 -129.47 -8.62988 -185.19c-13.1924 1.3623 -26.0488 2.88672 -38.5674 4.57129c-65.4082 8.80469 -122.641 20.126 -171.697 33.9619c-49.0566 13.8369 -90.5508 27.9883 -124.481 42.4531c3.74707 -24.499 6.0625 -49.5488 6.94824 -75.1484
c-61.5762 8.61523 -115.731 19.5137 -162.467 32.6953c-49.0566 13.8369 -90.5508 27.9883 -124.481 42.4531c4.90527 -32.0762 7.3584 -65.0947 7.3584 -99.0566s-2.45312 -68.8682 -7.3584 -104.717c33.9307 14.4639 75.3223 28.6152 124.175 42.4531
c46.6455 13.2109 100.837 24.1289 162.576 32.7529c-1.00488 -24.5898 -3.25488 -49.6582 -6.75098 -75.2061c33.9307 14.4639 75.3223 28.6152 124.175 42.4531c48.8525 13.8359 105.982 25.1572 171.391 33.9619c11.0986 1.49414 22.4688 2.86133 34.1084 4.10156
c-8.73242 -63.8936 -19.8887 -119.913 -33.4678 -168.058c-13.7568 -48.7734 -27.8252 -90.0713 -42.2031 -123.894c-48.1348 7.72559 -91.3086 16.9775 -129.521 27.7549c-49.0566 13.8369 -90.5508 27.9883 -124.481 42.4531
c3.74707 -24.499 6.0625 -49.5488 6.94824 -75.1484c-61.5762 8.61523 -115.731 19.5137 -162.467 32.6953c-49.0566 13.8369 -90.5508 27.9883 -124.481 42.4531c4.90527 -32.0762 7.3584 -65.0947 7.3584 -99.0566s-2.45312 -68.8682 -7.3584 -104.717
c33.9307 14.4639 75.3223 28.6152 124.175 42.4531c46.6455 13.2109 100.837 24.1289 162.576 32.7529c-1.00488 -24.5898 -3.25488 -49.6582 -6.75098 -75.2061c33.9307 14.4639 75.3223 28.6152 124.175 42.4531c48.8525 13.8359 105.982 25.1572 171.391 33.9619
c7.7666 1.04492 15.666 2.02832 23.6973 2.9502c-6.69629 -37.1826 -14.3828 -71.1514 -23.0566 -101.906c-13.8369 -49.0566 -27.9883 -90.5508 -42.4531 -124.481c32.0762 4.90527 65.0947 7.3584 99.0566 7.3584s68.8682 -2.45312 104.717 -7.3584
c-14.4639 33.9307 -28.6152 75.3223 -42.4531 124.175c-13.2109 46.6455 -24.1289 100.837 -32.7529 162.576zM668.901 286.948c-0.767578 -5.48145 -1.55176 -10.9033 -2.35547 -16.2666c-10.333 1.13184 -20.4561 2.36523 -30.3672 3.69922
c-13.835 1.8623 -27.3027 3.83691 -40.4062 5.9248c23.8564 3.56738 48.2324 5.78125 73.1289 6.64258z" />
</svg>
