<?xml version="1.0" standalone="no"?>
<!DOCTYPE svg PUBLIC "-//W3C//DTD SVG 1.1//EN" "http://www.w3.org/Graphics/SVG/1.1/DTD/svg11.dtd" >
<svg xmlns="http://www.w3.org/2000/svg" xmlns:xlink="http://www.w3.org/1999/xlink" version="1.1" viewBox="0 0 1760 800">
   <path fill="currentColor"
d="M1454.38 800c0 -128.932 -4.40332 -243.71 -13.208 -344.34c-0.102539 -1.1709 -0.205078 -2.34082 -0.308594 -3.50879c-72.6582 8.36816 -136.945 18.7656 -192.864 31.1914c-62.2637 13.8369 -114.929 27.9883 -157.995 42.4531
c5.51855 -28.4268 8.59082 -57.5928 9.21875 -87.5c-31.2607 2.11523 -60.2666 5.80957 -87.0195 11.085c-44.6543 8.80469 -83.7266 20.126 -117.217 33.9619c-33.4902 13.8369 -61.8184 27.9883 -84.9824 42.4531c3.34863 -32.0762 5.02344 -65.0947 5.02344 -99.0566
s-1.6748 -68.8682 -5.02344 -104.717c23.1641 14.4639 51.4219 28.6152 84.7734 42.4531c33.3506 13.8359 72.3535 25.1572 117.007 33.9619c26.7881 5.28125 55.8867 8.97949 87.2959 11.0938c-0.871094 -28.5166 -3.89648 -57.6865 -9.07617 -87.5088
c43.0664 14.4639 95.6006 28.6152 157.606 42.4531c54.4883 12.1582 117.089 22.375 187.805 30.6484c-7.81445 -75.8047 -17.2168 -143.676 -28.2051 -203.614c-13.8369 -75.4717 -27.9883 -139.309 -42.4531 -191.51c32.0762 7.54688 65.0947 11.3213 99.0566 11.3213
s68.8682 -3.77441 104.717 -11.3213c-14.4639 52.2012 -28.6152 115.88 -42.4531 191.038c-11.3428 61.6143 -20.9951 131.787 -28.957 210.52c75.1807 6.72461 159.476 10.0879 252.884 10.0879v24.5273c-95.0498 0 -180.776 3.51562 -257.182 10.5469
c-0.237305 2.65625 -0.472656 5.32227 -0.707031 7.99707c-8.80371 100.629 -13.208 215.724 -13.208 345.283h-24.5273zM710.15 287.147c28.4746 -0.69043 57.5996 -3.07324 87.376 -7.14746c-14.4639 33.9307 -28.6152 75.3223 -42.4531 124.175
c-13.8359 48.8525 -25.1572 105.982 -33.9619 171.391c-8.80371 65.4092 -13.208 140.221 -13.208 224.435h-24.5273c0 -71.1758 -3.17578 -135.715 -9.52734 -193.621c-48.6914 0.962891 -92.5742 5.29688 -131.649 13.002
c-44.6543 8.80469 -83.7266 20.126 -117.217 33.9619c-33.4902 13.8369 -61.8184 27.9883 -84.9824 42.4531c2.95801 -28.3311 4.60938 -57.3984 4.95508 -87.2012c-29.6387 2.15625 -57.2236 5.75195 -82.7559 10.7861c-44.6543 8.80469 -83.7266 20.126 -117.217 33.9619
c-33.4902 13.8369 -61.8184 27.9883 -84.9824 42.4531c3.34863 -32.0762 5.02344 -65.0947 5.02344 -99.0566s-1.6748 -68.8682 -5.02344 -104.717c23.1641 14.4639 51.4219 28.6152 84.7734 42.4531c33.3506 13.8359 72.3535 25.1572 117.007 33.9619
c25.5908 5.04492 53.2891 8.64551 83.0967 10.7998c-0.475586 -28.4229 -2.10059 -57.4951 -4.87695 -87.2148c23.1641 14.4639 51.4219 28.6152 84.7734 42.4531c33.3506 13.8359 72.3535 25.1572 117.007 33.9619c38.3027 7.55176 81.3281 11.8662 129.076 12.9404
c-0.226562 -1.73926 -0.456055 -3.47266 -0.688477 -5.19922c-8.80469 -65.4082 -20.126 -122.641 -33.9619 -171.697c-13.8369 -49.0566 -27.9883 -90.5508 -42.4531 -124.481c28.3838 4.34082 57.5049 6.76074 87.3652 7.26074
c-0.618164 -8.83789 -1.36426 -17.4941 -2.23633 -25.9688c-50.7061 0.755859 -96.2656 5.12012 -136.683 13.0889c-44.6543 8.80469 -83.7266 20.126 -117.217 33.9619c-33.4902 13.8369 -61.8184 27.9883 -84.9824 42.4531
c2.95801 -28.3311 4.60938 -57.3984 4.95508 -87.2012c-29.6387 2.15625 -57.2236 5.75195 -82.7559 10.7861c-44.6543 8.80469 -83.7266 20.126 -117.217 33.9619c-33.4902 13.8369 -61.8184 27.9883 -84.9824 42.4531c3.34863 -32.0762 5.02344 -65.0947 5.02344 -99.0566
s-1.6748 -68.8682 -5.02344 -104.717c23.1641 14.4639 51.4219 28.6152 84.7734 42.4531c33.3506 13.8359 72.3535 25.1572 117.007 33.9619c25.5908 5.04492 53.2891 8.64551 83.0967 10.7998c-0.475586 -28.4229 -2.10059 -57.4951 -4.87695 -87.2148
c23.1641 14.4639 51.4219 28.6152 84.7734 42.4531c33.3506 13.8359 72.3535 25.1572 117.007 33.9619c39.6445 7.81641 84.3486 12.1641 134.112 13.042c-1.63867 -11.8105 -3.54688 -23.2373 -5.72461 -34.2803c-8.80469 -44.6543 -20.126 -83.7266 -33.9619 -117.217
c-13.8369 -33.4902 -27.9883 -61.8184 -42.4531 -84.9824c32.0762 3.34863 65.0947 5.02344 99.0566 5.02344s68.8682 -1.6748 104.717 -5.02344c-14.4639 23.1641 -28.6152 51.4219 -42.4531 84.7734c-13.8359 33.3506 -25.1572 72.3535 -33.9619 117.007
c-5.17285 26.2393 -8.82715 54.6953 -10.9609 85.3672z" />
</svg>
