<?xml version="1.0" standalone="no"?>
<!DOCTYPE svg PUBLIC "-//W3C//DTD SVG 1.1//EN" "http://www.w3.org/Graphics/SVG/1.1/DTD/svg11.dtd" >
<svg xmlns="http://www.w3.org/2000/svg" xmlns:xlink="http://www.w3.org/1999/xlink" version="1.1" viewBox="0 0 6478 6407">
   <path fill="currentColor"
d="M2863.84 643.666c128.932 0 243.71 -4.40332 344.34 -13.208c1.1709 -0.102539 2.34082 -0.205078 3.50879 -0.308594c-8.36816 -72.6582 -18.7656 -136.945 -31.1914 -192.864c-13.8369 -62.2637 -27.9883 -114.929 -42.4531 -157.995
c24.583 4.77246 49.7197 7.71582 75.4102 8.83008c-8.65527 -62.3545 -19.6416 -117.138 -32.957 -164.349c-13.8369 -49.0566 -27.9883 -90.5508 -42.4531 -124.481c32.0762 4.90527 65.0947 7.3584 99.0566 7.3584s68.8682 -2.45312 104.717 -7.3584
c-14.4639 33.9307 -28.6152 75.3223 -42.4531 124.175c-13.3408 47.1064 -24.3447 101.908 -33.0078 164.407c24.6709 -1.26855 49.8252 -4.12891 75.4609 -8.58203c-14.4639 43.0664 -28.6152 95.6006 -42.4531 157.606c-12.1582 54.4883 -22.375 117.089 -30.6484 187.805
c75.8047 -7.81445 143.676 -17.2168 203.614 -28.2051c75.4717 -13.8369 139.309 -27.9883 191.51 -42.4531c-7.54688 32.0762 -11.3213 65.0947 -11.3213 99.0566s3.77441 68.8682 11.3213 104.717c-52.2012 -14.4639 -115.88 -28.6152 -191.038 -42.4531
c-61.6143 -11.3428 -131.787 -20.9951 -210.52 -28.957c-6.72461 75.1807 -10.0879 159.476 -10.0879 252.884h-24.5273c0 -95.0498 -3.51562 -180.776 -10.5469 -257.182c-2.65625 -0.237305 -5.32227 -0.472656 -7.99707 -0.707031
c-100.629 -8.80371 -215.724 -13.208 -345.283 -13.208v-24.5273zM2854.67 1859.29c0 -174.058 -4.40332 -329.009 -13.208 -464.858s-20.126 -254.717 -33.9619 -356.604c-13.8369 -101.887 -27.9883 -188.066 -42.4531 -258.538
c32.0762 10.1885 65.0947 15.2842 99.0566 15.2842c32.8965 0 66.6787 -4.78125 101.345 -14.3398c-0.133789 -0.31543 -0.267578 -0.629883 -0.401367 -0.944336c0.819336 0.125 1.63965 0.249023 2.45996 0.371094c0.4375 -0.123047 0.875977 -0.24707 1.31348 -0.371094
c-0.0371094 0.182617 -0.0751953 0.365234 -0.112305 0.548828c30.9258 4.53906 62.7246 6.80957 95.3955 6.80957c33.9619 0 68.8682 -2.45312 104.717 -7.3584c-14.4639 33.9307 -28.6152 75.3223 -42.4531 124.175c-13.8359 48.8525 -25.1572 105.982 -33.9619 171.391
c-6.5498 48.666 -10.665 102.538 -12.3428 161.614c27.7764 -0.621094 56.1729 -2.85352 85.1895 -6.69922l-0.205078 -0.480469c0.59375 0.0908203 1.18848 0.180664 1.7832 0.269531c0.663086 -0.0888672 1.32617 -0.178711 1.99023 -0.269531
c-0.0751953 0.176758 -0.151367 0.354492 -0.226562 0.532227c30.9619 4.55078 62.7988 6.82617 95.5098 6.82617c32.834 0 66.5508 -2.29297 101.148 -6.87793l-0.205078 -0.480469c0.59375 0.0908203 1.18848 0.180664 1.7832 0.269531
c0.663086 -0.0888672 1.32617 -0.178711 1.99023 -0.269531c-0.0751953 0.176758 -0.151367 0.354492 -0.226562 0.532227c30.9619 4.55078 62.7988 6.82617 95.5098 6.82617c33.9619 0 68.8682 -2.45312 104.717 -7.3584
c-14.4639 33.9307 -28.6152 75.3223 -42.4531 124.175c-13.8359 48.8525 -25.1572 105.982 -33.9619 171.391c-7.45508 55.3926 -11.7559 117.528 -12.8984 186.408c21.1465 -4.55469 41.0986 -9.47754 59.8545 -14.7676
c49.0566 -13.8369 90.5508 -27.9883 124.481 -42.4531c-4.90527 32.0762 -7.3584 65.0947 -7.3584 99.0566s2.45312 68.8682 7.3584 104.717c-33.9307 -14.4639 -75.3223 -28.6152 -124.175 -42.4531c-46.6455 -13.2109 -100.837 -24.1289 -162.576 -32.7529
c1.00488 24.5898 3.25488 49.6582 6.75098 75.2061c-33.9307 -14.4639 -75.3223 -28.6152 -124.175 -42.4531c-48.8525 -13.8359 -105.982 -25.1572 -171.391 -33.9619c-61.2979 -8.25 -130.854 -12.6367 -208.666 -13.1562
c-0.276367 29.7363 -0.414062 60.085 -0.414062 91.0449h-24.5273zM3512.67 2972.29c0 -174.058 -4.40332 -329.009 -13.208 -464.858s-20.126 -254.717 -33.9619 -356.604c-13.8369 -101.887 -27.9883 -188.066 -42.4531 -258.538
c32.0762 10.1885 65.0947 15.2842 99.0566 15.2842s68.8682 -5.0957 104.717 -15.2842c-14.4639 70.4717 -28.6152 156.438 -42.4531 257.901c-13.8359 101.462 -25.1572 220.117 -33.9619 355.966c-8.80371 135.85 -13.208 291.228 -13.208 466.133h-24.5273z
M3663.71 5762.46c-128.932 0 -243.71 4.40332 -344.34 13.208c-1.1709 0.102539 -2.34082 0.205078 -3.50879 0.308594c8.36816 72.6582 18.7656 136.945 31.1914 192.864c13.8369 62.2637 27.9883 114.929 42.4531 157.995
c-24.583 -4.77246 -49.7197 -7.71582 -75.4102 -8.83008c8.65527 62.3545 19.6416 117.138 32.957 164.349c13.8369 49.0566 27.9883 90.5508 42.4531 124.481c-32.0762 -4.90527 -65.0947 -7.3584 -99.0566 -7.3584s-68.8682 2.45312 -104.717 7.3584
c14.4639 -33.9307 28.6152 -75.3223 42.4531 -124.175c13.3408 -47.1064 24.3447 -101.908 33.0078 -164.407c-24.6709 1.26855 -49.8252 4.12891 -75.4609 8.58203c14.4639 -43.0664 28.6152 -95.6006 42.4531 -157.606c12.1582 -54.4883 22.375 -117.089 30.6484 -187.805
c-75.8047 7.81445 -143.676 17.2168 -203.614 28.2051c-75.4717 13.8369 -139.309 27.9883 -191.51 42.4531c7.54688 -32.0762 11.3213 -65.0947 11.3213 -99.0566s-3.77441 -68.8682 -11.3213 -104.717c52.2012 14.4639 115.88 28.6152 191.038 42.4531
c61.6143 11.3428 131.787 20.9951 210.52 28.957c6.72461 -75.1807 10.0879 -159.476 10.0879 -252.884h24.5273c0 95.0498 3.51562 180.776 10.5469 257.182c2.65625 0.237305 5.32227 0.472656 7.99707 0.707031c100.629 8.80371 215.724 13.208 345.283 13.208v24.5273z
M3672.88 4546.84c0 174.058 4.40332 329.009 13.208 464.858s20.126 254.717 33.9619 356.604c13.8369 101.887 27.9883 188.066 42.4531 258.538c-32.0762 -10.1885 -65.0947 -15.2842 -99.0566 -15.2842c-32.8965 0 -66.6787 4.78125 -101.345 14.3398
c0.133789 0.31543 0.267578 0.629883 0.401367 0.944336c-0.819336 -0.125 -1.63965 -0.249023 -2.45996 -0.371094c-0.4375 0.123047 -0.875977 0.24707 -1.31348 0.371094c0.0371094 -0.182617 0.0751953 -0.365234 0.112305 -0.548828
c-30.9258 -4.53906 -62.7246 -6.80957 -95.3955 -6.80957c-33.9619 0 -68.8682 2.45312 -104.717 7.3584c14.4639 -33.9307 28.6152 -75.3223 42.4531 -124.175c13.8359 -48.8525 25.1572 -105.982 33.9619 -171.391c6.5498 -48.666 10.665 -102.538 12.3428 -161.614
c-27.7764 0.621094 -56.1729 2.85352 -85.1895 6.69922l0.205078 0.480469c-0.59375 -0.0908203 -1.18848 -0.180664 -1.7832 -0.269531c-0.663086 0.0888672 -1.32617 0.178711 -1.99023 0.269531c0.0751953 -0.176758 0.151367 -0.354492 0.226562 -0.532227
c-30.9619 -4.55078 -62.7988 -6.82617 -95.5098 -6.82617c-32.834 0 -66.5508 2.29297 -101.148 6.87793l0.205078 0.480469c-0.59375 -0.0908203 -1.18848 -0.180664 -1.7832 -0.269531c-0.663086 0.0888672 -1.32617 0.178711 -1.99023 0.269531
c0.0751953 -0.176758 0.151367 -0.354492 0.226562 -0.532227c-30.9619 -4.55078 -62.7988 -6.82617 -95.5098 -6.82617c-33.9619 0 -68.8682 2.45312 -104.717 7.3584c14.4639 -33.9307 28.6152 -75.3223 42.4531 -124.175
c13.8359 -48.8525 25.1572 -105.982 33.9619 -171.391c7.45508 -55.3926 11.7559 -117.528 12.8984 -186.408c-21.1465 4.55469 -41.0986 9.47754 -59.8545 14.7676c-49.0566 13.8369 -90.5508 27.9883 -124.481 42.4531c4.90527 -32.0762 7.3584 -65.0947 7.3584 -99.0566
s-2.45312 -68.8682 -7.3584 -104.717c33.9307 14.4639 75.3223 28.6152 124.175 42.4531c46.6455 13.2109 100.837 24.1289 162.576 32.7529c-1.00488 -24.5898 -3.25488 -49.6582 -6.75098 -75.2061c33.9307 14.4639 75.3223 28.6152 124.175 42.4531
c48.8525 13.8359 105.982 25.1572 171.391 33.9619c61.2979 8.25 130.854 12.6367 208.666 13.1562c0.276367 -29.7363 0.414062 -60.085 0.414062 -91.0449h24.5273zM3014.88 3433.84c0 174.058 4.40332 329.009 13.208 464.858s20.126 254.717 33.9619 356.604
c13.8369 101.887 27.9883 188.066 42.4531 258.538c-32.0762 -10.1885 -65.0947 -15.2842 -99.0566 -15.2842s-68.8682 5.0957 -104.717 15.2842c14.4639 -70.4717 28.6152 -156.438 42.4531 -257.901c13.8359 -101.462 25.1572 -220.117 33.9619 -355.966
c8.80371 -135.85 13.208 -291.228 13.208 -466.133h24.5273zM5823.17 2803.14c0 128.932 4.40332 243.71 13.208 344.34c0.102539 1.1709 0.205078 2.34082 0.308594 3.50879c72.6582 -8.36816 136.945 -18.7656 192.864 -31.1914
c62.2637 -13.8369 114.929 -27.9883 157.995 -42.4531c-4.77246 24.583 -7.71582 49.7197 -8.83008 75.4102c62.3545 -8.65527 117.138 -19.6416 164.349 -32.957c49.0566 -13.8369 90.5508 -27.9883 124.481 -42.4531c-4.90527 32.0762 -7.3584 65.0947 -7.3584 99.0566
s2.45312 68.8682 7.3584 104.717c-33.9307 -14.4639 -75.3223 -28.6152 -124.175 -42.4531c-47.1064 -13.3408 -101.908 -24.3447 -164.407 -33.0078c1.26855 24.6709 4.12891 49.8252 8.58203 75.4609c-43.0664 -14.4639 -95.6006 -28.6152 -157.606 -42.4531
c-54.4883 -12.1582 -117.089 -22.375 -187.805 -30.6484c7.81445 75.8047 17.2168 143.676 28.2051 203.614c13.8369 75.4717 27.9883 139.309 42.4531 191.51c-32.0762 -7.54688 -65.0947 -11.3213 -99.0566 -11.3213s-68.8682 3.77441 -104.717 11.3213
c14.4639 -52.2012 28.6152 -115.88 42.4531 -191.038c11.3428 -61.6143 20.9951 -131.787 28.957 -210.52c-75.1807 -6.72461 -159.476 -10.0879 -252.884 -10.0879v-24.5273c95.0498 0 180.776 -3.51562 257.182 -10.5469
c0.237305 -2.65625 0.472656 -5.32227 0.707031 -7.99707c8.80371 -100.629 13.208 -215.724 13.208 -345.283h24.5273zM4607.55 2793.96c174.058 0 329.009 -4.40332 464.858 -13.208s254.717 -20.126 356.604 -33.9619
c101.887 -13.8369 188.066 -27.9883 258.538 -42.4531c-10.1885 32.0762 -15.2842 65.0947 -15.2842 99.0566c0 32.8965 4.78125 66.6787 14.3398 101.345c0.31543 -0.133789 0.629883 -0.267578 0.944336 -0.401367c-0.125 0.819336 -0.249023 1.63965 -0.371094 2.45996
c0.123047 0.4375 0.24707 0.875977 0.371094 1.31348c-0.182617 -0.0371094 -0.365234 -0.0751953 -0.548828 -0.112305c-4.53906 30.9258 -6.80957 62.7246 -6.80957 95.3955c0 33.9619 2.45312 68.8682 7.3584 104.717
c-33.9307 -14.4639 -75.3223 -28.6152 -124.175 -42.4531c-48.8525 -13.8359 -105.982 -25.1572 -171.391 -33.9619c-48.666 -6.5498 -102.538 -10.665 -161.614 -12.3428c0.621094 27.7764 2.85352 56.1729 6.69922 85.1895l0.480469 -0.205078
c-0.0908203 0.59375 -0.180664 1.18848 -0.269531 1.7832c0.0888672 0.663086 0.178711 1.32617 0.269531 1.99023c-0.176758 -0.0751953 -0.354492 -0.151367 -0.532227 -0.226562c-4.55078 30.9619 -6.82617 62.7988 -6.82617 95.5098
c0 32.834 2.29297 66.5508 6.87793 101.148l0.480469 -0.205078c-0.0908203 0.59375 -0.180664 1.18848 -0.269531 1.7832c0.0888672 0.663086 0.178711 1.32617 0.269531 1.99023c-0.176758 -0.0751953 -0.354492 -0.151367 -0.532227 -0.226562
c-4.55078 30.9619 -6.82617 62.7988 -6.82617 95.5098c0 33.9619 2.45312 68.8682 7.3584 104.717c-33.9307 -14.4639 -75.3223 -28.6152 -124.175 -42.4531c-48.8525 -13.8359 -105.982 -25.1572 -171.391 -33.9619c-55.3926 -7.45508 -117.528 -11.7559 -186.408 -12.8984
c4.55469 21.1465 9.47754 41.0986 14.7676 59.8545c13.8369 49.0566 27.9883 90.5508 42.4531 124.481c-32.0762 -4.90527 -65.0947 -7.3584 -99.0566 -7.3584s-68.8682 2.45312 -104.717 7.3584c14.4639 -33.9307 28.6152 -75.3223 42.4531 -124.175
c13.2109 -46.6455 24.1289 -100.837 32.7529 -162.576c-24.5898 1.00488 -49.6582 3.25488 -75.2061 6.75098c14.4639 -33.9307 28.6152 -75.3223 42.4531 -124.175c13.8359 -48.8525 25.1572 -105.982 33.9619 -171.391c8.25 -61.2979 12.6367 -130.854 13.1562 -208.666
c-29.7363 -0.276367 -60.085 -0.414062 -91.0449 -0.414062v-24.5273zM3494.55 3451.96c174.058 0 329.009 -4.40332 464.858 -13.208s254.717 -20.126 356.604 -33.9619c101.887 -13.8369 188.066 -27.9883 258.538 -42.4531
c-10.1885 32.0762 -15.2842 65.0947 -15.2842 99.0566s5.0957 68.8682 15.2842 104.717c-70.4717 -14.4639 -156.438 -28.6152 -257.901 -42.4531c-101.462 -13.8359 -220.117 -25.1572 -355.966 -33.9619c-135.85 -8.80371 -291.228 -13.208 -466.133 -13.208v-24.5273z
M704.376 3603c0 -128.932 -4.40332 -243.71 -13.208 -344.34c-0.102539 -1.1709 -0.205078 -2.34082 -0.308594 -3.50879c-72.6582 8.36816 -136.945 18.7656 -192.864 31.1914c-62.2637 13.8369 -114.929 27.9883 -157.995 42.4531
c4.77246 -24.583 7.71582 -49.7197 8.83008 -75.4102c-62.3545 8.65527 -117.138 19.6416 -164.349 32.957c-49.0566 13.8369 -90.5508 27.9883 -124.481 42.4531c4.90527 -32.0762 7.3584 -65.0947 7.3584 -99.0566s-2.45312 -68.8682 -7.3584 -104.717
c33.9307 14.4639 75.3223 28.6152 124.175 42.4531c47.1064 13.3408 101.908 24.3447 164.407 33.0078c-1.26855 -24.6709 -4.12891 -49.8252 -8.58203 -75.4609c43.0664 14.4639 95.6006 28.6152 157.606 42.4531c54.4883 12.1582 117.089 22.375 187.805 30.6484
c-7.81445 -75.8047 -17.2168 -143.676 -28.2051 -203.614c-13.8369 -75.4717 -27.9883 -139.309 -42.4531 -191.51c32.0762 7.54688 65.0947 11.3213 99.0566 11.3213s68.8682 -3.77441 104.717 -11.3213c-14.4639 52.2012 -28.6152 115.88 -42.4531 191.038
c-11.3428 61.6143 -20.9951 131.787 -28.957 210.52c75.1807 6.72461 159.476 10.0879 252.884 10.0879v24.5273c-95.0498 0 -180.776 3.51562 -257.182 10.5469c-0.237305 2.65625 -0.472656 5.32227 -0.707031 7.99707c-8.80371 100.629 -13.208 215.724 -13.208 345.283
h-24.5273zM1920 3612.17c-174.058 0 -329.009 4.40332 -464.858 13.208s-254.717 20.126 -356.604 33.9619c-101.887 13.8369 -188.066 27.9883 -258.538 42.4531c10.1885 -32.0762 15.2842 -65.0947 15.2842 -99.0566c0 -32.8965 -4.78125 -66.6787 -14.3398 -101.345
c-0.31543 0.133789 -0.629883 0.267578 -0.944336 0.401367c0.125 -0.819336 0.249023 -1.63965 0.371094 -2.45996c-0.123047 -0.4375 -0.24707 -0.875977 -0.371094 -1.31348c0.182617 0.0371094 0.365234 0.0751953 0.548828 0.112305
c4.53906 -30.9258 6.80957 -62.7246 6.80957 -95.3955c0 -33.9619 -2.45312 -68.8682 -7.3584 -104.717c33.9307 14.4639 75.3223 28.6152 124.175 42.4531c48.8525 13.8359 105.982 25.1572 171.391 33.9619c48.666 6.5498 102.538 10.665 161.614 12.3428
c-0.621094 -27.7764 -2.85352 -56.1729 -6.69922 -85.1895l-0.480469 0.205078c0.0908203 -0.59375 0.180664 -1.18848 0.269531 -1.7832c-0.0888672 -0.663086 -0.178711 -1.32617 -0.269531 -1.99023c0.176758 0.0751953 0.354492 0.151367 0.532227 0.226562
c4.55078 -30.9619 6.82617 -62.7988 6.82617 -95.5098c0 -32.834 -2.29297 -66.5508 -6.87793 -101.148l-0.480469 0.205078c0.0908203 -0.59375 0.180664 -1.18848 0.269531 -1.7832c-0.0888672 -0.663086 -0.178711 -1.32617 -0.269531 -1.99023
c0.176758 0.0751953 0.354492 0.151367 0.532227 0.226562c4.55078 -30.9619 6.82617 -62.7988 6.82617 -95.5098c0 -33.9619 -2.45312 -68.8682 -7.3584 -104.717c33.9307 14.4639 75.3223 28.6152 124.175 42.4531c48.8525 13.8359 105.982 25.1572 171.391 33.9619
c55.3926 7.45508 117.528 11.7559 186.408 12.8984c-4.55469 -21.1465 -9.47754 -41.0986 -14.7676 -59.8545c-13.8369 -49.0566 -27.9883 -90.5508 -42.4531 -124.481c32.0762 4.90527 65.0947 7.3584 99.0566 7.3584s68.8682 -2.45312 104.717 -7.3584
c-14.4639 33.9307 -28.6152 75.3223 -42.4531 124.175c-13.2109 46.6455 -24.1289 100.837 -32.7529 162.576c24.5898 -1.00488 49.6582 -3.25488 75.2061 -6.75098c-14.4639 33.9307 -28.6152 75.3223 -42.4531 124.175
c-13.8359 48.8525 -25.1572 105.982 -33.9619 171.391c-8.25 61.2979 -12.6367 130.854 -13.1562 208.666c29.7363 0.276367 60.085 0.414062 91.0449 0.414062v24.5273zM3033 2954.17c-174.058 0 -329.009 4.40332 -464.858 13.208s-254.717 20.126 -356.604 33.9619
c-101.887 13.8369 -188.066 27.9883 -258.538 42.4531c10.1885 -32.0762 15.2842 -65.0947 15.2842 -99.0566s-5.0957 -68.8682 -15.2842 -104.717c70.4717 14.4639 156.438 28.6152 257.901 42.4531c101.462 13.8359 220.117 25.1572 355.966 33.9619
c135.85 8.80371 291.228 13.208 466.133 13.208v24.5273zM3166.93 1233.76c-13.8086 33.0752 -27.3311 72.9756 -40.5664 119.702c-13.8359 48.8525 -25.1572 105.982 -33.9619 171.391c-8.18066 60.7822 -12.5625 129.683 -13.1416 206.703
c2.81641 -0.359375 5.61719 -0.725586 8.40039 -1.10059c63.0811 -8.49121 118.557 -19.3232 166.429 -32.4941c-1.45508 -63.2539 -5.66602 -120.752 -12.6309 -172.495c-8.80469 -65.4082 -20.126 -122.641 -33.9619 -171.697
c-13.2344 -46.9219 -26.7568 -86.9248 -40.5664 -120.009zM3053.8 1236.57c-1.68066 -58.7822 -5.79297 -112.483 -12.3379 -161.104c-8.80469 -65.4082 -20.126 -122.641 -33.9619 -171.697c-13.0254 -46.1807 -26.3301 -85.6592 -39.9121 -118.436
c-14.0352 69.3242 -27.7764 153.275 -41.2207 251.855c-13.8359 101.462 -25.1572 220.117 -33.9619 355.966c-6.8125 105.124 -10.9902 221.942 -12.5322 350.454c63.7217 -0.435547 121.971 -3.49121 174.75 -9.16406
c-0.492188 -77.7969 -4.87988 -147.455 -13.1611 -208.979c-8.80469 -65.4082 -20.126 -122.641 -33.9619 -171.697c-13.8369 -49.0566 -27.9883 -90.5508 -42.4531 -124.481c28.8232 4.4082 58.4072 6.83594 88.7529 7.28223zM3366.93 1233.76
c-13.8086 33.0752 -27.3311 72.9756 -40.5664 119.702c-13.8359 48.8525 -25.1572 105.982 -33.9619 171.391c-6.7002 49.7812 -10.8525 105.009 -12.4541 165.683c40.1846 -11.9346 74.8154 -24.0996 103.892 -36.4951c-3.74707 24.499 -6.0625 49.5488 -6.94824 75.1484
c27.3066 -3.82031 53.1543 -8.08984 77.542 -12.8086c-1.01367 -70.5547 -5.33984 -134.192 -12.9746 -190.914c-8.80469 -65.4082 -20.126 -122.641 -33.9619 -171.697c-13.2344 -46.9219 -26.7568 -86.9248 -40.5664 -120.009zM3081.75 2684.24
c1.97754 -0.256836 3.94629 -0.516602 5.90723 -0.780273c65.4082 -8.80469 122.641 -20.126 171.697 -33.9619c49.0566 -13.8369 90.5508 -27.9883 124.481 -42.4531c-4.90527 32.0762 -7.3584 65.0947 -7.3584 99.0566s2.45312 68.8682 7.3584 104.717
c-33.9307 -14.4639 -75.3223 -28.6152 -124.175 -42.4531c-48.8525 -13.8359 -105.982 -25.1572 -171.391 -33.9619c-2.6582 -0.357422 -5.33203 -0.708008 -8.02051 -1.05176c-2.04004 75.125 -3.05957 154.771 -3.05957 238.94h-24.5273
c0 -85.4297 -1.06055 -166.256 -3.18164 -242.48c-55.749 -5.74316 -117.631 -8.61621 -185.646 -8.61621v-24.5273c67.4053 0 128.859 -2.84863 184.364 -8.54492c-2.14355 -63.5791 -5.05859 -123.809 -8.74512 -180.689
c-0.1875 -2.89844 -0.376953 -5.78906 -0.567383 -8.67188c-52.9648 -5.04395 -111.315 -7.56641 -175.052 -7.56641v-24.5273c62.5771 0 120.024 -2.45508 172.344 -7.36426c-4.90527 -68.7041 -10.4941 -132.791 -16.7666 -192.263
c-47.6982 -3.89648 -99.5576 -5.8457 -155.577 -5.8457v-24.5273c54.4258 0 104.972 -1.85742 151.639 -5.57129c-3.16699 -27.834 -6.49414 -54.5898 -9.98145 -80.2666c-13.8369 -101.887 -27.9883 -188.066 -42.4531 -258.538
c32.0762 10.1885 65.0947 15.2842 99.0566 15.2842s68.8682 -5.0957 104.717 -15.2842c-14.4639 70.4717 -28.6152 156.438 -42.4531 257.901c-3.03613 22.2637 -5.95117 45.3555 -8.74512 69.2744c53.8887 -8.15137 101.802 -18.1416 143.739 -29.9697
c49.0566 -13.8369 90.5508 -27.9883 124.481 -42.4531c-4.90527 32.0762 -7.3584 65.0947 -7.3584 99.0566s2.45312 68.8682 7.3584 104.717c-33.9307 -14.4639 -75.3223 -28.6152 -124.175 -42.4531c-43.5547 -12.3359 -93.6895 -22.6719 -150.404 -31.0088
c-5.62988 54.5381 -10.6943 112.948 -15.1914 175.229c62.7451 -8.67578 117.841 -19.7061 165.289 -33.0879c49.0566 -13.8369 90.5508 -27.9883 124.481 -42.4531c-4.90527 32.0762 -7.3584 65.0947 -7.3584 99.0566s2.45312 68.8682 7.3584 104.717
c-33.9307 -14.4639 -75.3223 -28.6152 -124.175 -42.4531c-48.2988 -13.6787 -104.688 -24.9004 -169.168 -33.6611c-0.0322266 0.484375 -0.0634766 0.969727 -0.0947266 1.45508c-3.63184 56.0371 -6.51465 115.397 -8.64844 178.081zM3360.62 5172.37
c13.8086 -33.0752 27.3311 -72.9756 40.5664 -119.702c13.8359 -48.8525 25.1572 -105.982 33.9619 -171.391c8.18066 -60.7822 12.5625 -129.683 13.1416 -206.703c-2.81641 0.359375 -5.61719 0.725586 -8.40039 1.10059
c-63.0811 8.49121 -118.557 19.3232 -166.429 32.4941c1.45508 63.2539 5.66602 120.752 12.6309 172.495c8.80469 65.4082 20.126 122.641 33.9619 171.697c13.2344 46.9219 26.7568 86.9248 40.5664 120.009zM3473.75 5169.56
c1.68066 58.7822 5.79297 112.483 12.3379 161.104c8.80469 65.4082 20.126 122.641 33.9619 171.697c13.0254 46.1807 26.3301 85.6592 39.9121 118.436c14.0352 -69.3242 27.7764 -153.275 41.2207 -251.855c13.8359 -101.462 25.1572 -220.117 33.9619 -355.966
c6.8125 -105.124 10.9902 -221.942 12.5322 -350.454c-63.7217 0.435547 -121.971 3.49121 -174.75 9.16406c0.492188 77.7969 4.87988 147.455 13.1611 208.979c8.80469 65.4082 20.126 122.641 33.9619 171.697c13.8369 49.0566 27.9883 90.5508 42.4531 124.481
c-28.8232 -4.4082 -58.4072 -6.83594 -88.7529 -7.28223zM3160.62 5172.37c13.8086 -33.0752 27.3311 -72.9756 40.5664 -119.702c13.8359 -48.8525 25.1572 -105.982 33.9619 -171.391c6.7002 -49.7812 10.8525 -105.009 12.4541 -165.683
c-40.1846 11.9346 -74.8154 24.0996 -103.892 36.4951c3.74707 -24.499 6.0625 -49.5488 6.94824 -75.1484c-27.3066 3.82031 -53.1543 8.08984 -77.542 12.8086c1.01367 70.5547 5.33984 134.192 12.9746 190.914c8.80469 65.4082 20.126 122.641 33.9619 171.697
c13.2344 46.9219 26.7568 86.9248 40.5664 120.009zM3445.8 3721.89c-1.97754 0.256836 -3.94629 0.516602 -5.90723 0.780273c-65.4082 8.80469 -122.641 20.126 -171.697 33.9619c-49.0566 13.8369 -90.5508 27.9883 -124.481 42.4531
c4.90527 -32.0762 7.3584 -65.0947 7.3584 -99.0566s-2.45312 -68.8682 -7.3584 -104.717c33.9307 14.4639 75.3223 28.6152 124.175 42.4531c48.8525 13.8359 105.982 25.1572 171.391 33.9619c2.6582 0.357422 5.33203 0.708008 8.02051 1.05176
c2.04004 -75.125 3.05957 -154.771 3.05957 -238.94h24.5273c0 85.4297 1.06055 166.256 3.18164 242.48c55.749 5.74316 117.631 8.61621 185.646 8.61621v24.5273c-67.4053 0 -128.859 2.84863 -184.364 8.54492c2.14355 63.5791 5.05859 123.809 8.74512 180.689
c0.1875 2.89844 0.376953 5.78906 0.567383 8.67188c52.9648 5.04395 111.315 7.56641 175.052 7.56641v24.5273c-62.5771 0 -120.024 2.45508 -172.344 7.36426c4.90527 68.7041 10.4941 132.791 16.7666 192.263c47.6982 3.89648 99.5576 5.8457 155.577 5.8457v24.5273
c-54.4258 0 -104.972 1.85742 -151.639 5.57129c3.16699 27.834 6.49414 54.5898 9.98145 80.2666c13.8369 101.887 27.9883 188.066 42.4531 258.538c-32.0762 -10.1885 -65.0947 -15.2842 -99.0566 -15.2842s-68.8682 5.0957 -104.717 15.2842
c14.4639 -70.4717 28.6152 -156.438 42.4531 -257.901c3.03613 -22.2637 5.95117 -45.3555 8.74512 -69.2744c-53.8887 8.15137 -101.802 18.1416 -143.739 29.9697c-49.0566 13.8369 -90.5508 27.9883 -124.481 42.4531c4.90527 -32.0762 7.3584 -65.0947 7.3584 -99.0566
s-2.45312 -68.8682 -7.3584 -104.717c33.9307 14.4639 75.3223 28.6152 124.175 42.4531c43.5547 12.3359 93.6895 22.6719 150.404 31.0088c5.62988 -54.5381 10.6943 -112.948 15.1914 -175.229c-62.7451 8.67578 -117.841 19.7061 -165.289 33.0879
c-49.0566 13.8369 -90.5508 27.9883 -124.481 42.4531c4.90527 -32.0762 7.3584 -65.0947 7.3584 -99.0566s-2.45312 -68.8682 -7.3584 -104.717c33.9307 14.4639 75.3223 28.6152 124.175 42.4531c48.2988 13.6787 104.688 24.9004 169.168 33.6611
c0.0322266 -0.484375 0.0634766 -0.969727 0.0947266 -1.45508c3.63184 -56.0371 6.51465 -115.397 8.64844 -178.081zM5233.08 3106.23c-33.0752 -13.8086 -72.9756 -27.3311 -119.702 -40.5664c-48.8525 -13.8359 -105.982 -25.1572 -171.391 -33.9619
c-60.7822 -8.18066 -129.683 -12.5625 -206.703 -13.1416c0.359375 2.81641 0.725586 5.61719 1.10059 8.40039c8.49121 63.0811 19.3232 118.557 32.4941 166.429c63.2539 -1.45508 120.752 -5.66602 172.495 -12.6309c65.4082 -8.80469 122.641 -20.126 171.697 -33.9619
c46.9219 -13.2344 86.9248 -26.7568 120.009 -40.5664zM5230.27 2993.09c58.7822 -1.68066 112.483 -5.79297 161.104 -12.3379c65.4082 -8.80469 122.641 -20.126 171.697 -33.9619c46.1807 -13.0254 85.6592 -26.3301 118.436 -39.9121
c-69.3242 -14.0352 -153.275 -27.7764 -251.855 -41.2207c-101.462 -13.8359 -220.117 -25.1572 -355.966 -33.9619c-105.124 -6.8125 -221.942 -10.9902 -350.454 -12.5322c0.435547 63.7217 3.49121 121.971 9.16406 174.75
c77.7969 -0.492188 147.455 -4.87988 208.979 -13.1611c65.4082 -8.80469 122.641 -20.126 171.697 -33.9619c49.0566 -13.8369 90.5508 -27.9883 124.481 -42.4531c-4.4082 28.8232 -6.83594 58.4072 -7.28223 88.7529zM5233.08 3306.23
c-33.0752 -13.8086 -72.9756 -27.3311 -119.702 -40.5664c-48.8525 -13.8359 -105.982 -25.1572 -171.391 -33.9619c-49.7812 -6.7002 -105.009 -10.8525 -165.683 -12.4541c11.9346 40.1846 24.0996 74.8154 36.4951 103.892
c-24.499 -3.74707 -49.5488 -6.0625 -75.1484 -6.94824c3.82031 27.3066 8.08984 53.1543 12.8086 77.542c70.5547 -1.01367 134.192 -5.33984 190.914 -12.9746c65.4082 -8.80469 122.641 -20.126 171.697 -33.9619c46.9219 -13.2344 86.9248 -26.7568 120.009 -40.5664z
M3782.6 3021.05c0.256836 1.97754 0.516602 3.94629 0.780273 5.90723c8.80469 65.4082 20.126 122.641 33.9619 171.697c13.8369 49.0566 27.9883 90.5508 42.4531 124.481c-32.0762 -4.90527 -65.0947 -7.3584 -99.0566 -7.3584s-68.8682 2.45312 -104.717 7.3584
c14.4639 -33.9307 28.6152 -75.3223 42.4531 -124.175c13.8359 -48.8525 25.1572 -105.982 33.9619 -171.391c0.357422 -2.6582 0.708008 -5.33203 1.05176 -8.02051c-75.125 -2.04004 -154.771 -3.05957 -238.94 -3.05957v-24.5273
c85.4297 0 166.256 -1.06055 242.48 -3.18164c5.74316 -55.749 8.61621 -117.631 8.61621 -185.646h24.5273c0 67.4053 2.84863 128.859 8.54492 184.364c63.5791 -2.14355 123.809 -5.05859 180.689 -8.74512c2.89844 -0.1875 5.78906 -0.376953 8.67188 -0.567383
c5.04395 -52.9648 7.56641 -111.315 7.56641 -175.052h24.5273c0 62.5771 2.45508 120.024 7.36426 172.344c68.7041 -4.90527 132.791 -10.4941 192.263 -16.7666c3.89648 -47.6982 5.8457 -99.5576 5.8457 -155.577h24.5273c0 54.4258 1.85742 104.972 5.57129 151.639
c27.834 -3.16699 54.5898 -6.49414 80.2666 -9.98145c101.887 -13.8369 188.066 -27.9883 258.538 -42.4531c-10.1885 32.0762 -15.2842 65.0947 -15.2842 99.0566s5.0957 68.8682 15.2842 104.717c-70.4717 -14.4639 -156.438 -28.6152 -257.901 -42.4531
c-22.2637 -3.03613 -45.3555 -5.95117 -69.2744 -8.74512c8.15137 53.8887 18.1416 101.802 29.9697 143.739c13.8369 49.0566 27.9883 90.5508 42.4531 124.481c-32.0762 -4.90527 -65.0947 -7.3584 -99.0566 -7.3584s-68.8682 2.45312 -104.717 7.3584
c14.4639 -33.9307 28.6152 -75.3223 42.4531 -124.175c12.3359 -43.5547 22.6719 -93.6895 31.0088 -150.404c-54.5381 -5.62988 -112.948 -10.6943 -175.229 -15.1914c8.67578 62.7451 19.7061 117.841 33.0879 165.289c13.8369 49.0566 27.9883 90.5508 42.4531 124.481
c-32.0762 -4.90527 -65.0947 -7.3584 -99.0566 -7.3584s-68.8682 2.45312 -104.717 7.3584c14.4639 -33.9307 28.6152 -75.3223 42.4531 -124.175c13.6787 -48.2988 24.9004 -104.688 33.6611 -169.168c-0.484375 -0.0322266 -0.969727 -0.0634766 -1.45508 -0.0947266
c-56.0371 -3.63184 -115.397 -6.51465 -178.081 -8.64844zM1294.47 3299.91c33.0752 13.8086 72.9756 27.3311 119.702 40.5664c48.8525 13.8359 105.982 25.1572 171.391 33.9619c60.7822 8.18066 129.683 12.5625 206.703 13.1416
c-0.359375 -2.81641 -0.725586 -5.61719 -1.10059 -8.40039c-8.49121 -63.0811 -19.3232 -118.557 -32.4941 -166.429c-63.2539 1.45508 -120.752 5.66602 -172.495 12.6309c-65.4082 8.80469 -122.641 20.126 -171.697 33.9619
c-46.9219 13.2344 -86.9248 26.7568 -120.009 40.5664zM1297.28 3413.04c-58.7822 1.68066 -112.483 5.79297 -161.104 12.3379c-65.4082 8.80469 -122.641 20.126 -171.697 33.9619c-46.1807 13.0254 -85.6592 26.3301 -118.436 39.9121
c69.3242 14.0352 153.275 27.7764 251.855 41.2207c101.462 13.8359 220.117 25.1572 355.966 33.9619c105.124 6.8125 221.942 10.9902 350.454 12.5322c-0.435547 -63.7217 -3.49121 -121.971 -9.16406 -174.75c-77.7969 0.492188 -147.455 4.87988 -208.979 13.1611
c-65.4082 8.80469 -122.641 20.126 -171.697 33.9619c-49.0566 13.8369 -90.5508 27.9883 -124.481 42.4531c4.4082 -28.8232 6.83594 -58.4072 7.28223 -88.7529zM1294.47 3099.91c33.0752 13.8086 72.9756 27.3311 119.702 40.5664
c48.8525 13.8359 105.982 25.1572 171.391 33.9619c49.7812 6.7002 105.009 10.8525 165.683 12.4541c-11.9346 -40.1846 -24.0996 -74.8154 -36.4951 -103.892c24.499 3.74707 49.5488 6.0625 75.1484 6.94824c-3.82031 -27.3066 -8.08984 -53.1543 -12.8086 -77.542
c-70.5547 1.01367 -134.192 5.33984 -190.914 12.9746c-65.4082 8.80469 -122.641 20.126 -171.697 33.9619c-46.9219 13.2344 -86.9248 26.7568 -120.009 40.5664zM2744.95 3385.09c-0.256836 -1.97754 -0.516602 -3.94629 -0.780273 -5.90723
c-8.80469 -65.4082 -20.126 -122.641 -33.9619 -171.697c-13.8369 -49.0566 -27.9883 -90.5508 -42.4531 -124.481c32.0762 4.90527 65.0947 7.3584 99.0566 7.3584s68.8682 -2.45312 104.717 -7.3584c-14.4639 33.9307 -28.6152 75.3223 -42.4531 124.175
c-13.8359 48.8525 -25.1572 105.982 -33.9619 171.391c-0.357422 2.6582 -0.708008 5.33203 -1.05176 8.02051c75.125 2.04004 154.771 3.05957 238.94 3.05957v24.5273c-85.4297 0 -166.256 1.06055 -242.48 3.18164c-5.74316 55.749 -8.61621 117.631 -8.61621 185.646
h-24.5273c0 -67.4053 -2.84863 -128.859 -8.54492 -184.364c-63.5791 2.14355 -123.809 5.05859 -180.689 8.74512c-2.89844 0.1875 -5.78906 0.376953 -8.67188 0.567383c-5.04395 52.9648 -7.56641 111.315 -7.56641 175.052h-24.5273
c0 -62.5771 -2.45508 -120.024 -7.36426 -172.344c-68.7041 4.90527 -132.791 10.4941 -192.263 16.7666c-3.89648 47.6982 -5.8457 99.5576 -5.8457 155.577h-24.5273c0 -54.4258 -1.85742 -104.972 -5.57129 -151.639c-27.834 3.16699 -54.5898 6.49414 -80.2666 9.98145
c-101.887 13.8369 -188.066 27.9883 -258.538 42.4531c10.1885 -32.0762 15.2842 -65.0947 15.2842 -99.0566s-5.0957 -68.8682 -15.2842 -104.717c70.4717 14.4639 156.438 28.6152 257.901 42.4531c22.2637 3.03613 45.3555 5.95117 69.2744 8.74512
c-8.15137 -53.8887 -18.1416 -101.802 -29.9697 -143.739c-13.8369 -49.0566 -27.9883 -90.5508 -42.4531 -124.481c32.0762 4.90527 65.0947 7.3584 99.0566 7.3584s68.8682 -2.45312 104.717 -7.3584c-14.4639 33.9307 -28.6152 75.3223 -42.4531 124.175
c-12.3359 43.5547 -22.6719 93.6895 -31.0088 150.404c54.5381 5.62988 112.948 10.6943 175.229 15.1914c-8.67578 -62.7451 -19.7061 -117.841 -33.0879 -165.289c-13.8369 -49.0566 -27.9883 -90.5508 -42.4531 -124.481c32.0762 4.90527 65.0947 7.3584 99.0566 7.3584
s68.8682 -2.45312 104.717 -7.3584c-14.4639 33.9307 -28.6152 75.3223 -42.4531 124.175c-13.6787 48.2988 -24.9004 104.688 -33.6611 169.168c0.484375 0.0322266 0.969727 0.0634766 1.45508 0.0947266c56.0371 3.63184 115.397 6.51465 178.081 8.64844z" />
</svg>
