<?xml version="1.0" standalone="no"?>
<!DOCTYPE svg PUBLIC "-//W3C//DTD SVG 1.1//EN" "http://www.w3.org/Graphics/SVG/1.1/DTD/svg11.dtd" >
<svg xmlns="http://www.w3.org/2000/svg" xmlns:xlink="http://www.w3.org/1999/xlink" version="1.1" viewBox="0 0 1584 921">
   <path fill="currentColor"
d="M1570.05 456.173c-57.2139 0 -108.146 4.40332 -152.801 13.208s-83.7266 20.126 -117.217 33.9619c-33.4902 13.8369 -61.8184 27.9883 -84.9824 42.4531c2.95801 -28.3311 4.60938 -57.3984 4.95508 -87.2012c-29.6387 2.15625 -57.2236 5.75195 -82.7559 10.7861
c-44.6543 8.80469 -83.7266 20.126 -117.217 33.9619c-33.4902 13.8369 -61.8184 27.9883 -84.9824 42.4531c3.34863 -32.0762 5.02344 -65.0947 5.02344 -99.0566c0 -33.8193 -1.66113 -68.5752 -4.98145 -104.266c-5.18848 41.3213 -9.83203 85.4023 -13.9307 132.243
c-7.8623 89.8643 -12.2158 191.265 -13.0566 304.201c57.5928 5.42676 119.197 10.2666 184.812 14.5195c135.85 8.80371 291.228 13.208 466.133 13.208v24.5273c-174.058 0 -329.009 4.40332 -464.858 13.208s-254.717 20.126 -356.604 33.9619
c-101.887 13.8369 -188.066 27.9883 -258.538 42.4531c10.1885 -32.0762 15.2842 -65.0947 15.2842 -99.0566c0 -25.5664 -2.8877 -51.668 -8.66211 -78.3037c-44.6592 2.13574 -86.1572 5.78418 -124.497 10.9453c-65.4082 8.80469 -122.641 20.126 -171.697 33.9619
c-49.0566 13.8369 -90.5508 27.9883 -124.481 42.4531c4.90527 -32.0762 7.3584 -65.0947 7.3584 -99.0566s-2.45312 -68.8682 -7.3584 -104.717c33.9307 14.4639 75.3223 28.6152 124.175 42.4531c48.8525 13.8359 105.982 25.1572 171.391 33.9619
c65.4092 8.80371 140.221 13.208 224.435 13.208v19.9473c46.0576 7.7207 96.709 15.3486 151.955 22.8828c45.335 6.18262 94.1025 11.8623 146.304 17.04c-0.888672 -111.397 -5.23438 -211.682 -13.0371 -300.855c-8.80469 -100.629 -20.126 -188.679 -33.9619 -264.15
c-13.8369 -75.4717 -27.9883 -139.309 -42.4531 -191.51c32.0762 7.54688 65.0947 11.3213 99.0566 11.3213s68.8682 -3.77441 104.717 -11.3213c-14.4639 52.2012 -28.6152 115.88 -42.4531 191.038c-7.375 40.0615 -14.0361 83.7422 -19.9814 131.042
c23.1465 14.4434 51.374 28.5762 84.6816 42.3955c33.3506 13.8359 72.3535 25.1572 117.007 33.9619c25.5908 5.04492 53.2891 8.64551 83.0967 10.7998c-0.475586 -28.4229 -2.10059 -57.4951 -4.87695 -87.2148c23.1641 14.4639 51.4219 28.6152 84.7734 42.4531
c33.3506 13.8359 72.3535 25.1572 117.007 33.9619c44.6543 8.80371 95.7275 13.208 153.22 13.208v24.5273zM784.694 526.5c-60 -64.3994 -109.201 -118.399 -147.602 -162c-29.5215 -33.5215 -55.498 -61.249 -77.9277 -83.1846
c-73.3809 0.820312 -139.375 5.17578 -197.986 13.0654c-65.4082 8.80469 -122.641 20.126 -171.697 33.9619c-49.0566 13.8369 -90.5508 27.9883 -124.481 42.4531c4.90527 -32.0762 7.3584 -65.0947 7.3584 -99.0566s-2.45312 -68.8682 -7.3584 -104.717
c33.9307 14.4639 75.3223 28.6152 124.175 42.4531c48.8525 13.8359 105.982 25.1572 171.391 33.9619c55.3027 7.44336 117.327 11.7422 186.072 12.8926c22.1523 -22.3184 44.3037 -45.4619 66.4551 -69.4297c24.4014 -26.4004 50.501 -55.001 78.3008 -85.8008
s58.9004 -64.5996 93.3008 -101.4l12.5996 9c-32.8008 52.4004 -60.9004 100.5 -84.3008 144.301s-42.7002 80.5 -57.9004 110.1c12.8008 25.2012 31.2012 60.1006 55.2012 104.701c24 44.5986 52.999 94.5 87 149.699zM1574 171.173
c-83.8057 0 -158.411 4.40332 -223.821 13.208c-65.4082 8.80469 -122.641 20.126 -171.697 33.9619c-49.0566 13.8369 -90.5508 27.9883 -124.481 42.4531c4.90527 -32.0762 7.3584 -65.0947 7.3584 -99.0566s-2.45312 -68.8682 -7.3584 -104.717
c33.9307 14.4639 75.3223 28.6152 124.175 42.4531c48.8525 13.8359 105.982 25.1572 171.391 33.9619c65.4092 8.80371 140.221 13.208 224.435 13.208v24.5273z" />
</svg>
