<?xml version="1.0" standalone="no"?>
<!DOCTYPE svg PUBLIC "-//W3C//DTD SVG 1.1//EN" "http://www.w3.org/Graphics/SVG/1.1/DTD/svg11.dtd" >
<svg xmlns="http://www.w3.org/2000/svg" xmlns:xlink="http://www.w3.org/1999/xlink" version="1.1" viewBox="0 0 1685 898">
   <path fill="currentColor"
d="M1674.71 809.173c-174.058 0 -329.009 4.40332 -464.858 13.208s-254.717 20.126 -356.604 33.9619c-101.887 13.8369 -188.066 27.9883 -258.538 42.4531c10.1885 -32.0762 15.2842 -65.0947 15.2842 -99.0566s-5.0957 -68.8682 -15.2842 -104.717
c64.8652 13.3135 142.856 26.3613 233.979 39.1445c-1.2627 -102.502 -5.5332 -195.337 -12.8105 -278.507c-8.80469 -100.629 -20.126 -188.679 -33.9619 -264.15c-13.8369 -75.4717 -27.9883 -139.309 -42.4531 -191.51c32.0762 7.54688 65.0947 11.3213 99.0566 11.3213
s68.8682 -3.77441 104.717 -11.3213c-14.4639 52.2012 -28.6152 115.88 -42.4531 191.038c-13.8359 75.1572 -25.1572 163.05 -33.9619 263.679c-7.36523 84.1895 -11.6514 178.504 -12.8555 282.943c101.163 13.752 219.367 25.0117 354.611 33.7773
c27.3604 1.77344 55.5137 3.36816 84.458 4.78418c-0.510742 -119.308 -4.89746 -226.16 -13.1572 -320.562c-0.264648 -3.03027 -0.532227 -6.04883 -0.801758 -9.05566c-7.50977 0.871094 -14.9062 1.7959 -22.1875 2.77637
c-65.4082 8.80469 -122.641 20.126 -171.697 33.9619c-49.0566 13.8369 -90.5508 27.9883 -124.481 42.4531c4.90527 -32.0762 7.3584 -65.0947 7.3584 -99.0566s-2.45312 -68.8682 -7.3584 -104.717c33.9307 14.4639 75.3223 28.6152 124.175 42.4531
c48.8525 13.8359 105.982 25.1572 171.391 33.9619c6.06055 0.81543 12.2021 1.59375 18.4238 2.33398c-7.92773 -78.0859 -17.5225 -147.839 -28.7832 -209.262c-13.8369 -75.4717 -27.9883 -139.309 -42.4531 -191.51c32.0762 7.54688 65.0947 11.3213 99.0566 11.3213
s68.8682 -3.77441 104.717 -11.3213c-14.4639 52.2012 -28.6152 115.88 -42.4531 191.038c-13.8359 75.1572 -25.1572 163.05 -33.9619 263.679c-8.28809 94.7324 -12.6768 202.285 -13.1631 322.657c64.6367 2.89355 133.104 4.92383 205.403 6.09082
c-0.362305 -122.23 -4.75684 -231.497 -13.1836 -327.805c-8.80469 -100.629 -20.126 -188.679 -33.9619 -264.15c-13.8369 -75.4717 -27.9883 -139.309 -42.4531 -191.51c32.0762 7.54688 65.0947 11.3213 99.0566 11.3213s68.8682 -3.77441 104.717 -11.3213
c-14.4639 52.2012 -28.6152 115.88 -42.4531 191.038c-13.8359 75.1572 -25.1572 163.05 -33.9619 263.679c-8.43555 96.4219 -12.832 206.125 -13.1846 329.109c41.1455 0.545898 83.5039 0.819336 127.073 0.819336v24.5273zM131.929 355
c-1.80566 -20.3701 -3.97656 -39.9775 -6.51367 -58.8213c-8.80469 -65.4082 -20.126 -122.641 -33.9619 -171.697c-13.8369 -49.0566 -27.9883 -90.5508 -42.4531 -124.481c32.0762 4.90527 65.0947 7.3584 99.0566 7.3584s68.8682 -2.45312 104.717 -7.3584
c-14.4639 33.9307 -28.6152 75.3223 -42.4531 124.175c-13.8359 48.8525 -25.1572 105.982 -33.9619 171.391c-2.55957 19.0166 -4.74707 38.8281 -6.5625 59.4346h-37.8672zM361.929 355c-1.80566 -20.3701 -3.97754 -39.9775 -6.51367 -58.8213
c-8.80469 -65.4082 -20.126 -122.641 -33.9619 -171.697c-13.8369 -49.0566 -27.9883 -90.5508 -42.4531 -124.481c32.0762 4.90527 65.0947 7.3584 99.0566 7.3584s68.8682 -2.45312 104.717 -7.3584c-14.4639 33.9307 -28.6152 75.3223 -42.4531 124.175
c-13.8359 48.8525 -25.1572 105.982 -33.9619 171.391c-2.55957 19.0166 -4.74707 38.8281 -6.56348 59.4346h-37.8662zM591.929 355c-1.80566 -20.3701 -3.97754 -39.9775 -6.51367 -58.8213c-8.80469 -65.4082 -20.126 -122.641 -33.9619 -171.697
c-13.8369 -49.0566 -27.9883 -90.5508 -42.4531 -124.481c32.0762 4.90527 65.0947 7.3584 99.0566 7.3584s68.8682 -2.45312 104.717 -7.3584c-14.4639 33.9307 -28.6152 75.3223 -42.4531 124.175c-13.8359 48.8525 -25.1572 105.982 -33.9619 171.391
c-2.55957 19.0166 -4.74707 38.8281 -6.56348 59.4346h-37.8662zM362.968 800c0 -71.2344 -9.52148 -134.649 -28.5605 -190.248c-19.04 -55.5977 -43.5205 -104.245 -73.4395 -145.942c-29.9209 -41.6982 -60.5225 -76.9688 -91.8008 -105.81
c69.3613 4.16992 140.761 6.25488 214.2 6.25488s148.92 -2.08496 226.439 -6.25488c-31.2764 28.8408 -61.8779 64.0234 -91.8008 105.549c-29.9189 41.5244 -54.3994 90.085 -73.4395 145.683c-19.0371 55.5967 -28.5605 119.187 -28.5605 190.769h-53.0381z" />
</svg>
