<?xml version="1.0" standalone="no"?>
<!DOCTYPE svg PUBLIC "-//W3C//DTD SVG 1.1//EN" "http://www.w3.org/Graphics/SVG/1.1/DTD/svg11.dtd" >
<svg xmlns="http://www.w3.org/2000/svg" xmlns:xlink="http://www.w3.org/1999/xlink" version="1.1" viewBox="0 0 1314 800">
   <path fill="currentColor"
d="M728.91 355c0 -57.2139 -4.40332 -108.146 -13.208 -152.801s-20.126 -83.7266 -33.9619 -117.217c-13.8369 -33.4902 -27.9883 -61.8184 -42.4531 -84.9824c32.0762 3.34863 65.0947 5.02344 99.0566 5.02344s68.8682 -1.6748 104.717 -5.02344
c-14.4639 23.1641 -28.6152 51.4219 -42.4531 84.7734c-13.8359 33.3506 -25.1572 72.3535 -33.9619 117.007c-8.80371 44.6543 -13.208 95.7275 -13.208 153.22h-24.5273zM958.91 355c0 -57.2139 -4.40332 -108.146 -13.208 -152.801s-20.126 -83.7266 -33.9619 -117.217
c-13.8369 -33.4902 -27.9883 -61.8184 -42.4531 -84.9824c32.0762 3.34863 65.0947 5.02344 99.0566 5.02344s68.8682 -1.6748 104.717 -5.02344c-14.4639 23.1641 -28.6152 51.4219 -42.4531 84.7734c-13.8359 33.3506 -25.1572 72.3535 -33.9619 117.007
c-8.80371 44.6543 -13.208 95.7275 -13.208 153.22h-24.5273zM1188.91 355c0 -57.2139 -4.40332 -108.146 -13.208 -152.801s-20.126 -83.7266 -33.9619 -117.217c-13.8369 -33.4902 -27.9883 -61.8184 -42.4531 -84.9824c32.0762 3.34863 65.0947 5.02344 99.0566 5.02344
s68.8682 -1.6748 104.717 -5.02344c-14.4639 23.1641 -28.6152 51.4219 -42.4531 84.7734c-13.8359 33.3506 -25.1572 72.3535 -33.9619 117.007c-8.80371 44.6543 -13.208 95.7275 -13.208 153.22h-24.5273zM953.255 800c0 -71.2344 -9.52148 -134.649 -28.5605 -190.248
c-17.1631 -50.1162 -38.7461 -94.584 -64.748 -133.405v14.8262c-83.8057 0 -158.411 4.40332 -223.821 13.208c-65.4082 8.80469 -122.641 20.126 -171.697 33.9619c-49.0566 13.8369 -90.5508 27.9883 -124.481 42.4531
c4.34082 -28.3828 6.76074 -57.5029 7.26074 -87.3613c-30.4941 2.13574 -58.8301 5.78418 -85.0078 10.9463c-44.6543 8.80469 -83.7266 20.126 -117.217 33.9619c-33.4902 13.8369 -61.8184 27.9883 -84.9824 42.4531c3.34863 -32.0762 5.02344 -65.0947 5.02344 -99.0566
s-1.6748 -68.8682 -5.02344 -104.717c23.1641 14.4639 51.4219 28.6152 84.7734 42.4531c33.3506 13.8359 72.3535 25.1572 117.007 33.9619c26.2236 5.16992 54.6621 8.82324 85.3135 10.958c-0.69043 -28.4736 -3.07324 -57.5986 -7.14746 -87.373
c33.9307 14.4639 75.3223 28.6152 124.175 42.4531c48.8525 13.8359 105.982 25.1572 171.391 33.9619c63.6748 8.57031 136.26 12.9717 217.756 13.1982c-0.667969 -0.945312 -1.33887 -1.8877 -2.0127 -2.82617c-29.9209 -41.6982 -60.5225 -76.9688 -91.8008 -105.81
c69.3613 4.16992 140.761 6.25488 214.2 6.25488s148.92 -2.08496 226.439 -6.25488c-31.2764 28.8408 -61.8779 64.0234 -91.8008 105.549c-29.9189 41.5244 -54.3994 90.085 -73.4395 145.683c-19.0371 55.5967 -28.5605 119.187 -28.5605 190.769h-53.0381z" />
</svg>
