<?xml version="1.0" standalone="no"?>
<!DOCTYPE svg PUBLIC "-//W3C//DTD SVG 1.1//EN" "http://www.w3.org/Graphics/SVG/1.1/DTD/svg11.dtd" >
<svg xmlns="http://www.w3.org/2000/svg" xmlns:xlink="http://www.w3.org/1999/xlink" version="1.1" viewBox="0 0 730 810">
   <path fill="currentColor"
d="M509.326 229.913c64.1426 4.4873 134.367 6.73242 210.674 6.73242v24.5273c-78.5801 0 -150.787 2.40332 -216.624 7.20898c-8.23438 56.3105 -15.3223 118.422 -21.2646 186.335c-0.0908203 1.0332 -0.180664 2.06934 -0.269531 3.10547
c71.4141 5.88086 150.801 8.82324 238.158 8.82324v24.5273c-88.6035 0 -169.105 3.05566 -241.508 9.16504c-4.13086 57.7744 -6.92773 119.937 -8.38965 186.485c74.4248 6.54688 157.724 9.82227 249.897 9.82227v24.5273c-92.3564 0 -175.911 3.31934 -250.665 9.95801
c-0.288086 22.4834 -0.431641 45.4395 -0.431641 68.8691h-24.5273c0 -22.5859 -0.134766 -44.7383 -0.405273 -66.4551c-2.69531 0.273438 -5.37891 0.552734 -8.05078 0.835938c-83.0195 8.80469 -155.66 20.126 -217.925 33.9619
c-62.2637 13.8369 -114.929 27.9883 -157.995 42.4531c6.22656 -32.0762 9.33984 -65.0947 9.33984 -99.0566s-3.11328 -68.8682 -9.33984 -104.717c43.0664 14.4639 95.6006 28.6152 157.606 42.4531c62.0049 13.8359 134.516 25.1572 217.535 33.9619
c2.64355 0.280273 5.29883 0.556641 7.9668 0.827148c-1.45117 -63.9346 -4.14844 -123.864 -8.09277 -179.788c-82.6426 8.79102 -154.982 20.0801 -217.021 33.8662c-62.2637 13.8369 -114.929 27.9883 -157.995 42.4531
c6.22656 -32.0762 9.33984 -65.0947 9.33984 -99.0566s-3.11328 -68.8682 -9.33984 -104.717c43.0664 14.4639 95.6006 28.6152 157.606 42.4531c60.9551 13.6016 132.062 24.7734 213.327 33.5127c-5.6123 -63.6797 -12.2373 -122.3 -19.874 -175.86
c-72.7402 8.37207 -137.095 18.7773 -193.064 31.2148c-62.2637 13.8369 -114.929 27.9883 -157.995 42.4531c6.22656 -32.0762 9.33984 -65.0947 9.33984 -99.0566s-3.11328 -68.8682 -9.33984 -104.717c43.0664 14.4639 95.6006 28.6152 157.606 42.4531
c53.6533 11.9727 115.172 22.0615 184.56 30.2666c-1.61621 -9.59863 -3.26953 -19.0098 -4.95996 -28.2324c-13.8369 -75.4717 -27.9883 -139.309 -42.4531 -191.51c32.0762 7.54688 65.0947 11.3213 99.0566 11.3213s68.8682 -3.77441 104.717 -11.3213
c-14.4639 52.2012 -28.6152 115.88 -42.4531 191.038c-2.31934 12.6006 -4.56836 25.5586 -6.74707 38.875z" />
</svg>
