<?xml version="1.0" standalone="no"?>
<!DOCTYPE svg PUBLIC "-//W3C//DTD SVG 1.1//EN" "http://www.w3.org/Graphics/SVG/1.1/DTD/svg11.dtd" >
<svg xmlns="http://www.w3.org/2000/svg" xmlns:xlink="http://www.w3.org/1999/xlink" version="1.1" viewBox="0 0 1401 800">
   <path fill="currentColor"
d="M1390.11 151.173c-128.932 0 -243.71 4.40332 -344.34 13.208c-100.629 8.80469 -188.679 20.126 -264.15 33.9619c-75.4717 13.8369 -139.309 27.9883 -191.51 42.4531c7.54688 -32.0762 11.3213 -65.0947 11.3213 -99.0566s-3.77441 -68.8682 -11.3213 -104.717
c52.2012 14.4639 115.88 28.6152 191.038 42.4531c75.1572 13.8359 163.05 25.1572 263.679 33.9619c100.629 8.80371 215.724 13.208 345.283 13.208v24.5273zM330.245 619.941l-41.3154 10.0273c-100.174 24.3145 -165.504 43.0791 -187.049 53.7275
c-17.2617 8.53125 -31.6641 8.73926 -37.5225 0.542969c-2.37695 -3.32617 -4.3584 -7.23145 -4.3584 -8.5918c0 -4.19922 6.25977 -14.1348 15.8896 -25.2197c10.9482 -12.6045 19.418 -33.2578 25.5732 -62.3584c4.27441 -20.209 8.36914 -22.3535 3.64355 -68.3604
c-0.911133 -8.86816 -4.97656 -59.4033 -3.64941 -59.4033c1.32227 0 10.0449 5.70312 19.3838 12.6738c30.166 22.5166 55.7471 37.5723 94.7979 55.7939c51.0723 23.8301 73.4678 22.9355 131.02 39.7041c0 0 27.4463 0.404297 73.3994 1.08691
c-2.02637 -39.7939 -4.62109 -77.7617 -7.7832 -113.904c-8.80469 -100.629 -20.126 -188.679 -33.9619 -264.15c-13.8369 -75.4717 -27.9883 -139.309 -42.4531 -191.51c32.0762 7.54688 65.0947 11.3213 99.0566 11.3213s68.8682 -3.77441 104.717 -11.3213
c-14.4639 52.2012 -28.6152 115.88 -42.4531 191.038c-13.8359 75.1572 -25.1572 163.05 -33.9619 263.679c-3.19727 36.5488 -5.81445 75.0068 -7.85156 115.372c50.124 0.74707 114.307 1.70703 185.46 2.78027c-8.74023 -64.0312 -19.9111 -120.16 -33.5137 -168.388
c-13.8369 -49.0566 -27.9883 -90.5508 -42.4531 -124.481c32.0762 4.90527 65.0947 7.3584 99.0566 7.3584s68.8682 -2.45312 104.717 -7.3584c-14.4639 33.9307 -28.6152 75.3223 -42.4531 124.175c-13.7012 48.375 -24.9355 104.867 -33.7031 169.476
c57.5234 0.87207 118.239 1.79883 178.825 2.7334c-0.00878906 -0.0683594 -0.0185547 -0.136719 -0.0273438 -0.205078c-8.80469 -65.4082 -20.126 -122.641 -33.9619 -171.697c-13.8369 -49.0566 -27.9883 -90.5508 -42.4531 -124.481
c32.0762 4.90527 65.0947 7.3584 99.0566 7.3584s68.8682 -2.45312 104.717 -7.3584c-14.4639 33.9307 -28.6152 75.3223 -42.4531 124.175c-13.8359 48.8525 -25.1572 105.982 -33.9619 171.391c-0.0722656 0.533203 -0.143555 1.06738 -0.214844 1.60254
c62.2803 0.966797 123.429 1.92773 179.779 2.83301c-0.166992 -1.27734 -0.336914 -2.55176 -0.507812 -3.82227c-8.80469 -65.4082 -20.126 -122.641 -33.9619 -171.697c-13.8369 -49.0566 -27.9883 -90.5508 -42.4531 -124.481
c32.0762 4.90527 65.0947 7.3584 99.0566 7.3584s68.8682 -2.45312 104.717 -7.3584c-14.4639 33.9307 -28.6152 75.3223 -42.4531 124.175c-13.8359 48.8525 -25.1572 105.982 -33.9619 171.391c-0.234375 1.74023 -0.464844 3.48633 -0.693359 5.23926
c133.044 2.16797 229.008 3.88281 230.231 4.33398c6.2334 2.30078 9.1377 6.22559 9.00195 10.5703c-0.177734 5.6875 -5.56445 12.0947 -15.5098 16.5225c-2.81348 1.25293 -96.9941 2.44434 -227.764 3.5c-5.64844 55.3896 -8.47461 116.813 -8.47461 184.269h-24.5273
c0 -67.2373 -2.83398 -128.552 -8.50195 -183.947c-58.6787 0.4375 -122.975 0.848633 -188.653 1.22852c-5.54395 54.9854 -8.31738 115.892 -8.31738 182.719h-24.5273c0 -66.6465 -2.78516 -127.475 -8.35352 -182.486
c-63.7793 0.353516 -128.023 0.675781 -188.921 0.960938c-5.46484 54.6738 -8.19824 115.182 -8.19824 181.525h-24.5273c0 -66.1816 -2.74609 -126.626 -8.2373 -181.336c-73.1953 0.333984 -139.947 0.609375 -193.045 0.819336
c-2.12695 56.6787 -3.19043 116.852 -3.19043 180.517h-24.5273c0 -63.5732 -1.07031 -123.705 -3.21094 -180.396c-57.0928 0.219727 -92.0264 0.337891 -92.0264 0.337891z" />
</svg>
