<?xml version="1.0" standalone="no"?>
<!DOCTYPE svg PUBLIC "-//W3C//DTD SVG 1.1//EN" "http://www.w3.org/Graphics/SVG/1.1/DTD/svg11.dtd" >
<svg xmlns="http://www.w3.org/2000/svg" xmlns:xlink="http://www.w3.org/1999/xlink" version="1.1" viewBox="0 0 1139 810">
   <path fill="currentColor"
d="M415 491.173c-57.2139 0 -108.146 4.40332 -152.801 13.208s-83.7266 20.126 -117.217 33.9619c-33.4902 13.8369 -61.8184 27.9883 -84.9824 42.4531c3.34863 -32.0762 5.02344 -65.0947 5.02344 -99.0566s-1.6748 -68.8682 -5.02344 -104.717
c23.1641 14.4639 51.4219 28.6152 84.7734 42.4531c33.3506 13.8359 72.3535 25.1572 117.007 33.9619c44.6543 8.80371 95.7275 13.208 153.22 13.208v24.5273zM978.836 261.865c-61.3721 1.55469 -117.275 5.72656 -167.711 12.5156
c-65.4082 8.80469 -122.641 20.126 -171.697 33.9619c-49.0566 13.8369 -90.5508 27.9883 -124.481 42.4531c4.90527 -32.0762 7.3584 -65.0947 7.3584 -99.0566s-2.45312 -68.8682 -7.3584 -104.717c33.9307 14.4639 75.3223 28.6152 124.175 42.4531
c48.8525 13.8359 105.982 25.1572 171.391 33.9619c49.4033 6.64941 104.171 10.7891 164.303 12.417c-2.44531 -15.2354 -4.98145 -30.0166 -7.6084 -44.3447c-13.8369 -75.4717 -27.9883 -139.309 -42.4531 -191.51c32.0762 7.54688 65.0947 11.3213 99.0566 11.3213
s68.8682 -3.77441 104.717 -11.3213c-14.4639 52.2012 -28.6152 115.88 -42.4531 191.038c-13.8359 75.1572 -25.1572 163.05 -33.9619 263.679c-8.80371 100.629 -13.208 215.724 -13.208 345.283h-24.5273c0 -26.8828 -0.191406 -53.1514 -0.574219 -78.8037
c-122.366 0.354492 -231.745 4.75 -328.142 13.1846c-100.629 8.80469 -188.679 20.126 -264.15 33.9619c-75.4717 13.8369 -139.309 27.9883 -191.51 42.4531c7.54688 -32.0762 11.3213 -65.0947 11.3213 -99.0566s-3.77441 -68.8682 -11.3213 -104.717
c52.2012 14.4639 115.88 28.6152 191.038 42.4531c75.1572 13.8359 163.05 25.1572 263.679 33.9619c96.3037 8.4248 205.855 12.8213 328.656 13.1836c-1.75879 -87.7461 -5.82715 -168.065 -12.2051 -240.961c-6.19727 -70.8301 -13.6416 -135.429 -22.332 -193.795z" />
</svg>
