<?xml version="1.0" standalone="no"?>
<!DOCTYPE svg PUBLIC "-//W3C//DTD SVG 1.1//EN" "http://www.w3.org/Graphics/SVG/1.1/DTD/svg11.dtd" >
<svg xmlns="http://www.w3.org/2000/svg" xmlns:xlink="http://www.w3.org/1999/xlink" version="1.1" viewBox="0 0 1758 975">
   <path fill="currentColor"
d="M1524 731.173c-83.8057 0 -158.411 4.40332 -223.821 13.208c-65.4082 8.80469 -122.641 20.126 -171.697 33.9619c-49.0566 13.8369 -90.5508 27.9883 -124.481 42.4531c4.90527 -32.0762 7.3584 -65.0947 7.3584 -99.0566
c0 -17.4893 -0.650391 -35.2295 -1.95117 -53.2188c-1.82324 0.757812 -3.62598 1.51562 -5.40723 2.27539c1.29492 -8.46484 2.41797 -16.9941 3.37109 -25.5908c-0.953125 -9.32812 -2.07617 -18.7227 -3.37109 -28.1826c1.87793 0.800781 3.7793 1.60059 5.70312 2.39941
c1.10352 -15.6826 1.65527 -31.5762 1.65527 -47.6826c0 -17.4893 -0.650391 -35.2295 -1.95117 -53.2188c-1.82324 0.757812 -3.62598 1.51562 -5.40723 2.27539c1.29492 -8.46484 2.41797 -16.9941 3.37109 -25.5908
c-0.953125 -9.32812 -2.07617 -18.7227 -3.37109 -28.1826c1.87793 0.800781 3.7793 1.60059 5.70312 2.39941c1.10352 -15.6826 1.65527 -31.5762 1.65527 -47.6826c0 -18.7207 -0.745117 -37.7275 -2.23633 -57.0215c-3.45801 2.01953 -6.81445 4.0459 -10.0684 6.07812
c3.34863 -32.0762 5.02344 -65.0947 5.02344 -99.0566s-1.6748 -68.8682 -5.02344 -104.717c23.1641 14.4639 51.4219 28.6152 84.7734 42.4531c33.3506 13.8359 72.3535 25.1572 117.007 33.9619c35.5977 7.01855 75.2744 11.2402 119.03 12.6641
c22.0762 -22.248 44.1523 -45.3145 66.2285 -69.2012c24.4014 -26.4004 50.501 -55.001 78.3008 -85.8008s58.9004 -64.5996 93.3008 -101.4l12.5996 9c-32.8008 52.4004 -60.9004 100.5 -84.3008 144.301s-42.7002 80.5 -57.9004 110.1
c12.8008 25.2012 31.2012 60.1006 55.2012 104.701c6.72949 12.5049 13.8516 25.4268 21.3672 38.7656c6.39062 0.0527344 12.8369 0.0791016 19.3389 0.0791016v24.5273c-1.77051 0 -3.53613 0.00585938 -5.29883 0.00585938
c15.6836 27.1689 32.8809 55.9424 51.5928 86.3213l-12.5996 9c-32.2002 -34.5605 -61.29 -66.127 -87.2695 -94.6973c-62.3682 1.50293 -119.116 5.69531 -170.246 12.5781c-65.4082 8.80469 -122.641 20.126 -171.697 33.9619
c-18.2646 5.15137 -35.4805 10.3467 -51.6484 15.5859c16.085 5.22559 33.1992 10.4082 51.3418 15.5469c48.8525 13.8359 105.982 25.1572 171.391 33.9619c65.4092 8.80371 140.221 13.208 224.435 13.208v24.5273c-83.8057 0 -158.411 4.40332 -223.821 13.208
c-65.4082 8.80469 -122.641 20.126 -171.697 33.9619c-18.2646 5.15137 -35.4805 10.3467 -51.6484 15.5859c16.085 5.22559 33.1992 10.4082 51.3418 15.5469c48.8525 13.8359 105.982 25.1572 171.391 33.9619c65.4092 8.80371 140.221 13.208 224.435 13.208v24.5273z
M585 671.173c-83.8057 0 -158.411 4.40332 -223.821 13.208c-65.4082 8.80469 -122.641 20.126 -171.697 33.9619c-29.8125 8.40918 -56.8311 16.9336 -81.0576 25.5742c24.165 8.63477 51.082 17.1543 80.751 25.5586c48.8525 13.8359 105.982 25.1572 171.391 33.9619
c50.5986 6.81055 106.824 10.9883 168.677 12.5303c-2.48633 -14.8135 -5.88281 -29.7949 -10.1885 -44.9453c70.4717 14.4639 156.438 28.6152 257.901 42.4531c33.5537 4.5752 68.9883 8.87598 106.303 12.9014c-0.891602 -111.342 -5.2373 -211.58 -13.0361 -300.717
c-8.80469 -100.629 -20.126 -188.679 -33.9619 -264.15c-13.8369 -75.4717 -27.9883 -139.309 -42.4531 -191.51c32.0762 7.54688 65.0947 11.3213 99.0566 11.3213s68.8682 -3.77441 104.717 -11.3213c-14.4639 52.2012 -28.6152 115.88 -42.4531 191.038
c-13.8359 75.1572 -25.1572 163.05 -33.9619 263.679c-7.86328 89.8828 -12.2168 191.308 -13.0576 304.272c68.8164 7.04492 143.754 13.1943 224.813 18.4482c135.85 8.80371 291.228 13.208 466.133 13.208v24.5273c-174.058 0 -329.009 4.40332 -464.858 13.208
s-254.717 20.126 -356.604 33.9619c-101.887 13.8369 -188.066 27.9883 -258.538 42.4531c10.1885 -32.0762 15.2842 -65.0947 15.2842 -99.0566c0 -11.2188 -0.555664 -22.541 -1.66797 -33.9668c-62.8584 1.47754 -120.021 5.68066 -171.491 12.6084
c-65.4082 8.80469 -122.641 20.126 -171.697 33.9619c-49.0566 13.8369 -90.5508 27.9883 -124.481 42.4531c4.90527 -32.0762 7.3584 -65.0947 7.3584 -99.0566c0 -23.7188 -1.19629 -47.8975 -3.58887 -72.5361c-1.2666 0.530273 -2.52344 1.06152 -3.76953 1.59277
c0.813477 -5.31641 1.55859 -10.6582 2.2373 -16.0264c-0.678711 -5.88965 -1.42383 -11.8057 -2.2373 -17.7471c1.33984 0.571289 2.69141 1.1416 4.05469 1.71191c2.20215 -21.9082 3.30371 -44.2402 3.30371 -66.9951c0 -23.7188 -1.19629 -47.8975 -3.58887 -72.5361
c-1.2666 0.530273 -2.52344 1.06152 -3.76953 1.59277c0.813477 -5.31641 1.55859 -10.6582 2.2373 -16.0264c-0.678711 -5.88965 -1.42383 -11.8057 -2.2373 -17.7471c1.33984 0.571289 2.69141 1.1416 4.05469 1.71191
c2.20215 -21.9082 3.30371 -44.2402 3.30371 -66.9951c0 -23.7188 -1.19629 -47.8975 -3.58887 -72.5361c-1.2666 0.530273 -2.52344 1.06152 -3.76953 1.59277c0.813477 -5.31641 1.55859 -10.6582 2.2373 -16.0264c-0.678711 -5.88965 -1.42383 -11.8057 -2.2373 -17.7471
c1.33984 0.571289 2.69141 1.1416 4.05469 1.71191c2.20215 -21.9082 3.30371 -44.2402 3.30371 -66.9951c0 -33.9619 -2.45312 -68.8682 -7.3584 -104.717c33.9307 14.4639 75.3223 28.6152 124.175 42.4531c48.8525 13.8359 105.982 25.1572 171.391 33.9619
c55.3027 7.44336 117.327 11.7422 186.072 12.8926c22.1523 -22.3184 44.3037 -45.4619 66.4551 -69.4297c24.4014 -26.4004 50.501 -55.001 78.3008 -85.8008s58.9004 -64.5996 93.3008 -101.4l12.5996 9c-32.8008 52.4004 -60.9004 100.5 -84.3008 144.301
s-42.7002 80.5 -57.9004 110.1c12.8008 25.2012 31.2012 60.1006 55.2012 104.701c24 44.5986 52.999 94.5 87 149.699l-12.5996 9c-60 -64.3994 -109.201 -118.399 -147.602 -162c-29.5215 -33.5215 -55.498 -61.249 -77.9277 -83.1846
c-73.3809 0.820312 -139.375 5.17578 -197.986 13.0654c-65.4082 8.80469 -122.641 20.126 -171.697 33.9619c-29.8125 8.40918 -56.8311 16.9336 -81.0576 25.5742c24.165 8.63477 51.082 17.1543 80.751 25.5586c48.8525 13.8359 105.982 25.1572 171.391 33.9619
c65.4092 8.80371 140.221 13.208 224.435 13.208v24.5273c-83.8057 0 -158.411 4.40332 -223.821 13.208c-65.4082 8.80469 -122.641 20.126 -171.697 33.9619c-29.8125 8.40918 -56.8311 16.9336 -81.0576 25.5742c24.165 8.63477 51.082 17.1543 80.751 25.5586
c48.8525 13.8359 105.982 25.1572 171.391 33.9619c65.4092 8.80371 140.221 13.208 224.435 13.208v24.5273zM1633.43 870c0 -128.932 -4.40332 -243.71 -13.208 -344.34c-8.80469 -100.629 -20.126 -188.679 -33.9619 -264.15
c-13.8369 -75.4717 -27.9883 -139.309 -42.4531 -191.51c32.0762 7.54688 65.0947 11.3213 99.0566 11.3213s68.8682 -3.77441 104.717 -11.3213c-14.4639 52.2012 -28.6152 115.88 -42.4531 191.038c-13.8359 75.1572 -25.1572 163.05 -33.9619 263.679
c-8.80371 100.629 -13.208 215.724 -13.208 345.283h-24.5273zM1332.24 281.393c-48.4287 0.988281 -92.0918 5.31836 -130.99 12.9883c-44.6543 8.80469 -83.7266 20.126 -117.217 33.9619c-8.14453 3.36523 -15.9834 6.74805 -23.5166 10.1504
c20.6885 7.07227 43.2402 14.0664 67.6553 20.9824c48.8525 13.8359 105.982 25.1572 171.391 33.9619c44.5918 6.00195 93.5547 9.95898 146.887 11.8701c-13.0391 -14.4873 -25.1582 -28.0898 -36.3594 -40.8076c-29.4873 -33.4824 -55.4375 -61.1846 -77.8496 -83.1074z
" />
</svg>
