<?xml version="1.0" standalone="no"?>
<!DOCTYPE svg PUBLIC "-//W3C//DTD SVG 1.1//EN" "http://www.w3.org/Graphics/SVG/1.1/DTD/svg11.dtd" >
<svg xmlns="http://www.w3.org/2000/svg" xmlns:xlink="http://www.w3.org/1999/xlink" version="1.1" viewBox="0 0 870 800">
   <path fill="currentColor"
d="M860 436.173c-128.932 0 -243.71 4.40332 -344.34 13.208c-18.2549 1.59766 -36.0957 3.27734 -53.5225 5.04004l-0.0263672 0.295898c-8.80371 100.629 -13.208 215.724 -13.208 345.283h-24.5273c0 -127.121 -4.28027 -240.484 -12.8398 -340.093
c-58.4746 6.78516 -111.816 14.5977 -160.026 23.4355c-75.4717 13.8369 -139.309 27.9883 -191.51 42.4531c7.54688 -32.0762 11.3213 -65.0947 11.3213 -99.0566s-3.77441 -68.8682 -11.3213 -104.717c52.2012 14.4639 115.88 28.6152 191.038 42.4531
c46.3408 8.53125 97.5234 16.1064 153.548 22.7246c-7.64941 -72.6182 -16.7764 -137.849 -27.3799 -195.69c-13.8369 -75.4717 -27.9883 -139.309 -42.4531 -191.51c32.0762 7.54688 65.0947 11.3213 99.0566 11.3213s68.8682 -3.77441 104.717 -11.3213
c-14.4639 52.2012 -28.6152 115.88 -42.4531 191.038c-10.9814 59.6533 -20.3789 127.329 -28.1914 203.028c15.292 1.52051 30.9043 2.97754 46.835 4.37109c100.629 8.80371 215.724 13.208 345.283 13.208v24.5273z" />
</svg>
