<?xml version="1.0" standalone="no"?>
<!DOCTYPE svg PUBLIC "-//W3C//DTD SVG 1.1//EN" "http://www.w3.org/Graphics/SVG/1.1/DTD/svg11.dtd" >
<svg xmlns="http://www.w3.org/2000/svg" xmlns:xlink="http://www.w3.org/1999/xlink" version="1.1" viewBox="0 0 1581 910">
   <path fill="currentColor"
d="M1274.43 898c0 -128.932 -4.40332 -243.71 -13.208 -344.34c-0.102539 -1.1709 -0.205078 -2.34082 -0.308594 -3.50879c-72.6582 8.36816 -136.945 18.7656 -192.864 31.1914c-62.2637 13.8369 -114.929 27.9883 -157.995 42.4531
c4.77246 -24.583 7.71582 -49.7197 8.83008 -75.4102c-62.3545 8.65527 -117.138 19.6416 -164.349 32.957c-49.0566 13.8369 -90.5508 27.9883 -124.481 42.4531c4.90527 -32.0762 7.3584 -65.0947 7.3584 -99.0566s-2.45312 -68.8682 -7.3584 -104.717
c33.9307 14.4639 75.3223 28.6152 124.175 42.4531c47.1064 13.3408 101.908 24.3447 164.407 33.0078c-1.26855 -24.6709 -4.12891 -49.8252 -8.58203 -75.4609c43.0664 14.4639 95.6006 28.6152 157.606 42.4531c54.4883 12.1582 117.089 22.375 187.805 30.6484
c-6.89941 -66.9297 -15.0371 -127.675 -24.4111 -182.235c-10.2451 10.2461 -10.9209 10.9219 -25.1729 25.1738c-15.6807 -13.127 -31.0801 -25.4561 -46.1992 -36.9873c-52.4756 -40.0244 -100.951 -72.4883 -145.423 -97.3936
c-44.4727 -24.9043 -83.8193 -44.2383 -118.04 -58.0029c26.1494 -19.2129 51.2314 -40.8252 75.2461 -64.8398s46.9629 -50.4326 68.8428 -79.25c13.7656 34.2207 33.0273 73.4951 57.7861 117.824c24.7607 44.3271 57.1523 92.7295 97.1768 145.206
c10.9434 14.3467 22.6152 28.957 35.0156 43.832c-0.995117 -5.71582 -2.00391 -11.3633 -3.02637 -16.9414c-13.8369 -75.4717 -27.9883 -139.309 -42.4531 -191.51c32.0762 7.54688 65.0947 11.3213 99.0566 11.3213s68.8682 -3.77441 104.717 -11.3213
c-14.4639 52.2012 -28.6152 115.88 -42.4531 191.038c-11.3428 61.6143 -20.9951 131.787 -28.957 210.52c75.1807 6.72461 159.476 10.0879 252.884 10.0879v24.5273c-95.0498 0 -180.776 3.51562 -257.182 10.5469c-0.237305 2.65625 -0.472656 5.32227 -0.707031 7.99707
c-8.80371 100.629 -13.208 215.724 -13.208 345.283h-24.5273zM681.881 910.062c-15.6807 -13.127 -31.0801 -25.4561 -46.1992 -36.9873c-52.4756 -40.0244 -100.951 -72.4883 -145.423 -97.3936c-44.4727 -24.9043 -83.8193 -44.2383 -118.04 -58.0029
c3.5166 -2.58398 7.01367 -5.21094 10.4922 -7.88184c-6.94238 0.814453 -13.7861 1.67578 -20.5322 2.58398c-65.4082 8.80469 -122.641 20.126 -171.697 33.9619c-49.0566 13.8369 -90.5508 27.9883 -124.481 42.4531c4.90527 -32.0762 7.3584 -65.0947 7.3584 -99.0566
c0 -32.9609 -2.31055 -66.8115 -6.93066 -101.55c-0.477539 0.202148 -0.953125 0.404297 -1.42773 0.606445c4.90527 -32.0762 7.3584 -65.0947 7.3584 -99.0566s-2.45312 -68.8682 -7.3584 -104.717c0.489258 0.208984 0.980469 0.416992 1.47266 0.625977
c4.58984 -31.0879 6.88574 -63.0566 6.88574 -95.9092c0 -33.9619 -2.45312 -68.8682 -7.3584 -104.717c33.9307 14.4639 75.3223 28.6152 124.175 42.4531c48.8525 13.8359 105.982 25.1572 171.391 33.9619c50.8408 6.84277 107.361 11.0273 169.562 12.5527
c-1.2666 -6.0918 -2.55566 -12.0898 -3.86816 -17.9951c-13.8369 -62.2637 -27.9883 -114.929 -42.4531 -157.995c32.0762 6.22656 65.0947 9.33984 99.0566 9.33984s68.8682 -3.11328 104.717 -9.33984c-14.4639 43.0664 -28.6152 95.6006 -42.4531 157.606
c-13.8359 62.0049 -25.1572 134.516 -33.9619 217.535c-8.12109 76.583 -12.499 163.323 -13.1289 260.218c20.4111 32.4619 44.4883 66.8818 72.2344 103.26c11.6377 15.2568 24.0996 30.8125 37.3857 46.667c-11.8145 11.8154 -11.8145 11.8154 -26.7754 26.7764z
M69.9736 387.118c32.9766 13.7354 72.71 27.1885 119.201 40.3574c48.8525 13.8359 105.982 25.1572 171.391 33.9619c59.2041 7.96875 126.11 12.333 200.721 13.0889l-0.0644531 -0.606445c-6.81836 -64.293 -15.1465 -122.361 -24.9824 -174.206
c-63.8711 1.42188 -121.891 5.64453 -174.061 12.667c-65.4082 8.80469 -122.641 20.126 -171.697 33.9619c-47.1582 13.3018 -87.3281 26.8936 -120.508 40.7754zM69.9736 586.7c33.1719 13.8809 73.2393 27.4727 120.201 40.7754
c48.8525 13.8359 105.982 25.1572 171.391 33.9619c22.0508 2.96777 45.1709 5.43555 69.3594 7.40332c5.56836 -5.20996 11.082 -10.5439 16.54 -16.002c24.0146 -24.0146 46.9629 -50.4326 68.8428 -79.25c11.9941 29.8174 28.1611 63.4707 48.501 100.962
c2.87598 0.0263672 5.76367 0.046875 8.66309 0.0615234c-1.49414 -63.0859 -4.73926 -121.534 -9.73242 -175.343c-75.2148 0.6875 -142.734 5.05859 -202.561 13.1113c-65.4082 8.80469 -122.641 20.126 -171.697 33.9619
c-46.6855 13.168 -86.5215 26.6211 -119.508 40.3574z" />
</svg>
