<?xml version="1.0" standalone="no"?>
<!DOCTYPE svg PUBLIC "-//W3C//DTD SVG 1.1//EN" "http://www.w3.org/Graphics/SVG/1.1/DTD/svg11.dtd" >
<svg xmlns="http://www.w3.org/2000/svg" xmlns:xlink="http://www.w3.org/1999/xlink" version="1.1" viewBox="0 0 1221 800">
   <path fill="currentColor"
d="M489.536 800c0 -128.932 -4.40332 -243.71 -13.208 -344.34c-8.80469 -100.629 -20.126 -188.679 -33.9619 -264.15c-13.8369 -75.4717 -27.9883 -139.309 -42.4531 -191.51c32.0762 7.54688 65.0947 11.3213 99.0566 11.3213s68.8682 -3.77441 104.717 -11.3213
c-14.4639 52.2012 -28.6152 115.88 -42.4531 191.038c-2.23926 12.166 -4.41406 24.666 -6.52148 37.5c42.1992 13.9375 93.2168 27.583 153.055 40.9375c56.7783 12.6699 122.366 23.2305 196.767 31.6816c-5.21191 -39.1016 -10.9346 -75.6504 -17.167 -109.647
c-13.8369 -75.4717 -27.9883 -139.309 -42.4531 -191.51c32.0762 7.54688 65.0947 11.3213 99.0566 11.3213s68.8682 -3.77441 104.717 -11.3213c-14.4639 52.2012 -28.6152 115.88 -42.4531 191.038c-6.69434 36.3643 -12.7998 75.71 -18.3164 118.036
c67.2402 5.04688 141.322 7.57129 222.243 7.57129v24.5273c-82.8057 0 -158.535 2.66895 -227.19 8.00488c-3.9043 33.4678 -7.4707 68.6475 -10.6982 105.539c-2.32129 26.5352 -4.33691 54.0752 -6.04688 82.6221c72.9033 6.20312 154.216 9.30664 243.936 9.30664
v24.5273c-90.5479 0 -172.635 3.19043 -246.262 9.57129c-3.22266 67.791 -4.83496 140.877 -4.83496 219.256h-24.5273c0 -77.0596 -1.57324 -149.062 -4.71875 -216.012c-1.24805 0.129883 -2.49414 0.260742 -3.7373 0.392578
c-83.0195 8.80469 -155.66 20.126 -217.925 33.9619c-62.2637 13.8369 -114.929 27.9883 -157.995 42.4531c6.22656 -32.0762 9.33984 -65.0947 9.33984 -99.0566s-3.11328 -68.8682 -9.33984 -104.717c43.0664 14.4639 95.6006 28.6152 157.606 42.4531
c62.0049 13.8359 134.516 25.1572 217.535 33.9619c0.597656 0.0634766 1.19629 0.126953 1.79492 0.189453c-1.64844 -26.8701 -3.57129 -52.8584 -5.76855 -77.9668c-3.03809 -34.7227 -6.37598 -67.9473 -10.0127 -99.6748
c-76.8955 8.56152 -144.614 19.3477 -203.16 32.3574c-62.2637 13.8369 -114.929 27.9883 -157.995 42.4531c6.22656 -32.0762 9.33984 -65.0947 9.33984 -99.0566c0 -29.2607 -2.31055 -59.2217 -6.93262 -89.8838c-9.97266 63.1533 -18.4053 134.106 -25.2959 212.861
c-8.80371 100.629 -13.208 215.724 -13.208 345.283h-24.5273zM386.4 770c-80 -85.8662 -145.601 -157.866 -196.801 -216c-51.1992 -58.1338 -94.3994 -103.2 -129.6 -135.2c32.5332 -32.5332 65.0664 -66.3994 97.5996 -101.6
c32.5342 -35.2002 67.334 -73.334 104.4 -114.4s78.5332 -86.1338 124.4 -135.2l16.7998 12c-43.7334 69.8672 -81.2002 134 -112.4 192.4s-56.9336 107.334 -77.2002 146.8c17.0664 33.6006 41.6006 80.1338 73.6006 139.601c32 59.4658 70.666 126 116 199.6z" />
</svg>
