<?xml version="1.0" standalone="no"?>
<!DOCTYPE svg PUBLIC "-//W3C//DTD SVG 1.1//EN" "http://www.w3.org/Graphics/SVG/1.1/DTD/svg11.dtd" >
<svg xmlns="http://www.w3.org/2000/svg" xmlns:xlink="http://www.w3.org/1999/xlink" version="1.1" viewBox="0 0 1270 910">
   <path fill="currentColor"
d="M510.827 910.062c-15.6807 -13.127 -31.0801 -25.4561 -46.1992 -36.9873c-52.4756 -40.0244 -100.951 -72.4883 -145.423 -97.3936c-44.4727 -24.9043 -83.8193 -44.2383 -118.04 -58.0029c26.1494 -19.2129 51.2314 -40.8252 75.2461 -64.8398
s46.9629 -50.4326 68.8428 -79.25c13.7139 34.0928 32.8838 73.2021 57.5098 117.329c-0.976562 -52.1865 -3.12012 -101.277 -6.43164 -147.271c-13.749 1.40332 -27.1338 2.98242 -40.1533 4.73438c-65.4082 8.80469 -122.641 20.126 -171.697 33.9619
c-49.0566 13.8369 -90.5508 27.9883 -124.481 42.4531c4.90527 -32.0762 7.3584 -65.0947 7.3584 -99.0566s-2.45312 -68.8682 -7.3584 -104.717c33.9307 14.4639 75.3223 28.6152 124.175 42.4531c48.8525 13.8359 105.982 25.1572 171.391 33.9619
c12.1299 1.63281 24.584 3.11426 37.3613 4.44434c-0.866211 -9.46387 -1.78516 -18.7842 -2.75879 -27.9619c-8.80469 -83.0195 -20.126 -155.66 -33.9619 -217.925c-13.8369 -62.2637 -27.9883 -114.929 -42.4531 -157.995
c32.0762 6.22656 65.0947 9.33984 99.0566 9.33984s68.8682 -3.11328 104.717 -9.33984c-14.4639 43.0664 -28.6152 95.6006 -42.4531 157.606c-13.8359 62.0049 -25.1572 134.516 -33.9619 217.535c-8.12109 76.583 -12.499 163.323 -13.1289 260.218
c20.4111 32.4619 44.4883 66.8818 72.2344 103.26c11.6377 15.2568 24.0996 30.8125 37.3857 46.667c-11.8145 11.8154 -11.8145 11.8154 -26.7754 26.7764zM839.355 256.216c12.2031 -13.9307 24.1055 -28.5371 35.708 -43.8184
c13.7646 34.2197 33.0264 73.4941 57.7861 117.823c24.7598 44.3271 57.1514 92.7295 97.1768 145.206c7.52539 9.86621 15.3965 19.8584 23.6123 29.9746c64.1396 2.8291 132.927 4.24414 206.361 4.24414v24.5273c-63.2842 0 -123.158 1.06055 -179.623 3.18262
c29.293 34.0264 62.2949 69.3965 99.0088 106.11l-17.3438 17.3438c-46.2637 -46.2646 -90.46 -86.666 -132.591 -121.207c-39.752 2.02637 -77.6826 4.61914 -113.791 7.77832c-100.629 8.80469 -188.679 20.126 -264.15 33.9619
c-75.4717 13.8369 -139.309 27.9883 -191.51 42.4531c7.54688 -32.0762 11.3213 -65.0947 11.3213 -99.0566s-3.77441 -68.8682 -11.3213 -104.717c52.2012 14.4639 115.88 28.6152 191.038 42.4531c75.1572 13.8359 163.05 25.1572 263.679 33.9619
c21.3145 1.86426 43.2773 3.53223 65.8896 5.00195c-47.1895 -35.2646 -91.0537 -64.248 -131.592 -86.9502c-44.4727 -24.9043 -83.8203 -44.2383 -118.041 -58.0029c24.9932 -18.3623 49.0107 -38.917 72.0527 -61.666
c-50.3281 -38.0762 -96.9365 -69.1221 -139.821 -93.1387c-44.4727 -24.9043 -83.8193 -44.2383 -118.04 -58.0029c26.1494 -19.2129 51.2314 -40.8252 75.2461 -64.8398s46.9629 -50.4326 68.8428 -79.25c13.7656 34.2207 33.0273 73.4951 57.7861 117.824
c23.75 42.5186 54.5215 88.7861 92.3154 138.803z" />
</svg>
