<?xml version="1.0" standalone="no"?>
<!DOCTYPE svg PUBLIC "-//W3C//DTD SVG 1.1//EN" "http://www.w3.org/Graphics/SVG/1.1/DTD/svg11.dtd" >
<svg xmlns="http://www.w3.org/2000/svg" xmlns:xlink="http://www.w3.org/1999/xlink" version="1.1" viewBox="0 0 1270 905">
   <path fill="currentColor"
d="M515.561 905.329c-40.4561 -40.457 -79.585 -73.3574 -117.386 -98.707s-73.4346 -44.9727 -106.899 -58.8701c-33.4658 -13.8975 -63.5029 -23.9219 -90.1104 -30.0732c25.0488 -20.3135 49.5811 -42.4766 73.5957 -66.4912s47.5127 -49.8818 70.4932 -77.5986
c6.15234 26.6074 16.127 56.5957 29.9258 89.9629c7.58984 18.3525 16.9268 37.376 28.0098 57.0703c-0.670898 -66.582 -3.16211 -128.341 -7.4707 -185.278c-49.4385 0.887695 -93.9443 5.23438 -133.52 13.0371c-44.6543 8.80469 -83.7266 20.126 -117.217 33.9619
c-33.4902 13.8369 -61.8184 27.9883 -84.9824 42.4531c3.34863 -32.0762 5.02344 -65.0947 5.02344 -99.0566s-1.6748 -68.8682 -5.02344 -104.717c23.1641 14.4639 51.4219 28.6152 84.7734 42.4531c33.3506 13.8359 72.3535 25.1572 117.007 33.9619
c39.0596 7.7002 83.0293 12.0352 131.911 13.001c-1.08398 -12.4141 -2.25781 -24.5869 -3.52344 -36.5186c-8.80469 -83.0195 -20.126 -155.66 -33.9619 -217.925c-13.8369 -62.2637 -27.9883 -114.929 -42.4531 -157.995c32.0762 6.22656 65.0947 9.33984 99.0566 9.33984
s68.8682 -3.11328 104.717 -9.33984c-14.4639 43.0664 -28.6152 95.6006 -42.4531 157.606c-13.8359 62.0049 -25.1572 134.516 -33.9619 217.535c-8.80371 83.0186 -13.208 177.972 -13.208 284.858h-2.09863c2.62988 4.07422 5.3291 8.17578 8.09668 12.3027
c25.3496 37.8008 58.3496 77.0293 99.0029 117.683zM811.519 286.292c-23.5908 -20.5986 -46.7051 -38.4883 -69.3438 -53.6699c-37.8008 -25.3496 -73.4346 -44.9727 -106.899 -58.8701c-33.4658 -13.8975 -63.5029 -23.9219 -90.1104 -30.0732
c25.0488 -20.3135 49.5811 -42.4766 73.5957 -66.4912s47.5127 -49.8818 70.4932 -77.5986c6.15234 26.6074 16.127 56.5957 29.9258 89.9629c13.7988 33.3662 33.3721 68.9512 58.7217 106.751c15.083 22.4912 32.874 45.4883 53.374 68.9893
c15.043 -16.627 29.6387 -34.2588 43.7881 -52.8945c13.7646 34.2197 33.0264 73.4941 57.7861 117.823c24.7598 44.3271 57.1514 92.7295 97.1768 145.206c7.52539 9.86621 15.3965 19.8584 23.6123 29.9746c64.1396 2.8291 132.927 4.24414 206.361 4.24414v24.5273
c-63.2842 0 -123.158 1.06055 -179.623 3.18262c29.293 34.0264 62.2949 69.3965 99.0088 106.11l-17.3438 17.3438c-46.2637 -46.2646 -90.46 -86.666 -132.591 -121.207c-39.752 2.02637 -77.6826 4.61914 -113.791 7.77832
c-100.629 8.80469 -188.679 20.126 -264.15 33.9619c-75.4717 13.8369 -139.309 27.9883 -191.51 42.4531c7.54688 -32.0762 11.3213 -65.0947 11.3213 -99.0566s-3.77441 -68.8682 -11.3213 -104.717c52.2012 14.4639 115.88 28.6152 191.038 42.4531
c75.1572 13.8359 163.05 25.1572 263.679 33.9619c21.3145 1.86426 43.2773 3.53223 65.8896 5.00195c-47.1895 -35.2646 -91.0537 -64.248 -131.592 -86.9502c-44.4727 -24.9043 -83.8203 -44.2383 -118.041 -58.0029c26.1504 -19.2129 51.2324 -40.8252 75.2471 -64.8398
c1.77148 -1.77148 3.53711 -3.55664 5.29785 -5.35449z" />
</svg>
