<?xml version="1.0" standalone="no"?>
<!DOCTYPE svg PUBLIC "-//W3C//DTD SVG 1.1//EN" "http://www.w3.org/Graphics/SVG/1.1/DTD/svg11.dtd" >
<svg xmlns="http://www.w3.org/2000/svg" xmlns:xlink="http://www.w3.org/1999/xlink" version="1.1" viewBox="0 0 1430 910">
   <path fill="currentColor"
d="M1419.95 249.173c-83.8057 0 -158.411 4.40332 -223.821 13.208c-65.4082 8.80469 -122.641 20.126 -171.697 33.9619c-26.8545 7.57422 -51.4424 15.2432 -73.7637 23.0059c8.08301 19.334 18.958 41.2363 32.624 65.7031
c14.8564 26.5977 34.291 55.6387 58.3057 87.125c6.98242 9.15332 14.46 18.4873 22.4316 28l-16.0654 16.0654c-9.4082 -7.87695 -18.6484 -15.2744 -27.7188 -22.1924c-31.4863 -24.0146 -60.5713 -43.4932 -87.2549 -58.4365
c-26.6826 -14.9424 -50.291 -26.543 -70.8232 -34.8008c15.6895 -11.5283 30.7383 -24.4961 45.1475 -38.9053c12.1973 -12.1963 23.9355 -25.4268 35.2148 -39.6875c-15.3154 5.47852 -29.5088 11.0039 -42.5791 16.5762c4.90527 -32.0762 7.3584 -65.0947 7.3584 -99.0566
s-2.45312 -68.8682 -7.3584 -104.717c33.9307 14.4639 75.3223 28.6152 124.175 42.4531c48.8525 13.8359 105.982 25.1572 171.391 33.9619c65.4092 8.80371 140.221 13.208 224.435 13.208v24.5273zM1419 800.173c-128.932 0 -243.71 4.40332 -344.34 13.208
c-100.629 8.80469 -188.679 20.126 -264.15 33.9619c-75.4717 13.8369 -139.309 27.9883 -191.51 42.4531c7.54688 -32.0762 11.3213 -65.0947 11.3213 -99.0566s-3.77441 -68.8682 -11.3213 -104.717c52.2012 14.4639 115.88 28.6152 191.038 42.4531
c75.1572 13.8359 163.05 25.1572 263.679 33.9619c100.629 8.80371 215.724 13.208 345.283 13.208v24.5273zM852.799 711.403c-9.40918 -7.87598 -18.6484 -15.2734 -27.7197 -22.1924c-31.4854 -24.0146 -60.5703 -43.4932 -87.2539 -58.4355
c-26.6836 -14.9434 -50.292 -26.543 -70.8242 -34.8018c15.6904 -11.5273 30.7393 -24.4951 45.1484 -38.9043c14.4082 -14.4092 28.1777 -30.2588 41.3057 -47.5498c8.25879 20.5322 19.8164 44.0967 34.6719 70.6943c14.8564 26.5967 34.291 55.6377 58.3057 87.124
c6.98242 9.15332 14.459 18.4873 22.4316 28zM950.379 613.822c-9.4082 -7.87598 -18.6484 -15.2734 -27.7197 -22.1924c-31.4854 -24.0146 -60.5703 -43.4932 -87.2529 -58.4355c-26.6836 -14.9424 -50.292 -26.543 -70.8242 -34.8018
c11.9834 -8.80566 23.5938 -18.4492 34.8301 -28.9346c-29.7803 -22.4707 -57.3799 -40.8223 -82.8008 -55.0576c-26.6826 -14.9424 -50.291 -26.543 -70.8232 -34.8018c15.6895 -11.5273 30.7383 -24.4951 45.1475 -38.9043s28.1777 -30.2588 41.3057 -47.5498
c8.25879 20.5322 19.8164 44.0977 34.6719 70.6953c14.1855 25.3945 32.5439 53.0186 55.0791 82.8701c10.0059 -10.8584 19.6875 -22.4492 29.043 -34.7715c8.25977 20.5322 19.8164 44.0967 34.6719 70.6943c14.8564 26.5967 34.291 55.6377 58.3057 87.124
c6.98242 9.1543 14.46 18.4873 22.4316 28zM510.827 910.062c-15.6807 -13.127 -31.0801 -25.4561 -46.1992 -36.9873c-52.4756 -40.0244 -100.951 -72.4883 -145.423 -97.3936c-44.4727 -24.9043 -83.8193 -44.2383 -118.04 -58.0029
c26.1494 -19.2129 51.2314 -40.8252 75.2461 -64.8398s46.9629 -50.4326 68.8428 -79.25c13.7139 34.0928 32.8838 73.2021 57.5098 117.329c-0.976562 -52.1865 -3.12012 -101.277 -6.43164 -147.271c-13.749 1.40332 -27.1338 2.98242 -40.1533 4.73438
c-65.4082 8.80469 -122.641 20.126 -171.697 33.9619c-49.0566 13.8369 -90.5508 27.9883 -124.481 42.4531c4.90527 -32.0762 7.3584 -65.0947 7.3584 -99.0566s-2.45312 -68.8682 -7.3584 -104.717c33.9307 14.4639 75.3223 28.6152 124.175 42.4531
c48.8525 13.8359 105.982 25.1572 171.391 33.9619c12.1299 1.63281 24.584 3.11426 37.3613 4.44434c-0.866211 -9.46387 -1.78516 -18.7842 -2.75879 -27.9619c-8.80469 -83.0195 -20.126 -155.66 -33.9619 -217.925
c-13.8369 -62.2637 -27.9883 -114.929 -42.4531 -157.995c32.0762 6.22656 65.0947 9.33984 99.0566 9.33984s68.8682 -3.11328 104.717 -9.33984c-14.4639 43.0664 -28.6152 95.6006 -42.4531 157.606c-13.8359 62.0049 -25.1572 134.516 -33.9619 217.535
c-8.12109 76.583 -12.499 163.323 -13.1289 260.218c20.4111 32.4619 44.4883 66.8818 72.2344 103.26c11.6377 15.2568 24.0996 30.8125 37.3857 46.667c-11.8145 11.8154 -11.8145 11.8154 -26.7754 26.7764zM854.827 336.062
c-15.6807 -13.127 -31.0801 -25.4561 -46.1992 -36.9873c-52.4756 -40.0244 -100.951 -72.4883 -145.423 -97.3936c-44.4727 -24.9043 -83.8193 -44.2383 -118.04 -58.0029c26.1494 -19.2129 51.2314 -40.8252 75.2461 -64.8398s46.9629 -50.4326 68.8428 -79.25
c13.7656 34.2207 33.0273 73.4951 57.7861 117.824c24.7607 44.3271 57.1523 92.7295 97.1768 145.206c11.6377 15.2568 24.0996 30.8125 37.3857 46.667c-11.8145 11.8154 -11.8145 11.8154 -26.7754 26.7764z" />
</svg>
