<?xml version="1.0" standalone="no"?>
<!DOCTYPE svg PUBLIC "-//W3C//DTD SVG 1.1//EN" "http://www.w3.org/Graphics/SVG/1.1/DTD/svg11.dtd" >
<svg xmlns="http://www.w3.org/2000/svg" xmlns:xlink="http://www.w3.org/1999/xlink" version="1.1" viewBox="0 0 1430 905">
   <path fill="currentColor"
d="M1419.95 249.173c-83.8057 0 -158.411 4.40332 -223.821 13.208c-65.4082 8.80469 -122.641 20.126 -171.697 33.9619c-27.1621 7.66113 -52.0059 15.4189 -74.5312 23.2734c3.73438 14.627 9.29199 30.8672 16.6748 48.7197
c8.2793 20.0195 20.0244 41.3701 35.2334 64.0508c15.21 22.6807 35.0098 46.2178 59.4014 70.6084l-10.4062 10.4062c-24.2734 -24.2734 -47.75 -44.0137 -70.4316 -59.2236c-22.6797 -15.21 -44.0605 -26.9834 -64.1396 -35.3223
c-20.0791 -8.33789 -38.1016 -14.3525 -54.0654 -18.043c15.0293 -12.1885 29.748 -25.4873 44.1572 -39.8955c12.0342 -12.0352 23.8535 -24.8447 35.4551 -38.4297c-15.0283 5.3916 -28.9717 10.8271 -41.8291 16.3086c4.90527 -32.0762 7.3584 -65.0947 7.3584 -99.0566
s-2.45312 -68.8682 -7.3584 -104.717c33.9307 14.4639 75.3223 28.6152 124.175 42.4531c48.8525 13.8359 105.982 25.1572 171.391 33.9619c65.4092 8.80371 140.221 13.208 224.435 13.208v24.5273zM1419 800.173c-128.932 0 -243.71 4.40332 -344.34 13.208
c-100.629 8.80469 -188.679 20.126 -264.15 33.9619c-75.4717 13.8369 -139.309 27.9883 -191.51 42.4531c7.54688 -32.0762 11.3213 -65.0947 11.3213 -99.0566s-3.77441 -68.8682 -11.3213 -104.717c52.2012 14.4639 115.88 28.6152 191.038 42.4531
c75.1572 13.8359 163.05 25.1572 263.679 33.9619c100.629 8.80371 215.724 13.208 345.283 13.208v24.5273zM855.639 708.563c-24.2734 -24.2734 -47.751 -44.0146 -70.4316 -59.2246c-22.6807 -15.209 -44.0605 -26.9834 -64.1396 -35.3213
c-20.0791 -8.33887 -38.1016 -14.3535 -54.0664 -18.0439c15.0303 -12.1885 29.749 -25.4863 44.1572 -39.8955c14.4092 -14.4082 28.5088 -29.9287 42.2969 -46.5586c3.69141 15.9639 9.67578 33.957 17.9551 53.9775c8.2793 20.0195 20.0234 41.3711 35.2324 64.0508
c15.2109 22.6807 35.0107 46.2178 59.4023 70.6094zM953.219 610.982c-24.2734 -24.2744 -47.751 -44.0146 -70.4307 -59.2236c-22.6816 -15.21 -44.0615 -26.9844 -64.1396 -35.3223c-20.0801 -8.33887 -38.1025 -14.3535 -54.0664 -18.0439
c13.2744 -10.7656 26.3076 -22.3965 39.0977 -34.8936c-13.4883 -11.6602 -26.7178 -21.8379 -39.6865 -30.5352c-22.6797 -15.209 -44.0605 -26.9834 -64.1396 -35.3213s-38.1016 -14.3525 -54.0654 -18.0439c15.0293 -12.1875 29.748 -25.4863 44.1572 -39.8955
c14.4082 -14.4082 28.5078 -29.9277 42.2959 -46.5586c3.69141 15.9648 9.67578 33.957 17.9551 53.9785c8.2793 20.0195 20.0244 41.3701 35.2334 64.0498c8.7168 12.998 18.9404 26.2773 30.6729 39.8379c11.8574 -12.2607 23.502 -25.2852 34.9326 -39.0723
c3.69141 15.9648 9.67578 33.957 17.9551 53.9775c8.2793 20.0195 20.0234 41.3711 35.2324 64.0508c15.2109 22.6807 35.0107 46.2178 59.4023 70.6094zM515.561 905.329c-40.4561 -40.457 -79.585 -73.3574 -117.386 -98.707s-73.4346 -44.9727 -106.899 -58.8701
c-33.4658 -13.8975 -63.5029 -23.9219 -90.1104 -30.0732c25.0488 -20.3135 49.5811 -42.4766 73.5957 -66.4912s47.5127 -49.8818 70.4932 -77.5986c6.15234 26.6074 16.127 56.5957 29.9258 89.9629c7.58984 18.3525 16.9268 37.376 28.0098 57.0703
c-0.670898 -66.582 -3.16211 -128.341 -7.4707 -185.278c-49.4385 0.887695 -93.9443 5.23438 -133.52 13.0371c-44.6543 8.80469 -83.7266 20.126 -117.217 33.9619c-33.4902 13.8369 -61.8184 27.9883 -84.9824 42.4531
c3.34863 -32.0762 5.02344 -65.0947 5.02344 -99.0566s-1.6748 -68.8682 -5.02344 -104.717c23.1641 14.4639 51.4219 28.6152 84.7734 42.4531c33.3506 13.8359 72.3535 25.1572 117.007 33.9619c39.0596 7.7002 83.0293 12.0352 131.911 13.001
c-1.08398 -12.4141 -2.25781 -24.5869 -3.52344 -36.5186c-8.80469 -83.0195 -20.126 -155.66 -33.9619 -217.925c-13.8369 -62.2637 -27.9883 -114.929 -42.4531 -157.995c32.0762 6.22656 65.0947 9.33984 99.0566 9.33984s68.8682 -3.11328 104.717 -9.33984
c-14.4639 43.0664 -28.6152 95.6006 -42.4531 157.606c-13.8359 62.0049 -25.1572 134.516 -33.9619 217.535c-8.80371 83.0186 -13.208 177.972 -13.208 284.858h-2.09863c2.62988 4.07422 5.3291 8.17578 8.09668 12.3027
c25.3496 37.8008 58.3496 77.0293 99.0029 117.683zM859.561 331.329c-40.4561 -40.457 -79.585 -73.3574 -117.386 -98.707s-73.4346 -44.9727 -106.899 -58.8701c-33.4658 -13.8975 -63.5029 -23.9219 -90.1104 -30.0732
c25.0488 -20.3135 49.5811 -42.4766 73.5957 -66.4912s47.5127 -49.8818 70.4932 -77.5986c6.15234 26.6074 16.127 56.5957 29.9258 89.9629c13.7988 33.3662 33.3721 68.9512 58.7217 106.751c25.3496 37.8008 58.3496 77.0293 99.0029 117.683z" />
</svg>
