<?xml version="1.0" standalone="no"?>
<!DOCTYPE svg PUBLIC "-//W3C//DTD SVG 1.1//EN" "http://www.w3.org/Graphics/SVG/1.1/DTD/svg11.dtd" >
<svg xmlns="http://www.w3.org/2000/svg" xmlns:xlink="http://www.w3.org/1999/xlink" version="1.1" viewBox="0 0 1149 881">
   <path fill="currentColor"
d="M1024.38 820c0 -83.8057 -4.40332 -158.411 -13.208 -223.821c-8.80469 -65.4082 -20.126 -122.641 -33.9619 -171.697c-13.8369 -49.0566 -27.9883 -90.5508 -42.4531 -124.481c28.3838 4.34082 57.5049 6.76074 87.3652 7.26074
c-2.13574 -30.5146 -5.78516 -58.8682 -10.9502 -85.0615c-8.80469 -44.6543 -20.126 -83.7266 -33.9619 -117.217c-13.8369 -33.4902 -27.9883 -61.8184 -42.4531 -84.9824c32.0762 3.34863 65.0947 5.02344 99.0566 5.02344s68.8682 -1.6748 104.717 -5.02344
c-14.4639 23.1641 -28.6152 51.4219 -42.4531 84.7734c-13.8359 33.3506 -25.1572 72.3535 -33.9619 117.007c-5.17285 26.2393 -8.82715 54.6953 -10.9609 85.3672c28.4746 -0.69043 57.5996 -3.07324 87.376 -7.14746c-14.4639 33.9307 -28.6152 75.3223 -42.4531 124.175
c-13.8359 48.8525 -25.1572 105.982 -33.9619 171.391c-8.80371 65.4092 -13.208 140.221 -13.208 224.435h-24.5273zM686.91 596.002c22.0439 -22.2178 44.0859 -45.251 66.1289 -69.1016c21.6123 -23.3828 44.5557 -48.4912 68.834 -75.3242
c-66.5146 1.26953 -126.764 5.53809 -180.748 12.8047c-65.4082 8.80469 -122.641 20.126 -171.697 33.9619c-49.0566 13.8369 -90.5508 27.9883 -124.481 42.4531c4.35645 -28.4893 6.7793 -57.7207 7.2666 -87.6973c-32.4043 2.07812 -62.4092 5.83887 -90.0137 11.2822
c-44.6543 8.80469 -83.7266 20.126 -117.217 33.9619c-16.4121 6.78125 -31.585 13.6377 -45.5176 20.5693c34.5703 10.1797 73.9512 20.2012 118.142 30.0635c62.0049 13.8359 134.516 25.1572 217.535 33.9619c74.3506 7.88477 158.273 12.2402 251.769 13.0645z
M698.516 620.733c-97.6768 0.556641 -185.208 4.94043 -262.596 13.1475c-83.0195 8.80469 -155.66 20.126 -217.925 33.9619c-44.9365 9.98633 -84.873 20.1367 -119.811 30.4502c14.2334 7.14062 29.7627 14.2012 46.5889 21.1826
c33.3506 13.8359 72.3535 25.1572 117.007 33.9619c27.6465 5.4502 57.7539 9.21484 90.3213 11.292c-0.679688 -28.5801 -3.06543 -57.8164 -7.15527 -87.707c33.9307 14.4639 75.3223 28.6152 124.175 42.4531c48.8525 13.8359 105.982 25.1572 171.391 33.9619
c56.8799 7.65527 120.87 11.9844 191.971 12.9834c-20.4727 -22.5576 -38.9541 -43.1982 -55.4434 -61.9209c-29.7832 -33.8184 -55.958 -61.7402 -78.5234 -83.7666zM64.9131 680.04c2.95117 -22.4873 4.42676 -45.4199 4.42676 -68.8008
c0 -23.9707 -1.55078 -48.4121 -4.65332 -73.3232c-1.58496 0.958984 -3.14746 1.91895 -4.68652 2.87988c0.759766 -7.27539 1.43262 -14.5996 2.02051 -21.9717c-0.632812 -4.08789 -1.30566 -8.18848 -2.02051 -12.3018
c0.946289 0.318359 1.89746 0.635742 2.85352 0.953125c1.44629 -21.5049 2.16992 -43.417 2.16992 -65.7363c0 -23.6455 -0.811523 -47.748 -2.43555 -72.3086c-0.866211 0.288086 -1.72852 0.577148 -2.58789 0.865234
c0.674805 -3.47559 1.3125 -6.96289 1.91406 -10.4609c-0.561523 -7.56055 -1.2002 -15.165 -1.91406 -22.8125c1.61328 1.00684 3.25098 2.0127 4.91309 3.01758c2.95117 -22.4873 4.42676 -45.4199 4.42676 -68.8008c0 -33.9619 -3.11328 -68.8682 -9.33984 -104.717
c43.0664 14.4639 95.6006 28.6152 157.606 42.4531c62.0049 13.8359 134.516 25.1572 217.535 33.9619c74.3506 7.88477 158.273 12.2402 251.769 13.0645c22.0439 -22.2178 44.0859 -45.251 66.1289 -69.1016c24.4014 -26.4004 50.501 -55.001 78.3008 -85.8008
s58.9004 -64.5996 93.3008 -101.4l12.5996 9c-32.8008 52.4004 -60.9004 100.5 -84.3008 144.301s-42.7002 80.5 -57.9004 110.1c12.8008 25.2012 31.2012 60.1006 55.2012 104.701c5.71582 10.6221 11.7158 21.5439 17.999 32.7676
c17.6953 -19.2852 36.4961 -39.5742 56.4014 -60.8691l12.5996 9c-18.376 29.3564 -35.2764 57.3633 -50.7021 84.0205c15.4424 26.7148 32.3428 54.9756 50.7021 84.7803l-12.5996 9c-20.0811 -21.5537 -38.9521 -41.9414 -56.6143 -61.166
c-5.22852 9.40527 -10.2578 18.627 -15.0869 27.666c-23.4004 43.8008 -42.7002 80.5 -57.9004 110.1c12.8008 25.2012 31.2012 60.1006 55.2012 104.701c24 44.5986 52.999 94.5 87 149.699l-12.5996 9c-25.0801 -26.9189 -48.2734 -52.0215 -69.5801 -75.3066
c-79.7979 0.333984 -151.108 4.73047 -213.936 13.1875c-65.4082 8.80469 -122.641 20.126 -171.697 33.9619c-49.0566 13.8369 -90.5508 27.9883 -124.481 42.4531c4.35645 -28.4893 6.7793 -57.7207 7.2666 -87.6973c-32.4043 2.07812 -62.4092 5.83887 -90.0137 11.2822
c-44.6543 8.80469 -83.7266 20.126 -117.217 33.9619c-33.4902 13.8369 -61.8184 27.9883 -84.9824 42.4531c3.34863 -32.0762 5.02344 -65.0947 5.02344 -99.0566c0 -23.6455 -0.811523 -47.748 -2.43555 -72.3086c-0.866211 0.288086 -1.72852 0.577148 -2.58789 0.865234
c0.674805 -3.47559 1.3125 -6.96289 1.91406 -10.4609c-0.561523 -7.56055 -1.2002 -15.165 -1.91406 -22.8125c1.61328 1.00684 3.25098 2.0127 4.91309 3.01758zM698.516 280.733c-97.6768 0.556641 -185.208 4.94043 -262.596 13.1475
c-83.0195 8.80469 -155.66 20.126 -217.925 33.9619c-44.9365 9.98633 -84.873 20.1367 -119.811 30.4502c14.2334 7.14062 29.7627 14.2012 46.5889 21.1826c33.3506 13.8359 72.3535 25.1572 117.007 33.9619c27.6465 5.4502 57.7539 9.21484 90.3213 11.292
c-0.679688 -28.5801 -3.06543 -57.8164 -7.15527 -87.707c33.9307 14.4639 75.3223 28.6152 124.175 42.4531c48.8525 13.8359 105.982 25.1572 171.391 33.9619c56.8799 7.65527 120.87 11.9844 191.971 12.9834c-20.4727 -22.5576 -38.9541 -43.1982 -55.4434 -61.9209
c-29.7832 -33.8184 -55.958 -61.7402 -78.5234 -83.7666z" />
</svg>
