<?xml version="1.0" standalone="no"?>
<!DOCTYPE svg PUBLIC "-//W3C//DTD SVG 1.1//EN" "http://www.w3.org/Graphics/SVG/1.1/DTD/svg11.dtd" >
<svg xmlns="http://www.w3.org/2000/svg" xmlns:xlink="http://www.w3.org/1999/xlink" version="1.1" viewBox="0 0 1149 881">
   <path fill="currentColor"
d="M1024.38 820c0 -83.8057 -4.40332 -158.411 -13.208 -223.821c-8.80469 -65.4082 -20.126 -122.641 -33.9619 -171.697c-13.8369 -49.0566 -27.9883 -90.5508 -42.4531 -124.481c24.499 3.74707 49.5488 6.0625 75.1484 6.94824
c-8.61523 -61.5762 -19.5137 -115.731 -32.6953 -162.467c-13.8369 -49.0566 -27.9883 -90.5508 -42.4531 -124.481c32.0762 4.90527 65.0947 7.3584 99.0566 7.3584s68.8682 -2.45312 104.717 -7.3584c-14.4639 33.9307 -28.6152 75.3223 -42.4531 124.175
c-13.2109 46.6455 -24.1289 100.837 -32.7529 162.576c24.5898 -1.00488 49.6582 -3.25488 75.2061 -6.75098c-14.4639 33.9307 -28.6152 75.3223 -42.4531 124.175c-13.8359 48.8525 -25.1572 105.982 -33.9619 171.391c-8.80371 65.4092 -13.208 140.221 -13.208 224.435
h-24.5273zM686.91 596.002c22.0439 -22.2178 44.0859 -45.251 66.1289 -69.1016c21.6123 -23.3828 44.5557 -48.4912 68.834 -75.3242c-66.5146 1.26953 -126.764 5.53809 -180.748 12.8047c-65.4082 8.80469 -122.641 20.126 -171.697 33.9619
c-49.0566 13.8369 -90.5508 27.9883 -124.481 42.4531c3.78027 -24.7188 6.10449 -49.998 6.97168 -75.8359c-63.6357 8.71973 -119.448 19.8486 -167.437 33.3828c-27.376 7.72168 -52.3965 15.541 -75.0615 23.458c32.1201 9.18848 68.1826 18.2471 108.187 27.1748
c62.0049 13.8359 134.516 25.1572 217.535 33.9619c74.3506 7.88477 158.273 12.2402 251.769 13.0645zM698.516 620.733c-97.6768 0.556641 -185.208 4.94043 -262.596 13.1475c-83.0195 8.80469 -155.66 20.126 -217.925 33.9619
c-40.8506 9.07812 -77.5684 18.292 -110.155 27.6406c23.0156 8.09863 48.4609 16.0967 76.335 23.9922c47.8936 13.5645 103.744 24.7119 167.55 33.4404c-0.990234 -24.8096 -3.25 -50.1074 -6.77832 -75.8936c33.9307 14.4639 75.3223 28.6152 124.175 42.4531
c48.8525 13.8359 105.982 25.1572 171.391 33.9619c56.8799 7.65527 120.87 11.9844 191.971 12.9834c-20.4727 -22.5576 -38.9541 -43.1982 -55.4434 -61.9209c-29.7832 -33.8184 -55.958 -61.7402 -78.5234 -83.7666zM65.0303 679.142
c2.87305 -22.1992 4.30957 -44.833 4.30957 -67.9023c0 -23.6953 -1.51562 -47.8496 -4.54688 -72.4639c-1.61426 0.672852 -3.21191 1.34668 -4.79297 2.02051c0.938477 -6.13672 1.78711 -12.3076 2.5459 -18.5127c-0.78125 -5.2334 -1.62988 -10.4863 -2.5459 -15.7607
c1.37012 0.459961 2.74902 0.919922 4.1377 1.37891c2.14746 -21.6416 3.2207 -43.6953 3.2207 -66.1621c0 -23.7695 -1.20117 -48.001 -3.60449 -72.6953c-1.25977 0.416992 -2.51074 0.833984 -3.75391 1.25195c0.878906 -4.5293 1.69629 -9.07715 2.45117 -13.6445
c-0.734375 -6.51074 -1.55176 -13.0547 -2.45117 -19.6289c1.65918 0.707031 3.33594 1.41406 5.03027 2.11914c2.87305 -22.1992 4.30957 -44.833 4.30957 -67.9023c0 -33.9619 -3.11328 -68.8682 -9.33984 -104.717c43.0664 14.4639 95.6006 28.6152 157.606 42.4531
c62.0049 13.8359 134.516 25.1572 217.535 33.9619c74.3506 7.88477 158.273 12.2402 251.769 13.0645c22.0439 -22.2178 44.0859 -45.251 66.1289 -69.1016c24.4014 -26.4004 50.501 -55.001 78.3008 -85.8008s58.9004 -64.5996 93.3008 -101.4l12.5996 9
c-32.8008 52.4004 -60.9004 100.5 -84.3008 144.301s-42.7002 80.5 -57.9004 110.1c12.8008 25.2012 31.2012 60.1006 55.2012 104.701c5.71582 10.6221 11.7158 21.5439 17.999 32.7676c17.6953 -19.2852 36.4961 -39.5742 56.4014 -60.8691l12.5996 9
c-18.376 29.3564 -35.2764 57.3633 -50.7021 84.0205c15.4424 26.7148 32.3428 54.9756 50.7021 84.7803l-12.5996 9c-20.0811 -21.5537 -38.9521 -41.9414 -56.6143 -61.166c-5.22852 9.40527 -10.2578 18.627 -15.0869 27.666
c-23.4004 43.8008 -42.7002 80.5 -57.9004 110.1c12.8008 25.2012 31.2012 60.1006 55.2012 104.701c24 44.5986 52.999 94.5 87 149.699l-12.5996 9c-25.0801 -26.9189 -48.2734 -52.0215 -69.5801 -75.3066c-79.7979 0.333984 -151.108 4.73047 -213.936 13.1875
c-65.4082 8.80469 -122.641 20.126 -171.697 33.9619c-49.0566 13.8369 -90.5508 27.9883 -124.481 42.4531c3.78027 -24.7188 6.10449 -49.998 6.97168 -75.8359c-63.6357 8.71973 -119.448 19.8486 -167.437 33.3828c-49.0566 13.8369 -90.5508 27.9883 -124.481 42.4531
c4.90527 -32.0762 7.3584 -65.0947 7.3584 -99.0566c0 -23.7695 -1.20117 -48.001 -3.60449 -72.6953c-1.25977 0.416992 -2.51074 0.833984 -3.75391 1.25195c0.878906 -4.5293 1.69629 -9.07715 2.45117 -13.6445c-0.734375 -6.51074 -1.55176 -13.0547 -2.45117 -19.6289
c1.65918 0.707031 3.33594 1.41406 5.03027 2.11914zM698.516 280.733c-97.6768 0.556641 -185.208 4.94043 -262.596 13.1475c-83.0195 8.80469 -155.66 20.126 -217.925 33.9619c-40.8506 9.07812 -77.5684 18.292 -110.155 27.6406
c23.0156 8.09863 48.4609 16.0967 76.335 23.9922c47.8936 13.5645 103.744 24.7119 167.55 33.4404c-0.990234 -24.8096 -3.25 -50.1074 -6.77832 -75.8936c33.9307 14.4639 75.3223 28.6152 124.175 42.4531c48.8525 13.8359 105.982 25.1572 171.391 33.9619
c56.8799 7.65527 120.87 11.9844 191.971 12.9834c-20.4727 -22.5576 -38.9541 -43.1982 -55.4434 -61.9209c-29.7832 -33.8184 -55.958 -61.7402 -78.5234 -83.7666z" />
</svg>
