<?xml version="1.0" standalone="no"?>
<!DOCTYPE svg PUBLIC "-//W3C//DTD SVG 1.1//EN" "http://www.w3.org/Graphics/SVG/1.1/DTD/svg11.dtd" >
<svg xmlns="http://www.w3.org/2000/svg" xmlns:xlink="http://www.w3.org/1999/xlink" version="1.1" viewBox="0 0 1569 919">
   <path fill="currentColor"
d="M784.641 526c-60 -64.3994 -109.201 -118.399 -147.602 -162c-29.5215 -33.5215 -55.498 -61.249 -77.9277 -83.1846c-73.3809 0.820312 -139.375 5.17578 -197.986 13.0654c-65.4082 8.80469 -122.641 20.126 -171.697 33.9619
c-49.0566 13.8369 -90.5508 27.9883 -124.481 42.4531c4.90527 -32.0762 7.3584 -65.0947 7.3584 -99.0566s-2.45312 -68.8682 -7.3584 -104.717c33.9307 14.4639 75.3223 28.6152 124.175 42.4531c48.8525 13.8359 105.982 25.1572 171.391 33.9619
c55.3027 7.44336 117.327 11.7422 186.072 12.8926c22.1523 -22.3184 44.3037 -45.4619 66.4551 -69.4297c24.4014 -26.4004 50.501 -55.001 78.3008 -85.8008s58.9004 -64.5996 93.3008 -101.4l12.5996 9c-32.8008 52.4004 -60.9004 100.5 -84.3008 144.301
s-42.7002 80.5 -57.9004 110.1c12.8008 25.2012 31.2012 60.1006 55.2012 104.701c22.4727 41.7607 49.3281 88.1699 80.5693 139.225c5.68652 -30.7344 8.53027 -62.3291 8.53027 -94.7861c0 -32.834 -2.91016 -66.5508 -8.72949 -101.148
c-0.204102 0.0683594 -0.407227 0.136719 -0.610352 0.205078c0.115234 -0.59375 0.229492 -1.18848 0.342773 -1.7832c-0.113281 -0.663086 -0.227539 -1.32617 -0.342773 -1.99023c0.224609 0.0751953 0.450195 0.151367 0.674805 0.226562
c5.77637 -30.9619 8.66504 -62.7979 8.66504 -95.5098c0 -33.9619 -3.11328 -68.8682 -9.33984 -104.717c43.0664 14.4639 95.6006 28.6152 157.606 42.4531c62.0049 13.8359 134.516 25.1572 217.535 33.9619c68.3262 7.24609 144.735 11.5117 229.229 12.7939
c-12.9336 -68.8457 -26.1396 -127.59 -39.6182 -176.231c32.0762 7.54688 65.0947 11.3213 99.0566 11.3213s68.8682 -3.77441 104.717 -11.3213c-14.4639 52.2012 -28.6152 115.88 -42.4531 191.038c-13.8359 75.1572 -25.1572 163.05 -33.9619 263.679
c-8.80371 100.629 -13.208 215.724 -13.208 345.283h-8.90332v9.17285c-128.932 0 -243.71 4.40332 -344.34 13.208c-100.629 8.80469 -188.679 20.126 -264.15 33.9619c-75.4717 13.8369 -139.309 27.9883 -191.51 42.4531
c7.54688 -32.0762 11.3213 -65.0947 11.3213 -99.0566c0 -25.6787 -2.1582 -51.8984 -6.47266 -78.6562c-84.2314 1.27832 -160.541 5.54492 -228.929 12.7979c-83.0195 8.80469 -155.66 20.126 -217.925 33.9619c-62.2637 13.8369 -114.929 27.9883 -157.995 42.4531
c6.22656 -32.0762 9.33984 -65.0947 9.33984 -99.0566s-3.11328 -68.8682 -9.33984 -104.717c43.0664 14.4639 95.6006 28.6152 157.606 42.4531c62.0049 13.8359 134.516 25.1572 217.535 33.9619c67.1826 7.12402 142.18 11.3672 224.993 12.7275
c-0.0449219 -0.213867 -0.0898438 -0.428711 -0.134766 -0.642578c0.818359 0.226562 1.63867 0.453125 2.46289 0.679688c18.7783 0.295898 37.957 0.443359 57.5371 0.443359v14.1787c38.9092 9.18066 82.5889 18.2314 131.038 27.1514
c75.1572 13.8359 163.05 25.1572 263.679 33.9619c96.5596 8.44727 206.439 12.8447 329.638 13.1865c-0.177734 -64.7832 -1.4873 -125.929 -3.92871 -183.439c-102.484 0.257812 -193.985 4.65625 -274.506 13.1963c-83.0195 8.80469 -155.66 20.126 -217.925 33.9619
c-62.2637 13.8369 -114.929 27.9883 -157.995 42.4531c6.22656 -32.0762 9.33984 -65.0947 9.33984 -99.0566c0 -29.6631 -2.375 -60.0469 -7.125 -91.1494zM795.677 508.909c41.9805 13.8086 92.6221 27.3311 151.93 40.5664
c62.0049 13.8359 134.516 25.1572 217.535 33.9619c80.2393 8.50879 171.627 12.9082 274.163 13.1934c-2.0752 -42.3711 -4.78809 -82.6943 -8.13672 -120.971c-1.62402 -18.5654 -3.33398 -36.7021 -5.12988 -54.4111
c-96.6797 0.616211 -183.385 4.99414 -260.118 13.1318c-83.0195 8.80469 -155.66 20.126 -217.925 33.9619c-59.5537 13.2344 -110.327 26.7568 -152.318 40.5664zM795.677 308.909c41.9805 13.8086 92.6221 27.3311 151.93 40.5664
c62.0049 13.8359 134.516 25.1572 217.535 33.9619c76.0791 8.06738 162.182 12.4414 258.307 13.1152c-6.96484 -64.2432 -15.1104 -122.586 -24.4346 -175.03c-85.8828 1.19922 -163.58 5.48633 -233.094 12.8584c-83.0195 8.80469 -155.66 20.126 -217.925 33.9619
c-59.5537 13.2344 -110.327 26.7568 -152.318 40.5664z" />
</svg>
