<?xml version="1.0" standalone="no"?>
<!DOCTYPE svg PUBLIC "-//W3C//DTD SVG 1.1//EN" "http://www.w3.org/Graphics/SVG/1.1/DTD/svg11.dtd" >
<svg xmlns="http://www.w3.org/2000/svg" xmlns:xlink="http://www.w3.org/1999/xlink" version="1.1" viewBox="0 0 1569 919">
   <path fill="currentColor"
d="M1070.19 774.692c-15.6816 -13.127 -31.0811 -25.4561 -46.1992 -36.9873c-52.4766 -40.0244 -100.951 -72.4883 -145.423 -97.3936c-44.4727 -24.9043 -83.8203 -44.2383 -118.041 -58.0029c26.1504 -19.2119 51.2324 -40.8252 75.2471 -64.8398
s46.9629 -50.4316 68.8428 -79.249c13.7656 34.2197 33.0273 73.4941 57.7861 117.823c24.7607 44.3271 57.1523 92.7295 97.1768 145.206c11.6367 15.2568 24.0986 30.8125 37.3857 46.668zM1232.82 612.058c-15.6807 -13.127 -31.0811 -25.4561 -46.1992 -36.9873
c-52.4766 -40.0244 -100.951 -72.4893 -145.423 -97.3936c-44.4727 -24.9043 -83.8193 -44.2383 -118.04 -58.0029c19.9727 -14.6748 39.3223 -30.749 58.0498 -48.2246c-49.6318 -37.4492 -95.6328 -68.0361 -138 -91.7617
c-44.4717 -24.9043 -83.8193 -44.2383 -118.04 -58.0029c26.1494 -19.2129 51.2314 -40.8262 75.2471 -64.8408c24.0146 -24.0146 46.9619 -50.4316 68.8428 -79.249c13.7646 34.2197 33.0264 73.4951 57.7852 117.824c23.6416 42.3242 54.2412 88.3643 91.7979 138.118
c16.6777 -18.0986 32.8135 -37.416 48.4062 -57.9531c13.7656 34.2207 33.0273 73.4951 57.7861 117.824c24.7607 44.3271 57.1523 92.7295 97.1768 145.206c11.6377 15.2568 24.0996 30.8125 37.3857 46.667c-11.8145 11.8154 -11.8145 11.8154 -26.7754 26.7764z
M1395.46 449.423c-15.6807 -13.127 -31.0801 -25.4561 -46.1982 -36.9863c-52.4766 -40.0254 -100.952 -72.4893 -145.424 -97.3945c-44.4717 -24.9033 -83.8193 -44.2383 -118.04 -58.002c26.1494 -19.2129 51.2314 -40.8262 75.2471 -64.8408
c24.0146 -24.0146 46.9619 -50.4316 68.8428 -79.249c13.7646 34.2197 33.0264 73.4951 57.7852 117.823c24.7607 44.3281 57.1523 92.7305 97.1768 145.207c11.6377 15.2559 24.0996 30.8125 37.3867 46.667c-11.8154 11.8145 -11.8154 11.8145 -26.7764 26.7754z
M1460 829.173c-128.932 0 -243.71 4.40332 -344.34 13.208c-100.629 8.80469 -188.679 20.126 -264.15 33.9619c-75.4717 13.8369 -139.309 27.9883 -191.51 42.4531c7.54688 -32.0762 11.3213 -65.0947 11.3213 -99.0566c0 -25.6787 -2.1582 -51.8984 -6.47266 -78.6562
c-84.2314 1.27832 -160.541 5.54492 -228.929 12.7979c-83.0195 8.80469 -155.66 20.126 -217.925 33.9619c-62.2637 13.8369 -114.929 27.9883 -157.995 42.4531c6.22656 -32.0762 9.33984 -65.0947 9.33984 -99.0566s-3.11328 -68.8682 -9.33984 -104.717
c43.0664 14.4639 95.6006 28.6152 157.606 42.4531c62.0049 13.8359 134.516 25.1572 217.535 33.9619c67.1826 7.12402 142.18 11.3672 224.993 12.7275c-0.0449219 -0.213867 -0.0898438 -0.428711 -0.134766 -0.642578
c0.818359 0.226562 1.63867 0.453125 2.46289 0.679688c18.7783 0.295898 37.957 0.443359 57.5371 0.443359v14.1787c38.9092 9.18066 82.5889 18.2314 131.038 27.1514c75.1572 13.8359 163.05 25.1572 263.679 33.9619c96.5596 8.44727 206.439 12.8447 329.638 13.1865
c-0.336914 -122.699 -4.7334 -232.352 -13.1865 -328.964c-8.80469 -100.629 -20.126 -188.679 -33.9619 -264.15c-13.8369 -75.4717 -27.9883 -139.309 -42.4531 -191.51c32.0762 7.54688 65.0947 11.3213 99.0566 11.3213s68.8682 -3.77441 104.717 -11.3213
c-14.4639 52.2012 -28.6152 115.88 -42.4531 191.038c-13.8359 75.1572 -25.1572 163.05 -33.9619 263.679c-8.80371 100.629 -13.208 215.724 -13.208 345.283h-8.90332v9.17285zM784.641 526c-60 -64.3994 -109.201 -118.399 -147.602 -162
c-29.5215 -33.5215 -55.498 -61.249 -77.9277 -83.1846c-73.3809 0.820312 -139.375 5.17578 -197.986 13.0654c-65.4082 8.80469 -122.641 20.126 -171.697 33.9619c-49.0566 13.8369 -90.5508 27.9883 -124.481 42.4531c4.90527 -32.0762 7.3584 -65.0947 7.3584 -99.0566
s-2.45312 -68.8682 -7.3584 -104.717c33.9307 14.4639 75.3223 28.6152 124.175 42.4531c48.8525 13.8359 105.982 25.1572 171.391 33.9619c55.3027 7.44336 117.327 11.7422 186.072 12.8926c22.1523 -22.3184 44.3037 -45.4619 66.4551 -69.4297
c24.4014 -26.4004 50.501 -55.001 78.3008 -85.8008s58.9004 -64.5996 93.3008 -101.4l12.5996 9c-32.8008 52.4004 -60.9004 100.5 -84.3008 144.301s-42.7002 80.5 -57.9004 110.1c12.8008 25.2012 31.2012 60.1006 55.2012 104.701c24 44.5986 52.999 94.5 87 149.699z
" />
</svg>
