<?xml version="1.0" standalone="no"?>
<!DOCTYPE svg PUBLIC "-//W3C//DTD SVG 1.1//EN" "http://www.w3.org/Graphics/SVG/1.1/DTD/svg11.dtd" >
<svg xmlns="http://www.w3.org/2000/svg" xmlns:xlink="http://www.w3.org/1999/xlink" version="1.1" viewBox="0 0 1599 743">
   <path fill="currentColor"
d="M1588.89 380.559c-71.2344 0 -134.649 9.52148 -190.248 28.5605c-55.5977 19.04 -104.245 43.5205 -145.942 73.4395c-41.6982 29.9209 -76.9688 60.5225 -105.81 91.8008c4.16992 -69.3613 6.25488 -140.761 6.25488 -214.2
c0 -70.4512 -1.91895 -142.78 -5.75586 -216.985c-83.1074 0.0595703 -157.141 4.46289 -222.104 13.207c-65.4082 8.80469 -122.641 20.126 -171.697 33.9619c-29.8125 8.40918 -56.8311 16.9336 -81.0576 25.5742c24.165 8.63477 51.082 17.1543 80.751 25.5586
c48.8525 13.8359 105.982 25.1572 171.391 33.9619c65.4092 8.80371 140.221 13.208 224.435 13.208v24.5273c-83.8057 0 -158.411 4.40332 -223.821 13.208c-65.4082 8.80469 -122.641 20.126 -171.697 33.9619c-29.8125 8.40918 -56.8311 16.9336 -81.0576 25.5742
c24.165 8.63477 51.082 17.1543 80.751 25.5586c48.8525 13.8359 105.982 25.1572 171.391 33.9619c65.4092 8.80371 140.221 13.208 224.435 13.208v24.5273c-83.8057 0 -158.411 4.40332 -223.821 13.208c-65.4082 8.80469 -122.641 20.126 -171.697 33.9619
c-49.0566 13.8369 -90.5508 27.9883 -124.481 42.4531c4.35645 -28.4893 6.7793 -57.7207 7.2666 -87.6973c-32.4043 2.07812 -62.4092 5.83887 -90.0137 11.2822c-44.6543 8.80469 -83.7266 20.126 -117.217 33.9619c-24.4463 10.1006 -46.1416 20.3682 -65.0859 30.8027
c31.0205 6.85059 64.7344 13.627 101.142 20.3301c75.1572 13.8359 163.05 25.1572 263.679 33.9619c100.629 8.80371 215.724 13.208 345.283 13.208v24.5273c-128.932 0 -243.71 4.40332 -344.34 13.208c-100.629 8.80469 -188.679 20.126 -264.15 33.9619
c-75.4717 13.8369 -139.309 27.9883 -191.51 42.4531c7.54688 -32.0762 11.3213 -65.0947 11.3213 -99.0566c0 -17.502 -1.00293 -35.2559 -3.00684 -53.2598c-35.3613 -38.7461 -66.6533 -73.5723 -93.874 -104.479c-51.1992 -58.1338 -94.3994 -103.2 -129.6 -135.2
c32.5332 -32.5332 65.0664 -66.3994 97.5996 -101.6c32.5342 -35.2002 67.334 -73.334 104.4 -114.4c25.96 -28.7607 54.0771 -59.4844 84.3535 -92.1699c-0.371094 -4.52051 -0.769531 -9.05664 -1.19434 -13.6074c2.86914 1.79102 5.81641 3.57812 8.8418 5.36035
c10.5439 -11.3623 21.3438 -22.957 32.3994 -34.7832l16.7998 12c-7.86035 12.5576 -15.5186 24.9297 -22.9736 37.1172c15.0742 7.67773 31.6436 15.2646 49.7061 22.7588c33.3506 13.8359 72.3535 25.1572 117.007 33.9619c27.6465 5.4502 57.7539 9.21484 90.3213 11.292
c-0.679688 -28.5801 -3.06543 -57.8164 -7.15527 -87.707c33.9307 14.4639 75.3223 28.6152 124.175 42.4531c48.8525 13.8359 105.982 25.1572 171.391 33.9619c65.4092 8.80371 140.221 13.208 224.435 13.208v17.4639c28.4209 30.4453 62.8643 60.251 103.332 89.4111
c41.5244 29.9189 90.085 54.3994 145.683 73.4395c55.5967 19.0371 119.187 28.5605 190.769 28.5605v53.0381zM636.372 145.099c-32.4043 2.07812 -62.4092 5.83887 -90.0137 11.2822c-44.6543 8.80469 -83.7266 20.126 -117.217 33.9619
c-20.3525 8.40918 -38.7979 16.9336 -55.3369 25.5742c16.4971 8.63477 34.873 17.1543 55.1279 25.5586c33.3506 13.8359 72.3535 25.1572 117.007 33.9619c27.6465 5.4502 57.7539 9.21484 90.3213 11.292c-0.433594 -18.2422 -1.5625 -36.75 -3.38574 -55.5264
c-1.2666 0.530273 -2.52344 1.06152 -3.76953 1.59277c0.813477 -5.31641 1.55859 -10.6582 2.2373 -16.0264c-0.678711 -5.88965 -1.42383 -11.8057 -2.2373 -17.7471c1.33984 0.571289 2.69141 1.1416 4.05469 1.71191c1.83496 -18.251 2.90527 -36.7969 3.21191 -55.6357
zM346.928 200.734c1.50293 -21.9082 2.25488 -44.2402 2.25488 -66.9951c0 -11.2705 -0.18457 -22.6445 -0.553711 -34.123c-21.6064 36.6221 -41.2158 71.416 -58.8291 104.384c-31.2002 58.4004 -56.9336 107.334 -77.2002 146.8
c17.0664 33.6006 41.6006 80.1338 73.6006 139.601c10.4365 19.3936 21.582 39.5391 33.4355 60.4365c8.43848 2.0625 17.1152 4.11719 26.0303 6.16602c2.34375 -27.0947 3.5166 -54.8486 3.5166 -83.2637c0 -23.7188 -0.816406 -47.8975 -2.4502 -72.5361
c-0.864258 0.530273 -1.72266 1.06152 -2.57324 1.59277c0.554688 -5.31641 1.06445 -10.6582 1.52734 -16.0264c-0.462891 -5.88965 -0.972656 -11.8057 -1.52734 -17.7471c0.915039 0.571289 1.83789 1.1416 2.76855 1.71191
c1.50293 -21.9082 2.25488 -44.2402 2.25488 -66.9951c0 -23.7188 -0.816406 -47.8975 -2.4502 -72.5361c-0.864258 0.530273 -1.72266 1.06152 -2.57324 1.59277c0.554688 -5.31641 1.06445 -10.6582 1.52734 -16.0264
c-0.462891 -5.88965 -0.972656 -11.8057 -1.52734 -17.7471c0.915039 0.571289 1.83789 1.1416 2.76855 1.71191zM636.372 315.099c-32.4043 2.07812 -62.4092 5.83887 -90.0137 11.2822c-44.6543 8.80469 -83.7266 20.126 -117.217 33.9619
c-20.3525 8.40918 -38.7979 16.9336 -55.3369 25.5742c16.4971 8.63477 34.873 17.1543 55.1279 25.5586c33.3506 13.8359 72.3535 25.1572 117.007 33.9619c27.6465 5.4502 57.7539 9.21484 90.3213 11.292c-0.433594 -18.2422 -1.5625 -36.75 -3.38574 -55.5264
c-1.2666 0.530273 -2.52344 1.06152 -3.76953 1.59277c0.813477 -5.31641 1.55859 -10.6582 2.2373 -16.0264c-0.678711 -5.88965 -1.42383 -11.8057 -2.2373 -17.7471c1.33984 0.571289 2.69141 1.1416 4.05469 1.71191c1.83496 -18.251 2.90527 -36.7969 3.21191 -55.6357
z" />
</svg>
