<?xml version="1.0" standalone="no"?>
<!DOCTYPE svg PUBLIC "-//W3C//DTD SVG 1.1//EN" "http://www.w3.org/Graphics/SVG/1.1/DTD/svg11.dtd" >
<svg xmlns="http://www.w3.org/2000/svg" xmlns:xlink="http://www.w3.org/1999/xlink" version="1.1" viewBox="0 0 1599 743">
   <path fill="currentColor"
d="M1588.89 380.559c-71.2344 0 -134.649 9.52148 -190.248 28.5605c-55.5977 19.04 -104.245 43.5205 -145.942 73.4395c-41.6982 29.9209 -76.9688 60.5225 -105.81 91.8008c4.16992 -69.3613 6.25488 -140.761 6.25488 -214.2
c0 -70.4512 -1.91895 -142.78 -5.75586 -216.985c-83.1074 0.0595703 -157.141 4.46289 -222.104 13.207c-65.4082 8.80469 -122.641 20.126 -171.697 33.9619c-29.8125 8.40918 -56.8311 16.9336 -81.0576 25.5742c24.165 8.63477 51.082 17.1543 80.751 25.5586
c48.8525 13.8359 105.982 25.1572 171.391 33.9619c65.4092 8.80371 140.221 13.208 224.435 13.208v24.5273c-83.8057 0 -158.411 4.40332 -223.821 13.208c-65.4082 8.80469 -122.641 20.126 -171.697 33.9619c-29.8125 8.40918 -56.8311 16.9336 -81.0576 25.5742
c24.165 8.63477 51.082 17.1543 80.751 25.5586c48.8525 13.8359 105.982 25.1572 171.391 33.9619c65.4092 8.80371 140.221 13.208 224.435 13.208v24.5273c-83.8057 0 -158.411 4.40332 -223.821 13.208c-65.4082 8.80469 -122.641 20.126 -171.697 33.9619
c-49.0566 13.8369 -90.5508 27.9883 -124.481 42.4531c3.78027 -24.7188 6.10449 -49.998 6.97168 -75.8359c-63.6357 8.71973 -119.448 19.8486 -167.437 33.3828c-37.2773 10.5146 -70.1875 21.21 -98.7305 32.0879c29.3955 6.41309 61.1572 12.7607 95.2871 19.0449
c75.1572 13.8359 163.05 25.1572 263.679 33.9619c100.629 8.80371 215.724 13.208 345.283 13.208v24.5273c-128.932 0 -243.71 4.40332 -344.34 13.208c-100.629 8.80469 -188.679 20.126 -264.15 33.9619c-75.4717 13.8369 -139.309 27.9883 -191.51 42.4531
c7.54688 -32.0762 11.3213 -65.0947 11.3213 -99.0566c0 -17.502 -1.00293 -35.2559 -3.00684 -53.2598c-35.3613 -38.7461 -66.6533 -73.5723 -93.874 -104.479c-51.1992 -58.1338 -94.3994 -103.2 -129.6 -135.2c32.5332 -32.5332 65.0664 -66.3994 97.5996 -101.6
c32.5342 -35.2002 67.334 -73.334 104.4 -114.4c26.0996 -28.916 54.3818 -59.8164 84.8447 -92.7002c-0.525391 -4.34473 -1.08691 -8.7041 -1.68555 -13.0771c3.25293 1.38672 6.57422 2.77051 9.96387 4.15137c10.1875 -10.9756 20.6133 -22.167 31.2773 -33.5742
l16.7998 12c-6.83887 10.9248 -13.5244 21.71 -20.0566 32.3555c25.5459 9.30664 54.2764 18.4805 86.1904 27.5205c47.8936 13.5645 103.744 24.7119 167.55 33.4404c-0.990234 -24.8096 -3.25 -50.1074 -6.77832 -75.8936
c33.9307 14.4639 75.3223 28.6152 124.175 42.4531c48.8525 13.8359 105.982 25.1572 171.391 33.9619c65.4092 8.80371 140.221 13.208 224.435 13.208v17.4639c28.4209 30.4453 62.8643 60.251 103.332 89.4111c41.5244 29.9189 90.085 54.3994 145.683 73.4395
c55.5967 19.0371 119.187 28.5605 190.769 28.5605v53.0381zM636.077 156.96c-63.6357 8.71973 -119.448 19.8486 -167.437 33.3828c-29.8125 8.40918 -56.8311 16.9336 -81.0576 25.5742c24.165 8.63477 51.082 17.1543 80.751 25.5586
c47.8936 13.5645 103.744 24.7119 167.55 33.4404c-0.575195 -14.4062 -1.57812 -28.9775 -3.00879 -43.7129c-1.2666 0.530273 -2.52344 1.06152 -3.76953 1.59277c0.813477 -5.31641 1.55859 -10.6582 2.2373 -16.0264
c-0.678711 -5.88965 -1.42383 -11.8057 -2.2373 -17.7471c1.33984 0.571289 2.69141 1.1416 4.05469 1.71191c1.44824 -14.4082 2.4209 -29 2.91699 -43.7744zM348.214 200.734c2.20215 -21.9082 3.30371 -44.2402 3.30371 -66.9951
c0 -12.332 -0.323242 -24.7891 -0.970703 -37.3691c-22.3652 37.8125 -42.6143 73.6895 -60.7471 107.63c-31.2002 58.4004 -56.9336 107.334 -77.2002 146.8c17.0664 33.6006 41.6006 80.1338 73.6006 139.601c10.4365 19.3936 21.582 39.5391 33.4355 60.4365
c8.65234 2.11426 17.5566 4.22168 26.7109 6.32227c3.44727 -27.1436 5.1709 -54.9502 5.1709 -83.4199c0 -23.7188 -1.19629 -47.8975 -3.58887 -72.5361c-1.2666 0.530273 -2.52344 1.06152 -3.76953 1.59277c0.813477 -5.31641 1.55859 -10.6582 2.2373 -16.0264
c-0.678711 -5.88965 -1.42383 -11.8057 -2.2373 -17.7471c1.33984 0.571289 2.69141 1.1416 4.05469 1.71191c2.20215 -21.9082 3.30371 -44.2402 3.30371 -66.9951c0 -23.7188 -1.19629 -47.8975 -3.58887 -72.5361c-1.2666 0.530273 -2.52344 1.06152 -3.76953 1.59277
c0.813477 -5.31641 1.55859 -10.6582 2.2373 -16.0264c-0.678711 -5.88965 -1.42383 -11.8057 -2.2373 -17.7471c1.33984 0.571289 2.69141 1.1416 4.05469 1.71191zM636.077 326.96c-63.6357 8.71973 -119.448 19.8486 -167.437 33.3828
c-29.8125 8.40918 -56.8311 16.9336 -81.0576 25.5742c24.165 8.63477 51.082 17.1543 80.751 25.5586c47.8936 13.5645 103.744 24.7119 167.55 33.4404c-0.575195 -14.4062 -1.57812 -28.9775 -3.00879 -43.7129c-1.2666 0.530273 -2.52344 1.06152 -3.76953 1.59277
c0.813477 -5.31641 1.55859 -10.6582 2.2373 -16.0264c-0.678711 -5.88965 -1.42383 -11.8057 -2.2373 -17.7471c1.33984 0.571289 2.69141 1.1416 4.05469 1.71191c1.44824 -14.4082 2.4209 -29 2.91699 -43.7744z" />
</svg>
