<?xml version="1.0" standalone="no"?>
<!DOCTYPE svg PUBLIC "-//W3C//DTD SVG 1.1//EN" "http://www.w3.org/Graphics/SVG/1.1/DTD/svg11.dtd" >
<svg xmlns="http://www.w3.org/2000/svg" xmlns:xlink="http://www.w3.org/1999/xlink" version="1.1" viewBox="0 0 1790 888">
   <path fill="currentColor"
d="M66.2695 489.013c-0.0888672 -0.663086 -0.178711 -1.32617 -0.269531 -1.99023c0.176758 0.0751953 0.354492 0.151367 0.532227 0.226562c4.55078 -30.9619 6.82617 -62.7988 6.82617 -95.5098c0 -32.834 -2.29297 -66.5508 -6.87793 -101.148l-0.480469 0.205078
c0.0908203 -0.59375 0.180664 -1.18848 0.269531 -1.7832c-0.0888672 -0.663086 -0.178711 -1.32617 -0.269531 -1.99023c0.176758 0.0751953 0.354492 0.151367 0.532227 0.226562c4.55078 -30.9619 6.82617 -62.7988 6.82617 -95.5098
c0 -33.9619 -2.45312 -68.8682 -7.3584 -104.717c33.9307 14.4639 75.3223 28.6152 124.175 42.4531c48.8525 13.8359 105.982 25.1572 171.391 33.9619c49.2617 6.63086 103.857 10.7656 163.785 12.4033c-12.9092 -68.6777 -26.0908 -127.292 -39.5439 -175.841
c32.0762 7.54688 65.0947 11.3213 99.0566 11.3213s68.8682 -3.77441 104.717 -11.3213c-14.4639 52.2012 -28.6152 115.88 -42.4531 191.038c-13.8359 75.1572 -25.1572 163.05 -33.9619 263.679c-7.80762 89.2412 -12.1553 189.86 -13.0391 301.855
c10.9678 2.6416 23.1309 5.72461 37.4795 9.90527c0 0 67.3711 0.991211 167.737 2.49219c-0.654297 -116.39 -5.0293 -220.825 -13.1211 -313.31c-8.80469 -100.629 -20.126 -188.679 -33.9619 -264.15c-13.8369 -75.4717 -27.9883 -139.309 -42.4531 -191.51
c32.0762 7.54688 65.0947 11.3213 99.0566 11.3213s68.8682 -3.77441 104.717 -11.3213c-14.4639 52.2012 -28.6152 115.88 -42.4531 191.038c-13.8359 75.1572 -25.1572 163.05 -33.9619 263.679c-8.10254 92.6201 -12.4795 197.494 -13.124 314.623
c60.6182 0.908203 131.237 1.97168 205.32 3.09961c-0.586914 -117.785 -4.96777 -223.377 -13.1396 -316.779c-8.80469 -100.629 -20.126 -188.679 -33.9619 -264.15c-13.8369 -75.4717 -27.9883 -139.309 -42.4531 -191.51
c32.0762 7.54688 65.0947 11.3213 99.0566 11.3213s68.8682 -3.77441 104.717 -11.3213c-14.4639 52.2012 -28.6152 115.88 -42.4531 191.038c-13.8359 75.1572 -25.1572 163.05 -33.9619 263.679c-8.18262 93.5352 -12.5654 199.568 -13.1426 318.099
c261.092 3.98438 555.638 8.625 605.381 10.0225c-0.197266 -64.1094 -1.50488 -124.648 -3.92188 -181.62c-77.9277 0.481445 -147.694 4.87012 -209.303 13.1631c-65.4082 8.80469 -122.641 20.126 -171.697 33.9619c-49.0566 13.8369 -90.5508 27.9883 -124.481 42.4531
c4.90527 -32.0762 7.3584 -65.0947 7.3584 -99.0566c0 -32.834 -2.29297 -66.5508 -6.87793 -101.148l-0.480469 0.205078c0.0908203 -0.59375 0.180664 -1.18848 0.269531 -1.7832c-0.0888672 -0.663086 -0.178711 -1.32617 -0.269531 -1.99023
c0.176758 0.0751953 0.354492 0.151367 0.532227 0.226562c4.55078 -30.9619 6.82617 -62.7988 6.82617 -95.5098c0 -32.834 -2.29297 -66.5508 -6.87793 -101.148l-0.480469 0.205078c0.0908203 -0.59375 0.180664 -1.18848 0.269531 -1.7832
c-0.0888672 -0.663086 -0.178711 -1.32617 -0.269531 -1.99023c0.176758 0.0751953 0.354492 0.151367 0.532227 0.226562c4.55078 -30.9619 6.82617 -62.7988 6.82617 -95.5098c0 -33.9619 -2.45312 -68.8682 -7.3584 -104.717
c33.9307 14.4639 75.3223 28.6152 124.175 42.4531c48.8525 13.8359 105.982 25.1572 171.391 33.9619c49.2617 6.63086 103.857 10.7656 163.785 12.4033c-12.9092 -68.6777 -26.0908 -127.292 -39.5439 -175.841c32.0762 7.54688 65.0947 11.3213 99.0566 11.3213
s68.8682 -3.77441 104.717 -11.3213c-14.4639 52.2012 -28.6152 115.88 -42.4531 191.038c-13.8359 75.1572 -25.1572 163.05 -33.9619 263.679c-8.80371 100.629 -13.208 215.724 -13.208 345.283h-10.4355c-2.45898 3.75 -6.95801 7.39648 -13.3262 10.2314
c-9.42969 4.19824 -1045 7.70996 -1045 7.70996l-41.3154 10.0273c-100.174 24.3145 -165.504 43.0791 -187.049 53.7275c-17.2617 8.53125 -31.6641 8.73926 -37.5225 0.542969c-2.37695 -3.32617 -4.3584 -7.23145 -4.3584 -8.5918
c0 -4.19922 6.25977 -14.1348 15.8896 -25.2197c10.9482 -12.6045 19.418 -33.2578 25.5732 -62.3584c4.27441 -20.209 8.36914 -22.3535 3.64355 -68.3604c-0.911133 -8.86816 -4.97656 -59.4033 -3.64941 -59.4033c1.32227 0 10.0449 5.70312 19.3838 12.6738
c30.166 22.5166 55.7471 37.5723 94.7979 55.7939c27.9834 13.0566 47.3574 18.6914 68.6221 23.875c-0.475586 -52.2744 -1.71777 -102.085 -3.72656 -149.431c-77.9277 0.481445 -147.694 4.87012 -209.303 13.1631c-65.4082 8.80469 -122.641 20.126 -171.697 33.9619
c-49.0566 13.8369 -90.5508 27.9883 -124.481 42.4531c4.90527 -32.0762 7.3584 -65.0947 7.3584 -99.0566c0 -32.834 -2.29297 -66.5508 -6.87793 -101.148l-0.480469 0.205078c0.0908203 -0.59375 0.180664 -1.18848 0.269531 -1.7832zM70.4727 488.909
c33.0752 13.8086 72.9756 27.3311 119.702 40.5664c48.8525 13.8359 105.982 25.1572 171.391 33.9619c61.3311 8.25488 130.928 12.6416 208.791 13.1562c-2.0752 -42.3574 -4.78711 -82.668 -8.13477 -120.934c-1.62109 -18.5293 -3.32812 -36.6318 -5.12012 -54.3086
c-72.1553 0.90625 -137.128 5.25 -194.923 13.0293c-65.4082 8.80469 -122.641 20.126 -171.697 33.9619c-46.9219 13.2344 -86.9248 26.7568 -120.009 40.5664zM70.4727 288.909c33.0752 13.8086 72.9756 27.3311 119.702 40.5664
c48.8525 13.8359 105.982 25.1572 171.391 33.9619c57.1338 7.68945 121.441 12.0234 192.924 12.9961c-6.94727 -64.0586 -15.0684 -122.25 -24.3623 -174.574c-61.4648 1.5498 -117.447 5.72363 -167.948 12.5215c-65.4082 8.80469 -122.641 20.126 -171.697 33.9619
c-46.9219 13.2344 -86.9248 26.7568 -120.009 40.5664zM1620.13 201.859c-61.4648 1.5498 -117.447 5.72363 -167.948 12.5215c-65.4082 8.80469 -122.641 20.126 -171.697 33.9619c-46.9219 13.2344 -86.9248 26.7568 -120.009 40.5664
c33.0752 13.8086 72.9756 27.3311 119.702 40.5664c48.8525 13.8359 105.982 25.1572 171.391 33.9619c57.1338 7.68945 121.441 12.0234 192.924 12.9961c-6.94727 -64.0586 -15.0684 -122.25 -24.3623 -174.574zM1647.1 401.352
c-72.1553 0.90625 -137.128 5.25 -194.923 13.0293c-65.4082 8.80469 -122.641 20.126 -171.697 33.9619c-46.9219 13.2344 -86.9248 26.7568 -120.009 40.5664c33.0752 13.8086 72.9756 27.3311 119.702 40.5664c48.8525 13.8359 105.982 25.1572 171.391 33.9619
c61.3311 8.25488 130.928 12.6416 208.791 13.1562c-2.0752 -42.3574 -4.78711 -82.668 -8.13477 -120.934c-1.62109 -18.5293 -3.32812 -36.6318 -5.12012 -54.3086z" />
</svg>
