<?xml version="1.0" standalone="no"?>
<!DOCTYPE svg PUBLIC "-//W3C//DTD SVG 1.1//EN" "http://www.w3.org/Graphics/SVG/1.1/DTD/svg11.dtd" >
<svg xmlns="http://www.w3.org/2000/svg" xmlns:xlink="http://www.w3.org/1999/xlink" version="1.1" viewBox="0 0 1601 803">
   <path fill="currentColor"
d="M1476.43 803c0 -83.8057 -4.40332 -158.411 -13.208 -223.821c-8.80469 -65.4082 -20.126 -122.641 -33.9619 -171.697c-13.8369 -49.0566 -27.9883 -90.5508 -42.4531 -124.481c28.3838 4.34082 57.5049 6.76074 87.3652 7.26074
c-2.13574 -30.5146 -5.78516 -58.8682 -10.9502 -85.0615c-8.80469 -44.6543 -20.126 -83.7266 -33.9619 -117.217c-13.8369 -33.4902 -27.9883 -61.8184 -42.4531 -84.9824c32.0762 3.34863 65.0947 5.02344 99.0566 5.02344s68.8682 -1.6748 104.717 -5.02344
c-14.4639 23.1641 -28.6152 51.4219 -42.4531 84.7734c-13.8359 33.3506 -25.1572 72.3535 -33.9619 117.007c-5.17285 26.2393 -8.82715 54.6953 -10.9609 85.3672c28.4746 -0.69043 57.5996 -3.07324 87.376 -7.14746c-14.4639 33.9307 -28.6152 75.3223 -42.4531 124.175
c-13.8359 48.8525 -25.1572 105.982 -33.9619 171.391c-8.80371 65.4092 -13.208 140.221 -13.208 224.435h-24.5273zM1362.61 331.329c-40.4561 -40.457 -79.585 -73.3574 -117.386 -98.707s-73.4346 -44.9727 -106.899 -58.8701
c-33.4658 -13.8975 -63.5029 -23.9219 -90.1104 -30.0732c25.0488 -20.3135 49.5811 -42.4766 73.5957 -66.4912s47.5127 -49.8818 70.4932 -77.5986c6.15234 26.6074 16.127 56.5957 29.9258 89.9629c13.7988 33.3662 33.3721 68.9512 58.7217 106.751
c25.3496 37.8008 58.3496 77.0293 99.0029 117.683zM1322.61 631.329c-40.4561 -40.457 -79.585 -73.3574 -117.386 -98.707s-73.4346 -44.9727 -106.899 -58.8701c-33.4658 -13.8975 -63.5029 -23.9219 -90.1104 -30.0732
c24.0938 -19.5391 47.709 -40.7891 70.8457 -63.752c-22.5029 -19.4551 -44.5713 -36.4365 -66.2061 -50.9443c-37.8008 -25.3496 -73.4346 -44.9727 -106.899 -58.8701c-33.4658 -13.8965 -63.5029 -23.9209 -90.1104 -30.0723
c25.0488 -20.3135 49.5811 -42.4775 73.5957 -66.4922s47.5127 -49.8809 70.4941 -77.5977c6.15137 26.6064 16.126 56.5947 29.9248 89.9629c13.7988 33.3652 33.373 68.9502 58.7217 106.751c14.5039 21.6289 31.5137 43.7246 51.0273 66.2871
c17.8574 -18.7412 35.4229 -38.5293 52.6953 -59.3623c6.15234 26.6074 16.127 56.5957 29.9258 89.9629c13.7988 33.3662 33.3721 68.9512 58.7217 106.751c25.3496 37.8008 58.3496 77.0293 99.0029 117.683zM804.976 752.959
c-40.4561 -40.4561 -79.585 -73.3574 -117.386 -98.707c-37.8018 -25.3496 -73.4355 -44.9727 -106.899 -58.8701c-19.5928 -8.13672 -38.0098 -14.9453 -55.252 -20.4268c-60.0186 1.62207 -114.771 5.76465 -164.26 12.4258
c-65.4082 8.80469 -122.641 20.126 -171.697 33.9619c-49.0566 13.8369 -90.5508 27.9883 -124.481 42.4531c4.90527 -32.0762 7.3584 -65.0947 7.3584 -99.0566s-2.45312 -68.8682 -7.3584 -104.717c33.9307 14.4639 75.3223 28.6152 124.175 42.4531
c48.8525 13.8359 105.982 25.1572 171.391 33.9619c45.5195 6.12695 95.5938 10.123 150.221 11.9863c18.0723 -15.5508 35.8682 -32.0859 53.3887 -49.6064c24.0146 -24.0146 47.5137 -49.8818 70.4941 -77.5977c6.15234 26.6064 16.127 56.5947 29.9248 89.9619
c13.7988 33.3662 33.373 68.9512 58.7217 106.752c25.3506 37.7998 58.3506 77.0283 99.0039 117.682zM967.609 590.324c-40.4561 -40.457 -79.585 -73.3574 -117.386 -98.707c-37.8018 -25.3496 -73.4346 -44.9727 -106.899 -58.8701
c-33.4658 -13.8975 -63.5029 -23.9219 -90.1104 -30.0732c22.124 -17.9424 43.8457 -37.3271 65.1641 -58.1562c-22.4824 -19.4326 -44.5303 -36.3965 -66.1445 -50.8906c-37.8008 -25.3496 -73.4346 -44.9727 -106.899 -58.8701
c-33.4658 -13.8965 -63.5029 -23.9209 -90.1104 -30.0723c25.0488 -20.3135 49.5811 -42.4775 73.5957 -66.4922s47.5127 -49.8809 70.4941 -77.5977c6.15137 26.6074 16.126 56.5947 29.9248 89.9629c13.7988 33.3662 33.373 68.9502 58.7217 106.751
c14.5273 21.6631 31.5674 43.7949 51.1211 66.3955c19.7627 -20.4346 39.1699 -42.1416 58.2217 -65.1201c6.15234 26.6074 16.127 56.5947 29.9258 89.9629c13.7988 33.3662 33.3721 68.9512 58.7207 106.751c25.3506 37.8008 58.3506 77.0293 99.0039 117.683z
M585 344.173c-83.8057 0 -158.411 4.40332 -223.821 13.208c-65.4082 8.80469 -122.641 20.126 -171.697 33.9619c-49.0566 13.8369 -90.5508 27.9883 -124.481 42.4531c4.90527 -32.0762 7.3584 -65.0947 7.3584 -99.0566s-2.45312 -68.8682 -7.3584 -104.717
c33.9307 14.4639 75.3223 28.6152 124.175 42.4531c48.8525 13.8359 105.982 25.1572 171.391 33.9619c65.4092 8.80371 140.221 13.208 224.435 13.208v24.5273z" />
</svg>
