<?xml version="1.0" standalone="no"?>
<!DOCTYPE svg PUBLIC "-//W3C//DTD SVG 1.1//EN" "http://www.w3.org/Graphics/SVG/1.1/DTD/svg11.dtd" >
<svg xmlns="http://www.w3.org/2000/svg" xmlns:xlink="http://www.w3.org/1999/xlink" version="1.1" viewBox="0 0 1768 870">
   <path fill="currentColor"
d="M1643.38 800c0 -128.932 -4.40332 -243.71 -13.208 -344.34c-8.80469 -100.629 -20.126 -188.679 -33.9619 -264.15c-13.8369 -75.4717 -27.9883 -139.309 -42.4531 -191.51c32.0762 7.54688 65.0947 11.3213 99.0566 11.3213s68.8682 -3.77441 104.717 -11.3213
c-14.4639 52.2012 -28.6152 115.88 -42.4531 191.038c-13.8359 75.1572 -25.1572 163.05 -33.9619 263.679c-8.80371 100.629 -13.208 215.724 -13.208 345.283h-24.5273zM960 171.173c-106.368 0 -201.061 4.40332 -284.08 13.208s-155.66 20.126 -217.925 33.9619
c-62.2637 13.8369 -114.929 27.9883 -157.995 42.4531c6.22656 -32.0762 9.33984 -65.0947 9.33984 -99.0566s-3.11328 -68.8682 -9.33984 -104.717c43.0664 14.4639 95.6006 28.6152 157.606 42.4531c62.0049 13.8359 134.516 25.1572 217.535 33.9619
c83.0186 8.80371 177.972 13.208 284.858 13.208v24.5273zM1265.56 807.329c-40.4561 -40.457 -79.585 -73.3574 -117.386 -98.707c-2.73633 -1.83496 -5.46094 -3.63965 -8.1748 -5.41504v17.9658c-57.375 0 -112.675 0.478516 -165.897 1.43555
c-3.46582 45.4297 -5.19922 94.5605 -5.19922 147.392h-24.5273c0 -52.5078 -1.72852 -101.403 -5.18555 -146.688c-69.0684 1.54199 -134.517 3.91797 -196.347 7.12793c-2.62695 40.3828 -3.94043 83.5693 -3.94043 129.561h-24.5273
c0 -45.2812 -1.28516 -87.877 -3.85645 -127.788c-11.9326 0.691406 -23.7256 1.41406 -35.3779 2.16895c-57.4688 3.72461 -111.897 7.89941 -163.288 12.5244c-1.9668 35.5986 -2.9502 73.2969 -2.9502 113.095h-24.5273c0 -38.7246 -0.94043 -75.4854 -2.82031 -110.281
c-58.4639 5.59668 -112.803 11.8047 -163.018 18.624c-101.887 13.8369 -188.066 27.9883 -258.538 42.4531c10.1885 -32.0762 15.2842 -65.0947 15.2842 -99.0566s-5.0957 -68.8682 -15.2842 -104.717c24.999 5.13086 51.9473 10.2227 80.8457 15.2744
c2.78516 -29.4014 4.17773 -59.5879 4.17773 -90.5576c0 -33.9619 -1.6748 -68.8682 -5.02344 -104.717c23.1641 14.4639 51.4219 28.6152 84.7734 42.4531c33.3506 13.8359 72.3535 25.1572 117.007 33.9619c32.6641 6.43945 68.7627 10.5254 108.296 12.2559
c-4.0166 -17.96 -8.30664 -35.0312 -12.8701 -51.2119c-5.79102 -20.5303 -11.6367 -39.7354 -17.5371 -57.6162c-2.73535 0.489258 -5.45605 0.981445 -8.15918 1.47754c-75.4717 13.8369 -139.309 27.9883 -191.51 42.4531
c7.54688 -32.0762 11.3213 -65.0947 11.3213 -99.0566s-3.77441 -68.8682 -11.3213 -104.717c52.2012 14.4639 115.88 28.6152 191.038 42.4531c75.1572 13.8359 163.05 25.1572 263.679 33.9619c100.629 8.80371 215.724 13.208 345.283 13.208v17.7148
c12.7188 -1.13281 25.5605 -2.58594 38.5264 -4.36035c-14.4639 33.9307 -28.6152 75.3223 -42.4531 124.175c-9.38965 33.1533 -17.6211 70.1201 -24.6943 110.898c11.2363 -10.2393 22.3633 -20.8672 33.3818 -31.8857
c24.0146 -24.0146 47.5127 -49.8818 70.4932 -77.5986c6.15234 26.6074 16.127 56.5957 29.9258 89.9629c7.58984 18.3525 16.9268 37.376 28.0098 57.0703c-0.920898 -91.3018 -5.26172 -173.535 -13.0215 -246.702c-8.80469 -83.0195 -20.126 -155.66 -33.9619 -217.925
c-13.8369 -62.2637 -27.9883 -114.929 -42.4531 -157.995c32.0762 6.22656 65.0947 9.33984 99.0566 9.33984s68.8682 -3.11328 104.717 -9.33984c-14.4639 43.0664 -28.6152 95.6006 -42.4531 157.606c-13.8359 62.0049 -25.1572 134.516 -33.9619 217.535
c-8.80371 83.0186 -13.208 177.972 -13.208 284.858h-2.09863c2.62988 4.07422 5.3291 8.17578 8.09668 12.3027c25.3496 37.8008 58.3496 77.0293 99.0029 117.683zM1495.56 807.329c-40.4561 -40.457 -79.585 -73.3574 -117.386 -98.707
s-73.4346 -44.9727 -106.899 -58.8701c-33.4658 -13.8975 -63.5029 -23.9219 -90.1104 -30.0732c25.0488 -20.3135 49.5811 -42.4766 73.5957 -66.4912s47.5127 -49.8818 70.4932 -77.5986c6.15234 26.6074 16.127 56.5957 29.9258 89.9629
c7.58984 18.3525 16.9268 37.376 28.0098 57.0703c-0.920898 -91.3018 -5.26172 -173.535 -13.0215 -246.702c-8.80469 -83.0195 -20.126 -155.66 -33.9619 -217.925c-13.8369 -62.2637 -27.9883 -114.929 -42.4531 -157.995
c32.0762 6.22656 65.0947 9.33984 99.0566 9.33984s68.8682 -3.11328 104.717 -9.33984c-14.4639 43.0664 -28.6152 95.6006 -42.4531 157.606c-13.8359 62.0049 -25.1572 134.516 -33.9619 217.535c-8.80371 83.0186 -13.208 177.972 -13.208 284.858h-2.09863
c2.62988 4.07422 5.3291 8.17578 8.09668 12.3027c25.3496 37.8008 58.3496 77.0293 99.0029 117.683zM1129.8 696.641c-31.0244 -19.6357 -60.5312 -35.2646 -88.5215 -46.8887c-20.1914 -8.38477 -39.1348 -15.3604 -56.8301 -20.9248
c-0.796875 5.51758 -1.57422 11.0967 -2.33398 16.7383c-2.1543 16.0029 -4.04492 32.5693 -5.67188 49.6982c49.3154 0.866211 100.435 1.32422 153.357 1.37695zM151.158 624.084c49.9385 8.57812 105.52 17.042 166.743 25.3916
c48.4404 6.60547 100.8 12.6377 157.078 18.0967c-1.16309 -10.6895 -2.43359 -21.1543 -3.81152 -31.3936c-4.52051 -33.5791 -9.70312 -65.0039 -15.5498 -94.2734c-41.4766 1.58594 -79.2822 5.74512 -113.419 12.4756
c-44.6543 8.80469 -83.7266 20.126 -117.217 33.9619c-28.293 11.6895 -52.9014 23.6035 -73.8242 35.7412zM746.218 687.616c60.0371 3.06445 123.533 5.34961 190.491 6.85352c-1.59766 -16.6182 -3.44434 -32.7158 -5.54102 -48.291
c-8.80469 -65.4082 -20.126 -122.641 -33.9619 -171.697c-12.0332 -42.6631 -24.3047 -79.6064 -36.8135 -110.829c-14.2256 0.464844 -28.2402 0.996094 -42.0449 1.5918c-10.9404 28.6191 -21.6992 61.5967 -32.2744 98.9307
c-13.8359 48.8525 -25.1572 105.982 -33.9619 171.391c-2.25195 16.7344 -4.2168 34.085 -5.89355 52.0508zM639.568 377.698c-19.875 1.91797 -39.2275 3.94043 -58.0586 6.06738c-8.59375 24.0771 -17.0723 50.8799 -25.4365 80.4092
c-13.8359 48.8525 -25.1572 105.982 -33.9619 171.391c-1.57422 11.6943 -3.00684 23.6885 -4.2998 35.9844c49.2188 4.37207 101.237 8.33496 156.056 11.8877c10.8545 0.703125 21.833 1.37891 32.9365 2.02637c-1.61816 -16.9707 -3.49707 -33.3994 -5.63574 -49.2852
c-8.80469 -65.4082 -20.126 -122.641 -33.9619 -171.697c-9.07715 -32.1826 -18.29 -61.1104 -27.6377 -86.7832z" />
</svg>
