<?xml version="1.0" standalone="no"?>
<!DOCTYPE svg PUBLIC "-//W3C//DTD SVG 1.1//EN" "http://www.w3.org/Graphics/SVG/1.1/DTD/svg11.dtd" >
<svg xmlns="http://www.w3.org/2000/svg" xmlns:xlink="http://www.w3.org/1999/xlink" version="1.1" viewBox="0 0 1768 870">
   <path fill="currentColor"
d="M1643.38 800c0 -128.932 -4.40332 -243.71 -13.208 -344.34c-8.80469 -100.629 -20.126 -188.679 -33.9619 -264.15c-13.8369 -75.4717 -27.9883 -139.309 -42.4531 -191.51c32.0762 7.54688 65.0947 11.3213 99.0566 11.3213s68.8682 -3.77441 104.717 -11.3213
c-14.4639 52.2012 -28.6152 115.88 -42.4531 191.038c-13.8359 75.1572 -25.1572 163.05 -33.9619 263.679c-8.80371 100.629 -13.208 215.724 -13.208 345.283h-24.5273zM960 171.173c-106.368 0 -201.061 4.40332 -284.08 13.208s-155.66 20.126 -217.925 33.9619
c-62.2637 13.8369 -114.929 27.9883 -157.995 42.4531c6.22656 -32.0762 9.33984 -65.0947 9.33984 -99.0566s-3.11328 -68.8682 -9.33984 -104.717c43.0664 14.4639 95.6006 28.6152 157.606 42.4531c62.0049 13.8359 134.516 25.1572 217.535 33.9619
c83.0186 8.80371 177.972 13.208 284.858 13.208v24.5273zM1260.83 812.062c-15.6807 -13.127 -31.0801 -25.4561 -46.1992 -36.9873c-25.9883 -19.8213 -50.9951 -37.7891 -75.0205 -53.9023c-57.2354 0 -112.403 0.480469 -165.505 1.43555
c-3.46582 45.4297 -5.19922 94.5605 -5.19922 147.392h-24.5273c0 -52.5078 -1.72852 -101.403 -5.18555 -146.688c-69.0684 1.54199 -134.517 3.91797 -196.347 7.12793c-2.62695 40.3828 -3.94043 83.5693 -3.94043 129.561h-24.5273
c0 -45.2812 -1.28516 -87.877 -3.85645 -127.788c-11.9326 0.691406 -23.7256 1.41406 -35.3779 2.16895c-57.4688 3.72461 -111.897 7.89941 -163.288 12.5244c-1.9668 35.5986 -2.9502 73.2969 -2.9502 113.095h-24.5273c0 -38.7246 -0.94043 -75.4854 -2.82031 -110.281
c-58.4639 5.59668 -112.803 11.8047 -163.018 18.624c-101.887 13.8369 -188.066 27.9883 -258.538 42.4531c10.1885 -32.0762 15.2842 -65.0947 15.2842 -99.0566s-5.0957 -68.8682 -15.2842 -104.717c25.1094 5.15332 52.1865 10.2676 81.2295 15.3418
c4.08594 -29.4229 6.12891 -59.6309 6.12891 -90.625c0 -33.9619 -2.45312 -68.8682 -7.3584 -104.717c33.9307 14.4639 75.3223 28.6152 124.175 42.4531c48.8525 13.8359 105.982 25.1572 171.391 33.9619c3.98535 0.536133 8.00684 1.05664 12.0625 1.56055
c-3.29883 -14.0742 -6.77344 -27.5801 -10.4219 -40.5166c-5.79102 -20.5303 -11.6367 -39.7354 -17.5371 -57.6162c-2.73535 0.489258 -5.45605 0.981445 -8.15918 1.47754c-75.4717 13.8369 -139.309 27.9883 -191.51 42.4531
c7.54688 -32.0762 11.3213 -65.0947 11.3213 -99.0566s-3.77441 -68.8682 -11.3213 -104.717c52.2012 14.4639 115.88 28.6152 191.038 42.4531c75.1572 13.8359 163.05 25.1572 263.679 33.9619c100.629 8.80371 215.724 13.208 345.283 13.208v17.7148
c12.7188 -1.13281 25.5605 -2.58594 38.5264 -4.36035c-14.4639 33.9307 -28.6152 75.3223 -42.4531 124.175c-9.60938 33.9287 -18.0059 71.8506 -25.1885 113.765c12.0908 -10.4736 23.9326 -21.5068 35.5264 -33.1006c24.0146 -24.0146 46.9629 -50.4326 68.8428 -79.25
c13.7139 34.0928 32.8838 73.2021 57.5098 117.329c-1.48828 -79.5215 -5.68652 -151.854 -12.5957 -216.998c-8.80469 -83.0195 -20.126 -155.66 -33.9619 -217.925c-13.8369 -62.2637 -27.9883 -114.929 -42.4531 -157.995
c32.0762 6.22656 65.0947 9.33984 99.0566 9.33984s68.8682 -3.11328 104.717 -9.33984c-14.4639 43.0664 -28.6152 95.6006 -42.4531 157.606c-13.8359 62.0049 -25.1572 134.516 -33.9619 217.535c-8.12109 76.583 -12.499 163.323 -13.1289 260.218
c20.4111 32.4619 44.4883 66.8818 72.2344 103.26c11.6377 15.2568 24.0996 30.8125 37.3857 46.667c-11.8145 11.8154 -11.8145 11.8154 -26.7754 26.7764zM1490.83 812.062c-15.6807 -13.127 -31.0801 -25.4561 -46.1992 -36.9873
c-52.4756 -40.0244 -100.951 -72.4883 -145.423 -97.3936c-44.4727 -24.9043 -83.8193 -44.2383 -118.04 -58.0029c26.1494 -19.2129 51.2314 -40.8252 75.2461 -64.8398s46.9629 -50.4326 68.8428 -79.25c13.7139 34.0928 32.8838 73.2021 57.5098 117.329
c-1.48828 -79.5215 -5.68652 -151.854 -12.5957 -216.998c-8.80469 -83.0195 -20.126 -155.66 -33.9619 -217.925c-13.8369 -62.2637 -27.9883 -114.929 -42.4531 -157.995c32.0762 6.22656 65.0947 9.33984 99.0566 9.33984s68.8682 -3.11328 104.717 -9.33984
c-14.4639 43.0664 -28.6152 95.6006 -42.4531 157.606c-13.8359 62.0049 -25.1572 134.516 -33.9619 217.535c-8.12109 76.583 -12.499 163.323 -13.1289 260.218c20.4111 32.4619 44.4883 66.8818 72.2344 103.26c11.6377 15.2568 24.0996 30.8125 37.3857 46.667
c-11.8145 11.8154 -11.8145 11.8154 -26.7754 26.7764zM1101.35 696.572c-10.9385 -6.71777 -21.6533 -13.0146 -32.1465 -18.8906c-30.9746 -17.3457 -59.4619 -31.9883 -85.4629 -43.9297c-0.552734 3.90723 -1.09668 7.84473 -1.63086 11.8135
c-2.1543 16.0029 -4.04492 32.5693 -5.67188 49.6982c40.4258 0.709961 82.0635 1.14551 124.912 1.30859zM154.782 624.704c49 8.36621 103.373 16.623 163.119 24.7715c48.4404 6.60547 100.8 12.6377 157.078 18.0967
c-1.16309 -10.6895 -2.43359 -21.1543 -3.81152 -31.3936c-4.01953 -29.8633 -8.56445 -58.0225 -13.6338 -84.4775c-7.22363 0.842773 -14.3428 1.73633 -21.3555 2.67969c-65.4082 8.80469 -122.641 20.126 -171.697 33.9619
c-42.1494 11.8887 -78.7158 24.0098 -109.699 36.3613zM746.218 687.616c60.0371 3.06445 123.533 5.34961 190.491 6.85352c-1.59766 -16.6182 -3.44434 -32.7158 -5.54102 -48.291c-8.80469 -65.4082 -20.126 -122.641 -33.9619 -171.697
c-12.0332 -42.6631 -24.3047 -79.6064 -36.8135 -110.829c-14.2256 0.464844 -28.2402 0.996094 -42.0449 1.5918c-10.9404 28.6191 -21.6992 61.5967 -32.2744 98.9307c-13.8359 48.8525 -25.1572 105.982 -33.9619 171.391
c-2.25195 16.7344 -4.2168 34.085 -5.89355 52.0508zM639.568 377.698c-19.875 1.91797 -39.2275 3.94043 -58.0586 6.06738c-8.59375 24.0771 -17.0723 50.8799 -25.4365 80.4092c-13.8359 48.8525 -25.1572 105.982 -33.9619 171.391
c-1.57422 11.6943 -3.00684 23.6885 -4.2998 35.9844c49.2188 4.37207 101.237 8.33496 156.056 11.8877c10.8545 0.703125 21.833 1.37891 32.9365 2.02637c-1.61816 -16.9707 -3.49707 -33.3994 -5.63574 -49.2852c-8.80469 -65.4082 -20.126 -122.641 -33.9619 -171.697
c-9.07715 -32.1826 -18.29 -61.1104 -27.6377 -86.7832z" />
</svg>
