<?xml version="1.0" standalone="no"?>
<!DOCTYPE svg PUBLIC "-//W3C//DTD SVG 1.1//EN" "http://www.w3.org/Graphics/SVG/1.1/DTD/svg11.dtd" >
<svg xmlns="http://www.w3.org/2000/svg" xmlns:xlink="http://www.w3.org/1999/xlink" version="1.1" viewBox="0 0 1699 898">
   <path fill="currentColor"
d="M1590 809.173c-128.932 0 -243.71 4.40332 -344.34 13.208c-100.629 8.80469 -188.679 20.126 -264.15 33.9619c-75.4717 13.8369 -139.309 27.9883 -191.51 42.4531c6.82324 -28.999 10.5625 -58.7676 11.2168 -89.3076
c-105.299 1.15137 -200.484 5.44922 -285.557 12.8926c-100.629 8.80469 -188.679 20.126 -264.15 33.9619c-75.4717 13.8369 -139.309 27.9883 -191.51 42.4531c7.54688 -32.0762 11.3213 -65.0947 11.3213 -99.0566c0 -32.8662 -3.53516 -66.6162 -10.6025 -101.249
c-0.240234 0.101562 -0.479492 0.204102 -0.71875 0.305664c0.111328 -0.729492 0.22168 -1.45996 0.331055 -2.19043c-0.109375 -0.527344 -0.219727 -1.05469 -0.331055 -1.58301c0.180664 0.0498047 0.362305 0.100586 0.542969 0.150391
c4.54297 -30.9385 6.81543 -62.749 6.81543 -95.4336c0 -33.9619 -2.45312 -68.8682 -7.3584 -104.717c33.9307 14.4639 75.3223 28.6152 124.175 42.4531c48.8525 13.8359 105.982 25.1572 171.391 33.9619c48.666 6.5498 102.538 10.665 161.614 12.3428
c-0.621094 -27.7764 -2.85352 -56.1729 -6.69922 -85.1895l-0.480469 0.205078c0.0908203 -0.59375 0.180664 -1.18848 0.269531 -1.7832c-0.0888672 -0.663086 -0.178711 -1.32617 -0.269531 -1.99023c0.176758 0.0751953 0.354492 0.151367 0.532227 0.226562
c4.55078 -30.9619 6.82617 -62.7988 6.82617 -95.5098c0 -32.834 -2.29297 -66.5508 -6.87793 -101.148l-0.480469 0.205078c0.0908203 -0.59375 0.180664 -1.18848 0.269531 -1.7832c-0.0888672 -0.663086 -0.178711 -1.32617 -0.269531 -1.99023
c0.176758 0.0751953 0.354492 0.151367 0.532227 0.226562c4.55078 -30.9619 6.82617 -62.7988 6.82617 -95.5098c0 -33.9619 -2.45312 -68.8682 -7.3584 -104.717c33.9307 14.4639 75.3223 28.6152 124.175 42.4531c48.8525 13.8359 105.982 25.1572 171.391 33.9619
c51.0293 6.86816 107.782 11.0586 170.257 12.5693c-13.3965 -72.208 -27.0859 -133.544 -41.0693 -184.007c32.0762 7.54688 65.0947 11.3213 99.0566 11.3213s68.8682 -3.77441 104.717 -11.3213c-14.4639 52.2012 -28.6152 115.88 -42.4531 191.038
c-13.8359 75.1572 -25.1572 163.05 -33.9619 263.679c-7.62695 87.1729 -11.9512 185.202 -12.9717 294.087c58.7354 8.82031 123.928 16.3643 195.577 22.6338c96.5596 8.44727 206.439 12.8447 329.638 13.1865c-0.336914 -122.699 -4.7334 -232.352 -13.1865 -328.964
c-1.85352 -21.1865 -3.81934 -41.8154 -5.89551 -61.8867c-42.9131 1.47656 -81.9365 5.67969 -117.073 12.6074c-44.6543 8.80469 -83.7266 20.126 -117.217 33.9619c-33.4902 13.8369 -61.8184 27.9883 -84.9824 42.4531
c3.34863 -32.0762 5.02344 -65.0947 5.02344 -99.0566s-1.6748 -68.8682 -5.02344 -104.717c23.1641 14.4639 51.4219 28.6152 84.7734 42.4531c33.3506 13.8359 72.3535 25.1572 117.007 33.9619c34.4258 6.78711 72.668 10.96 114.725 12.5146
c-7.20703 -64.9434 -15.6406 -123.758 -25.2988 -176.442c-13.8369 -75.4717 -27.9883 -139.309 -42.4531 -191.51c32.0762 7.54688 65.0947 11.3213 99.0566 11.3213s68.8682 -3.77441 104.717 -11.3213c-14.4639 52.2012 -28.6152 115.88 -42.4531 191.038
c-13.8359 75.1572 -25.1572 163.05 -33.9619 263.679c-8.80371 100.629 -13.208 215.724 -13.208 345.283h-8.90332v9.17285zM801.064 784.331c-0.96582 -29.0889 -4.6543 -58.8584 -11.0645 -89.3086c52.2012 14.4639 115.88 28.6152 191.038 42.4531
c13.917 2.5625 28.2705 5.03809 43.0615 7.42773c-0.483398 -47.2666 -1.59668 -92.5039 -3.3418 -135.713c-80.0586 0.313477 -151.583 4.71094 -214.579 13.1904c-65.4082 8.80469 -122.641 20.126 -171.697 33.9619c-49.0566 13.8369 -90.5508 27.9883 -124.481 42.4531
c4.4082 -28.8232 6.83594 -58.4072 7.28223 -88.7529c-58.7822 1.68066 -112.483 5.79297 -161.104 12.3379c-65.4082 8.80469 -122.641 20.126 -171.697 33.9619c-46.4727 13.1084 -86.1592 26.498 -119.058 40.1699c51.1689 13.9463 113.04 27.6006 185.614 40.9629
c75.1572 13.8359 163.05 25.1572 263.679 33.9619c85.1035 7.44531 180.553 11.7441 286.348 12.8936zM514.473 496.909c33.0752 13.8086 72.9756 27.3311 119.702 40.5664c48.8525 13.8359 105.982 25.1572 171.391 33.9619
c62.7266 8.44238 134.101 12.8398 214.122 13.1855c-2.12109 -45.2998 -4.96094 -88.2871 -8.51953 -128.963c-1.37988 -15.7666 -2.82031 -31.2236 -4.32422 -46.373c-74.4541 0.743164 -141.342 5.1084 -200.665 13.0938
c-65.4082 8.80469 -122.641 20.126 -171.697 33.9619c-46.9219 13.2344 -86.9248 26.7568 -120.009 40.5664zM514.473 296.909c33.0752 13.8086 72.9756 27.3311 119.702 40.5664c48.8525 13.8359 105.982 25.1572 171.391 33.9619
c58.6787 7.89746 124.924 12.2549 198.735 13.0684c-6.79492 -64.041 -14.7451 -122.306 -23.8496 -174.797c-63.9551 1.41797 -122.045 5.6416 -174.272 12.6719c-65.4082 8.80469 -122.641 20.126 -171.697 33.9619c-46.9219 13.2344 -86.9248 26.7568 -120.009 40.5664z
" />
</svg>
