<?xml version="1.0" standalone="no"?>
<!DOCTYPE svg PUBLIC "-//W3C//DTD SVG 1.1//EN" "http://www.w3.org/Graphics/SVG/1.1/DTD/svg11.dtd" >
<svg xmlns="http://www.w3.org/2000/svg" xmlns:xlink="http://www.w3.org/1999/xlink" version="1.1" viewBox="0 0 1699 898">
   <path fill="currentColor"
d="M1509.72 671.654c-45 -48.2998 -81.9014 -88.7998 -110.701 -121.5c-22.0781 -25.0684 -41.5117 -45.8174 -58.3008 -62.2471c-34.8643 0.879883 -66.3896 4.09863 -94.5791 9.65723c-33.4912 6.60352 -62.7949 15.0947 -87.9131 25.4717
c-25.1172 10.3779 -46.3633 20.9912 -63.7363 31.8398c2.51074 -24.0566 3.76758 -48.8213 3.76758 -74.292c0 -25.4717 -1.25684 -51.6514 -3.76758 -78.5381c17.373 10.8477 38.5664 21.4619 63.5801 31.8398c25.0127 10.377 54.2646 18.8682 87.7549 25.4717
c25.7119 5.06934 54.2607 8.19336 85.6484 9.37207c16.5156 -16.6475 33.0303 -33.9053 49.5459 -51.7754c18.3008 -19.7998 37.875 -41.25 58.7256 -64.3506c20.8496 -23.0996 44.1748 -48.4492 69.9756 -76.0498l9.44922 6.75
c-24.6006 39.2998 -45.6748 75.375 -63.2256 108.226c-17.5498 32.8506 -32.0254 60.375 -43.4248 82.5742c9.60059 18.9014 23.4004 45.0762 41.4004 78.5264c18 33.4492 39.749 70.875 65.25 112.274zM1590 809.173c-128.932 0 -243.71 4.40332 -344.34 13.208
c-100.629 8.80469 -188.679 20.126 -264.15 33.9619c-75.4717 13.8369 -139.309 27.9883 -191.51 42.4531c6.82324 -28.999 10.5625 -58.7676 11.2168 -89.3076c-105.299 1.15137 -200.484 5.44922 -285.557 12.8926c-100.629 8.80469 -188.679 20.126 -264.15 33.9619
c-75.4717 13.8369 -139.309 27.9883 -191.51 42.4531c7.54688 -32.0762 11.3213 -65.0947 11.3213 -99.0566c0 -32.8662 -3.53516 -66.6162 -10.6025 -101.249c-0.240234 0.101562 -0.479492 0.204102 -0.71875 0.305664
c0.111328 -0.729492 0.22168 -1.45996 0.331055 -2.19043c-0.109375 -0.527344 -0.219727 -1.05469 -0.331055 -1.58301c0.180664 0.0498047 0.362305 0.100586 0.542969 0.150391c4.54297 -30.9385 6.81543 -62.749 6.81543 -95.4336
c0 -33.9619 -2.45312 -68.8682 -7.3584 -104.717c33.9307 14.4639 75.3223 28.6152 124.175 42.4531c48.8525 13.8359 105.982 25.1572 171.391 33.9619c48.666 6.5498 102.538 10.665 161.614 12.3428c-0.621094 -27.7764 -2.85352 -56.1729 -6.69922 -85.1895
l-0.480469 0.205078c0.0908203 -0.59375 0.180664 -1.18848 0.269531 -1.7832c-0.0888672 -0.663086 -0.178711 -1.32617 -0.269531 -1.99023c0.176758 0.0751953 0.354492 0.151367 0.532227 0.226562c4.55078 -30.9619 6.82617 -62.7988 6.82617 -95.5098
c0 -32.834 -2.29297 -66.5508 -6.87793 -101.148l-0.480469 0.205078c0.0908203 -0.59375 0.180664 -1.18848 0.269531 -1.7832c-0.0888672 -0.663086 -0.178711 -1.32617 -0.269531 -1.99023c0.176758 0.0751953 0.354492 0.151367 0.532227 0.226562
c4.55078 -30.9619 6.82617 -62.7988 6.82617 -95.5098c0 -33.9619 -2.45312 -68.8682 -7.3584 -104.717c33.9307 14.4639 75.3223 28.6152 124.175 42.4531c48.8525 13.8359 105.982 25.1572 171.391 33.9619c51.0293 6.86816 107.782 11.0586 170.257 12.5693
c-13.3965 -72.208 -27.0859 -133.544 -41.0693 -184.007c32.0762 7.54688 65.0947 11.3213 99.0566 11.3213s68.8682 -3.77441 104.717 -11.3213c-14.4639 52.2012 -28.6152 115.88 -42.4531 191.038c-13.8359 75.1572 -25.1572 163.05 -33.9619 263.679
c-7.62695 87.1729 -11.9512 185.202 -12.9717 294.087c58.7354 8.82031 123.928 16.3643 195.577 22.6338c96.5596 8.44727 206.439 12.8447 329.638 13.1865c-0.336914 -122.699 -4.7334 -232.352 -13.1865 -328.964c-8.80469 -100.629 -20.126 -188.679 -33.9619 -264.15
c-4.10742 -22.4014 -8.24219 -43.7783 -12.4043 -64.1299c-48.6729 0.964844 -92.54 5.29883 -131.603 13.001c-44.6543 8.80469 -83.7266 20.126 -117.217 33.9619c-33.4902 13.8369 -61.8184 27.9883 -84.9824 42.4531
c3.34863 -32.0762 5.02344 -65.0947 5.02344 -99.0566s-1.6748 -68.8682 -5.02344 -104.717c23.1641 14.4639 51.4219 28.6152 84.7734 42.4531c33.3506 13.8359 72.3535 25.1572 117.007 33.9619c37.6855 7.42969 79.9424 11.7266 126.771 12.8857
c-8.16113 -38.0049 -16.4277 -72.1123 -24.7988 -102.323c32.0762 7.54688 65.0947 11.3213 99.0566 11.3213s68.8682 -3.77441 104.717 -11.3213c-14.4639 52.2012 -28.6152 115.88 -42.4531 191.038c-13.8359 75.1572 -25.1572 163.05 -33.9619 263.679
c-8.80371 100.629 -13.208 215.724 -13.208 345.283h-8.90332v9.17285zM801.064 784.331c-0.96582 -29.0889 -4.6543 -58.8584 -11.0645 -89.3086c52.2012 14.4639 115.88 28.6152 191.038 42.4531c13.917 2.5625 28.2705 5.03809 43.0615 7.42773
c-0.483398 -47.2666 -1.59668 -92.5039 -3.3418 -135.713c-80.0586 0.313477 -151.583 4.71094 -214.579 13.1904c-65.4082 8.80469 -122.641 20.126 -171.697 33.9619c-49.0566 13.8369 -90.5508 27.9883 -124.481 42.4531
c4.4082 -28.8232 6.83594 -58.4072 7.28223 -88.7529c-58.7822 1.68066 -112.483 5.79297 -161.104 12.3379c-65.4082 8.80469 -122.641 20.126 -171.697 33.9619c-46.4727 13.1084 -86.1592 26.498 -119.058 40.1699c51.1689 13.9463 113.04 27.6006 185.614 40.9629
c75.1572 13.8359 163.05 25.1572 263.679 33.9619c85.1035 7.44531 180.553 11.7441 286.348 12.8936zM514.473 496.909c33.0752 13.8086 72.9756 27.3311 119.702 40.5664c48.8525 13.8359 105.982 25.1572 171.391 33.9619
c62.7266 8.44238 134.101 12.8398 214.122 13.1855c-2.12109 -45.2998 -4.96094 -88.2871 -8.51953 -128.963c-1.37988 -15.7666 -2.82031 -31.2236 -4.32422 -46.373c-74.4541 0.743164 -141.342 5.1084 -200.665 13.0938
c-65.4082 8.80469 -122.641 20.126 -171.697 33.9619c-46.9219 13.2344 -86.9248 26.7568 -120.009 40.5664zM514.473 296.909c33.0752 13.8086 72.9756 27.3311 119.702 40.5664c48.8525 13.8359 105.982 25.1572 171.391 33.9619
c58.6787 7.89746 124.924 12.2549 198.735 13.0684c-6.79492 -64.041 -14.7451 -122.306 -23.8496 -174.797c-63.9551 1.41797 -122.045 5.6416 -174.272 12.6719c-65.4082 8.80469 -122.641 20.126 -171.697 33.9619c-46.9219 13.2344 -86.9248 26.7568 -120.009 40.5664z
" />
</svg>
