<?xml version="1.0" standalone="no"?>
<!DOCTYPE svg PUBLIC "-//W3C//DTD SVG 1.1//EN" "http://www.w3.org/Graphics/SVG/1.1/DTD/svg11.dtd" >
<svg xmlns="http://www.w3.org/2000/svg" xmlns:xlink="http://www.w3.org/1999/xlink" version="1.1" viewBox="0 0 1699 898">
   <path fill="currentColor"
d="M1509.72 671.654c-45 -48.2998 -81.9014 -88.7998 -110.701 -121.5c-19.4316 -22.0635 -36.8154 -40.7822 -52.1504 -56.1533c-10.3574 1.05566 -20.4395 2.24414 -30.2451 3.56348c-49.0566 6.60352 -91.9805 15.0947 -128.773 25.4717
c-36.792 10.3779 -67.9131 20.9912 -93.3604 31.8398c3.67871 -24.0566 5.51855 -48.8213 5.51855 -74.292c0 -25.4717 -1.83984 -51.6514 -5.51855 -78.5381c25.4473 10.8477 56.4912 21.4619 93.1309 31.8398c36.6396 10.377 79.4863 18.8682 128.543 25.4717
c7.15527 0.962891 14.4609 1.85645 21.917 2.67871c14.3125 -14.5684 28.626 -29.5957 42.9385 -45.082c18.3008 -19.7998 37.875 -41.25 58.7256 -64.3506c20.8496 -23.0996 44.1748 -48.4492 69.9756 -76.0498l9.44922 6.75
c-24.6006 39.2998 -45.6748 75.375 -63.2256 108.226c-17.5498 32.8506 -32.0254 60.375 -43.4248 82.5742c9.60059 18.9014 23.4004 45.0762 41.4004 78.5264c18 33.4492 39.749 70.875 65.25 112.274zM1590 809.173c-128.932 0 -243.71 4.40332 -344.34 13.208
c-100.629 8.80469 -188.679 20.126 -264.15 33.9619c-75.4717 13.8369 -139.309 27.9883 -191.51 42.4531c6.82324 -28.999 10.5625 -58.7676 11.2168 -89.3076c-105.299 1.15137 -200.484 5.44922 -285.557 12.8926c-100.629 8.80469 -188.679 20.126 -264.15 33.9619
c-75.4717 13.8369 -139.309 27.9883 -191.51 42.4531c7.54688 -32.0762 11.3213 -65.0947 11.3213 -99.0566c0 -32.8662 -3.53516 -66.6162 -10.6025 -101.249c-0.240234 0.101562 -0.479492 0.204102 -0.71875 0.305664
c0.111328 -0.729492 0.22168 -1.45996 0.331055 -2.19043c-0.109375 -0.527344 -0.219727 -1.05469 -0.331055 -1.58301c0.180664 0.0498047 0.362305 0.100586 0.542969 0.150391c4.54297 -30.9385 6.81543 -62.749 6.81543 -95.4336
c0 -33.9619 -2.45312 -68.8682 -7.3584 -104.717c33.9307 14.4639 75.3223 28.6152 124.175 42.4531c48.8525 13.8359 105.982 25.1572 171.391 33.9619c48.666 6.5498 102.538 10.665 161.614 12.3428c-0.621094 -27.7764 -2.85352 -56.1729 -6.69922 -85.1895
l-0.480469 0.205078c0.0908203 -0.59375 0.180664 -1.18848 0.269531 -1.7832c-0.0888672 -0.663086 -0.178711 -1.32617 -0.269531 -1.99023c0.176758 0.0751953 0.354492 0.151367 0.532227 0.226562c4.55078 -30.9619 6.82617 -62.7988 6.82617 -95.5098
c0 -32.834 -2.29297 -66.5508 -6.87793 -101.148l-0.480469 0.205078c0.0908203 -0.59375 0.180664 -1.18848 0.269531 -1.7832c-0.0888672 -0.663086 -0.178711 -1.32617 -0.269531 -1.99023c0.176758 0.0751953 0.354492 0.151367 0.532227 0.226562
c4.55078 -30.9619 6.82617 -62.7988 6.82617 -95.5098c0 -33.9619 -2.45312 -68.8682 -7.3584 -104.717c33.9307 14.4639 75.3223 28.6152 124.175 42.4531c48.8525 13.8359 105.982 25.1572 171.391 33.9619c51.0293 6.86816 107.782 11.0586 170.257 12.5693
c-13.3965 -72.208 -27.0859 -133.544 -41.0693 -184.007c32.0762 7.54688 65.0947 11.3213 99.0566 11.3213s68.8682 -3.77441 104.717 -11.3213c-14.4639 52.2012 -28.6152 115.88 -42.4531 191.038c-13.8359 75.1572 -25.1572 163.05 -33.9619 263.679
c-7.62695 87.1729 -11.9512 185.202 -12.9717 294.087c58.7354 8.82031 123.928 16.3643 195.577 22.6338c96.5596 8.44727 206.439 12.8447 329.638 13.1865c-0.336914 -122.699 -4.7334 -232.352 -13.1865 -328.964c-8.80469 -100.629 -20.126 -188.679 -33.9619 -264.15
c-3.54883 -19.3584 -7.11914 -37.9512 -10.709 -55.7783c-13.4561 1.38281 -26.5625 2.93262 -39.3184 4.64941c-65.4082 8.80469 -122.641 20.126 -171.697 33.9619c-49.0566 13.8369 -90.5508 27.9883 -124.481 42.4531c4.90527 -32.0762 7.3584 -65.0947 7.3584 -99.0566
s-2.45312 -68.8682 -7.3584 -104.717c33.9307 14.4639 75.3223 28.6152 124.175 42.4531c48.8525 13.8359 105.982 25.1572 171.391 33.9619c10.1123 1.36133 20.4482 2.61719 31.0098 3.76758c-7.51855 -34.3623 -15.126 -65.4307 -22.8223 -93.2051
c32.0762 7.54688 65.0947 11.3213 99.0566 11.3213s68.8682 -3.77441 104.717 -11.3213c-14.4639 52.2012 -28.6152 115.88 -42.4531 191.038c-13.8359 75.1572 -25.1572 163.05 -33.9619 263.679c-8.80371 100.629 -13.208 215.724 -13.208 345.283h-8.90332v9.17285z
M801.064 784.331c-0.96582 -29.0889 -4.6543 -58.8584 -11.0645 -89.3086c52.2012 14.4639 115.88 28.6152 191.038 42.4531c13.917 2.5625 28.2705 5.03809 43.0615 7.42773c-0.483398 -47.2666 -1.59668 -92.5039 -3.3418 -135.713
c-80.0586 0.313477 -151.583 4.71094 -214.579 13.1904c-65.4082 8.80469 -122.641 20.126 -171.697 33.9619c-49.0566 13.8369 -90.5508 27.9883 -124.481 42.4531c4.4082 -28.8232 6.83594 -58.4072 7.28223 -88.7529c-58.7822 1.68066 -112.483 5.79297 -161.104 12.3379
c-65.4082 8.80469 -122.641 20.126 -171.697 33.9619c-46.4727 13.1084 -86.1592 26.498 -119.058 40.1699c51.1689 13.9463 113.04 27.6006 185.614 40.9629c75.1572 13.8359 163.05 25.1572 263.679 33.9619c85.1035 7.44531 180.553 11.7441 286.348 12.8936z
M514.473 496.909c33.0752 13.8086 72.9756 27.3311 119.702 40.5664c48.8525 13.8359 105.982 25.1572 171.391 33.9619c62.7266 8.44238 134.101 12.8398 214.122 13.1855c-2.12109 -45.2998 -4.96094 -88.2871 -8.51953 -128.963
c-1.37988 -15.7666 -2.82031 -31.2236 -4.32422 -46.373c-74.4541 0.743164 -141.342 5.1084 -200.665 13.0938c-65.4082 8.80469 -122.641 20.126 -171.697 33.9619c-46.9219 13.2344 -86.9248 26.7568 -120.009 40.5664zM514.473 296.909
c33.0752 13.8086 72.9756 27.3311 119.702 40.5664c48.8525 13.8359 105.982 25.1572 171.391 33.9619c58.6787 7.89746 124.924 12.2549 198.735 13.0684c-6.79492 -64.041 -14.7451 -122.306 -23.8496 -174.797c-63.9551 1.41797 -122.045 5.6416 -174.272 12.6719
c-65.4082 8.80469 -122.641 20.126 -171.697 33.9619c-46.9219 13.2344 -86.9248 26.7568 -120.009 40.5664z" />
</svg>
