<?xml version="1.0" standalone="no"?>
<!DOCTYPE svg PUBLIC "-//W3C//DTD SVG 1.1//EN" "http://www.w3.org/Graphics/SVG/1.1/DTD/svg11.dtd" >
<svg xmlns="http://www.w3.org/2000/svg" xmlns:xlink="http://www.w3.org/1999/xlink" version="1.1" viewBox="0 0 1274 800">
   <path fill="currentColor"
d="M1140 701.173c-174.058 0 -329.009 4.40332 -464.858 13.208c-65.6758 4.25684 -127.383 9.10156 -185.121 14.5342c-0.745117 22.8994 -1.11719 46.5947 -1.11719 71.085h-24.5273c0 -23.5615 -0.347656 -46.3965 -1.04395 -68.5039
c-47.3984 4.71094 -92.0029 9.83594 -133.815 15.374c-0.40918 17.2734 -0.613281 34.9834 -0.613281 53.1299h-24.5273c0 -16.9229 -0.179688 -33.4707 -0.539062 -49.6436c-95.501 13.1953 -176.78 26.6758 -243.837 40.4395
c10.1885 -32.0762 15.2842 -65.0947 15.2842 -99.0566s-5.0957 -68.8682 -15.2842 -104.717c65.5596 13.4561 144.528 26.6406 236.91 39.5547c-1.64258 -17.3662 -3.55664 -34.165 -5.74219 -50.3984c-8.80469 -65.4082 -20.126 -122.641 -33.9619 -171.697
c-13.8369 -49.0566 -27.9883 -90.5508 -42.4531 -124.481c32.0762 4.90527 65.0947 7.3584 99.0566 7.3584c20.6191 0 41.5869 -0.904297 62.9023 -2.71289c-0.652344 -1.56348 -1.30566 -3.1123 -1.95898 -4.64551c6.89062 1.05371 13.8242 1.99414 20.8018 2.82129
c7.61328 -0.827148 15.2705 -1.76758 22.9717 -2.82129c-0.696289 1.63281 -1.39062 3.28223 -2.08594 4.94922c18.8145 1.60645 37.9375 2.40918 57.3691 2.40918c33.9619 0 68.8682 -2.45312 104.717 -7.3584c-14.4639 33.9307 -28.6152 75.3223 -42.4531 124.175
c-13.8359 48.8525 -25.1572 105.982 -33.9619 171.391c-3.15137 23.4121 -5.73828 48.0283 -7.7627 73.8486c56.0703 5.22656 115.91 9.90039 179.519 14.0234c135.85 8.80371 291.228 13.208 466.133 13.208v24.5273zM1149.38 800
c0 -128.932 -4.40332 -243.71 -13.208 -344.34c-0.751953 -8.59668 -1.52246 -17.1025 -2.31152 -25.5156c-42.0127 0.744141 -80.6973 2.74414 -116.055 5.99707c-0.142578 1.59473 -0.28418 3.19434 -0.424805 4.79883c-5.28223 60.377 -7.9248 129.434 -7.9248 207.17
h-14.7168c0 -77.3594 -2.6416 -146.227 -7.9248 -206.604c-0.0615234 -0.703125 -0.123047 -1.4043 -0.18457 -2.10547c-43.5957 5.02148 -82.168 11.2598 -115.719 18.7148c-37.3584 8.30273 -68.957 16.793 -94.7969 25.4727
c3.31055 -17.0557 5.1543 -34.5566 5.53125 -52.501c-18.7568 1.26953 -36.1602 3.48633 -52.2119 6.65137c-26.793 5.2832 -50.2363 12.0762 -70.3301 20.377c-20.0947 8.30273 -37.0908 16.793 -50.9893 25.4727c2.00879 -19.2461 3.01367 -39.0576 3.01367 -59.4346
s-1.00488 -41.3203 -3.01367 -62.8301c13.8984 8.67871 30.8525 17.1689 50.8633 25.4717c20.0107 8.30176 43.4121 15.0947 70.2041 20.3779c16.0732 3.16895 33.5322 5.3877 52.3779 6.65625c-0.522461 -17.1104 -2.33789 -34.6123 -5.44531 -52.5059
c25.8398 8.67871 57.3604 17.1689 94.5635 25.4717c32.6934 7.29492 70.2529 13.4258 112.684 18.3896c-4.68945 -45.4824 -10.3311 -86.2061 -16.9238 -122.169c-8.30176 -45.2832 -16.793 -83.585 -25.4717 -114.905c19.2451 4.52734 39.0566 6.79199 59.4336 6.79199
s41.3213 -2.26465 62.8301 -6.79199c-8.67773 31.3203 -17.1689 69.5273 -25.4717 114.622c-6.80566 36.9688 -12.5977 79.0723 -17.374 126.312c34.1914 3.05859 71.5254 4.95801 112.002 5.69824c-8.18945 -83.7598 -18.248 -158.171 -30.1758 -223.233
c-2.53027 -13.8008 -5.07129 -27.2119 -7.62207 -40.2354c-155.711 0.706055 -295.523 5.0752 -419.442 13.1064c-135.85 8.80469 -254.717 20.126 -356.604 33.9619c-101.887 13.8369 -188.066 27.9883 -258.538 42.4531
c10.1885 -32.0762 15.2842 -65.0947 15.2842 -99.0566s-5.0957 -68.8682 -15.2842 -104.717c70.4717 14.4639 156.438 28.6152 257.901 42.4531c101.462 13.8359 220.117 25.1572 355.966 33.9619c122.665 7.94922 261.251 12.3115 415.759 13.084
c-9.80469 -47.8594 -19.7617 -90.0332 -29.873 -126.521c32.0762 7.54688 65.0947 11.3213 99.0566 11.3213s68.8682 -3.77441 104.717 -11.3213c-14.4639 52.2012 -28.6152 115.88 -42.4531 191.038c-13.8359 75.1572 -25.1572 163.05 -33.9619 263.679
c-8.80371 100.629 -13.208 215.724 -13.208 345.283h-24.5273zM458.612 645.958c-1.97461 -24.3193 -4.45605 -47.5791 -7.44434 -69.7793c-8.80469 -65.4082 -20.126 -122.641 -33.9619 -171.697c-6.78418 -24.0527 -13.6445 -46.2871 -20.5801 -66.7041
c-6.92578 20.3438 -13.7764 42.4756 -20.5527 66.3975c-13.8359 48.8525 -25.1572 105.982 -33.9619 171.391c-2.42969 18.0518 -4.52441 36.8203 -6.28418 56.3047c38.543 5.04492 79.4707 9.74121 122.785 14.0879z" />
</svg>
