<?xml version="1.0" standalone="no"?>
<!DOCTYPE svg PUBLIC "-//W3C//DTD SVG 1.1//EN" "http://www.w3.org/Graphics/SVG/1.1/DTD/svg11.dtd" >
<svg xmlns="http://www.w3.org/2000/svg" xmlns:xlink="http://www.w3.org/1999/xlink" version="1.1" viewBox="0 0 1524 800">
   <path fill="currentColor"
d="M1399.48 800c0 -128.932 -4.40332 -243.71 -13.208 -344.34c-8.80469 -100.629 -20.126 -188.679 -33.9619 -264.15c-2.39062 -13.0381 -4.79004 -25.7285 -7.19922 -38.0723c-171.463 3.64355 -1014.87 6.50391 -1014.87 6.50391l-41.3154 10.0273
c-100.174 24.3145 -165.504 43.0791 -187.049 53.7275c-17.2617 8.53125 -31.6641 8.73926 -37.5225 0.542969c-2.37695 -3.32617 -4.3584 -7.23145 -4.3584 -8.5918c0 -4.19922 6.25977 -14.1348 15.8896 -25.2197c10.9482 -12.6045 19.418 -33.2578 25.5732 -62.3584
c4.27441 -20.209 8.36914 -22.3535 3.64355 -68.3604c-0.911133 -8.86816 -4.97656 -59.4033 -3.64941 -59.4033c1.32227 0 10.0449 5.70312 19.3838 12.6738c30.166 22.5166 55.7471 37.5723 94.7979 55.7939c51.0723 23.8301 73.4678 22.9355 131.02 39.7041
c0 0 797.729 11.7402 992.568 15.5791c-9.64062 -46.8428 -19.4297 -88.1953 -29.3672 -124.057c32.0762 7.54688 65.0947 11.3213 99.0566 11.3213s68.8682 -3.77441 104.717 -11.3213c-14.4639 52.2012 -28.6152 115.88 -42.4531 191.038
c-13.8359 75.1572 -25.1572 163.05 -33.9619 263.679c-8.80371 100.629 -13.208 215.724 -13.208 345.283h-24.5273zM346.658 658.478c0 0 43.7021 0.643555 113.146 1.67773c-2.12207 -29.5 -4.96484 -57.4922 -8.53027 -83.9766
c-8.80469 -65.4082 -20.126 -122.641 -33.9619 -171.697c-6.78418 -24.0527 -13.6445 -46.2871 -20.5801 -66.7041c-6.92578 20.3438 -13.7764 42.4756 -20.5527 66.3975c-13.8359 48.8525 -25.1572 105.982 -33.9619 171.391
c-3.37402 25.0703 -6.10254 51.5215 -8.18359 79.3535c4.02148 1.0957 8.21973 2.27539 12.624 3.55859zM859.025 666.194c40.3672 0.621094 80.7773 1.24805 120.246 1.86621c-1.2959 -25.8623 -3.44531 -49.9434 -6.44727 -72.2432
c-5.2832 -39.2451 -12.0752 -73.585 -20.377 -103.019c-8.30273 -29.4336 -16.793 -54.3301 -25.4717 -74.6885c17.0293 2.60352 34.5029 4.05664 52.4189 4.35645c-1.28125 -18.3086 -3.47168 -35.3213 -6.57031 -51.0371
c-5.2832 -26.793 -12.0752 -50.2363 -20.377 -70.3301c-8.30273 -20.0947 -16.793 -37.0908 -25.4717 -50.9893c19.2451 2.00879 39.0566 3.01367 59.4336 3.01367s41.3213 -1.00488 62.8301 -3.01367c-8.67871 13.8984 -17.1689 30.8525 -25.4717 50.8633
c-8.30176 20.0107 -15.0947 43.4121 -20.377 70.2041c-3.10352 15.7441 -5.2959 32.8174 -6.57715 51.2207c17.085 -0.414062 34.5605 -1.84375 52.4258 -4.28809c-8.67871 20.3584 -17.1689 45.1934 -25.4717 74.5049c-8.30176 29.3115 -15.0947 63.5889 -20.377 102.834
c-3.02148 22.4492 -5.17969 46.7461 -6.47266 72.8877c41.7891 0.65625 82.3408 1.2998 120.461 1.91504c-1.2832 -26.6953 -3.46777 -51.5068 -6.55469 -74.4346c-5.2832 -39.2451 -12.0752 -73.585 -20.377 -103.019
c-8.30273 -29.4336 -16.793 -54.3301 -25.4717 -74.6885c17.0293 2.60352 34.5029 4.05664 52.4189 4.35645c-1.28125 -18.3086 -3.47168 -35.3213 -6.57031 -51.0371c-5.2832 -26.793 -12.0752 -50.2363 -20.377 -70.3301
c-8.30273 -20.0947 -16.793 -37.0908 -25.4717 -50.9893c19.2451 2.00879 39.0566 3.01367 59.4336 3.01367s41.3213 -1.00488 62.8301 -3.01367c-8.67871 13.8984 -17.1689 30.8525 -25.4717 50.8633c-8.30176 20.0107 -15.0947 43.4121 -20.377 70.2041
c-3.10352 15.7441 -5.2959 32.8174 -6.57715 51.2207c17.085 -0.414062 34.5605 -1.84375 52.4258 -4.28809c-8.67871 20.3584 -17.1689 45.1934 -25.4717 74.5049c-8.30176 29.3115 -15.0947 63.5889 -20.377 102.834c-3.10645 23.0771 -5.2998 48.1055 -6.5791 75.084
c52.5049 0.850586 99.8398 1.63965 138.689 2.31836c-1.26465 -27.6855 -3.49023 -53.3633 -6.67676 -77.0342c-5.2832 -39.2451 -12.0752 -73.585 -20.377 -103.019c-8.30273 -29.4336 -16.793 -54.3301 -25.4717 -74.6885
c17.0293 2.60352 34.5029 4.05664 52.4189 4.35645c-1.28125 -18.3086 -3.47168 -35.3213 -6.57031 -51.0371c-5.2832 -26.793 -12.0752 -50.2363 -20.377 -70.3301c-8.30273 -20.0947 -16.793 -37.0908 -25.4717 -50.9893c19.2451 2.00879 39.0566 3.01367 59.4336 3.01367
s41.3213 -1.00488 62.8301 -3.01367c-8.67871 13.8984 -17.1689 30.8525 -25.4717 50.8633c-8.30176 20.0107 -15.0947 43.4121 -20.377 70.2041c-3.10352 15.7441 -5.2959 32.8174 -6.57715 51.2207c17.085 -0.414062 34.5605 -1.84375 52.4258 -4.28809
c-8.67871 20.3584 -17.1689 45.1934 -25.4717 74.5049c-8.30176 29.3115 -15.0947 63.5889 -20.377 102.834c-3.20605 23.8232 -5.44043 49.7246 -6.70117 77.7061c55.9033 0.996094 90.3369 1.71387 91.0664 1.9834c6.2334 2.30078 9.1377 6.22559 9.00195 10.5703
c-0.177734 5.6875 -5.56445 12.0947 -15.5098 16.5225c-1.62305 0.722656 -33.6406 1.4248 -85.5439 2.0918c-0.15918 8.42578 -0.238281 17.0215 -0.238281 25.7871h-14.7168c0 -8.69824 -0.0791016 -17.2314 -0.237305 -25.5986
c-38.8887 0.461914 -87.0352 0.907227 -140.835 1.3291c-0.140625 7.94043 -0.210938 16.0293 -0.210938 24.2695h-14.7168c0 -8.19727 -0.0703125 -16.248 -0.210938 -24.1523c-38.7285 0.295898 -80.1113 0.579102 -122.878 0.849609
c-0.129883 7.62988 -0.194336 15.3975 -0.194336 23.3027h-14.7168c0 -7.87109 -0.0644531 -15.6074 -0.194336 -23.208c-40.2383 0.25 -81.5527 0.488281 -122.908 0.712891c-0.120117 7.37012 -0.180664 14.8682 -0.180664 22.4951h-14.7168
c0 -7.59766 -0.0605469 -15.0684 -0.180664 -22.4141c-128.4 0.688477 -255.978 1.24805 -351.705 1.63672c-1.23535 28.9033 -1.85352 59.126 -1.85352 90.667h-24.5273c0 -31.4834 -0.621094 -61.668 -1.86426 -90.5537
c-75.5625 0.299805 -125.837 0.472656 -131.781 0.493164c-1.21777 28.7197 -1.82715 58.7402 -1.82715 90.0605h-24.5273c0 -28.9023 -0.523438 -56.7109 -1.57129 -83.4248l-13.9814 3.39355c-100.174 24.3145 -165.504 43.0791 -187.049 53.7275
c-17.2617 8.53125 -31.6641 8.73926 -37.5225 0.542969c-2.37695 -3.32617 -4.3584 -7.23145 -4.3584 -8.5918c0 -4.19922 6.25977 -14.1348 15.8896 -25.2197c10.9482 -12.6045 19.418 -33.2578 25.5732 -62.3584c4.27441 -20.209 8.36914 -22.3535 3.64355 -68.3604
c-0.911133 -8.86816 -4.97656 -59.4033 -3.64941 -59.4033c1.32227 0 10.0449 5.70312 19.3838 12.6738c30.166 22.5166 55.7471 37.5723 94.7979 55.7939c34.1592 15.9385 55.4893 20.8164 83.0908 27.3164c-1.97656 -24.3672 -4.46094 -47.6709 -7.45508 -69.9111
c-8.80469 -65.4082 -20.126 -122.641 -33.9619 -171.697c-13.8369 -49.0566 -27.9883 -90.5508 -42.4531 -124.481c32.0762 4.90527 65.0947 7.3584 99.0566 7.3584c20.6191 0 41.5869 -0.904297 62.9023 -2.71289c-0.652344 -1.56348 -1.30566 -3.1123 -1.95898 -4.64551
c6.89062 1.05371 13.8242 1.99414 20.8018 2.82129c7.61328 -0.827148 15.2705 -1.76758 22.9717 -2.82129c-0.696289 1.63281 -1.39062 3.28223 -2.08594 4.94922c18.8145 1.60645 37.9375 2.40918 57.3691 2.40918c33.9619 0 68.8682 -2.45312 104.717 -7.3584
c-12.7168 29.832 -25.1914 65.4307 -37.4248 106.798c20.1475 8.51367 44.6104 16.8457 73.3877 24.9971c29.3115 8.30176 63.5898 15.0947 102.835 20.3779c24.4131 3.28613 51.0088 5.55078 79.7881 6.79297c-2.72852 -7.41309 -5.47656 -14.3652 -8.24316 -20.8555
c17.0293 2.60352 34.5029 4.05664 52.4189 4.35645c-1.28125 -18.3086 -3.47168 -35.3213 -6.57031 -51.0371c-5.2832 -26.793 -12.0752 -50.2363 -20.377 -70.3301c-8.30273 -20.0947 -16.793 -37.0908 -25.4717 -50.9893c19.2451 2.00879 39.0566 3.01367 59.4336 3.01367
s41.3213 -1.00488 62.8301 -3.01367c-8.67871 13.8984 -17.1689 30.8525 -25.4717 50.8633c-8.30176 20.0107 -15.0947 43.4121 -20.377 70.2041c-3.10352 15.7441 -5.2959 32.8174 -6.57715 51.2207c17.085 -0.414062 34.5605 -1.84375 52.4258 -4.28809
c-8.67871 20.3584 -17.1689 45.1934 -25.4717 74.5049c-8.30176 29.3115 -15.0947 63.5889 -20.377 102.834c-2.93848 21.835 -5.06055 45.417 -6.36523 70.7451zM803.09 455.716c-30.8535 1.18066 -59.2832 3.52246 -85.291 7.02246
c-39.2451 5.2832 -73.585 12.0762 -103.019 20.377c-29.4346 8.30273 -54.3311 16.793 -74.6895 25.4727c2.94336 -19.2461 4.41504 -39.0576 4.41504 -59.4346c0 -19.4502 -1.34082 -39.416 -4.02246 -59.8975c-1.4375 4.89355 -2.87207 9.86621 -4.30371 14.9189
c-13.8359 48.8525 -25.1572 105.982 -33.9619 171.391c-3.60547 26.7881 -6.47266 55.1523 -8.60254 85.0938c92.8887 1.3877 219.271 3.28809 347.547 5.25977c-1.30664 -25.0518 -3.41895 -48.418 -6.33789 -70.1016
c-0.129883 -0.966797 -0.261719 -1.93164 -0.393555 -2.89258c-43.1641 0.552734 -82.041 3.1582 -116.632 7.81348c-39.2451 5.2832 -73.585 12.0762 -103.019 20.377c-29.4346 8.30273 -54.3311 16.793 -74.6895 25.4727
c2.94336 -19.2461 4.41504 -39.0576 4.41504 -59.4346s-1.47168 -41.3203 -4.41504 -62.8301c20.3584 8.67871 45.1934 17.1689 74.5049 25.4717c29.3115 8.30176 63.5898 15.0947 102.835 20.3779c34.0352 4.58105 72.3125 7.17676 114.834 7.78516
c-4.86133 -31.8916 -10.7998 -60.2783 -17.8174 -85.1592c-3.74805 -13.2852 -7.5332 -25.6465 -11.3574 -37.083z" />
</svg>
