<?xml version="1.0" standalone="no"?>
<!DOCTYPE svg PUBLIC "-//W3C//DTD SVG 1.1//EN" "http://www.w3.org/Graphics/SVG/1.1/DTD/svg11.dtd" >
<svg xmlns="http://www.w3.org/2000/svg" xmlns:xlink="http://www.w3.org/1999/xlink" version="1.1" viewBox="0 0 706 650">
   <path fill="currentColor"
d="M677.877 649.81c-59.2588 -59.2598 -115.127 -108.9 -167.604 -148.927c-52.4766 -40.0244 -100.951 -72.4883 -145.423 -97.3936c-44.4727 -24.9043 -83.8203 -44.2383 -118.041 -58.0029c20.168 -14.8174 39.7012 -31.0625 58.5986 -48.7363
c-51.3027 -38.958 -98.7598 -70.6475 -142.367 -95.0684c-44.4727 -24.9043 -83.8193 -44.2383 -118.04 -58.0029c26.1494 -19.2129 51.2314 -40.8252 75.2461 -64.8398s46.9629 -50.4326 68.8428 -79.25c13.7656 34.2207 33.0273 73.4951 57.7861 117.824
c24.333 43.5615 56.0352 91.0576 95.1084 142.489c16.8584 -18.2568 33.1631 -37.7588 48.915 -58.5049c13.7646 34.2197 33.0264 73.4941 57.7861 117.823c24.7598 44.3271 57.1514 92.7295 97.1768 145.206c40.0264 52.4766 89.8115 108.491 149.359 168.039z" />
</svg>
