<?xml version="1.0" standalone="no"?>
<!DOCTYPE svg PUBLIC "-//W3C//DTD SVG 1.1//EN" "http://www.w3.org/Graphics/SVG/1.1/DTD/svg11.dtd" >
<svg xmlns="http://www.w3.org/2000/svg" xmlns:xlink="http://www.w3.org/1999/xlink" version="1.1" viewBox="0 0 706 650">
   <path fill="currentColor"
d="M677.877 649.81c-59.2588 -59.2598 -115.127 -108.9 -167.604 -148.927c-52.4766 -40.0244 -100.951 -72.4883 -145.423 -97.3936c-44.4727 -24.9043 -83.8203 -44.2383 -118.041 -58.0029c23.2334 -17.0693 45.623 -36.0332 67.1699 -56.8926
c-24.502 -21.5703 -48.4912 -40.2275 -71.9688 -55.9717c-37.8008 -25.3496 -73.4346 -44.9727 -106.899 -58.8701c-33.4658 -13.8975 -63.5029 -23.9219 -90.1104 -30.0732c25.0488 -20.3135 49.5811 -42.4766 73.5957 -66.4912s47.5127 -49.8818 70.4932 -77.5986
c6.15234 26.6074 16.127 56.5957 29.9258 89.9629c13.7988 33.3662 33.3721 68.9512 58.7217 106.751c15.7676 23.5127 34.4951 47.5771 56.1836 72.1934c19.7354 -20.6953 38.7285 -43.0615 56.9785 -67.0986c13.7646 34.2197 33.0264 73.4941 57.7861 117.823
c24.7598 44.3271 57.1514 92.7295 97.1768 145.206c40.0264 52.4766 89.8115 108.491 149.359 168.039z" />
</svg>
