<?xml version="1.0" standalone="no"?>
<!DOCTYPE svg PUBLIC "-//W3C//DTD SVG 1.1//EN" "http://www.w3.org/Graphics/SVG/1.1/DTD/svg11.dtd" >
<svg xmlns="http://www.w3.org/2000/svg" xmlns:xlink="http://www.w3.org/1999/xlink" version="1.1" viewBox="0 0 723 800">
   <path fill="currentColor"
d="M131.929 355c-1.80566 -20.3701 -3.97656 -39.9775 -6.51367 -58.8213c-8.80469 -65.4082 -20.126 -122.641 -33.9619 -171.697c-13.8369 -49.0566 -27.9883 -90.5508 -42.4531 -124.481c32.0762 4.90527 65.0947 7.3584 99.0566 7.3584
s68.8682 -2.45312 104.717 -7.3584c-14.4639 33.9307 -28.6152 75.3223 -42.4531 124.175c-13.8359 48.8525 -25.1572 105.982 -33.9619 171.391c-2.55957 19.0166 -4.74707 38.8281 -6.5625 59.4346h-37.8672zM361.929 355
c-1.80566 -20.3701 -3.97754 -39.9775 -6.51367 -58.8213c-8.80469 -65.4082 -20.126 -122.641 -33.9619 -171.697c-13.8369 -49.0566 -27.9883 -90.5508 -42.4531 -124.481c32.0762 4.90527 65.0947 7.3584 99.0566 7.3584s68.8682 -2.45312 104.717 -7.3584
c-14.4639 33.9307 -28.6152 75.3223 -42.4531 124.175c-13.8359 48.8525 -25.1572 105.982 -33.9619 171.391c-2.55957 19.0166 -4.74707 38.8281 -6.56348 59.4346h-37.8662zM591.929 355c-1.80566 -20.3701 -3.97754 -39.9775 -6.51367 -58.8213
c-8.80469 -65.4082 -20.126 -122.641 -33.9619 -171.697c-13.8369 -49.0566 -27.9883 -90.5508 -42.4531 -124.481c32.0762 4.90527 65.0947 7.3584 99.0566 7.3584s68.8682 -2.45312 104.717 -7.3584c-14.4639 33.9307 -28.6152 75.3223 -42.4531 124.175
c-13.8359 48.8525 -25.1572 105.982 -33.9619 171.391c-2.55957 19.0166 -4.74707 38.8281 -6.56348 59.4346h-37.8662zM362.968 800c0 -71.2344 -9.52148 -134.649 -28.5605 -190.248c-19.04 -55.5977 -43.5205 -104.245 -73.4395 -145.942
c-29.9209 -41.6982 -60.5225 -76.9688 -91.8008 -105.81c69.3613 4.16992 140.761 6.25488 214.2 6.25488s148.92 -2.08496 226.439 -6.25488c-31.2764 28.8408 -61.8779 64.0234 -91.8008 105.549c-29.9189 41.5244 -54.3994 90.085 -73.4395 145.683
c-19.0371 55.5967 -28.5605 119.187 -28.5605 190.769h-53.0381z" />
</svg>
