<?xml version="1.0" standalone="no"?>
<!DOCTYPE svg PUBLIC "-//W3C//DTD SVG 1.1//EN" "http://www.w3.org/Graphics/SVG/1.1/DTD/svg11.dtd" >
<svg xmlns="http://www.w3.org/2000/svg" xmlns:xlink="http://www.w3.org/1999/xlink" version="1.1" viewBox="0 0 1088 926">
   <path fill="currentColor"
d="M1040 836.173c-128.932 0 -243.71 4.40332 -344.34 13.208c-100.629 8.80469 -188.679 20.126 -264.15 33.9619c-75.4717 13.8369 -139.309 27.9883 -191.51 42.4531c7.54688 -32.0762 11.3213 -65.0947 11.3213 -99.0566
c0 -26.7861 -2.34766 -54.1602 -7.04297 -82.1211c-1.43457 0.392578 -2.86035 0.785156 -4.27832 1.17773c0.880859 -3.74219 1.70996 -7.49707 2.4873 -11.2646c-0.777344 -4.15723 -1.60645 -8.32617 -2.4873 -12.5088
c1.53906 0.426758 3.08789 0.852539 4.64648 1.27832c4.44922 -24.9648 6.6748 -50.4854 6.6748 -76.5615c0 -26.7861 -2.34766 -54.1602 -7.04297 -82.1211c-1.43457 0.392578 -2.86035 0.785156 -4.27832 1.17773c0.880859 -3.74219 1.70996 -7.49707 2.4873 -11.2646
c-0.777344 -4.15723 -1.60645 -8.32617 -2.4873 -12.5088c1.53906 0.426758 3.08789 0.852539 4.64648 1.27832c4.44922 -24.9648 6.6748 -50.4854 6.6748 -76.5615c0 -33.9619 -3.77441 -68.8682 -11.3213 -104.717c52.2012 14.4639 115.88 28.6152 191.038 42.4531
c75.1572 13.8359 163.05 25.1572 263.679 33.9619c88.9062 7.77832 189.104 12.1221 300.594 13.0283c-29.7695 -32.5303 -55.8604 -61.5195 -78.2715 -86.9658c-30.4697 -34.5977 -57.1621 -63.0244 -80.0771 -85.2793
c-119.606 0.496094 -226.705 4.88379 -321.302 13.1602c-100.629 8.80469 -188.679 20.126 -264.15 33.9619c-75.4717 13.8369 -139.309 27.9883 -191.51 42.4531c7.54688 -32.0762 11.3213 -65.0947 11.3213 -99.0566s-3.77441 -68.8682 -11.3213 -104.717
c52.2012 14.4639 115.88 28.6152 191.038 42.4531c75.1572 13.8359 163.05 25.1572 263.679 33.9619c92.3574 8.08008 196.899 12.4541 313.626 13.1191c21.5664 -21.7705 43.1309 -44.3223 64.6963 -67.6562c24.4014 -26.4004 50.501 -55.001 78.3008 -85.8008
s58.9004 -64.5996 93.3008 -101.4l12.5996 9c-32.8008 52.4004 -60.9004 100.5 -84.3008 144.301s-42.7002 80.5 -57.9004 110.1c12.8008 25.2012 31.2012 60.1006 55.2012 104.701c14.0605 26.1279 29.8369 54.0771 47.3291 83.8438
c0.80957 0 1.62012 0.000976562 2.43066 0.000976562v4.12793c11.6641 19.7812 24.0771 40.3564 37.2402 61.7266l-12.5996 9c-16.334 -17.5322 -31.8682 -34.293 -46.6025 -50.2842c-120.04 0.474609 -227.498 4.86328 -322.378 13.165
c-100.629 8.80469 -188.679 20.126 -264.15 33.9619c-54.6816 10.0254 -103.255 20.2158 -145.721 30.5703c42.3945 10.3516 90.8105 20.5391 145.249 30.5625c75.1572 13.8359 163.05 25.1572 263.679 33.9619c100.629 8.80371 215.724 13.208 345.283 13.208v24.5273
c-128.932 0 -243.71 4.40332 -344.34 13.208c-100.629 8.80469 -188.679 20.126 -264.15 33.9619c-54.6816 10.0254 -103.255 20.2158 -145.721 30.5703c42.3945 10.3516 90.8105 20.5391 145.249 30.5625c75.1572 13.8359 163.05 25.1572 263.679 33.9619
c100.629 8.80371 215.724 13.208 345.283 13.208v24.5273z" />
</svg>
