<?xml version="1.0" standalone="no"?>
<!DOCTYPE svg PUBLIC "-//W3C//DTD SVG 1.1//EN" "http://www.w3.org/Graphics/SVG/1.1/DTD/svg11.dtd" >
<svg xmlns="http://www.w3.org/2000/svg" xmlns:xlink="http://www.w3.org/1999/xlink" version="1.1" viewBox="0 0 2391 813">
   <path fill="currentColor"
d="M1864.56 661.196c-15.6807 -13.1279 -31.0811 -25.457 -46.1992 -36.9873c-52.4766 -40.0254 -100.951 -72.4893 -145.423 -97.3936c-44.4727 -24.9043 -83.8203 -44.2383 -118.041 -58.0029c26.1504 -19.2129 51.2324 -40.8262 75.2471 -64.8408
s46.9629 -50.4316 68.8428 -79.249c13.7646 34.2197 33.0264 73.4951 57.7861 117.824c24.7607 44.3271 57.1523 92.7295 97.1768 145.206c11.6367 15.2568 24.0986 30.8125 37.3857 46.667c-11.8145 11.8145 -11.8145 11.8145 -26.7754 26.7764zM2027.19 498.562
c-15.6807 -13.127 -31.0801 -25.4561 -46.1982 -36.9873c-52.4766 -40.0244 -100.951 -72.4893 -145.423 -97.3936c-44.4727 -24.9043 -83.8203 -44.2383 -118.041 -58.0029c26.1494 -19.2129 51.2324 -40.8262 75.2471 -64.8408s46.9619 -50.4316 68.8428 -79.249
c13.7646 34.2207 33.0264 73.4951 57.7861 117.824c24.7598 44.3271 57.1514 92.7295 97.1768 145.206c11.6367 15.2568 24.0986 30.8125 37.3848 46.668c-11.8135 11.8145 -11.8135 11.8145 -26.7754 26.7754zM2189.83 335.927
c-15.6807 -13.127 -31.0811 -25.4561 -46.1982 -36.9873c-52.4766 -40.0244 -100.951 -72.4883 -145.424 -97.3936c-44.4717 -24.9043 -83.8193 -44.2383 -118.04 -58.0029c26.1494 -19.2129 51.2324 -40.8252 75.2471 -64.8408
c24.0146 -24.0146 46.9619 -50.4316 68.8428 -79.249c13.7646 34.2207 33.0264 73.4951 57.7852 117.824c24.7607 44.3271 57.1523 92.7295 97.1777 145.206c11.6367 15.2568 24.0986 30.8125 37.3848 46.668zM2342.59 812.489
c-50.3701 -50.3701 -101.944 -88.4785 -154.721 -114.33c-52.7773 -25.8506 -104.486 -42.9395 -155.127 -51.2676c-50.6416 -8.32812 -97.2207 -11.6299 -139.731 -9.90625c51.9951 -46.0967 103.956 -95.1094 155.886 -147.039s103.828 -106.776 155.693 -164.54
c-1.72168 42.5098 1.51758 89.0254 9.72168 139.547c8.20605 50.5186 25.2334 102.166 51.084 154.943c25.8516 52.7744 64.082 104.473 114.698 155.089zM1184.56 661.196c-15.6807 -13.1279 -31.0811 -25.457 -46.1992 -36.9873
c-52.4766 -40.0254 -100.951 -72.4893 -145.423 -97.3936c-44.4727 -24.9043 -83.8203 -44.2383 -118.041 -58.0029c26.1504 -19.2129 51.2324 -40.8262 75.2471 -64.8408s46.9629 -50.4316 68.8428 -79.249c13.7646 34.2197 33.0264 73.4951 57.7861 117.824
c24.7607 44.3271 57.1523 92.7295 97.1768 145.206c11.6367 15.2568 24.0986 30.8125 37.3857 46.667c-11.8145 11.8145 -11.8145 11.8145 -26.7754 26.7764zM1347.19 498.562c-15.6807 -13.127 -31.0801 -25.4561 -46.1982 -36.9873
c-52.4766 -40.0244 -100.951 -72.4893 -145.423 -97.3936c-44.4727 -24.9043 -83.8203 -44.2383 -118.041 -58.0029c26.1494 -19.2129 51.2324 -40.8262 75.2471 -64.8408s46.9619 -50.4316 68.8428 -79.249c13.7646 34.2207 33.0264 73.4951 57.7861 117.824
c24.7598 44.3271 57.1514 92.7295 97.1768 145.206c11.6367 15.2568 24.0986 30.8125 37.3848 46.668c-11.8135 11.8145 -11.8135 11.8145 -26.7754 26.7754zM1509.83 335.927c-15.6807 -13.127 -31.0811 -25.4561 -46.1982 -36.9873
c-52.4766 -40.0244 -100.951 -72.4883 -145.424 -97.3936c-44.4717 -24.9043 -83.8193 -44.2383 -118.04 -58.0029c26.1494 -19.2129 51.2324 -40.8252 75.2471 -64.8408c24.0146 -24.0146 46.9619 -50.4316 68.8428 -79.249
c13.7646 34.2207 33.0264 73.4951 57.7852 117.824c24.7607 44.3271 57.1523 92.7295 97.1777 145.206c11.6367 15.2568 24.0986 30.8125 37.3848 46.668zM1662.59 812.489c-50.3701 -50.3701 -101.944 -88.4785 -154.721 -114.33
c-52.7773 -25.8506 -104.486 -42.9395 -155.127 -51.2676c-50.6416 -8.32812 -97.2207 -11.6299 -139.731 -9.90625c51.9951 -46.0967 103.956 -95.1094 155.886 -147.039s103.828 -106.776 155.693 -164.54c-1.72168 42.5098 1.51758 89.0254 9.72168 139.547
c8.20605 50.5186 25.2334 102.166 51.084 154.943c25.8516 52.7744 64.082 104.473 114.698 155.089zM569.402 802c0 -83.8057 -4.40332 -158.411 -13.208 -223.821c-4.02734 -29.915 -8.58008 -58.1201 -13.6602 -84.6152
c-15.9004 0.298828 -31.4443 0.769531 -46.6299 1.41016l-15.8359 15.8359c-4.83203 -4.83203 -9.64062 -9.59961 -14.4277 -14.3037c-37.1074 2.20117 -71.9375 5.49316 -104.489 9.875c-65.4082 8.80469 -122.641 20.126 -171.697 33.9619
c-49.0566 13.8369 -90.5508 27.9883 -124.481 42.4531c4.90527 -32.0762 7.3584 -65.0947 7.3584 -99.0566s-2.45312 -68.8682 -7.3584 -104.717c33.9307 14.4639 75.3223 28.6152 124.175 42.4531c48.8525 13.8359 105.982 25.1572 171.391 33.9619
c22.2871 3 45.665 5.48828 70.1357 7.4668c-41.1494 -38.626 -80.5527 -72.2988 -118.21 -101.021c-52.4766 -40.0244 -100.951 -72.4883 -145.423 -97.3936c-44.4727 -24.9043 -83.8203 -44.2383 -118.041 -58.0029c26.1504 -19.2129 51.2324 -40.8252 75.2471 -64.8398
s46.9629 -50.4316 68.8428 -79.249c13.7646 34.2197 33.0264 73.4941 57.7861 117.823c24.7598 44.3271 57.1514 92.7295 97.1768 145.206c33.7217 44.2109 74.3701 90.9326 121.947 140.164c21.6816 1.2207 44.1445 2.07617 67.3896 2.56543
c-4.66309 -21.8232 -9.71582 -42.3809 -15.1572 -61.6748c-13.8369 -49.0566 -27.9883 -90.5508 -42.4531 -124.481c24.499 3.74707 49.5488 6.0625 75.1484 6.94824c-8.61523 -61.5762 -19.5137 -115.731 -32.6953 -162.467
c-13.8369 -49.0566 -27.9883 -90.5508 -42.4531 -124.481c32.0762 4.90527 65.0947 7.3584 99.0566 7.3584s68.8682 -2.45312 104.717 -7.3584c-14.4639 33.9307 -28.6152 75.3223 -42.4531 124.175c-13.2109 46.6455 -24.1289 100.837 -32.7529 162.576
c24.5898 -1.00488 49.6582 -3.25488 75.2061 -6.75098c-14.4639 33.9307 -28.6152 75.3223 -42.4531 124.175c-13.8359 48.8525 -25.1572 105.982 -33.9619 171.391c-8.80371 65.4092 -13.208 140.221 -13.208 224.435h-24.5273zM799.402 802
c0 -83.8057 -4.40332 -158.411 -13.208 -223.821c-8.80469 -65.4082 -20.126 -122.641 -33.9619 -171.697c-13.8369 -49.0566 -27.9883 -90.5508 -42.4531 -124.481c24.499 3.74707 49.5488 6.0625 75.1484 6.94824c-8.61523 -61.5762 -19.5137 -115.731 -32.6953 -162.467
c-13.8369 -49.0566 -27.9883 -90.5508 -42.4531 -124.481c32.0762 4.90527 65.0947 7.3584 99.0566 7.3584s68.8682 -2.45312 104.717 -7.3584c-14.4639 33.9307 -28.6152 75.3223 -42.4531 124.175c-13.2109 46.6455 -24.1289 100.837 -32.7529 162.576
c24.5898 -1.00488 49.6582 -3.25488 75.2061 -6.75098c-14.4639 33.9307 -28.6152 75.3223 -42.4531 124.175c-13.8359 48.8525 -25.1572 105.982 -33.9619 171.391c-8.80371 65.4092 -13.208 140.221 -13.208 224.435h-24.5273z" />
</svg>
