<?xml version="1.0" standalone="no"?>
<!DOCTYPE svg PUBLIC "-//W3C//DTD SVG 1.1//EN" "http://www.w3.org/Graphics/SVG/1.1/DTD/svg11.dtd" >
<svg xmlns="http://www.w3.org/2000/svg" xmlns:xlink="http://www.w3.org/1999/xlink" version="1.1" viewBox="0 0 2111 813">
   <path fill="currentColor"
d="M1589.32 656.462c-40.457 -40.4561 -79.585 -73.3574 -117.386 -98.707c-37.8018 -25.3496 -73.4355 -44.9717 -106.9 -58.8701c-33.4648 -13.8965 -63.5029 -23.9209 -90.1104 -30.0723c25.0498 -20.3135 49.5811 -42.4766 73.5957 -66.4922
c24.0146 -24.0146 47.5127 -49.8809 70.4941 -77.5977c6.15234 26.6074 16.127 56.5947 29.9248 89.9629c13.7988 33.3662 33.373 68.9502 58.7217 106.751c25.3506 37.8008 58.3506 77.0293 99.0029 117.683zM1751.95 493.827
c-40.457 -40.4561 -79.585 -73.3574 -117.387 -98.707c-37.8008 -25.3486 -73.4346 -44.9717 -106.899 -58.8701c-33.4648 -13.8965 -63.5029 -23.9209 -90.1104 -30.0723c25.0488 -20.3135 49.5811 -42.4766 73.5957 -66.4912s47.5127 -49.8818 70.4941 -77.5986
c6.15137 26.6074 16.127 56.5947 29.9248 89.9629c13.7988 33.3662 33.373 68.9502 58.7217 106.751c25.3506 37.8008 58.3506 77.0293 99.0029 117.683zM1914.59 331.193c-40.4561 -40.457 -79.584 -73.3574 -117.386 -98.707
c-37.8008 -25.3496 -73.4346 -44.9727 -106.899 -58.8701s-63.5029 -23.9219 -90.1104 -30.0732c25.0488 -20.3135 49.5811 -42.4766 73.5957 -66.4912s47.5127 -49.8818 70.4941 -77.5986c6.15137 26.6074 16.126 56.5947 29.9248 89.9629
c13.7988 33.3662 33.373 68.9512 58.7217 106.751c25.3496 37.8008 58.3496 77.0293 99.0029 117.683zM2062.62 812.489c-50.3701 -50.3701 -101.944 -88.4785 -154.721 -114.33c-52.7773 -25.8506 -104.486 -42.9395 -155.127 -51.2676
c-50.6416 -8.32812 -97.2207 -11.6299 -139.731 -9.90625c51.9951 -46.0967 103.956 -95.1094 155.886 -147.039s103.828 -106.776 155.693 -164.54c-1.72168 42.5098 1.51758 89.0254 9.72168 139.547c8.20605 50.5186 25.2334 102.166 51.084 154.943
c25.8516 52.7744 64.082 104.473 114.698 155.089zM1229.43 802c0 -128.932 -4.40332 -243.71 -13.208 -344.34c-8.80469 -100.629 -20.126 -188.679 -33.9619 -264.15c-13.8369 -75.4717 -27.9883 -139.309 -42.4531 -191.51
c32.0762 7.54688 65.0947 11.3213 99.0566 11.3213s68.8682 -3.77441 104.717 -11.3213c-14.4639 52.2012 -28.6152 115.88 -42.4531 191.038c-13.8359 75.1572 -25.1572 163.05 -33.9619 263.679c-8.80371 100.629 -13.208 215.724 -13.208 345.283h-24.5273zM999.43 802
c0 -128.932 -4.40332 -243.71 -13.208 -344.34c-0.204102 -2.33789 -0.410156 -4.66895 -0.618164 -6.99316c-54.7305 3.01172 -104.42 12.1631 -149.068 27.4521c-55.5977 19.04 -104.245 43.5205 -145.942 73.4395c-41.6982 29.9209 -76.9688 60.5225 -105.81 91.8008
c4.16992 -69.3613 6.25488 -140.761 6.25488 -214.2s-2.08496 -148.92 -6.25488 -226.439c28.8408 31.2764 64.0234 61.8779 105.549 91.8008c41.5244 29.9189 90.085 54.3994 145.683 73.4395c43.2451 14.8076 91.3262 23.8594 144.242 27.1504
c-7.77344 -74.9941 -17.1064 -142.193 -27.9971 -201.601c-13.8369 -75.4717 -27.9883 -139.309 -42.4531 -191.51c32.0762 7.54688 65.0947 11.3213 99.0566 11.3213s68.8682 -3.77441 104.717 -11.3213c-14.4639 52.2012 -28.6152 115.88 -42.4531 191.038
c-13.8359 75.1572 -25.1572 163.05 -33.9619 263.679c-8.80371 100.629 -13.208 215.724 -13.208 345.283h-24.5273zM585 638.173c-83.8057 0 -158.411 4.40332 -223.821 13.208c-65.4082 8.80469 -122.641 20.126 -171.697 33.9619
c-49.0566 13.8369 -90.5508 27.9883 -124.481 42.4531c4.90527 -32.0762 7.3584 -65.0947 7.3584 -99.0566c0 -32.834 -2.29297 -66.5508 -6.87793 -101.148l-0.480469 0.205078c0.0908203 -0.59375 0.180664 -1.18848 0.269531 -1.7832
c-0.0888672 -0.663086 -0.178711 -1.32617 -0.269531 -1.99023c0.176758 0.0751953 0.354492 0.151367 0.532227 0.226562c4.55078 -30.9619 6.82617 -62.7988 6.82617 -95.5098c0 -32.834 -2.29297 -66.5508 -6.87793 -101.148l-0.480469 0.205078
c0.0908203 -0.59375 0.180664 -1.18848 0.269531 -1.7832c-0.0888672 -0.663086 -0.178711 -1.32617 -0.269531 -1.99023c0.176758 0.0751953 0.354492 0.151367 0.532227 0.226562c4.55078 -30.9619 6.82617 -62.7988 6.82617 -95.5098
c0 -33.9619 -2.45312 -68.8682 -7.3584 -104.717c33.9307 14.4639 75.3223 28.6152 124.175 42.4531c48.8525 13.8359 105.982 25.1572 171.391 33.9619c65.4092 8.80371 140.221 13.208 224.435 13.208v24.5273c-83.8057 0 -158.411 4.40332 -223.821 13.208
c-65.4082 8.80469 -122.641 20.126 -171.697 33.9619c-46.9219 13.2344 -86.9248 26.7568 -120.009 40.5664c33.0752 13.8086 72.9756 27.3311 119.702 40.5664c48.8525 13.8359 105.982 25.1572 171.391 33.9619c65.4092 8.80371 140.221 13.208 224.435 13.208v24.5273
c-83.8057 0 -158.411 4.40332 -223.821 13.208c-65.4082 8.80469 -122.641 20.126 -171.697 33.9619c-46.9219 13.2344 -86.9248 26.7568 -120.009 40.5664c33.0752 13.8086 72.9756 27.3311 119.702 40.5664c48.8525 13.8359 105.982 25.1572 171.391 33.9619
c65.4092 8.80371 140.221 13.208 224.435 13.208v24.5273z" />
</svg>
