<?xml version="1.0" standalone="no"?>
<!DOCTYPE svg PUBLIC "-//W3C//DTD SVG 1.1//EN" "http://www.w3.org/Graphics/SVG/1.1/DTD/svg11.dtd" >
<svg xmlns="http://www.w3.org/2000/svg" xmlns:xlink="http://www.w3.org/1999/xlink" version="1.1" viewBox="0 0 1259 804">
   <path fill="currentColor"
d="M674.376 804c0 -128.932 -4.40332 -243.71 -13.208 -344.34c-0.555664 -6.34766 -1.12109 -12.6465 -1.69629 -18.8945c-42.9912 1.47168 -82.0811 5.67676 -117.272 12.6152c-44.6543 8.80469 -83.7266 20.126 -117.217 33.9619
c-33.4902 13.8369 -61.8184 27.9883 -84.9824 42.4531c2.95801 -28.3311 4.60938 -57.3984 4.95508 -87.2012c-29.6387 2.15625 -57.2236 5.75195 -82.7559 10.7861c-44.6543 8.80469 -83.7266 20.126 -117.217 33.9619c-33.4902 13.8369 -61.8184 27.9883 -84.9824 42.4531
c3.34863 -32.0762 5.02344 -65.0947 5.02344 -99.0566s-1.6748 -68.8682 -5.02344 -104.717c23.1641 14.4639 51.4219 28.6152 84.7734 42.4531c33.3506 13.8359 72.3535 25.1572 117.007 33.9619c25.5908 5.04492 53.2891 8.64551 83.0967 10.7998
c-0.475586 -28.4229 -2.10059 -57.4951 -4.87695 -87.2148c23.1641 14.4639 51.4219 28.6152 84.7734 42.4531c33.3506 13.8359 72.3535 25.1572 117.007 33.9619c34.5645 6.81445 72.9746 10.9932 115.23 12.5332c-8.12109 -82.2227 -18.0566 -155.376 -29.8047 -219.461
c-13.8369 -75.4717 -27.9883 -139.309 -42.4531 -191.51c32.0762 7.54688 65.0947 11.3213 99.0566 11.3213s68.8682 -3.77441 104.717 -11.3213c-14.4639 52.2012 -28.6152 115.88 -42.4531 191.038c-13.8359 75.1572 -25.1572 163.05 -33.9619 263.679
c-8.80371 100.629 -13.208 215.724 -13.208 345.283h-24.5273zM550.561 331.329c-40.4561 -40.457 -79.585 -73.3574 -117.386 -98.707s-73.4346 -44.9727 -106.899 -58.8701c-33.4658 -13.8975 -63.5029 -23.9219 -90.1104 -30.0732
c25.0488 -20.3135 49.5811 -42.4766 73.5957 -66.4912s47.5127 -49.8818 70.4932 -77.5986c6.15234 26.6074 16.127 56.5957 29.9258 89.9629c13.7988 33.3662 33.3721 68.9512 58.7217 106.751c25.3496 37.8008 58.3496 77.0293 99.0029 117.683zM904.376 804
c0 -128.932 -4.40332 -243.71 -13.208 -344.34c-8.80469 -100.629 -20.126 -188.679 -33.9619 -264.15c-13.8369 -75.4717 -27.9883 -139.309 -42.4531 -191.51c32.0762 7.54688 65.0947 11.3213 99.0566 11.3213s68.8682 -3.77441 104.717 -11.3213
c-14.4639 52.2012 -28.6152 115.88 -42.4531 191.038c-13.8359 75.1572 -25.1572 163.05 -33.9619 263.679c-8.80371 100.629 -13.208 215.724 -13.208 345.283h-24.5273zM1134.38 804c0 -128.932 -4.40332 -243.71 -13.208 -344.34
c-8.80469 -100.629 -20.126 -188.679 -33.9619 -264.15c-13.8369 -75.4717 -27.9883 -139.309 -42.4531 -191.51c32.0762 7.54688 65.0947 11.3213 99.0566 11.3213s68.8682 -3.77441 104.717 -11.3213c-14.4639 52.2012 -28.6152 115.88 -42.4531 191.038
c-13.8359 75.1572 -25.1572 163.05 -33.9619 263.679c-8.80371 100.629 -13.208 215.724 -13.208 345.283h-24.5273z" />
</svg>
