<?xml version="1.0" standalone="no"?>
<!DOCTYPE svg PUBLIC "-//W3C//DTD SVG 1.1//EN" "http://www.w3.org/Graphics/SVG/1.1/DTD/svg11.dtd" >
<svg xmlns="http://www.w3.org/2000/svg" xmlns:xlink="http://www.w3.org/1999/xlink" version="1.1" viewBox="0 0 1024 816">
   <path fill="currentColor"
d="M899.43 800c0 -83.8057 -4.40332 -158.411 -13.208 -223.821c-8.80469 -65.4082 -20.126 -122.641 -33.9619 -171.697c-13.8369 -49.0566 -27.9883 -90.5508 -42.4531 -124.481c28.3838 4.34082 57.5049 6.76074 87.3652 7.26074
c-2.13574 -30.5146 -5.78516 -58.8682 -10.9502 -85.0615c-8.80469 -44.6543 -20.126 -83.7266 -33.9619 -117.217c-13.8369 -33.4902 -27.9883 -61.8184 -42.4531 -84.9824c32.0762 3.34863 65.0947 5.02344 99.0566 5.02344s68.8682 -1.6748 104.717 -5.02344
c-14.4639 23.1641 -28.6152 51.4219 -42.4531 84.7734c-13.8359 33.3506 -25.1572 72.3535 -33.9619 117.007c-5.17285 26.2393 -8.82715 54.6953 -10.9609 85.3672c28.4746 -0.69043 57.5996 -3.07324 87.376 -7.14746c-14.4639 33.9307 -28.6152 75.3223 -42.4531 124.175
c-13.8359 48.8525 -25.1572 105.982 -33.9619 171.391c-8.80371 65.4092 -13.208 140.221 -13.208 224.435h-24.5273zM784.694 816.5c-60 -64.3994 -109.201 -118.399 -147.602 -162c-29.5215 -33.5215 -55.498 -61.249 -77.9277 -83.1846
c-73.3809 0.820312 -139.375 5.17578 -197.986 13.0654c-65.4082 8.80469 -122.641 20.126 -171.697 33.9619c-49.0566 13.8369 -90.5508 27.9883 -124.481 42.4531c4.90527 -32.0762 7.3584 -65.0947 7.3584 -99.0566s-2.45312 -68.8682 -7.3584 -104.717
c33.9307 14.4639 75.3223 28.6152 124.175 42.4531c48.8525 13.8359 105.982 25.1572 171.391 33.9619c55.3027 7.44336 117.327 11.7422 186.072 12.8926c22.1523 -22.3184 44.3037 -45.4619 66.4551 -69.4297c11.5645 -12.5117 23.5098 -25.5166 35.8369 -39.0166
c-4.05371 -4.56543 -7.99902 -9.02637 -11.8369 -13.3838c-29.5215 -33.5215 -55.498 -61.249 -77.9277 -83.1846c-73.3809 0.820312 -139.375 5.17578 -197.986 13.0654c-65.4082 8.80469 -122.641 20.126 -171.697 33.9619
c-49.0566 13.8369 -90.5508 27.9883 -124.481 42.4531c4.90527 -32.0762 7.3584 -65.0947 7.3584 -99.0566s-2.45312 -68.8682 -7.3584 -104.717c33.9307 14.4639 75.3223 28.6152 124.175 42.4531c48.8525 13.8359 105.982 25.1572 171.391 33.9619
c55.3027 7.44336 117.327 11.7422 186.072 12.8926c22.1523 -22.3184 44.3037 -45.4619 66.4551 -69.4297c24.4014 -26.4004 50.501 -55.001 78.3008 -85.8008s58.9004 -64.5996 93.3008 -101.4l12.5996 9c-32.8008 52.4004 -60.9004 100.5 -84.3008 144.301
s-42.7002 80.5 -57.9004 110.1c9.1084 17.9307 21.0508 40.7715 35.8281 68.5234c0.157227 -0.174805 0.31543 -0.348633 0.472656 -0.523438c27.7998 -30.7998 58.9004 -64.5996 93.3008 -101.4l12.5996 9c-31.5244 50.3613 -58.7061 96.75 -81.5479 139.167
c22.9004 42.0049 50.082 88.5508 81.5479 139.634l-12.5996 9c-34.9336 -37.4951 -66.2061 -71.4648 -93.8184 -101.909c-13.7422 25.9795 -25.6699 48.8154 -35.7832 68.5088c12.8008 25.2012 31.2012 60.1006 55.2012 104.701c24 44.5986 52.999 94.5 87 149.699z" />
</svg>
