<?xml version="1.0" standalone="no"?>
<!DOCTYPE svg PUBLIC "-//W3C//DTD SVG 1.1//EN" "http://www.w3.org/Graphics/SVG/1.1/DTD/svg11.dtd" >
<svg xmlns="http://www.w3.org/2000/svg" xmlns:xlink="http://www.w3.org/1999/xlink" version="1.1" viewBox="-5 0 1526 905">
   <path fill="currentColor"
d="M1493.4 391.329c-40.4561 -40.457 -79.585 -73.3574 -117.386 -98.707s-73.4346 -44.9727 -106.899 -58.8701c-33.4658 -13.8975 -63.5029 -23.9219 -90.1104 -30.0732c25.0488 -20.3135 49.5811 -42.4766 73.5957 -66.4912s47.5127 -49.8818 70.4932 -77.5986
c6.15234 26.6074 16.127 56.5957 29.9258 89.9629c13.7988 33.3662 33.3721 68.9512 58.7217 106.751c25.3496 37.8008 58.3496 77.0293 99.0029 117.683zM1323.4 551.329c-40.4561 -40.457 -79.585 -73.3574 -117.386 -98.707s-73.4346 -44.9727 -106.899 -58.8701
c-33.4658 -13.8975 -63.5029 -23.9219 -90.1104 -30.0732c25.0488 -20.3135 49.5811 -42.4766 73.5957 -66.4912s47.5127 -49.8818 70.4932 -77.5986c6.15234 26.6074 16.127 56.5957 29.9258 89.9629c13.7988 33.3662 33.3721 68.9512 58.7217 106.751
c25.3496 37.8008 58.3496 77.0293 99.0029 117.683zM1153.4 711.329c-40.4561 -40.457 -79.585 -73.3574 -117.386 -98.707s-73.4346 -44.9727 -106.899 -58.8701c-18.2021 -7.55859 -35.3896 -13.9717 -51.5625 -19.2393
c-86.1611 1.18652 -164.091 5.47559 -233.793 12.8682c-83.0195 8.80469 -155.66 20.126 -217.925 33.9619c-62.2637 13.8369 -114.929 27.9883 -157.995 42.4531c6.22656 -32.0762 9.33984 -65.0947 9.33984 -99.0566s-3.11328 -68.8682 -9.33984 -104.717
c43.0664 14.4639 95.6006 28.6152 157.606 42.4531c62.0049 13.8359 134.516 25.1572 217.535 33.9619c59.5225 6.3125 125.18 10.3623 196.971 12.1494c-32.1738 -30.2236 -63.4863 -55.5439 -93.9375 -75.9648c-37.8008 -25.3496 -73.4346 -44.9727 -106.899 -58.8701
c-33.4658 -13.8975 -63.5029 -23.9219 -90.1104 -30.0732c22.1748 -17.9824 43.9443 -37.415 65.3086 -58.2979c-23.2285 -20.2158 -45.9951 -37.8018 -68.2988 -52.7588c-37.8008 -25.3496 -73.4346 -44.9727 -106.899 -58.8701
c-33.4658 -13.8975 -63.5029 -23.9219 -90.1104 -30.0732c25.0488 -20.3135 49.5811 -42.4766 73.5957 -66.4912s47.5127 -49.8818 70.4932 -77.5986c6.15234 26.6074 16.127 56.5957 29.9258 89.9629c13.7988 33.3662 33.3721 68.9512 58.7217 106.751
c14.9893 22.3506 32.6523 45.2012 52.9912 68.5498c19.8105 -20.4766 39.2646 -42.2314 58.3613 -65.2637c6.15234 26.6074 16.127 56.5957 29.9258 89.9629c13.7988 33.3662 33.3721 68.9512 58.7217 106.751c22.4326 33.4502 50.8555 68.0186 85.2705 103.703
c15.3984 -13.5518 30.5947 -27.8242 45.5889 -42.8184c24.0146 -24.0146 47.5127 -49.8818 70.4932 -77.5986c6.15234 26.6074 16.127 56.5957 29.9258 89.9629c13.7988 33.3662 33.3721 68.9512 58.7217 106.751c25.3496 37.8008 58.3496 77.0293 99.0029 117.683z
M983.396 871.329c-40.4561 -40.457 -79.585 -73.3574 -117.386 -98.707s-73.4346 -44.9727 -106.899 -58.8701c-33.4658 -13.8975 -63.5029 -23.9219 -90.1104 -30.0732c25.0488 -20.3135 49.5811 -42.4766 73.5957 -66.4912s47.5127 -49.8818 70.4932 -77.5986
c6.15234 26.6074 16.127 56.5957 29.9258 89.9629c13.7988 33.3662 33.3721 68.9512 58.7217 106.751c25.3496 37.8008 58.3496 77.0293 99.0029 117.683zM319.396 905.329c-40.4561 -40.457 -79.585 -73.3574 -117.386 -98.707s-73.4346 -44.9727 -106.899 -58.8701
c-33.4658 -13.8975 -63.5029 -23.9219 -90.1104 -30.0732c25.0488 -20.3135 49.5811 -42.4766 73.5957 -66.4912s47.5127 -49.8818 70.4932 -77.5986c6.15234 26.6074 16.127 56.5957 29.9258 89.9629c7.58984 18.3525 16.9268 37.376 28.0098 57.0703
c-0.920898 -91.3018 -5.26172 -173.535 -13.0215 -246.702c-8.80469 -83.0195 -20.126 -155.66 -33.9619 -217.925c-13.8369 -62.2637 -27.9883 -114.929 -42.4531 -157.995c32.0762 6.22656 65.0947 9.33984 99.0566 9.33984s68.8682 -3.11328 104.717 -9.33984
c-14.4639 43.0664 -28.6152 95.6006 -42.4531 157.606c-13.8359 62.0049 -25.1572 134.516 -33.9619 217.535c-8.80371 83.0186 -13.208 177.972 -13.208 284.858h-2.09863c2.62988 4.07422 5.3291 8.17578 8.09668 12.3027
c25.3496 37.8008 58.3496 77.0293 99.0029 117.683z" />
</svg>
