<?xml version="1.0" standalone="no"?>
<!DOCTYPE svg PUBLIC "-//W3C//DTD SVG 1.1//EN" "http://www.w3.org/Graphics/SVG/1.1/DTD/svg11.dtd" >
<svg xmlns="http://www.w3.org/2000/svg" xmlns:xlink="http://www.w3.org/1999/xlink" version="1.1" viewBox="0 0 2561 813">
   <path fill="currentColor"
d="M2550.05 613.173c-174.058 0 -329.009 4.40332 -464.858 13.208c-87.1143 5.64648 -167.245 12.3271 -240.393 20.042c-3.89648 47.6982 -5.8457 99.5576 -5.8457 155.577h-24.5273c0 -54.4258 -1.85742 -104.972 -5.57129 -151.639
c-27.834 3.16699 -54.5898 6.49414 -80.2666 9.98145c-101.887 13.8369 -188.066 27.9883 -258.538 42.4531c10.1885 -32.0762 15.2842 -65.0947 15.2842 -99.0566s-5.0957 -68.8682 -15.2842 -104.717c70.4717 14.4639 156.438 28.6152 257.901 42.4531
c22.2637 3.03613 45.3555 5.95117 69.2744 8.74512c-8.15137 -53.8887 -18.1416 -101.802 -29.9697 -143.739c-13.8369 -49.0566 -27.9883 -90.5508 -42.4531 -124.481c32.0762 4.90527 65.0947 7.3584 99.0566 7.3584s68.8682 -2.45312 104.717 -7.3584
c-14.4639 33.9307 -28.6152 75.3223 -42.4531 124.175c-12.3359 43.5547 -22.6719 93.6895 -31.0088 150.404c69.9072 7.2168 146.175 13.5029 228.803 18.8584c135.85 8.80371 291.228 13.208 466.133 13.208v24.5273zM2550.05 153.173
c-174.058 0 -329.009 4.40332 -464.858 13.208s-254.717 20.126 -356.604 33.9619c-101.887 13.8369 -188.066 27.9883 -258.538 42.4531c10.1885 -32.0762 15.2842 -65.0947 15.2842 -99.0566s-5.0957 -68.8682 -15.2842 -104.717
c70.4717 14.4639 156.438 28.6152 257.901 42.4531c101.462 13.8359 220.117 25.1572 355.966 33.9619c135.85 8.80371 291.228 13.208 466.133 13.208v24.5273zM1019.32 656.462c-40.457 -40.4561 -79.585 -73.3574 -117.386 -98.707
c-37.8018 -25.3496 -73.4355 -44.9717 -106.9 -58.8701c-33.4648 -13.8965 -63.5029 -23.9209 -90.1104 -30.0723c25.0498 -20.3135 49.5811 -42.4766 73.5957 -66.4922c24.0146 -24.0146 47.5127 -49.8809 70.4941 -77.5977
c6.15234 26.6074 16.127 56.5947 29.9248 89.9629c13.7988 33.3662 33.373 68.9502 58.7217 106.751c25.3506 37.8008 58.3506 77.0293 99.0029 117.683zM1181.95 493.827c-40.457 -40.4561 -79.585 -73.3574 -117.387 -98.707
c-37.8008 -25.3486 -73.4346 -44.9717 -106.899 -58.8701c-33.4648 -13.8965 -63.5029 -23.9209 -90.1104 -30.0723c25.0488 -20.3135 49.5811 -42.4766 73.5957 -66.4912s47.5127 -49.8818 70.4941 -77.5986c6.15137 26.6074 16.127 56.5947 29.9248 89.9629
c13.7988 33.3662 33.373 68.9502 58.7217 106.751c25.3506 37.8008 58.3506 77.0293 99.0029 117.683zM1344.59 331.193c-40.4561 -40.457 -79.584 -73.3574 -117.386 -98.707c-37.8008 -25.3496 -73.4346 -44.9727 -106.899 -58.8701
c-24.0205 -9.97559 -46.2754 -17.9551 -66.7627 -23.9395c-126.287 0.145508 -238.895 4.54785 -337.826 13.2041c-29.1523 2.55078 -57.248 5.3125 -84.2881 8.28516c20.3926 -0.811523 41.1113 -2.2002 62.1543 -4.16602
c-14.4639 23.1641 -28.6152 51.4219 -42.4531 84.7734c-13.8359 33.3506 -25.1572 72.3535 -33.9619 117.007c-5.04492 25.5908 -8.64551 53.2891 -10.7998 83.0967c28.4229 -0.475586 57.4951 -2.10059 87.2148 -4.87695
c-14.4639 23.1641 -28.6152 51.4219 -42.4531 84.7734c-13.8359 33.3506 -25.1572 72.3535 -33.9619 117.007c-8.80371 44.6543 -13.208 95.7275 -13.208 153.22h-24.5273c0 -57.2139 -4.40332 -108.146 -13.208 -152.801
c-2.44629 -12.4062 -5.08691 -24.3818 -7.9209 -35.9258c-75.0391 0.700195 -142.412 5.07031 -202.122 13.1074c-65.4082 8.80469 -122.641 20.126 -171.697 33.9619c-49.0566 13.8369 -90.5508 27.9883 -124.481 42.4531
c4.90527 -32.0762 7.3584 -65.0947 7.3584 -99.0566s-2.45312 -68.8682 -7.3584 -104.717c33.9307 14.4639 75.3223 28.6152 124.175 42.4531c48.8525 13.8359 105.982 25.1572 171.391 33.9619c57.9941 7.80566 123.381 12.1533 196.158 13.0381
c-5.81348 -20.3262 -12.3018 -39.1572 -19.4639 -56.4932c-13.8369 -33.4902 -27.9883 -61.8184 -42.4531 -84.9824c28.3311 2.95801 57.3984 4.60938 87.2012 4.95508c-2.15625 -29.6387 -5.75195 -57.2236 -10.7861 -82.7559
c-8.80469 -44.6543 -20.126 -83.7266 -33.9619 -117.217c-9.86328 -23.8721 -19.8857 -45.1211 -30.0684 -63.7471c-17.4619 2.75195 -34.3379 5.62109 -50.6279 8.60742c-75.4717 13.8369 -139.309 27.9883 -191.51 42.4531
c7.54688 -32.0762 11.3213 -65.0947 11.3213 -99.0566s-3.77441 -68.8682 -11.3213 -104.717c52.2012 14.4639 115.88 28.6152 191.038 42.4531c75.1572 13.8359 163.05 25.1572 263.679 33.9619c98.5801 8.62402 211.044 13.0273 337.389 13.2021
c17.4678 -15.1064 34.6768 -31.1357 51.6289 -48.0879c24.0146 -24.0146 47.5127 -49.8818 70.4941 -77.5986c6.15137 26.6074 16.126 56.5947 29.9248 89.9629c13.7988 33.3662 33.373 68.9512 58.7217 106.751c25.3496 37.8008 58.3496 77.0293 99.0029 117.683z
M1492.62 812.489c-50.3701 -50.3701 -101.944 -88.4785 -154.721 -114.33c-52.7773 -25.8506 -104.486 -42.9395 -155.127 -51.2676c-50.6416 -8.32812 -97.2207 -11.6299 -139.731 -9.90625c51.9951 -46.0967 103.956 -95.1094 155.886 -147.039
s103.828 -106.776 155.693 -164.54c-1.72168 42.5098 1.51758 89.0254 9.72168 139.547c8.20605 50.5186 25.2334 102.166 51.084 154.943c25.8516 52.7744 64.082 104.473 114.698 155.089z" />
</svg>
