<?xml version="1.0" standalone="no"?>
<!DOCTYPE svg PUBLIC "-//W3C//DTD SVG 1.1//EN" "http://www.w3.org/Graphics/SVG/1.1/DTD/svg11.dtd" >
<svg xmlns="http://www.w3.org/2000/svg" xmlns:xlink="http://www.w3.org/1999/xlink" version="1.1" viewBox="0 0 1370 1020">
   <path fill="currentColor"
d="M1117.56 1019.91c-111.658 -64.4658 -213.261 -118.042 -304.812 -160.731c-91.5498 -42.6895 -173.463 -76.9102 -245.741 -102.664c-72.2793 -25.752 -134.64 -45.415 -187.079 -58.9893c22.5742 -24.0049 42.3516 -50.7129 59.333 -80.125
c16.916 -29.3008 31.0586 -61.2861 42.4248 -95.9541c-47.752 -25.4023 -92.7451 -46.7773 -134.979 -64.1279c-61.0479 -25.0791 -116.273 -43.8916 -165.676 -56.4375c-49.4023 -12.5449 -92.4131 -21.0361 -129.03 -25.4746
c20.2861 -25.3262 38.9199 -52.6943 55.9004 -82.1064c16.9814 -29.4121 32.3105 -60.8682 45.9863 -94.3672c22.1523 29.4922 50.9229 62.4434 86.3115 98.8535c35.3896 36.4082 79.2051 74.7773 131.448 115.107c36.2051 27.9473 77.376 56.3223 123.515 85.124
c18.8516 -26.0107 36.7334 -53.6611 53.6455 -82.9512c16.916 -29.3008 32.8623 -60.2451 47.8379 -92.8281c-47.7373 -25.3926 -92.7158 -46.7607 -134.938 -64.1064c-61.0479 -25.0791 -116.273 -43.8906 -165.676 -56.4365
c-49.4023 -12.5449 -92.4131 -21.0371 -129.03 -25.4756c20.2861 -25.3262 38.9199 -52.6943 55.9004 -82.1055c16.9814 -29.4121 32.3105 -60.8682 45.9863 -94.3672c22.1523 29.4912 50.9229 62.4424 86.3115 98.8535c35.3896 36.4082 79.2051 74.7773 131.448 115.106
c36.2158 27.9561 77.4014 56.3408 123.559 85.1523c22.459 -23.9297 42.1436 -50.5381 59.0557 -79.8301c16.9805 -29.4121 31.165 -61.5283 42.5537 -96.3477c37.9756 38.626 86.0469 82.7207 144.217 132.284c58.1699 49.5605 128.627 103.312 211.372 161.251
c82.7451 57.9385 180.218 119.301 292.42 184.08l-12.2637 21.2412c-111.658 -64.4658 -213.261 -118.041 -304.812 -160.731c-91.5498 -42.6895 -173.463 -76.9092 -245.741 -102.663c-71.6904 -25.543 -133.623 -45.0957 -185.796 -58.6562
c20.124 12.5439 41.1895 25.1699 63.1973 37.876l-12.2637 21.2412c-22.2021 -12.8184 -43.8643 -24.8496 -64.9863 -36.0928c12.7949 23.9336 30.0762 50.1025 51.8457 78.5078c21.9639 28.6572 50.0811 57.9629 84.3496 87.915
c21.2168 18.5439 45.4092 36.8564 72.5742 54.9395c13.7021 -25.0908 26.2539 -51.6025 37.6572 -79.5342c22.1533 29.4922 50.9229 62.4434 86.3115 98.8535c35.3896 36.4082 79.2051 74.7773 131.448 115.106c52.2441 40.3291 114.83 81.5488 187.762 123.656
l-12.2637 21.2412c-72.5781 -41.9033 -139.39 -75.3926 -200.438 -100.473c-61.0479 -25.0781 -116.273 -43.8906 -165.676 -56.4365c-49.4023 -12.5449 -92.4131 -21.0371 -129.03 -25.4746c18.0176 -22.4941 34.7314 -46.5996 50.1416 -72.3154
c-29.1025 -14.4023 -56.9668 -26.1475 -83.5947 -35.2363c-43.0742 -14.7012 -82.5723 -24.4336 -118.494 -29.1963c-35.6104 -4.7207 -66.9814 -6.6377 -94.1123 -5.75c20.2969 12.6621 41.5527 25.4062 63.7695 38.2334l-12.2637 21.2412
c-21.9873 -12.6943 -43.4463 -24.6162 -64.375 -35.7666c37.8252 38.3945 85.5781 82.166 143.262 131.313c58.1699 49.5615 128.627 103.312 211.372 161.252c82.7451 57.9385 180.218 119.3 292.42 184.08z" />
</svg>
