<?xml version="1.0" standalone="no"?>
<!DOCTYPE svg PUBLIC "-//W3C//DTD SVG 1.1//EN" "http://www.w3.org/Graphics/SVG/1.1/DTD/svg11.dtd" >
<svg xmlns="http://www.w3.org/2000/svg" xmlns:xlink="http://www.w3.org/1999/xlink" version="1.1" viewBox="0 0 2121 813">
   <path fill="currentColor"
d="M1854.51 802c0 -128.932 -4.40332 -243.71 -13.208 -344.34c-0.454102 -5.19336 -0.916016 -10.3535 -1.38379 -15.4805c-62.1904 1.97168 -121.225 4.66992 -177.104 8.0957c-0.19043 2.1416 -0.379883 4.28809 -0.568359 6.44141
c-8.80371 100.629 -13.208 215.724 -13.208 345.283h-24.5273c0 -128.932 -4.40332 -243.71 -13.208 -344.34c-0.116211 -1.32715 -0.232422 -2.65332 -0.349609 -3.97656c-63.8232 4.43262 -123.733 9.44434 -179.73 15.0361
c-8.12207 97.749 -12.1846 208.843 -12.1846 333.28h-24.5273c0 -122.081 -3.94824 -231.472 -11.8418 -328.179c-32.792 3.62402 -64.124 7.46484 -93.9961 11.5215c-101.887 13.8369 -188.066 27.9883 -258.538 42.4531
c9.06738 -28.5459 14.1006 -57.8379 15.0986 -87.8779c-33.5107 2.03711 -64.4766 5.8584 -92.8994 11.4629c-44.6543 8.80469 -83.7266 20.126 -117.217 33.9619c-33.4902 13.8369 -61.8184 27.9883 -84.9824 42.4531c3.34863 -32.0762 5.02344 -65.0947 5.02344 -99.0566
s-1.6748 -68.8682 -5.02344 -104.717c23.1641 14.4639 51.4219 28.6152 84.7734 42.4531c33.3506 13.8359 72.3535 25.1572 117.007 33.9619c28.4287 5.60449 59.459 9.42676 93.0898 11.4639c-1.40039 -28.6348 -6.35742 -57.9277 -14.8701 -87.8789
c70.4717 14.4639 156.438 28.6152 257.901 42.4531c27.2236 3.71289 55.6855 7.24414 85.3857 10.5938c-7.37695 -67.7705 -16.0713 -128.957 -26.0811 -183.56c-13.8369 -75.4717 -27.9883 -139.309 -42.4531 -191.51c32.0762 7.54688 65.0947 11.3213 99.0566 11.3213
s68.8682 -3.77441 104.717 -11.3213c-14.4639 52.2012 -28.6152 115.88 -42.4531 191.038c-10.3955 56.4668 -19.3711 120.121 -26.9258 190.966c52.0596 5.11133 107.507 9.72656 166.339 13.8467c-7.83008 -76.0977 -17.2568 -144.211 -28.2803 -204.341
c-13.8369 -75.4717 -27.9883 -139.309 -42.4531 -191.51c32.0762 7.54688 65.0947 11.3213 99.0566 11.3213s68.8682 -3.77441 104.717 -11.3213c-14.4639 52.2012 -28.6152 115.88 -42.4531 191.038c-11.2627 61.1807 -20.8594 130.802 -28.7891 208.861
c53.5283 3.21875 109.991 5.77637 169.39 7.67188c-8.05859 -80.8408 -17.8818 -152.861 -29.4678 -216.062c-13.8369 -75.4717 -27.9883 -139.309 -42.4531 -191.51c32.0762 7.54688 65.0947 11.3213 99.0566 11.3213s68.8682 -3.77441 104.717 -11.3213
c-14.4639 52.2012 -28.6152 115.88 -42.4531 191.038c-11.71 63.6084 -21.6182 136.339 -29.7246 218.192c67.6465 1.60938 138.864 2.41504 213.651 2.41504v24.5273c-75.7725 0 -147.923 0.834961 -216.454 2.50293c-0.485352 5.31055 -0.963867 10.6572 -1.43457 16.041
c-8.80371 100.629 -13.208 215.724 -13.208 345.283h-24.5273zM359.396 656.462c-40.457 -40.4561 -79.585 -73.3574 -117.386 -98.707c-37.8018 -25.3496 -73.4355 -44.9717 -106.9 -58.8701c-33.4648 -13.8965 -63.5029 -23.9209 -90.1104 -30.0723
c25.0498 -20.3135 49.5811 -42.4766 73.5957 -66.4922c24.0146 -24.0146 47.5127 -49.8809 70.4941 -77.5977c6.15234 26.6074 16.127 56.5947 29.9248 89.9629c13.7988 33.3662 33.373 68.9502 58.7217 106.751c25.3506 37.8008 58.3506 77.0293 99.0029 117.683z
M522.031 493.827c-40.457 -40.4561 -79.585 -73.3574 -117.387 -98.707c-37.8008 -25.3486 -73.4346 -44.9717 -106.899 -58.8701c-33.4648 -13.8965 -63.5029 -23.9209 -90.1104 -30.0723c25.0488 -20.3135 49.5811 -42.4766 73.5957 -66.4912
s47.5127 -49.8818 70.4941 -77.5986c6.15137 26.6074 16.127 56.5947 29.9248 89.9629c13.7988 33.3662 33.373 68.9502 58.7217 106.751c25.3506 37.8008 58.3506 77.0293 99.0029 117.683zM684.665 331.193c-40.4561 -40.457 -79.584 -73.3574 -117.386 -98.707
c-37.8008 -25.3496 -73.4346 -44.9727 -106.899 -58.8701s-63.5029 -23.9219 -90.1104 -30.0732c25.0488 -20.3135 49.5811 -42.4766 73.5957 -66.4912s47.5127 -49.8818 70.4941 -77.5986c6.15137 26.6074 16.126 56.5947 29.9248 89.9629
c13.7988 33.3662 33.373 68.9512 58.7217 106.751c25.3496 37.8008 58.3496 77.0293 99.0029 117.683zM832.694 812.489c-50.3701 -50.3701 -101.944 -88.4785 -154.721 -114.33c-52.7773 -25.8506 -104.486 -42.9395 -155.127 -51.2676
c-50.6416 -8.32812 -97.2207 -11.6299 -139.731 -9.90625c51.9951 -46.0967 103.956 -95.1094 155.886 -147.039s103.828 -106.776 155.693 -164.54c-1.72168 42.5098 1.51758 89.0254 9.72168 139.547c8.20605 50.5186 25.2334 102.166 51.084 154.943
c25.8516 52.7744 64.082 104.473 114.698 155.089z" />
</svg>
