<?xml version="1.0" standalone="no"?>
<!DOCTYPE svg PUBLIC "-//W3C//DTD SVG 1.1//EN" "http://www.w3.org/Graphics/SVG/1.1/DTD/svg11.dtd" >
<svg xmlns="http://www.w3.org/2000/svg" xmlns:xlink="http://www.w3.org/1999/xlink" version="1.1" viewBox="0 0 2121 813">
   <path fill="currentColor"
d="M1854.51 802c0 -128.932 -4.40332 -243.71 -13.208 -344.34c-0.454102 -5.19336 -0.916016 -10.3535 -1.38379 -15.4805c-62.1904 1.97168 -121.225 4.66992 -177.104 8.0957c-0.19043 2.1416 -0.379883 4.28809 -0.568359 6.44141
c-8.80371 100.629 -13.208 215.724 -13.208 345.283h-24.5273c0 -128.932 -4.40332 -243.71 -13.208 -344.34c-0.116211 -1.32715 -0.232422 -2.65332 -0.349609 -3.97656c-63.8232 4.43262 -123.733 9.44434 -179.73 15.0361
c-8.12207 97.749 -12.1846 208.843 -12.1846 333.28h-24.5273c0 -122.081 -3.94824 -231.472 -11.8418 -328.179c-32.792 3.62402 -64.124 7.46484 -93.9961 11.5215c-101.887 13.8369 -188.066 27.9883 -258.538 42.4531
c7.8877 -24.8311 12.7227 -50.2275 14.5039 -76.1885c-64.7109 8.77148 -121.385 20.0176 -170.022 33.7354c-49.0566 13.8369 -90.5508 27.9883 -124.481 42.4531c4.90527 -32.0762 7.3584 -65.0947 7.3584 -99.0566s-2.45312 -68.8682 -7.3584 -104.717
c33.9307 14.4639 75.3223 28.6152 124.175 42.4531c48.4893 13.7334 105.133 24.9883 169.932 33.7646c-2.04395 -24.9131 -6.74609 -50.3193 -14.1064 -76.2178c70.4717 14.4639 156.438 28.6152 257.901 42.4531c27.2236 3.71289 55.6855 7.24414 85.3857 10.5938
c-7.37695 -67.7705 -16.0713 -128.957 -26.0811 -183.56c-13.8369 -75.4717 -27.9883 -139.309 -42.4531 -191.51c32.0762 7.54688 65.0947 11.3213 99.0566 11.3213s68.8682 -3.77441 104.717 -11.3213c-14.4639 52.2012 -28.6152 115.88 -42.4531 191.038
c-10.3955 56.4668 -19.3711 120.121 -26.9258 190.966c52.0596 5.11133 107.507 9.72656 166.339 13.8467c-7.83008 -76.0977 -17.2568 -144.211 -28.2803 -204.341c-13.8369 -75.4717 -27.9883 -139.309 -42.4531 -191.51c32.0762 7.54688 65.0947 11.3213 99.0566 11.3213
s68.8682 -3.77441 104.717 -11.3213c-14.4639 52.2012 -28.6152 115.88 -42.4531 191.038c-11.2627 61.1807 -20.8594 130.802 -28.7891 208.861c53.5283 3.21875 109.991 5.77637 169.39 7.67188c-8.05859 -80.8408 -17.8818 -152.861 -29.4678 -216.062
c-13.8369 -75.4717 -27.9883 -139.309 -42.4531 -191.51c32.0762 7.54688 65.0947 11.3213 99.0566 11.3213s68.8682 -3.77441 104.717 -11.3213c-14.4639 52.2012 -28.6152 115.88 -42.4531 191.038c-11.71 63.6084 -21.6182 136.339 -29.7246 218.192
c67.6465 1.60938 138.864 2.41504 213.651 2.41504v24.5273c-75.7725 0 -147.923 0.834961 -216.454 2.50293c-0.485352 5.31055 -0.963867 10.6572 -1.43457 16.041c-8.80371 100.629 -13.208 215.724 -13.208 345.283h-24.5273zM354.663 661.196
c-15.6807 -13.1279 -31.0811 -25.457 -46.1992 -36.9873c-52.4766 -40.0254 -100.951 -72.4893 -145.423 -97.3936c-44.4727 -24.9043 -83.8203 -44.2383 -118.041 -58.0029c26.1504 -19.2129 51.2324 -40.8262 75.2471 -64.8408s46.9629 -50.4316 68.8428 -79.249
c13.7646 34.2197 33.0264 73.4951 57.7861 117.824c24.7607 44.3271 57.1523 92.7295 97.1768 145.206c11.6367 15.2568 24.0986 30.8125 37.3857 46.667c-11.8145 11.8145 -11.8145 11.8145 -26.7754 26.7764zM517.297 498.562
c-15.6807 -13.127 -31.0801 -25.4561 -46.1982 -36.9873c-52.4766 -40.0244 -100.951 -72.4893 -145.423 -97.3936c-44.4727 -24.9043 -83.8203 -44.2383 -118.041 -58.0029c26.1494 -19.2129 51.2324 -40.8262 75.2471 -64.8408s46.9619 -50.4316 68.8428 -79.249
c13.7646 34.2207 33.0264 73.4951 57.7861 117.824c24.7598 44.3271 57.1514 92.7295 97.1768 145.206c11.6367 15.2568 24.0986 30.8125 37.3848 46.668c-11.8135 11.8145 -11.8135 11.8145 -26.7754 26.7754zM679.932 335.927
c-15.6807 -13.127 -31.0811 -25.4561 -46.1982 -36.9873c-52.4766 -40.0244 -100.951 -72.4883 -145.424 -97.3936c-44.4717 -24.9043 -83.8193 -44.2383 -118.04 -58.0029c26.1494 -19.2129 51.2324 -40.8252 75.2471 -64.8408
c24.0146 -24.0146 46.9619 -50.4316 68.8428 -79.249c13.7646 34.2207 33.0264 73.4951 57.7852 117.824c24.7607 44.3271 57.1523 92.7295 97.1777 145.206c11.6367 15.2568 24.0986 30.8125 37.3848 46.668zM832.694 812.489
c-50.3701 -50.3701 -101.944 -88.4785 -154.721 -114.33c-52.7773 -25.8506 -104.486 -42.9395 -155.127 -51.2676c-50.6416 -8.32812 -97.2207 -11.6299 -139.731 -9.90625c51.9951 -46.0967 103.956 -95.1094 155.886 -147.039s103.828 -106.776 155.693 -164.54
c-1.72168 42.5098 1.51758 89.0254 9.72168 139.547c8.20605 50.5186 25.2334 102.166 51.084 154.943c25.8516 52.7744 64.082 104.473 114.698 155.089z" />
</svg>
