<?xml version="1.0" standalone="no"?>
<!DOCTYPE svg PUBLIC "-//W3C//DTD SVG 1.1//EN" "http://www.w3.org/Graphics/SVG/1.1/DTD/svg11.dtd" >
<svg xmlns="http://www.w3.org/2000/svg" xmlns:xlink="http://www.w3.org/1999/xlink" version="1.1" viewBox="-5 0 1474 926">
   <path fill="currentColor"
d="M1344.21 820c0 -128.932 -4.40332 -243.71 -13.208 -344.34c-8.80469 -100.629 -20.126 -188.679 -33.9619 -264.15c-13.8369 -75.4717 -27.9883 -139.309 -42.4531 -191.51c32.0762 7.54688 65.0947 11.3213 99.0566 11.3213s68.8682 -3.77441 104.717 -11.3213
c-14.4639 52.2012 -28.6152 115.88 -42.4531 191.038c-13.8359 75.1572 -25.1572 163.05 -33.9619 263.679c-8.80371 100.629 -13.208 215.724 -13.208 345.283h-24.5273zM1129.83 836.173c-128.932 0 -243.71 4.40332 -344.34 13.208
c-100.629 8.80469 -188.679 20.126 -264.15 33.9619c-75.4717 13.8369 -139.309 27.9883 -191.51 42.4531c7.54688 -32.0762 11.3213 -65.0947 11.3213 -99.0566c0 -26.7861 -2.34766 -54.1602 -7.04297 -82.1211c-1.43457 0.392578 -2.86035 0.785156 -4.27832 1.17773
c0.880859 -3.74219 1.70996 -7.49707 2.4873 -11.2646c-0.777344 -4.15723 -1.60645 -8.32617 -2.4873 -12.5088c1.53906 0.426758 3.08789 0.852539 4.64648 1.27832c4.44922 -24.9648 6.6748 -50.4854 6.6748 -76.5615c0 -26.7861 -2.34766 -54.1602 -7.04297 -82.1211
c-1.43457 0.392578 -2.86035 0.785156 -4.27832 1.17773c0.880859 -3.74219 1.70996 -7.49707 2.4873 -11.2646c-0.777344 -4.15723 -1.60645 -8.32617 -2.4873 -12.5088c1.53906 0.426758 3.08789 0.852539 4.64648 1.27832
c4.44922 -24.9648 6.6748 -50.4854 6.6748 -76.5615c0 -33.9619 -3.77441 -68.8682 -11.3213 -104.717c52.2012 14.4639 115.88 28.6152 191.038 42.4531c75.1572 13.8359 163.05 25.1572 263.679 33.9619c49.0869 4.29492 101.616 7.54199 157.588 9.74219
c-28.5234 -31.2002 -53.6113 -59.0938 -75.2656 -83.6797c-29.5215 -33.5215 -55.498 -61.249 -77.9277 -83.1846c-73.3809 0.820312 -139.375 5.17578 -197.986 13.0654c-65.4082 8.80469 -122.641 20.126 -171.697 33.9619
c-49.0566 13.8369 -90.5508 27.9883 -124.481 42.4531c4.90527 -32.0762 7.3584 -65.0947 7.3584 -99.0566s-2.45312 -68.8682 -7.3584 -104.717c33.9307 14.4639 75.3223 28.6152 124.175 42.4531c48.8525 13.8359 105.982 25.1572 171.391 33.9619
c55.3027 7.44336 117.327 11.7422 186.072 12.8926c22.1523 -22.3184 44.3037 -45.4619 66.4551 -69.4297c24.4014 -26.4004 50.501 -55.001 78.3008 -85.8008s58.9004 -64.5996 93.3008 -101.4l12.5996 9c-32.8008 52.4004 -60.9004 100.5 -84.3008 144.301
s-42.7002 80.5 -57.9004 110.1c12.8008 25.2012 31.2012 60.1006 55.2012 104.701c13.75 25.5518 29.1416 52.8438 46.1738 81.876c36.1748 1.03906 73.6992 1.66602 112.574 1.88281c-8.46777 -90.6484 -19.0625 -170.665 -31.7822 -240.05
c-13.8369 -75.4717 -27.9883 -139.309 -42.4531 -191.51c32.0762 7.54688 65.0947 11.3213 99.0566 11.3213s68.8682 -3.77441 104.717 -11.3213c-14.4639 52.2012 -28.6152 115.88 -42.4531 191.038c-13.8359 75.1572 -25.1572 163.05 -33.9619 263.679
c-8.80371 100.629 -13.208 215.724 -13.208 345.283h-8.90332v16.1729zM319.396 827.329c-40.4561 -40.457 -79.585 -73.3574 -117.386 -98.707s-73.4346 -44.9727 -106.899 -58.8701c-33.4658 -13.8975 -63.5029 -23.9219 -90.1104 -30.0732
c25.0488 -20.3135 49.5811 -42.4766 73.5957 -66.4912s47.5127 -49.8818 70.4932 -77.5986c6.15234 26.6074 16.127 56.5957 29.9258 89.9629c7.58984 18.3525 16.9268 37.376 28.0098 57.0703c-0.920898 -91.3018 -5.26172 -173.535 -13.0215 -246.702
c-8.80469 -83.0195 -20.126 -155.66 -33.9619 -217.925c-13.8369 -62.2637 -27.9883 -114.929 -42.4531 -157.995c32.0762 6.22656 65.0947 9.33984 99.0566 9.33984s68.8682 -3.11328 104.717 -9.33984c-14.4639 43.0664 -28.6152 95.6006 -42.4531 157.606
c-13.8359 62.0049 -25.1572 134.516 -33.9619 217.535c-8.80371 83.0186 -13.208 177.972 -13.208 284.858h-2.09863c2.62988 4.07422 5.3291 8.17578 8.09668 12.3027c25.3496 37.8008 58.3496 77.0293 99.0029 117.683zM970.122 478.655
c-66.083 2.16309 -127.625 5.73828 -184.627 10.7256c-100.629 8.80469 -188.679 20.126 -264.15 33.9619c-54.6816 10.0254 -103.255 20.2158 -145.721 30.5703c42.3945 10.3516 90.8105 20.5391 145.249 30.5625c75.1572 13.8359 163.05 25.1572 263.679 33.9619
c95.6445 8.36719 204.357 12.7607 326.138 13.1758c-2.18945 -55.0732 -5.40137 -106.861 -9.63477 -155.366c-33.7256 0.175781 -66.4502 0.663086 -98.1738 1.46191c7.76172 12.9424 15.8262 26.2061 24.1943 39.791l-12.5996 9
c-15.5059 -16.6426 -30.29 -32.5908 -44.3535 -47.8447zM1111.59 656.202c-121.541 0.398438 -230.238 4.79102 -326.098 13.1787c-100.629 8.80469 -188.679 20.126 -264.15 33.9619c-54.6816 10.0254 -103.255 20.2158 -145.721 30.5703
c42.3945 10.3516 90.8105 20.5391 145.249 30.5625c75.1572 13.8359 163.05 25.1572 263.679 33.9619c96.5635 8.44824 206.448 12.8447 329.653 13.1865c-0.0810547 -54.3457 -0.952148 -106.152 -2.6123 -155.422z" />
</svg>
