<?xml version="1.0" standalone="no"?>
<!DOCTYPE svg PUBLIC "-//W3C//DTD SVG 1.1//EN" "http://www.w3.org/Graphics/SVG/1.1/DTD/svg11.dtd" >
<svg xmlns="http://www.w3.org/2000/svg" xmlns:xlink="http://www.w3.org/1999/xlink" version="1.1" viewBox="0 0 1149 898">
   <path fill="currentColor"
d="M1139 809.173c-174.058 0 -329.009 4.40332 -464.858 13.208s-254.717 20.126 -356.604 33.9619c-101.887 13.8369 -188.066 27.9883 -258.538 42.4531c10.1885 -32.0762 15.2842 -65.0947 15.2842 -99.0566s-5.0957 -68.8682 -15.2842 -104.717
c64.8652 13.3135 142.856 26.3613 233.979 39.1445c-1.2627 -102.502 -5.5332 -195.337 -12.8105 -278.507c-8.80469 -100.629 -20.126 -188.679 -33.9619 -264.15c-13.8369 -75.4717 -27.9883 -139.309 -42.4531 -191.51c32.0762 7.54688 65.0947 11.3213 99.0566 11.3213
s68.8682 -3.77441 104.717 -11.3213c-14.4639 52.2012 -28.6152 115.88 -42.4531 191.038c-13.8359 75.1572 -25.1572 163.05 -33.9619 263.679c-7.36523 84.1895 -11.6514 178.504 -12.8555 282.943c101.163 13.752 219.367 25.0117 354.611 33.7773
c27.3604 1.77344 55.5137 3.36816 84.458 4.78418c-0.510742 -119.308 -4.89746 -226.16 -13.1572 -320.562c-0.264648 -3.03027 -0.532227 -6.04883 -0.801758 -9.05566c-7.50977 0.871094 -14.9062 1.7959 -22.1875 2.77637
c-65.4082 8.80469 -122.641 20.126 -171.697 33.9619c-49.0566 13.8369 -90.5508 27.9883 -124.481 42.4531c4.90527 -32.0762 7.3584 -65.0947 7.3584 -99.0566s-2.45312 -68.8682 -7.3584 -104.717c33.9307 14.4639 75.3223 28.6152 124.175 42.4531
c48.8525 13.8359 105.982 25.1572 171.391 33.9619c6.06055 0.81543 12.2021 1.59375 18.4238 2.33398c-7.92773 -78.0859 -17.5225 -147.839 -28.7832 -209.262c-13.8369 -75.4717 -27.9883 -139.309 -42.4531 -191.51c32.0762 7.54688 65.0947 11.3213 99.0566 11.3213
s68.8682 -3.77441 104.717 -11.3213c-14.4639 52.2012 -28.6152 115.88 -42.4531 191.038c-13.8359 75.1572 -25.1572 163.05 -33.9619 263.679c-8.28809 94.7324 -12.6768 202.285 -13.1631 322.657c64.6367 2.89355 133.104 4.92383 205.403 6.09082
c-0.362305 -122.23 -4.75684 -231.497 -13.1836 -327.805c-8.80469 -100.629 -20.126 -188.679 -33.9619 -264.15c-13.8369 -75.4717 -27.9883 -139.309 -42.4531 -191.51c32.0762 7.54688 65.0947 11.3213 99.0566 11.3213s68.8682 -3.77441 104.717 -11.3213
c-14.4639 52.2012 -28.6152 115.88 -42.4531 191.038c-13.8359 75.1572 -25.1572 163.05 -33.9619 263.679c-8.43555 96.4219 -12.832 206.125 -13.1846 329.109c41.1455 0.545898 83.5039 0.819336 127.073 0.819336v24.5273z" />
</svg>
