<?xml version="1.0" standalone="no"?>
<!DOCTYPE svg PUBLIC "-//W3C//DTD SVG 1.1//EN" "http://www.w3.org/Graphics/SVG/1.1/DTD/svg11.dtd" >
<svg xmlns="http://www.w3.org/2000/svg" xmlns:xlink="http://www.w3.org/1999/xlink" version="1.1" viewBox="0 0 1934 816">
   <path fill="currentColor"
d="M1342.22 355c-1.80566 -20.3701 -3.97656 -39.9775 -6.51367 -58.8213c-1.60547 -11.9258 -3.29395 -23.5801 -5.06738 -34.9629c-78.0107 0.475586 -147.847 4.86426 -209.51 13.165c-65.4082 8.80469 -122.641 20.126 -171.697 33.9619
c-49.0566 13.8369 -90.5508 27.9883 -124.481 42.4531c4.90527 -32.0762 7.3584 -65.0947 7.3584 -99.0566s-2.45312 -68.8682 -7.3584 -104.717c33.9307 14.4639 75.3223 28.6152 124.175 42.4531c48.8525 13.8359 105.982 25.1572 171.391 33.9619
c60.6182 8.15918 129.312 12.5391 206.082 13.1367c-7.1084 -41.1865 -15.3936 -78.5508 -24.8535 -112.093c-13.8369 -49.0566 -27.9883 -90.5508 -42.4531 -124.481c32.0762 4.90527 65.0947 7.3584 99.0566 7.3584s68.8682 -2.45312 104.717 -7.3584
c-14.4639 33.9307 -28.6152 75.3223 -42.4531 124.175c-13.8359 48.8525 -25.1572 105.982 -33.9619 171.391c-2.55957 19.0166 -4.74707 38.8281 -6.5625 59.4346h-37.8672zM1572.22 355c-1.80566 -20.3701 -3.97754 -39.9775 -6.51367 -58.8213
c-8.80469 -65.4082 -20.126 -122.641 -33.9619 -171.697c-13.8369 -49.0566 -27.9883 -90.5508 -42.4531 -124.481c32.0762 4.90527 65.0947 7.3584 99.0566 7.3584s68.8682 -2.45312 104.717 -7.3584c-14.4639 33.9307 -28.6152 75.3223 -42.4531 124.175
c-13.8359 48.8525 -25.1572 105.982 -33.9619 171.391c-2.55957 19.0166 -4.74707 38.8281 -6.56348 59.4346h-37.8662zM1802.22 355c-1.80566 -20.3701 -3.97754 -39.9775 -6.51367 -58.8213c-8.80469 -65.4082 -20.126 -122.641 -33.9619 -171.697
c-13.8369 -49.0566 -27.9883 -90.5508 -42.4531 -124.481c32.0762 4.90527 65.0947 7.3584 99.0566 7.3584s68.8682 -2.45312 104.717 -7.3584c-14.4639 33.9307 -28.6152 75.3223 -42.4531 124.175c-13.8359 48.8525 -25.1572 105.982 -33.9619 171.391
c-2.55957 19.0166 -4.74707 38.8281 -6.56348 59.4346h-37.8662zM1480 491.173c-106.368 0 -201.061 4.40332 -284.08 13.208s-155.66 20.126 -217.925 33.9619c-62.2637 13.8369 -114.929 27.9883 -157.995 42.4531c6.22656 -32.0762 9.33984 -65.0947 9.33984 -99.0566
s-3.11328 -68.8682 -9.33984 -104.717c43.0664 14.4639 95.6006 28.6152 157.606 42.4531c62.0049 13.8359 134.516 25.1572 217.535 33.9619c81.2725 8.61816 173.981 13.0205 278.128 13.2021c-0.668945 -0.947266 -1.33984 -1.89062 -2.01465 -2.83008
c-29.9209 -41.6982 -60.5225 -76.9688 -91.8008 -105.81c69.3613 4.16992 140.761 6.25488 214.2 6.25488s148.92 -2.08496 226.439 -6.25488c-31.2764 28.8408 -61.8779 64.0234 -91.8008 105.549c-29.9189 41.5244 -54.3994 90.085 -73.4395 145.683
c-19.0371 55.5967 -28.5605 119.187 -28.5605 190.769h-53.0381c0 -27.3496 -1.40332 -53.5469 -4.20996 -78.5908c-108.415 1.01953 -206.209 5.34375 -293.385 12.9717c-100.629 8.80469 -188.679 20.126 -264.15 33.9619
c-75.4717 13.8369 -139.309 27.9883 -191.51 42.4531c7.54688 -32.0762 11.3213 -65.0947 11.3213 -99.0566s-3.77441 -68.8682 -11.3213 -104.717c52.2012 14.4639 115.88 28.6152 191.038 42.4531c75.1572 13.8359 163.05 25.1572 263.679 33.9619
c86.3477 7.55469 183.347 11.8691 290.996 12.9424c-4.75684 -30.7236 -11.7627 -59.5996 -21.0186 -86.6279c-17.1504 -50.0811 -38.7158 -94.5234 -64.6943 -133.325v14.7461zM784.694 816.5c-60 -64.3994 -109.201 -118.399 -147.602 -162
c-29.5215 -33.5215 -55.498 -61.249 -77.9277 -83.1846c-73.3809 0.820312 -139.375 5.17578 -197.986 13.0654c-65.4082 8.80469 -122.641 20.126 -171.697 33.9619c-49.0566 13.8369 -90.5508 27.9883 -124.481 42.4531c4.90527 -32.0762 7.3584 -65.0947 7.3584 -99.0566
s-2.45312 -68.8682 -7.3584 -104.717c33.9307 14.4639 75.3223 28.6152 124.175 42.4531c48.8525 13.8359 105.982 25.1572 171.391 33.9619c55.3027 7.44336 117.327 11.7422 186.072 12.8926c22.1523 -22.3184 44.3037 -45.4619 66.4551 -69.4297
c11.5645 -12.5117 23.5098 -25.5166 35.8369 -39.0166c-4.05371 -4.56543 -7.99902 -9.02637 -11.8369 -13.3838c-29.5215 -33.5215 -55.498 -61.249 -77.9277 -83.1846c-73.3809 0.820312 -139.375 5.17578 -197.986 13.0654
c-65.4082 8.80469 -122.641 20.126 -171.697 33.9619c-49.0566 13.8369 -90.5508 27.9883 -124.481 42.4531c4.90527 -32.0762 7.3584 -65.0947 7.3584 -99.0566s-2.45312 -68.8682 -7.3584 -104.717c33.9307 14.4639 75.3223 28.6152 124.175 42.4531
c48.8525 13.8359 105.982 25.1572 171.391 33.9619c55.3027 7.44336 117.327 11.7422 186.072 12.8926c22.1523 -22.3184 44.3037 -45.4619 66.4551 -69.4297c24.4014 -26.4004 50.501 -55.001 78.3008 -85.8008s58.9004 -64.5996 93.3008 -101.4l12.5996 9
c-32.8008 52.4004 -60.9004 100.5 -84.3008 144.301s-42.7002 80.5 -57.9004 110.1c9.1084 17.9307 21.0508 40.7715 35.8281 68.5234c0.157227 -0.174805 0.31543 -0.348633 0.472656 -0.523438c27.7998 -30.7998 58.9004 -64.5996 93.3008 -101.4l12.5996 9
c-31.5244 50.3613 -58.7061 96.75 -81.5479 139.167c22.9004 42.0049 50.082 88.5508 81.5479 139.634l-12.5996 9c-34.9336 -37.4951 -66.2061 -71.4648 -93.8184 -101.909c-13.7422 25.9795 -25.6699 48.8154 -35.7832 68.5088
c12.8008 25.2012 31.2012 60.1006 55.2012 104.701c24 44.5986 52.999 94.5 87 149.699z" />
</svg>
