<?xml version="1.0" standalone="no"?>
<!DOCTYPE svg PUBLIC "-//W3C//DTD SVG 1.1//EN" "http://www.w3.org/Graphics/SVG/1.1/DTD/svg11.dtd" >
<svg xmlns="http://www.w3.org/2000/svg" xmlns:xlink="http://www.w3.org/1999/xlink" version="1.1" viewBox="0 0 1221 800">
   <path fill="currentColor"
d="M489.536 800c0 -128.932 -4.40332 -243.71 -13.208 -344.34c-8.80469 -100.629 -20.126 -188.679 -33.9619 -264.15c-13.8369 -75.4717 -27.9883 -139.309 -42.4531 -191.51c32.0762 7.54688 65.0947 11.3213 99.0566 11.3213s68.8682 -3.77441 104.717 -11.3213
c-14.4639 52.2012 -28.6152 115.88 -42.4531 191.038c-13.8359 75.1572 -25.1572 163.05 -33.9619 263.679c-8.80371 100.629 -13.208 215.724 -13.208 345.283h-24.5273zM1210.16 436.173c-106.368 0 -201.061 4.40332 -284.08 13.208s-155.66 20.126 -217.925 33.9619
c-62.2637 13.8369 -114.929 27.9883 -157.995 42.4531c6.22656 -32.0762 9.33984 -65.0947 9.33984 -99.0566s-3.11328 -68.8682 -9.33984 -104.717c43.0664 14.4639 95.6006 28.6152 157.606 42.4531c62.0049 13.8359 134.516 25.1572 217.535 33.9619
c83.0186 8.80371 177.972 13.208 284.858 13.208v24.5273zM386.4 770c-80 -85.8662 -145.601 -157.866 -196.801 -216c-51.1992 -58.1338 -94.3994 -103.2 -129.6 -135.2c32.5332 -32.5332 65.0664 -66.3994 97.5996 -101.6c32.5342 -35.2002 67.334 -73.334 104.4 -114.4
s78.5332 -86.1338 124.4 -135.2l16.7998 12c-43.7334 69.8672 -81.2002 134 -112.4 192.4s-56.9336 107.334 -77.2002 146.8c17.0664 33.6006 41.6006 80.1338 73.6006 139.601c32 59.4658 70.666 126 116 199.6z" />
</svg>
