<?xml version="1.0" standalone="no"?>
<!DOCTYPE svg PUBLIC "-//W3C//DTD SVG 1.1//EN" "http://www.w3.org/Graphics/SVG/1.1/DTD/svg11.dtd" >
<svg xmlns="http://www.w3.org/2000/svg" xmlns:xlink="http://www.w3.org/1999/xlink" version="1.1" viewBox="0 0 2009 800">
   <path fill="currentColor"
d="M489.536 800c0 -128.932 -4.40332 -243.71 -13.208 -344.34c-8.80469 -100.629 -20.126 -188.679 -33.9619 -264.15c-13.8369 -75.4717 -27.9883 -139.309 -42.4531 -191.51c32.0762 7.54688 65.0947 11.3213 99.0566 11.3213s68.8682 -3.77441 104.717 -11.3213
c-14.4639 52.2012 -28.6152 115.88 -42.4531 191.038c-13.8359 75.1572 -25.1572 163.05 -33.9619 263.679c-8.80371 100.629 -13.208 215.724 -13.208 345.283h-24.5273zM386.4 770c-80 -85.8662 -145.601 -157.866 -196.801 -216
c-51.1992 -58.1338 -94.3994 -103.2 -129.6 -135.2c32.5332 -32.5332 65.0664 -66.3994 97.5996 -101.6c32.5342 -35.2002 67.334 -73.334 104.4 -114.4s78.5332 -86.1338 124.4 -135.2l16.7998 12c-43.7334 69.8672 -81.2002 134 -112.4 192.4
s-56.9336 107.334 -77.2002 146.8c17.0664 33.6006 41.6006 80.1338 73.6006 139.601c32 59.4658 70.666 126 116 199.6zM1164.54 800c0 -128.932 -4.40332 -243.71 -13.208 -344.34c-0.555664 -6.34766 -1.12109 -12.6465 -1.69629 -18.8945
c-42.9912 1.47168 -82.0811 5.67676 -117.272 12.6152c-44.6543 8.80469 -83.7266 20.126 -117.217 33.9619c-33.4902 13.8369 -61.8184 27.9883 -84.9824 42.4531c2.95801 -28.3311 4.60938 -57.3984 4.95508 -87.2012c-29.6387 2.15625 -57.2236 5.75195 -82.7559 10.7861
c-44.6543 8.80469 -83.7266 20.126 -117.217 33.9619c-33.4902 13.8369 -61.8184 27.9883 -84.9824 42.4531c3.34863 -32.0762 5.02344 -65.0947 5.02344 -99.0566s-1.6748 -68.8682 -5.02344 -104.717c23.1641 14.4639 51.4219 28.6152 84.7734 42.4531
c33.3506 13.8359 72.3535 25.1572 117.007 33.9619c25.5908 5.04492 53.2891 8.64551 83.0967 10.7998c-0.475586 -28.4229 -2.10059 -57.4951 -4.87695 -87.2148c23.1641 14.4639 51.4219 28.6152 84.7734 42.4531c33.3506 13.8359 72.3535 25.1572 117.007 33.9619
c34.5645 6.81445 72.9746 10.9932 115.23 12.5332c-8.12109 -82.2227 -18.0566 -155.376 -29.8047 -219.461c-13.8369 -75.4717 -27.9883 -139.309 -42.4531 -191.51c32.0762 7.54688 65.0947 11.3213 99.0566 11.3213s68.8682 -3.77441 104.717 -11.3213
c-14.4639 52.2012 -28.6152 115.88 -42.4531 191.038c-13.8359 75.1572 -25.1572 163.05 -33.9619 263.679c-8.80371 100.629 -13.208 215.724 -13.208 345.283h-24.5273zM1394.54 800c0 -128.932 -4.40332 -243.71 -13.208 -344.34
c-8.80469 -100.629 -20.126 -188.679 -33.9619 -264.15c-13.8369 -75.4717 -27.9883 -139.309 -42.4531 -191.51c32.0762 7.54688 65.0947 11.3213 99.0566 11.3213s68.8682 -3.77441 104.717 -11.3213c-14.4639 52.2012 -28.6152 115.88 -42.4531 191.038
c-13.8359 75.1572 -25.1572 163.05 -33.9619 263.679c-8.80371 100.629 -13.208 215.724 -13.208 345.283h-24.5273zM1777.4 770c-80 -85.8662 -145.601 -157.866 -196.801 -216c-51.1992 -58.1338 -94.3994 -103.2 -129.6 -135.2
c32.5332 -32.5332 65.0664 -66.3994 97.5996 -101.6c32.5342 -35.2002 67.334 -73.334 104.4 -114.4s78.5332 -86.1338 124.4 -135.2l16.7998 12c-43.7334 69.8672 -81.2002 134 -112.4 192.4s-56.9336 107.334 -77.2002 146.8
c17.0664 33.6006 41.6006 80.1338 73.6006 139.601c32 59.4658 70.666 126 116 199.6zM1884.54 800c0 -128.932 -4.40332 -243.71 -13.208 -344.34c-8.80469 -100.629 -20.126 -188.679 -33.9619 -264.15c-13.8369 -75.4717 -27.9883 -139.309 -42.4531 -191.51
c32.0762 7.54688 65.0947 11.3213 99.0566 11.3213s68.8682 -3.77441 104.717 -11.3213c-14.4639 52.2012 -28.6152 115.88 -42.4531 191.038c-13.8359 75.1572 -25.1572 163.05 -33.9619 263.679c-8.80371 100.629 -13.208 215.724 -13.208 345.283h-24.5273z" />
</svg>
