<?xml version="1.0" standalone="no"?>
<!DOCTYPE svg PUBLIC "-//W3C//DTD SVG 1.1//EN" "http://www.w3.org/Graphics/SVG/1.1/DTD/svg11.dtd" >
<svg xmlns="http://www.w3.org/2000/svg" xmlns:xlink="http://www.w3.org/1999/xlink" version="1.1" viewBox="0 0 1221 926">
   <path fill="currentColor"
d="M1211 836.173c-83.8057 0 -158.411 4.40332 -223.821 13.208c-65.4082 8.80469 -122.641 20.126 -171.697 33.9619c-49.0566 13.8369 -90.5508 27.9883 -124.481 42.4531c4.4248 -28.9346 6.85449 -58.6367 7.28809 -89.1055
c-81.6172 1.39746 -155.721 5.62793 -222.314 12.6904c-83.0195 8.80469 -155.66 20.126 -217.925 33.9619c-62.2637 13.8369 -114.929 27.9883 -157.995 42.4531c6.22656 -32.0762 9.33984 -65.0947 9.33984 -99.0566c0 -26.7236 -1.92773 -54.0312 -5.7832 -81.9238
c-1.19141 0.327148 -2.37695 0.65332 -3.55664 0.980469c0.787109 -3.34375 1.53223 -6.69727 2.2373 -10.0605c-0.695312 -4.55566 -1.44043 -9.12695 -2.2373 -13.7129c1.52148 0.510742 3.05566 1.02148 4.60156 1.53223
c4.47949 -25.0459 6.71973 -50.6504 6.71973 -76.8154c0 -26.7861 -2.34766 -54.1602 -7.04297 -82.1211c-1.43457 0.392578 -2.86035 0.785156 -4.27832 1.17773c0.880859 -3.74219 1.70996 -7.49707 2.4873 -11.2646
c-0.777344 -4.15723 -1.60645 -8.32617 -2.4873 -12.5088c1.53906 0.426758 3.08789 0.852539 4.64648 1.27832c4.44922 -24.9648 6.6748 -50.4854 6.6748 -76.5615c0 -33.9619 -3.77441 -68.8682 -11.3213 -104.717c52.2012 14.4639 115.88 28.6152 191.038 42.4531
c75.1572 13.8359 163.05 25.1572 263.679 33.9619c49.0869 4.29492 101.616 7.54199 157.588 9.74219c-28.5234 -31.2002 -53.6113 -59.0938 -75.2656 -83.6797c-29.5215 -33.5215 -55.498 -61.249 -77.9277 -83.1846c-73.3809 0.820312 -139.375 5.17578 -197.986 13.0654
c-65.4082 8.80469 -122.641 20.126 -171.697 33.9619c-49.0566 13.8369 -90.5508 27.9883 -124.481 42.4531c4.90527 -32.0762 7.3584 -65.0947 7.3584 -99.0566s-2.45312 -68.8682 -7.3584 -104.717c33.9307 14.4639 75.3223 28.6152 124.175 42.4531
c48.8525 13.8359 105.982 25.1572 171.391 33.9619c55.3027 7.44336 117.327 11.7422 186.072 12.8926c22.1523 -22.3184 44.3037 -45.4619 66.4551 -69.4297c24.4014 -26.4004 50.501 -55.001 78.3008 -85.8008s58.9004 -64.5996 93.3008 -101.4l12.5996 9
c-32.8008 52.4004 -60.9004 100.5 -84.3008 144.301s-42.7002 80.5 -57.9004 110.1c12.8008 25.2012 31.2012 60.1006 55.2012 104.701c13.75 25.5518 29.1416 52.8438 46.1738 81.876c36.1748 1.03906 73.6992 1.66602 112.574 1.88281
c-8.46777 -90.6484 -19.0625 -170.665 -31.7822 -240.05c-13.8369 -75.4717 -27.9883 -139.309 -42.4531 -191.51c32.0762 7.54688 65.0947 11.3213 99.0566 11.3213s68.8682 -3.77441 104.717 -11.3213c-14.4639 52.2012 -28.6152 115.88 -42.4531 191.038
c-13.8359 75.1572 -25.1572 163.05 -33.9619 263.679c-8.02832 91.7676 -12.3984 195.565 -13.1055 311.394c24.3955 4.54688 50.2314 8.65527 77.5059 12.3271c65.4092 8.80371 140.221 13.208 224.435 13.208v24.5273zM698.188 811.131
c-0.634766 -29.0254 -3.03027 -58.7285 -7.1875 -89.1084c33.9307 14.4639 75.3223 28.6152 124.175 42.4531c21.4443 6.07324 44.4844 11.6621 69.1191 16.7666c-0.306641 -43.3535 -1.13477 -85.0332 -2.48242 -125.04
c-121.541 0.398438 -230.238 4.79102 -326.098 13.1787c-100.629 8.80469 -188.679 20.126 -264.15 33.9619c-56.5674 10.3711 -106.598 20.9189 -150.093 31.6426c34.0986 9.9834 72.8281 19.8135 116.189 29.4902c62.0049 13.8359 134.516 25.1572 217.535 33.9619
c66.6406 7.06738 140.972 11.2988 222.992 12.6934zM145.843 553.913c42.3945 10.3516 90.8105 20.5391 145.249 30.5625c75.1572 13.8359 163.05 25.1572 263.679 33.9619c95.6445 8.36719 204.357 12.7607 326.138 13.1758
c-2.18945 -55.0732 -5.40137 -106.861 -9.63477 -155.366c-33.7256 0.175781 -66.4502 0.663086 -98.1738 1.46191c7.76172 12.9424 15.8262 26.2061 24.1943 39.791l-12.5996 9c-15.5059 -16.6426 -30.29 -32.5908 -44.3535 -47.8447
c-66.083 2.16309 -127.625 5.73828 -184.627 10.7256c-100.629 8.80469 -188.679 20.126 -264.15 33.9619c-54.6816 10.0254 -103.255 20.2158 -145.721 30.5703z" />
</svg>
