<?xml version="1.0" standalone="no"?>
<!DOCTYPE svg PUBLIC "-//W3C//DTD SVG 1.1//EN" "http://www.w3.org/Graphics/SVG/1.1/DTD/svg11.dtd" >
<svg xmlns="http://www.w3.org/2000/svg" xmlns:xlink="http://www.w3.org/1999/xlink" version="1.1" viewBox="0 0 1569 919">
   <path fill="currentColor"
d="M1355.56 548.329c-40.4561 -40.457 -79.585 -73.3574 -117.386 -98.707s-73.4346 -44.9727 -106.899 -58.8701c-33.4658 -13.8975 -63.5029 -23.9219 -90.1104 -30.0732c22.1748 -17.9824 43.9443 -37.415 65.3086 -58.2979
c-23.2285 -20.2158 -45.9951 -37.8018 -68.2988 -52.7588c-37.8008 -25.3496 -73.4346 -44.9727 -106.899 -58.8701c-33.4658 -13.8975 -63.5029 -23.9219 -90.1104 -30.0732c25.0488 -20.3135 49.5811 -42.4766 73.5957 -66.4912s47.5127 -49.8818 70.4932 -77.5986
c6.15234 26.6074 16.127 56.5957 29.9258 89.9629c13.7988 33.3662 33.3721 68.9512 58.7217 106.751c14.9893 22.3506 32.6523 45.2012 52.9912 68.5498c19.8105 -20.4766 39.2646 -42.2314 58.3613 -65.2637c6.15234 26.6074 16.127 56.5957 29.9258 89.9629
c13.7988 33.3662 33.3721 68.9512 58.7217 106.751c25.3496 37.8008 58.3496 77.0293 99.0029 117.683zM1460 829.173c-128.932 0 -243.71 4.40332 -344.34 13.208c-100.629 8.80469 -188.679 20.126 -264.15 33.9619c-75.4717 13.8369 -139.309 27.9883 -191.51 42.4531
c7.54688 -32.0762 11.3213 -65.0947 11.3213 -99.0566c0 -25.6787 -2.1582 -51.8984 -6.47266 -78.6562c-84.2314 1.27832 -160.541 5.54492 -228.929 12.7979c-83.0195 8.80469 -155.66 20.126 -217.925 33.9619c-62.2637 13.8369 -114.929 27.9883 -157.995 42.4531
c6.22656 -32.0762 9.33984 -65.0947 9.33984 -99.0566s-3.11328 -68.8682 -9.33984 -104.717c43.0664 14.4639 95.6006 28.6152 157.606 42.4531c62.0049 13.8359 134.516 25.1572 217.535 33.9619c67.1826 7.12402 142.18 11.3672 224.993 12.7275
c-0.0449219 -0.213867 -0.0898438 -0.428711 -0.134766 -0.642578c0.818359 0.226562 1.63867 0.453125 2.46289 0.679688c18.7783 0.295898 37.957 0.443359 57.5371 0.443359v14.1787c38.9092 9.18066 82.5889 18.2314 131.038 27.1514
c75.1572 13.8359 163.05 25.1572 263.679 33.9619c96.5596 8.44727 206.439 12.8447 329.638 13.1865c-0.336914 -122.699 -4.7334 -232.352 -13.1865 -328.964c-8.80469 -100.629 -20.126 -188.679 -33.9619 -264.15c-13.8369 -75.4717 -27.9883 -139.309 -42.4531 -191.51
c32.0762 7.54688 65.0947 11.3213 99.0566 11.3213s68.8682 -3.77441 104.717 -11.3213c-14.4639 52.2012 -28.6152 115.88 -42.4531 191.038c-13.8359 75.1572 -25.1572 163.05 -33.9619 263.679c-8.80371 100.629 -13.208 215.724 -13.208 345.283h-8.90332v9.17285z
M784.641 526c-60 -64.3994 -109.201 -118.399 -147.602 -162c-29.5215 -33.5215 -55.498 -61.249 -77.9277 -83.1846c-73.3809 0.820312 -139.375 5.17578 -197.986 13.0654c-65.4082 8.80469 -122.641 20.126 -171.697 33.9619
c-49.0566 13.8369 -90.5508 27.9883 -124.481 42.4531c4.90527 -32.0762 7.3584 -65.0947 7.3584 -99.0566s-2.45312 -68.8682 -7.3584 -104.717c33.9307 14.4639 75.3223 28.6152 124.175 42.4531c48.8525 13.8359 105.982 25.1572 171.391 33.9619
c55.3027 7.44336 117.327 11.7422 186.072 12.8926c22.1523 -22.3184 44.3037 -45.4619 66.4551 -69.4297c24.4014 -26.4004 50.501 -55.001 78.3008 -85.8008s58.9004 -64.5996 93.3008 -101.4l12.5996 9c-32.8008 52.4004 -60.9004 100.5 -84.3008 144.301
s-42.7002 80.5 -57.9004 110.1c12.8008 25.2012 31.2012 60.1006 55.2012 104.701c24 44.5986 52.999 94.5 87 149.699z" />
</svg>
