<?xml version="1.0" standalone="no"?>
<!DOCTYPE svg PUBLIC "-//W3C//DTD SVG 1.1//EN" "http://www.w3.org/Graphics/SVG/1.1/DTD/svg11.dtd" >
<svg xmlns="http://www.w3.org/2000/svg" xmlns:xlink="http://www.w3.org/1999/xlink" version="1.1" viewBox="0 0 2830 888">
   <path fill="currentColor"
d="M799.43 800c0 -128.932 -4.40332 -243.71 -13.208 -344.34c-8.80469 -100.629 -20.126 -188.679 -33.9619 -264.15c-13.8369 -75.4717 -27.9883 -139.309 -42.4531 -191.51c32.0762 7.54688 65.0947 11.3213 99.0566 11.3213s68.8682 -3.77441 104.717 -11.3213
c-14.4639 52.2012 -28.6152 115.88 -42.4531 191.038c-13.8359 75.1572 -25.1572 163.05 -33.9619 263.679c-8.80371 100.629 -13.208 215.724 -13.208 345.283h-24.5273zM1029.43 800c0 -128.932 -4.40332 -243.71 -13.208 -344.34
c-8.80469 -100.629 -20.126 -188.679 -33.9619 -264.15c-13.8369 -75.4717 -27.9883 -139.309 -42.4531 -191.51c32.0762 7.54688 65.0947 11.3213 99.0566 11.3213s68.8682 -3.77441 104.717 -11.3213c-14.4639 52.2012 -28.6152 115.88 -42.4531 191.038
c-2.80664 15.2471 -5.51074 31.0186 -8.11035 47.3145c25.502 -18.8799 49.9844 -40.0498 73.4482 -63.5137c24.0146 -24.0146 46.9629 -50.4326 68.8428 -79.25c13.7656 34.2207 33.0273 73.4951 57.7861 117.824c24.7607 44.3271 57.1523 92.7295 97.1768 145.206
c11.6377 15.2568 24.0996 30.8125 37.3857 46.667c-11.8145 11.8154 -11.8145 11.8154 -26.7754 26.7764c-15.6807 -13.127 -31.0801 -25.4561 -46.1992 -36.9873c-52.4756 -40.0244 -100.951 -72.4883 -145.423 -97.3936
c-43.8281 -24.543 -82.6777 -43.6768 -116.549 -57.4014c-10.082 63.5479 -18.5967 135.026 -25.5449 214.437c-8.80371 100.629 -13.208 215.724 -13.208 345.283h-24.5273zM1400.88 752.062c-15.6807 -13.127 -31.0801 -25.4561 -46.1992 -36.9873
c-52.4756 -40.0244 -100.951 -72.4883 -145.423 -97.3936c-44.4727 -24.9043 -83.8193 -44.2383 -118.04 -58.0029c26.1494 -19.2129 51.2314 -40.8252 75.2461 -64.8398s46.9629 -50.4326 68.8428 -79.25c13.7656 34.2207 33.0273 73.4951 57.7861 117.824
c24.7607 44.3271 57.1523 92.7295 97.1768 145.206c11.6377 15.2568 24.0996 30.8125 37.3857 46.667c-11.8145 11.8154 -11.8145 11.8154 -26.7754 26.7764zM2655.35 175.841c-12.9092 -68.6777 -26.0908 -127.292 -39.5439 -175.841
c32.0762 7.54688 65.0947 11.3213 99.0566 11.3213s68.8682 -3.77441 104.717 -11.3213c-14.4639 52.2012 -28.6152 115.88 -42.4531 191.038c-13.8359 75.1572 -25.1572 163.05 -33.9619 263.679c-8.80371 100.629 -13.208 215.724 -13.208 345.283h-10.4355
c-2.45898 3.75 -6.95801 7.39648 -13.3262 10.2314c-9.42969 4.19824 -1045 7.70996 -1045 7.70996l-41.3154 10.0273c-100.174 24.3145 -165.504 43.0791 -187.049 53.7275c-17.2617 8.53125 -31.6641 8.73926 -37.5225 0.542969
c-2.37695 -3.32617 -4.3584 -7.23145 -4.3584 -8.5918c0 -4.19922 6.25977 -14.1348 15.8896 -25.2197c10.9482 -12.6045 19.418 -33.2578 25.5732 -62.3584c4.27441 -20.209 8.36914 -22.3535 3.64355 -68.3604c-0.911133 -8.86816 -4.97656 -59.4033 -3.64941 -59.4033
c1.32227 0 10.0449 5.70312 19.3838 12.6738c30.166 22.5166 55.7471 37.5723 94.7979 55.7939c27.9834 13.0566 47.3574 18.6914 68.6221 23.875c-0.992188 -109.055 -5.32129 -207.383 -12.9863 -294.988c-8.80469 -100.629 -20.126 -188.679 -33.9619 -264.15
c-13.8369 -75.4717 -27.9883 -139.309 -42.4531 -191.51c32.0762 7.54688 65.0947 11.3213 99.0566 11.3213s68.8682 -3.77441 104.717 -11.3213c-14.4639 52.2012 -28.6152 115.88 -42.4531 191.038c-13.8359 75.1572 -25.1572 163.05 -33.9619 263.679
c-7.80762 89.2412 -12.1553 189.86 -13.0391 301.855c10.9678 2.6416 23.1309 5.72461 37.4795 9.90527c0 0 67.3711 0.991211 167.737 2.49219c-0.654297 -116.39 -5.0293 -220.825 -13.1211 -313.31c-8.80469 -100.629 -20.126 -188.679 -33.9619 -264.15
c-13.8369 -75.4717 -27.9883 -139.309 -42.4531 -191.51c32.0762 7.54688 65.0947 11.3213 99.0566 11.3213s68.8682 -3.77441 104.717 -11.3213c-14.4639 52.2012 -28.6152 115.88 -42.4531 191.038c-13.8359 75.1572 -25.1572 163.05 -33.9619 263.679
c-8.10254 92.6201 -12.4795 197.494 -13.124 314.623c60.6182 0.908203 131.237 1.97168 205.32 3.09961c-0.586914 -117.785 -4.96777 -223.377 -13.1396 -316.779c-8.80469 -100.629 -20.126 -188.679 -33.9619 -264.15
c-13.8369 -75.4717 -27.9883 -139.309 -42.4531 -191.51c32.0762 7.54688 65.0947 11.3213 99.0566 11.3213s68.8682 -3.77441 104.717 -11.3213c-14.4639 52.2012 -28.6152 115.88 -42.4531 191.038c-13.8359 75.1572 -25.1572 163.05 -33.9619 263.679
c-8.18262 93.5352 -12.5654 199.568 -13.1426 318.099c261.092 3.98438 555.638 8.625 605.381 10.0225c-0.197266 -64.1094 -1.50488 -124.648 -3.92188 -181.62c-77.9277 0.481445 -147.694 4.87012 -209.303 13.1631c-65.4082 8.80469 -122.641 20.126 -171.697 33.9619
c-49.0566 13.8369 -90.5508 27.9883 -124.481 42.4531c4.90527 -32.0762 7.3584 -65.0947 7.3584 -99.0566c0 -32.834 -2.29297 -66.5508 -6.87793 -101.148l-0.480469 0.205078c0.0908203 -0.59375 0.180664 -1.18848 0.269531 -1.7832
c-0.0888672 -0.663086 -0.178711 -1.32617 -0.269531 -1.99023c0.176758 0.0751953 0.354492 0.151367 0.532227 0.226562c4.55078 -30.9619 6.82617 -62.7988 6.82617 -95.5098c0 -32.834 -2.29297 -66.5508 -6.87793 -101.148l-0.480469 0.205078
c0.0908203 -0.59375 0.180664 -1.18848 0.269531 -1.7832c-0.0888672 -0.663086 -0.178711 -1.32617 -0.269531 -1.99023c0.176758 0.0751953 0.354492 0.151367 0.532227 0.226562c4.55078 -30.9619 6.82617 -62.7988 6.82617 -95.5098
c0 -33.9619 -2.45312 -68.8682 -7.3584 -104.717c33.9307 14.4639 75.3223 28.6152 124.175 42.4531c48.8525 13.8359 105.982 25.1572 171.391 33.9619c49.2617 6.63086 103.857 10.7656 163.785 12.4033zM2660.13 201.859
c-61.4648 1.5498 -117.447 5.72363 -167.948 12.5215c-65.4082 8.80469 -122.641 20.126 -171.697 33.9619c-46.9219 13.2344 -86.9248 26.7568 -120.009 40.5664c33.0752 13.8086 72.9756 27.3311 119.702 40.5664c48.8525 13.8359 105.982 25.1572 171.391 33.9619
c57.1338 7.68945 121.441 12.0234 192.924 12.9961c-6.94727 -64.0586 -15.0684 -122.25 -24.3623 -174.574zM2687.1 401.352c-72.1553 0.90625 -137.128 5.25 -194.923 13.0293c-65.4082 8.80469 -122.641 20.126 -171.697 33.9619
c-46.9219 13.2344 -86.9248 26.7568 -120.009 40.5664c33.0752 13.8086 72.9756 27.3311 119.702 40.5664c48.8525 13.8359 105.982 25.1572 171.391 33.9619c61.3311 8.25488 130.928 12.6416 208.791 13.1562c-2.0752 -42.3574 -4.78711 -82.668 -8.13477 -120.934
c-1.62109 -18.5293 -3.32812 -36.6318 -5.12012 -54.3086zM541.395 316.236c-5.72949 -44.8203 -12.1074 -86.3955 -19.1348 -124.727c-13.8369 -75.4717 -27.9883 -139.309 -42.4531 -191.51c32.0762 7.54688 65.0947 11.3213 99.0566 11.3213
s68.8682 -3.77441 104.717 -11.3213c-14.4639 52.2012 -28.6152 115.88 -42.4531 191.038c-13.8359 75.1572 -25.1572 163.05 -33.9619 263.679c-8.80371 100.629 -13.208 215.724 -13.208 345.283h-24.5273c0 -81.9639 -1.7793 -158.208 -5.33789 -228.734
c-75.3564 0.677734 -142.993 5.0498 -202.913 13.1152c-65.4082 8.80469 -122.641 20.126 -171.697 33.9619c-49.0566 13.8369 -90.5508 27.9883 -124.481 42.4531c4.90527 -32.0762 7.3584 -65.0947 7.3584 -99.0566s-2.45312 -68.8682 -7.3584 -104.717
c33.9307 14.4639 75.3223 28.6152 124.175 42.4531c48.8525 13.8359 105.982 25.1572 171.391 33.9619c59.5928 8.02051 126.99 12.3896 202.192 13.1035c-1.81055 -31.4775 -3.98926 -61.7715 -6.53613 -90.8809c-3.50293 -40.0352 -7.4043 -78.0791 -11.7041 -114.132
c-67.542 1.20703 -128.653 5.49121 -183.339 12.8525c-65.4082 8.80469 -122.641 20.126 -171.697 33.9619c-49.0566 13.8369 -90.5508 27.9883 -124.481 42.4531c4.90527 -32.0762 7.3584 -65.0947 7.3584 -99.0566s-2.45312 -68.8682 -7.3584 -104.717
c33.9307 14.4639 75.3223 28.6152 124.175 42.4531c48.8525 13.8359 105.982 25.1572 171.391 33.9619c53.8936 7.25391 114.17 11.5205 180.829 12.7988z" />
</svg>
