<?xml version="1.0" standalone="no"?>
<!DOCTYPE svg PUBLIC "-//W3C//DTD SVG 1.1//EN" "http://www.w3.org/Graphics/SVG/1.1/DTD/svg11.dtd" >
<svg xmlns="http://www.w3.org/2000/svg" xmlns:xlink="http://www.w3.org/1999/xlink" version="1.1" viewBox="0 0 2094 1288">
   <path fill="currentColor"
d="M1686.36 658.479c-91.1689 91.168 -169.216 175.442 -234.146 252.824c-64.9287 77.3818 -119.185 147.647 -162.768 210.798c-43.582 63.1504 -78.7148 118.297 -105.398 165.437c-17.3457 -28.0176 -38.0244 -54.0342 -62.0391 -78.0488
s-51.3662 -46.0283 -82.0508 -66.041c47.1387 -26.6836 102.173 -61.7051 165.103 -105.065c62.9277 -43.3604 133.083 -97.5049 210.464 -162.435s161.88 -143.2 253.492 -234.812zM1670.17 625.81c-59.2588 -59.2598 -115.127 -108.9 -167.604 -148.927
c-52.4766 -40.0244 -100.951 -72.4883 -145.423 -97.3936c-44.4727 -24.9043 -83.8203 -44.2383 -118.041 -58.0029c26.1504 -19.2129 51.2324 -40.8252 75.2471 -64.8398s46.9629 -50.4316 68.8428 -79.249c13.7646 34.2197 33.0264 73.4941 57.7861 117.823
c24.7598 44.3271 57.1514 92.7295 97.1768 145.206c40.0264 52.4766 89.8115 108.491 149.359 168.039zM1739.51 1012c0 -83.8057 -4.40332 -158.411 -13.208 -223.821c-8.80469 -65.4082 -20.126 -122.641 -33.9619 -171.697
c-13.8369 -49.0566 -27.9883 -90.5508 -42.4531 -124.481c24.499 3.74707 49.5488 6.0625 75.1484 6.94824c-8.61523 -61.5762 -19.5137 -115.731 -32.6953 -162.467c-13.8369 -49.0566 -27.9883 -90.5508 -42.4531 -124.481c32.0762 4.90527 65.0947 7.3584 99.0566 7.3584
s68.8682 -2.45312 104.717 -7.3584c-14.4639 33.9307 -28.6152 75.3223 -42.4531 124.175c-13.2109 46.6455 -24.1289 100.837 -32.7529 162.576c24.5898 -1.00488 49.6582 -3.25488 75.2061 -6.75098c-14.4639 33.9307 -28.6152 75.3223 -42.4531 124.175
c-13.8359 48.8525 -25.1572 105.982 -33.9619 171.391c-8.80371 65.4092 -13.208 140.221 -13.208 224.435h-24.5273zM1969.51 1012c0 -83.8057 -4.40332 -158.411 -13.208 -223.821c-8.80469 -65.4082 -20.126 -122.641 -33.9619 -171.697
c-13.8369 -49.0566 -27.9883 -90.5508 -42.4531 -124.481c24.499 3.74707 49.5488 6.0625 75.1484 6.94824c-8.61523 -61.5762 -19.5137 -115.731 -32.6953 -162.467c-13.8369 -49.0566 -27.9883 -90.5508 -42.4531 -124.481c32.0762 4.90527 65.0947 7.3584 99.0566 7.3584
s68.8682 -2.45312 104.717 -7.3584c-14.4639 33.9307 -28.6152 75.3223 -42.4531 124.175c-13.2109 46.6455 -24.1289 100.837 -32.7529 162.576c24.5898 -1.00488 49.6582 -3.25488 75.2061 -6.75098c-14.4639 33.9307 -28.6152 75.3223 -42.4531 124.175
c-13.8359 48.8525 -25.1572 105.982 -33.9619 171.391c-8.80371 65.4092 -13.208 140.221 -13.208 224.435h-24.5273zM874.663 661.196c-15.6807 -13.1279 -31.0811 -25.457 -46.1992 -36.9873c-52.4766 -40.0254 -100.951 -72.4893 -145.423 -97.3936
c-44.4727 -24.9043 -83.8203 -44.2383 -118.041 -58.0029c26.1504 -19.2129 51.2324 -40.8262 75.2471 -64.8408s46.9629 -50.4316 68.8428 -79.249c13.7646 34.2197 33.0264 73.4951 57.7861 117.824c24.7607 44.3271 57.1523 92.7295 97.1768 145.206
c11.6367 15.2568 24.0986 30.8125 37.3857 46.667c-11.8145 11.8145 -11.8145 11.8145 -26.7754 26.7764zM1037.3 498.562c-15.6807 -13.127 -31.0801 -25.4561 -46.1982 -36.9873c-52.4766 -40.0244 -100.951 -72.4893 -145.423 -97.3936
c-44.4727 -24.9043 -83.8203 -44.2383 -118.041 -58.0029c26.1494 -19.2129 51.2324 -40.8262 75.2471 -64.8408s46.9619 -50.4316 68.8428 -79.249c13.7646 34.2207 33.0264 73.4951 57.7861 117.824c24.7598 44.3271 57.1514 92.7295 97.1768 145.206
c11.6367 15.2568 24.0986 30.8125 37.3848 46.668c-11.8135 11.8145 -11.8135 11.8145 -26.7754 26.7754zM1199.93 335.927c-15.6807 -13.127 -31.0811 -25.4561 -46.1982 -36.9873c-52.4766 -40.0244 -100.951 -72.4883 -145.424 -97.3936
c-44.4717 -24.9043 -83.8193 -44.2383 -118.04 -58.0029c26.1494 -19.2129 51.2324 -40.8252 75.2471 -64.8408c24.0146 -24.0146 46.9619 -50.4316 68.8428 -79.249c13.7646 34.2207 33.0264 73.4951 57.7852 117.824c24.7607 44.3271 57.1523 92.7295 97.1777 145.206
c11.6367 15.2568 24.0986 30.8125 37.3848 46.668zM1352.69 812.489c-50.3701 -50.3701 -101.944 -88.4785 -154.721 -114.33c-52.7773 -25.8506 -104.486 -42.9395 -155.127 -51.2676c-50.6416 -8.32812 -97.2207 -11.6299 -139.731 -9.90625
c51.9951 -46.0967 103.956 -95.1094 155.886 -147.039s103.828 -106.776 155.693 -164.54c-1.72168 42.5098 1.51758 89.0254 9.72168 139.547c8.20605 50.5186 25.2334 102.166 51.084 154.943c25.8516 52.7744 64.082 104.473 114.698 155.089zM354.663 1131.2
c-15.6807 -13.1279 -31.0811 -25.457 -46.1992 -36.9873c-52.4766 -40.0254 -100.951 -72.4893 -145.423 -97.3936c-44.4727 -24.9043 -83.8203 -44.2383 -118.041 -58.0029c26.1504 -19.2129 51.2324 -40.8262 75.2471 -64.8408s46.9629 -50.4316 68.8428 -79.249
c13.7646 34.2197 33.0264 73.4951 57.7861 117.824c24.7607 44.3271 57.1523 92.7295 97.1768 145.206c11.6367 15.2568 24.0986 30.8125 37.3857 46.667c-11.8145 11.8145 -11.8145 11.8145 -26.7754 26.7764zM517.297 968.562
c-15.6807 -13.127 -31.0801 -25.4561 -46.1982 -36.9873c-52.4766 -40.0244 -100.951 -72.4893 -145.423 -97.3936c-44.4727 -24.9043 -83.8203 -44.2383 -118.041 -58.0029c26.1494 -19.2129 51.2324 -40.8262 75.2471 -64.8408s46.9619 -50.4316 68.8428 -79.249
c13.7646 34.2207 33.0264 73.4951 57.7861 117.824c24.7598 44.3271 57.1514 92.7295 97.1768 145.206c11.6367 15.2568 24.0986 30.8125 37.3848 46.668c-11.8135 11.8145 -11.8135 11.8145 -26.7754 26.7754zM679.932 805.927
c-15.6807 -13.127 -31.0811 -25.4561 -46.1982 -36.9873c-52.4766 -40.0244 -100.951 -72.4883 -145.424 -97.3936c-44.4717 -24.9043 -83.8193 -44.2383 -118.04 -58.0029c26.1494 -19.2129 51.2324 -40.8252 75.2471 -64.8408
c24.0146 -24.0146 46.9619 -50.4316 68.8428 -79.249c13.7646 34.2207 33.0264 73.4951 57.7852 117.824c24.7607 44.3271 57.1523 92.7295 97.1777 145.206c11.6367 15.2568 24.0986 30.8125 37.3848 46.668zM832.694 1282.49
c-50.3701 -50.3701 -101.944 -88.4785 -154.721 -114.33c-52.7773 -25.8506 -104.486 -42.9395 -155.127 -51.2676c-50.6416 -8.32812 -97.2207 -11.6299 -139.731 -9.90625c51.9951 -46.0967 103.956 -95.1094 155.886 -147.039s103.828 -106.776 155.693 -164.54
c-1.72168 42.5098 1.51758 89.0254 9.72168 139.547c8.20605 50.5186 25.2334 102.166 51.084 154.943c25.8516 52.7744 64.082 104.473 114.698 155.089z" />
</svg>
