<?xml version="1.0" standalone="no"?>
<!DOCTYPE svg PUBLIC "-//W3C//DTD SVG 1.1//EN" "http://www.w3.org/Graphics/SVG/1.1/DTD/svg11.dtd" >
<svg xmlns="http://www.w3.org/2000/svg" xmlns:xlink="http://www.w3.org/1999/xlink" version="1.1" viewBox="0 0 3338 3282">
   <path fill="currentColor"
d="M1561.94 313.546c40.4561 -40.457 73.3574 -79.585 98.707 -117.386c25.3496 -37.8018 44.9717 -73.4355 58.8701 -106.9c13.8965 -33.4648 23.9209 -63.5029 30.0723 -90.1104c20.3135 25.0498 42.4766 49.5811 66.4922 73.5957
c24.0146 24.0146 49.8809 47.5127 77.5977 70.4941c-26.6074 6.15234 -56.5947 16.127 -89.9629 29.9248c-33.3662 13.7988 -68.9502 33.373 -106.751 58.7217c-37.8008 25.3506 -77.0293 58.3506 -117.683 99.0029zM1724.57 476.181
c40.4561 -40.457 73.3574 -79.585 98.707 -117.387c25.3486 -37.8008 44.9717 -73.4346 58.8701 -106.899c13.8965 -33.4648 23.9209 -63.5029 30.0723 -90.1104c20.3135 25.0488 42.4766 49.5811 66.4912 73.5957s49.8818 47.5127 77.5986 70.4941
c-26.6074 6.15137 -56.5947 16.127 -89.9629 29.9248c-33.3662 13.7988 -68.9502 33.373 -106.751 58.7217c-37.8008 25.3506 -77.0293 58.3506 -117.683 99.0029zM1887.21 638.814c40.457 -40.4561 73.3574 -79.584 98.707 -117.386
c25.3496 -37.8008 44.9727 -73.4346 58.8701 -106.899s23.9219 -63.5029 30.0732 -90.1104c20.3135 25.0488 42.4766 49.5811 66.4912 73.5957s49.8818 47.5127 77.5986 70.4941c-26.6074 6.15137 -56.5947 16.126 -89.9629 29.9248
c-33.3662 13.7988 -68.9512 33.373 -106.751 58.7217c-37.8008 25.3496 -77.0293 58.3496 -117.683 99.0029zM1405.91 786.844c50.3701 -50.3701 88.4785 -101.944 114.33 -154.721c25.8506 -52.7773 42.9395 -104.486 51.2676 -155.127
c8.32812 -50.6416 11.6299 -97.2207 9.90625 -139.731c46.0967 51.9951 95.1094 103.956 147.039 155.886s106.776 103.828 164.54 155.693c-42.5098 -1.72168 -89.0254 1.51758 -139.547 9.72168c-50.5186 8.20605 -102.166 25.2334 -154.943 51.084
c-52.7744 25.8516 -104.473 64.082 -155.089 114.698zM1416.4 1268.66c128.932 0 243.71 -4.40332 344.34 -13.208c100.629 -8.80469 188.679 -20.126 264.15 -33.9619c75.4717 -13.8369 139.309 -27.9883 191.51 -42.4531
c-7.54688 32.0762 -11.3213 65.0947 -11.3213 99.0566s3.77441 68.8682 11.3213 104.717c-52.2012 -14.4639 -115.88 -28.6152 -191.038 -42.4531c-75.1572 -13.8359 -163.05 -25.1572 -263.679 -33.9619c-100.629 -8.80371 -215.724 -13.208 -345.283 -13.208v-24.5273z
M1416.4 1038.66c128.932 0 243.71 -4.40332 344.34 -13.208c6.34766 -0.555664 12.6465 -1.12109 18.8945 -1.69629c-1.47168 -42.9912 -5.67676 -82.0811 -12.6152 -117.272c-8.80469 -44.6543 -20.126 -83.7266 -33.9619 -117.217
c-13.8369 -33.4902 -27.9883 -61.8184 -42.4531 -84.9824c32.0762 3.34863 65.0947 5.02344 99.0566 5.02344s68.8682 -1.6748 104.717 -5.02344c-14.4639 23.1641 -28.6152 51.4219 -42.4531 84.7734c-13.8359 33.3506 -25.1572 72.3535 -33.9619 117.007
c-6.81445 34.5645 -10.9932 72.9746 -12.5332 115.23c82.2227 -8.12109 155.376 -18.0566 219.461 -29.8047c75.4717 -13.8369 139.309 -27.9883 191.51 -42.4531c-7.54688 32.0762 -11.3213 65.0947 -11.3213 99.0566s3.77441 68.8682 11.3213 104.717
c-52.2012 -14.4639 -115.88 -28.6152 -191.038 -42.4531c-75.1572 -13.8359 -163.05 -25.1572 -263.679 -33.9619c-100.629 -8.80371 -215.724 -13.208 -345.283 -13.208v-24.5273zM1810.31 2967c-40.4561 40.457 -73.3574 79.585 -98.707 117.386
c-25.3496 37.8018 -44.9717 73.4355 -58.8701 106.9c-13.8965 33.4648 -23.9209 63.5029 -30.0723 90.1104c-20.3135 -25.0498 -42.4766 -49.5811 -66.4922 -73.5957c-24.0146 -24.0146 -49.8809 -47.5127 -77.5977 -70.4941
c26.6074 -6.15234 56.5947 -16.127 89.9629 -29.9248c33.3662 -13.7988 68.9502 -33.373 106.751 -58.7217c37.8008 -25.3506 77.0293 -58.3506 117.683 -99.0029zM1647.68 2804.37c-40.4561 40.457 -73.3574 79.585 -98.707 117.387
c-25.3486 37.8008 -44.9717 73.4346 -58.8701 106.899c-13.8965 33.4648 -23.9209 63.5029 -30.0723 90.1104c-20.3135 -25.0488 -42.4766 -49.5811 -66.4912 -73.5957s-49.8818 -47.5127 -77.5986 -70.4941c26.6074 -6.15137 56.5947 -16.127 89.9629 -29.9248
c33.3662 -13.7988 68.9502 -33.373 106.751 -58.7217c37.8008 -25.3506 77.0293 -58.3506 117.683 -99.0029zM1485.04 2641.74c-40.457 40.4561 -73.3574 79.584 -98.707 117.386c-25.3496 37.8008 -44.9727 73.4346 -58.8701 106.899s-23.9219 63.5029 -30.0732 90.1104
c-20.3135 -25.0488 -42.4766 -49.5811 -66.4912 -73.5957s-49.8818 -47.5127 -77.5986 -70.4941c26.6074 -6.15137 56.5947 -16.126 89.9629 -29.9248c33.3662 -13.7988 68.9512 -33.373 106.751 -58.7217c37.8008 -25.3496 77.0293 -58.3496 117.683 -99.0029z
M1966.34 2493.71c-50.3701 50.3701 -88.4785 101.944 -114.33 154.721c-25.8506 52.7773 -42.9395 104.486 -51.2676 155.127c-8.32812 50.6416 -11.6299 97.2207 -9.90625 139.731c-46.0967 -51.9951 -95.1094 -103.956 -147.039 -155.886
s-106.776 -103.828 -164.54 -155.693c42.5098 1.72168 89.0254 -1.51758 139.547 -9.72168c50.5186 -8.20605 102.166 -25.2334 154.943 -51.084c52.7744 -25.8516 104.473 -64.082 155.089 -114.698zM1955.85 2011.89c-128.932 0 -243.71 4.40332 -344.34 13.208
c-100.629 8.80469 -188.679 20.126 -264.15 33.9619c-75.4717 13.8369 -139.309 27.9883 -191.51 42.4531c7.54688 -32.0762 11.3213 -65.0947 11.3213 -99.0566s-3.77441 -68.8682 -11.3213 -104.717c52.2012 14.4639 115.88 28.6152 191.038 42.4531
c75.1572 13.8359 163.05 25.1572 263.679 33.9619c100.629 8.80371 215.724 13.208 345.283 13.208v24.5273zM1955.85 2241.89c-128.932 0 -243.71 4.40332 -344.34 13.208c-6.34766 0.555664 -12.6465 1.12109 -18.8945 1.69629
c1.47168 42.9912 5.67676 82.0811 12.6152 117.272c8.80469 44.6543 20.126 83.7266 33.9619 117.217c13.8369 33.4902 27.9883 61.8184 42.4531 84.9824c-32.0762 -3.34863 -65.0947 -5.02344 -99.0566 -5.02344s-68.8682 1.6748 -104.717 5.02344
c14.4639 -23.1641 28.6152 -51.4219 42.4531 -84.7734c13.8359 -33.3506 25.1572 -72.3535 33.9619 -117.007c6.81445 -34.5645 10.9932 -72.9746 12.5332 -115.23c-82.2227 8.12109 -155.376 18.0566 -219.461 29.8047c-75.4717 13.8369 -139.309 27.9883 -191.51 42.4531
c7.54688 -32.0762 11.3213 -65.0947 11.3213 -99.0566s-3.77441 -68.8682 -11.3213 -104.717c52.2012 14.4639 115.88 28.6152 191.038 42.4531c75.1572 13.8359 163.05 25.1572 263.679 33.9619c100.629 8.80371 215.724 13.208 345.283 13.208v24.5273zM3012.84 1516.09
c40.457 40.4561 79.585 73.3574 117.386 98.707c37.8018 25.3496 73.4355 44.9717 106.9 58.8701c33.4648 13.8965 63.5029 23.9209 90.1104 30.0723c-25.0498 20.3135 -49.5811 42.4766 -73.5957 66.4922c-24.0146 24.0146 -47.5127 49.8809 -70.4941 77.5977
c-6.15234 -26.6074 -16.127 -56.5947 -29.9248 -89.9629c-13.7988 -33.3662 -33.373 -68.9502 -58.7217 -106.751c-25.3506 -37.8008 -58.3506 -77.0293 -99.0029 -117.683zM2850.21 1678.72c40.457 40.4561 79.585 73.3574 117.387 98.707
c37.8008 25.3486 73.4346 44.9717 106.899 58.8701c33.4648 13.8965 63.5029 23.9209 90.1104 30.0723c-25.0488 20.3135 -49.5811 42.4766 -73.5957 66.4912s-47.5127 49.8818 -70.4941 77.5986c-6.15137 -26.6074 -16.127 -56.5947 -29.9248 -89.9629
c-13.7988 -33.3662 -33.373 -68.9502 -58.7217 -106.751c-25.3506 -37.8008 -58.3506 -77.0293 -99.0029 -117.683zM2687.58 1841.36c40.4561 40.457 79.584 73.3574 117.386 98.707c37.8008 25.3496 73.4346 44.9727 106.899 58.8701s63.5029 23.9219 90.1104 30.0732
c-25.0488 20.3135 -49.5811 42.4766 -73.5957 66.4912s-47.5127 49.8818 -70.4941 77.5986c-6.15137 -26.6074 -16.126 -56.5947 -29.9248 -89.9629c-13.7988 -33.3662 -33.373 -68.9512 -58.7217 -106.751c-25.3496 -37.8008 -58.3496 -77.0293 -99.0029 -117.683z
M2539.55 1360.06c50.3701 50.3701 101.944 88.4785 154.721 114.33c52.7773 25.8506 104.486 42.9395 155.127 51.2676c50.6416 8.32812 97.2207 11.6299 139.731 9.90625c-51.9951 46.0967 -103.956 95.1094 -155.886 147.039s-103.828 106.776 -155.693 164.54
c1.72168 -42.5098 -1.51758 -89.0254 -9.72168 -139.547c-8.20605 -50.5186 -25.2334 -102.166 -51.084 -154.943c-25.8516 -52.7744 -64.082 -104.473 -114.698 -155.089zM2057.73 1370.55c0 128.932 4.40332 243.71 13.208 344.34
c8.80469 100.629 20.126 188.679 33.9619 264.15c13.8369 75.4717 27.9883 139.309 42.4531 191.51c-32.0762 -7.54688 -65.0947 -11.3213 -99.0566 -11.3213s-68.8682 3.77441 -104.717 11.3213c14.4639 -52.2012 28.6152 -115.88 42.4531 -191.038
c13.8359 -75.1572 25.1572 -163.05 33.9619 -263.679c8.80371 -100.629 13.208 -215.724 13.208 -345.283h24.5273zM2287.73 1370.55c0 128.932 4.40332 243.71 13.208 344.34c0.555664 6.34766 1.12109 12.6465 1.69629 18.8945
c42.9912 -1.47168 82.0811 -5.67676 117.272 -12.6152c44.6543 -8.80469 83.7266 -20.126 117.217 -33.9619c33.4902 -13.8369 61.8184 -27.9883 84.9824 -42.4531c-3.34863 32.0762 -5.02344 65.0947 -5.02344 99.0566s1.6748 68.8682 5.02344 104.717
c-23.1641 -14.4639 -51.4219 -28.6152 -84.7734 -42.4531c-33.3506 -13.8359 -72.3535 -25.1572 -117.007 -33.9619c-34.5645 -6.81445 -72.9746 -10.9932 -115.23 -12.5332c8.12109 82.2227 18.0566 155.376 29.8047 219.461
c13.8369 75.4717 27.9883 139.309 42.4531 191.51c-32.0762 -7.54688 -65.0947 -11.3213 -99.0566 -11.3213s-68.8682 3.77441 -104.717 11.3213c14.4639 -52.2012 28.6152 -115.88 42.4531 -191.038c13.8359 -75.1572 25.1572 -163.05 33.9619 -263.679
c8.80371 -100.629 13.208 -215.724 13.208 -345.283h24.5273zM359.396 1764.46c-40.457 -40.4561 -79.585 -73.3574 -117.386 -98.707c-37.8018 -25.3496 -73.4355 -44.9717 -106.9 -58.8701c-33.4648 -13.8965 -63.5029 -23.9209 -90.1104 -30.0723
c25.0498 -20.3135 49.5811 -42.4766 73.5957 -66.4922c24.0146 -24.0146 47.5127 -49.8809 70.4941 -77.5977c6.15234 26.6074 16.127 56.5947 29.9248 89.9629c13.7988 33.3662 33.373 68.9502 58.7217 106.751c25.3506 37.8008 58.3506 77.0293 99.0029 117.683z
M522.031 1601.83c-40.457 -40.4561 -79.585 -73.3574 -117.387 -98.707c-37.8008 -25.3486 -73.4346 -44.9717 -106.899 -58.8701c-33.4648 -13.8965 -63.5029 -23.9209 -90.1104 -30.0723c25.0488 -20.3135 49.5811 -42.4766 73.5957 -66.4912
s47.5127 -49.8818 70.4941 -77.5986c6.15137 26.6074 16.127 56.5947 29.9248 89.9629c13.7988 33.3662 33.373 68.9502 58.7217 106.751c25.3506 37.8008 58.3506 77.0293 99.0029 117.683zM684.665 1439.19c-40.4561 -40.457 -79.584 -73.3574 -117.386 -98.707
c-37.8008 -25.3496 -73.4346 -44.9727 -106.899 -58.8701s-63.5029 -23.9219 -90.1104 -30.0732c25.0488 -20.3135 49.5811 -42.4766 73.5957 -66.4912s47.5127 -49.8818 70.4941 -77.5986c6.15137 26.6074 16.126 56.5947 29.9248 89.9629
c13.7988 33.3662 33.373 68.9512 58.7217 106.751c25.3496 37.8008 58.3496 77.0293 99.0029 117.683zM832.694 1920.49c-50.3701 -50.3701 -101.944 -88.4785 -154.721 -114.33c-52.7773 -25.8506 -104.486 -42.9395 -155.127 -51.2676
c-50.6416 -8.32812 -97.2207 -11.6299 -139.731 -9.90625c51.9951 -46.0967 103.956 -95.1094 155.886 -147.039s103.828 -106.776 155.693 -164.54c-1.72168 42.5098 1.51758 89.0254 9.72168 139.547c8.20605 50.5186 25.2334 102.166 51.084 154.943
c25.8516 52.7744 64.082 104.473 114.698 155.089zM1314.51 1910c0 -128.932 -4.40332 -243.71 -13.208 -344.34c-8.80469 -100.629 -20.126 -188.679 -33.9619 -264.15c-13.8369 -75.4717 -27.9883 -139.309 -42.4531 -191.51
c32.0762 7.54688 65.0947 11.3213 99.0566 11.3213s68.8682 -3.77441 104.717 -11.3213c-14.4639 52.2012 -28.6152 115.88 -42.4531 191.038c-13.8359 75.1572 -25.1572 163.05 -33.9619 263.679c-8.80371 100.629 -13.208 215.724 -13.208 345.283h-24.5273zM1084.51 1910
c0 -128.932 -4.40332 -243.71 -13.208 -344.34c-0.555664 -6.34766 -1.12109 -12.6465 -1.69629 -18.8945c-42.9912 1.47168 -82.0811 5.67676 -117.272 12.6152c-44.6543 8.80469 -83.7266 20.126 -117.217 33.9619c-33.4902 13.8369 -61.8184 27.9883 -84.9824 42.4531
c3.34863 -32.0762 5.02344 -65.0947 5.02344 -99.0566s-1.6748 -68.8682 -5.02344 -104.717c23.1641 14.4639 51.4219 28.6152 84.7734 42.4531c33.3506 13.8359 72.3535 25.1572 117.007 33.9619c34.5645 6.81445 72.9746 10.9932 115.23 12.5332
c-8.12109 -82.2227 -18.0566 -155.376 -29.8047 -219.461c-13.8369 -75.4717 -27.9883 -139.309 -42.4531 -191.51c32.0762 7.54688 65.0947 11.3213 99.0566 11.3213s68.8682 -3.77441 104.717 -11.3213c-14.4639 52.2012 -28.6152 115.88 -42.4531 191.038
c-13.8359 75.1572 -25.1572 163.05 -33.9619 263.679c-8.80371 100.629 -13.208 215.724 -13.208 345.283h-24.5273z" />
</svg>
