<?xml version="1.0" standalone="no"?>
<!DOCTYPE svg PUBLIC "-//W3C//DTD SVG 1.1//EN" "http://www.w3.org/Graphics/SVG/1.1/DTD/svg11.dtd" >
<svg xmlns="http://www.w3.org/2000/svg" xmlns:xlink="http://www.w3.org/1999/xlink" version="1.1" viewBox="0 0 3338 3282">
   <path fill="currentColor"
d="M1557.2 308.812c13.1279 -15.6807 25.457 -31.0811 36.9873 -46.1992c40.0254 -52.4766 72.4893 -100.951 97.3936 -145.423c24.9043 -44.4727 44.2383 -83.8203 58.0029 -118.041c19.2129 26.1504 40.8262 51.2324 64.8408 75.2471s50.4316 46.9629 79.249 68.8428
c-34.2197 13.7646 -73.4951 33.0264 -117.824 57.7861c-44.3271 24.7607 -92.7295 57.1523 -145.206 97.1768c-15.2568 11.6367 -30.8125 24.0986 -46.667 37.3857c-11.8145 -11.8145 -11.8145 -11.8145 -26.7764 -26.7754zM1719.84 471.446
c13.127 -15.6807 25.4561 -31.0801 36.9873 -46.1982c40.0244 -52.4766 72.4893 -100.951 97.3936 -145.423c24.9043 -44.4727 44.2383 -83.8203 58.0029 -118.041c19.2129 26.1494 40.8262 51.2324 64.8408 75.2471s50.4316 46.9619 79.249 68.8428
c-34.2207 13.7646 -73.4951 33.0264 -117.824 57.7861c-44.3271 24.7598 -92.7295 57.1514 -145.206 97.1768c-15.2568 11.6367 -30.8125 24.0986 -46.668 37.3848c-11.8145 -11.8135 -11.8145 -11.8135 -26.7754 -26.7754zM1882.47 634.081
c13.127 -15.6807 25.4561 -31.0811 36.9873 -46.1982c40.0244 -52.4766 72.4883 -100.951 97.3936 -145.424c24.9043 -44.4717 44.2383 -83.8193 58.0029 -118.04c19.2129 26.1494 40.8252 51.2324 64.8408 75.2471c24.0146 24.0146 50.4316 46.9619 79.249 68.8428
c-34.2207 13.7646 -73.4951 33.0264 -117.824 57.7852c-44.3271 24.7607 -92.7295 57.1523 -145.206 97.1777c-15.2568 11.6367 -30.8125 24.0986 -46.668 37.3848zM1405.91 786.844c50.3701 -50.3701 88.4785 -101.944 114.33 -154.721
c25.8506 -52.7773 42.9395 -104.486 51.2676 -155.127c8.32812 -50.6416 11.6299 -97.2207 9.90625 -139.731c46.0967 51.9951 95.1094 103.956 147.039 155.886s106.776 103.828 164.54 155.693c-42.5098 -1.72168 -89.0254 1.51758 -139.547 9.72168
c-50.5186 8.20605 -102.166 25.2334 -154.943 51.084c-52.7744 25.8516 -104.473 64.082 -155.089 114.698zM1416.4 1268.66c128.932 0 243.71 -4.40332 344.34 -13.208c100.629 -8.80469 188.679 -20.126 264.15 -33.9619
c75.4717 -13.8369 139.309 -27.9883 191.51 -42.4531c-7.54688 32.0762 -11.3213 65.0947 -11.3213 99.0566s3.77441 68.8682 11.3213 104.717c-52.2012 -14.4639 -115.88 -28.6152 -191.038 -42.4531c-75.1572 -13.8359 -163.05 -25.1572 -263.679 -33.9619
c-100.629 -8.80371 -215.724 -13.208 -345.283 -13.208v-24.5273zM1416.4 1038.66c128.932 0 243.71 -4.40332 344.34 -13.208c3.10645 -0.271484 6.20117 -0.545898 9.28418 -0.822266c-0.9375 -8.19043 -1.93848 -16.2461 -3.00488 -24.167
c-8.80469 -65.4082 -20.126 -122.641 -33.9619 -171.697c-13.8369 -49.0566 -27.9883 -90.5508 -42.4531 -124.481c32.0762 4.90527 65.0947 7.3584 99.0566 7.3584s68.8682 -2.45312 104.717 -7.3584c-14.4639 33.9307 -28.6152 75.3223 -42.4531 124.175
c-13.8359 48.8525 -25.1572 105.982 -33.9619 171.391c-0.904297 6.7168 -1.76172 13.5332 -2.57324 20.4482c78.1826 -7.93262 148.016 -17.5361 209.501 -28.8076c75.4717 -13.8369 139.309 -27.9883 191.51 -42.4531c-7.54688 32.0762 -11.3213 65.0947 -11.3213 99.0566
s3.77441 68.8682 11.3213 104.717c-52.2012 -14.4639 -115.88 -28.6152 -191.038 -42.4531c-75.1572 -13.8359 -163.05 -25.1572 -263.679 -33.9619c-100.629 -8.80371 -215.724 -13.208 -345.283 -13.208v-24.5273zM1815.05 2971.74
c-13.1279 15.6807 -25.457 31.0811 -36.9873 46.1992c-40.0254 52.4766 -72.4893 100.951 -97.3936 145.423c-24.9043 44.4727 -44.2383 83.8203 -58.0029 118.041c-19.2129 -26.1504 -40.8262 -51.2324 -64.8408 -75.2471s-50.4316 -46.9629 -79.249 -68.8428
c34.2197 -13.7646 73.4951 -33.0264 117.824 -57.7861c44.3271 -24.7607 92.7295 -57.1523 145.206 -97.1768c15.2568 -11.6367 30.8125 -24.0986 46.667 -37.3857c11.8145 11.8145 11.8145 11.8145 26.7764 26.7754zM1652.41 2809.1
c-13.127 15.6807 -25.4561 31.0801 -36.9873 46.1982c-40.0244 52.4766 -72.4893 100.951 -97.3936 145.423c-24.9043 44.4727 -44.2383 83.8203 -58.0029 118.041c-19.2129 -26.1494 -40.8262 -51.2324 -64.8408 -75.2471s-50.4316 -46.9619 -79.249 -68.8428
c34.2207 -13.7646 73.4951 -33.0264 117.824 -57.7861c44.3271 -24.7598 92.7295 -57.1514 145.206 -97.1768c15.2568 -11.6367 30.8125 -24.0986 46.668 -37.3848c11.8145 11.8135 11.8145 11.8135 26.7754 26.7754zM1489.78 2646.47
c-13.127 15.6807 -25.4561 31.0811 -36.9873 46.1982c-40.0244 52.4766 -72.4883 100.951 -97.3936 145.424c-24.9043 44.4717 -44.2383 83.8193 -58.0029 118.04c-19.2129 -26.1494 -40.8252 -51.2324 -64.8408 -75.2471
c-24.0146 -24.0146 -50.4316 -46.9619 -79.249 -68.8428c34.2207 -13.7646 73.4951 -33.0264 117.824 -57.7852c44.3271 -24.7607 92.7295 -57.1523 145.206 -97.1777c15.2568 -11.6367 30.8125 -24.0986 46.668 -37.3848zM1966.34 2493.71
c-50.3701 50.3701 -88.4785 101.944 -114.33 154.721c-25.8506 52.7773 -42.9395 104.486 -51.2676 155.127c-8.32812 50.6416 -11.6299 97.2207 -9.90625 139.731c-46.0967 -51.9951 -95.1094 -103.956 -147.039 -155.886s-106.776 -103.828 -164.54 -155.693
c42.5098 1.72168 89.0254 -1.51758 139.547 -9.72168c50.5186 -8.20605 102.166 -25.2334 154.943 -51.084c52.7744 -25.8516 104.473 -64.082 155.089 -114.698zM1955.85 2011.89c-128.932 0 -243.71 4.40332 -344.34 13.208
c-100.629 8.80469 -188.679 20.126 -264.15 33.9619c-75.4717 13.8369 -139.309 27.9883 -191.51 42.4531c7.54688 -32.0762 11.3213 -65.0947 11.3213 -99.0566s-3.77441 -68.8682 -11.3213 -104.717c52.2012 14.4639 115.88 28.6152 191.038 42.4531
c75.1572 13.8359 163.05 25.1572 263.679 33.9619c100.629 8.80371 215.724 13.208 345.283 13.208v24.5273zM1955.85 2241.89c-128.932 0 -243.71 4.40332 -344.34 13.208c-3.10645 0.271484 -6.20117 0.545898 -9.28418 0.822266
c0.9375 8.19043 1.93848 16.2461 3.00488 24.167c8.80469 65.4082 20.126 122.641 33.9619 171.697c13.8369 49.0566 27.9883 90.5508 42.4531 124.481c-32.0762 -4.90527 -65.0947 -7.3584 -99.0566 -7.3584s-68.8682 2.45312 -104.717 7.3584
c14.4639 -33.9307 28.6152 -75.3223 42.4531 -124.175c13.8359 -48.8525 25.1572 -105.982 33.9619 -171.391c0.904297 -6.7168 1.76172 -13.5332 2.57324 -20.4482c-78.1826 7.93262 -148.016 17.5361 -209.501 28.8076c-75.4717 13.8369 -139.309 27.9883 -191.51 42.4531
c7.54688 -32.0762 11.3213 -65.0947 11.3213 -99.0566s-3.77441 -68.8682 -11.3213 -104.717c52.2012 14.4639 115.88 28.6152 191.038 42.4531c75.1572 13.8359 163.05 25.1572 263.679 33.9619c100.629 8.80371 215.724 13.208 345.283 13.208v24.5273zM3017.58 1511.35
c15.6807 13.1279 31.0811 25.457 46.1992 36.9873c52.4766 40.0254 100.951 72.4893 145.423 97.3936c44.4727 24.9043 83.8203 44.2383 118.041 58.0029c-26.1504 19.2129 -51.2324 40.8262 -75.2471 64.8408s-46.9629 50.4316 -68.8428 79.249
c-13.7646 -34.2197 -33.0264 -73.4951 -57.7861 -117.824c-24.7607 -44.3271 -57.1523 -92.7295 -97.1768 -145.206c-11.6367 -15.2568 -24.0986 -30.8125 -37.3857 -46.667c11.8145 -11.8145 11.8145 -11.8145 26.7754 -26.7764zM2854.94 1673.99
c15.6807 13.127 31.0801 25.4561 46.1982 36.9873c52.4766 40.0244 100.951 72.4893 145.423 97.3936c44.4727 24.9043 83.8203 44.2383 118.041 58.0029c-26.1494 19.2129 -51.2324 40.8262 -75.2471 64.8408s-46.9619 50.4316 -68.8428 79.249
c-13.7646 -34.2207 -33.0264 -73.4951 -57.7861 -117.824c-24.7598 -44.3271 -57.1514 -92.7295 -97.1768 -145.206c-11.6367 -15.2568 -24.0986 -30.8125 -37.3848 -46.668c11.8135 -11.8145 11.8135 -11.8145 26.7754 -26.7754zM2692.31 1836.62
c15.6807 13.127 31.0811 25.4561 46.1982 36.9873c52.4766 40.0244 100.951 72.4883 145.424 97.3936c44.4717 24.9043 83.8193 44.2383 118.04 58.0029c-26.1494 19.2129 -51.2324 40.8252 -75.2471 64.8408c-24.0146 24.0146 -46.9619 50.4316 -68.8428 79.249
c-13.7646 -34.2207 -33.0264 -73.4951 -57.7852 -117.824c-24.7607 -44.3271 -57.1523 -92.7295 -97.1777 -145.206c-11.6367 -15.2568 -24.0986 -30.8125 -37.3848 -46.668zM2539.55 1360.06c50.3701 50.3701 101.944 88.4785 154.721 114.33
c52.7773 25.8506 104.486 42.9395 155.127 51.2676c50.6416 8.32812 97.2207 11.6299 139.731 9.90625c-51.9951 46.0967 -103.956 95.1094 -155.886 147.039s-103.828 106.776 -155.693 164.54c1.72168 -42.5098 -1.51758 -89.0254 -9.72168 -139.547
c-8.20605 -50.5186 -25.2334 -102.166 -51.084 -154.943c-25.8516 -52.7744 -64.082 -104.473 -114.698 -155.089zM2057.73 1370.55c0 128.932 4.40332 243.71 13.208 344.34c8.80469 100.629 20.126 188.679 33.9619 264.15
c13.8369 75.4717 27.9883 139.309 42.4531 191.51c-32.0762 -7.54688 -65.0947 -11.3213 -99.0566 -11.3213s-68.8682 3.77441 -104.717 11.3213c14.4639 -52.2012 28.6152 -115.88 42.4531 -191.038c13.8359 -75.1572 25.1572 -163.05 33.9619 -263.679
c8.80371 -100.629 13.208 -215.724 13.208 -345.283h24.5273zM2287.73 1370.55c0 128.932 4.40332 243.71 13.208 344.34c0.271484 3.10645 0.545898 6.20117 0.822266 9.28418c8.19043 -0.9375 16.2461 -1.93848 24.167 -3.00488
c65.4082 -8.80469 122.641 -20.126 171.697 -33.9619c49.0566 -13.8369 90.5508 -27.9883 124.481 -42.4531c-4.90527 32.0762 -7.3584 65.0947 -7.3584 99.0566s2.45312 68.8682 7.3584 104.717c-33.9307 -14.4639 -75.3223 -28.6152 -124.175 -42.4531
c-48.8525 -13.8359 -105.982 -25.1572 -171.391 -33.9619c-6.7168 -0.904297 -13.5332 -1.76172 -20.4482 -2.57324c7.93262 78.1826 17.5361 148.016 28.8076 209.501c13.8369 75.4717 27.9883 139.309 42.4531 191.51
c-32.0762 -7.54688 -65.0947 -11.3213 -99.0566 -11.3213s-68.8682 3.77441 -104.717 11.3213c14.4639 -52.2012 28.6152 -115.88 42.4531 -191.038c13.8359 -75.1572 25.1572 -163.05 33.9619 -263.679c8.80371 -100.629 13.208 -215.724 13.208 -345.283h24.5273z
M354.663 1769.2c-15.6807 -13.1279 -31.0811 -25.457 -46.1992 -36.9873c-52.4766 -40.0254 -100.951 -72.4893 -145.423 -97.3936c-44.4727 -24.9043 -83.8203 -44.2383 -118.041 -58.0029c26.1504 -19.2129 51.2324 -40.8262 75.2471 -64.8408
s46.9629 -50.4316 68.8428 -79.249c13.7646 34.2197 33.0264 73.4951 57.7861 117.824c24.7607 44.3271 57.1523 92.7295 97.1768 145.206c11.6367 15.2568 24.0986 30.8125 37.3857 46.667c-11.8145 11.8145 -11.8145 11.8145 -26.7754 26.7764zM517.297 1606.56
c-15.6807 -13.127 -31.0801 -25.4561 -46.1982 -36.9873c-52.4766 -40.0244 -100.951 -72.4893 -145.423 -97.3936c-44.4727 -24.9043 -83.8203 -44.2383 -118.041 -58.0029c26.1494 -19.2129 51.2324 -40.8262 75.2471 -64.8408s46.9619 -50.4316 68.8428 -79.249
c13.7646 34.2207 33.0264 73.4951 57.7861 117.824c24.7598 44.3271 57.1514 92.7295 97.1768 145.206c11.6367 15.2568 24.0986 30.8125 37.3848 46.668c-11.8135 11.8145 -11.8135 11.8145 -26.7754 26.7754zM679.932 1443.93
c-15.6807 -13.127 -31.0811 -25.4561 -46.1982 -36.9873c-52.4766 -40.0244 -100.951 -72.4883 -145.424 -97.3936c-44.4717 -24.9043 -83.8193 -44.2383 -118.04 -58.0029c26.1494 -19.2129 51.2324 -40.8252 75.2471 -64.8408
c24.0146 -24.0146 46.9619 -50.4316 68.8428 -79.249c13.7646 34.2207 33.0264 73.4951 57.7852 117.824c24.7607 44.3271 57.1523 92.7295 97.1777 145.206c11.6367 15.2568 24.0986 30.8125 37.3848 46.668zM832.694 1920.49
c-50.3701 -50.3701 -101.944 -88.4785 -154.721 -114.33c-52.7773 -25.8506 -104.486 -42.9395 -155.127 -51.2676c-50.6416 -8.32812 -97.2207 -11.6299 -139.731 -9.90625c51.9951 -46.0967 103.956 -95.1094 155.886 -147.039s103.828 -106.776 155.693 -164.54
c-1.72168 42.5098 1.51758 89.0254 9.72168 139.547c8.20605 50.5186 25.2334 102.166 51.084 154.943c25.8516 52.7744 64.082 104.473 114.698 155.089zM1314.51 1910c0 -128.932 -4.40332 -243.71 -13.208 -344.34c-8.80469 -100.629 -20.126 -188.679 -33.9619 -264.15
c-13.8369 -75.4717 -27.9883 -139.309 -42.4531 -191.51c32.0762 7.54688 65.0947 11.3213 99.0566 11.3213s68.8682 -3.77441 104.717 -11.3213c-14.4639 52.2012 -28.6152 115.88 -42.4531 191.038c-13.8359 75.1572 -25.1572 163.05 -33.9619 263.679
c-8.80371 100.629 -13.208 215.724 -13.208 345.283h-24.5273zM1084.51 1910c0 -128.932 -4.40332 -243.71 -13.208 -344.34c-0.271484 -3.10645 -0.545898 -6.20117 -0.822266 -9.28418c-8.19043 0.9375 -16.2461 1.93848 -24.167 3.00488
c-65.4082 8.80469 -122.641 20.126 -171.697 33.9619c-49.0566 13.8369 -90.5508 27.9883 -124.481 42.4531c4.90527 -32.0762 7.3584 -65.0947 7.3584 -99.0566s-2.45312 -68.8682 -7.3584 -104.717c33.9307 14.4639 75.3223 28.6152 124.175 42.4531
c48.8525 13.8359 105.982 25.1572 171.391 33.9619c6.7168 0.904297 13.5332 1.76172 20.4482 2.57324c-7.93262 -78.1826 -17.5361 -148.016 -28.8076 -209.501c-13.8369 -75.4717 -27.9883 -139.309 -42.4531 -191.51c32.0762 7.54688 65.0947 11.3213 99.0566 11.3213
s68.8682 -3.77441 104.717 -11.3213c-14.4639 52.2012 -28.6152 115.88 -42.4531 191.038c-13.8359 75.1572 -25.1572 163.05 -33.9619 263.679c-8.80371 100.629 -13.208 215.724 -13.208 345.283h-24.5273z" />
</svg>
