<?xml version="1.0" standalone="no"?>
<!DOCTYPE svg PUBLIC "-//W3C//DTD SVG 1.1//EN" "http://www.w3.org/Graphics/SVG/1.1/DTD/svg11.dtd" >
<svg xmlns="http://www.w3.org/2000/svg" xmlns:xlink="http://www.w3.org/1999/xlink" version="1.1" viewBox="0 0 723 1080">
   <path fill="currentColor"
d="M138.623 635c0 -57.2139 -4.40332 -108.146 -13.208 -152.801s-20.126 -83.7266 -33.9619 -117.217c-13.8369 -33.4902 -27.9883 -61.8184 -42.4531 -84.9824c28.3311 2.95801 57.3984 4.60938 87.2012 4.95508c-2.15625 -29.6387 -5.75195 -57.2236 -10.7861 -82.7559
c-8.80469 -44.6543 -20.126 -83.7266 -33.9619 -117.217c-13.8369 -33.4902 -27.9883 -61.8184 -42.4531 -84.9824c32.0762 3.34863 65.0947 5.02344 99.0566 5.02344s68.8682 -1.6748 104.717 -5.02344c-14.4639 23.1641 -28.6152 51.4219 -42.4531 84.7734
c-13.8359 33.3506 -25.1572 72.3535 -33.9619 117.007c-5.04492 25.5908 -8.64551 53.2891 -10.7998 83.0967c28.4229 -0.475586 57.4951 -2.10059 87.2148 -4.87695c-14.4639 23.1641 -28.6152 51.4219 -42.4531 84.7734
c-13.8359 33.3506 -25.1572 72.3535 -33.9619 117.007c-8.80371 44.6543 -13.208 95.7275 -13.208 153.22h-24.5273zM368.623 635c0 -57.2139 -4.40332 -108.146 -13.208 -152.801s-20.126 -83.7266 -33.9619 -117.217
c-13.8369 -33.4902 -27.9883 -61.8184 -42.4531 -84.9824c28.3311 2.95801 57.3984 4.60938 87.2012 4.95508c-2.15625 -29.6387 -5.75195 -57.2236 -10.7861 -82.7559c-8.80469 -44.6543 -20.126 -83.7266 -33.9619 -117.217
c-13.8369 -33.4902 -27.9883 -61.8184 -42.4531 -84.9824c32.0762 3.34863 65.0947 5.02344 99.0566 5.02344s68.8682 -1.6748 104.717 -5.02344c-14.4639 23.1641 -28.6152 51.4219 -42.4531 84.7734c-13.8359 33.3506 -25.1572 72.3535 -33.9619 117.007
c-5.04492 25.5908 -8.64551 53.2891 -10.7998 83.0967c28.4229 -0.475586 57.4951 -2.10059 87.2148 -4.87695c-14.4639 23.1641 -28.6152 51.4219 -42.4531 84.7734c-13.8359 33.3506 -25.1572 72.3535 -33.9619 117.007c-8.80371 44.6543 -13.208 95.7275 -13.208 153.22
h-24.5273zM598.623 635c0 -57.2139 -4.40332 -108.146 -13.208 -152.801s-20.126 -83.7266 -33.9619 -117.217c-13.8369 -33.4902 -27.9883 -61.8184 -42.4531 -84.9824c28.3311 2.95801 57.3984 4.60938 87.2012 4.95508
c-2.15625 -29.6387 -5.75195 -57.2236 -10.7861 -82.7559c-8.80469 -44.6543 -20.126 -83.7266 -33.9619 -117.217c-13.8369 -33.4902 -27.9883 -61.8184 -42.4531 -84.9824c32.0762 3.34863 65.0947 5.02344 99.0566 5.02344s68.8682 -1.6748 104.717 -5.02344
c-14.4639 23.1641 -28.6152 51.4219 -42.4531 84.7734c-13.8359 33.3506 -25.1572 72.3535 -33.9619 117.007c-5.04492 25.5908 -8.64551 53.2891 -10.7998 83.0967c28.4229 -0.475586 57.4951 -2.10059 87.2148 -4.87695
c-14.4639 23.1641 -28.6152 51.4219 -42.4531 84.7734c-13.8359 33.3506 -25.1572 72.3535 -33.9619 117.007c-8.80371 44.6543 -13.208 95.7275 -13.208 153.22h-24.5273zM362.968 1080c0 -71.2344 -9.52148 -134.649 -28.5605 -190.248
c-19.04 -55.5977 -43.5205 -104.245 -73.4395 -145.942c-29.9209 -41.6982 -60.5225 -76.9688 -91.8008 -105.81c69.3613 4.16992 140.761 6.25488 214.2 6.25488s148.92 -2.08496 226.439 -6.25488c-31.2764 28.8408 -61.8779 64.0234 -91.8008 105.549
c-29.9189 41.5244 -54.3994 90.085 -73.4395 145.683c-19.0371 55.5967 -28.5605 119.187 -28.5605 190.769h-53.0381z" />
</svg>
