<?xml version="1.0" standalone="no"?>
<!DOCTYPE svg PUBLIC "-//W3C//DTD SVG 1.1//EN" "http://www.w3.org/Graphics/SVG/1.1/DTD/svg11.dtd" >
<svg xmlns="http://www.w3.org/2000/svg" xmlns:xlink="http://www.w3.org/1999/xlink" version="1.1" viewBox="0 0 1150 762">
   <path fill="currentColor"
d="M1140 113.173c-174.058 0 -329.009 4.40332 -464.858 13.208s-254.717 20.126 -356.604 33.9619c-101.887 13.8369 -188.066 27.9883 -258.538 42.4531c10.1885 -32.0762 15.2842 -65.0947 15.2842 -99.0566s-5.0957 -68.8682 -15.2842 -104.717
c70.4717 14.4639 156.438 28.6152 257.901 42.4531c101.462 13.8359 220.117 25.1572 355.966 33.9619c135.85 8.80371 291.228 13.208 466.133 13.208v24.5273zM620.294 531.771c-8.67578 -62.7451 -19.7061 -117.841 -33.0879 -165.289
c-13.8369 -49.0566 -27.9883 -90.5508 -42.4531 -124.481c32.0762 4.90527 65.0947 7.3584 99.0566 7.3584s68.8682 -2.45312 104.717 -7.3584c-14.4639 33.9307 -28.6152 75.3223 -42.4531 124.175c-13.6787 48.2988 -24.9004 104.688 -33.6611 169.168
c0.484375 0.0322266 0.969727 0.0634766 1.45508 0.0947266c56.0371 3.63184 115.397 6.51465 178.081 8.64844c-0.256836 -1.97754 -0.516602 -3.94629 -0.780273 -5.90723c-8.80469 -65.4082 -20.126 -122.641 -33.9619 -171.697
c-13.8369 -49.0566 -27.9883 -90.5508 -42.4531 -124.481c32.0762 4.90527 65.0947 7.3584 99.0566 7.3584s68.8682 -2.45312 104.717 -7.3584c-14.4639 33.9307 -28.6152 75.3223 -42.4531 124.175c-13.8359 48.8525 -25.1572 105.982 -33.9619 171.391
c-0.357422 2.6582 -0.708008 5.33203 -1.05176 8.02051c75.125 2.04004 154.771 3.05957 238.94 3.05957v24.5273c-85.4297 0 -166.256 1.06055 -242.48 3.18164c-5.74316 55.749 -8.61621 117.631 -8.61621 185.646h-24.5273
c0 -67.4053 -2.84863 -128.859 -8.54492 -184.364c-63.5791 2.14355 -123.809 5.05859 -180.689 8.74512c-2.89844 0.1875 -5.78906 0.376953 -8.67188 0.567383c-5.04395 52.9648 -7.56641 111.315 -7.56641 175.052h-24.5273
c0 -62.5771 -2.45508 -120.024 -7.36426 -172.344c-68.7041 4.90527 -132.791 10.4941 -192.263 16.7666c-3.89648 47.6982 -5.8457 99.5576 -5.8457 155.577h-24.5273c0 -54.4258 -1.85742 -104.972 -5.57129 -151.639c-27.834 3.16699 -54.5898 6.49414 -80.2666 9.98145
c-101.887 13.8369 -188.066 27.9883 -258.538 42.4531c10.1885 -32.0762 15.2842 -65.0947 15.2842 -99.0566s-5.0957 -68.8682 -15.2842 -104.717c70.4717 14.4639 156.438 28.6152 257.901 42.4531c22.2637 3.03613 45.3555 5.95117 69.2744 8.74512
c-8.15137 -53.8887 -18.1416 -101.802 -29.9697 -143.739c-13.8369 -49.0566 -27.9883 -90.5508 -42.4531 -124.481c32.0762 4.90527 65.0947 7.3584 99.0566 7.3584s68.8682 -2.45312 104.717 -7.3584c-14.4639 33.9307 -28.6152 75.3223 -42.4531 124.175
c-12.3359 43.5547 -22.6719 93.6895 -31.0088 150.404c54.5381 5.62988 112.948 10.6943 175.229 15.1914z" />
</svg>
