<?xml version="1.0" standalone="no"?>
<!DOCTYPE svg PUBLIC "-//W3C//DTD SVG 1.1//EN" "http://www.w3.org/Graphics/SVG/1.1/DTD/svg11.dtd" >
<svg xmlns="http://www.w3.org/2000/svg" xmlns:xlink="http://www.w3.org/1999/xlink" version="1.1" viewBox="0 0 1689 905">
   <path fill="currentColor"
d="M1151.49 776c0 -96.6992 -3.30273 -182.782 -9.90625 -258.255c-6.60352 -75.4717 -15.0947 -141.509 -25.4717 -198.112c-9.33008 -50.8877 -18.8496 -94.7217 -28.5596 -131.503c-11.8545 2.32324 -23.375 4.72754 -34.5596 7.21289
c-62.2637 13.8369 -114.929 27.9883 -157.995 42.4531c6.22656 -32.0762 9.33984 -65.0947 9.33984 -99.0566s-3.11328 -68.8682 -9.33984 -104.717c43.0664 14.4639 95.6006 28.6152 157.606 42.4531c62.0049 13.8359 134.516 25.1572 217.535 33.9619
c69.5615 7.37695 147.503 11.665 233.822 12.8613c-9.59082 -46.5322 -19.3271 -87.6318 -29.2109 -123.299c32.0762 7.54688 65.0947 11.3213 99.0566 11.3213s68.8682 -3.77441 104.717 -11.3213c-14.4639 52.2012 -28.6152 115.88 -42.4531 191.038
c-13.8359 75.1572 -25.1572 163.05 -33.9619 263.679c-8.80371 100.629 -13.208 215.724 -13.208 345.283h-8.90332v16.1729c-174.058 0 -329.009 4.40332 -464.858 13.208s-254.717 20.126 -356.604 33.9619c-101.887 13.8369 -188.066 27.9883 -258.538 42.4531
c10.1885 -32.0762 15.2842 -65.0947 15.2842 -99.0566s-5.0957 -68.8682 -15.2842 -104.717c70.4717 14.4639 156.438 28.6152 257.901 42.4531c8.61816 1.1748 17.3613 2.33203 26.2285 3.47168c-0.388672 -40.376 -1.23633 -79.2764 -2.54199 -116.702
c-76.3604 0.601562 -144.828 4.98145 -205.409 13.1357c-65.4082 8.80469 -122.641 20.126 -171.697 33.9619c-49.0566 13.8369 -90.5508 27.9883 -124.481 42.4531c4.90527 -32.0762 7.3584 -65.0947 7.3584 -99.0566s-2.45312 -68.8682 -7.3584 -104.717
c33.9307 14.4639 75.3223 28.6152 124.175 42.4531c48.8525 13.8359 105.982 25.1572 171.391 33.9619c60.3564 8.12402 128.718 12.501 205.086 13.1289c-2.19336 -53.4141 -5.35449 -103.716 -9.4834 -150.906c-6.20117 -70.8789 -13.6514 -135.517 -22.3496 -193.914
c-63.3115 1.45215 -120.857 5.66406 -172.64 12.6348c-65.4082 8.80469 -122.641 20.126 -171.697 33.9619c-49.0566 13.8369 -90.5508 27.9883 -124.481 42.4531c4.90527 -32.0762 7.3584 -65.0947 7.3584 -99.0566s-2.45312 -68.8682 -7.3584 -104.717
c33.9307 14.4639 75.3223 28.6152 124.175 42.4531c48.8525 13.8359 105.982 25.1572 171.391 33.9619c50.7607 6.83203 107.184 11.0146 169.27 12.5449c-2.45215 -15.2803 -4.99512 -30.1045 -7.62891 -44.4727c-13.8369 -75.4717 -27.9883 -139.309 -42.4531 -191.51
c32.0762 7.54688 65.0947 11.3213 99.0566 11.3213s68.8682 -3.77441 104.717 -11.3213c-14.4639 52.2012 -28.6152 115.88 -42.4531 191.038c-13.8359 75.1572 -25.1572 163.05 -33.9619 263.679c-7.67969 87.7773 -12.0117 186.562 -12.9922 296.353
c89.5586 10.8818 191.141 20.0049 304.748 27.3682c131.789 8.54102 281.957 12.9404 450.503 13.1963c-0.1875 -125.536 -4.58789 -237.525 -13.2021 -335.974c-8.80469 -100.629 -20.126 -188.679 -33.9619 -264.15
c-2.71289 -14.7988 -5.43848 -29.1494 -8.17578 -43.0537c-87.876 1.10059 -167.246 5.40918 -238.11 12.9248c-55.0312 5.83594 -105.503 12.7783 -151.414 20.8262c12.8301 1.52246 25.8506 2.28418 39.0615 2.28418c25.4717 0 51.6514 -2.83105 78.5371 -8.49121
c-10.8477 39.1504 -21.4609 86.9102 -31.8398 143.278c-10.377 56.3682 -18.8682 122.288 -25.4717 197.759c-6.60254 75.4727 -9.90527 161.793 -9.90527 258.963h-18.3955zM1323.99 776c0 -62.8545 -3.30273 -118.809 -9.90625 -167.866
c-6.60352 -49.0557 -15.0947 -91.9805 -25.4717 -128.772c-10.3779 -36.793 -20.9912 -67.9131 -31.8398 -93.3613c18.375 2.80957 37.1621 4.54688 56.3613 5.21094c-6.46094 -46.1816 -14.6357 -86.7988 -24.5215 -121.85
c-10.3779 -36.793 -20.9912 -67.9131 -31.8398 -93.3613c24.0576 3.67871 48.8213 5.51855 74.293 5.51855s51.6514 -1.83984 78.5371 -5.51855c-10.8477 25.4482 -21.4609 56.4922 -31.8398 93.1309c-9.9082 34.9844 -18.0967 75.6279 -24.5654 121.932
c18.4434 -0.75293 37.2451 -2.44043 56.4053 -5.0625c-10.8477 25.4482 -21.4609 56.4922 -31.8398 93.1309c-10.377 36.6396 -18.8682 79.4873 -25.4717 128.543c-6.60254 49.0566 -9.90527 105.166 -9.90527 168.326h-18.3955zM455 447.867
c-20.3701 1.80566 -39.9775 3.97754 -58.8213 6.51367c-65.4082 8.80469 -122.641 20.126 -171.697 33.9619c-49.0566 13.8369 -90.5508 27.9883 -124.481 42.4531c4.90527 -32.0762 7.3584 -65.0947 7.3584 -99.0566s-2.45312 -68.8682 -7.3584 -104.717
c33.9307 14.4639 75.3223 28.6152 124.175 42.4531c48.8525 13.8359 105.982 25.1572 171.391 33.9619c19.0166 2.55957 38.8281 4.74707 59.4346 6.5625v37.8672z" />
</svg>
