<?xml version="1.0" standalone="no"?>
<!DOCTYPE svg PUBLIC "-//W3C//DTD SVG 1.1//EN" "http://www.w3.org/Graphics/SVG/1.1/DTD/svg11.dtd" >
<svg xmlns="http://www.w3.org/2000/svg" xmlns:xlink="http://www.w3.org/1999/xlink" version="1.1" viewBox="0 0 1689 905">
   <path fill="currentColor"
d="M1025.38 546.193c0 -42.9102 -3.30273 -81.1094 -9.90625 -114.601c-6.60352 -33.4902 -15.0947 -62.7949 -25.4717 -87.9121c-10.377 -25.1182 -20.9912 -46.3643 -31.8398 -63.7373c24.0576 2.51172 48.8213 3.76758 74.293 3.76758s51.6514 -1.25586 78.5371 -3.76758
c-10.8477 17.373 -21.4609 38.5664 -31.8398 63.5801c-10.377 25.0137 -18.8672 54.2656 -25.4707 87.7559s-9.90625 71.7949 -9.90625 114.914h-18.3955zM1197.88 546.193c0 -42.9102 -3.30273 -81.1094 -9.90625 -114.601
c-6.60352 -33.4902 -15.0947 -62.7949 -25.4717 -87.9121c-10.377 -25.1182 -20.9912 -46.3643 -31.8398 -63.7373c24.0576 2.51172 48.8213 3.76758 74.293 3.76758s51.6514 -1.25586 78.5371 -3.76758c-10.8477 17.373 -21.4609 38.5664 -31.8398 63.5801
c-10.377 25.0137 -18.8672 54.2656 -25.4707 87.7559s-9.90625 71.7949 -9.90625 114.914h-18.3955zM1370.38 546.193c0 -42.9102 -3.30273 -81.1094 -9.90625 -114.601c-6.60352 -33.4902 -15.0947 -62.7949 -25.4717 -87.9121
c-10.377 -25.1182 -20.9912 -46.3643 -31.8398 -63.7373c24.0576 2.51172 48.8213 3.76758 74.293 3.76758s51.6514 -1.25586 78.5371 -3.76758c-10.8477 17.373 -21.4609 38.5664 -31.8398 63.5801c-10.377 25.0137 -18.8672 54.2656 -25.4707 87.7559
s-9.90625 71.7949 -9.90625 114.914h-18.3955zM455 441.173c-57.2139 0 -108.146 4.40332 -152.801 13.208s-83.7266 20.126 -117.217 33.9619c-33.4902 13.8369 -61.8184 27.9883 -84.9824 42.4531c3.34863 -32.0762 5.02344 -65.0947 5.02344 -99.0566
s-1.6748 -68.8682 -5.02344 -104.717c23.1641 14.4639 51.4219 28.6152 84.7734 42.4531c33.3506 13.8359 72.3535 25.1572 117.007 33.9619c44.6543 8.80371 95.7275 13.208 153.22 13.208v24.5273zM1184.46 782.526c-3.22754 -15.7881 -7.30566 -30.877 -12.2334 -45.2686
c-14.2803 -41.6982 -32.6406 -78.1836 -55.0791 -109.457c-22.4414 -31.2734 -45.3926 -57.7266 -68.8506 -79.3574c52.0205 3.12793 105.57 4.69141 160.649 4.69141c55.0801 0 111.69 -1.56348 169.83 -4.69141c-23.457 21.6309 -46.4082 48.0176 -68.8506 79.1621
c-22.4395 31.1436 -40.7998 67.5635 -55.0801 109.262c-5.24023 15.3027 -9.51855 31.4131 -12.8359 48.3311c98.7207 4.11328 206.176 6.25977 322.364 6.43555c-0.1875 -125.536 -4.58789 -237.525 -13.2021 -335.974
c-8.80469 -100.629 -20.126 -188.679 -33.9619 -264.15c-2.71289 -14.7988 -5.43848 -29.1494 -8.17578 -43.0537c-87.876 1.10059 -167.246 5.40918 -238.11 12.9248c-83.0195 8.80469 -155.66 20.126 -217.925 33.9619
c-62.2637 13.8369 -114.929 27.9883 -157.995 42.4531c6.22656 -32.0762 9.33984 -65.0947 9.33984 -99.0566s-3.11328 -68.8682 -9.33984 -104.717c43.0664 14.4639 95.6006 28.6152 157.606 42.4531c62.0049 13.8359 134.516 25.1572 217.535 33.9619
c69.5615 7.37695 147.503 11.665 233.822 12.8613c-9.59082 -46.5322 -19.3271 -87.6318 -29.2109 -123.299c32.0762 7.54688 65.0947 11.3213 99.0566 11.3213s68.8682 -3.77441 104.717 -11.3213c-14.4639 52.2012 -28.6152 115.88 -42.4531 191.038
c-13.8359 75.1572 -25.1572 163.05 -33.9619 263.679c-8.80371 100.629 -13.208 215.724 -13.208 345.283h-8.90332v16.1729c-124.294 0 -238.846 2.24512 -343.655 6.73535c-1.94824 18.1943 -2.92285 37.2061 -2.92285 57.0352h-39.7783
c0 -19.0518 -0.908203 -37.3574 -2.72461 -54.918c-25.8867 1.30762 -51.1465 2.75879 -75.7773 4.35547c-135.85 8.80469 -254.717 20.126 -356.604 33.9619c-101.887 13.8369 -188.066 27.9883 -258.538 42.4531c10.1885 -32.0762 15.2842 -65.0947 15.2842 -99.0566
s-5.0957 -68.8682 -15.2842 -104.717c70.4717 14.4639 156.438 28.6152 257.901 42.4531c8.61816 1.1748 17.3613 2.33203 26.2285 3.47168c-0.388672 -40.376 -1.23633 -79.2764 -2.54199 -116.702c-76.3604 0.601562 -144.828 4.98145 -205.409 13.1357
c-65.4082 8.80469 -122.641 20.126 -171.697 33.9619c-49.0566 13.8369 -90.5508 27.9883 -124.481 42.4531c4.90527 -32.0762 7.3584 -65.0947 7.3584 -99.0566s-2.45312 -68.8682 -7.3584 -104.717c33.9307 14.4639 75.3223 28.6152 124.175 42.4531
c48.8525 13.8359 105.982 25.1572 171.391 33.9619c60.3564 8.12402 128.718 12.501 205.086 13.1289c-2.19336 -53.4141 -5.35449 -103.716 -9.4834 -150.906c-6.20117 -70.8789 -13.6514 -135.517 -22.3496 -193.914c-63.3115 1.45215 -120.857 5.66406 -172.64 12.6348
c-65.4082 8.80469 -122.641 20.126 -171.697 33.9619c-49.0566 13.8369 -90.5508 27.9883 -124.481 42.4531c4.90527 -32.0762 7.3584 -65.0947 7.3584 -99.0566s-2.45312 -68.8682 -7.3584 -104.717c33.9307 14.4639 75.3223 28.6152 124.175 42.4531
c48.8525 13.8359 105.982 25.1572 171.391 33.9619c50.7607 6.83203 107.184 11.0146 169.27 12.5449c-2.45215 -15.2803 -4.99512 -30.1045 -7.62891 -44.4727c-13.8369 -75.4717 -27.9883 -139.309 -42.4531 -191.51c32.0762 7.54688 65.0947 11.3213 99.0566 11.3213
s68.8682 -3.77441 104.717 -11.3213c-14.4639 52.2012 -28.6152 115.88 -42.4531 191.038c-13.8359 75.1572 -25.1572 163.05 -33.9619 263.679c-7.67969 87.7773 -12.0117 186.562 -12.9922 296.353c89.5586 10.8818 191.141 20.0049 304.748 27.3682
c22.9717 1.48828 46.501 2.85156 70.5889 4.08887z" />
</svg>
