<?xml version="1.0" standalone="no"?>
<!DOCTYPE svg PUBLIC "-//W3C//DTD SVG 1.1//EN" "http://www.w3.org/Graphics/SVG/1.1/DTD/svg11.dtd" >
<svg xmlns="http://www.w3.org/2000/svg" xmlns:xlink="http://www.w3.org/1999/xlink" version="1.1" viewBox="0 0 1689 905">
   <path fill="currentColor"
d="M455 441.173c-57.2139 0 -108.146 4.40332 -152.801 13.208s-83.7266 20.126 -117.217 33.9619c-33.4902 13.8369 -61.8184 27.9883 -84.9824 42.4531c3.34863 -32.0762 5.02344 -65.0947 5.02344 -99.0566s-1.6748 -68.8682 -5.02344 -104.717
c23.1641 14.4639 51.4219 28.6152 84.7734 42.4531c33.3506 13.8359 72.3535 25.1572 117.007 33.9619c44.6543 8.80371 95.7275 13.208 153.22 13.208v24.5273zM1580 816.173c-174.058 0 -329.009 4.40332 -464.858 13.208s-254.717 20.126 -356.604 33.9619
c-101.887 13.8369 -188.066 27.9883 -258.538 42.4531c10.1885 -32.0762 15.2842 -65.0947 15.2842 -99.0566s-5.0957 -68.8682 -15.2842 -104.717c70.4717 14.4639 156.438 28.6152 257.901 42.4531c8.61816 1.1748 17.3613 2.33203 26.2285 3.47168
c-0.388672 -40.376 -1.23633 -79.2764 -2.54199 -116.702c-76.3604 0.601562 -144.828 4.98145 -205.409 13.1357c-65.4082 8.80469 -122.641 20.126 -171.697 33.9619c-49.0566 13.8369 -90.5508 27.9883 -124.481 42.4531
c4.90527 -32.0762 7.3584 -65.0947 7.3584 -99.0566s-2.45312 -68.8682 -7.3584 -104.717c33.9307 14.4639 75.3223 28.6152 124.175 42.4531c48.8525 13.8359 105.982 25.1572 171.391 33.9619c60.3564 8.12402 128.718 12.501 205.086 13.1289
c-2.19336 -53.4141 -5.35449 -103.716 -9.4834 -150.906c-6.20117 -70.8789 -13.6514 -135.517 -22.3496 -193.914c-63.3115 1.45215 -120.857 5.66406 -172.64 12.6348c-65.4082 8.80469 -122.641 20.126 -171.697 33.9619
c-49.0566 13.8369 -90.5508 27.9883 -124.481 42.4531c4.90527 -32.0762 7.3584 -65.0947 7.3584 -99.0566s-2.45312 -68.8682 -7.3584 -104.717c33.9307 14.4639 75.3223 28.6152 124.175 42.4531c48.8525 13.8359 105.982 25.1572 171.391 33.9619
c50.7607 6.83203 107.184 11.0146 169.27 12.5449c-2.45215 -15.2803 -4.99512 -30.1045 -7.62891 -44.4727c-13.8369 -75.4717 -27.9883 -139.309 -42.4531 -191.51c32.0762 7.54688 65.0947 11.3213 99.0566 11.3213s68.8682 -3.77441 104.717 -11.3213
c-14.4639 52.2012 -28.6152 115.88 -42.4531 191.038c-13.8359 75.1572 -25.1572 163.05 -33.9619 263.679c-7.67969 87.7773 -12.0117 186.562 -12.9922 296.353c69.54 8.44922 146.329 15.8389 230.369 22.167c-0.741211 -81.8633 -3.98926 -155.67 -9.74219 -221.423
c-6.60352 -75.4717 -15.0947 -141.509 -25.4717 -198.112c-9.98926 -54.4814 -20.1963 -100.88 -30.6211 -139.193c-29.0479 7.66992 -55.2666 15.4326 -78.6533 23.2881c6.22656 -32.0762 9.33984 -65.0947 9.33984 -99.0566s-3.11328 -68.8682 -9.33984 -104.717
c43.0664 14.4639 95.6006 28.6152 157.606 42.4531c62.0049 13.8359 134.516 25.1572 217.535 33.9619c69.5615 7.37695 147.503 11.665 233.822 12.8613c-9.59082 -46.5322 -19.3271 -87.6318 -29.2109 -123.299c32.0762 7.54688 65.0947 11.3213 99.0566 11.3213
s68.8682 -3.77441 104.717 -11.3213c-14.4639 52.2012 -28.6152 115.88 -42.4531 191.038c-13.8359 75.1572 -25.1572 163.05 -33.9619 263.679c-8.80371 100.629 -13.208 215.724 -13.208 345.283h-8.90332v16.1729zM982.357 212.234
c20.9307 4.2168 42.3867 6.3252 64.3701 6.3252c25.4707 0 51.6504 -2.83105 78.5371 -8.49121c-10.8477 39.1514 -21.4609 86.9102 -31.8398 143.279c-10.377 56.3672 -18.8682 122.287 -25.4717 197.759c-5.78809 66.166 -9.04102 140.67 -9.75488 223.513
c18.2236 1.32129 36.7803 2.59375 55.6689 3.81836c131.789 8.54102 281.957 12.9404 450.503 13.1963c-0.137695 -92.0664 -2.54102 -176.847 -7.21094 -254.343c-70.5068 0.579102 -133.873 3.85059 -190.1 9.81348c-62.2646 6.60352 -116.745 15.0947 -163.443 25.4717
c-46.6973 10.377 -86.1963 20.9912 -118.496 31.8398c4.66992 -24.0576 7.00488 -48.8213 7.00488 -74.293s-2.33496 -51.6514 -7.00488 -78.5371c32.2998 10.8477 71.7002 21.4609 118.205 31.8398c46.5029 10.377 100.887 18.8672 163.151 25.4707
c55.9443 5.93359 119.114 9.20215 189.51 9.80371c-1.4248 -21.5967 -3.03125 -42.6094 -4.81836 -63.04c-8.80469 -100.629 -20.126 -188.679 -33.9619 -264.15c-2.71289 -14.7988 -5.43848 -29.1494 -8.17578 -43.0537c-87.876 1.10059 -167.246 5.40918 -238.11 12.9248
c-83.0195 8.80469 -155.66 20.126 -217.925 33.9619c-25.1064 5.5791 -48.6523 11.21 -70.6377 16.8916z" />
</svg>
