<?xml version="1.0" standalone="no"?>
<!DOCTYPE svg PUBLIC "-//W3C//DTD SVG 1.1//EN" "http://www.w3.org/Graphics/SVG/1.1/DTD/svg11.dtd" >
<svg xmlns="http://www.w3.org/2000/svg" xmlns:xlink="http://www.w3.org/1999/xlink" version="1.1" viewBox="0 0 1146 800">
   <path fill="currentColor"
d="M585 341.173c-83.8057 0 -158.411 4.40332 -223.821 13.208c-65.4082 8.80469 -122.641 20.126 -171.697 33.9619c-49.0566 13.8369 -90.5508 27.9883 -124.481 42.4531c4.90527 -32.0762 7.3584 -65.0947 7.3584 -99.0566s-2.45312 -68.8682 -7.3584 -104.717
c33.9307 14.4639 75.3223 28.6152 124.175 42.4531c48.8525 13.8359 105.982 25.1572 171.391 33.9619c65.4092 8.80371 140.221 13.208 224.435 13.208v24.5273zM729.292 562.257c-8.50879 -59.6387 -19.1865 -112.23 -32.0322 -157.775
c-13.8369 -49.0566 -27.9883 -90.5508 -42.4531 -124.481c32.0762 4.90527 65.0947 7.3584 99.0566 7.3584s68.8682 -2.45312 104.717 -7.3584c-14.4639 33.9307 -28.6152 75.3223 -42.4531 124.175c-13.5098 47.7012 -24.6221 103.294 -33.335 166.778
c5.85449 0.849609 11.7793 1.67773 17.7734 2.48438c61.3887 8.2627 131.059 12.6504 209.012 13.1582c-0.439453 -3.49805 -0.891602 -6.9707 -1.35547 -10.417c-8.80469 -65.4082 -20.126 -122.641 -33.9619 -171.697
c-13.8369 -49.0566 -27.9883 -90.5508 -42.4531 -124.481c28.3838 4.34082 57.5049 6.76074 87.3652 7.26074c-2.13574 -30.5146 -5.78516 -58.8682 -10.9502 -85.0615c-3.51758 -17.8418 -7.4375 -34.792 -11.7588 -50.8516
c-72.2998 0.895508 -137.394 5.24023 -195.284 13.0332c-65.4082 8.80469 -122.641 20.126 -171.697 33.9619c-49.0566 13.8369 -90.5508 27.9883 -124.481 42.4531c4.90527 -32.0762 7.3584 -65.0947 7.3584 -99.0566s-2.45312 -68.8682 -7.3584 -104.717
c33.9307 14.4639 75.3223 28.6152 124.175 42.4531c48.8525 13.8359 105.982 25.1572 171.391 33.9619c55.9873 7.53516 118.863 11.8477 188.628 12.9336c-4.60156 -14.6318 -9.5791 -28.4287 -14.9336 -41.3887c-13.8369 -33.4902 -27.9883 -61.8184 -42.4531 -84.9824
c32.0762 3.34863 65.0947 5.02344 99.0566 5.02344s68.8682 -1.6748 104.717 -5.02344c-14.4639 23.1641 -28.6152 51.4219 -42.4531 84.7734c-13.8359 33.3506 -25.1572 72.3535 -33.9619 117.007c-5.17285 26.2393 -8.82715 54.6953 -10.9609 85.3672
c28.4746 -0.69043 57.5996 -3.07324 87.376 -7.14746c-14.4639 33.9307 -28.6152 75.3223 -42.4531 124.175c-13.8359 48.8525 -25.1572 105.982 -33.9619 171.391c-8.80371 65.4092 -13.208 140.221 -13.208 224.435h-24.5273
c0 -69.2041 -3.00293 -132.134 -9.00684 -188.794c-78.7109 0.420898 -149.124 4.81348 -211.244 13.1748c-8.44824 1.13672 -16.7598 2.31641 -24.9346 3.53711c-4.85742 52.1748 -7.28711 109.535 -7.28711 172.082h-24.5273
c0 -59.9902 -2.25586 -115.266 -6.76855 -165.829c-39.6426 6.9541 -75.7031 15.0117 -108.18 24.1719c-49.0566 13.8369 -90.5508 27.9883 -124.481 42.4531c4.90527 -32.0762 7.3584 -65.0947 7.3584 -99.0566c0 -9.71191 -0.200195 -19.501 -0.601562 -29.3672
c-54.6836 1.85352 -104.875 5.85645 -150.578 12.0088c-65.4082 8.80469 -122.641 20.126 -171.697 33.9619c-49.0566 13.8369 -90.5508 27.9883 -124.481 42.4531c4.90527 -32.0762 7.3584 -65.0947 7.3584 -99.0566s-2.45312 -68.8682 -7.3584 -104.717
c33.9307 14.4639 75.3223 28.6152 124.175 42.4531c48.8525 13.8359 105.982 25.1572 171.391 33.9619c45.3506 6.10352 95.2197 10.0928 149.609 11.9658c-1.21582 -15.9316 -2.94141 -32.0586 -5.1748 -48.3809c33.9307 14.4639 75.3223 28.6152 124.175 42.4531
c30.207 8.55566 63.5801 16.1494 100.117 22.7812z" />
</svg>
