<?xml version="1.0" standalone="no"?>
<!DOCTYPE svg PUBLIC "-//W3C//DTD SVG 1.1//EN" "http://www.w3.org/Graphics/SVG/1.1/DTD/svg11.dtd" >
<svg xmlns="http://www.w3.org/2000/svg" xmlns:xlink="http://www.w3.org/1999/xlink" version="1.1" viewBox="0 0 709 807">
   <path fill="currentColor"
d="M681.587 807.329c-40.4561 -40.457 -79.585 -73.3574 -117.386 -98.707s-73.4346 -44.9727 -106.899 -58.8701c-33.4658 -13.8975 -63.5029 -23.9219 -90.1104 -30.0732c25.0488 -20.3135 49.5811 -42.4766 73.5957 -66.4912
c18.9307 -18.9307 37.54 -39.0127 55.8281 -60.2441c-0.237305 0.0107422 -0.473633 0.0205078 -0.710938 0.0302734l-15.8359 15.8359c-4.83203 -4.83203 -9.64062 -9.59961 -14.4277 -14.3037c-37.1074 2.20117 -71.9375 5.49316 -104.489 9.875
c-65.4082 8.80469 -122.641 20.126 -171.697 33.9619c-49.0566 13.8369 -90.5508 27.9883 -124.481 42.4531c4.90527 -32.0762 7.3584 -65.0947 7.3584 -99.0566s-2.45312 -68.8682 -7.3584 -104.717c33.9307 14.4639 75.3223 28.6152 124.175 42.4531
c48.8525 13.8359 105.982 25.1572 171.391 33.9619c22.2871 3 45.665 5.48828 70.1357 7.4668c-41.1494 -38.626 -80.5527 -72.2988 -118.21 -101.021c-52.4766 -40.0244 -100.951 -72.4883 -145.423 -97.3936c-44.4727 -24.9043 -83.8203 -44.2383 -118.041 -58.0029
c26.1504 -19.2129 51.2324 -40.8252 75.2471 -64.8398s46.9629 -50.4316 68.8428 -79.249c13.7646 34.2197 33.0264 73.4941 57.7861 117.823c24.7598 44.3271 57.1514 92.7295 97.1768 145.206c33.7217 44.2109 74.3701 90.9326 121.947 140.164
c29.7812 1.67773 61.0371 2.66406 93.7695 2.95996c-1.99512 -31.6152 -4.52051 -61.8262 -7.5752 -90.6309c-8.80469 -83.0195 -20.126 -155.66 -33.9619 -217.925c-13.8369 -62.2637 -27.9883 -114.929 -42.4531 -157.995
c32.0762 6.22656 65.0947 9.33984 99.0566 9.33984s68.8682 -3.11328 104.717 -9.33984c-14.4639 43.0664 -28.6152 95.6006 -42.4531 157.606c-13.8359 62.0049 -25.1572 134.516 -33.9619 217.535c-8.80371 83.0186 -13.208 177.972 -13.208 284.858h-2.09863
c2.62988 4.07422 5.3291 8.17578 8.09668 12.3027c25.3496 37.8008 58.3496 77.0293 99.0029 117.683zM515.51 492.247c6.13965 22.29 14.7051 46.7256 25.6963 73.3047c7.58984 18.3525 16.9268 37.376 28.0098 57.0703
c-0.464844 -46.1006 -1.80176 -89.8896 -4.01074 -131.366c-16.9551 0.143555 -33.5205 0.474609 -49.6953 0.991211z" />
</svg>
