<?xml version="1.0" standalone="no"?>
<!DOCTYPE svg PUBLIC "-//W3C//DTD SVG 1.1//EN" "http://www.w3.org/Graphics/SVG/1.1/DTD/svg11.dtd" >
<svg xmlns="http://www.w3.org/2000/svg" xmlns:xlink="http://www.w3.org/1999/xlink" version="1.1" viewBox="0 0 714 812">
   <path fill="currentColor"
d="M676.854 812.062c-15.6807 -13.127 -31.0801 -25.4561 -46.1992 -36.9873c-52.4756 -40.0244 -100.951 -72.4883 -145.423 -97.3936c-44.4727 -24.9043 -83.8193 -44.2383 -118.04 -58.0029c26.1494 -19.2129 51.2314 -40.8252 75.2461 -64.8398
c19.124 -19.124 37.5723 -39.7725 55.3428 -61.9434c-0.625977 0.0253906 -1.25098 0.0517578 -1.87598 0.078125l-15.8359 15.8359c-4.83203 -4.83203 -9.64062 -9.59961 -14.4277 -14.3037c-37.1074 2.20117 -71.9375 5.49316 -104.489 9.875
c-65.4082 8.80469 -122.641 20.126 -171.697 33.9619c-49.0566 13.8369 -90.5508 27.9883 -124.481 42.4531c4.90527 -32.0762 7.3584 -65.0947 7.3584 -99.0566s-2.45312 -68.8682 -7.3584 -104.717c33.9307 14.4639 75.3223 28.6152 124.175 42.4531
c48.8525 13.8359 105.982 25.1572 171.391 33.9619c22.2871 3 45.665 5.48828 70.1357 7.4668c-41.1494 -38.626 -80.5527 -72.2988 -118.21 -101.021c-52.4766 -40.0244 -100.951 -72.4883 -145.423 -97.3936c-44.4727 -24.9043 -83.8203 -44.2383 -118.041 -58.0029
c26.1504 -19.2129 51.2324 -40.8252 75.2471 -64.8398s46.9629 -50.4316 68.8428 -79.249c13.7646 34.2197 33.0264 73.4941 57.7861 117.823c24.7598 44.3271 57.1514 92.7295 97.1768 145.206c33.7217 44.2109 74.3701 90.9326 121.947 140.164
c29.7812 1.67773 61.0371 2.66406 93.7695 2.95996c-1.99512 -31.6152 -4.52051 -61.8262 -7.5752 -90.6309c-8.80469 -83.0195 -20.126 -155.66 -33.9619 -217.925c-13.8369 -62.2637 -27.9883 -114.929 -42.4531 -157.995
c32.0762 6.22656 65.0947 9.33984 99.0566 9.33984s68.8682 -3.11328 104.717 -9.33984c-14.4639 43.0664 -28.6152 95.6006 -42.4531 157.606c-13.8359 62.0049 -25.1572 134.516 -33.9619 217.535c-8.12109 76.583 -12.499 163.323 -13.1289 260.218
c20.4111 32.4619 44.4883 66.8818 72.2344 103.26c11.6377 15.2568 24.0996 30.8125 37.3857 46.667c-11.8145 11.8154 -11.8145 11.8154 -26.7754 26.7764zM518.206 492.163c12.9971 30.0312 29.8574 63.6162 50.584 100.755
c-0.660156 -35.3047 -1.85547 -69.1914 -3.58496 -101.662c-16.0137 0.135742 -31.6807 0.438477 -46.999 0.907227z" />
</svg>
