<?xml version="1.0" standalone="no"?>
<!DOCTYPE svg PUBLIC "-//W3C//DTD SVG 1.1//EN" "http://www.w3.org/Graphics/SVG/1.1/DTD/svg11.dtd" >
<svg xmlns="http://www.w3.org/2000/svg" xmlns:xlink="http://www.w3.org/1999/xlink" version="1.1" viewBox="0 0 2049 898">
   <path fill="currentColor"
d="M1561.56 807.329c-40.4561 -40.457 -79.585 -73.3574 -117.386 -98.707s-73.4346 -44.9727 -106.899 -58.8701c-33.4658 -13.8975 -63.5029 -23.9219 -90.1104 -30.0732c25.0488 -20.3135 49.5811 -42.4766 73.5957 -66.4912
c18.9307 -18.9307 37.54 -39.0127 55.8281 -60.2441c-0.237305 0.0107422 -0.473633 0.0205078 -0.710938 0.0302734l-15.8359 15.8359c-4.83203 -4.83203 -9.64062 -9.59961 -14.4277 -14.3037c-37.1074 2.20117 -71.9375 5.49316 -104.489 9.875
c-65.4082 8.80469 -122.641 20.126 -171.697 33.9619c-49.0566 13.8369 -90.5508 27.9883 -124.481 42.4531c4.90527 -32.0762 7.3584 -65.0947 7.3584 -99.0566s-2.45312 -68.8682 -7.3584 -104.717c33.9307 14.4639 75.3223 28.6152 124.175 42.4531
c48.8525 13.8359 105.982 25.1572 171.391 33.9619c22.2871 3 45.665 5.48828 70.1357 7.4668c-41.1494 -38.626 -80.5527 -72.2988 -118.21 -101.021c-52.4766 -40.0244 -100.951 -72.4883 -145.423 -97.3936c-44.4727 -24.9043 -83.8203 -44.2383 -118.041 -58.0029
c26.1504 -19.2129 51.2324 -40.8252 75.2471 -64.8398s46.9629 -50.4316 68.8428 -79.249c13.7646 34.2197 33.0264 73.4941 57.7861 117.823c24.7598 44.3271 57.1514 92.7295 97.1768 145.206c33.7217 44.2109 74.3701 90.9326 121.947 140.164
c29.7812 1.67773 61.0371 2.66406 93.7695 2.95996c-1.99512 -31.6152 -4.52051 -61.8262 -7.5752 -90.6309c-8.80469 -83.0195 -20.126 -155.66 -33.9619 -217.925c-13.8369 -62.2637 -27.9883 -114.929 -42.4531 -157.995
c32.0762 6.22656 65.0947 9.33984 99.0566 9.33984s68.8682 -3.11328 104.717 -9.33984c-14.4639 43.0664 -28.6152 95.6006 -42.4531 157.606c-13.8359 62.0049 -25.1572 134.516 -33.9619 217.535c-8.80371 83.0186 -13.208 177.972 -13.208 284.858h-2.09863
c2.62988 4.07422 5.3291 8.17578 8.09668 12.3027c25.3496 37.8008 58.3496 77.0293 99.0029 117.683zM1791.56 807.329c-40.4561 -40.457 -79.585 -73.3574 -117.386 -98.707s-73.4346 -44.9727 -106.899 -58.8701c-33.4658 -13.8975 -63.5029 -23.9219 -90.1104 -30.0732
c25.0488 -20.3135 49.5811 -42.4766 73.5957 -66.4912s47.5127 -49.8818 70.4932 -77.5986c6.15234 26.6074 16.127 56.5957 29.9258 89.9629c7.58984 18.3525 16.9268 37.376 28.0098 57.0703c-0.920898 -91.3018 -5.26172 -173.535 -13.0215 -246.702
c-8.80469 -83.0195 -20.126 -155.66 -33.9619 -217.925c-13.8369 -62.2637 -27.9883 -114.929 -42.4531 -157.995c32.0762 6.22656 65.0947 9.33984 99.0566 9.33984s68.8682 -3.11328 104.717 -9.33984c-14.4639 43.0664 -28.6152 95.6006 -42.4531 157.606
c-13.8359 62.0049 -25.1572 134.516 -33.9619 217.535c-8.80371 83.0186 -13.208 177.972 -13.208 284.858h-2.09863c2.62988 4.07422 5.3291 8.17578 8.09668 12.3027c25.3496 37.8008 58.3496 77.0293 99.0029 117.683zM2021.56 807.329
c-40.4561 -40.457 -79.585 -73.3574 -117.386 -98.707s-73.4346 -44.9727 -106.899 -58.8701c-33.4658 -13.8975 -63.5029 -23.9219 -90.1104 -30.0732c25.0488 -20.3135 49.5811 -42.4766 73.5957 -66.4912s47.5127 -49.8818 70.4932 -77.5986
c6.15234 26.6074 16.127 56.5957 29.9258 89.9629c7.58984 18.3525 16.9268 37.376 28.0098 57.0703c-0.920898 -91.3018 -5.26172 -173.535 -13.0215 -246.702c-8.80469 -83.0195 -20.126 -155.66 -33.9619 -217.925
c-13.8369 -62.2637 -27.9883 -114.929 -42.4531 -157.995c32.0762 6.22656 65.0947 9.33984 99.0566 9.33984s68.8682 -3.11328 104.717 -9.33984c-14.4639 43.0664 -28.6152 95.6006 -42.4531 157.606c-13.8359 62.0049 -25.1572 134.516 -33.9619 217.535
c-8.80371 83.0186 -13.208 177.972 -13.208 284.858h-2.09863c2.62988 4.07422 5.3291 8.17578 8.09668 12.3027c25.3496 37.8008 58.3496 77.0293 99.0029 117.683zM860 809.173c-128.932 0 -243.71 4.40332 -344.34 13.208
c-100.629 8.80469 -188.679 20.126 -264.15 33.9619c-75.4717 13.8369 -139.309 27.9883 -191.51 42.4531c7.54688 -32.0762 11.3213 -65.0947 11.3213 -99.0566s-3.77441 -68.8682 -11.3213 -104.717c52.2012 14.4639 115.88 28.6152 191.038 42.4531
c75.1572 13.8359 163.05 25.1572 263.679 33.9619c96.5596 8.44727 206.439 12.8447 329.638 13.1865c-0.177734 -64.7832 -1.4873 -125.929 -3.92871 -183.439c-102.484 0.257812 -193.985 4.65625 -274.506 13.1963c-83.0195 8.80469 -155.66 20.126 -217.925 33.9619
c-62.2637 13.8369 -114.929 27.9883 -157.995 42.4531c6.22656 -32.0762 9.33984 -65.0947 9.33984 -99.0566c0 -32.834 -2.91016 -66.5508 -8.72949 -101.148c-0.204102 0.0683594 -0.407227 0.136719 -0.610352 0.205078
c0.115234 -0.59375 0.229492 -1.18848 0.342773 -1.7832c-0.113281 -0.663086 -0.227539 -1.32617 -0.342773 -1.99023c0.224609 0.0751953 0.450195 0.151367 0.674805 0.226562c5.77637 -30.9619 8.66504 -62.7979 8.66504 -95.5098
c0 -32.834 -2.91016 -66.5508 -8.72949 -101.148c-0.204102 0.0683594 -0.407227 0.136719 -0.610352 0.205078c0.115234 -0.59375 0.229492 -1.18848 0.342773 -1.7832c-0.113281 -0.663086 -0.227539 -1.32617 -0.342773 -1.99023
c0.224609 0.0751953 0.450195 0.151367 0.674805 0.226562c5.77637 -30.9619 8.66504 -62.7979 8.66504 -95.5098c0 -33.9619 -3.11328 -68.8682 -9.33984 -104.717c43.0664 14.4639 95.6006 28.6152 157.606 42.4531c62.0049 13.8359 134.516 25.1572 217.535 33.9619
c68.3262 7.24609 144.735 11.5117 229.229 12.7939c-12.9336 -68.8457 -26.1396 -127.59 -39.6182 -176.231c32.0762 7.54688 65.0947 11.3213 99.0566 11.3213s68.8682 -3.77441 104.717 -11.3213c-14.4639 52.2012 -28.6152 115.88 -42.4531 191.038
c-13.8359 75.1572 -25.1572 163.05 -33.9619 263.679c-8.80371 100.629 -13.208 215.724 -13.208 345.283h-8.90332v9.17285zM1449.19 622.622c-0.464844 -46.1006 -1.80176 -89.8896 -4.01074 -131.366c-16.9551 0.143555 -33.5205 0.474609 -49.6953 0.991211
c6.13965 22.29 14.7051 46.7256 25.6963 73.3047c7.58984 18.3525 16.9268 37.376 28.0098 57.0703zM195.677 488.909c41.9805 13.8086 92.6221 27.3311 151.93 40.5664c62.0049 13.8359 134.516 25.1572 217.535 33.9619c80.2393 8.50879 171.627 12.9082 274.163 13.1934
c-2.0752 -42.3711 -4.78809 -82.6943 -8.13672 -120.971c-1.62402 -18.5654 -3.33398 -36.7021 -5.12988 -54.4111c-96.6797 0.616211 -183.385 4.99414 -260.118 13.1318c-83.0195 8.80469 -155.66 20.126 -217.925 33.9619
c-59.5537 13.2344 -110.327 26.7568 -152.318 40.5664zM195.677 288.909c41.9805 13.8086 92.6221 27.3311 151.93 40.5664c62.0049 13.8359 134.516 25.1572 217.535 33.9619c76.0791 8.06738 162.182 12.4414 258.307 13.1152
c-6.96484 -64.2432 -15.1104 -122.586 -24.4346 -175.03c-85.8828 1.19922 -163.58 5.48633 -233.094 12.8584c-83.0195 8.80469 -155.66 20.126 -217.925 33.9619c-59.5537 13.2344 -110.327 26.7568 -152.318 40.5664z" />
</svg>
