<?xml version="1.0" standalone="no"?>
<!DOCTYPE svg PUBLIC "-//W3C//DTD SVG 1.1//EN" "http://www.w3.org/Graphics/SVG/1.1/DTD/svg11.dtd" >
<svg xmlns="http://www.w3.org/2000/svg" xmlns:xlink="http://www.w3.org/1999/xlink" version="1.1" viewBox="0 0 1469 800">
   <path fill="currentColor"
d="M1264.77 643.654c-45 -48.2998 -81.9014 -88.7998 -110.701 -121.5c-19.4316 -22.0635 -36.8154 -40.7812 -52.1504 -56.1533c-10.3555 1.05664 -20.4365 2.24414 -30.2412 3.56348c-49.0566 6.60352 -91.9805 15.0947 -128.773 25.4717
c-36.792 10.3779 -67.9131 20.9912 -93.3604 31.8398c3.67871 -24.0566 5.51855 -48.8213 5.51855 -74.292c0 -25.4717 -1.83984 -51.6514 -5.51855 -78.5381c25.4473 10.8477 56.4912 21.4619 93.1309 31.8398c36.6396 10.377 79.4863 18.8682 128.543 25.4717
c7.1543 0.962891 14.459 1.85547 21.9131 2.67871c14.3135 -14.5684 28.626 -29.5957 42.9385 -45.082c18.3008 -19.7998 37.875 -41.25 58.7256 -64.3506c20.8496 -23.0996 44.1748 -48.4492 69.9756 -76.0498l9.44922 6.75
c-5.36816 8.57617 -10.5684 16.998 -15.6016 25.2666c23.2852 3.41211 47.0635 5.53809 71.3369 6.37793c-8.61523 -61.5762 -19.5137 -115.731 -32.6953 -162.467c-13.8369 -49.0566 -27.9883 -90.5508 -42.4531 -124.481c32.0762 4.90527 65.0947 7.3584 99.0566 7.3584
s68.8682 -2.45312 104.717 -7.3584c-14.4639 33.9307 -28.6152 75.3223 -42.4531 124.175c-13.2109 46.6455 -24.1289 100.837 -32.7529 162.576c24.5898 -1.00488 49.6582 -3.25488 75.2061 -6.75098c-14.4639 33.9307 -28.6152 75.3223 -42.4531 124.175
c-13.8359 48.8525 -25.1572 105.982 -33.9619 171.391c-8.80371 65.4092 -13.208 140.221 -13.208 224.435h-24.5273c0 -83.8057 -4.40332 -158.411 -13.208 -223.821c-8.80469 -65.4082 -20.126 -122.641 -33.9619 -171.697
c-13.293 -47.127 -26.875 -87.2744 -40.748 -120.442c-17.1611 28.3164 -32.334 54.8135 -45.5176 79.4902c-17.5498 32.8506 -32.0254 60.375 -43.4248 82.5742c9.60059 18.9014 23.4004 45.0762 41.4004 78.5264c18 33.4492 39.749 70.875 65.25 112.274zM794.43 800
c0 -128.932 -4.40332 -243.71 -13.208 -344.34c-8.80469 -100.629 -20.126 -188.679 -33.9619 -264.15c-13.8369 -75.4717 -27.9883 -139.309 -42.4531 -191.51c32.0762 7.54688 65.0947 11.3213 99.0566 11.3213s68.8682 -3.77441 104.717 -11.3213
c-14.4639 52.2012 -28.6152 115.88 -42.4531 191.038c-13.8359 75.1572 -25.1572 163.05 -33.9619 263.679c-8.80371 100.629 -13.208 215.724 -13.208 345.283h-24.5273zM536.395 316.236c-5.72949 -44.8203 -12.1074 -86.3955 -19.1348 -124.727
c-13.8369 -75.4717 -27.9883 -139.309 -42.4531 -191.51c32.0762 7.54688 65.0947 11.3213 99.0566 11.3213s68.8682 -3.77441 104.717 -11.3213c-14.4639 52.2012 -28.6152 115.88 -42.4531 191.038c-13.8359 75.1572 -25.1572 163.05 -33.9619 263.679
c-8.80371 100.629 -13.208 215.724 -13.208 345.283h-24.5273c0 -81.9639 -1.7793 -158.208 -5.33789 -228.734c-75.3564 0.677734 -142.993 5.0498 -202.913 13.1152c-65.4082 8.80469 -122.641 20.126 -171.697 33.9619
c-49.0566 13.8369 -90.5508 27.9883 -124.481 42.4531c4.90527 -32.0762 7.3584 -65.0947 7.3584 -99.0566s-2.45312 -68.8682 -7.3584 -104.717c33.9307 14.4639 75.3223 28.6152 124.175 42.4531c48.8525 13.8359 105.982 25.1572 171.391 33.9619
c59.5928 8.02051 126.99 12.3896 202.192 13.1035c-1.81055 -31.4775 -3.98926 -61.7715 -6.53613 -90.8809c-3.50293 -40.0352 -7.4043 -78.0791 -11.7041 -114.132c-67.542 1.20703 -128.653 5.49121 -183.339 12.8525c-65.4082 8.80469 -122.641 20.126 -171.697 33.9619
c-49.0566 13.8369 -90.5508 27.9883 -124.481 42.4531c4.90527 -32.0762 7.3584 -65.0947 7.3584 -99.0566s-2.45312 -68.8682 -7.3584 -104.717c33.9307 14.4639 75.3223 28.6152 124.175 42.4531c48.8525 13.8359 105.982 25.1572 171.391 33.9619
c53.8936 7.25391 114.17 11.5205 180.829 12.7988z" />
</svg>
