<?xml version="1.0" standalone="no"?>
<!DOCTYPE svg PUBLIC "-//W3C//DTD SVG 1.1//EN" "http://www.w3.org/Graphics/SVG/1.1/DTD/svg11.dtd" >
<svg xmlns="http://www.w3.org/2000/svg" xmlns:xlink="http://www.w3.org/1999/xlink" version="1.1" viewBox="0 0 1469 800">
   <path fill="currentColor"
d="M1264.77 643.654c-45 -48.2998 -81.9014 -88.7998 -110.701 -121.5c-22.0771 -25.0684 -41.5117 -45.8174 -58.3008 -62.2471c-34.8623 0.879883 -66.3867 4.09863 -94.5752 9.65723c-33.4912 6.60352 -62.7949 15.0947 -87.9131 25.4717
c-25.1172 10.3779 -46.3633 20.9912 -63.7363 31.8398c2.51074 -24.0566 3.76758 -48.8213 3.76758 -74.292c0 -25.4717 -1.25684 -51.6514 -3.76758 -78.5381c17.373 10.8477 38.5664 21.4619 63.5801 31.8398c25.0127 10.377 54.2646 18.8682 87.7549 25.4717
c25.71 5.06836 54.2588 8.19336 85.6445 9.37109c16.5156 -16.6465 33.0303 -33.9043 49.5459 -51.7744c18.3008 -19.7998 37.875 -41.25 58.7256 -64.3506c20.8496 -23.0996 44.1748 -48.4492 69.9756 -76.0498l9.44922 6.75
c-5.36816 8.57617 -10.5684 16.998 -15.6016 25.2666c27.1777 3.9834 55.0293 6.21289 83.5537 6.69043c-2.13574 -30.5146 -5.78516 -58.8682 -10.9502 -85.0615c-8.80469 -44.6543 -20.126 -83.7266 -33.9619 -117.217
c-13.8369 -33.4902 -27.9883 -61.8184 -42.4531 -84.9824c32.0762 3.34863 65.0947 5.02344 99.0566 5.02344s68.8682 -1.6748 104.717 -5.02344c-14.4639 23.1641 -28.6152 51.4219 -42.4531 84.7734c-13.8359 33.3506 -25.1572 72.3535 -33.9619 117.007
c-5.17285 26.2393 -8.82715 54.6953 -10.9609 85.3672c28.4746 -0.69043 57.5996 -3.07324 87.376 -7.14746c-14.4639 33.9307 -28.6152 75.3223 -42.4531 124.175c-13.8359 48.8525 -25.1572 105.982 -33.9619 171.391c-8.80371 65.4092 -13.208 140.221 -13.208 224.435
h-24.5273c0 -83.8057 -4.40332 -158.411 -13.208 -223.821c-8.80469 -65.4082 -20.126 -122.641 -33.9619 -171.697c-13.293 -47.127 -26.875 -87.2744 -40.748 -120.442c-17.1611 28.3164 -32.334 54.8135 -45.5176 79.4902
c-17.5498 32.8506 -32.0254 60.375 -43.4248 82.5742c9.60059 18.9014 23.4004 45.0762 41.4004 78.5264c18 33.4492 39.749 70.875 65.25 112.274zM794.43 800c0 -128.932 -4.40332 -243.71 -13.208 -344.34c-8.80469 -100.629 -20.126 -188.679 -33.9619 -264.15
c-13.8369 -75.4717 -27.9883 -139.309 -42.4531 -191.51c32.0762 7.54688 65.0947 11.3213 99.0566 11.3213s68.8682 -3.77441 104.717 -11.3213c-14.4639 52.2012 -28.6152 115.88 -42.4531 191.038c-13.8359 75.1572 -25.1572 163.05 -33.9619 263.679
c-8.80371 100.629 -13.208 215.724 -13.208 345.283h-24.5273zM536.395 316.236c-5.72949 -44.8203 -12.1074 -86.3955 -19.1348 -124.727c-13.8369 -75.4717 -27.9883 -139.309 -42.4531 -191.51c32.0762 7.54688 65.0947 11.3213 99.0566 11.3213
s68.8682 -3.77441 104.717 -11.3213c-14.4639 52.2012 -28.6152 115.88 -42.4531 191.038c-13.8359 75.1572 -25.1572 163.05 -33.9619 263.679c-8.80371 100.629 -13.208 215.724 -13.208 345.283h-24.5273c0 -81.9639 -1.7793 -158.208 -5.33789 -228.734
c-75.3564 0.677734 -142.993 5.0498 -202.913 13.1152c-65.4082 8.80469 -122.641 20.126 -171.697 33.9619c-49.0566 13.8369 -90.5508 27.9883 -124.481 42.4531c4.90527 -32.0762 7.3584 -65.0947 7.3584 -99.0566s-2.45312 -68.8682 -7.3584 -104.717
c33.9307 14.4639 75.3223 28.6152 124.175 42.4531c48.8525 13.8359 105.982 25.1572 171.391 33.9619c59.5928 8.02051 126.99 12.3896 202.192 13.1035c-1.81055 -31.4775 -3.98926 -61.7715 -6.53613 -90.8809c-3.50293 -40.0352 -7.4043 -78.0791 -11.7041 -114.132
c-67.542 1.20703 -128.653 5.49121 -183.339 12.8525c-65.4082 8.80469 -122.641 20.126 -171.697 33.9619c-49.0566 13.8369 -90.5508 27.9883 -124.481 42.4531c4.90527 -32.0762 7.3584 -65.0947 7.3584 -99.0566s-2.45312 -68.8682 -7.3584 -104.717
c33.9307 14.4639 75.3223 28.6152 124.175 42.4531c48.8525 13.8359 105.982 25.1572 171.391 33.9619c53.8936 7.25391 114.17 11.5205 180.829 12.7988z" />
</svg>
