<?xml version="1.0" standalone="no"?>
<!DOCTYPE svg PUBLIC "-//W3C//DTD SVG 1.1//EN" "http://www.w3.org/Graphics/SVG/1.1/DTD/svg11.dtd" >
<svg xmlns="http://www.w3.org/2000/svg" xmlns:xlink="http://www.w3.org/1999/xlink" version="1.1" viewBox="0 0 1325 663">
   <path fill="currentColor"
d="M1310.05 573.173c-128.932 0 -243.71 4.40332 -344.34 13.208c-100.629 8.80469 -188.679 20.126 -264.15 33.9619c-75.4717 13.8369 -139.309 27.9883 -191.51 42.4531c7.54688 -32.0762 11.3213 -65.0947 11.3213 -99.0566
c0 -33.834 -3.74609 -68.6055 -11.2363 -104.312c-54.0557 1.87695 -103.708 5.8623 -148.96 11.9531c-65.4082 8.80469 -122.641 20.126 -171.697 33.9619c-49.0566 13.8369 -90.5508 27.9883 -124.481 42.4531c4.90527 -32.0762 7.3584 -65.0947 7.3584 -99.0566
s-2.45312 -68.8682 -7.3584 -104.717c33.9307 14.4639 75.3223 28.6152 124.175 42.4531c48.8525 13.8359 105.982 25.1572 171.391 33.9619c45.333 6.10156 95.1826 10.0898 149.549 11.9639c4.86523 -31.9531 7.29785 -64.8398 7.29785 -98.6621
c0 -33.834 -2.43457 -68.6045 -7.30273 -104.311c-54.0439 1.87793 -103.688 5.8623 -148.931 11.9521c-65.4082 8.80469 -122.641 20.126 -171.697 33.9619c-49.0566 13.8369 -90.5508 27.9883 -124.481 42.4531c4.90527 -32.0762 7.3584 -65.0947 7.3584 -99.0566
s-2.45312 -68.8682 -7.3584 -104.717c33.9307 14.4639 75.3223 28.6152 124.175 42.4531c48.8525 13.8359 105.982 25.1572 171.391 33.9619c45.3418 6.10254 95.2021 10.0918 149.581 11.9648c7.48535 -31.9531 11.2285 -64.8398 11.2285 -98.6631
c0 -33.9619 -3.77441 -68.8682 -11.3213 -104.717c52.2012 14.4639 115.88 28.6152 191.038 42.4531c75.1572 13.8359 163.05 25.1572 263.679 33.9619c100.629 8.80371 215.724 13.208 345.283 13.208v24.5273c-128.932 0 -243.71 4.40332 -344.34 13.208
c-100.629 8.80469 -188.679 20.126 -264.15 33.9619c-74.8574 13.7246 -138.268 27.7578 -190.231 42.0996c23.6992 0.801758 48.2559 1.20312 73.668 1.20312v24.5273c-25.541 0 -50.2275 0.40918 -74.0596 1.22656c33.7646 14.333 74.8604 28.3584 123.288 42.0762
c47.8936 13.5645 103.744 24.7119 167.55 33.4404c-0.990234 -24.8096 -3.25 -50.1074 -6.77832 -75.8936c33.9307 14.4639 75.3223 28.6152 124.175 42.4531c48.8525 13.8359 105.982 25.1572 171.391 33.9619c65.4092 8.80371 140.221 13.208 224.435 13.208v24.5273
c-83.8057 0 -158.411 4.40332 -223.821 13.208c-65.4082 8.80469 -122.641 20.126 -171.697 33.9619c-49.0566 13.8369 -90.5508 27.9883 -124.481 42.4531c3.78027 -24.7188 6.10449 -49.998 6.97168 -75.8359c-63.6357 8.71973 -119.448 19.8486 -167.437 33.3828
c-48.6416 13.7197 -89.8477 27.749 -123.618 42.0859c23.8281 0.811523 48.5225 1.2168 74.083 1.2168v24.5273c-25.3896 0 -49.9336 0.404297 -73.6348 1.21191c51.9551 14.3379 115.197 28.3682 189.727 42.0908c75.1572 13.8359 163.05 25.1572 263.679 33.9619
c100.629 8.80371 215.724 13.208 345.283 13.208v24.5273z" />
</svg>
