<?xml version="1.0" standalone="no"?>
<!DOCTYPE svg PUBLIC "-//W3C//DTD SVG 1.1//EN" "http://www.w3.org/Graphics/SVG/1.1/DTD/svg11.dtd" >
<svg xmlns="http://www.w3.org/2000/svg" xmlns:xlink="http://www.w3.org/1999/xlink" version="1.1" viewBox="0 0 3372 1036">
   <path fill="currentColor"
d="M1187.24 900c-80 -85.8662 -145.601 -157.866 -196.801 -216c-51.1992 -58.1338 -94.3994 -103.2 -129.6 -135.2c32.5332 -32.5332 65.0664 -66.3994 97.5996 -101.6c32.5342 -35.2002 67.334 -73.334 104.4 -114.4s78.5332 -86.1338 124.4 -135.2l16.7998 12
c-43.7334 69.8672 -81.2002 134 -112.4 192.4s-56.9336 107.334 -77.2002 146.8c17.0664 33.6006 41.6006 80.1338 73.6006 139.601c32 59.4658 70.666 126 116 199.6zM2021 946.173c-128.932 0 -243.71 4.40332 -344.34 13.208
c-100.629 8.80469 -188.679 20.126 -264.15 33.9619c-75.4717 13.8369 -139.309 27.9883 -191.51 42.4531c7.54688 -32.0762 11.3213 -65.0947 11.3213 -99.0566s-3.77441 -68.8682 -11.3213 -104.717c52.2012 14.4639 115.88 28.6152 191.038 42.4531
c75.1572 13.8359 163.05 25.1572 263.679 33.9619c100.629 8.80371 215.724 13.208 345.283 13.208v24.5273zM2845.53 789.196c-15.6807 -13.1279 -31.0811 -25.457 -46.1992 -36.9873c-52.4766 -40.0254 -100.951 -72.4893 -145.423 -97.3936
c-22.5869 -12.6484 -43.8525 -23.8604 -63.7949 -33.6357c-81.4395 0.200195 -154.102 4.60156 -217.99 13.2012c-65.4082 8.80469 -122.641 20.126 -171.697 33.9619c-49.0566 13.8369 -90.5508 27.9883 -124.481 42.4531
c4.90527 -32.0762 7.3584 -65.0947 7.3584 -99.0566c0 -30.625 -1.99512 -62.0176 -5.9834 -94.1768c-56.2441 -60.4736 -102.672 -111.494 -139.282 -153.062c-29.7832 -33.8184 -55.958 -61.7402 -78.5234 -83.7666c-97.6768 0.556641 -185.208 4.94043 -262.596 13.1475
c-83.0195 8.80469 -155.66 20.126 -217.925 33.9619c-62.2637 13.8369 -114.929 27.9883 -157.995 42.4531c6.22656 -32.0762 9.33984 -65.0947 9.33984 -99.0566s-3.11328 -68.8682 -9.33984 -104.717c43.0664 14.4639 95.6006 28.6152 157.606 42.4531
c62.0049 13.8359 134.516 25.1572 217.535 33.9619c74.3506 7.88477 158.273 12.2402 251.769 13.0645c22.0439 -22.2178 44.0859 -45.251 66.1289 -69.1016c24.4014 -26.4004 50.501 -55.001 78.3008 -85.8008s58.9004 -64.5996 93.3008 -101.4l12.5996 9
c-32.8008 52.4004 -60.9004 100.5 -84.3008 144.301s-42.7002 80.5 -57.9004 110.1c12.8008 25.2012 31.2012 60.1006 55.2012 104.701c17.6621 32.8203 38.0303 68.5117 61.1074 107.074c6.64844 -30.2148 9.97363 -61.2598 9.97363 -93.1357
c0 -33.9619 -3.77441 -68.8682 -11.3213 -104.717c52.2012 14.4639 115.88 28.6152 191.038 42.4531c75.1572 13.8359 163.05 25.1572 263.679 33.9619c75.6602 6.61914 159.499 10.752 251.515 12.3945c22.7539 -23.0732 44.541 -48.3223 65.3623 -75.7441
c13.7646 34.2207 33.0264 73.4951 57.7861 117.824c24.7598 44.3271 57.1514 92.7295 97.1768 145.206c11.6367 15.2568 24.0986 30.8125 37.3848 46.668c-11.8135 11.8145 -11.8135 11.8145 -26.7754 26.7754c-15.6807 -13.127 -31.0801 -25.4561 -46.1982 -36.9873
c-52.4766 -40.0244 -100.951 -72.4893 -145.423 -97.3936c-44.4727 -24.9043 -83.8203 -44.2383 -118.041 -58.0029c17.4229 -12.8008 34.3711 -26.667 50.8467 -41.5996c-80.6553 1.93555 -154.885 5.87012 -222.69 11.8027
c-100.629 8.80469 -188.679 20.126 -264.15 33.9619c-73.458 13.4678 -135.894 27.2334 -187.306 41.2959c7.04492 11.7305 14.3369 23.7236 21.877 35.9785c29.5586 11.4873 63.9053 22.7734 103.04 33.8584c48.8525 13.8359 105.982 25.1572 171.391 33.9619
c49.7617 6.69727 104.965 10.8486 165.61 12.4521c25.6992 -18.9814 50.3633 -40.2871 73.9941 -63.918c24.0146 -24.0146 46.9629 -50.4316 68.8428 -79.249c13.7646 34.2197 33.0264 73.4951 57.7861 117.824c24.7607 44.3271 57.1523 92.7295 97.1768 145.206
c11.6367 15.2568 24.0986 30.8125 37.3857 46.667c-11.8145 11.8145 -11.8145 11.8145 -26.7754 26.7764zM3170.8 463.927c-15.6807 -13.127 -31.0811 -25.4561 -46.1982 -36.9873c-52.4766 -40.0244 -100.951 -72.4883 -145.424 -97.3936
c-44.4717 -24.9043 -83.8193 -44.2383 -118.04 -58.0029c26.1494 -19.2129 51.2324 -40.8252 75.2471 -64.8408c24.0146 -24.0146 46.9619 -50.4316 68.8428 -79.249c13.7646 34.2207 33.0264 73.4951 57.7852 117.824c24.7607 44.3271 57.1523 92.7295 97.1777 145.206
c11.6367 15.2568 24.0986 30.8125 37.3848 46.668zM3323.56 940.489c-50.3701 -50.3701 -101.944 -88.4785 -154.721 -114.33c-52.7773 -25.8506 -104.486 -42.9395 -155.127 -51.2676c-50.6416 -8.32812 -97.2207 -11.6299 -139.731 -9.90625
c51.9951 -46.0967 103.956 -95.1094 155.886 -147.039s103.828 -106.776 155.693 -164.54c-1.72168 42.5098 1.51758 89.0254 9.72168 139.547c8.20605 50.5186 25.2334 102.166 51.084 154.943c25.8516 52.7744 64.082 104.473 114.698 155.089zM3151 851.173
c-174.058 0 -329.009 4.40332 -464.858 13.208s-254.717 20.126 -356.604 33.9619c-101.887 13.8369 -188.066 27.9883 -258.538 42.4531c10.1885 -32.0762 15.2842 -65.0947 15.2842 -99.0566s-5.0957 -68.8682 -15.2842 -104.717
c70.4717 14.4639 156.438 28.6152 257.901 42.4531c101.462 13.8359 220.117 25.1572 355.966 33.9619c135.85 8.80371 291.228 13.208 466.133 13.208v24.5273zM767.22 817.776c-91.1689 -91.1689 -175.443 -169.216 -252.825 -234.146
c-1.49219 -1.25195 -2.98145 -2.5 -4.46875 -3.74414c-98.2432 8.73047 -184.381 19.8838 -258.416 33.4561c-75.4717 13.8369 -139.309 27.9883 -191.51 42.4531c7.54688 -32.0762 11.3213 -65.0947 11.3213 -99.0566s-3.77441 -68.8682 -11.3213 -104.717
c52.2012 14.4639 115.88 28.6152 191.038 42.4531c55.3291 10.1855 117.56 19.0088 186.693 26.4678c-47.8018 -37.9961 -92.5137 -71.3564 -134.134 -100.081c-63.1504 -43.582 -118.297 -78.7148 -165.437 -105.398c28.0176 -17.3447 54.0342 -38.0234 78.0488 -62.0381
c24.0146 -24.0156 46.0283 -51.3662 66.04 -82.0518c26.6846 47.1396 61.7061 102.174 105.065 165.104c40.2129 58.3584 89.6982 122.932 148.461 193.722c95.5381 7.62988 203.613 11.4463 324.224 11.4463v24.5273c-104.849 0 -200.338 2.91211 -286.47 8.73438
c59.9941 69.6533 130.337 144.83 211.032 225.525z" />
</svg>
