<?xml version="1.0" standalone="no"?>
<!DOCTYPE svg PUBLIC "-//W3C//DTD SVG 1.1//EN" "http://www.w3.org/Graphics/SVG/1.1/DTD/svg11.dtd" >
<svg xmlns="http://www.w3.org/2000/svg" xmlns:xlink="http://www.w3.org/1999/xlink" version="1.1" viewBox="0 0 1154 810">
   <path fill="currentColor"
d="M748.996 311.758c-30.1445 -22.9824 -58.9434 -43.9482 -86.3984 -62.8955c-63.1504 -43.582 -118.297 -78.7148 -165.437 -105.398c28.0176 -17.3447 54.0342 -38.0234 78.0488 -62.0381c24.0146 -24.0156 46.0283 -51.3662 66.04 -82.0518
c26.6846 47.1396 61.7061 102.174 105.065 165.104c32.1514 46.6592 70.2295 97.291 114.238 151.896c86.834 2.84863 179.982 4.27246 279.446 4.27246v24.5273c-89.4141 0 -173.787 1.16211 -253.118 3.48535c7.14844 8.66699 14.4375 17.4277 21.8682 26.2832
c46.0654 54.8975 98.8447 113.379 158.34 175.44c23.9141 0.175781 48.2178 0.263672 72.9102 0.263672v24.5273c-16.457 0 -32.7432 0.0390625 -48.8584 0.118164c16.959 17.4395 34.4326 35.1533 52.4209 53.1416l-17.3428 17.3438
c-24.3486 -24.3486 -48.2051 -47.7607 -71.5703 -70.2373c-97.2842 0.850586 -188.14 3.18262 -272.565 6.99707c56.958 65.2344 122.783 135.201 197.479 209.896l-17.3428 17.3438c-86.5479 -86.5479 -166.883 -161.271 -241.006 -224.172
c-15.5947 0.871094 -30.9512 1.7959 -46.0723 2.77637c-135.85 8.80469 -254.717 20.126 -356.604 33.9619c-101.887 13.8369 -188.066 27.9883 -258.538 42.4531c10.1885 -32.0762 15.2842 -65.0947 15.2842 -99.0566s-5.0957 -68.8682 -15.2842 -104.717
c70.4717 14.4639 156.438 28.6152 257.901 42.4531c98.5586 13.4404 213.341 24.5068 344.347 33.2002c-59.0244 -47.9824 -113.574 -89.2539 -163.65 -123.813c-18.2168 -12.5723 -35.7676 -24.4404 -52.6523 -35.6064c-45.0693 4.64355 -87.5381 9.67285 -127.407 15.0869
c-101.887 13.8369 -188.066 27.9883 -258.538 42.4531c10.1885 -32.0762 15.2842 -65.0947 15.2842 -99.0566s-5.0957 -68.8682 -15.2842 -104.717c70.4717 14.4639 156.438 28.6152 257.901 42.4531c17.4727 2.38281 35.4541 4.69043 53.9463 6.92383
c13.6689 -10.7432 26.79 -22.4014 39.3623 -34.9736c24.0146 -24.0156 46.0283 -51.3662 66.04 -82.0518c22.4834 39.7178 50.8848 85.04 85.2051 135.967c35.7549 2.90137 72.8926 5.60059 111.412 8.09668c24.4121 1.58203 49.4551 3.02246 75.1289 4.32031z
M800.248 351.742c-43.3623 1.83105 -85.0645 4.04297 -125.106 6.63867c-23.2939 1.50977 -46.0889 3.09375 -68.3838 4.75098c38.7432 53.7422 84.7402 112.345 137.992 175.81c0.758789 0.904297 1.51953 1.80957 2.28223 2.7168
c86.4541 4.40039 180.077 7.18457 280.868 8.35352c-54.2393 -51.3369 -105.741 -97.4639 -154.506 -138.381c-25.1328 -21.0889 -49.5156 -41.0518 -73.1465 -59.8887z" />
</svg>
