<?xml version="1.0" standalone="no"?>
<!DOCTYPE svg PUBLIC "-//W3C//DTD SVG 1.1//EN" "http://www.w3.org/Graphics/SVG/1.1/DTD/svg11.dtd" >
<svg xmlns="http://www.w3.org/2000/svg" xmlns:xlink="http://www.w3.org/1999/xlink" version="1.1" viewBox="0 0 1353 898">
   <path fill="currentColor"
d="M1325.56 807.329c-40.4561 -40.457 -79.585 -73.3574 -117.386 -98.707s-73.4346 -44.9727 -106.899 -58.8701c-33.4658 -13.8975 -63.5029 -23.9219 -90.1104 -30.0732c25.0488 -20.3135 49.5811 -42.4766 73.5957 -66.4912s47.5127 -49.8818 70.4932 -77.5986
c6.15234 26.6074 16.127 56.5957 29.9258 89.9629c7.58984 18.3525 16.9268 37.376 28.0098 57.0703c-0.920898 -91.3018 -5.26172 -173.535 -13.0215 -246.702c-8.80469 -83.0195 -20.126 -155.66 -33.9619 -217.925
c-13.8369 -62.2637 -27.9883 -114.929 -42.4531 -157.995c32.0762 6.22656 65.0947 9.33984 99.0566 9.33984s68.8682 -3.11328 104.717 -9.33984c-14.4639 43.0664 -28.6152 95.6006 -42.4531 157.606c-13.8359 62.0049 -25.1572 134.516 -33.9619 217.535
c-8.80371 83.0186 -13.208 177.972 -13.208 284.858h-2.09863c2.62988 4.07422 5.3291 8.17578 8.09668 12.3027c25.3496 37.8008 58.3496 77.0293 99.0029 117.683zM859 809.173c-128.932 0 -243.71 4.40332 -344.34 13.208
c-100.629 8.80469 -188.679 20.126 -264.15 33.9619c-75.4717 13.8369 -139.309 27.9883 -191.51 42.4531c7.54688 -32.0762 11.3213 -65.0947 11.3213 -99.0566s-3.77441 -68.8682 -11.3213 -104.717c52.2012 14.4639 115.88 28.6152 191.038 42.4531
c13.917 2.5625 28.2705 5.03809 43.0615 7.42773c-1.09082 -106.766 -5.40137 -203.179 -12.9316 -289.243c-8.80469 -100.629 -20.126 -188.679 -33.9619 -264.15c-13.8369 -75.4717 -27.9883 -139.309 -42.4531 -191.51c32.0762 7.54688 65.0947 11.3213 99.0566 11.3213
s68.8682 -3.77441 104.717 -11.3213c-14.4639 52.2012 -28.6152 115.88 -42.4531 191.038c-13.8359 75.1572 -25.1572 163.05 -33.9619 263.679c-7.62695 87.1729 -11.9512 185.202 -12.9717 294.087c58.7354 8.82031 123.928 16.3643 195.577 22.6338
c100.629 8.80371 215.724 13.208 345.283 13.208v24.5273zM1095.56 807.329c-40.4561 -40.457 -79.585 -73.3574 -117.386 -98.707s-73.4346 -44.9727 -106.899 -58.8701c-33.4658 -13.8975 -63.5029 -23.9219 -90.1104 -30.0732
c3.20703 -2.60059 6.40625 -5.23242 9.59668 -7.89355c-6.97754 0.817383 -13.8564 1.68262 -20.6367 2.5957c-65.4082 8.80469 -122.641 20.126 -171.697 33.9619c-49.0566 13.8369 -90.5508 27.9883 -124.481 42.4531c4.90527 -32.0762 7.3584 -65.0947 7.3584 -99.0566
c0 -32.834 -2.29297 -66.5508 -6.87793 -101.148l-0.480469 0.205078c0.0908203 -0.59375 0.180664 -1.18848 0.269531 -1.7832c-0.0888672 -0.663086 -0.178711 -1.32617 -0.269531 -1.99023c0.176758 0.0751953 0.354492 0.151367 0.532227 0.226562
c4.55078 -30.9619 6.82617 -62.7988 6.82617 -95.5098c0 -32.834 -2.29297 -66.5508 -6.87793 -101.148l-0.480469 0.205078c0.0908203 -0.59375 0.180664 -1.18848 0.269531 -1.7832c-0.0888672 -0.663086 -0.178711 -1.32617 -0.269531 -1.99023
c0.176758 0.0751953 0.354492 0.151367 0.532227 0.226562c4.55078 -30.9619 6.82617 -62.7988 6.82617 -95.5098c0 -33.9619 -2.45312 -68.8682 -7.3584 -104.717c33.9307 14.4639 75.3223 28.6152 124.175 42.4531c48.8525 13.8359 105.982 25.1572 171.391 33.9619
c51.1143 6.87988 107.971 11.0732 170.568 12.5771c-1.26855 -6.10059 -2.56055 -12.1064 -3.87402 -18.0195c-13.8369 -62.2637 -27.9883 -114.929 -42.4531 -157.995c32.0762 6.22656 65.0947 9.33984 99.0566 9.33984s68.8682 -3.11328 104.717 -9.33984
c-14.4639 43.0664 -28.6152 95.6006 -42.4531 157.606c-13.8359 62.0049 -25.1572 134.516 -33.9619 217.535c-8.80371 83.0186 -13.208 177.972 -13.208 284.858h-2.09863c2.62988 4.07422 5.3291 8.17578 8.09668 12.3027
c25.3496 37.8008 58.3496 77.0293 99.0029 117.683zM983.189 622.622c-0.0722656 -7.19824 -0.166016 -14.3389 -0.28125 -21.4238c-3.74512 0.0175781 -7.47266 0.0439453 -11.1807 0.0800781c3.58691 7.02441 7.4082 14.1387 11.4619 21.3438zM982.418 576.618
c-1.49414 -63.0889 -4.73828 -121.538 -9.73242 -175.349c-75.2148 0.6875 -142.734 5.05859 -202.561 13.1113c-65.4082 8.80469 -122.641 20.126 -171.697 33.9619c-46.9219 13.2344 -86.9248 26.7568 -120.009 40.5664c33.0752 13.8086 72.9756 27.3311 119.702 40.5664
c48.8525 13.8359 105.982 25.1572 171.391 33.9619c21.4326 2.88477 43.875 5.29688 67.3271 7.2373c6.00586 -5.71582 11.9795 -11.5449 17.9219 -17.4873c24.0146 -24.0146 47.5127 -49.8818 70.4932 -77.5986c6.15234 26.6074 16.127 56.5957 29.9258 89.9629
c1.48438 3.58984 3.03613 7.2041 4.65332 10.8457c7.4502 0.109375 14.9785 0.183594 22.585 0.220703zM970.232 376.526l-0.0644531 -0.606445c-6.81934 -64.3018 -15.1484 -122.377 -24.9873 -174.228c-64.2637 1.39941 -122.615 5.62988 -175.056 12.6885
c-65.4082 8.80469 -122.641 20.126 -171.697 33.9619c-46.9219 13.2344 -86.9248 26.7568 -120.009 40.5664c33.0752 13.8086 72.9756 27.3311 119.702 40.5664c48.8525 13.8359 105.982 25.1572 171.391 33.9619c59.2041 7.96875 126.11 12.333 200.721 13.0889z" />
</svg>
