<?xml version="1.0" standalone="no"?>
<!DOCTYPE svg PUBLIC "-//W3C//DTD SVG 1.1//EN" "http://www.w3.org/Graphics/SVG/1.1/DTD/svg11.dtd" >
<svg xmlns="http://www.w3.org/2000/svg" xmlns:xlink="http://www.w3.org/1999/xlink" version="1.1" viewBox="0 0 1394 800">
   <path fill="currentColor"
d="M667.468 614.861c-5.70898 55.6172 -8.56445 117.33 -8.56445 185.139h-24.5273c0 -66.9414 -2.80957 -128.013 -8.42773 -183.217c-38.4785 1.99902 -75.2412 4.53125 -110.288 7.59766c-27.5645 2.41211 -54.1846 5.0127 -79.8604 7.80176
c-4.59766 51.0303 -6.89648 106.97 -6.89648 167.817h-24.5273c0 -59.0586 -2.18652 -113.548 -6.55957 -163.471c-53.125 6.40039 -101.894 13.6719 -146.307 21.8135c-75.4717 13.8369 -139.309 27.9883 -191.51 42.4531
c7.54688 -32.0762 11.3213 -65.0947 11.3213 -99.0566s-3.77441 -68.8682 -11.3213 -104.717c52.2012 14.4639 115.88 28.6152 191.038 42.4531c41.9971 7.73145 87.9717 14.6777 137.922 20.8379c-8.46289 -58.8389 -19.0479 -110.782 -31.7539 -155.832
c-13.8369 -49.0566 -27.9883 -90.5508 -42.4531 -124.481c32.0762 4.90527 65.0947 7.3584 99.0566 7.3584s68.8682 -2.45312 104.717 -7.3584c-14.4639 33.9307 -28.6152 75.3223 -42.4531 124.175c-13.1963 46.5938 -24.1045 100.717 -32.7246 162.37
c23.0312 2.44727 46.8213 4.74512 71.3682 6.89258c34.0361 2.97754 69.7266 5.45215 107.072 7.42285c-0.205078 -1.56543 -0.412109 -3.12598 -0.621094 -4.68164c-8.80469 -65.4082 -20.126 -122.641 -33.9619 -171.697
c-13.8369 -49.0566 -27.9883 -90.5508 -42.4531 -124.481c32.0762 4.90527 65.0947 7.3584 99.0566 7.3584s68.8682 -2.45312 104.717 -7.3584c-14.4639 33.9307 -28.6152 75.3223 -42.4531 124.175c-13.8359 48.8525 -25.1572 105.982 -33.9619 171.391
c-0.337891 2.50879 -0.668945 5.03125 -0.993164 7.56738c32.4307 1.28516 66.0195 2.2168 100.766 2.79688c0.280273 -8.00977 0.420898 -16.0732 0.420898 -24.1904c0 -33.9619 -2.45312 -68.8682 -7.3584 -104.717c33.9307 14.4639 75.3223 28.6152 124.175 42.4531
c48.8525 13.8359 105.982 25.1572 171.391 33.9619c59.5928 8.02051 126.99 12.3896 202.192 13.1035c-1.81055 -31.4775 -3.98926 -61.7715 -6.53613 -90.8809c-3.50293 -40.0352 -7.4043 -78.0791 -11.7041 -114.132c-67.542 1.20703 -128.653 5.49121 -183.339 12.8525
c-65.4082 8.80469 -122.641 20.126 -171.697 33.9619c-49.0566 13.8369 -90.5508 27.9883 -124.481 42.4531c4.90527 -32.0762 7.3584 -65.0947 7.3584 -99.0566s-2.45312 -68.8682 -7.3584 -104.717c33.9307 14.4639 75.3223 28.6152 124.175 42.4531
c48.8525 13.8359 105.982 25.1572 171.391 33.9619c53.8936 7.25391 114.17 11.5205 180.829 12.7988c-5.72949 -44.8203 -12.1074 -86.3955 -19.1348 -124.727c-2.5332 -13.8145 -5.07617 -27.2402 -7.62988 -40.2754c-159.728 0.560547 -302.871 4.94336 -429.435 13.1465
c-135.85 8.80469 -254.717 20.126 -356.604 33.9619c-101.887 13.8369 -188.066 27.9883 -258.538 42.4531c10.1885 -32.0762 15.2842 -65.0947 15.2842 -99.0566s-5.0957 -68.8682 -15.2842 -104.717c70.4717 14.4639 156.438 28.6152 257.901 42.4531
c101.462 13.8359 220.117 25.1572 355.966 33.9619c125.308 8.12012 267.23 12.498 425.768 13.1289c-9.80664 -47.8779 -19.7676 -90.0664 -29.8818 -126.566c32.0762 7.54688 65.0947 11.3213 99.0566 11.3213s68.8682 -3.77441 104.717 -11.3213
c-14.4639 52.2012 -28.6152 115.88 -42.4531 191.038c-13.8359 75.1572 -25.1572 163.05 -33.9619 263.679c-8.80371 100.629 -13.208 215.724 -13.208 345.283h-24.5273c0 -81.9639 -1.7793 -158.208 -5.33789 -228.734
c-75.3564 0.677734 -142.993 5.0498 -202.913 13.1152c-65.4082 8.80469 -122.641 20.126 -171.697 33.9619c-49.0566 13.8369 -90.5508 27.9883 -124.481 42.4531c2.45508 -16.0557 4.2959 -32.3486 5.52246 -48.877c-35.5303 0.608398 -69.8633 1.58887 -103.001 2.94238z
" />
</svg>
