<?xml version="1.0" standalone="no"?>
<!DOCTYPE svg PUBLIC "-//W3C//DTD SVG 1.1//EN" "http://www.w3.org/Graphics/SVG/1.1/DTD/svg11.dtd" >
<svg xmlns="http://www.w3.org/2000/svg" xmlns:xlink="http://www.w3.org/1999/xlink" version="1.1" viewBox="0 0 1271 773">
   <path fill="currentColor"
d="M1227.8 644.5c-60 -64.3994 -109.201 -118.399 -147.602 -162c-38.3984 -43.6006 -70.7988 -77.4004 -97.1992 -101.4c24.4004 -24.3994 48.7998 -49.7988 73.1992 -76.1992c24.4014 -26.4004 50.501 -55.001 78.3008 -85.8008s58.9004 -64.5996 93.3008 -101.4
l12.5996 9c-32.8008 52.4004 -60.9004 100.5 -84.3008 144.301s-42.7002 80.5 -57.9004 110.1c12.8008 25.2012 31.2012 60.1006 55.2012 104.701c24 44.5986 52.999 94.5 87 149.699zM1027.8 644.5c-60 -64.3994 -109.201 -118.399 -147.602 -162
c-38.3984 -43.6006 -70.7988 -77.4004 -97.1992 -101.4c24.4004 -24.3994 48.7998 -49.7988 73.1992 -76.1992c24.4014 -26.4004 50.501 -55.001 78.3008 -85.8008c27.5361 -30.5078 58.3105 -63.958 92.3223 -100.354c-38.7383 2.00488 -75.7393 4.5498 -111.002 7.63477
c-27.6523 2.41992 -54.3545 5.0293 -80.1074 7.82812c-30.7979 49.4951 -57.335 95.0908 -79.6133 136.791c-23.4004 43.8008 -42.7002 80.5 -57.9004 110.1c12.8008 25.2012 31.2012 60.1006 55.2012 104.701c24 44.5986 52.999 94.5 87 149.699l-3.30078 2.35742
c25.0205 2.70605 50.9463 5.23242 77.7773 7.58008c100.629 8.80371 215.724 13.208 345.283 13.208v24.5273c-128.932 0 -243.71 4.40332 -344.34 13.208c-100.629 8.80469 -188.679 20.126 -264.15 33.9619c-75.4717 13.8369 -139.309 27.9883 -191.51 42.4531
c7.54688 -32.0762 11.3213 -65.0947 11.3213 -99.0566s-3.77441 -68.8682 -11.3213 -104.717c52.2012 14.4639 115.88 28.6152 191.038 42.4531c50.4707 9.29102 106.684 17.4482 168.641 24.4707c-56.4043 -60.6406 -102.951 -111.79 -139.64 -153.446
c-38.3984 -43.6006 -70.7988 -77.4004 -97.1992 -101.4c24.4004 -24.3994 48.7998 -49.7988 73.1992 -76.1992c24.4014 -26.4004 50.501 -55.001 78.3008 -85.8008c22.8311 -25.2949 47.8896 -52.6143 75.1729 -81.957c-57.6826 6.73047 -110.35 14.4639 -158.003 23.2002
c-75.4717 13.8369 -139.309 27.9883 -191.51 42.4531c7.54688 -32.0762 11.3213 -65.0947 11.3213 -99.0566s-3.77441 -68.8682 -11.3213 -104.717c52.2012 14.4639 115.88 28.6152 191.038 42.4531c75.1572 13.8359 163.05 25.1572 263.679 33.9619
c100.629 8.80371 215.724 13.208 345.283 13.208v24.5273c-82.8652 0 -159.884 1.81934 -231.058 5.45605l11.2979 8.07031c-32.8008 52.4004 -60.9004 100.5 -84.3008 144.301s-42.7002 80.5 -57.9004 110.1c12.8008 25.2012 31.2012 60.1006 55.2012 104.701
c24 44.5986 52.999 94.5 87 149.699zM386.4 732c-80 -85.8662 -145.601 -157.866 -196.801 -216c-51.1992 -58.1338 -94.3994 -103.2 -129.6 -135.2c32.5332 -32.5332 65.0664 -66.3994 97.5996 -101.6c32.5342 -35.2002 67.334 -73.334 104.4 -114.4
s78.5332 -86.1338 124.4 -135.2l16.7998 12c-43.7334 69.8672 -81.2002 134 -112.4 192.4s-56.9336 107.334 -77.2002 146.8c17.0664 33.6006 41.6006 80.1338 73.6006 139.601c32 59.4658 70.666 126 116 199.6z" />
</svg>
