<?xml version="1.0" standalone="no"?>
<!DOCTYPE svg PUBLIC "-//W3C//DTD SVG 1.1//EN" "http://www.w3.org/Graphics/SVG/1.1/DTD/svg11.dtd" >
<svg xmlns="http://www.w3.org/2000/svg" xmlns:xlink="http://www.w3.org/1999/xlink" version="1.1" viewBox="0 0 988 642">
   <path fill="currentColor"
d="M754.696 641.982c-40.4561 -40.4561 -79.585 -73.3574 -117.386 -98.707c-37.8008 -25.3486 -73.4346 -44.9717 -106.899 -58.8701c-33.4658 -13.8965 -63.5029 -23.9209 -90.1104 -30.0723c25.0488 -20.3135 49.5811 -42.4766 73.5957 -66.4912
c8.82715 -8.82715 17.584 -17.9043 26.2715 -27.2314c-65.8184 1.31055 -125.48 5.56738 -178.989 12.7705c-65.4082 8.80469 -122.641 20.126 -171.697 33.9619c-49.0566 13.8369 -90.5508 27.9883 -124.481 42.4531c4.90527 -32.0762 7.3584 -65.0947 7.3584 -99.0566
s-2.45312 -68.8682 -7.3584 -104.717c33.9307 14.4639 75.3223 28.6152 124.175 42.4531c48.8525 13.8359 105.982 25.1572 171.391 33.9619c59.6094 8.02344 127.027 12.3926 202.255 13.1045c7.23926 -8.25488 14.4297 -16.6875 21.5693 -25.2988
c6.15234 26.6074 16.127 56.5947 29.9258 89.9629c13.7988 33.3662 33.3721 68.9502 58.7217 106.751s58.3496 77.0293 99.0029 117.683zM959.758 436.922c-40.457 -40.457 -79.585 -73.3584 -117.387 -98.707c-37.8008 -25.3496 -73.4346 -44.9727 -106.899 -58.8701
s-63.5029 -23.9219 -90.1104 -30.0732c25.0488 -20.3135 49.5811 -42.4766 73.5957 -66.4912s47.5127 -49.8818 70.4941 -77.5986c6.15137 26.6074 16.127 56.5947 29.9248 89.9629c13.7988 33.3662 33.373 68.9512 58.7217 106.751
c25.3506 37.8008 58.3506 77.0293 99.0029 117.683zM669.844 330.855c-40.457 -40.4561 -79.585 -73.3574 -117.387 -98.707c-37.8008 -25.3496 -73.4346 -44.9727 -106.899 -58.8701s-63.5029 -23.9219 -90.1104 -30.0732
c25.0488 -20.3135 49.5811 -42.4766 73.5957 -66.4912s47.5127 -49.8809 70.4941 -77.5977c6.15234 26.6064 16.127 56.5947 29.9248 89.9629c13.7988 33.3652 33.373 68.9502 58.7217 106.751c25.3506 37.7998 58.3506 77.0283 99.0029 117.682z" />
</svg>
