<?xml version="1.0" standalone="no"?>
<!DOCTYPE svg PUBLIC "-//W3C//DTD SVG 1.1//EN" "http://www.w3.org/Graphics/SVG/1.1/DTD/svg11.dtd" >
<svg xmlns="http://www.w3.org/2000/svg" xmlns:xlink="http://www.w3.org/1999/xlink" version="1.1" viewBox="0 0 1378 647">
   <path fill="currentColor"
d="M968.124 -0.498047c40.4561 40.4561 79.585 73.3574 117.386 98.707c37.8008 25.3486 73.4346 44.9717 106.899 58.8701c33.4658 13.8965 63.5029 23.9209 90.1104 30.0723c-25.0488 20.3135 -49.5811 42.4766 -73.5957 66.4912s-47.5127 49.8818 -70.4932 77.5986
c-6.15234 -26.6074 -16.127 -56.5947 -29.9258 -89.9629c-13.7988 -33.3662 -33.3721 -68.9502 -58.7217 -106.751s-58.3496 -77.0293 -99.0029 -117.683zM763.062 204.562c40.457 40.457 79.585 73.3584 117.387 98.707c37.8008 25.3496 73.4346 44.9727 106.899 58.8701
s63.5029 23.9219 90.1104 30.0732c-25.0488 20.3135 -49.5811 42.4766 -73.5957 66.4912s-47.5127 49.8818 -70.4941 77.5986c-6.15137 -26.6074 -16.127 -56.5947 -29.9248 -89.9629c-13.7988 -33.3662 -33.373 -68.9512 -58.7217 -106.751
c-25.3506 -37.8008 -58.3506 -77.0293 -99.0029 -117.683zM1052.98 310.629c40.457 40.4561 79.585 73.3574 117.387 98.707c37.8008 25.3496 73.4346 44.9727 106.899 58.8701s63.5029 23.9219 90.1104 30.0732c-25.0488 20.3135 -49.5811 42.4766 -73.5957 66.4912
s-47.5127 49.8809 -70.4941 77.5977c-6.15234 -26.6064 -16.127 -56.5947 -29.9248 -89.9629c-13.7988 -33.3652 -33.373 -68.9502 -58.7217 -106.751c-25.3506 -37.7998 -58.3506 -77.0283 -99.0029 -117.682zM444.249 646.982
c-40.4561 -40.4561 -79.585 -73.3574 -117.386 -98.707c-37.8008 -25.3486 -73.4346 -44.9717 -106.899 -58.8701c-33.4658 -13.8965 -63.5029 -23.9209 -90.1104 -30.0723c25.0488 -20.3135 49.5811 -42.4766 73.5957 -66.4912s47.5127 -49.8818 70.4932 -77.5986
c6.15234 26.6074 16.127 56.5947 29.9258 89.9629c13.7988 33.3662 33.3721 68.9502 58.7217 106.751s58.3496 77.0293 99.0029 117.683zM649.311 441.922c-40.457 -40.457 -79.585 -73.3584 -117.387 -98.707c-37.8008 -25.3496 -73.4346 -44.9727 -106.899 -58.8701
s-63.5029 -23.9219 -90.1104 -30.0732c25.0488 -20.3135 49.5811 -42.4766 73.5957 -66.4912s47.5127 -49.8818 70.4941 -77.5986c6.15137 26.6074 16.127 56.5947 29.9248 89.9629c13.7988 33.3662 33.373 68.9512 58.7217 106.751
c25.3506 37.8008 58.3506 77.0293 99.0029 117.683zM359.396 335.855c-40.457 -40.4561 -79.585 -73.3574 -117.387 -98.707c-37.8008 -25.3496 -73.4346 -44.9727 -106.899 -58.8701s-63.5029 -23.9219 -90.1104 -30.0732
c25.0488 -20.3135 49.5811 -42.4766 73.5957 -66.4912s47.5127 -49.8809 70.4941 -77.5977c6.15234 26.6064 16.127 56.5947 29.9248 89.9629c13.7988 33.3652 33.373 68.9502 58.7217 106.751c25.3506 37.7998 58.3506 77.0283 99.0029 117.682z" />
</svg>
