<?xml version="1.0" standalone="no"?>
<!DOCTYPE svg PUBLIC "-//W3C//DTD SVG 1.1//EN" "http://www.w3.org/Graphics/SVG/1.1/DTD/svg11.dtd" >
<svg xmlns="http://www.w3.org/2000/svg" xmlns:xlink="http://www.w3.org/1999/xlink" version="1.1" viewBox="0 0 924 910">
   <path fill="currentColor"
d="M436.936 897.068c0 -96.6982 -3.30176 -182.782 -9.90527 -258.255c-6.60352 -75.4717 -15.0947 -141.509 -25.4717 -198.112c-10.3779 -56.6035 -20.9912 -104.481 -31.8398 -143.633c24.0566 5.66016 48.8213 8.49121 74.292 8.49121
c25.4717 0 51.6514 -2.83105 78.5381 -8.49121c-10.8477 39.1514 -21.4619 86.9102 -31.8398 143.279c-10.377 56.3672 -18.8682 122.287 -25.4717 197.759c-6.60254 75.4717 -9.90625 161.793 -9.90625 258.962h-18.3955zM609.436 897.068
c0 -62.8535 -3.30176 -118.808 -9.90527 -167.865c-6.60352 -49.0566 -15.0947 -91.9805 -25.4717 -128.773c-10.3779 -36.792 -20.9912 -67.9131 -31.8398 -93.3613c18.374 2.81055 37.1621 4.54785 56.3613 5.21191
c-6.46094 -46.1826 -14.6357 -86.7988 -24.5215 -121.851c-10.3779 -36.792 -20.9912 -67.9131 -31.8398 -93.3613c24.0566 3.67969 48.8213 5.51953 74.292 5.51953c21.8828 0 44.2891 -1.3584 67.2158 -4.07422c-52.1924 -39.7666 -100.423 -72.043 -144.687 -96.832
c-44.4727 -24.9043 -83.8193 -44.2383 -118.04 -58.0029c26.1494 -19.2129 51.2314 -40.8252 75.2461 -64.8398s46.9629 -50.4326 68.8428 -79.25c13.7656 34.2207 33.0273 73.4951 57.7861 117.824c24.7607 44.3271 57.1523 92.7295 97.1768 145.206
c10.9434 14.3467 22.6152 28.957 35.0156 43.832c-0.995117 -5.71582 -2.00391 -11.3633 -3.02637 -16.9414c-13.8369 -75.4717 -27.9883 -139.309 -42.4531 -191.51c32.0762 7.54688 65.0947 11.3213 99.0566 11.3213s68.8682 -3.77441 104.717 -11.3213
c-14.4639 52.2012 -28.6152 115.88 -42.4531 191.038c-13.8359 75.1572 -25.1572 163.05 -33.9619 263.679c-8.80371 100.629 -13.208 215.724 -13.208 345.283h-24.5273c0 -128.932 -4.40332 -243.71 -13.208 -344.34c-7.98633 -91.2725 -18.042 -172.196 -30.168 -242.771
c-10.2451 10.2461 -10.9209 10.9219 -25.1729 25.1738c-13.1348 -10.9961 -26.0723 -21.4316 -38.8135 -31.3076c-9.7373 23.9346 -19.2842 52.416 -28.6396 85.4453c-9.9082 34.9834 -18.0967 75.627 -24.5654 121.932c18.4424 -0.75293 37.2441 -2.44141 56.4053 -5.06348
c-10.8477 25.4482 -21.4619 56.4922 -31.8398 93.1318c-10.377 36.6387 -18.8682 79.4863 -25.4717 128.543c-6.60254 49.0566 -9.90625 105.165 -9.90625 168.325h-18.3955zM354.662 910.062c-15.6807 -13.127 -31.0801 -25.4561 -46.1992 -36.9873
c-52.4756 -40.0244 -100.951 -72.4883 -145.423 -97.3936c-44.4727 -24.9043 -83.8193 -44.2383 -118.04 -58.0029c26.1494 -19.2129 51.2314 -40.8252 75.2461 -64.8398s46.9629 -50.4326 68.8428 -79.25c13.7139 34.0928 32.8838 73.2021 57.5098 117.329
c-1.48828 -79.5215 -5.68652 -151.854 -12.5957 -216.998c-8.80469 -83.0195 -20.126 -155.66 -33.9619 -217.925c-13.8369 -62.2637 -27.9883 -114.929 -42.4531 -157.995c32.0762 6.22656 65.0947 9.33984 99.0566 9.33984s68.8682 -3.11328 104.717 -9.33984
c-14.4639 43.0664 -28.6152 95.6006 -42.4531 157.606c-13.8359 62.0049 -25.1572 134.516 -33.9619 217.535c-8.12109 76.583 -12.499 163.323 -13.1289 260.218c20.4111 32.4619 44.4883 66.8818 72.2344 103.26c11.6377 15.2568 24.0996 30.8125 37.3857 46.667
c-11.8145 11.8154 -11.8145 11.8154 -26.7754 26.7764z" />
</svg>
