<?xml version="1.0" standalone="no"?>
<!DOCTYPE svg PUBLIC "-//W3C//DTD SVG 1.1//EN" "http://www.w3.org/Graphics/SVG/1.1/DTD/svg11.dtd" >
<svg xmlns="http://www.w3.org/2000/svg" xmlns:xlink="http://www.w3.org/1999/xlink" version="1.1" viewBox="0 0 924 905">
   <path fill="currentColor"
d="M436.936 897.068c0 -96.6982 -3.30176 -182.782 -9.90527 -258.255c-6.60352 -75.4717 -15.0947 -141.509 -25.4717 -198.112c-10.3779 -56.6035 -20.9912 -104.481 -31.8398 -143.633c24.0566 5.66016 48.8213 8.49121 74.292 8.49121
c25.4717 0 51.6514 -2.83105 78.5381 -8.49121c-10.8477 39.1514 -21.4619 86.9102 -31.8398 143.279c-10.377 56.3672 -18.8682 122.287 -25.4717 197.759c-6.60254 75.4717 -9.90625 161.793 -9.90625 258.962h-18.3955zM609.436 897.068
c0 -62.8535 -3.30176 -118.808 -9.90527 -167.865c-6.60352 -49.0566 -15.0947 -91.9805 -25.4717 -128.773c-10.3779 -36.792 -20.9912 -67.9131 -31.8398 -93.3613c21.2871 3.25586 43.1289 5.07129 65.5234 5.44629
c-1.60059 -22.8857 -4.33789 -44.1514 -8.21191 -63.7969c-6.60352 -33.4902 -15.0947 -62.7949 -25.4717 -87.9121c-10.3779 -25.1182 -20.9912 -46.3643 -31.8398 -63.7373c24.0566 2.51172 48.8213 3.76758 74.292 3.76758c25.4717 0 51.6514 -1.25586 78.5381 -3.76758
c-10.8477 17.373 -21.4619 38.5664 -31.8398 63.5801c-10.377 25.0137 -18.8682 54.2656 -25.4717 87.7559c-3.87988 19.6797 -6.62012 41.0215 -8.2207 64.0254c21.3555 -0.517578 43.2002 -2.30469 65.5322 -5.36133c-10.8477 25.4482 -21.4619 56.4922 -31.8398 93.1318
c-10.377 36.6387 -18.8682 79.4863 -25.4717 128.543c-6.60254 49.0566 -9.90625 105.165 -9.90625 168.325h-18.3955zM799.211 898c0 -128.932 -4.40332 -243.71 -13.208 -344.34c-8.80469 -100.629 -20.126 -188.679 -33.9619 -264.15
c-13.8369 -75.4717 -27.9883 -139.309 -42.4531 -191.51c32.0762 7.54688 65.0947 11.3213 99.0566 11.3213s68.8682 -3.77441 104.717 -11.3213c-14.4639 52.2012 -28.6152 115.88 -42.4531 191.038c-13.8359 75.1572 -25.1572 163.05 -33.9619 263.679
c-8.80371 100.629 -13.208 215.724 -13.208 345.283h-24.5273zM735.396 331.329c-40.4561 -40.457 -79.585 -73.3574 -117.386 -98.707s-73.4346 -44.9727 -106.899 -58.8701c-33.4658 -13.8975 -63.5029 -23.9219 -90.1104 -30.0732
c25.0488 -20.3135 49.5811 -42.4766 73.5957 -66.4912s47.5127 -49.8818 70.4932 -77.5986c6.15234 26.6074 16.127 56.5957 29.9258 89.9629c13.7988 33.3662 33.3721 68.9512 58.7217 106.751c25.3496 37.8008 58.3496 77.0293 99.0029 117.683zM359.396 905.329
c-40.4561 -40.457 -79.585 -73.3574 -117.386 -98.707s-73.4346 -44.9727 -106.899 -58.8701c-33.4658 -13.8975 -63.5029 -23.9219 -90.1104 -30.0732c25.0488 -20.3135 49.5811 -42.4766 73.5957 -66.4912s47.5127 -49.8818 70.4932 -77.5986
c6.15234 26.6074 16.127 56.5957 29.9258 89.9629c7.58984 18.3525 16.9268 37.376 28.0098 57.0703c-0.920898 -91.3018 -5.26172 -173.535 -13.0215 -246.702c-8.80469 -83.0195 -20.126 -155.66 -33.9619 -217.925
c-13.8369 -62.2637 -27.9883 -114.929 -42.4531 -157.995c32.0762 6.22656 65.0947 9.33984 99.0566 9.33984s68.8682 -3.11328 104.717 -9.33984c-14.4639 43.0664 -28.6152 95.6006 -42.4531 157.606c-13.8359 62.0049 -25.1572 134.516 -33.9619 217.535
c-8.80371 83.0186 -13.208 177.972 -13.208 284.858h-2.09863c2.62988 4.07422 5.3291 8.17578 8.09668 12.3027c25.3496 37.8008 58.3496 77.0293 99.0029 117.683z" />
</svg>
