<?xml version="1.0" standalone="no"?>
<!DOCTYPE svg PUBLIC "-//W3C//DTD SVG 1.1//EN" "http://www.w3.org/Graphics/SVG/1.1/DTD/svg11.dtd" >
<svg xmlns="http://www.w3.org/2000/svg" xmlns:xlink="http://www.w3.org/1999/xlink" version="1.1" viewBox="0 0 1920 910">
   <path fill="currentColor"
d="M1883.16 336.424c-15.6807 -13.127 -31.0801 -25.4561 -46.1992 -36.9873c-52.4756 -40.0254 -100.951 -72.4893 -145.423 -97.3936c-44.4727 -24.9043 -83.8193 -44.2383 -118.04 -58.0029c26.1494 -19.2129 51.2314 -40.8262 75.2461 -64.8408
c24.0156 -24.0146 46.9629 -50.4316 68.8428 -79.249c13.7656 34.2207 33.0273 73.4951 57.7861 117.824c24.7607 44.3271 57.1523 92.7295 97.1768 145.206c11.6377 15.2568 24.0996 30.8125 37.3867 46.667c-11.8154 11.8145 -11.8154 11.8145 -26.7764 26.7764z
M1394.89 824.692c-15.6816 -13.127 -31.0811 -25.4561 -46.1992 -36.9873c-52.4766 -40.0244 -100.951 -72.4883 -145.423 -97.3936c-44.4727 -24.9043 -83.8203 -44.2383 -118.041 -58.0029c26.1504 -19.2119 51.2324 -40.8252 75.2471 -64.8398
s46.9629 -50.4316 68.8428 -79.249c13.7646 34.2197 33.0273 73.4941 57.7861 117.823c24.7607 44.3271 57.1523 92.7295 97.1768 145.206c11.6367 15.2568 24.0986 30.8125 37.3857 46.668zM1557.53 662.058c-15.6807 -13.127 -31.0801 -25.4561 -46.1992 -36.9873
c-52.4766 -40.0244 -100.951 -72.4893 -145.423 -97.3936c-44.4727 -24.9043 -83.8193 -44.2383 -118.04 -58.0029c26.1494 -19.2129 51.2314 -40.8252 75.2461 -64.8408c24.0146 -24.0146 46.9629 -50.4316 68.8428 -79.249
c13.7656 34.2207 33.0273 73.4951 57.7861 117.824c24.7607 44.3271 57.1523 92.7295 97.1768 145.206c11.6377 15.2568 24.0996 30.8125 37.3857 46.667c-11.8145 11.8154 -11.8145 11.8154 -26.7754 26.7764zM1720.16 499.423
c-15.6807 -13.127 -31.0801 -25.4561 -46.1992 -36.9863c-52.4756 -40.0254 -100.951 -72.4893 -145.423 -97.3945c-44.4727 -24.9033 -83.8193 -44.2383 -118.04 -58.002c26.1494 -19.2129 51.2314 -40.8262 75.2461 -64.8408
c24.0156 -24.0146 46.9629 -50.4316 68.8428 -79.249c13.7656 34.2197 33.0273 73.4951 57.7861 117.823c24.7607 44.3281 57.1523 92.7305 97.1768 145.207c11.6377 15.2559 24.0996 30.8125 37.3867 46.667c-11.8154 11.8145 -11.8154 11.8145 -26.7764 26.7754z
M1039.21 898c0 -128.932 -4.40332 -243.71 -13.208 -344.34c-8.80469 -100.629 -20.126 -188.679 -33.9619 -264.15c-2.50781 -13.6787 -5.02637 -26.9756 -7.55469 -39.8906c-65.6348 1.32227 -125.144 5.57617 -178.526 12.7617
c-65.4082 8.80469 -122.641 20.126 -171.697 33.9619c-49.0566 13.8369 -90.5508 27.9883 -124.481 42.4531c4.90527 -32.0762 7.3584 -65.0947 7.3584 -99.0566s-2.45312 -68.8682 -7.3584 -104.717c33.9307 14.4639 75.3223 28.6152 124.175 42.4531
c48.8525 13.8359 105.982 25.1572 171.391 33.9619c52.0537 7.00586 110.063 11.2266 174.026 12.6572c-9.77539 -47.6826 -19.7041 -89.7148 -29.7852 -126.095c32.0762 7.54688 65.0947 11.3213 99.0566 11.3213s68.8682 -3.77441 104.717 -11.3213
c-14.4639 52.2012 -28.6152 115.88 -42.4531 191.038c-13.8359 75.1572 -25.1572 163.05 -33.9619 263.679c-8.80371 100.629 -13.208 215.724 -13.208 345.283h-24.5273zM354.662 910.062c-15.6807 -13.127 -31.0801 -25.4561 -46.1992 -36.9873
c-52.4756 -40.0244 -100.951 -72.4883 -145.423 -97.3936c-44.4727 -24.9043 -83.8193 -44.2383 -118.04 -58.0029c26.1494 -19.2129 51.2314 -40.8252 75.2461 -64.8398s46.9629 -50.4326 68.8428 -79.25c13.7139 34.0928 32.8838 73.2012 57.5088 117.327
c-1.48828 -79.5205 -5.68652 -151.852 -12.5957 -216.996c-8.80469 -83.0195 -20.126 -155.66 -33.9619 -217.925c-13.8369 -62.2637 -27.9883 -114.929 -42.4531 -157.995c32.0762 6.22656 65.0947 9.33984 99.0566 9.33984s68.8682 -3.11328 104.717 -9.33984
c-14.4639 43.0664 -28.6152 95.6006 -42.4531 157.606c-13.8359 62.0049 -25.1572 134.516 -33.9619 217.535c-8.12109 76.583 -12.499 163.322 -13.1289 260.216c20.4111 32.4629 44.4893 66.8828 72.2354 103.262c11.6377 15.2568 24.0996 30.8125 37.3857 46.667
c-11.8145 11.8154 -11.8145 11.8154 -26.7754 26.7764zM990.862 771.131c-104.435 0 -197.405 2.6416 -278.915 7.9248c-81.5098 5.28223 -152.83 12.0752 -213.962 20.377c-61.1328 8.30176 -112.84 16.793 -155.123 25.4717
c6.11328 -19.2451 9.16992 -39.0566 9.16992 -59.4336c0 -19.7373 -2.86816 -40.0078 -8.60352 -60.8076c-0.189453 0.0810547 -0.37793 0.161133 -0.566406 0.241211c0.0751953 -0.491211 0.149414 -0.983398 0.222656 -1.47559l-0.222656 -0.788086
c0.109375 0.0224609 0.219727 0.0449219 0.329102 0.0673828c2.72363 -18.5547 4.08594 -37.6348 4.08594 -57.2373c0 -20.377 -1.47168 -41.3213 -4.41504 -62.8301c20.3584 8.67773 45.1934 17.1689 74.5049 25.4717c29.3115 8.30176 63.5889 15.0947 102.834 20.377
c29.2002 3.92969 61.5234 6.39941 96.9688 7.40527c-0.37207 -16.665 -1.71191 -33.7041 -4.01953 -51.1133c-0.0957031 0.0410156 -0.192383 0.0820312 -0.288086 0.123047c0.0546875 -0.356445 0.108398 -0.712891 0.162109 -1.06934
c-0.0537109 -0.398438 -0.107422 -0.795898 -0.162109 -1.19434c0.106445 0.0449219 0.212891 0.0908203 0.319336 0.135742c2.73047 -18.5771 4.0957 -37.6787 4.0957 -57.3057c0 -19.7002 -1.37598 -39.9307 -4.12695 -60.6895
c-0.0957031 0.0410156 -0.192383 0.0820312 -0.288086 0.123047c0.0546875 -0.356445 0.108398 -0.712891 0.162109 -1.06934c-0.0537109 -0.398438 -0.107422 -0.795898 -0.162109 -1.19434c0.106445 0.0449219 0.212891 0.0908203 0.319336 0.135742
c2.73047 -18.5771 4.0957 -37.6787 4.0957 -57.3057c0 -20.377 -1.47168 -41.3213 -4.41504 -62.8301c20.3584 8.67773 45.1934 17.1689 74.5049 25.4717c29.3115 8.30176 63.5889 15.0947 102.834 20.377c33.2363 4.47363 70.5176 7.05371 111.845 7.73926
c-2.73242 -12.6885 -5.68652 -24.6592 -8.86035 -35.9131c-8.30176 -29.4336 -16.793 -54.3301 -25.4717 -74.6885c19.2461 2.94336 39.0566 4.41504 59.4336 4.41504c20.3779 0 41.3213 -1.47168 62.8301 -4.41504c-8.67773 20.3584 -17.1689 45.1934 -25.4717 74.5049
c-7.92676 27.9873 -14.4766 60.5029 -19.6514 97.5459c14.7539 -0.602539 29.7949 -1.95312 45.123 -4.05078c-8.67773 20.3584 -17.1689 45.1934 -25.4717 74.5049c-8.30176 29.3115 -15.0938 63.5898 -20.377 102.834c-4.9502 36.7793 -7.58203 78.5127 -7.89355 125.2
c17.8418 0.165039 36.0508 0.248047 54.627 0.248047v14.7168zM615.546 583.772c19.8447 8.28418 43.7852 16.3984 71.8213 24.3398c29.3115 8.30176 63.5889 15.0947 102.834 20.377c36.4697 4.9082 77.8096 7.53809 124.021 7.88477
c-0.214844 -1.68945 -0.435547 -3.37012 -0.660156 -5.04004c-5.09375 -37.8486 -11.5938 -71.1338 -19.4961 -99.8574c-37.9521 0.873047 -72.4512 3.39941 -103.497 7.5791c-39.2451 5.28223 -73.584 12.0752 -103.019 20.377
c-28.1533 7.94043 -52.1553 16.0547 -72.0049 24.3398zM617.231 651.653c-35.2695 1.00781 -67.4902 3.47559 -96.6621 7.40234c-39.2451 5.28223 -73.584 12.0752 -103.019 20.377c-27.708 7.81543 -51.3955 15.7979 -71.0615 23.9473
c41.5947 8.4209 91.9648 16.666 151.113 24.7324c60.8779 8.30176 132.07 15.0947 213.58 20.377c63.0742 4.08789 133.165 6.59473 210.272 7.51953c-0.261719 -38.2324 -2.09473 -73.1826 -5.49902 -104.85c-46.6777 0.294922 -88.4727 2.92676 -125.387 7.89648
c-39.2451 5.28223 -73.584 12.0752 -103.019 20.377c-29.4336 8.30176 -54.3301 16.793 -74.6885 25.4717c2.64453 -17.293 4.10156 -35.0439 4.36914 -53.251zM615.546 463.772c19.8447 8.28418 43.7852 16.3984 71.8213 24.3398
c29.3115 8.30176 63.5889 15.0947 102.834 20.377c29.8691 4.02051 63.0059 6.51172 99.4102 7.47266c-7.16113 -24.1104 -14.46 -44.8887 -21.8975 -62.335c14.7002 2.24805 29.7295 3.6377 45.0889 4.16895c-2.29199 -16.3838 -4.85352 -31.8926 -7.68457 -46.5254
c-42.333 0.608398 -80.5156 3.2041 -114.549 7.78516c-39.2451 5.28223 -73.584 12.0752 -103.019 20.377c-28.1533 7.94043 -52.1553 16.0547 -72.0049 24.3398z" />
</svg>
