<?xml version="1.0" standalone="no"?>
<!DOCTYPE svg PUBLIC "-//W3C//DTD SVG 1.1//EN" "http://www.w3.org/Graphics/SVG/1.1/DTD/svg11.dtd" >
<svg xmlns="http://www.w3.org/2000/svg" xmlns:xlink="http://www.w3.org/1999/xlink" version="1.1" viewBox="0 0 1088 905">
   <path fill="currentColor"
d="M1077.78 534.173c-83.8057 0 -158.411 4.40332 -223.821 13.208c-5.64355 0.759766 -11.2266 1.53809 -16.749 2.33496c-0.0878906 0.999023 -0.175781 2 -0.263672 3.00098c-8.80371 100.629 -13.208 215.724 -13.208 345.283h-24.5273
c0 -127.128 -4.28125 -240.496 -12.8408 -340.109c-38.0439 6.79004 -72.7471 14.6074 -104.108 23.4521c-49.0566 13.8369 -90.5508 27.9883 -124.481 42.4531c4.35645 -28.4893 6.7793 -57.7207 7.2666 -87.6973c-32.4043 2.07812 -62.4092 5.83887 -90.0137 11.2822
c-44.6543 8.80469 -83.7266 20.126 -117.217 33.9619c-32.7705 13.5391 -60.5977 27.3799 -83.4814 41.5205c-1.73047 42.6992 -2.59668 87.7451 -2.59668 135.137h-2.09863c2.62988 4.07422 5.3291 8.17578 8.09668 12.3027
c25.3496 37.8008 58.3496 77.0293 99.0029 117.683l-17.3438 17.3438c-40.4561 -40.457 -79.585 -73.3574 -117.386 -98.707s-73.4346 -44.9727 -106.899 -58.8701c-33.4658 -13.8975 -63.5029 -23.9219 -90.1104 -30.0732
c25.0488 -20.3135 49.5811 -42.4766 73.5957 -66.4912s47.5127 -49.8818 70.4932 -77.5986c6.15234 26.6074 16.127 56.5957 29.9258 89.9629c7.58984 18.3525 16.9268 37.376 28.0098 57.0703c-0.920898 -91.3018 -5.26172 -173.535 -13.0215 -246.702
c-8.80469 -83.0195 -20.126 -155.66 -33.9619 -217.925c-13.8369 -62.2637 -27.9883 -114.929 -42.4531 -157.995c32.0762 6.22656 65.0947 9.33984 99.0566 9.33984s68.8682 -3.11328 104.717 -9.33984c-14.4639 43.0664 -28.6152 95.6006 -42.4531 157.606
c-11.3887 51.0391 -21.0742 109.197 -29.0547 174.475c19.5879 10.9824 42.1729 21.7803 67.7539 32.3945c33.3506 13.8359 72.3535 25.1572 117.007 33.9619c27.6465 5.4502 57.7539 9.21484 90.3213 11.292c-0.679688 -28.5801 -3.06543 -57.8164 -7.15527 -87.707
c33.9307 14.4639 75.3223 28.6152 124.175 42.4531c29.4629 8.34473 61.9355 15.7744 97.4199 22.2891c-7.63965 -72.4443 -16.751 -137.528 -27.334 -195.255c-13.8369 -75.4717 -27.9883 -139.309 -42.4531 -191.51c32.0762 7.54688 65.0947 11.3213 99.0566 11.3213
s68.8682 -3.77441 104.717 -11.3213c-14.4639 52.2012 -28.6152 115.88 -42.4531 191.038c-11.1201 60.4053 -20.6162 129.036 -28.4863 205.895c3.61523 0.509766 7.25684 1.01074 10.9238 1.50488c65.4092 8.80371 140.221 13.208 224.435 13.208v24.5273z
M735.396 331.329c-40.4561 -40.457 -79.585 -73.3574 -117.386 -98.707s-73.4346 -44.9727 -106.899 -58.8701c-33.4658 -13.8975 -63.5029 -23.9219 -90.1104 -30.0732c25.0488 -20.3135 49.5811 -42.4766 73.5957 -66.4912s47.5127 -49.8818 70.4932 -77.5986
c6.15234 26.6074 16.127 56.5957 29.9258 89.9629c13.7988 33.3662 33.3721 68.9512 58.7217 106.751c25.3496 37.8008 58.3496 77.0293 99.0029 117.683z" />
</svg>
