<?xml version="1.0" standalone="no"?>
<!DOCTYPE svg PUBLIC "-//W3C//DTD SVG 1.1//EN" "http://www.w3.org/Graphics/SVG/1.1/DTD/svg11.dtd" >
<svg xmlns="http://www.w3.org/2000/svg" xmlns:xlink="http://www.w3.org/1999/xlink" version="1.1" viewBox="0 0 1088 910">
   <path fill="currentColor"
d="M1077.78 534.173c-83.8057 0 -158.411 4.40332 -223.821 13.208c-5.64355 0.759766 -11.2266 1.53809 -16.749 2.33496c-0.0878906 0.999023 -0.175781 2 -0.263672 3.00098c-8.80371 100.629 -13.208 215.724 -13.208 345.283h-24.5273
c0 -127.128 -4.28125 -240.496 -12.8408 -340.109c-38.0439 6.79004 -72.7471 14.6074 -104.108 23.4521c-49.0566 13.8369 -90.5508 27.9883 -124.481 42.4531c3.78027 -24.7188 6.10449 -49.998 6.97168 -75.8359c-63.6357 8.71973 -119.448 19.8486 -167.437 33.3828
c-48.3408 13.6348 -89.3389 27.5752 -122.992 41.8203c-1.4209 35.1436 -2.25684 71.876 -2.50586 110.196c20.4111 32.4619 44.4883 66.8818 72.2344 103.26c11.6377 15.2568 24.0996 30.8125 37.3857 46.667c-11.8145 11.8154 -11.8145 11.8154 -26.7754 26.7764
c-15.6807 -13.127 -31.0801 -25.4561 -46.1992 -36.9873c-52.4756 -40.0244 -100.951 -72.4883 -145.423 -97.3936c-44.4727 -24.9043 -83.8193 -44.2383 -118.04 -58.0029c26.1494 -19.2129 51.2314 -40.8252 75.2461 -64.8398s46.9629 -50.4326 68.8428 -79.25
c13.7139 34.0928 32.8838 73.2021 57.5098 117.329c-1.48828 -79.5215 -5.68652 -151.854 -12.5957 -216.998c-8.80469 -83.0195 -20.126 -155.66 -33.9619 -217.925c-13.8369 -62.2637 -27.9883 -114.929 -42.4531 -157.995
c32.0762 6.22656 65.0947 9.33984 99.0566 9.33984s68.8682 -3.11328 104.717 -9.33984c-14.4639 43.0664 -28.6152 95.6006 -42.4531 157.606c-11.2178 50.2734 -20.7832 107.453 -28.6943 171.54c30.3936 11.9951 65.9922 23.7715 106.795 35.3291
c47.8936 13.5645 103.744 24.7119 167.55 33.4404c-0.990234 -24.8096 -3.25 -50.1074 -6.77832 -75.8936c33.9307 14.4639 75.3223 28.6152 124.175 42.4531c29.4629 8.34473 61.9355 15.7744 97.4199 22.2891c-6.71094 -63.6377 -14.5576 -121.596 -23.54 -173.876
c-10.2451 10.2461 -10.9209 10.9219 -25.1729 25.1738c-15.6807 -13.127 -31.0801 -25.4561 -46.1992 -36.9873c-52.4756 -40.0244 -100.951 -72.4883 -145.423 -97.3936c-44.4727 -24.9043 -83.8193 -44.2383 -118.04 -58.0029
c26.1494 -19.2129 51.2314 -40.8252 75.2461 -64.8398s46.9629 -50.4326 68.8428 -79.25c13.7656 34.2207 33.0273 73.4951 57.7861 117.824c24.7607 44.3271 57.1523 92.7295 97.1768 145.206c10.9434 14.3467 22.6152 28.957 35.0156 43.832
c-0.995117 -5.71582 -2.00391 -11.3633 -3.02637 -16.9414c-13.8369 -75.4717 -27.9883 -139.309 -42.4531 -191.51c32.0762 7.54688 65.0947 11.3213 99.0566 11.3213s68.8682 -3.77441 104.717 -11.3213c-14.4639 52.2012 -28.6152 115.88 -42.4531 191.038
c-11.1201 60.4053 -20.6162 129.036 -28.4863 205.895c3.61523 0.509766 7.25684 1.01074 10.9238 1.50488c65.4092 8.80371 140.221 13.208 224.435 13.208v24.5273zM274.941 608.789c3.5 -27.3438 5.25098 -55.3604 5.25098 -84.0498v-0.357422
c-2.16699 27.0059 -3.91699 55.1426 -5.25098 84.4072z" />
</svg>
