<?xml version="1.0" standalone="no"?>
<!DOCTYPE svg PUBLIC "-//W3C//DTD SVG 1.1//EN" "http://www.w3.org/Graphics/SVG/1.1/DTD/svg11.dtd" >
<svg xmlns="http://www.w3.org/2000/svg" xmlns:xlink="http://www.w3.org/1999/xlink" version="1.1" viewBox="0 0 1164 807">
   <path fill="currentColor"
d="M990.862 673.131c-104.435 0 -197.405 2.6416 -278.915 7.9248c-81.5098 5.28223 -152.83 12.0752 -213.962 20.377c-61.1328 8.30176 -112.84 16.793 -155.123 25.4717c6.11328 -19.2451 9.16992 -39.0566 9.16992 -59.4336
c0 -19.7373 -2.86816 -40.0078 -8.60352 -60.8076c-0.189453 0.0810547 -0.37793 0.161133 -0.566406 0.241211c0.0751953 -0.491211 0.149414 -0.983398 0.222656 -1.47559l-0.222656 -0.788086c0.109375 0.0224609 0.219727 0.0449219 0.329102 0.0673828
c2.72363 -18.5547 4.08594 -37.6348 4.08594 -57.2373c0 -20.377 -1.47168 -41.3213 -4.41504 -62.8301c20.3584 8.67773 45.1934 17.1689 74.5049 25.4717c29.3115 8.30176 63.5889 15.0947 102.834 20.377c29.2002 3.92969 61.5234 6.39941 96.9688 7.40527
c-0.37207 -16.665 -1.71191 -33.7041 -4.01953 -51.1133c-0.0957031 0.0410156 -0.192383 0.0820312 -0.288086 0.123047c0.0546875 -0.356445 0.108398 -0.712891 0.162109 -1.06934c-0.0537109 -0.398438 -0.107422 -0.795898 -0.162109 -1.19434
c0.106445 0.0449219 0.212891 0.0908203 0.319336 0.135742c2.73047 -18.5771 4.0957 -37.6787 4.0957 -57.3057c0 -19.7002 -1.37598 -39.9307 -4.12695 -60.6895c-0.0957031 0.0410156 -0.192383 0.0820312 -0.288086 0.123047
c0.0546875 -0.356445 0.108398 -0.712891 0.162109 -1.06934c-0.0537109 -0.398438 -0.107422 -0.795898 -0.162109 -1.19434c0.106445 0.0449219 0.212891 0.0908203 0.319336 0.135742c2.73047 -18.5771 4.0957 -37.6787 4.0957 -57.3057
c0 -20.377 -1.47168 -41.3213 -4.41504 -62.8301c20.3584 8.67773 45.1934 17.1689 74.5049 25.4717c29.3115 8.30176 63.5889 15.0947 102.834 20.377c35.7139 4.80664 76.0986 7.42773 121.155 7.86035c-4.9248 -22.4219 -10.9824 -42.333 -18.1709 -59.7334
c-8.30176 -20.0938 -16.793 -37.0908 -25.4717 -50.9893c19.2461 2.00879 39.0566 3.01367 59.4336 3.01367c20.3779 0 41.3213 -1.00488 62.8301 -3.01367c-8.67773 13.8984 -17.1689 30.8535 -25.4717 50.8643c-8.30176 20.0098 -15.0938 43.4121 -20.377 70.2041
c-3.10352 15.7432 -5.2959 32.8164 -6.57715 51.2197c17.085 -0.414062 34.5605 -1.84375 52.4258 -4.28809c-8.67773 20.3584 -17.1689 45.1934 -25.4717 74.5049c-8.30176 29.3115 -15.0938 63.5898 -20.377 102.834c-4.9502 36.7793 -7.58203 78.5127 -7.89355 125.2
c17.8418 0.165039 36.0508 0.248047 54.627 0.248047v14.7168zM359.396 807.329c-40.4561 -40.457 -79.585 -73.3574 -117.386 -98.707s-73.4346 -44.9727 -106.899 -58.8701c-33.4658 -13.8975 -63.5029 -23.9219 -90.1104 -30.0732
c25.0488 -20.3135 49.5811 -42.4766 73.5957 -66.4912s47.5127 -49.8818 70.4932 -77.5986c6.15234 26.6074 16.127 56.5957 29.9258 89.9629c7.58984 18.3516 16.9258 37.375 28.0088 57.0684c-0.920898 -91.3018 -5.26172 -173.534 -13.0215 -246.7
c-8.80469 -83.0195 -20.126 -155.66 -33.9619 -217.925c-13.8369 -62.2637 -27.9883 -114.929 -42.4531 -157.995c32.0762 6.22656 65.0947 9.33984 99.0566 9.33984s68.8682 -3.11328 104.717 -9.33984c-14.4639 43.0664 -28.6152 95.6006 -42.4531 157.606
c-13.8359 62.0049 -25.1572 134.516 -33.9619 217.535c-8.80371 83.0186 -13.208 177.972 -13.208 284.858h-2.09766c2.62988 4.07422 5.3291 8.17578 8.09668 12.3027c25.3496 37.8008 58.3496 77.0293 99.0029 117.683zM1039.21 800
c0 -128.932 -4.40332 -243.71 -13.208 -344.34c-8.80469 -100.629 -20.126 -188.679 -33.9619 -264.15c-2.50781 -13.6787 -5.02637 -26.9756 -7.55469 -39.8906c-65.6348 1.32227 -125.144 5.57617 -178.526 12.7617c-65.4082 8.80469 -122.641 20.126 -171.697 33.9619
c-49.0566 13.8369 -90.5508 27.9883 -124.481 42.4531c4.90527 -32.0762 7.3584 -65.0947 7.3584 -99.0566s-2.45312 -68.8682 -7.3584 -104.717c33.9307 14.4639 75.3223 28.6152 124.175 42.4531c48.8525 13.8359 105.982 25.1572 171.391 33.9619
c52.0537 7.00586 110.063 11.2266 174.026 12.6572c-9.77539 -47.6826 -19.7041 -89.7148 -29.7852 -126.095c32.0762 7.54688 65.0947 11.3213 99.0566 11.3213s68.8682 -3.77441 104.717 -11.3213c-14.4639 52.2012 -28.6152 115.88 -42.4531 191.038
c-13.8359 75.1572 -25.1572 163.05 -33.9619 263.679c-8.80371 100.629 -13.208 215.724 -13.208 345.283h-24.5273zM615.546 485.772c19.8447 8.28418 43.7852 16.3984 71.8213 24.3398c29.3115 8.30176 63.5889 15.0947 102.834 20.377
c36.4697 4.9082 77.8096 7.53809 124.021 7.88477c-0.214844 -1.68945 -0.435547 -3.37012 -0.660156 -5.04004c-5.09375 -37.8486 -11.5938 -71.1338 -19.4961 -99.8574c-37.9521 0.873047 -72.4512 3.39941 -103.497 7.5791
c-39.2451 5.28223 -73.584 12.0752 -103.019 20.377c-28.1533 7.94043 -52.1553 16.0547 -72.0049 24.3398zM617.231 553.653c-35.2695 1.00781 -67.4902 3.47559 -96.6621 7.40234c-39.2451 5.28223 -73.584 12.0752 -103.019 20.377
c-27.708 7.81543 -51.3955 15.7979 -71.0615 23.9473c41.5947 8.4209 91.9648 16.666 151.113 24.7324c60.8779 8.30176 132.07 15.0947 213.58 20.377c63.0742 4.08789 133.165 6.59473 210.272 7.51953c-0.261719 -38.2324 -2.09473 -73.1826 -5.49902 -104.85
c-46.6777 0.294922 -88.4727 2.92676 -125.387 7.89648c-39.2451 5.28223 -73.584 12.0752 -103.019 20.377c-29.4336 8.30176 -54.3301 16.793 -74.6885 25.4717c2.64453 -17.293 4.10156 -35.0439 4.36914 -53.251zM615.546 365.772
c19.8447 8.28418 43.7852 16.3984 71.8213 24.3398c29.3115 8.30176 63.5889 15.0947 102.834 20.377c29.8691 4.02051 63.0059 6.51172 99.4102 7.47266c-7.16113 -24.1104 -14.46 -44.8887 -21.8975 -62.335c17.0303 2.60449 34.5029 4.05664 52.4189 4.35645
c-1.16699 -16.6807 -3.08887 -32.2852 -5.76465 -46.8135c-46.0391 0.344727 -87.3047 2.97266 -123.799 7.88574c-39.2451 5.28223 -73.584 12.0752 -103.019 20.377c-28.1533 7.94043 -52.1553 16.0547 -72.0049 24.3398z" />
</svg>
