<?xml version="1.0" standalone="no"?>
<!DOCTYPE svg PUBLIC "-//W3C//DTD SVG 1.1//EN" "http://www.w3.org/Graphics/SVG/1.1/DTD/svg11.dtd" >
<svg xmlns="http://www.w3.org/2000/svg" xmlns:xlink="http://www.w3.org/1999/xlink" version="1.1" viewBox="0 0 924 910">
   <path fill="currentColor"
d="M777.476 835.5c-60 -64.3994 -109.201 -118.399 -147.602 -162c-38.3984 -43.6006 -70.7988 -77.4004 -97.1992 -101.4c24.4004 -24.3994 48.7998 -49.7988 73.1992 -76.1992c24.4014 -26.4004 50.501 -55.001 78.3008 -85.8008
c22.6836 -25.1318 47.5645 -52.2598 74.6426 -81.3867c-0.979492 -6.0127 -1.97363 -11.9541 -2.98242 -17.8242c-10.2451 10.2461 -10.9209 10.9219 -25.1729 25.1738c-15.6807 -13.127 -31.0801 -25.4561 -46.1992 -36.9873
c-52.4756 -40.0244 -100.951 -72.4883 -145.423 -97.3936c-44.4727 -24.9043 -83.8193 -44.2383 -118.04 -58.0029c26.1494 -19.2129 51.2314 -40.8252 75.2461 -64.8398s46.9629 -50.4326 68.8428 -79.25c13.7656 34.2207 33.0273 73.4951 57.7861 117.824
c24.7607 44.3271 57.1523 92.7295 97.1768 145.206c10.9434 14.3467 22.6152 28.957 35.0156 43.832c-0.995117 -5.71582 -2.00391 -11.3633 -3.02637 -16.9414c-13.8369 -75.4717 -27.9883 -139.309 -42.4531 -191.51c32.0762 7.54688 65.0947 11.3213 99.0566 11.3213
s68.8682 -3.77441 104.717 -11.3213c-14.4639 52.2012 -28.6152 115.88 -42.4531 191.038c-13.8359 75.1572 -25.1572 163.05 -33.9619 263.679c-8.80371 100.629 -13.208 215.724 -13.208 345.283h-24.5273c0 -128.932 -4.40332 -243.71 -13.208 -344.34
c-6.17578 -70.5811 -13.5889 -134.974 -22.2402 -193.179c-21.7764 36.0781 -41.1055 69.917 -57.9883 101.519c-23.4004 43.8008 -42.7002 80.5 -57.9004 110.1c12.8008 25.2012 31.2012 60.1006 55.2012 104.701c24 44.5986 52.999 94.5 87 149.699zM637.476 835.5
c-60 -64.3994 -109.201 -118.399 -147.602 -162c-38.3984 -43.6006 -70.7988 -77.4004 -97.1992 -101.4c24.4004 -24.3994 48.7998 -49.7988 73.1992 -76.1992c24.4014 -26.4004 50.501 -55.001 78.3008 -85.8008s58.9004 -64.5996 93.3008 -101.4l12.5996 9
c-32.8008 52.4004 -60.9004 100.5 -84.3008 144.301s-42.7002 80.5 -57.9004 110.1c12.8008 25.2012 31.2012 60.1006 55.2012 104.701c24 44.5986 52.999 94.5 87 149.699zM497.476 835.5c-60 -64.3994 -109.201 -118.399 -147.602 -162
c-27.9072 -31.6885 -52.6465 -58.1992 -74.2168 -79.5342c-2.24023 43.8604 -3.52051 90.3242 -3.83984 139.394c20.4111 32.4619 44.4883 66.8818 72.2344 103.26c11.6377 15.2568 24.0996 30.8125 37.3857 46.667c-11.8145 11.8154 -11.8145 11.8154 -26.7754 26.7764
c-15.6807 -13.127 -31.0801 -25.4561 -46.1992 -36.9873c-52.4756 -40.0244 -100.951 -72.4883 -145.423 -97.3936c-44.4727 -24.9043 -83.8193 -44.2383 -118.04 -58.0029c26.1494 -19.2129 51.2314 -40.8252 75.2461 -64.8398s46.9629 -50.4326 68.8428 -79.25
c13.7139 34.0928 32.8838 73.2021 57.5098 117.329c-1.48828 -79.5215 -5.68652 -151.854 -12.5957 -216.998c-8.80469 -83.0195 -20.126 -155.66 -33.9619 -217.925c-13.8369 -62.2637 -27.9883 -114.929 -42.4531 -157.995
c32.0762 6.22656 65.0947 9.33984 99.0566 9.33984s68.8682 -3.11328 104.717 -9.33984c-14.4639 43.0664 -28.6152 95.6006 -42.4531 157.606c-13.8359 62.0049 -25.1572 134.516 -33.9619 217.535c-2.46973 23.2881 -4.59277 47.5156 -6.37012 72.6816
c15.7666 -16.2236 31.5322 -32.8643 47.2979 -49.9229c24.4014 -26.4004 50.501 -55.001 78.3008 -85.8008s58.9004 -64.5996 93.3008 -101.4l12.5996 9c-32.8008 52.4004 -60.9004 100.5 -84.3008 144.301s-42.7002 80.5 -57.9004 110.1
c12.8008 25.2012 31.2012 60.1006 55.2012 104.701c24 44.5986 52.999 94.5 87 149.699z" />
</svg>
