<?xml version="1.0" standalone="no"?>
<!DOCTYPE svg PUBLIC "-//W3C//DTD SVG 1.1//EN" "http://www.w3.org/Graphics/SVG/1.1/DTD/svg11.dtd" >
<svg xmlns="http://www.w3.org/2000/svg" xmlns:xlink="http://www.w3.org/1999/xlink" version="1.1" viewBox="0 0 2395 2339">
   <path fill="currentColor"
d="M817.198 753.517c128.932 0 243.71 -4.40332 344.34 -13.208c91.2725 -7.98633 172.196 -18.042 242.771 -30.168c-10.2461 -10.2451 -10.9219 -10.9209 -25.1738 -25.1729c13.127 -15.6807 25.4561 -31.0801 36.9873 -46.1992
c40.0244 -52.4756 72.4883 -100.951 97.3936 -145.423c24.9043 -44.4727 44.2383 -83.8193 58.0029 -118.04c19.2129 26.1494 40.8252 51.2314 64.8398 75.2461s50.4326 46.9629 79.25 68.8428c-34.2207 13.7656 -73.4951 33.0273 -117.824 57.7861
c-44.3271 24.7607 -92.7295 57.1523 -145.206 97.1768c-14.3467 10.9434 -28.957 22.6152 -43.832 35.0156c5.71582 -0.995117 11.3633 -2.00391 16.9414 -3.02637c75.4717 -13.8369 139.309 -27.9883 191.51 -42.4531c-7.54688 32.0762 -11.3213 65.0947 -11.3213 99.0566
c0 2.8457 0.0263672 5.69727 0.0791016 8.55566h24.0928c0 128.932 4.40332 243.71 13.208 344.34c7.98633 91.2725 18.042 172.196 30.168 242.771c10.2451 -10.2461 10.9209 -10.9219 25.1729 -25.1738c15.6807 13.127 31.0801 25.4561 46.1992 36.9873
c52.4756 40.0244 100.951 72.4883 145.423 97.3936c44.4727 24.9043 83.8193 44.2383 118.04 58.0029c-26.1494 19.2129 -51.2314 40.8252 -75.2461 64.8398s-46.9629 50.4326 -68.8428 79.25c-13.7656 -34.2207 -33.0273 -73.4951 -57.7861 -117.824
c-24.7607 -44.3271 -57.1523 -92.7295 -97.1768 -145.206c-10.9434 -14.3467 -22.6152 -28.957 -35.0156 -43.832c0.995117 5.71582 2.00391 11.3633 3.02637 16.9414c13.8369 75.4717 27.9883 139.309 42.4531 191.51
c-32.0762 -7.54688 -65.0947 -11.3213 -99.0566 -11.3213c-2.84668 0 -5.7002 0.0263672 -8.56055 0.0791016v24.0879c-128.932 0 -243.71 4.40332 -344.34 13.208c-91.2725 7.98633 -172.196 18.042 -242.771 30.168c10.2461 10.2451 10.9219 10.9209 25.1738 25.1729
c-13.127 15.6807 -25.4561 31.0801 -36.9873 46.1992c-40.0244 52.4756 -72.4883 100.951 -97.3936 145.423c-24.9043 44.4727 -44.2383 83.8193 -58.0029 118.04c-19.2129 -26.1494 -40.8252 -51.2314 -64.8398 -75.2461s-50.4326 -46.9629 -79.25 -68.8428
c34.2207 -13.7656 73.4951 -33.0273 117.824 -57.7861c44.3271 -24.7607 92.7295 -57.1523 145.206 -97.1768c14.3467 -10.9434 28.957 -22.6152 43.832 -35.0156c-5.71582 0.995117 -11.3633 2.00391 -16.9414 3.02637c-75.4717 13.8369 -139.309 27.9883 -191.51 42.4531
c7.54688 -32.0762 11.3213 -65.0947 11.3213 -99.0566c0 -2.96582 -0.0283203 -5.93848 -0.0859375 -8.91797h-24.0791c0 -128.932 -4.40332 -243.71 -13.208 -344.34c-7.98633 -91.2725 -18.042 -172.196 -30.168 -242.771
c-10.2451 10.2461 -10.9209 10.9219 -25.1729 25.1738c-15.6807 -13.127 -31.0801 -25.4561 -46.1992 -36.9873c-52.4756 -40.0244 -100.951 -72.4883 -145.423 -97.3936c-44.4727 -24.9043 -83.8193 -44.2383 -118.04 -58.0029
c26.1494 -19.2129 51.2314 -40.8252 75.2461 -64.8398s46.9629 -50.4326 68.8428 -79.25c13.7656 34.2207 33.0273 73.4951 57.7861 117.824c24.7607 44.3271 57.1523 92.7295 97.1768 145.206c10.9434 14.3467 22.6152 28.957 35.0156 43.832
c-0.995117 -5.71582 -2.00391 -11.3633 -3.02637 -16.9414c-13.8369 -75.4717 -27.9883 -139.309 -42.4531 -191.51c32.0762 7.54688 65.0947 11.3213 99.0566 11.3213c2.84473 0 5.69629 -0.0263672 8.55371 -0.0791016v-23.7256zM805.136 308.968
c13.127 -15.6807 25.4561 -31.0801 36.9873 -46.1992c40.0244 -52.4756 72.4883 -100.951 97.3936 -145.423c24.9043 -44.4727 44.2383 -83.8193 58.0029 -118.04c19.2129 26.1494 40.8252 51.2314 64.8398 75.2461s50.4326 46.9629 79.25 68.8428
c-34.0928 13.7139 -73.2021 32.8838 -117.329 57.5098c79.5215 -1.48828 151.854 -5.68652 216.998 -12.5957c83.0195 -8.80469 155.66 -20.126 217.925 -33.9619c62.2637 -13.8369 114.929 -27.9883 157.995 -42.4531c-6.22656 32.0762 -9.33984 65.0947 -9.33984 99.0566
s3.11328 68.8682 9.33984 104.717c-43.0664 -14.4639 -95.6006 -28.6152 -157.606 -42.4531c-62.0049 -13.8359 -134.516 -25.1572 -217.535 -33.9619c-76.583 -8.12109 -163.323 -12.499 -260.218 -13.1289c-32.4619 20.4111 -66.8818 44.4883 -103.26 72.2344
c-15.2568 11.6377 -30.8125 24.0996 -46.667 37.3857c-11.8154 -11.8145 -11.8154 -11.8145 -26.7764 -26.7754zM2074.6 759.443c15.6807 13.127 31.0801 25.4561 46.1992 36.9873c52.4756 40.0244 100.951 72.4883 145.423 97.3936
c44.4727 24.9043 83.8193 44.2383 118.04 58.0029c-26.1494 19.2129 -51.2314 40.8252 -75.2461 64.8398s-46.9629 50.4326 -68.8428 79.25c-13.7139 -34.0928 -32.8838 -73.2021 -57.5098 -117.329c1.48828 79.5215 5.68652 151.854 12.5957 216.998
c8.80469 83.0195 20.126 155.66 33.9619 217.925c13.8369 62.2637 27.9883 114.929 42.4531 157.995c-32.0762 -6.22656 -65.0947 -9.33984 -99.0566 -9.33984s-68.8682 3.11328 -104.717 9.33984c14.4639 -43.0664 28.6152 -95.6006 42.4531 -157.606
c13.8359 -62.0049 25.1572 -134.516 33.9619 -217.535c8.12109 -76.583 12.499 -163.323 13.1289 -260.218c-20.4111 -32.4619 -44.4883 -66.8818 -72.2344 -103.26c-11.6377 -15.2568 -24.0996 -30.8125 -37.3857 -46.667
c11.8145 -11.8154 11.8145 -11.8154 26.7754 -26.7764zM1624.12 2028.9c-13.127 15.6807 -25.4561 31.0801 -36.9873 46.1992c-40.0244 52.4756 -72.4883 100.951 -97.3936 145.423c-24.9043 44.4727 -44.2383 83.8193 -58.0029 118.04
c-19.2129 -26.1494 -40.8252 -51.2314 -64.8398 -75.2461s-50.4326 -46.9629 -79.25 -68.8428c34.0928 -13.7139 73.2021 -32.8838 117.329 -57.5098c-79.5215 1.48828 -151.854 5.68652 -216.998 12.5957c-83.0195 8.80469 -155.66 20.126 -217.925 33.9619
c-62.2637 13.8369 -114.929 27.9883 -157.995 42.4531c6.22656 -32.0762 9.33984 -65.0947 9.33984 -99.0566s-3.11328 -68.8682 -9.33984 -104.717c43.0664 14.4639 95.6006 28.6152 157.606 42.4531c62.0049 13.8359 134.516 25.1572 217.535 33.9619
c76.583 8.12109 163.323 12.499 260.218 13.1289c32.4619 -20.4111 66.8818 -44.4883 103.26 -72.2344c15.2568 -11.6377 30.8125 -24.0996 46.667 -37.3857c11.8154 11.8145 11.8154 11.8145 26.7764 26.7754zM354.662 1578.06
c-15.6807 -13.127 -31.0801 -25.4561 -46.1992 -36.9873c-52.4756 -40.0244 -100.951 -72.4883 -145.423 -97.3936c-44.4727 -24.9043 -83.8193 -44.2383 -118.04 -58.0029c26.1494 -19.2129 51.2314 -40.8252 75.2461 -64.8398s46.9629 -50.4326 68.8428 -79.25
c13.7139 34.0928 32.8838 73.2021 57.5098 117.329c-1.48828 -79.5215 -5.68652 -151.854 -12.5957 -216.998c-8.80469 -83.0195 -20.126 -155.66 -33.9619 -217.925c-13.8369 -62.2637 -27.9883 -114.929 -42.4531 -157.995
c32.0762 6.22656 65.0947 9.33984 99.0566 9.33984s68.8682 -3.11328 104.717 -9.33984c-14.4639 43.0664 -28.6152 95.6006 -42.4531 157.606c-13.8359 62.0049 -25.1572 134.516 -33.9619 217.535c-8.12109 76.583 -12.499 163.323 -13.1289 260.218
c20.4111 32.4619 44.4883 66.8818 72.2344 103.26c11.6377 15.2568 24.0996 30.8125 37.3857 46.667c-11.8145 11.8154 -11.8145 11.8154 -26.7754 26.7764zM1604.73 864.275c-49.7705 -13.2861 -109.292 -26.3066 -178.565 -39.0615
c-75.1572 -13.8359 -163.05 -25.1572 -263.679 -33.9619c-75.9609 -6.64551 -160.164 -10.7842 -252.609 -12.4141c-13.252 49.6963 -26.2402 109.096 -38.9639 178.2c-13.8359 75.1572 -25.1572 163.05 -33.9619 263.679
c-6.65234 76.0332 -10.792 160.326 -12.4189 252.876c49.7705 13.2861 109.292 26.3066 178.565 39.0615c75.1572 13.8359 163.05 25.1572 263.679 33.9619c75.9355 6.64355 160.109 10.7812 252.52 12.4121c13.2861 -49.7695 26.3066 -109.289 39.0605 -178.561
c13.8359 -75.1572 25.1572 -163.05 33.9619 -263.679c6.64355 -75.9346 10.7812 -160.105 12.4121 -252.514z" />
</svg>
