<?xml version="1.0" standalone="no"?>
<!DOCTYPE svg PUBLIC "-//W3C//DTD SVG 1.1//EN" "http://www.w3.org/Graphics/SVG/1.1/DTD/svg11.dtd" >
<svg xmlns="http://www.w3.org/2000/svg" xmlns:xlink="http://www.w3.org/1999/xlink" version="1.1" viewBox="0 0 2395 2339">
   <path fill="currentColor"
d="M817.198 753.517c128.932 0 243.71 -4.40332 344.34 -13.208c100.629 -8.80469 188.679 -20.126 264.15 -33.9619c75.4717 -13.8369 139.309 -27.9883 191.51 -42.4531c-7.54688 32.0762 -11.3213 65.0947 -11.3213 99.0566
c0 2.8457 0.0263672 5.69727 0.0791016 8.55566h24.0928c0 128.932 4.40332 243.71 13.208 344.34c8.80469 100.629 20.126 188.679 33.9619 264.15c13.8369 75.4717 27.9883 139.309 42.4531 191.51c-32.0762 -7.54688 -65.0947 -11.3213 -99.0566 -11.3213
c-2.84668 0 -5.7002 0.0263672 -8.56055 0.0791016v24.0879c-128.932 0 -243.71 4.40332 -344.34 13.208c-100.629 8.80469 -188.679 20.126 -264.15 33.9619c-75.4717 13.8369 -139.309 27.9883 -191.51 42.4531c7.54688 -32.0762 11.3213 -65.0947 11.3213 -99.0566
c0 -2.96582 -0.0283203 -5.93848 -0.0859375 -8.91797h-24.0791c0 -128.932 -4.40332 -243.71 -13.208 -344.34c-8.80469 -100.629 -20.126 -188.679 -33.9619 -264.15c-13.8369 -75.4717 -27.9883 -139.309 -42.4531 -191.51
c32.0762 7.54688 65.0947 11.3213 99.0566 11.3213c2.84473 0 5.69629 -0.0263672 8.55371 -0.0791016v-23.7256zM1383.87 689.701c40.457 -40.4561 73.3574 -79.585 98.707 -117.386s44.9727 -73.4346 58.8701 -106.899
c13.8975 -33.4658 23.9219 -63.5029 30.0732 -90.1104c20.3135 25.0488 42.4766 49.5811 66.4912 73.5957s49.8818 47.5127 77.5986 70.4932c-26.6074 6.15234 -56.5957 16.127 -89.9629 29.9258c-33.3662 13.7988 -68.9512 33.3721 -106.751 58.7217
c-37.8008 25.3496 -77.0293 58.3496 -117.683 99.0029zM809.869 313.701c40.457 -40.4561 73.3574 -79.585 98.707 -117.386s44.9727 -73.4346 58.8701 -106.899c13.8975 -33.4658 23.9219 -63.5029 30.0732 -90.1104c20.3135 25.0488 42.4766 49.5811 66.4912 73.5957
s49.8818 47.5127 77.5986 70.4932c-26.6074 6.15234 -56.5957 16.127 -89.9629 29.9258c-18.3525 7.58984 -37.376 16.9268 -57.0703 28.0098c91.3018 -0.920898 173.535 -5.26172 246.702 -13.0215c83.0195 -8.80469 155.66 -20.126 217.925 -33.9619
c62.2637 -13.8369 114.929 -27.9883 157.995 -42.4531c-6.22656 32.0762 -9.33984 65.0947 -9.33984 99.0566s3.11328 68.8682 9.33984 104.717c-43.0664 -14.4639 -95.6006 -28.6152 -157.606 -42.4531c-62.0049 -13.8359 -134.516 -25.1572 -217.535 -33.9619
c-83.0186 -8.80371 -177.972 -13.208 -284.858 -13.208v-2.09863c-4.07422 2.62988 -8.17578 5.3291 -12.3027 8.09668c-37.8008 25.3496 -77.0293 58.3496 -117.683 99.0029zM1693.86 1338.18c40.4561 40.457 79.585 73.3574 117.386 98.707
s73.4346 44.9727 106.899 58.8701c33.4658 13.8975 63.5029 23.9219 90.1104 30.0732c-25.0488 20.3135 -49.5811 42.4766 -73.5957 66.4912s-47.5127 49.8818 -70.4932 77.5986c-6.15234 -26.6074 -16.127 -56.5957 -29.9258 -89.9629
c-13.7988 -33.3662 -33.3721 -68.9512 -58.7217 -106.751c-25.3496 -37.8008 -58.3496 -77.0293 -99.0029 -117.683zM2069.86 764.177c40.4561 40.457 79.585 73.3574 117.386 98.707s73.4346 44.9727 106.899 58.8701c33.4658 13.8975 63.5029 23.9219 90.1104 30.0732
c-25.0488 20.3135 -49.5811 42.4766 -73.5957 66.4912s-47.5127 49.8818 -70.4932 77.5986c-6.15234 -26.6074 -16.127 -56.5957 -29.9258 -89.9629c-7.58984 -18.3525 -16.9268 -37.376 -28.0098 -57.0703c0.920898 91.3018 5.26172 173.535 13.0215 246.702
c8.80469 83.0195 20.126 155.66 33.9619 217.925c13.8369 62.2637 27.9883 114.929 42.4531 157.995c-32.0762 -6.22656 -65.0947 -9.33984 -99.0566 -9.33984s-68.8682 3.11328 -104.717 9.33984c14.4639 -43.0664 28.6152 -95.6006 42.4531 -157.606
c13.8359 -62.0049 25.1572 -134.516 33.9619 -217.535c8.80371 -83.0186 13.208 -177.972 13.208 -284.858h2.09863c-2.62988 -4.07422 -5.3291 -8.17578 -8.09668 -12.3027c-25.3496 -37.8008 -58.3496 -77.0293 -99.0029 -117.683zM1045.38 1648.17
c-40.457 40.4561 -73.3574 79.585 -98.707 117.386s-44.9727 73.4346 -58.8701 106.899c-13.8975 33.4658 -23.9219 63.5029 -30.0732 90.1104c-20.3135 -25.0488 -42.4766 -49.5811 -66.4912 -73.5957s-49.8818 -47.5127 -77.5986 -70.4932
c26.6074 -6.15234 56.5957 -16.127 89.9629 -29.9258c33.3662 -13.7988 68.9512 -33.3721 106.751 -58.7217c37.8008 -25.3496 77.0293 -58.3496 117.683 -99.0029zM1619.38 2024.17c-40.457 40.4561 -73.3574 79.585 -98.707 117.386s-44.9727 73.4346 -58.8701 106.899
c-13.8975 33.4658 -23.9219 63.5029 -30.0732 90.1104c-20.3135 -25.0488 -42.4766 -49.5811 -66.4912 -73.5957s-49.8818 -47.5127 -77.5986 -70.4932c26.6074 -6.15234 56.5957 -16.127 89.9629 -29.9258c18.3525 -7.58984 37.376 -16.9268 57.0703 -28.0098
c-91.3018 0.920898 -173.535 5.26172 -246.702 13.0215c-83.0195 8.80469 -155.66 20.126 -217.925 33.9619c-62.2637 13.8369 -114.929 27.9883 -157.995 42.4531c6.22656 -32.0762 9.33984 -65.0947 9.33984 -99.0566s-3.11328 -68.8682 -9.33984 -104.717
c43.0664 14.4639 95.6006 28.6152 157.606 42.4531c62.0049 13.8359 134.516 25.1572 217.535 33.9619c83.0186 8.80371 177.972 13.208 284.858 13.208v2.09863c4.07422 -2.62988 8.17578 -5.3291 12.3027 -8.09668c37.8008 -25.3496 77.0293 -58.3496 117.683 -99.0029z
M735.396 999.329c-40.4561 -40.457 -79.585 -73.3574 -117.386 -98.707s-73.4346 -44.9727 -106.899 -58.8701c-33.4658 -13.8975 -63.5029 -23.9219 -90.1104 -30.0732c25.0488 -20.3135 49.5811 -42.4766 73.5957 -66.4912s47.5127 -49.8818 70.4932 -77.5986
c6.15234 26.6074 16.127 56.5957 29.9258 89.9629c13.7988 33.3662 33.3721 68.9512 58.7217 106.751c25.3496 37.8008 58.3496 77.0293 99.0029 117.683zM359.396 1573.33c-40.4561 -40.457 -79.585 -73.3574 -117.386 -98.707s-73.4346 -44.9727 -106.899 -58.8701
c-33.4658 -13.8975 -63.5029 -23.9219 -90.1104 -30.0732c25.0488 -20.3135 49.5811 -42.4766 73.5957 -66.4912s47.5127 -49.8818 70.4932 -77.5986c6.15234 26.6074 16.127 56.5957 29.9258 89.9629c7.58984 18.3525 16.9268 37.376 28.0098 57.0703
c-0.920898 -91.3018 -5.26172 -173.535 -13.0215 -246.702c-8.80469 -83.0195 -20.126 -155.66 -33.9619 -217.925c-13.8369 -62.2637 -27.9883 -114.929 -42.4531 -157.995c32.0762 6.22656 65.0947 9.33984 99.0566 9.33984s68.8682 -3.11328 104.717 -9.33984
c-14.4639 43.0664 -28.6152 95.6006 -42.4531 157.606c-13.8359 62.0049 -25.1572 134.516 -33.9619 217.535c-8.80371 83.0186 -13.208 177.972 -13.208 284.858h-2.09863c2.62988 4.07422 5.3291 8.17578 8.09668 12.3027
c25.3496 37.8008 58.3496 77.0293 99.0029 117.683zM1604.73 864.275c-49.7705 -13.2861 -109.292 -26.3066 -178.565 -39.0615c-75.1572 -13.8359 -163.05 -25.1572 -263.679 -33.9619c-75.9609 -6.64551 -160.164 -10.7842 -252.609 -12.4141
c-13.252 49.6963 -26.2402 109.096 -38.9639 178.2c-13.8359 75.1572 -25.1572 163.05 -33.9619 263.679c-6.65234 76.0332 -10.792 160.326 -12.4189 252.876c49.7705 13.2861 109.292 26.3066 178.565 39.0615c75.1572 13.8359 163.05 25.1572 263.679 33.9619
c75.9355 6.64355 160.109 10.7812 252.52 12.4121c13.2861 -49.7695 26.3066 -109.289 39.0605 -178.561c13.8359 -75.1572 25.1572 -163.05 33.9619 -263.679c6.64355 -75.9346 10.7812 -160.105 12.4121 -252.514z" />
</svg>
