<?xml version="1.0" standalone="no"?>
<!DOCTYPE svg PUBLIC "-//W3C//DTD SVG 1.1//EN" "http://www.w3.org/Graphics/SVG/1.1/DTD/svg11.dtd" >
<svg xmlns="http://www.w3.org/2000/svg" xmlns:xlink="http://www.w3.org/1999/xlink" version="1.1" viewBox="0 0 1159 811">
   <path fill="currentColor"
d="M394.536 800c0 -83.8057 -4.40332 -158.411 -13.208 -223.821c-8.80469 -65.4082 -20.126 -122.641 -33.9619 -171.697c-13.8369 -49.0566 -27.9883 -90.5508 -42.4531 -124.481c32.0762 4.90527 65.0947 7.3584 99.0566 7.3584s68.8682 -2.45312 104.717 -7.3584
c-14.4639 33.9307 -28.6152 75.3223 -42.4531 124.175c-13.8359 48.8525 -25.1572 105.982 -33.9619 171.391c-8.80371 65.4092 -13.208 140.221 -13.208 224.435h-24.5273zM313.801 541.5c-60 -64.3994 -109.201 -118.399 -147.602 -162
c-38.3984 -43.6006 -70.7988 -77.4004 -97.1992 -101.4c24.4004 -24.3994 48.7998 -49.7988 73.1992 -76.1992c24.4014 -26.4004 50.501 -55.001 78.3008 -85.8008s58.9004 -64.5996 93.3008 -101.4l12.5996 9c-2.94629 4.70703 -5.85547 9.37988 -8.72559 14.0176
c51.7275 14.2227 114.567 28.1426 188.523 41.7588c75.1572 13.8359 163.05 25.1572 263.679 33.9619c62.6162 5.47852 130.833 9.25293 204.65 11.3232c-9.7207 -47.3398 -19.5918 -89.0928 -29.6143 -125.261c32.0762 7.54688 65.0947 11.3213 99.0566 11.3213
s68.8682 -3.77441 104.717 -11.3213c-11.3691 41.0303 -22.5439 89.1514 -33.5264 144.365v7.30762h-1.44434c-2.50391 12.752 -4.99805 25.874 -7.48242 39.3652c-13.8359 75.1572 -25.1572 163.05 -33.9619 263.679c-8.80371 100.629 -13.208 215.724 -13.208 345.283
h-24.5273c0 -26.6836 -0.188477 -52.7607 -0.56543 -78.2324c-75.2656 0.68457 -142.826 5.05566 -202.686 13.1133c-65.4082 8.80469 -122.641 20.126 -171.697 33.9619c-49.0566 13.8369 -90.5508 27.9883 -124.481 42.4531
c4.90527 -32.0762 7.3584 -65.0947 7.3584 -99.0566c0 -32.834 -2.29297 -66.5508 -6.87793 -101.148l-0.480469 0.205078c0.0908203 -0.59375 0.180664 -1.18848 0.269531 -1.7832c-0.0888672 -0.663086 -0.178711 -1.32617 -0.269531 -1.99023
c0.176758 0.0751953 0.354492 0.151367 0.532227 0.226562c4.55078 -30.9619 6.82617 -62.7988 6.82617 -95.5098c0 -32.834 -2.29297 -66.5508 -6.87793 -101.148l-0.480469 0.205078c0.0908203 -0.59375 0.180664 -1.18848 0.269531 -1.7832
c-0.0888672 -0.663086 -0.178711 -1.32617 -0.269531 -1.99023c0.176758 0.0751953 0.354492 0.151367 0.532227 0.226562c4.55078 -30.9619 6.82617 -62.7988 6.82617 -95.5098c0 -33.9619 -2.45312 -68.8682 -7.3584 -104.717
c33.9307 14.4639 75.3223 28.6152 124.175 42.4531c48.8525 13.8359 105.982 25.1572 171.391 33.9619c51.8428 6.97754 109.591 11.1914 173.246 12.6396c-5.0459 -37.3789 -10.5635 -72.4014 -16.5518 -105.067c-2.3916 -13.0449 -4.79297 -25.7422 -7.20312 -38.0918
c-75.5137 2.03809 -145.294 5.8584 -209.343 11.4629c-100.629 8.80469 -188.679 20.126 -264.15 33.9619c-75.4717 13.8369 -139.309 27.9883 -191.51 42.4531c7.54688 -32.0762 11.3213 -65.0947 11.3213 -99.0566c0 -32.835 -3.52832 -66.5527 -10.582 -101.15
c-28.3369 45.8887 -52.9365 88.3584 -73.7998 127.411c-23.4004 43.8008 -42.7002 80.5 -57.9004 110.1c12.8008 25.2012 31.2012 60.1006 55.2012 104.701c24 44.5986 52.999 94.5 87 149.699zM1033.54 696.547c-1.23828 -62.1182 -3.63477 -120.517 -7.18848 -175.196
c-72.2129 0.901367 -137.234 5.24512 -195.067 13.0303c-65.4082 8.80469 -122.641 20.126 -171.697 33.9619c-46.9219 13.2344 -86.9248 26.7568 -120.009 40.5664c33.0752 13.8086 72.9756 27.3311 119.702 40.5664c48.8525 13.8359 105.982 25.1572 171.391 33.9619
c59.7715 8.04492 127.395 12.416 202.869 13.1094zM1024.64 496.448c-1.02344 -14.0176 -2.12598 -27.7803 -3.30762 -41.2881c-4.13574 -47.2715 -8.82715 -91.7676 -14.0742 -133.487c-64.624 1.37891 -123.28 5.61523 -175.969 12.708
c-65.4082 8.80469 -122.641 20.126 -171.697 33.9619c-46.9219 13.2344 -86.9248 26.7568 -120.009 40.5664c33.0752 13.8086 72.9756 27.3311 119.702 40.5664c48.8525 13.8359 105.982 25.1572 171.391 33.9619c57.4111 7.72754 122.065 12.0654 193.964 13.0107z" />
</svg>
