<?xml version="1.0" standalone="no"?>
<!DOCTYPE svg PUBLIC "-//W3C//DTD SVG 1.1//EN" "http://www.w3.org/Graphics/SVG/1.1/DTD/svg11.dtd" >
<svg xmlns="http://www.w3.org/2000/svg" xmlns:xlink="http://www.w3.org/1999/xlink" version="1.1" viewBox="0 0 1818 810">
   <path fill="currentColor"
d="M422.842 801c-1.80566 -20.3701 -3.97754 -39.9775 -6.51367 -58.8213c-8.80469 -65.4082 -20.126 -122.641 -33.9619 -171.697c-13.8369 -49.0566 -27.9883 -90.5508 -42.4531 -124.481c24.499 3.74707 49.5488 6.0625 75.1484 6.94824
c-8.61523 -61.5762 -19.5137 -115.731 -32.6953 -162.467c-6.28223 -22.2744 -12.6299 -42.9893 -19.042 -62.1455c-17.0264 4.12695 -33.0811 8.28027 -48.1641 12.46c7.54688 -32.0762 11.3213 -65.0947 11.3213 -99.0566c0 -32.835 -3.52832 -66.5527 -10.582 -101.15
c-28.3369 45.8887 -52.9365 88.3584 -73.7998 127.411c-23.4004 43.8008 -42.7002 80.5 -57.9004 110.1c11.0947 21.8428 26.3965 50.9707 45.9043 87.3857c25.3057 -27.9043 53.2051 -58.166 83.6973 -90.7861l12.5996 9c-27.8301 44.459 -52.2754 85.8223 -73.3379 124.09
c21.1064 38.0303 45.5518 79.6016 73.3379 124.711l-12.5996 9c-30.7627 -33.0186 -58.6865 -63.3027 -83.7715 -90.8535c-18.0508 33.9551 -33.3271 63.1064 -45.8301 87.4531c12.8008 25.2012 31.2012 60.1006 55.2012 104.701c24 44.5986 52.999 94.5 87 149.699
l-12.5996 9c-60 -64.3994 -109.201 -118.399 -147.602 -162c-38.3984 -43.6006 -70.7988 -77.4004 -97.1992 -101.4c24.4004 -24.3994 48.7998 -49.7988 73.1992 -76.1992c15.7451 -17.0352 32.1973 -34.9854 49.3564 -53.8525
c-8.91895 -9.96484 -17.3711 -19.4814 -25.3564 -28.5479c-38.3984 -43.6006 -70.7988 -77.4004 -97.1992 -101.4c24.4004 -24.3994 48.7998 -49.7988 73.1992 -76.1992c24.4014 -26.4004 50.501 -55.001 78.3008 -85.8008s58.9004 -64.5996 93.3008 -101.4l12.5996 9
c-2.94629 4.70703 -5.85547 9.37988 -8.72559 14.0176c51.7275 14.2227 114.567 28.1426 188.523 41.7588c75.1572 13.8359 163.05 25.1572 263.679 33.9619c66.2793 5.79883 138.835 9.68848 217.665 11.6689c-0.0585938 -0.208984 -0.117188 -0.416992 -0.175781 -0.625
c-13.8369 -49.0566 -27.9883 -90.5508 -42.4531 -124.481c32.0762 4.90527 65.0947 7.3584 99.0566 7.3584s68.8682 -2.45312 104.717 -7.3584c-14.4639 33.9307 -28.6152 75.3223 -42.4531 124.175c-0.231445 0.818359 -0.462891 1.63965 -0.693359 2.46289
c3.19824 0.00488281 6.4043 0.0078125 9.62012 0.0078125v24.5273c-5.39551 0 -10.7666 0.0078125 -16.1133 0.0234375c-10.0361 40.2012 -18.5586 85.3867 -25.5664 135.555c24.5898 -1.00488 49.6582 -3.25488 75.2061 -6.75098
c-14.4639 33.9307 -28.6152 75.3223 -42.4531 124.175c-13.8359 48.8525 -25.1572 105.982 -33.9619 171.391c-5.02051 37.2979 -8.60938 77.6523 -10.7676 121.064c2.85645 0.0107422 5.72363 0.015625 8.60254 0.015625v24.5273
c-3.2334 0 -6.45312 0.00683594 -9.65918 0.0195312c-0.922852 25.2842 -1.38379 51.5537 -1.38379 78.8076h-24.5273c0 -27.1426 -0.461914 -53.3193 -1.38574 -78.5322c-68.9424 1.11914 -131.23 5.42383 -186.865 12.9131
c-65.4082 8.80469 -122.641 20.126 -171.697 33.9619c-49.0566 13.8369 -90.5508 27.9883 -124.481 42.4531c4.90527 -32.0762 7.3584 -65.0947 7.3584 -99.0566c0 -17.4893 -0.650391 -35.2295 -1.95117 -53.2188c-1.82324 0.757812 -3.62598 1.51562 -5.40723 2.27539
c1.29492 -8.46484 2.41797 -16.9941 3.37109 -25.5908c-0.953125 -9.32812 -2.07617 -18.7227 -3.37109 -28.1826c1.87793 0.800781 3.7793 1.60059 5.70312 2.39941c1.10352 -15.6826 1.65527 -31.5762 1.65527 -47.6826c0 -17.4893 -0.650391 -35.2295 -1.95117 -53.2188
c-1.82324 0.757812 -3.62598 1.51562 -5.40723 2.27539c1.29492 -8.46484 2.41797 -16.9941 3.37109 -25.5908c-0.953125 -9.32812 -2.07617 -18.7227 -3.37109 -28.1826c1.87793 0.800781 3.7793 1.60059 5.70312 2.39941
c1.10352 -15.6826 1.65527 -31.5762 1.65527 -47.6826c0 -17.4893 -0.650391 -35.2295 -1.95117 -53.2188c-1.82324 0.757812 -3.62598 1.51562 -5.40723 2.27539c1.29492 -8.46484 2.41797 -16.9941 3.37109 -25.5908
c-0.953125 -9.32812 -2.07617 -18.7227 -3.37109 -28.1826c1.87793 0.800781 3.7793 1.60059 5.70312 2.39941c1.10352 -15.6826 1.65527 -31.5762 1.65527 -47.6826c0 -23.3789 -1.16211 -47.2051 -3.4873 -71.4785c-7.24609 1.15332 -14.3916 2.32715 -21.4346 3.52051
c-10.6084 28.0264 -21.0459 60.1572 -31.3096 96.3936c-13.2109 46.6455 -24.1289 100.837 -32.7529 162.576c24.5898 -1.00488 49.6582 -3.25488 75.2061 -6.75098c-14.4639 33.9307 -28.6152 75.3223 -42.4531 124.175
c-13.8359 48.8525 -25.1572 105.982 -33.9619 171.391c-2.55957 19.0166 -4.74707 38.8281 -6.5625 59.4346h-37.8672zM1455.35 754.692c-15.6816 -13.127 -31.0811 -25.4561 -46.1992 -36.9873c-52.4766 -40.0244 -100.951 -72.4883 -145.423 -97.3936
c-44.4727 -24.9043 -83.8203 -44.2383 -118.041 -58.0029c26.1504 -19.2119 51.2324 -40.8252 75.2471 -64.8398s46.9629 -50.4316 68.8428 -79.249c13.7656 34.2197 33.0273 73.4941 57.7861 117.823c24.7607 44.3271 57.1523 92.7295 97.1768 145.206
c11.6367 15.2568 24.0986 30.8125 37.3857 46.668zM1617.98 592.058c-15.6807 -13.127 -31.0811 -25.4561 -46.1992 -36.9873c-52.4766 -40.0244 -100.951 -72.4893 -145.423 -97.3936c-44.4727 -24.9043 -83.8193 -44.2383 -118.04 -58.0029
c19.9727 -14.6748 39.3223 -30.749 58.0498 -48.2246c-49.6318 -37.4492 -95.6328 -68.0361 -138 -91.7617c-44.4717 -24.9043 -83.8193 -44.2383 -118.04 -58.0029c26.1494 -19.2129 51.2314 -40.8262 75.2471 -64.8408c24.0146 -24.0146 46.9619 -50.4316 68.8428 -79.249
c13.7646 34.2197 33.0264 73.4951 57.7852 117.824c23.6416 42.3242 54.2412 88.3643 91.7979 138.118c16.6777 -18.0986 32.8135 -37.416 48.4062 -57.9531c13.7656 34.2207 33.0273 73.4951 57.7861 117.824c24.7607 44.3271 57.1523 92.7295 97.1768 145.206
c11.6377 15.2568 24.0996 30.8125 37.3857 46.667c-11.8145 11.8154 -11.8145 11.8154 -26.7754 26.7764zM1780.62 429.423c-15.6807 -13.127 -31.0801 -25.4561 -46.1982 -36.9863c-52.4766 -40.0254 -100.952 -72.4893 -145.424 -97.3945
c-44.4717 -24.9033 -83.8193 -44.2383 -118.04 -58.002c26.1494 -19.2129 51.2314 -40.8262 75.2471 -64.8408c24.0146 -24.0146 46.9619 -50.4316 68.8428 -79.249c13.7646 34.2197 33.0264 73.4951 57.7852 117.823c24.7607 44.3281 57.1523 92.7305 97.1768 145.207
c11.6377 15.2559 24.0996 30.8125 37.3867 46.667c-11.8154 11.8145 -11.8154 11.8145 -26.7764 26.7754zM622.939 633.929c16.085 5.22559 33.1992 10.4082 51.3418 15.5469c48.8525 13.8359 105.982 25.1572 171.391 33.9619
c55.3877 7.45508 117.518 11.7549 186.389 12.8975c-2.16113 -43.0098 -5.73926 -83.0615 -10.7324 -120.156c-0.201172 -1.49512 -0.404297 -2.98633 -0.607422 -4.47266c-64.0195 1.41309 -122.164 5.63867 -174.436 12.6748
c-65.4082 8.80469 -122.641 20.126 -171.697 33.9619c-18.2646 5.15137 -35.4805 10.3467 -51.6484 15.5859zM622.939 483.929c16.085 5.22559 33.1992 10.4082 51.3418 15.5469c48.8525 13.8359 105.982 25.1572 171.391 33.9619
c51.3223 6.90723 108.433 11.1064 171.332 12.5947c-6.93652 -45.4404 -15.1885 -86.6064 -24.7549 -123.498c-52.8955 1.91895 -101.55 5.86816 -145.964 11.8467c-65.4082 8.80469 -122.641 20.126 -171.697 33.9619c-18.2646 5.15137 -35.4805 10.3467 -51.6484 15.5859z
M622.939 333.929c16.085 5.22559 33.1992 10.4082 51.3418 15.5469c48.8525 13.8359 105.982 25.1572 171.391 33.9619c42.3828 5.7041 88.7129 9.56152 138.991 11.5703c-12.9756 -44.9473 -26.2256 -83.2832 -39.75 -115.008
c24.499 3.74707 49.5488 6.0625 75.1484 6.94824c-0.714844 -5.11035 -1.44629 -10.1699 -2.19238 -15.1777c-62.8955 1.47461 -120.089 5.67871 -171.584 12.6104c-65.4082 8.80469 -122.641 20.126 -171.697 33.9619c-18.2646 5.15137 -35.4805 10.3467 -51.6484 15.5859z
M615.073 181.342c18.3398 6.10352 38.0762 12.1484 59.208 18.1338c48.8525 13.8359 105.982 25.1572 171.391 33.9619c50.4512 6.79004 106.496 10.9639 168.135 12.5176c-5.57812 -33.6113 -11.918 -64.7471 -19.0195 -93.4072
c-81.1484 1.9248 -155.804 5.86914 -223.967 11.833c-55.7812 4.88086 -107.696 10.5342 -155.747 16.9609z" />
</svg>
