<?xml version="1.0" standalone="no"?>
<!DOCTYPE svg PUBLIC "-//W3C//DTD SVG 1.1//EN" "http://www.w3.org/Graphics/SVG/1.1/DTD/svg11.dtd" >
<svg xmlns="http://www.w3.org/2000/svg" xmlns:xlink="http://www.w3.org/1999/xlink" version="1.1" viewBox="0 0 1813 810">
   <path fill="currentColor"
d="M429.536 801c0 -57.2139 -4.40332 -108.146 -13.208 -152.801s-20.126 -83.7266 -33.9619 -117.217c-13.8369 -33.4902 -27.9883 -61.8184 -42.4531 -84.9824c28.3311 2.95801 57.3984 4.60938 87.2012 4.95508c-2.15625 -29.6387 -5.75195 -57.2236 -10.7861 -82.7559
c-8.80469 -44.6543 -20.126 -83.7266 -33.9619 -117.217c-3.53516 -8.55566 -7.08984 -16.7744 -10.666 -24.6562c-20.1592 4.78809 -39.0059 9.61133 -56.54 14.4697c7.54688 -32.0762 11.3213 -65.0947 11.3213 -99.0566c0 -32.835 -3.52832 -66.5527 -10.582 -101.15
c-28.3369 45.8887 -52.9365 88.3584 -73.7998 127.411c-23.4004 43.8008 -42.7002 80.5 -57.9004 110.1c11.0947 21.8428 26.3965 50.9707 45.9043 87.3857c25.3057 -27.9043 53.2051 -58.166 83.6973 -90.7861l12.5996 9c-27.8301 44.459 -52.2754 85.8223 -73.3379 124.09
c21.1064 38.0303 45.5518 79.6016 73.3379 124.711l-12.5996 9c-30.7627 -33.0186 -58.6865 -63.3027 -83.7715 -90.8535c-18.0508 33.9551 -33.3271 63.1064 -45.8301 87.4531c12.8008 25.2012 31.2012 60.1006 55.2012 104.701c24 44.5986 52.999 94.5 87 149.699
l-12.5996 9c-60 -64.3994 -109.201 -118.399 -147.602 -162c-38.3984 -43.6006 -70.7988 -77.4004 -97.1992 -101.4c24.4004 -24.3994 48.7998 -49.7988 73.1992 -76.1992c15.7451 -17.0352 32.1973 -34.9854 49.3564 -53.8525
c-8.91895 -9.96484 -17.3711 -19.4814 -25.3564 -28.5479c-38.3984 -43.6006 -70.7988 -77.4004 -97.1992 -101.4c24.4004 -24.3994 48.7998 -49.7988 73.1992 -76.1992c24.4014 -26.4004 50.501 -55.001 78.3008 -85.8008s58.9004 -64.5996 93.3008 -101.4l12.5996 9
c-2.94629 4.70703 -5.85547 9.37988 -8.72559 14.0176c51.7275 14.2227 114.567 28.1426 188.523 41.7588c75.1572 13.8359 163.05 25.1572 263.679 33.9619c70.3145 6.15137 147.691 10.1553 232.131 12.0088c-4.51953 -14.2891 -9.40039 -27.7773 -14.6416 -40.4639
c-13.8369 -33.4902 -27.9883 -61.8184 -42.4531 -84.9824c32.0762 3.34863 65.0947 5.02344 99.0566 5.02344s68.8682 -1.6748 104.717 -5.02344c-14.4639 23.1641 -28.6152 51.4219 -42.4531 84.7734c-5.42285 13.0723 -10.46 27.0127 -15.1104 41.8213
c7.95605 0.0341797 15.9688 0.0507812 24.0371 0.0507812v24.5273c-10.4971 0 -20.9004 0.0292969 -31.21 0.0878906c-4.29004 15.9482 -8.18262 32.7891 -11.6787 50.5195c-2.81836 14.2959 -5.18555 29.249 -7.10254 44.8604
c1.64258 0.00292969 3.28809 0.00488281 4.9375 0.00488281v24.5273c-2.51855 0 -5.02832 0.00390625 -7.53027 0.0117188c-0.46875 5.25293 -0.890625 10.5732 -1.26562 15.9629c28.4746 -0.69043 57.5996 -3.07324 87.376 -7.14746
c-14.4639 33.9307 -28.6152 75.3223 -42.4531 124.175c-13.8359 48.8525 -25.1572 105.982 -33.9619 171.391c-5.02051 37.2979 -8.60938 77.6523 -10.7676 121.064c2.85645 0.0107422 5.72363 0.015625 8.60254 0.015625v24.5273
c-3.2334 0 -6.45312 0.00683594 -9.65918 0.0195312c-0.922852 25.2842 -1.38379 51.5537 -1.38379 78.8076h-24.5273c0 -27.1426 -0.461914 -53.3193 -1.38574 -78.5322c-68.9424 1.11914 -131.23 5.42383 -186.865 12.9131
c-65.4082 8.80469 -122.641 20.126 -171.697 33.9619c-49.0566 13.8369 -90.5508 27.9883 -124.481 42.4531c4.90527 -32.0762 7.3584 -65.0947 7.3584 -99.0566c0 -17.4893 -0.650391 -35.2295 -1.95117 -53.2188c-1.82324 0.757812 -3.62598 1.51562 -5.40723 2.27539
c1.29492 -8.46484 2.41797 -16.9941 3.37109 -25.5908c-0.953125 -9.32812 -2.07617 -18.7227 -3.37109 -28.1826c1.87793 0.800781 3.7793 1.60059 5.70312 2.39941c1.10352 -15.6826 1.65527 -31.5762 1.65527 -47.6826c0 -17.4893 -0.650391 -35.2295 -1.95117 -53.2188
c-1.82324 0.757812 -3.62598 1.51562 -5.40723 2.27539c1.29492 -8.46484 2.41797 -16.9941 3.37109 -25.5908c-0.953125 -9.32812 -2.07617 -18.7227 -3.37109 -28.1826c1.87793 0.800781 3.7793 1.60059 5.70312 2.39941
c1.10352 -15.6826 1.65527 -31.5762 1.65527 -47.6826c0 -17.4893 -0.650391 -35.2295 -1.95117 -53.2188c-1.82324 0.757812 -3.62598 1.51562 -5.40723 2.27539c1.29492 -8.46484 2.41797 -16.9941 3.37109 -25.5908
c-0.953125 -9.32812 -2.07617 -18.7227 -3.37109 -28.1826c1.87793 0.800781 3.7793 1.60059 5.70312 2.39941c1.10352 -15.6826 1.65527 -31.5762 1.65527 -47.6826c0 -23.3789 -1.16211 -47.2051 -3.4873 -71.4785c-9.05176 1.44043 -17.9443 2.91309 -26.6777 4.41699
c-8.80859 16.7451 -17.498 35.4443 -26.0664 56.0957c-13.8359 33.3506 -25.1572 72.3535 -33.9619 117.007c-5.04492 25.5908 -8.64551 53.2891 -10.7998 83.0967c28.4229 -0.475586 57.4951 -2.10059 87.2148 -4.87695
c-14.4639 23.1641 -28.6152 51.4219 -42.4531 84.7734c-13.8359 33.3506 -25.1572 72.3535 -33.9619 117.007c-8.80371 44.6543 -13.208 95.7275 -13.208 153.22h-24.5273zM1460.08 749.959c-40.4561 -40.4561 -79.585 -73.3574 -117.386 -98.707
c-37.8018 -25.3496 -73.4355 -44.9727 -106.899 -58.8701c-33.4658 -13.8975 -63.5029 -23.9219 -90.1113 -30.0732c25.0498 -20.3135 49.5811 -42.4766 73.5957 -66.4912s47.5137 -49.8818 70.4941 -77.5977c6.15234 26.6064 16.127 56.5947 29.9248 89.9619
c13.7988 33.3662 33.373 68.9512 58.7217 106.752c25.3506 37.7998 58.3506 77.0283 99.0039 117.682zM1622.72 587.324c-40.4561 -40.457 -79.585 -73.3574 -117.386 -98.707c-37.8018 -25.3496 -73.4346 -44.9727 -106.899 -58.8701
c-33.4658 -13.8975 -63.5029 -23.9219 -90.1104 -30.0732c22.124 -17.9424 43.8457 -37.3271 65.1641 -58.1562c-22.4824 -19.4326 -44.5303 -36.3965 -66.1445 -50.8906c-37.8008 -25.3496 -73.4346 -44.9727 -106.899 -58.8701
c-33.4658 -13.8965 -63.5029 -23.9209 -90.1104 -30.0723c25.0488 -20.3135 49.5811 -42.4775 73.5957 -66.4922s47.5127 -49.8809 70.4941 -77.5977c6.15137 26.6074 16.126 56.5947 29.9248 89.9629c13.7988 33.3662 33.373 68.9502 58.7217 106.751
c14.5273 21.6631 31.5674 43.7949 51.1211 66.3955c19.7627 -20.4346 39.1699 -42.1416 58.2217 -65.1201c6.15234 26.6074 16.127 56.5947 29.9258 89.9629c13.7988 33.3662 33.3721 68.9512 58.7207 106.751c25.3506 37.8008 58.3506 77.0293 99.0039 117.683z
M1785.35 424.689c-40.4561 -40.4561 -79.584 -73.3574 -117.386 -98.707c-37.8008 -25.3496 -73.4346 -44.9727 -106.899 -58.8701c-33.4658 -13.8965 -63.5029 -23.9209 -90.1104 -30.0723c25.0488 -20.3135 49.5811 -42.4775 73.5957 -66.4922
s47.5127 -49.8809 70.4941 -77.5977c6.15137 26.6064 16.126 56.5947 29.9248 89.9629c13.7988 33.3652 33.373 68.9502 58.7217 106.751c25.3496 37.8008 58.3496 77.0293 99.0029 117.682zM622.939 633.929c16.085 5.22559 33.1992 10.4082 51.3418 15.5469
c48.8525 13.8359 105.982 25.1572 171.391 33.9619c55.3877 7.45508 117.518 11.7549 186.389 12.8975c-2.16113 -43.0098 -5.73926 -83.0615 -10.7324 -120.156c-0.201172 -1.49512 -0.404297 -2.98633 -0.607422 -4.47266
c-64.0195 1.41309 -122.164 5.63867 -174.436 12.6748c-65.4082 8.80469 -122.641 20.126 -171.697 33.9619c-18.2646 5.15137 -35.4805 10.3467 -51.6484 15.5859zM622.939 483.929c16.085 5.22559 33.1992 10.4082 51.3418 15.5469
c48.8525 13.8359 105.982 25.1572 171.391 33.9619c51.3223 6.90723 108.433 11.1064 171.332 12.5947c-6.93652 -45.4404 -15.1885 -86.6064 -24.7549 -123.498c-52.8955 1.91895 -101.55 5.86816 -145.964 11.8467c-65.4082 8.80469 -122.641 20.126 -171.697 33.9619
c-18.2646 5.15137 -35.4805 10.3467 -51.6484 15.5859zM622.939 333.929c16.085 5.22559 33.1992 10.4082 51.3418 15.5469c48.8525 13.8359 105.982 25.1572 171.391 33.9619c42.3828 5.7041 88.7129 9.56152 138.991 11.5703
c-12.9756 -44.9473 -26.2256 -83.2832 -39.75 -115.008c28.3838 4.34082 57.5049 6.76074 87.3652 7.26074c-0.37207 -5.31836 -0.790039 -10.5703 -1.25391 -15.7568c-68.0977 1.17188 -129.677 5.46484 -184.739 12.877
c-65.4082 8.80469 -122.641 20.126 -171.697 33.9619c-18.2646 5.15137 -35.4805 10.3467 -51.6484 15.5859zM615.073 181.342c18.3398 6.10352 38.0762 12.1484 59.208 18.1338c48.8525 13.8359 105.982 25.1572 171.391 33.9619
c54.3877 7.32031 115.277 11.5986 182.667 12.833c-1.90039 -15.3135 -4.2373 -30.0039 -7.01074 -44.0713c-3.4541 -17.5205 -7.29688 -34.1816 -11.5254 -49.9824c-86.9756 1.7793 -166.636 5.83398 -238.982 12.1641c-55.7812 4.88086 -107.696 10.5342 -155.747 16.9609
z" />
</svg>
