<?xml version="1.0" standalone="no"?>
<!DOCTYPE svg PUBLIC "-//W3C//DTD SVG 1.1//EN" "http://www.w3.org/Graphics/SVG/1.1/DTD/svg11.dtd" >
<svg xmlns="http://www.w3.org/2000/svg" xmlns:xlink="http://www.w3.org/1999/xlink" version="1.1" viewBox="0 0 1589 971">
   <path fill="currentColor"
d="M1464.38 870c0 -128.932 -4.40332 -243.71 -13.208 -344.34c-8.80469 -100.629 -20.126 -188.679 -33.9619 -264.15c-13.8369 -75.4717 -27.9883 -139.309 -42.4531 -191.51c32.0762 7.54688 65.0947 11.3213 99.0566 11.3213s68.8682 -3.77441 104.717 -11.3213
c-14.4639 52.2012 -28.6152 115.88 -42.4531 191.038c-13.8359 75.1572 -25.1572 163.05 -33.9619 263.679c-8.80371 100.629 -13.208 215.724 -13.208 345.283h-24.5273zM1144.95 681.173c-83.8057 0 -158.411 4.40332 -223.821 13.208
c-65.4082 8.80469 -122.641 20.126 -171.697 33.9619c-49.0566 13.8369 -90.5508 27.9883 -124.481 42.4531c3.78027 -24.7188 6.10449 -49.998 6.97168 -75.8359c-63.6357 8.71973 -119.448 19.8486 -167.437 33.3828c-46.4727 13.1084 -86.1592 26.498 -119.058 40.1699
c51.1689 13.9463 113.04 27.6006 185.614 40.9629c75.1572 13.8359 163.05 25.1572 263.679 33.9619c100.629 8.80371 215.724 13.208 345.283 13.208v24.5273c-128.932 0 -243.71 4.40332 -344.34 13.208c-100.629 8.80469 -188.679 20.126 -264.15 33.9619
c-75.4717 13.8369 -139.309 27.9883 -191.51 42.4531c7.54688 -32.0762 11.3213 -65.0947 11.3213 -99.0566c0 -32.8662 -3.53516 -66.6162 -10.6025 -101.249c-0.240234 0.101562 -0.479492 0.204102 -0.71875 0.305664
c0.111328 -0.729492 0.22168 -1.45996 0.331055 -2.19043c-0.109375 -0.527344 -0.219727 -1.05469 -0.331055 -1.58301c0.180664 0.0498047 0.362305 0.100586 0.542969 0.150391c3.42871 -23.3447 5.56348 -47.1865 6.40527 -71.5254
c-61.5762 8.61523 -115.731 19.5137 -162.467 32.6953c-49.0566 13.8369 -90.5508 27.9883 -124.481 42.4531c4.90527 -32.0762 7.3584 -65.0947 7.3584 -99.0566s-2.45312 -68.8682 -7.3584 -104.717c33.9307 14.4639 75.3223 28.6152 124.175 42.4531
c46.6455 13.2109 100.837 24.1289 162.576 32.7529c-0.958008 -23.4434 -3.04785 -47.3232 -6.27051 -71.6377l-0.480469 0.205078c0.0908203 -0.59375 0.180664 -1.18848 0.269531 -1.7832c-0.0888672 -0.663086 -0.178711 -1.32617 -0.269531 -1.99023
c0.176758 0.0751953 0.354492 0.151367 0.532227 0.226562c4.55078 -30.9619 6.82617 -62.7988 6.82617 -95.5098c0 -33.9619 -2.45312 -68.8682 -7.3584 -104.717c33.9307 14.4639 75.3223 28.6152 124.175 42.4531c47.8936 13.5645 103.744 24.7119 167.55 33.4404
c-0.969727 -24.2969 -3.15723 -49.0615 -6.56152 -74.2949c-1.74023 0.724609 -3.46094 1.44922 -5.16309 2.1748c4.90527 -32.0762 7.3584 -65.0947 7.3584 -99.0566s-2.45312 -68.8682 -7.3584 -104.717c33.9307 14.4639 75.3223 28.6152 124.175 42.4531
c48.8525 13.8359 105.982 25.1572 171.391 33.9619c10.9814 1.47852 22.2285 2.83203 33.7412 4.0625c19.2441 -19.5781 38.4883 -39.7773 57.7324 -60.5996c24.4014 -26.4004 50.501 -55.001 78.3008 -85.8008s58.9004 -64.5996 93.3008 -101.4l12.5996 9
c-13.6328 21.7783 -26.4531 42.8135 -38.4609 63.1064c29.5508 6.34277 59.8945 9.51562 91.0303 9.51562c33.9619 0 68.8682 -3.77441 104.717 -11.3213c-14.4639 52.2012 -28.6152 115.88 -42.4531 191.038c-13.8359 75.1572 -25.1572 163.05 -33.9619 263.679
c-8.80371 100.629 -13.208 215.724 -13.208 345.283h-24.5273c0 -128.932 -4.40332 -243.71 -13.208 -344.34c-8.80469 -100.629 -20.126 -188.679 -33.9619 -264.15c-12.9189 -70.4629 -26.1113 -130.783 -39.5771 -180.962
c-14.8555 25.333 -28.4189 49.4834 -40.6895 72.4521c-23.4004 43.8008 -42.7002 80.5 -57.9004 110.1c12.8008 25.2012 31.2012 60.1006 55.2012 104.701c24 44.5986 52.999 94.5 87 149.699l-12.5996 9c-14.6504 -15.7246 -28.6562 -30.8281 -42.0186 -45.3125
c-80.4297 0.283203 -152.261 4.68164 -215.497 13.1934c-65.4082 8.80469 -122.641 20.126 -171.697 33.9619c-46.9219 13.2344 -86.9248 26.7568 -120.009 40.5664c33.0752 13.8086 72.9756 27.3311 119.702 40.5664c48.8525 13.8359 105.982 25.1572 171.391 33.9619
c65.4092 8.80371 140.221 13.208 224.435 13.208v24.5273zM961.05 289.173c-15.4092 1.51953 -30.3662 3.25586 -44.8711 5.20801c-65.4082 8.80469 -122.641 20.126 -171.697 33.9619c-45.752 12.9053 -84.9258 26.083 -117.521 39.5342
c33.5508 14.167 74.2705 28.0332 122.161 41.5986c48.8525 13.8359 105.982 25.1572 171.391 33.9619c57.248 7.70508 121.699 12.041 193.354 13.002c-31.6699 -34.5566 -59.2783 -65.2031 -82.8262 -91.9395c-26.1016 -29.6377 -49.4316 -54.7461 -69.9893 -75.3271z
M631.725 642.916c-0.944336 -23.6641 -3.04395 -47.7725 -6.29785 -72.3252l-0.480469 0.205078c0.0908203 -0.59375 0.180664 -1.18848 0.269531 -1.7832c-0.0888672 -0.663086 -0.178711 -1.32617 -0.269531 -1.99023
c0.176758 0.0751953 0.354492 0.151367 0.532227 0.226562c3.4668 -23.5889 5.61328 -47.6855 6.43945 -72.2891c-63.6357 8.71973 -119.448 19.8486 -167.437 33.3828c-46.9219 13.2344 -86.9248 26.7568 -120.009 40.5664
c33.0752 13.8086 72.9756 27.3311 119.702 40.5664c47.8936 13.5645 103.744 24.7119 167.55 33.4404z" />
</svg>
