<?xml version="1.0" standalone="no"?>
<!DOCTYPE svg PUBLIC "-//W3C//DTD SVG 1.1//EN" "http://www.w3.org/Graphics/SVG/1.1/DTD/svg11.dtd" >
<svg xmlns="http://www.w3.org/2000/svg" xmlns:xlink="http://www.w3.org/1999/xlink" version="1.1" viewBox="0 0 1589 971">
   <path fill="currentColor"
d="M1464.38 870c0 -128.932 -4.40332 -243.71 -13.208 -344.34c-8.80469 -100.629 -20.126 -188.679 -33.9619 -264.15c-13.8369 -75.4717 -27.9883 -139.309 -42.4531 -191.51c32.0762 7.54688 65.0947 11.3213 99.0566 11.3213s68.8682 -3.77441 104.717 -11.3213
c-14.4639 52.2012 -28.6152 115.88 -42.4531 191.038c-13.8359 75.1572 -25.1572 163.05 -33.9619 263.679c-8.80371 100.629 -13.208 215.724 -13.208 345.283h-24.5273zM1144.95 681.173c-83.8057 0 -158.411 4.40332 -223.821 13.208
c-65.4082 8.80469 -122.641 20.126 -171.697 33.9619c-49.0566 13.8369 -90.5508 27.9883 -124.481 42.4531c4.35645 -28.4893 6.7793 -57.7207 7.2666 -87.6973c-32.4043 2.07812 -62.4092 5.83887 -90.0137 11.2822c-44.6543 8.80469 -83.7266 20.126 -117.217 33.9619
c-31.4756 13.0049 -58.3916 26.2871 -80.7461 39.8457c51.3984 14.0586 113.665 27.8213 186.802 41.2871c75.1572 13.8359 163.05 25.1572 263.679 33.9619c100.629 8.80371 215.724 13.208 345.283 13.208v24.5273c-128.932 0 -243.71 4.40332 -344.34 13.208
c-100.629 8.80469 -188.679 20.126 -264.15 33.9619c-75.4717 13.8369 -139.309 27.9883 -191.51 42.4531c7.54688 -32.0762 11.3213 -65.0947 11.3213 -99.0566c0 -32.9062 -3.54297 -66.6982 -10.6279 -101.375c-0.231445 0.143555 -0.462891 0.288086 -0.693359 0.431641
c0.0878906 -0.842773 0.174805 -1.68555 0.260742 -2.5293c-0.0869141 -0.415039 -0.173828 -0.829102 -0.260742 -1.24414c0.125 0.0341797 0.25 0.0693359 0.375 0.103516c2.72266 -27.1699 4.24902 -55.0137 4.58008 -83.5312
c-29.6387 2.15625 -57.2236 5.75195 -82.7559 10.7861c-44.6543 8.80469 -83.7266 20.126 -117.217 33.9619c-33.4902 13.8369 -61.8184 27.9883 -84.9824 42.4531c3.34863 -32.0762 5.02344 -65.0947 5.02344 -99.0566s-1.6748 -68.8682 -5.02344 -104.717
c23.1641 14.4639 51.4219 28.6152 84.7734 42.4531c33.3506 13.8359 72.3535 25.1572 117.007 33.9619c25.5908 5.04492 53.2891 8.64551 83.0967 10.7998c-0.456055 -27.2842 -1.97266 -55.167 -4.54883 -83.6465l-0.328125 0.205078
c0.0615234 -0.59375 0.123047 -1.18848 0.18457 -1.7832c-0.0615234 -0.663086 -0.123047 -1.32617 -0.18457 -1.99023c0.121094 0.0751953 0.242188 0.151367 0.363281 0.226562c3.10645 -30.9619 4.66016 -62.7988 4.66016 -95.5098
c0 -33.9619 -1.6748 -68.8682 -5.02344 -104.717c23.1641 14.4639 51.4219 28.6152 84.7734 42.4531c33.3506 13.8359 72.3535 25.1572 117.007 33.9619c27.6465 5.4502 57.7539 9.21484 90.3213 11.292c-0.674805 -28.3633 -3.0293 -57.3721 -7.0625 -87.0264
c-1.70605 1.0293 -3.38574 2.06055 -5.03906 3.09277c3.34863 -32.0762 5.02344 -65.0947 5.02344 -99.0566s-1.6748 -68.8682 -5.02344 -104.717c23.1641 14.4639 51.4219 28.6152 84.7734 42.4531c33.3506 13.8359 72.3535 25.1572 117.007 33.9619
c35.5977 7.01855 75.2744 11.2402 119.03 12.6641c22.0762 -22.248 44.1523 -45.3145 66.2285 -69.2012c24.4014 -26.4004 50.501 -55.001 78.3008 -85.8008s58.9004 -64.5996 93.3008 -101.4l12.5996 9c-13.6328 21.7783 -26.4531 42.8135 -38.4609 63.1064
c29.5508 6.34277 59.8945 9.51562 91.0303 9.51562c33.9619 0 68.8682 -3.77441 104.717 -11.3213c-14.4639 52.2012 -28.6152 115.88 -42.4531 191.038c-13.8359 75.1572 -25.1572 163.05 -33.9619 263.679c-8.80371 100.629 -13.208 215.724 -13.208 345.283h-24.5273
c0 -128.932 -4.40332 -243.71 -13.208 -344.34c-8.80469 -100.629 -20.126 -188.679 -33.9619 -264.15c-12.9189 -70.4629 -26.1113 -130.783 -39.5771 -180.962c-14.8555 25.333 -28.4189 49.4834 -40.6895 72.4521c-23.4004 43.8008 -42.7002 80.5 -57.9004 110.1
c12.8008 25.2012 31.2012 60.1006 55.2012 104.701c24 44.5986 52.999 94.5 87 149.699l-12.5996 9c-14.6504 -15.7246 -28.6562 -30.8281 -42.0186 -45.3125c-80.4297 0.283203 -152.261 4.68164 -215.497 13.1934c-65.4082 8.80469 -122.641 20.126 -171.697 33.9619
c-46.9219 13.2344 -86.9248 26.7568 -120.009 40.5664c33.0752 13.8086 72.9756 27.3311 119.702 40.5664c48.8525 13.8359 105.982 25.1572 171.391 33.9619c65.4092 8.80371 140.221 13.208 224.435 13.208v24.5273zM953.189 281.393
c-48.4287 0.988281 -92.0918 5.31836 -130.99 12.9883c-44.6543 8.80469 -83.7266 20.126 -117.217 33.9619c-30.8086 12.7295 -57.249 25.7246 -79.3193 38.9844c33.7959 14.3584 74.9492 28.4082 123.458 42.1484c48.8525 13.8359 105.982 25.1572 171.391 33.9619
c57.248 7.70508 121.699 12.041 193.354 13.002c-31.6699 -34.5566 -59.2783 -65.2031 -82.8262 -91.9395c-29.4873 -33.4824 -55.4375 -61.1846 -77.8496 -83.1074zM632.102 654.729c-0.65332 -27.4414 -2.87793 -55.4883 -6.6748 -84.1387l-0.480469 0.205078
c0.0908203 -0.59375 0.180664 -1.18848 0.269531 -1.7832c-0.0888672 -0.663086 -0.178711 -1.32617 -0.269531 -1.99023c0.176758 0.0751953 0.354492 0.151367 0.532227 0.226562c4.02246 -27.3672 6.2666 -55.417 6.73438 -84.1504
c-32.4043 2.07812 -62.4092 5.83887 -90.0137 11.2822c-44.6543 8.80469 -83.7266 20.126 -117.217 33.9619c-32.0332 13.2344 -59.3428 26.7568 -81.9287 40.5664c22.5801 13.8086 49.8193 27.3311 81.7197 40.5664c33.3506 13.8359 72.3535 25.1572 117.007 33.9619
c27.6465 5.4502 57.7539 9.21484 90.3213 11.292z" />
</svg>
