<?xml version="1.0" standalone="no"?>
<!DOCTYPE svg PUBLIC "-//W3C//DTD SVG 1.1//EN" "http://www.w3.org/Graphics/SVG/1.1/DTD/svg11.dtd" >
<svg xmlns="http://www.w3.org/2000/svg" xmlns:xlink="http://www.w3.org/1999/xlink" version="1.1" viewBox="0 0 1554 905">
   <path fill="currentColor"
d="M942.799 707.403c-9.40918 -7.87598 -18.6484 -15.2734 -27.7197 -22.1924c-31.4854 -24.0146 -60.5703 -43.4932 -87.2529 -58.4355c-26.6836 -14.9434 -50.293 -26.543 -70.8252 -34.8018c15.6904 -11.5273 30.7393 -24.4951 45.1484 -38.9043
s28.1777 -30.2588 41.3057 -47.5498c8.25977 20.5322 19.8164 44.0967 34.6719 70.6943c14.8564 26.5967 34.291 55.6377 58.3057 87.124c6.98242 9.15332 14.459 18.4873 22.4316 28zM1040.38 609.822c-9.4082 -7.87598 -18.6484 -15.2734 -27.7188 -22.1924
c-31.4863 -24.0146 -60.5713 -43.4932 -87.2539 -58.4355c-26.6836 -14.9424 -50.292 -26.543 -70.8242 -34.8018c11.9834 -8.80566 23.5938 -18.4492 34.8301 -28.9346c-29.7803 -22.4707 -57.3799 -40.8223 -82.7998 -55.0576
c-26.6836 -14.9424 -50.292 -26.543 -70.8242 -34.8018c15.6895 -11.5273 30.7383 -24.4951 45.1484 -38.9043c14.4082 -14.4092 28.1768 -30.2588 41.3057 -47.5498c8.25879 20.5322 19.8154 44.0977 34.6709 70.6953c14.1855 25.3945 32.5439 53.0186 55.0791 82.8701
c10.0059 -10.8584 19.6875 -22.4492 29.043 -34.7715c8.25977 20.5322 19.8164 44.0967 34.6719 70.6943c14.8564 26.5967 34.291 55.6377 58.3057 87.124c6.9834 9.1543 14.46 18.4873 22.4316 28zM1137.96 512.242c-9.4082 -7.87695 -18.6475 -15.2744 -27.7188 -22.1924
c-31.4863 -24.0146 -60.5713 -43.4932 -87.2539 -58.4365c-26.6836 -14.9424 -50.292 -26.543 -70.8242 -34.8008c15.6895 -11.5283 30.7383 -24.4961 45.1484 -38.9053c14.4082 -14.4082 28.1768 -30.2588 41.3057 -47.5488
c8.25879 20.5312 19.8154 44.0967 34.6709 70.6934c14.8564 26.5977 34.291 55.6387 58.3057 87.125c6.98242 9.15332 14.46 18.4873 22.4326 28c-7.08984 7.08887 -7.08984 7.08887 -16.0664 16.0654zM1420 815.173c-106.368 0 -201.061 4.40332 -284.08 13.208
s-155.66 20.126 -217.925 33.9619c-62.2637 13.8369 -114.929 27.9883 -157.995 42.4531c6.22656 -32.0762 9.33984 -65.0947 9.33984 -99.0566s-3.11328 -68.8682 -9.33984 -104.717c43.0664 14.4639 95.6006 28.6152 157.606 42.4531
c62.0049 13.8359 134.516 25.1572 217.535 33.9619c83.0186 8.80371 177.972 13.208 284.858 13.208v24.5273zM1526.24 864c-80 -85.8662 -145.601 -157.866 -196.801 -216c-51.1992 -58.1338 -94.3994 -103.2 -129.6 -135.2
c32.5332 -32.5332 65.0664 -66.3994 97.5996 -101.6c32.5342 -35.2002 67.334 -73.334 104.4 -114.4s78.5332 -86.1338 124.4 -135.2l16.7998 12c-43.7334 69.8672 -81.2002 134 -112.4 192.4s-56.9336 107.334 -77.2002 146.8
c17.0664 33.6006 41.6006 80.1338 73.6006 139.601c32 59.4658 70.666 126 116 199.6zM1262.04 447.81c-59.2588 -59.2598 -115.127 -108.9 -167.604 -148.927c-52.4766 -40.0244 -100.951 -72.4883 -145.423 -97.3936
c-44.4727 -24.9043 -83.8203 -44.2383 -118.041 -58.0029c26.1504 -19.2129 51.2324 -40.8252 75.2471 -64.8398s46.9629 -50.4316 68.8428 -79.249c13.7646 34.2197 33.0264 73.4941 57.7861 117.823c24.7598 44.3271 57.1514 92.7295 97.1768 145.206
c40.0264 52.4766 89.8115 108.491 149.359 168.039zM584.946 760.173c-83.8057 0 -158.411 4.40332 -223.821 13.208c-65.4082 8.80469 -122.641 20.126 -171.697 33.9619c-49.0566 13.8369 -90.5508 27.9883 -124.481 42.4531
c4.90527 -32.0762 7.3584 -65.0947 7.3584 -99.0566s-2.45312 -68.8682 -7.3584 -104.717c33.9307 14.4639 75.3223 28.6152 124.175 42.4531c48.8525 13.8359 105.982 25.1572 171.391 33.9619c60.9688 8.20605 130.107 12.5898 207.414 13.1475
c-29.1201 -32.043 -55.2822 -61.2383 -78.4863 -87.585c-38.2793 -43.4639 -72.0869 -79.623 -101.423 -108.479c-10.8447 1.17578 -21.457 2.46191 -31.8379 3.85938c-65.4082 8.80469 -122.641 20.126 -171.697 33.9619
c-49.0566 13.8369 -90.5508 27.9883 -124.481 42.4531c4.90527 -32.0762 7.3584 -65.0947 7.3584 -99.0566s-2.45312 -68.8682 -7.3584 -104.717c33.9307 14.4639 75.3223 28.6152 124.175 42.4531c48.8525 13.8359 105.982 25.1572 171.391 33.9619
c7.14746 0.961914 14.4072 1.87109 21.7793 2.72852c26.6982 -27.0908 53.3965 -55.0791 80.0947 -83.9658c31.6025 -34.1924 65.3428 -71.1523 101.222 -110.88c-73.2012 0.833008 -139.045 5.1875 -197.536 13.0605c-65.4082 8.80469 -122.641 20.126 -171.697 33.9619
c-49.0566 13.8369 -90.5508 27.9883 -124.481 42.4531c4.90527 -32.0762 7.3584 -65.0947 7.3584 -99.0566s-2.45312 -68.8682 -7.3584 -104.717c33.9307 14.4639 75.3223 28.6152 124.175 42.4531c48.8525 13.8359 105.982 25.1572 171.391 33.9619
c64.3867 8.66602 137.884 13.0693 220.492 13.2051c32.04 -35.252 67.1182 -73.2666 105.236 -114.043l16.7998 12c-43.7334 69.8672 -81.2002 134 -112.4 192.4s-56.9336 107.334 -77.2002 146.8c17.0664 33.6006 41.6006 80.1338 73.6006 139.601
c32 59.4658 70.666 126 116 199.6l-16.7998 12c-36.8135 -39.5137 -70.5781 -76.0908 -101.294 -109.731v5.9043z" />
</svg>
