<?xml version="1.0" standalone="no"?>
<!DOCTYPE svg PUBLIC "-//W3C//DTD SVG 1.1//EN" "http://www.w3.org/Graphics/SVG/1.1/DTD/svg11.dtd" >
<svg xmlns="http://www.w3.org/2000/svg" xmlns:xlink="http://www.w3.org/1999/xlink" version="1.1" viewBox="0 0 1554 905">
   <path fill="currentColor"
d="M945.639 704.563c-24.2734 -24.2734 -47.751 -44.0146 -70.4307 -59.2246c-22.6816 -15.209 -44.0615 -26.9834 -64.1396 -35.3213c-20.0801 -8.33887 -38.1025 -14.3535 -54.0674 -18.0439c15.0303 -12.1885 29.749 -25.4863 44.1572 -39.8955
c14.4092 -14.4082 28.5088 -29.9287 42.2969 -46.5586c3.69141 15.9639 9.67578 33.957 17.9551 53.9775c8.2793 20.0195 20.0234 41.3711 35.2324 64.0508c15.2109 22.6807 35.0107 46.2178 59.4023 70.6094zM1043.22 606.982
c-24.2744 -24.2744 -47.751 -44.0146 -70.4316 -59.2236c-22.6816 -15.21 -44.0605 -26.9844 -64.1396 -35.3223c-20.0801 -8.33887 -38.1016 -14.3535 -54.0664 -18.0439c13.2744 -10.7656 26.3076 -22.3965 39.0986 -34.8936
c-13.4893 -11.6602 -26.7178 -21.8379 -39.6865 -30.5352c-22.6807 -15.209 -44.0615 -26.9834 -64.1396 -35.3213c-20.0801 -8.33789 -38.1025 -14.3525 -54.0664 -18.0439c15.0293 -12.1875 29.748 -25.4863 44.1572 -39.8955
c14.4092 -14.4082 28.5078 -29.9277 42.2969 -46.5586c3.69043 15.9648 9.6748 33.957 17.9541 53.9785c8.2793 20.0195 20.0244 41.3701 35.2334 64.0498c8.7168 12.998 18.9404 26.2773 30.6729 39.8379c11.8574 -12.2607 23.502 -25.2852 34.9326 -39.0723
c3.69141 15.9648 9.67676 33.957 17.9561 53.9775c8.2793 20.0195 20.0225 41.3711 35.2324 64.0508c15.21 22.6807 35.0098 46.2178 59.4023 70.6094zM1140.8 509.401c-24.2734 -24.2734 -47.75 -44.0137 -70.4307 -59.2236s-44.0615 -26.9834 -64.1396 -35.3223
c-20.0801 -8.33789 -38.1025 -14.3525 -54.0664 -18.043c15.0293 -12.1885 29.748 -25.4873 44.1572 -39.8955c14.4092 -14.4092 28.5078 -29.9287 42.2969 -46.5586c3.69043 15.9639 9.6748 33.957 17.9541 53.9775c8.2793 20.0195 20.0244 41.3701 35.2334 64.0508
c15.21 22.6807 35.0098 46.2178 59.4014 70.6084zM1420 815.173c-106.368 0 -201.061 4.40332 -284.08 13.208s-155.66 20.126 -217.925 33.9619c-62.2637 13.8369 -114.929 27.9883 -157.995 42.4531c6.22656 -32.0762 9.33984 -65.0947 9.33984 -99.0566
s-3.11328 -68.8682 -9.33984 -104.717c43.0664 14.4639 95.6006 28.6152 157.606 42.4531c62.0049 13.8359 134.516 25.1572 217.535 33.9619c83.0186 8.80371 177.972 13.208 284.858 13.208v24.5273zM1526.24 864c-80 -85.8662 -145.601 -157.866 -196.801 -216
c-51.1992 -58.1338 -94.3994 -103.2 -129.6 -135.2c32.5332 -32.5332 65.0664 -66.3994 97.5996 -101.6c32.5342 -35.2002 67.334 -73.334 104.4 -114.4s78.5332 -86.1338 124.4 -135.2l16.7998 12c-43.7334 69.8672 -81.2002 134 -112.4 192.4
s-56.9336 107.334 -77.2002 146.8c17.0664 33.6006 41.6006 80.1338 73.6006 139.601c32 59.4658 70.666 126 116 199.6zM1262.04 447.81c-59.2588 -59.2598 -115.127 -108.9 -167.604 -148.927c-52.4766 -40.0244 -100.951 -72.4883 -145.423 -97.3936
c-44.4727 -24.9043 -83.8203 -44.2383 -118.041 -58.0029c26.1504 -19.2129 51.2324 -40.8252 75.2471 -64.8398s46.9629 -50.4316 68.8428 -79.249c13.7646 34.2197 33.0264 73.4941 57.7861 117.823c24.7598 44.3271 57.1514 92.7295 97.1768 145.206
c40.0264 52.4766 89.8115 108.491 149.359 168.039zM584.946 760.173c-83.8057 0 -158.411 4.40332 -223.821 13.208c-65.4082 8.80469 -122.641 20.126 -171.697 33.9619c-49.0566 13.8369 -90.5508 27.9883 -124.481 42.4531
c4.90527 -32.0762 7.3584 -65.0947 7.3584 -99.0566s-2.45312 -68.8682 -7.3584 -104.717c33.9307 14.4639 75.3223 28.6152 124.175 42.4531c48.8525 13.8359 105.982 25.1572 171.391 33.9619c60.9688 8.20605 130.107 12.5898 207.414 13.1475
c-29.1201 -32.043 -55.2822 -61.2383 -78.4863 -87.585c-42.248 -47.9707 -79.0498 -87.043 -110.404 -117.219c-42.8193 1.48438 -81.7637 5.68457 -116.836 12.5996c-44.6543 8.80469 -83.7266 20.126 -117.217 33.9619
c-33.4902 13.8369 -61.8184 27.9883 -84.9824 42.4531c3.34863 -32.0762 5.02344 -65.0947 5.02344 -99.0566s-1.6748 -68.8682 -5.02344 -104.717c23.1641 14.4639 51.4219 28.6152 84.7734 42.4531c33.3506 13.8359 72.3535 25.1572 117.007 33.9619
c32.0947 6.32715 67.5049 10.3828 106.231 12.1631c29.8086 -30.0146 59.6182 -61.1475 89.4277 -93.4004c31.6025 -34.1924 65.3428 -71.1523 101.222 -110.88c-73.2012 0.833008 -139.045 5.1875 -197.536 13.0605c-65.4082 8.80469 -122.641 20.126 -171.697 33.9619
c-49.0566 13.8369 -90.5508 27.9883 -124.481 42.4531c4.90527 -32.0762 7.3584 -65.0947 7.3584 -99.0566s-2.45312 -68.8682 -7.3584 -104.717c33.9307 14.4639 75.3223 28.6152 124.175 42.4531c48.8525 13.8359 105.982 25.1572 171.391 33.9619
c64.3867 8.66602 137.884 13.0693 220.492 13.2051c32.04 -35.252 67.1182 -73.2666 105.236 -114.043l16.7998 12c-43.7334 69.8672 -81.2002 134 -112.4 192.4s-56.9336 107.334 -77.2002 146.8c17.0664 33.6006 41.6006 80.1338 73.6006 139.601
c32 59.4658 70.666 126 116 199.6l-16.7998 12c-36.8135 -39.5137 -70.5781 -76.0908 -101.294 -109.731v5.9043z" />
</svg>
