<?xml version="1.0" standalone="no"?>
<!DOCTYPE svg PUBLIC "-//W3C//DTD SVG 1.1//EN" "http://www.w3.org/Graphics/SVG/1.1/DTD/svg11.dtd" >
<svg xmlns="http://www.w3.org/2000/svg" xmlns:xlink="http://www.w3.org/1999/xlink" version="1.1" viewBox="0 0 574 894">
   <path fill="currentColor"
d="M449.402 894c0 -128.932 -4.40332 -243.71 -13.208 -344.34c-5.02539 -57.4365 -10.8711 -110.775 -17.5361 -160.016c-37.1787 -34.3584 -72.9102 -64.6123 -107.194 -90.7617c-52.4766 -40.0244 -100.951 -72.4883 -145.423 -97.3936
c-44.4727 -24.9043 -83.8203 -44.2383 -118.041 -58.0029c26.1504 -19.2129 51.2324 -40.8252 75.2471 -64.8398s46.9629 -50.4316 68.8428 -79.249c13.7646 34.2197 33.0264 73.4941 57.7861 117.823c24.7598 44.3271 57.1514 92.7295 97.1768 145.206
c19.2383 25.2217 40.7305 51.2607 64.4775 78.1172c-2.96191 -19.0332 -6.06055 -37.3779 -9.29785 -55.0342c-13.8369 -75.4717 -27.9883 -139.309 -42.4531 -191.51c32.0762 7.54688 65.0947 11.3213 99.0566 11.3213s68.8682 -3.77441 104.717 -11.3213
c-14.4639 52.2012 -28.6152 115.88 -42.4531 191.038c-13.8359 75.1572 -25.1572 163.05 -33.9619 263.679c-8.80371 100.629 -13.208 215.724 -13.208 345.283h-24.5273z" />
</svg>
