<?xml version="1.0" standalone="no"?>
<!DOCTYPE svg PUBLIC "-//W3C//DTD SVG 1.1//EN" "http://www.w3.org/Graphics/SVG/1.1/DTD/svg11.dtd" >
<svg xmlns="http://www.w3.org/2000/svg" xmlns:xlink="http://www.w3.org/1999/xlink" version="1.1" viewBox="0 0 1287 905">
   <path fill="currentColor"
d="M1276.83 494.173c-106.368 0 -201.061 4.40332 -284.08 13.208s-155.66 20.126 -217.925 33.9619c-62.2637 13.8369 -114.929 27.9883 -157.995 42.4531c5.51855 -28.4268 8.59082 -57.5928 9.21875 -87.5c-31.2607 2.11523 -60.2666 5.80957 -87.0195 11.085
c-44.6543 8.80469 -83.7266 20.126 -117.217 33.9619c-33.4902 13.8369 -61.8184 27.9883 -84.9824 42.4531c3.34863 -32.0762 5.02344 -65.0947 5.02344 -99.0566s-1.6748 -68.8682 -5.02344 -104.717c23.1641 14.4639 51.4219 28.6152 84.7734 42.4531
c33.3506 13.8359 72.3535 25.1572 117.007 33.9619c26.7881 5.28125 55.8867 8.97949 87.2959 11.0938c-0.871094 -28.5166 -3.89648 -57.6865 -9.07617 -87.5088c43.0664 14.4639 95.6006 28.6152 157.606 42.4531c62.0049 13.8359 134.516 25.1572 217.535 33.9619
c83.0186 8.80371 177.972 13.208 284.858 13.208v24.5273zM1276.83 724.173c-106.368 0 -201.061 4.40332 -284.08 13.208s-155.66 20.126 -217.925 33.9619c-62.2637 13.8369 -114.929 27.9883 -157.995 42.4531c5.51855 -28.4268 8.59082 -57.5928 9.21875 -87.5
c-31.2607 2.11523 -60.2666 5.80957 -87.0195 11.085c-44.6543 8.80469 -83.7266 20.126 -117.217 33.9619c-33.4902 13.8369 -61.8184 27.9883 -84.9824 42.4531c3.34863 -32.0762 5.02344 -65.0947 5.02344 -99.0566s-1.6748 -68.8682 -5.02344 -104.717
c23.1641 14.4639 51.4219 28.6152 84.7734 42.4531c33.3506 13.8359 72.3535 25.1572 117.007 33.9619c26.7881 5.28125 55.8867 8.97949 87.2959 11.0938c-0.871094 -28.5166 -3.89648 -57.6865 -9.07617 -87.5088c43.0664 14.4639 95.6006 28.6152 157.606 42.4531
c62.0049 13.8359 134.516 25.1572 217.535 33.9619c83.0186 8.80371 177.972 13.208 284.858 13.208v24.5273zM703.395 331.329c-40.4561 -40.457 -79.585 -73.3574 -117.386 -98.707s-73.4346 -44.9727 -106.899 -58.8701
c-33.4658 -13.8975 -63.5029 -23.9219 -90.1104 -30.0732c25.0488 -20.3135 49.5811 -42.4766 73.5957 -66.4912s47.5127 -49.8818 70.4932 -77.5986c6.15234 26.6074 16.127 56.5957 29.9258 89.9629c13.7988 33.3662 33.3721 68.9512 58.7217 106.751
c25.3496 37.8008 58.3496 77.0293 99.0029 117.683zM359.396 905.329c-40.4561 -40.457 -79.585 -73.3574 -117.386 -98.707s-73.4346 -44.9727 -106.899 -58.8701c-33.4658 -13.8975 -63.5029 -23.9219 -90.1104 -30.0732
c25.0488 -20.3135 49.5811 -42.4766 73.5957 -66.4912s47.5127 -49.8818 70.4932 -77.5986c6.15234 26.6074 16.127 56.5957 29.9258 89.9629c7.58984 18.3525 16.9268 37.376 28.0098 57.0703c-0.920898 -91.3018 -5.26172 -173.535 -13.0215 -246.702
c-8.80469 -83.0195 -20.126 -155.66 -33.9619 -217.925c-13.8369 -62.2637 -27.9883 -114.929 -42.4531 -157.995c32.0762 6.22656 65.0947 9.33984 99.0566 9.33984s68.8682 -3.11328 104.717 -9.33984c-14.4639 43.0664 -28.6152 95.6006 -42.4531 157.606
c-13.8359 62.0049 -25.1572 134.516 -33.9619 217.535c-8.80371 83.0186 -13.208 177.972 -13.208 284.858h-2.09863c2.62988 4.07422 5.3291 8.17578 8.09668 12.3027c25.3496 37.8008 58.3496 77.0293 99.0029 117.683z" />
</svg>
