<?xml version="1.0" standalone="no"?>
<!DOCTYPE svg PUBLIC "-//W3C//DTD SVG 1.1//EN" "http://www.w3.org/Graphics/SVG/1.1/DTD/svg11.dtd" >
<svg xmlns="http://www.w3.org/2000/svg" xmlns:xlink="http://www.w3.org/1999/xlink" version="1.1" viewBox="0 0 829 810">
   <path fill="currentColor"
d="M668.785 261.525c-85.792 1.2041 -163.413 5.48926 -232.865 12.8555c-83.0195 8.80469 -155.66 20.126 -217.925 33.9619c-62.2637 13.8369 -114.929 27.9883 -157.995 42.4531c6.22656 -32.0762 9.33984 -65.0947 9.33984 -99.0566
s-3.11328 -68.8682 -9.33984 -104.717c43.0664 14.4639 95.6006 28.6152 157.606 42.4531c62.0049 13.8359 134.516 25.1572 217.535 33.9619c68.4619 7.25977 145.04 11.5283 229.734 12.8018c-2.46484 -15.3711 -5.02148 -30.2803 -7.66992 -44.7295
c-13.8369 -75.4717 -27.9883 -139.309 -42.4531 -191.51c32.0762 7.54688 65.0947 11.3213 99.0566 11.3213s68.8682 -3.77441 104.717 -11.3213c-14.4639 52.2012 -28.6152 115.88 -42.4531 191.038c-13.8359 75.1572 -25.1572 163.05 -33.9619 263.679
c-8.80371 100.629 -13.208 215.724 -13.208 345.283h-24.5273c0 -26.8789 -0.191406 -53.1436 -0.574219 -78.793c-99.8066 0.426758 -189.101 4.81836 -267.882 13.1738c-83.0195 8.80469 -155.66 20.126 -217.925 33.9619
c-62.2637 13.8369 -114.929 27.9883 -157.995 42.4531c6.22656 -32.0762 9.33984 -65.0947 9.33984 -99.0566s-3.11328 -68.8682 -9.33984 -104.717c43.0664 14.4639 95.6006 28.6152 157.606 42.4531c62.0049 13.8359 134.516 25.1572 217.535 33.9619
c78.6885 8.34473 168.099 12.7363 268.23 13.1719c-1.47656 -73.6855 -4.58203 -142.135 -9.31738 -205.348c-95.8818 0.663086 -181.927 5.03711 -258.135 13.1191c-83.0195 8.80469 -155.66 20.126 -217.925 33.9619c-62.2637 13.8369 -114.929 27.9883 -157.995 42.4531
c6.22656 -32.0762 9.33984 -65.0947 9.33984 -99.0566s-3.11328 -68.8682 -9.33984 -104.717c43.0664 14.4639 95.6006 28.6152 157.606 42.4531c62.0049 13.8359 134.516 25.1572 217.535 33.9619c75.7236 8.03027 161.376 12.4004 256.957 13.1064
c-0.304688 -3.64648 -0.615234 -7.27441 -0.930664 -10.8838c-6.20898 -70.9678 -13.6709 -135.68 -22.3828 -194.135z" />
</svg>
