<?xml version="1.0" standalone="no"?>
<!DOCTYPE svg PUBLIC "-//W3C//DTD SVG 1.1//EN" "http://www.w3.org/Graphics/SVG/1.1/DTD/svg11.dtd" >
<svg xmlns="http://www.w3.org/2000/svg" xmlns:xlink="http://www.w3.org/1999/xlink" version="1.1" viewBox="0 0 1499 812">
   <path fill="currentColor"
d="M1461.83 812.062c-15.6807 -13.127 -31.0801 -25.4561 -46.1992 -36.9873c-52.4756 -40.0244 -100.951 -72.4883 -145.423 -97.3936c-44.4727 -24.9043 -83.8193 -44.2383 -118.04 -58.0029c26.1494 -19.2129 51.2314 -40.8252 75.2461 -64.8398
s46.9629 -50.4326 68.8428 -79.25c13.7139 34.0928 32.8838 73.2021 57.5098 117.329c-1.48828 -79.5215 -5.68652 -151.854 -12.5957 -216.998c-8.80469 -83.0195 -20.126 -155.66 -33.9619 -217.925c-13.8369 -62.2637 -27.9883 -114.929 -42.4531 -157.995
c32.0762 6.22656 65.0947 9.33984 99.0566 9.33984s68.8682 -3.11328 104.717 -9.33984c-14.4639 43.0664 -28.6152 95.6006 -42.4531 157.606c-13.8359 62.0049 -25.1572 134.516 -33.9619 217.535c-8.12109 76.583 -12.499 163.323 -13.1289 260.218
c20.4111 32.4619 44.4883 66.8818 72.2344 103.26c11.6377 15.2568 24.0996 30.8125 37.3857 46.667c-11.8145 11.8154 -11.8145 11.8154 -26.7754 26.7764zM1231.83 812.062c-15.6807 -13.127 -31.0801 -25.4561 -46.1992 -36.9873
c-25.9463 -19.79 -50.915 -37.7314 -74.9053 -53.8252c-117.095 0.621094 -222.114 4.99805 -315.062 13.1309c-100.629 8.80469 -188.679 20.126 -264.15 33.9619c-75.4717 13.8369 -139.309 27.9883 -191.51 42.4531c7.54688 -32.0762 11.3213 -65.0947 11.3213 -99.0566
s-3.77441 -68.8682 -11.3213 -104.717c52.2012 14.4639 115.88 28.6152 191.038 42.4531c75.1572 13.8359 163.05 25.1572 263.679 33.9619c82.6064 7.22656 174.961 11.4893 277.063 12.7842c-10.7402 -6.58594 -21.2656 -12.7666 -31.5752 -18.54
c-44.4727 -24.9043 -83.8193 -44.2383 -118.04 -58.0029c26.1494 -19.2129 51.2314 -40.8252 75.2461 -64.8398c19.0605 -19.0605 37.4502 -39.6357 55.166 -61.7227c-47.3125 2.08203 -91.1299 5.83691 -131.452 11.2646
c-65.4082 8.80469 -122.641 20.126 -171.697 33.9619c-49.0566 13.8369 -90.5508 27.9883 -124.481 42.4531c3.78027 -24.7188 6.10449 -49.998 6.97168 -75.8359c-63.6357 8.71973 -119.448 19.8486 -167.437 33.3828c-49.0566 13.8369 -90.5508 27.9883 -124.481 42.4531
c3.74707 -24.499 6.0625 -49.5488 6.94824 -75.1484c-61.5762 8.61523 -115.731 19.5137 -162.467 32.6953c-49.0566 13.8369 -90.5508 27.9883 -124.481 42.4531c4.90527 -32.0762 7.3584 -65.0947 7.3584 -99.0566s-2.45312 -68.8682 -7.3584 -104.717
c33.9307 14.4639 75.3223 28.6152 124.175 42.4531c46.6455 13.2109 100.837 24.1289 162.576 32.7529c-1.00488 -24.5898 -3.25488 -49.6582 -6.75098 -75.2061c33.9307 14.4639 75.3223 28.6152 124.175 42.4531c47.8936 13.5645 103.744 24.7119 167.55 33.4404
c-0.990234 -24.8096 -3.25 -50.1074 -6.77832 -75.8936c33.9307 14.4639 75.3223 28.6152 124.175 42.4531c48.8525 13.8359 105.982 25.1572 171.391 33.9619c58.5439 7.87988 124.62 12.2354 198.229 13.0625c-1.99512 -31.5977 -4.51855 -61.79 -7.57227 -90.5801
c-4.31445 -40.6846 -9.23438 -78.876 -14.7568 -114.575c-111.356 0.890625 -211.605 5.23633 -300.751 13.0361c-100.629 8.80469 -188.679 20.126 -264.15 33.9619c-75.4717 13.8369 -139.309 27.9883 -191.51 42.4531
c7.54688 -32.0762 11.3213 -65.0947 11.3213 -99.0566s-3.77441 -68.8682 -11.3213 -104.717c52.2012 14.4639 115.88 28.6152 191.038 42.4531c75.1572 13.8359 163.05 25.1572 263.679 33.9619c88.1299 7.70996 187.355 12.0459 297.675 13.0039
c-4.6709 -27.7598 -9.7334 -53.9092 -15.1855 -78.4463c-13.8369 -62.2637 -27.9883 -114.929 -42.4531 -157.995c32.0762 6.22656 65.0947 9.33984 99.0566 9.33984s68.8682 -3.11328 104.717 -9.33984c-14.4639 43.0664 -28.6152 95.6006 -42.4531 157.606
c-13.8359 62.0049 -25.1572 134.516 -33.9619 217.535c-8.12109 76.583 -12.499 163.323 -13.1289 260.218c20.4111 32.4619 44.4883 66.8818 72.2344 103.26c11.6377 15.2568 24.0996 30.8125 37.3857 46.667c-11.8145 11.8154 -11.8145 11.8154 -26.7754 26.7764z
M1123.76 592.918c-0.660156 -35.2871 -1.85449 -69.1582 -3.58203 -101.614c-15.9951 0.170898 -31.6396 0.509766 -46.9336 1.0166c12.9873 29.9912 29.8252 63.5234 50.5156 100.598z" />
</svg>
