<?xml version="1.0" standalone="no"?>
<!DOCTYPE svg PUBLIC "-//W3C//DTD SVG 1.1//EN" "http://www.w3.org/Graphics/SVG/1.1/DTD/svg11.dtd" >
<svg xmlns="http://www.w3.org/2000/svg" xmlns:xlink="http://www.w3.org/1999/xlink" version="1.1" viewBox="0 0 1385 702">
   <path fill="currentColor"
d="M1374.16 558.173c-106.368 0 -201.061 4.40332 -284.08 13.208s-155.66 20.126 -217.925 33.9619c-62.2637 13.8369 -114.929 27.9883 -157.995 42.4531c4.77246 -24.583 7.71582 -49.7197 8.83008 -75.4102c-62.3545 8.65527 -117.138 19.6416 -164.349 32.957
c-49.0566 13.8369 -90.5508 27.9883 -124.481 42.4531c4.90527 -32.0762 7.3584 -65.0947 7.3584 -99.0566s-2.45312 -68.8682 -7.3584 -104.717c33.9307 14.4639 75.3223 28.6152 124.175 42.4531c47.1064 13.3408 101.908 24.3447 164.407 33.0078
c-1.26855 -24.6709 -4.12891 -49.8252 -8.58203 -75.4609c43.0664 14.4639 95.6006 28.6152 157.606 42.4531c62.0049 13.8359 134.516 25.1572 217.535 33.9619c83.0186 8.80371 177.972 13.208 284.858 13.208v24.5273zM1374.16 328.173
c-106.368 0 -201.061 4.40332 -284.08 13.208s-155.66 20.126 -217.925 33.9619c-62.2637 13.8369 -114.929 27.9883 -157.995 42.4531c4.77246 -24.583 7.71582 -49.7197 8.83008 -75.4102c-62.3545 8.65527 -117.138 19.6416 -164.349 32.957
c-49.0566 13.8369 -90.5508 27.9883 -124.481 42.4531c4.90527 -32.0762 7.3584 -65.0947 7.3584 -99.0566s-2.45312 -68.8682 -7.3584 -104.717c33.9307 14.4639 75.3223 28.6152 124.175 42.4531c47.1064 13.3408 101.908 24.3447 164.407 33.0078
c-1.26855 -24.6709 -4.12891 -49.8252 -8.58203 -75.4609c43.0664 14.4639 95.6006 28.6152 157.606 42.4531c62.0049 13.8359 134.516 25.1572 217.535 33.9619c83.0186 8.80371 177.972 13.208 284.858 13.208v24.5273zM386.4 702
c-80 -85.8662 -145.601 -157.866 -196.801 -216c-51.1992 -58.1338 -94.3994 -103.2 -129.6 -135.2c32.5332 -32.5332 65.0664 -66.3994 97.5996 -101.6c32.5342 -35.2002 67.334 -73.334 104.4 -114.4s78.5332 -86.1338 124.4 -135.2l16.7998 12
c-43.7334 69.8672 -81.2002 134 -112.4 192.4s-56.9336 107.334 -77.2002 146.8c17.0664 33.6006 41.6006 80.1338 73.6006 139.601c32 59.4658 70.666 126 116 199.6z" />
</svg>
