<?xml version="1.0" standalone="no"?>
<!DOCTYPE svg PUBLIC "-//W3C//DTD SVG 1.1//EN" "http://www.w3.org/Graphics/SVG/1.1/DTD/svg11.dtd" >
<svg xmlns="http://www.w3.org/2000/svg" xmlns:xlink="http://www.w3.org/1999/xlink" version="1.1" viewBox="0 0 1806 848">
   <path fill="currentColor"
d="M1778.24 331.689c-40.4561 -40.4561 -79.584 -73.3574 -117.386 -98.707c-37.8008 -25.3496 -73.4346 -44.9717 -106.899 -58.8701c-33.4658 -13.8965 -63.5029 -23.9209 -90.1104 -30.0723c25.0488 -20.3135 49.5811 -42.4766 73.5957 -66.4912
c24.0146 -24.0156 47.5127 -49.8818 70.4932 -77.5986c6.15234 26.6074 16.127 56.5947 29.9258 89.9629c13.7988 33.3662 33.3721 68.9502 58.7217 106.751s58.3496 77.0293 99.0029 117.683zM1289.97 819.959c-40.4561 -40.4561 -79.585 -73.3574 -117.386 -98.707
c-37.8018 -25.3496 -73.4355 -44.9727 -106.9 -58.8701s-63.5029 -23.9219 -90.1104 -30.0732c25.0498 -20.3135 49.5811 -42.4766 73.5957 -66.4912c20.1299 -20.1299 39.8965 -41.5615 59.3008 -64.292c-32.7627 -30.9209 -64.6338 -56.7676 -95.6133 -77.543
c-37.8008 -25.3496 -73.4346 -44.9727 -106.899 -58.8701c-33.4658 -13.8965 -63.5029 -23.9209 -90.1104 -30.0723c25.0488 -20.3135 49.5811 -42.4775 73.5957 -66.4922s47.5127 -49.8809 70.4941 -77.5977c6.15137 26.6064 16.126 56.5947 29.9248 89.9629
c13.7988 33.3652 33.373 68.9502 58.7217 106.751c25.3496 37.8008 58.3496 77.0293 99.0029 117.682l-17.3438 17.3438c-0.520508 -0.520508 -1.04199 -1.04102 -1.5625 -1.55957c5.55957 17.7705 12.5293 36.7881 20.9082 57.0518
c13.7988 33.3662 33.373 68.9512 58.7217 106.752c25.3506 37.7998 58.3506 77.0283 99.0039 117.682zM1452.61 657.324c-40.4561 -40.457 -79.585 -73.3574 -117.386 -98.707c-37.8018 -25.3496 -73.4346 -44.9727 -106.899 -58.8701
c-33.4658 -13.8975 -63.5029 -23.9219 -90.1104 -30.0732c25.0488 -20.3135 49.5811 -42.4766 73.5957 -66.4912s47.5127 -49.8818 70.4932 -77.5986c6.15234 26.6074 16.127 56.5947 29.9258 89.9629c13.7988 33.3662 33.3721 68.9512 58.7217 106.751
c25.3496 37.8008 58.3496 77.0293 99.0029 117.683zM1615.24 494.689c-40.4561 -40.4561 -79.584 -73.3574 -117.386 -98.707c-37.8008 -25.3496 -73.4346 -44.9727 -106.899 -58.8701c-33.4658 -13.8965 -63.5029 -23.9219 -90.1104 -30.0723
c25.0488 -20.3135 49.5811 -42.4775 73.5957 -66.4922s47.5127 -49.8809 70.4932 -77.5977c6.15234 26.6064 16.127 56.5947 29.9258 89.9629c13.7988 33.3652 33.3721 68.9502 58.7217 106.751s58.3496 77.0293 99.0029 117.682zM804.976 847.959
c-40.4561 -40.4561 -79.585 -73.3574 -117.386 -98.707c-37.8018 -25.3496 -73.4355 -44.9727 -106.899 -58.8701c-33.4658 -13.8975 -63.5029 -23.9219 -90.1113 -30.0732c25.0498 -20.3135 49.5811 -42.4766 73.5957 -66.4912
c1.19922 -1.19922 2.39844 -2.4043 3.59473 -3.61328c-78.8506 0.410156 -149.38 4.80273 -211.591 13.1768c-65.4082 8.80469 -122.641 20.126 -171.697 33.9619c-49.0566 13.8369 -90.5508 27.9883 -124.481 42.4531c4.90527 -32.0762 7.3584 -65.0947 7.3584 -99.0566
s-2.45312 -68.8682 -7.3584 -104.717c33.9307 14.4639 75.3223 28.6152 124.175 42.4531c48.8525 13.8359 105.982 25.1572 171.391 33.9619c65.4092 8.80371 140.221 13.208 224.435 13.208v12.001c18.5371 -19.3516 36.7607 -39.8281 54.6689 -61.4268
c6.15234 26.6064 16.127 56.5947 29.9248 89.9619c13.7988 33.3662 33.373 68.9512 58.7217 106.752c25.3506 37.7998 58.3506 77.0283 99.0039 117.682zM967.609 685.324c-40.4561 -40.457 -79.585 -73.3574 -117.386 -98.707
c-37.8018 -25.3496 -73.4346 -44.9727 -106.899 -58.8701c-33.4658 -13.8975 -63.5029 -23.9219 -90.1104 -30.0732c22.124 -17.9424 43.8457 -37.3271 65.1641 -58.1562c-22.4824 -19.4326 -44.5303 -36.3965 -66.1445 -50.8906
c-28.3975 -19.0439 -55.5723 -34.8555 -81.5225 -47.4355c-80.04 0.314453 -151.549 4.71094 -214.532 13.1895c-65.4082 8.80469 -122.641 20.126 -171.697 33.9619c-49.0566 13.8369 -90.5508 27.9883 -124.481 42.4531c4.90527 -32.0762 7.3584 -65.0947 7.3584 -99.0566
s-2.45312 -68.8682 -7.3584 -104.717c33.9307 14.4639 75.3223 28.6152 124.175 42.4531c48.8525 13.8359 105.982 25.1572 171.391 33.9619c46.2568 6.22559 97.2168 10.252 152.879 12.0752c-19.0479 -6.75293 -36.7881 -12.0293 -53.2207 -15.8281
c25.0488 -20.3135 49.5811 -42.4775 73.5957 -66.4922s47.5127 -49.8809 70.4941 -77.5977c6.15137 26.6074 16.126 56.5947 29.9248 89.9629c13.7988 33.3662 33.373 68.9502 58.7217 106.751c14.5273 21.6631 31.5674 43.7949 51.1211 66.3955
c19.7627 -20.4346 39.1699 -42.1416 58.2217 -65.1201c6.15234 26.6074 16.127 56.5947 29.9258 89.9629c13.7988 33.3662 33.3721 68.9512 58.7207 106.751c25.3506 37.8008 58.3506 77.0293 99.0039 117.683z" />
</svg>
