<?xml version="1.0" standalone="no"?>
<!DOCTYPE svg PUBLIC "-//W3C//DTD SVG 1.1//EN" "http://www.w3.org/Graphics/SVG/1.1/DTD/svg11.dtd" >
<svg xmlns="http://www.w3.org/2000/svg" xmlns:xlink="http://www.w3.org/1999/xlink" version="1.1" viewBox="0 0 1321 762">
   <path fill="currentColor"
d="M1310.05 113.173c-128.932 0 -243.71 4.40332 -344.34 13.208c-100.629 8.80469 -188.679 20.126 -264.15 33.9619c-75.4717 13.8369 -139.309 27.9883 -191.51 42.4531c7.54688 -32.0762 11.3213 -65.0947 11.3213 -99.0566s-3.77441 -68.8682 -11.3213 -104.717
c52.2012 14.4639 115.88 28.6152 191.038 42.4531c75.1572 13.8359 163.05 25.1572 263.679 33.9619c100.629 8.80371 215.724 13.208 345.283 13.208v24.5273zM585 343.173c-83.8057 0 -158.411 4.40332 -223.821 13.208
c-65.4082 8.80469 -122.641 20.126 -171.697 33.9619c-49.0566 13.8369 -90.5508 27.9883 -124.481 42.4531c4.90527 -32.0762 7.3584 -65.0947 7.3584 -99.0566s-2.45312 -68.8682 -7.3584 -104.717c33.9307 14.4639 75.3223 28.6152 124.175 42.4531
c48.8525 13.8359 105.982 25.1572 171.391 33.9619c65.4092 8.80371 140.221 13.208 224.435 13.208v24.5273zM881.159 537.713c-8.7959 -65.2148 -20.0967 -122.291 -33.8994 -171.231c-13.8369 -49.0566 -27.9883 -90.5508 -42.4531 -124.481
c32.0762 4.90527 65.0947 7.3584 99.0566 7.3584s68.8682 -2.45312 104.717 -7.3584c-14.4639 33.9307 -28.6152 75.3223 -42.4531 124.175c-13.8359 48.8525 -25.1572 105.982 -33.9619 171.391c-0.125977 0.938477 -0.251953 1.87891 -0.375977 2.82227
c113.879 5.50391 239.968 8.25781 378.265 8.25781v24.5273c-140.042 0 -267.715 2.85059 -383.022 8.5498c-5.38184 54.3457 -8.07422 114.438 -8.07422 180.277h-24.5273c0 -64.8916 -2.63965 -124.267 -7.91895 -178.128
c-13.9629 0.791992 -27.7344 1.62891 -41.3154 2.50879c-135.85 8.80469 -254.717 20.126 -356.604 33.9619c-101.887 13.8369 -188.066 27.9883 -258.538 42.4531c10.1885 -32.0762 15.2842 -65.0947 15.2842 -99.0566s-5.0957 -68.8682 -15.2842 -104.717
c70.4717 14.4639 156.438 28.6152 257.901 42.4531c101.462 13.8359 220.117 25.1572 355.966 33.9619c12.2539 0.793945 24.666 1.55273 37.2383 2.27539z" />
</svg>
