<?xml version="1.0" standalone="no"?>
<!DOCTYPE svg PUBLIC "-//W3C//DTD SVG 1.1//EN" "http://www.w3.org/Graphics/SVG/1.1/DTD/svg11.dtd" >
<svg xmlns="http://www.w3.org/2000/svg" xmlns:xlink="http://www.w3.org/1999/xlink" version="1.1" viewBox="0 0 1321 762">
   <path fill="currentColor"
d="M585 343.173c-83.8057 0 -158.411 4.40332 -223.821 13.208c-65.4082 8.80469 -122.641 20.126 -171.697 33.9619c-49.0566 13.8369 -90.5508 27.9883 -124.481 42.4531c4.90527 -32.0762 7.3584 -65.0947 7.3584 -99.0566s-2.45312 -68.8682 -7.3584 -104.717
c33.9307 14.4639 75.3223 28.6152 124.175 42.4531c48.8525 13.8359 105.982 25.1572 171.391 33.9619c65.4092 8.80371 140.221 13.208 224.435 13.208v24.5273zM1310.05 113.173c-128.932 0 -243.71 4.40332 -344.34 13.208
c-100.629 8.80469 -188.679 20.126 -264.15 33.9619c-75.4717 13.8369 -139.309 27.9883 -191.51 42.4531c7.54688 -32.0762 11.3213 -65.0947 11.3213 -99.0566s-3.77441 -68.8682 -11.3213 -104.717c52.2012 14.4639 115.88 28.6152 191.038 42.4531
c75.1572 13.8359 163.05 25.1572 263.679 33.9619c100.629 8.80371 215.724 13.208 345.283 13.208v24.5273zM1112.32 546.593c-0.359375 -2.82129 -0.726562 -5.62598 -1.10156 -8.41406c-8.80469 -65.4082 -20.126 -122.641 -33.9619 -171.697
c-13.8369 -49.0566 -27.9883 -90.5508 -42.4531 -124.481c32.0762 4.90527 65.0947 7.3584 99.0566 7.3584s68.8682 -2.45312 104.717 -7.3584c-14.4639 33.9307 -28.6152 75.3223 -42.4531 124.175c-13.8359 48.8525 -25.1572 105.982 -33.9619 171.391
c-0.442383 3.28906 -0.874023 6.60156 -1.29492 9.93848c48.041 0.760742 97.7686 1.1416 149.184 1.1416v24.5273c-52.4961 0 -103.255 0.400391 -152.275 1.20117c-5.87988 56.2627 -8.82129 118.805 -8.82129 187.626h-24.5273
c0 -68.4053 -2.93359 -130.681 -8.7998 -186.829c-66.167 1.42383 -129.033 3.60742 -188.599 6.55176c-5.38184 54.3457 -8.07422 114.438 -8.07422 180.277h-24.5273c0 -64.8916 -2.63965 -124.267 -7.91895 -178.128
c-13.9629 0.791992 -27.7344 1.62891 -41.3154 2.50879c-52.4131 3.39648 -102.297 7.16895 -149.654 11.3145c-4.38867 50.082 -6.58398 104.851 -6.58398 164.305h-24.5273c0 -58.0459 -2.1123 -111.678 -6.33691 -160.898
c-60.9346 5.75684 -117.435 12.1709 -169.501 19.2412c-101.887 13.8369 -188.066 27.9883 -258.538 42.4531c10.1885 -32.0762 15.2842 -65.0947 15.2842 -99.0566s-5.0957 -68.8682 -15.2842 -104.717c70.4717 14.4639 156.438 28.6152 257.901 42.4531
c49.4814 6.74805 103.053 12.8975 160.713 18.4482c-8.4043 -57.8564 -18.875 -109.004 -31.4082 -153.442c-13.8369 -49.0566 -27.9883 -90.5508 -42.4531 -124.481c32.0762 4.90527 65.0947 7.3584 99.0566 7.3584s68.8682 -2.45312 104.717 -7.3584
c-14.4639 33.9307 -28.6152 75.3223 -42.4531 124.175c-12.9395 45.6865 -23.6787 98.6113 -32.2178 158.777c44.4424 3.82129 91.1133 7.31641 140.012 10.4854c12.2539 0.793945 24.666 1.55273 37.2383 2.27539c-8.7959 -65.2148 -20.0967 -122.291 -33.8994 -171.231
c-13.8369 -49.0566 -27.9883 -90.5508 -42.4531 -124.481c32.0762 4.90527 65.0947 7.3584 99.0566 7.3584s68.8682 -2.45312 104.717 -7.3584c-14.4639 33.9307 -28.6152 75.3223 -42.4531 124.175c-13.8359 48.8525 -25.1572 105.982 -33.9619 171.391
c-0.125977 0.938477 -0.251953 1.87891 -0.375977 2.82227c57.1074 2.75977 117.286 4.8291 180.534 6.20508z" />
</svg>
