<?xml version="1.0" standalone="no"?>
<!DOCTYPE svg PUBLIC "-//W3C//DTD SVG 1.1//EN" "http://www.w3.org/Graphics/SVG/1.1/DTD/svg11.dtd" >
<svg xmlns="http://www.w3.org/2000/svg" xmlns:xlink="http://www.w3.org/1999/xlink" version="1.1" viewBox="0 0 1494 800">
   <path fill="currentColor"
d="M1039.55 800c0 -96.6992 -3.30273 -182.782 -9.90625 -258.255c-6.60352 -75.4717 -15.0947 -141.509 -25.4717 -198.112c-10.3779 -56.6045 -20.9912 -104.482 -31.8398 -143.633c24.0576 5.66016 48.8213 8.49121 74.293 8.49121s51.6514 -2.83105 78.5371 -8.49121
c-10.8477 39.1504 -21.4609 86.9102 -31.8398 143.278c-10.377 56.3682 -18.8682 122.288 -25.4717 197.759c-6.60254 75.4727 -9.90527 161.793 -9.90527 258.963h-18.3955zM1212.05 800c0 -62.8545 -3.30273 -118.809 -9.90625 -167.866
c-6.60352 -49.0557 -15.0947 -91.9805 -25.4717 -128.772c-10.3779 -36.793 -20.9912 -67.9131 -31.8398 -93.3613c21.2881 3.25488 43.1289 5.07031 65.5244 5.44531c-1.60156 -22.8857 -4.33984 -44.1504 -8.21289 -63.7959
c-6.60352 -33.4912 -15.0947 -62.7949 -25.4717 -87.9131c-10.3779 -25.1172 -20.9912 -46.3633 -31.8398 -63.7363c24.0576 2.51172 48.8213 3.76758 74.293 3.76758s51.6514 -1.25586 78.5371 -3.76758c-10.8477 17.373 -21.4609 38.5664 -31.8398 63.5801
c-10.377 25.0127 -18.8682 54.2656 -25.4717 87.7549c-3.87988 19.6797 -6.62012 41.0215 -8.2207 64.0254c21.3564 -0.517578 43.2012 -2.30469 65.5322 -5.36035c-10.8477 25.4482 -21.4609 56.4922 -31.8398 93.1309c-10.377 36.6396 -18.8682 79.4873 -25.4717 128.543
c-6.60254 49.0566 -9.90527 105.166 -9.90527 168.326h-18.3955zM1369.43 800c0 -128.932 -4.40332 -243.71 -13.208 -344.34c-8.80469 -100.629 -20.126 -188.679 -33.9619 -264.15c-13.8369 -75.4717 -27.9883 -139.309 -42.4531 -191.51
c32.0762 7.54688 65.0947 11.3213 99.0566 11.3213s68.8682 -3.77441 104.717 -11.3213c-14.4639 52.2012 -28.6152 115.88 -42.4531 191.038c-13.8359 75.1572 -25.1572 163.05 -33.9619 263.679c-8.80371 100.629 -13.208 215.724 -13.208 345.283h-24.5273zM448.964 355
c0 -57.2139 -4.40332 -108.146 -13.208 -152.801s-20.126 -83.7266 -33.9619 -117.217c-13.8369 -33.4902 -27.9883 -61.8184 -42.4531 -84.9824c32.0762 3.34863 65.0947 5.02344 99.0566 5.02344s68.8682 -1.6748 104.717 -5.02344
c-14.4639 23.1641 -28.6152 51.4219 -42.4531 84.7734c-13.8359 33.3506 -25.1572 72.3535 -33.9619 117.007c-8.80371 44.6543 -13.208 95.7275 -13.208 153.22h-24.5273zM678.964 355c0 -57.2139 -4.40332 -108.146 -13.208 -152.801s-20.126 -83.7266 -33.9619 -117.217
c-13.8369 -33.4902 -27.9883 -61.8184 -42.4531 -84.9824c32.0762 3.34863 65.0947 5.02344 99.0566 5.02344s68.8682 -1.6748 104.717 -5.02344c-14.4639 23.1641 -28.6152 51.4219 -42.4531 84.7734c-13.8359 33.3506 -25.1572 72.3535 -33.9619 117.007
c-8.80371 44.6543 -13.208 95.7275 -13.208 153.22h-24.5273zM908.964 355c0 -57.2139 -4.40332 -108.146 -13.208 -152.801s-20.126 -83.7266 -33.9619 -117.217c-13.8369 -33.4902 -27.9883 -61.8184 -42.4531 -84.9824c32.0762 3.34863 65.0947 5.02344 99.0566 5.02344
s68.8682 -1.6748 104.717 -5.02344c-14.4639 23.1641 -28.6152 51.4219 -42.4531 84.7734c-13.8359 33.3506 -25.1572 72.3535 -33.9619 117.007c-8.80371 44.6543 -13.208 95.7275 -13.208 153.22h-24.5273zM673.309 800c0 -71.2344 -9.52148 -134.649 -28.5605 -190.248
c-17.1631 -50.1162 -38.7461 -94.584 -64.748 -133.405v14.8262c-83.8057 0 -158.411 4.40332 -223.821 13.208c-65.4082 8.80469 -122.641 20.126 -171.697 33.9619c-49.0566 13.8369 -90.5508 27.9883 -124.481 42.4531c4.90527 -32.0762 7.3584 -65.0947 7.3584 -99.0566
s-2.45312 -68.8682 -7.3584 -104.717c33.9307 14.4639 75.3223 28.6152 124.175 42.4531c48.8525 13.8359 105.982 25.1572 171.391 33.9619c63.6748 8.57031 136.26 12.9717 217.756 13.1982c-0.667969 -0.945312 -1.33887 -1.8877 -2.0127 -2.82617
c-29.9209 -41.6982 -60.5225 -76.9688 -91.8008 -105.81c69.3613 4.16992 140.761 6.25488 214.2 6.25488s148.92 -2.08496 226.439 -6.25488c-31.2764 28.8408 -61.8779 64.0234 -91.8008 105.549c-29.9189 41.5244 -54.3994 90.085 -73.4395 145.683
c-19.0371 55.5967 -28.5605 119.187 -28.5605 190.769h-53.0381z" />
</svg>
