<?xml version="1.0" standalone="no"?>
<!DOCTYPE svg PUBLIC "-//W3C//DTD SVG 1.1//EN" "http://www.w3.org/Graphics/SVG/1.1/DTD/svg11.dtd" >
<svg xmlns="http://www.w3.org/2000/svg" xmlns:xlink="http://www.w3.org/1999/xlink" version="1.1" viewBox="0 0 2571 1036">
   <path fill="currentColor"
d="M2049.43 784.462c-40.457 -40.4561 -79.585 -73.3574 -117.386 -98.707c-37.8018 -25.3496 -73.4355 -44.9717 -106.9 -58.8701c-10.3379 -4.29297 -20.3496 -8.2168 -30.0332 -11.7705v6.05859c-83.8057 0 -158.411 4.40332 -223.821 13.208
c-65.4082 8.80469 -122.641 20.126 -171.697 33.9619c-49.0566 13.8369 -90.5508 27.9883 -124.481 42.4531c4.90527 -32.0762 7.3584 -65.0947 7.3584 -99.0566c0 -30.625 -1.99512 -62.0176 -5.9834 -94.1768c-56.2441 -60.4736 -102.672 -111.494 -139.282 -153.062
c-29.7832 -33.8184 -55.958 -61.7402 -78.5234 -83.7666c-97.6768 0.556641 -185.208 4.94043 -262.596 13.1475c-83.0195 8.80469 -155.66 20.126 -217.925 33.9619c-62.2637 13.8369 -114.929 27.9883 -157.995 42.4531
c6.22656 -32.0762 9.33984 -65.0947 9.33984 -99.0566s-3.11328 -68.8682 -9.33984 -104.717c43.0664 14.4639 95.6006 28.6152 157.606 42.4531c62.0049 13.8359 134.516 25.1572 217.535 33.9619c74.3506 7.88477 158.273 12.2402 251.769 13.0645
c22.0439 -22.2178 44.0859 -45.251 66.1289 -69.1016c24.4014 -26.4004 50.501 -55.001 78.3008 -85.8008s58.9004 -64.5996 93.3008 -101.4l12.5996 9c-32.8008 52.4004 -60.9004 100.5 -84.3008 144.301s-42.7002 80.5 -57.9004 110.1
c12.8008 25.2012 31.2012 60.1006 55.2012 104.701c17.6621 32.8203 38.0303 68.5117 61.1074 107.074c6.64844 -30.2148 9.97363 -61.2598 9.97363 -93.1357c0 -33.9619 -3.77441 -68.8682 -11.3213 -104.717c52.2012 14.4639 115.88 28.6152 191.038 42.4531
c75.1572 13.8359 163.05 25.1572 263.679 33.9619c74.7764 6.54199 157.54 10.6543 248.291 12.3359c23.3516 -23.4736 46.2139 -48.7031 68.5859 -75.6855c5.31641 22.9941 13.4883 48.5127 24.5156 76.5566c1.29492 0 2.5918 0.000976562 3.89062 0.000976562v9.70898
c0.500977 1.22754 1.00684 2.45898 1.51855 3.69629c13.7988 33.3662 33.373 68.9502 58.7217 106.751c25.3506 37.8008 58.3506 77.0293 99.0029 117.683l-17.3428 17.3428c-40.457 -40.4561 -79.585 -73.3574 -117.387 -98.707
c-37.8008 -25.3486 -73.4346 -44.9717 -106.899 -58.8701c-33.4648 -13.8965 -63.5029 -23.9209 -90.1104 -30.0723c16.123 -13.0752 32.0312 -26.916 47.7256 -41.5234c-79.4492 1.96094 -152.639 5.87012 -219.569 11.7266
c-100.629 8.80469 -188.679 20.126 -264.15 33.9619c-73.458 13.4678 -135.894 27.2334 -187.306 41.2959c7.04492 11.7305 14.3369 23.7236 21.877 35.9785c29.5586 11.4873 63.9053 22.7734 103.04 33.8584c48.8525 13.8359 105.982 25.1572 171.391 33.9619
c49.7305 6.69336 104.896 10.8438 165.497 12.4492c24.6543 -20.0605 48.8057 -41.915 72.4561 -65.5664c24.0146 -24.0146 47.5127 -49.8809 70.4941 -77.5977c6.15234 26.6074 16.127 56.5947 29.9248 89.9629c13.7988 33.3662 33.373 68.9502 58.7217 106.751
c25.3506 37.8008 58.3506 77.0293 99.0029 117.683zM2374.69 459.193c-40.4561 -40.457 -79.584 -73.3574 -117.386 -98.707c-37.8008 -25.3496 -73.4346 -44.9727 -106.899 -58.8701s-63.5029 -23.9219 -90.1104 -30.0732
c25.0488 -20.3135 49.5811 -42.4766 73.5957 -66.4912s47.5127 -49.8818 70.4941 -77.5986c6.15137 26.6074 16.126 56.5947 29.9248 89.9629c13.7988 33.3662 33.373 68.9512 58.7217 106.751c25.3496 37.8008 58.3496 77.0293 99.0029 117.683zM2522.72 940.489
c-50.3701 -50.3701 -101.944 -88.4785 -154.721 -114.33c-52.7773 -25.8506 -104.486 -42.9395 -155.127 -51.2676c-50.6416 -8.32812 -97.2207 -11.6299 -139.731 -9.90625c51.9951 -46.0967 103.956 -95.1094 155.886 -147.039s103.828 -106.776 155.693 -164.54
c-1.72168 42.5098 1.51758 89.0254 9.72168 139.547c8.20605 50.5186 25.2334 102.166 51.084 154.943c25.8516 52.7744 64.082 104.473 114.698 155.089zM2350.16 851.173c-174.058 0 -329.009 4.40332 -464.858 13.208s-254.717 20.126 -356.604 33.9619
c-101.887 13.8369 -188.066 27.9883 -258.538 42.4531c10.1885 -32.0762 15.2842 -65.0947 15.2842 -99.0566s-5.0957 -68.8682 -15.2842 -104.717c70.4717 14.4639 156.438 28.6152 257.901 42.4531c101.462 13.8359 220.117 25.1572 355.966 33.9619
c135.85 8.80371 291.228 13.208 466.133 13.208v24.5273zM386.4 900c-80 -85.8662 -145.601 -157.866 -196.801 -216c-51.1992 -58.1338 -94.3994 -103.2 -129.6 -135.2c32.5332 -32.5332 65.0664 -66.3994 97.5996 -101.6c32.5342 -35.2002 67.334 -73.334 104.4 -114.4
s78.5332 -86.1338 124.4 -135.2l16.7998 12c-43.7334 69.8672 -81.2002 134 -112.4 192.4s-56.9336 107.334 -77.2002 146.8c17.0664 33.6006 41.6006 80.1338 73.6006 139.601c32 59.4658 70.666 126 116 199.6zM1220.16 946.173
c-128.932 0 -243.71 4.40332 -344.34 13.208c-100.629 8.80469 -188.679 20.126 -264.15 33.9619c-75.4717 13.8369 -139.309 27.9883 -191.51 42.4531c7.54688 -32.0762 11.3213 -65.0947 11.3213 -99.0566s-3.77441 -68.8682 -11.3213 -104.717
c52.2012 14.4639 115.88 28.6152 191.038 42.4531c75.1572 13.8359 163.05 25.1572 263.679 33.9619c100.629 8.80371 215.724 13.208 345.283 13.208v24.5273z" />
</svg>
