<?xml version="1.0" standalone="no"?>
<!DOCTYPE svg PUBLIC "-//W3C//DTD SVG 1.1//EN" "http://www.w3.org/Graphics/SVG/1.1/DTD/svg11.dtd" >
<svg xmlns="http://www.w3.org/2000/svg" xmlns:xlink="http://www.w3.org/1999/xlink" version="1.1" viewBox="0 0 2263 898">
   <path fill="currentColor"
d="M2253 151.173c-174.058 0 -329.009 4.40332 -464.858 13.208s-254.717 20.126 -356.604 33.9619c-101.887 13.8369 -188.066 27.9883 -258.538 42.4531c10.1885 -32.0762 15.2842 -65.0947 15.2842 -99.0566s-5.0957 -68.8682 -15.2842 -104.717
c70.4717 14.4639 156.438 28.6152 257.901 42.4531c101.462 13.8359 220.117 25.1572 355.966 33.9619c135.85 8.80371 291.228 13.208 466.133 13.208v24.5273zM1140 809.173c-174.058 0 -329.009 4.40332 -464.858 13.208s-254.717 20.126 -356.604 33.9619
c-101.887 13.8369 -188.066 27.9883 -258.538 42.4531c10.1885 -32.0762 15.2842 -65.0947 15.2842 -99.0566c0 -32.8965 -4.78125 -66.6787 -14.3398 -101.345c-0.31543 0.133789 -0.629883 0.267578 -0.944336 0.401367
c0.125 -0.819336 0.249023 -1.63965 0.371094 -2.45996c-0.123047 -0.4375 -0.24707 -0.875977 -0.371094 -1.31348c0.182617 0.0371094 0.365234 0.0751953 0.548828 0.112305c4.53906 -30.9258 6.80957 -62.7246 6.80957 -95.3955
c0 -33.9619 -2.45312 -68.8682 -7.3584 -104.717c33.9307 14.4639 75.3223 28.6152 124.175 42.4531c48.8525 13.8359 105.982 25.1572 171.391 33.9619c48.666 6.5498 102.538 10.665 161.614 12.3428c-0.621094 -27.7764 -2.85352 -56.1729 -6.69922 -85.1895
l-0.480469 0.205078c0.0908203 -0.59375 0.180664 -1.18848 0.269531 -1.7832c-0.0888672 -0.663086 -0.178711 -1.32617 -0.269531 -1.99023c0.176758 0.0751953 0.354492 0.151367 0.532227 0.226562c4.55078 -30.9619 6.82617 -62.7988 6.82617 -95.5098
c0 -32.834 -2.29297 -66.5508 -6.87793 -101.148l-0.480469 0.205078c0.0908203 -0.59375 0.180664 -1.18848 0.269531 -1.7832c-0.0888672 -0.663086 -0.178711 -1.32617 -0.269531 -1.99023c0.176758 0.0751953 0.354492 0.151367 0.532227 0.226562
c4.55078 -30.9619 6.82617 -62.7988 6.82617 -95.5098c0 -33.9619 -2.45312 -68.8682 -7.3584 -104.717c33.9307 14.4639 75.3223 28.6152 124.175 42.4531c48.8525 13.8359 105.982 25.1572 171.391 33.9619c55.3926 7.45508 117.528 11.7559 186.408 12.8984
c-4.55469 -21.1465 -9.47754 -41.0986 -14.7676 -59.8545c-13.8369 -49.0566 -27.9883 -90.5508 -42.4531 -124.481c32.0762 4.90527 65.0947 7.3584 99.0566 7.3584s68.8682 -2.45312 104.717 -7.3584c-14.4639 33.9307 -28.6152 75.3223 -42.4531 124.175
c-13.2109 46.6455 -24.1289 100.837 -32.7529 162.576c24.5898 -1.00488 49.6582 -3.25488 75.2061 -6.75098c-14.4639 33.9307 -28.6152 75.3223 -42.4531 124.175c-13.8359 48.8525 -25.1572 105.982 -33.9619 171.391c-8.25 61.2979 -12.6367 130.854 -13.1562 208.666
c29.7363 0.276367 60.085 0.414062 91.0449 0.414062v24.5273zM1964.95 582.086c-0.256836 -1.97754 -0.516602 -3.94629 -0.780273 -5.90723c-8.80469 -65.4082 -20.126 -122.641 -33.9619 -171.697c-13.8369 -49.0566 -27.9883 -90.5508 -42.4531 -124.481
c32.0762 4.90527 65.0947 7.3584 99.0566 7.3584s68.8682 -2.45312 104.717 -7.3584c-14.4639 33.9307 -28.6152 75.3223 -42.4531 124.175c-13.8359 48.8525 -25.1572 105.982 -33.9619 171.391c-0.357422 2.6582 -0.708008 5.33203 -1.05176 8.02051
c75.125 2.04004 154.771 3.05957 238.94 3.05957v24.5273c-85.4297 0 -166.256 1.06055 -242.48 3.18164c-5.74316 55.749 -8.61621 117.631 -8.61621 185.646h-24.5273c0 -67.4053 -2.84863 -128.859 -8.54492 -184.364
c-63.5791 2.14355 -123.809 5.05859 -180.689 8.74512c-2.89844 0.1875 -5.78906 0.376953 -8.67188 0.567383c-5.04395 52.9648 -7.56641 111.315 -7.56641 175.052h-24.5273c0 -62.5771 -2.45508 -120.024 -7.36426 -172.344
c-68.7041 4.90527 -132.791 10.4941 -192.263 16.7666c-3.89648 47.6982 -5.8457 99.5576 -5.8457 155.577h-24.5273c0 -54.4258 -1.85742 -104.972 -5.57129 -151.639c-27.834 3.16699 -54.5898 6.49414 -80.2666 9.98145
c-101.887 13.8369 -188.066 27.9883 -258.538 42.4531c10.1885 -32.0762 15.2842 -65.0947 15.2842 -99.0566s-5.0957 -68.8682 -15.2842 -104.717c70.4717 14.4639 156.438 28.6152 257.901 42.4531c22.2637 3.03613 45.3555 5.95117 69.2744 8.74512
c-8.15137 -53.8887 -18.1416 -101.802 -29.9697 -143.739c-13.8369 -49.0566 -27.9883 -90.5508 -42.4531 -124.481c32.0762 4.90527 65.0947 7.3584 99.0566 7.3584s68.8682 -2.45312 104.717 -7.3584c-14.4639 33.9307 -28.6152 75.3223 -42.4531 124.175
c-12.3359 43.5547 -22.6719 93.6895 -31.0088 150.404c54.5381 5.62988 112.948 10.6943 175.229 15.1914c-8.67578 -62.7451 -19.7061 -117.841 -33.0879 -165.289c-13.8369 -49.0566 -27.9883 -90.5508 -42.4531 -124.481c32.0762 4.90527 65.0947 7.3584 99.0566 7.3584
s68.8682 -2.45312 104.717 -7.3584c-14.4639 33.9307 -28.6152 75.3223 -42.4531 124.175c-13.6787 48.2988 -24.9004 104.688 -33.6611 169.168c0.484375 0.0322266 0.969727 0.0634766 1.45508 0.0947266c56.0371 3.63184 115.397 6.51465 178.081 8.64844z
M514.473 496.909c33.0752 13.8086 72.9756 27.3311 119.702 40.5664c48.8525 13.8359 105.982 25.1572 171.391 33.9619c60.7822 8.18066 129.683 12.5625 206.703 13.1416c-0.359375 -2.81641 -0.725586 -5.61719 -1.10059 -8.40039
c-8.49121 -63.0811 -19.3232 -118.557 -32.4941 -166.429c-63.2539 1.45508 -120.752 5.66602 -172.495 12.6309c-65.4082 8.80469 -122.641 20.126 -171.697 33.9619c-46.9219 13.2344 -86.9248 26.7568 -120.009 40.5664zM517.282 610.043
c-58.7822 1.68066 -112.483 5.79297 -161.104 12.3379c-65.4082 8.80469 -122.641 20.126 -171.697 33.9619c-46.1807 13.0254 -85.6592 26.3301 -118.436 39.9121c69.3242 14.0352 153.275 27.7764 251.855 41.2207c101.462 13.8359 220.117 25.1572 355.966 33.9619
c105.124 6.8125 221.942 10.9902 350.454 12.5322c-0.435547 -63.7217 -3.49121 -121.971 -9.16406 -174.75c-77.7969 0.492188 -147.455 4.87988 -208.979 13.1611c-65.4082 8.80469 -122.641 20.126 -171.697 33.9619c-49.0566 13.8369 -90.5508 27.9883 -124.481 42.4531
c4.4082 -28.8232 6.83594 -58.4072 7.28223 -88.7529zM514.473 296.909c33.0752 13.8086 72.9756 27.3311 119.702 40.5664c48.8525 13.8359 105.982 25.1572 171.391 33.9619c49.7812 6.7002 105.009 10.8525 165.683 12.4541
c-11.9346 -40.1846 -24.0996 -74.8154 -36.4951 -103.892c24.499 3.74707 49.5488 6.0625 75.1484 6.94824c-3.82031 -27.3066 -8.08984 -53.1543 -12.8086 -77.542c-70.5547 1.01367 -134.192 5.33984 -190.914 12.9746c-65.4082 8.80469 -122.641 20.126 -171.697 33.9619
c-46.9219 13.2344 -86.9248 26.7568 -120.009 40.5664z" />
</svg>
