<?xml version="1.0" standalone="no"?>
<!DOCTYPE svg PUBLIC "-//W3C//DTD SVG 1.1//EN" "http://www.w3.org/Graphics/SVG/1.1/DTD/svg11.dtd" >
<svg xmlns="http://www.w3.org/2000/svg" xmlns:xlink="http://www.w3.org/1999/xlink" version="1.1" viewBox="0 0 1764 813">
   <path fill="currentColor"
d="M856.954 493.827c-40.457 -40.4561 -79.585 -73.3574 -117.387 -98.707c-37.8008 -25.3486 -73.4346 -44.9717 -106.899 -58.8701c-33.4648 -13.8965 -63.5029 -23.9209 -90.1104 -30.0723c25.0488 -20.3135 49.5811 -42.4766 73.5957 -66.4912
s47.5127 -49.8818 70.4941 -77.5986c6.15137 26.6074 16.127 56.5947 29.9248 89.9629c13.7988 33.3662 33.373 68.9502 58.7217 106.751c25.3506 37.8008 58.3506 77.0293 99.0029 117.683zM1019.59 331.193c-40.4561 -40.457 -79.584 -73.3574 -117.386 -98.707
c-37.8008 -25.3496 -73.4346 -44.9727 -106.899 -58.8701s-63.5029 -23.9219 -90.1104 -30.0732c25.0488 -20.3135 49.5811 -42.4766 73.5957 -66.4912s47.5127 -49.8818 70.4941 -77.5986c6.15137 26.6074 16.126 56.5947 29.9248 89.9629
c13.7988 33.3662 33.373 68.9512 58.7217 106.751c25.3496 37.8008 58.3496 77.0293 99.0029 117.683zM1167.62 812.489c-50.3701 -50.3701 -101.944 -88.4785 -154.721 -114.33c-52.7773 -25.8506 -104.486 -42.9395 -155.127 -51.2676
c-50.6416 -8.32812 -97.2207 -11.6299 -139.731 -9.90625c51.9951 -46.0967 103.956 -95.1094 155.886 -147.039s103.828 -106.776 155.693 -164.54c-1.72168 42.5098 1.51758 89.0254 9.72168 139.547c8.20605 50.5186 25.2334 102.166 51.084 154.943
c25.8516 52.7744 64.082 104.473 114.698 155.089zM585 574.173c-83.8057 0 -158.411 4.40332 -223.821 13.208c-65.4082 8.80469 -122.641 20.126 -171.697 33.9619c-49.0566 13.8369 -90.5508 27.9883 -124.481 42.4531c4.90527 -32.0762 7.3584 -65.0947 7.3584 -99.0566
s-2.45312 -68.8682 -7.3584 -104.717c33.9307 14.4639 75.3223 28.6152 124.175 42.4531c48.8525 13.8359 105.982 25.1572 171.391 33.9619c60.0459 8.08203 128.016 12.4561 203.909 13.1191c-33.1963 -21.4199 -64.6768 -38.3105 -94.4414 -50.6719
c-33.4648 -13.8965 -63.5029 -23.9209 -90.1104 -30.0723c25.0498 -20.3135 49.5811 -42.4766 73.5957 -66.4922c17.8916 -17.8916 35.4961 -36.8105 52.8135 -56.7568c-52.582 1.92969 -100.966 5.86914 -145.153 11.8174
c-65.4082 8.80469 -122.641 20.126 -171.697 33.9619c-49.0566 13.8369 -90.5508 27.9883 -124.481 42.4531c4.90527 -32.0762 7.3584 -65.0947 7.3584 -99.0566s-2.45312 -68.8682 -7.3584 -104.717c33.9307 14.4639 75.3223 28.6152 124.175 42.4531
c48.8525 13.8359 105.982 25.1572 171.391 33.9619c65.4092 8.80371 140.221 13.208 224.435 13.208v24.5273c-19.0713 0 -37.667 0.228516 -55.7861 0.68457c6.06055 21.3467 14.3008 44.623 24.7236 69.8281c13.7988 33.3662 33.373 68.9502 58.7217 106.751
c25.3506 37.8008 58.3506 77.0293 99.0029 117.683l-17.3428 17.3428c-37.5869 -37.5859 -74.0254 -68.6504 -109.319 -93.1973v10.9082zM1611.39 318.236c-5.72949 -44.8203 -12.1074 -86.3955 -19.1348 -124.727c-13.8369 -75.4717 -27.9883 -139.309 -42.4531 -191.51
c32.0762 7.54688 65.0947 11.3213 99.0566 11.3213s68.8682 -3.77441 104.717 -11.3213c-14.4639 52.2012 -28.6152 115.88 -42.4531 191.038c-13.8359 75.1572 -25.1572 163.05 -33.9619 263.679c-8.80371 100.629 -13.208 215.724 -13.208 345.283h-24.5273
c0 -81.9639 -1.7793 -158.208 -5.33789 -228.734c-75.3564 0.677734 -142.993 5.0498 -202.913 13.1152c-65.4082 8.80469 -122.641 20.126 -171.697 33.9619c-49.0566 13.8369 -90.5508 27.9883 -124.481 42.4531c4.90527 -32.0762 7.3584 -65.0947 7.3584 -99.0566
s-2.45312 -68.8682 -7.3584 -104.717c33.9307 14.4639 75.3223 28.6152 124.175 42.4531c48.8525 13.8359 105.982 25.1572 171.391 33.9619c59.5928 8.02051 126.99 12.3896 202.192 13.1035c-1.81055 -31.4775 -3.98926 -61.7715 -6.53613 -90.8809
c-3.50293 -40.0352 -7.4043 -78.0791 -11.7041 -114.132c-67.542 1.20703 -128.653 5.49121 -183.339 12.8525c-65.4082 8.80469 -122.641 20.126 -171.697 33.9619c-49.0566 13.8369 -90.5508 27.9883 -124.481 42.4531c4.90527 -32.0762 7.3584 -65.0947 7.3584 -99.0566
s-2.45312 -68.8682 -7.3584 -104.717c33.9307 14.4639 75.3223 28.6152 124.175 42.4531c48.8525 13.8359 105.982 25.1572 171.391 33.9619c53.8936 7.25391 114.17 11.5205 180.829 12.7988z" />
</svg>
