<?xml version="1.0" standalone="no"?>
<!DOCTYPE svg PUBLIC "-//W3C//DTD SVG 1.1//EN" "http://www.w3.org/Graphics/SVG/1.1/DTD/svg11.dtd" >
<svg xmlns="http://www.w3.org/2000/svg" xmlns:xlink="http://www.w3.org/1999/xlink" version="1.1" viewBox="0 0 1923 819">
   <path fill="currentColor"
d="M1683.69 818.5c-60 -64.3994 -109.201 -118.399 -147.602 -162c-25.9092 -29.4189 -49.0869 -54.376 -69.5342 -74.8711c-13.8096 1.4082 -27.252 2.99219 -40.3262 4.75195c-65.4082 8.80469 -122.641 20.126 -171.697 33.9619
c-49.0566 13.8369 -90.5508 27.9883 -124.481 42.4531c4.90527 -32.0762 7.3584 -65.0947 7.3584 -99.0566s-2.45312 -68.8682 -7.3584 -104.717c33.9307 14.4639 75.3223 28.6152 124.175 42.4531c48.8525 13.8359 105.982 25.1572 171.391 33.9619
c9.54102 1.28418 19.2822 2.47461 29.2227 3.57129c19.084 -19.4238 38.168 -39.46 57.251 -60.1084c11.5645 -12.5117 23.5098 -25.5166 35.8369 -39.0166c-4.05371 -4.56543 -7.99902 -9.02637 -11.8369 -13.3838c-25.9092 -29.4189 -49.0869 -54.376 -69.5342 -74.8711
c-13.8096 1.4082 -27.252 2.99219 -40.3262 4.75195c-65.4082 8.80469 -122.641 20.126 -171.697 33.9619c-49.0566 13.8369 -90.5508 27.9883 -124.481 42.4531c4.90527 -32.0762 7.3584 -65.0947 7.3584 -99.0566s-2.45312 -68.8682 -7.3584 -104.717
c33.9307 14.4639 75.3223 28.6152 124.175 42.4531c48.8525 13.8359 105.982 25.1572 171.391 33.9619c9.54102 1.28418 19.2822 2.47461 29.2227 3.57129c19.084 -19.4238 38.168 -39.46 57.251 -60.1084c24.4014 -26.4004 50.501 -55.001 78.3008 -85.8008
s58.9004 -64.5996 93.3008 -101.4l12.5996 9c-32.8008 52.4004 -60.9004 100.5 -84.3008 144.301s-42.7002 80.5 -57.9004 110.1c9.1084 17.9307 21.0508 40.7715 35.8281 68.5234c0.157227 -0.174805 0.31543 -0.348633 0.472656 -0.523438
c27.7998 -30.7998 58.9004 -64.5996 93.3008 -101.4l12.5996 9c-31.5244 50.3613 -58.7061 96.75 -81.5479 139.167c22.9004 42.0049 50.082 88.5508 81.5479 139.634l-12.5996 9c-34.9336 -37.4951 -66.2061 -71.4648 -93.8184 -101.909
c-13.7422 25.9795 -25.6699 48.8154 -35.7832 68.5088c12.8008 25.2012 31.2012 60.1006 55.2012 104.701c24 44.5986 52.999 94.5 87 149.699zM1798.43 802c0 -128.932 -4.40332 -243.71 -13.208 -344.34c-8.80469 -100.629 -20.126 -188.679 -33.9619 -264.15
c-13.8369 -75.4717 -27.9883 -139.309 -42.4531 -191.51c32.0762 7.54688 65.0947 11.3213 99.0566 11.3213s68.8682 -3.77441 104.717 -11.3213c-14.4639 52.2012 -28.6152 115.88 -42.4531 191.038c-13.8359 75.1572 -25.1572 163.05 -33.9619 263.679
c-8.80371 100.629 -13.208 215.724 -13.208 345.283h-24.5273zM684.586 661.196c-15.6807 -13.1279 -31.0811 -25.457 -46.1992 -36.9873c-23.915 -18.2412 -46.999 -34.9111 -69.252 -50.0107c-79.4023 0.365234 -150.386 4.76074 -212.956 13.1826
c-65.4082 8.80469 -122.641 20.126 -171.697 33.9619c-49.0566 13.8369 -90.5508 27.9883 -124.481 42.4531c4.90527 -32.0762 7.3584 -65.0947 7.3584 -99.0566s-2.45312 -68.8682 -7.3584 -104.717c33.9307 14.4639 75.3223 28.6152 124.175 42.4531
c48.8525 13.8359 105.982 25.1572 171.391 33.9619c52.335 7.04395 110.688 11.2715 175.062 12.6797c-12.8584 -8.00684 -25.4121 -15.4414 -37.6631 -22.3018c-44.4727 -24.9043 -83.8203 -44.2383 -118.041 -58.0029c26.1504 -19.2129 51.2324 -40.8262 75.2471 -64.8408
c18.1191 -18.1191 35.6309 -37.6055 52.5342 -58.458c-53.1123 1.91113 -101.954 5.86719 -146.525 11.8672c-65.4082 8.80469 -122.641 20.126 -171.697 33.9619c-49.0566 13.8369 -90.5508 27.9883 -124.481 42.4531c4.90527 -32.0762 7.3584 -65.0947 7.3584 -99.0566
s-2.45312 -68.8682 -7.3584 -104.717c33.9307 14.4639 75.3223 28.6152 124.175 42.4531c48.8525 13.8359 105.982 25.1572 171.391 33.9619c62.4834 8.41016 133.547 12.8057 213.191 13.1816c-10.835 -4.95312 -21.2344 -9.43359 -31.1992 -13.4414
c26.1494 -19.2129 51.2324 -40.8262 75.2471 -64.8408s46.9619 -50.4316 68.8428 -79.249c13.7646 34.2207 33.0264 73.4951 57.7861 117.824c24.7598 44.3271 57.1514 92.7295 97.1768 145.206c11.6367 15.2568 24.0986 30.8125 37.3848 46.668
c-11.8135 11.8145 -11.8135 11.8145 -26.7754 26.7754c-15.6807 -13.127 -31.0801 -25.4561 -46.1982 -36.9873c-52.4766 -40.0244 -100.951 -72.4893 -145.423 -97.3936c-27.1035 -15.1777 -52.3027 -28.2861 -75.5986 -39.3262v19.3184
c-17.9365 0 -35.4512 0.202148 -52.5449 0.605469c12.8408 29.2734 29.2891 61.8633 49.3438 97.7686c24.7607 44.3271 57.1523 92.7295 97.1768 145.206c11.6367 15.2568 24.0986 30.8125 37.3857 46.667c-11.8145 11.8145 -11.8145 11.8145 -26.7754 26.7764z
M1009.85 335.927c-15.6807 -13.127 -31.0811 -25.4561 -46.1982 -36.9873c-52.4766 -40.0244 -100.951 -72.4883 -145.424 -97.3936c-44.4717 -24.9043 -83.8193 -44.2383 -118.04 -58.0029c26.1494 -19.2129 51.2324 -40.8252 75.2471 -64.8408
c24.0146 -24.0146 46.9619 -50.4316 68.8428 -79.249c13.7646 34.2207 33.0264 73.4951 57.7852 117.824c24.7607 44.3271 57.1523 92.7295 97.1777 145.206c11.6367 15.2568 24.0986 30.8125 37.3848 46.668zM1162.62 812.489
c-50.3701 -50.3701 -101.944 -88.4785 -154.721 -114.33c-52.7773 -25.8506 -104.486 -42.9395 -155.127 -51.2676c-50.6416 -8.32812 -97.2207 -11.6299 -139.731 -9.90625c51.9951 -46.0967 103.956 -95.1094 155.886 -147.039s103.828 -106.776 155.693 -164.54
c-1.72168 42.5098 1.51758 89.0254 9.72168 139.547c8.20605 50.5186 25.2334 102.166 51.084 154.943c25.8516 52.7744 64.082 104.473 114.698 155.089z" />
</svg>
