<?xml version="1.0" standalone="no"?>
<!DOCTYPE svg PUBLIC "-//W3C//DTD SVG 1.1//EN" "http://www.w3.org/Graphics/SVG/1.1/DTD/svg11.dtd" >
<svg xmlns="http://www.w3.org/2000/svg" xmlns:xlink="http://www.w3.org/1999/xlink" version="1.1" viewBox="0 0 1469 1036">
   <path fill="currentColor"
d="M1091.81 835.11c0 -77.3594 -2.6416 -146.227 -7.9248 -206.604c-5.28223 -60.377 -12.0752 -113.207 -20.377 -158.49c-1.51465 -8.2627 -3.03613 -16.292 -4.56348 -24.0898c-66.3789 0.553711 -126.167 3.1582 -179.364 7.8125
c-60.377 5.2832 -113.207 12.0762 -158.49 20.377c-45.2832 8.30273 -83.585 16.793 -114.905 25.4727c4.52734 -19.2461 6.79199 -39.0576 6.79199 -59.4346s-2.26465 -41.3203 -6.79199 -62.8301c31.3203 8.67871 69.5273 17.1689 114.622 25.4717
c45.0947 8.30176 97.8301 15.0947 158.208 20.3779c52.4316 4.58691 111.409 7.18359 176.933 7.78711c-5.87891 -28.6895 -11.8486 -53.9727 -17.9111 -75.8496c19.2451 4.52734 39.0566 6.79199 59.4336 6.79199c11.6406 0 23.4658 -0.739258 35.4756 -2.2168
c-28.0293 -31.6621 -52.7871 -57.9795 -74.2725 -78.9521c-97.6768 0.556641 -185.208 4.94043 -262.596 13.1475c-83.0195 8.80469 -155.66 20.126 -217.925 33.9619c-62.2637 13.8369 -114.929 27.9883 -157.995 42.4531
c6.22656 -32.0762 9.33984 -65.0947 9.33984 -99.0566s-3.11328 -68.8682 -9.33984 -104.717c43.0664 14.4639 95.6006 28.6152 157.606 42.4531c62.0049 13.8359 134.516 25.1572 217.535 33.9619c74.3506 7.88477 158.273 12.2402 251.769 13.0645
c22.0439 -22.2178 44.0859 -45.251 66.1289 -69.1016c24.4014 -26.4004 50.501 -55.001 78.3008 -85.8008s58.9004 -64.5996 93.3008 -101.4l12.5996 9c-32.8008 52.4004 -60.9004 100.5 -84.3008 144.301s-42.7002 80.5 -57.9004 110.1
c12.8008 25.2012 31.2012 60.1006 55.2012 104.701c24 44.5986 52.999 94.5 87 149.699l-12.5996 9c-51.9795 -55.79 -95.8535 -103.776 -131.622 -143.957c-6.21484 25.4463 -12.3311 54.5088 -18.3477 87.1895c-8.30176 45.0947 -15.0947 97.8301 -20.377 158.208
c-5.28223 60.377 -7.9248 129.434 -7.9248 207.17h-14.7168zM1344.54 930c0 -128.932 -4.40332 -243.71 -13.208 -344.34c-8.80469 -100.629 -20.126 -188.679 -33.9619 -264.15c-13.8369 -75.4717 -27.9883 -139.309 -42.4531 -191.51
c32.0762 7.54688 65.0947 11.3213 99.0566 11.3213s68.8682 -3.77441 104.717 -11.3213c-14.4639 52.2012 -28.6152 115.88 -42.4531 191.038c-13.8359 75.1572 -25.1572 163.05 -33.9619 263.679c-8.80371 100.629 -13.208 215.724 -13.208 345.283h-24.5273zM386.4 900
c-80 -85.8662 -145.601 -157.866 -196.801 -216c-51.1992 -58.1338 -94.3994 -103.2 -129.6 -135.2c32.5332 -32.5332 65.0664 -66.3994 97.5996 -101.6c32.5342 -35.2002 67.334 -73.334 104.4 -114.4s78.5332 -86.1338 124.4 -135.2l16.7998 12
c-43.7334 69.8672 -81.2002 134 -112.4 192.4s-56.9336 107.334 -77.2002 146.8c17.0664 33.6006 41.6006 80.1338 73.6006 139.601c32 59.4658 70.666 126 116 199.6zM1220.16 946.173c-128.932 0 -243.71 4.40332 -344.34 13.208
c-100.629 8.80469 -188.679 20.126 -264.15 33.9619c-75.4717 13.8369 -139.309 27.9883 -191.51 42.4531c7.54688 -32.0762 11.3213 -65.0947 11.3213 -99.0566s-3.77441 -68.8682 -11.3213 -104.717c52.2012 14.4639 115.88 28.6152 191.038 42.4531
c75.1572 13.8359 163.05 25.1572 263.679 33.9619c100.629 8.80371 215.724 13.208 345.283 13.208v24.5273zM802.069 730.078c-3.02637 31.7793 -4.54004 66.79 -4.54004 105.032h-14.7168c0 -37.5469 -1.47266 -72.0146 -4.41797 -103.406
c-41.2227 2.94238 -79.6748 6.2959 -115.358 10.0596c-2.33789 28.6191 -3.50684 59.7354 -3.50684 93.3467h-14.7168c0 -32.6562 -1.11426 -62.9834 -3.34277 -90.9834c-16.7002 1.90039 -32.7539 3.89648 -48.1602 5.98828
c-61.1318 8.30273 -112.84 16.793 -155.122 25.4727c6.1123 -19.2461 9.16992 -39.0576 9.16992 -59.4346s-3.05762 -41.3203 -9.16992 -62.8301c42.2822 8.67871 93.8623 17.1689 154.74 25.4717c13.3584 1.82129 27.2129 3.57031 41.5645 5.24707
c-4.88965 -32.333 -10.8848 -61.0811 -17.9814 -86.2432c-8.30176 -29.4336 -16.793 -54.3301 -25.4717 -74.6885c19.2451 2.94238 39.0566 4.41504 59.4336 4.41504s41.3213 -1.47266 62.8301 -4.41504c-8.67773 20.3584 -17.1689 45.1934 -25.4717 74.5049
c-7.40137 26.1328 -13.6035 56.2129 -18.6055 90.2422c32.7227 3.37793 67.7686 6.41602 105.138 9.11523c-5.20508 -37.6475 -11.8232 -70.7051 -19.8525 -99.1738c-8.30176 -29.4336 -16.793 -54.3301 -25.4717 -74.6885c19.2451 2.94238 39.0566 4.41504 59.4336 4.41504
s41.3213 -1.47266 62.8301 -4.41504c-8.67773 20.3584 -17.1689 45.1934 -25.4717 74.5049c-8.20801 28.9795 -14.9404 62.8125 -20.1963 101.501c0.291016 0.0185547 0.582031 0.0380859 0.873047 0.0566406c33.6221 2.17871 69.2383 3.9082 106.848 5.18945
c-0.15332 -1.18652 -0.30957 -2.36816 -0.467773 -3.54492c-5.28223 -39.2451 -12.0752 -73.585 -20.377 -103.019s-16.793 -54.3301 -25.4717 -74.6885c19.2451 2.94238 39.0566 4.41504 59.4336 4.41504s41.3213 -1.47266 62.8301 -4.41504
c-8.67773 20.3584 -17.1689 45.1934 -25.4717 74.5049c-8.30176 29.3115 -15.0947 63.5889 -20.377 102.834c-0.214844 1.59473 -0.424805 3.19922 -0.630859 4.8125c45.0742 1.22363 92.8623 1.83594 143.364 1.83594v14.7158
c-51.2578 0 -99.7539 0.636719 -145.488 1.90918c-3.44629 33.4492 -5.16992 70.5791 -5.16992 111.388h-14.7168c0 -40.4443 -1.70898 -77.3164 -5.12695 -110.618c-38.1465 1.28516 -74.2842 3.03418 -108.413 5.24609
c-1.73926 0.112305 -3.47363 0.226562 -5.20312 0.339844z" />
</svg>
