<?xml version="1.0" standalone="no"?>
<!DOCTYPE svg PUBLIC "-//W3C//DTD SVG 1.1//EN" "http://www.w3.org/Graphics/SVG/1.1/DTD/svg11.dtd" >
<svg xmlns="http://www.w3.org/2000/svg" xmlns:xlink="http://www.w3.org/1999/xlink" version="1.1" viewBox="0 0 1659 905">
   <path fill="currentColor"
d="M580 666.173c-83.8057 0 -158.411 4.40332 -223.821 13.208c-65.4082 8.80469 -122.641 20.126 -171.697 33.9619c-49.0566 13.8369 -90.5508 27.9883 -124.481 42.4531c4.90527 -32.0762 7.3584 -65.0947 7.3584 -99.0566s-2.45312 -68.8682 -7.3584 -104.717
c33.9307 14.4639 75.3223 28.6152 124.175 42.4531c48.8525 13.8359 105.982 25.1572 171.391 33.9619c60.9688 8.20605 130.107 12.5898 207.414 13.1475c-29.1201 -32.043 -55.2822 -61.2383 -78.4863 -87.585c-51.1992 -58.1338 -94.3994 -103.2 -129.6 -135.2
c32.5332 -32.5332 65.0664 -66.3994 97.5996 -101.6c31.6025 -34.1924 65.3428 -71.1523 101.222 -110.88c-73.2012 0.833008 -139.045 5.1875 -197.536 13.0605c-65.4082 8.80469 -122.641 20.126 -171.697 33.9619c-49.0566 13.8369 -90.5508 27.9883 -124.481 42.4531
c4.90527 -32.0762 7.3584 -65.0947 7.3584 -99.0566s-2.45312 -68.8682 -7.3584 -104.717c33.9307 14.4639 75.3223 28.6152 124.175 42.4531c48.8525 13.8359 105.982 25.1572 171.391 33.9619c64.3867 8.66602 137.884 13.0693 220.492 13.2051
c32.04 -35.252 67.1182 -73.2666 105.236 -114.043l16.7998 12c-43.7334 69.8672 -81.2002 134 -112.4 192.4s-56.9336 107.334 -77.2002 146.8c17.0664 33.6006 41.6006 80.1338 73.6006 139.601c32 59.4658 70.666 126 116 199.6l-16.7998 12
c-36.8135 -39.5137 -70.5781 -76.0908 -101.294 -109.731v5.9043zM1509.05 816.173c-128.932 0 -243.71 4.40332 -344.34 13.208c-100.629 8.80469 -188.679 20.126 -264.15 33.9619c-75.4717 13.8369 -139.309 27.9883 -191.51 42.4531
c7.54688 -32.0762 11.3213 -65.0947 11.3213 -99.0566s-3.77441 -68.8682 -11.3213 -104.717c52.2012 14.4639 115.88 28.6152 191.038 42.4531c75.1572 13.8359 163.05 25.1572 263.679 33.9619c100.629 8.80371 215.724 13.208 345.283 13.208v24.5273zM972.861 563.773
c-9.40918 -7.87598 -18.6494 -15.2734 -27.7197 -22.1924c-14.3496 -10.9443 -28.2002 -20.9463 -41.5518 -30.0068c-47.6416 0.219727 -90.2314 2.85742 -127.773 7.91016c-39.2451 5.2832 -73.584 12.0762 -103.019 20.377
c-29.4336 8.30273 -54.3301 16.793 -74.6885 25.4727c2.94336 -19.2461 4.41504 -39.0576 4.41504 -59.4346s-1.47168 -41.3203 -4.41504 -62.8301c20.3584 8.67871 45.1934 17.1689 74.5049 25.4717c29.3115 8.30176 63.5898 15.0947 102.834 20.3779
c31.4014 4.22656 66.4141 6.7627 105.038 7.6084c-7.71582 -4.80469 -15.248 -9.26562 -22.5986 -13.3818c-26.6836 -14.9424 -50.292 -26.543 -70.8242 -34.8018c15.6895 -11.5283 30.7393 -24.4961 45.1475 -38.9043c10.8711 -10.8711 21.3779 -22.5635 31.5205 -35.0752
c-31.8672 1.14746 -61.1719 3.52051 -87.915 7.12012c-39.2451 5.2832 -73.584 12.0762 -103.019 20.377c-29.4336 8.30273 -54.3301 16.793 -74.6885 25.4727c2.94336 -19.2461 4.41504 -39.0576 4.41504 -59.4346s-1.47168 -41.3203 -4.41504 -62.8301
c20.3584 8.67871 45.1934 17.1689 74.5049 25.4717c29.3115 8.30176 63.5898 15.0947 102.834 20.3779c37.4912 5.0459 80.1289 7.68359 127.916 7.90918c-6.50098 -2.97168 -12.7412 -5.66016 -18.7207 -8.06543c15.6904 -11.5273 30.7402 -24.4961 45.1484 -38.9043
c14.4092 -14.4092 28.1777 -30.2588 41.3057 -47.5498c8.25879 20.5322 19.8164 44.0977 34.6719 70.6943s34.291 55.6377 58.3057 87.124c6.98242 9.1543 14.46 18.4873 22.4316 28.001l-16.0654 16.0654c-9.4082 -7.87695 -18.6484 -15.2744 -27.7188 -22.1924
c-31.4863 -24.0146 -60.5713 -43.4941 -87.2539 -58.4365c-16.2617 -9.10645 -31.3818 -16.9717 -45.3594 -23.5957v11.5908c-10.7617 0 -21.2715 0.121094 -31.5273 0.363281c7.70508 17.5635 17.5742 37.1172 29.6064 58.6611
c14.8564 26.5967 34.292 55.6377 58.3066 87.124c6.98145 9.1543 14.459 18.4873 22.4307 28c-7.08789 7.08887 -7.08789 7.08887 -16.0645 16.0654zM1168.02 368.612c-9.40918 -7.87598 -18.6494 -15.2734 -27.7197 -22.1924
c-31.4854 -24.0146 -60.5703 -43.4932 -87.2539 -58.4365c-26.6826 -14.9424 -50.292 -26.543 -70.8242 -34.8018c15.6895 -11.5273 30.7393 -24.4951 45.1484 -38.9043c12.1699 -12.1699 23.8818 -25.3672 35.1377 -39.5928
c-59.2275 6.83691 -113.21 14.7236 -161.947 23.6582c-75.4717 13.8369 -139.309 27.9883 -191.51 42.4531c7.54688 -32.0762 11.3213 -65.0947 11.3213 -99.0566s-3.77441 -68.8682 -11.3213 -104.717c52.2012 14.4639 115.88 28.6152 191.038 42.4531
c75.1572 13.8359 163.05 25.1572 263.679 33.9619c91.6406 8.01758 195.278 12.3857 310.913 13.1025c-9.80566 -47.8662 -19.7646 -90.0469 -29.877 -126.54c32.0762 7.54688 65.0947 11.3213 99.0566 11.3213s68.8682 -3.77441 104.717 -11.3213
c-14.4639 52.2012 -28.6152 115.88 -42.4531 191.038c-13.8359 75.1572 -25.1572 163.05 -33.9619 263.679c-8.80371 100.629 -13.208 215.724 -13.208 345.283h-24.5273c0 -105.789 -2.96484 -202.05 -8.89258 -288.784
c-39.6211 0.779297 -75.5283 3.33594 -107.723 7.66895c-39.2451 5.2832 -73.584 12.0762 -103.019 20.377c-29.4336 8.30273 -54.3301 16.793 -74.6885 25.4727c2.94336 -19.2461 4.41504 -39.0576 4.41504 -59.4346s-1.47168 -41.3203 -4.41504 -62.8301
c20.3584 8.67871 45.1934 17.1689 74.5049 25.4717c29.3115 8.30176 63.5898 15.0947 102.834 20.3779c31.9355 4.29785 67.6055 6.84863 107.012 7.64941c-1.00293 -13.6787 -2.08203 -27.1152 -3.23633 -40.3086c-2.4834 -28.3809 -5.16699 -55.7607 -8.0498 -82.1396
c-34.7598 1.03125 -66.5459 3.48535 -95.3574 7.36426c-39.2451 5.28223 -73.584 12.0752 -103.019 20.377c-29.4336 8.30176 -54.3301 16.793 -74.6885 25.4717c2.94336 -19.2451 4.41504 -39.0566 4.41504 -59.4336s-1.47168 -41.3213 -4.41504 -62.8301
c20.3584 8.67773 45.1934 17.1689 74.5049 25.4717c29.3115 8.30176 63.5898 15.0947 102.834 20.377c28.3691 3.81836 59.6865 6.25781 93.9512 7.31641c-6.94727 -60.8701 -14.9932 -116.244 -24.1377 -166.125c-2.53223 -13.8096 -5.07422 -27.2285 -7.62695 -40.2588
c-117.036 0.623047 -222.008 5.00098 -314.919 13.1299c-32.3584 2.83105 -63.416 5.92285 -93.1729 9.27441c7.99414 18.8574 18.5967 40.1133 31.8086 63.7676c14.8564 26.5957 34.292 55.6377 58.3066 87.123c6.98242 9.1543 14.459 18.4873 22.4307 28.001
c-7.08789 7.08887 -7.08789 7.08887 -16.0645 16.0654zM1259.68 654.55c-30.2217 -30.2227 -61.167 -53.0869 -92.832 -68.5986c-31.667 -15.5098 -62.6924 -25.7637 -93.0762 -30.7598c-30.3857 -4.99707 -58.333 -6.97852 -83.8389 -5.94434
c31.1963 -27.6582 62.373 -57.0654 93.5312 -88.2236c31.1572 -31.1572 62.2969 -64.0654 93.416 -98.7236c-1.0332 25.5059 0.910156 53.415 5.83301 83.7285c4.92383 30.3105 15.1396 61.2988 30.6504 92.9658c15.5107 31.6641 38.4492 62.6836 68.8184 93.0527z" />
</svg>
