<?xml version="1.0" standalone="no"?>
<!DOCTYPE svg PUBLIC "-//W3C//DTD SVG 1.1//EN" "http://www.w3.org/Graphics/SVG/1.1/DTD/svg11.dtd" >
<svg xmlns="http://www.w3.org/2000/svg" xmlns:xlink="http://www.w3.org/1999/xlink" version="1.1" viewBox="0 0 1659 905">
   <path fill="currentColor"
d="M580 666.173c-83.8057 0 -158.411 4.40332 -223.821 13.208c-65.4082 8.80469 -122.641 20.126 -171.697 33.9619c-49.0566 13.8369 -90.5508 27.9883 -124.481 42.4531c4.90527 -32.0762 7.3584 -65.0947 7.3584 -99.0566s-2.45312 -68.8682 -7.3584 -104.717
c33.9307 14.4639 75.3223 28.6152 124.175 42.4531c48.8525 13.8359 105.982 25.1572 171.391 33.9619c60.9688 8.20605 130.107 12.5898 207.414 13.1475c-29.1201 -32.043 -55.2822 -61.2383 -78.4863 -87.585c-51.1992 -58.1338 -94.3994 -103.2 -129.6 -135.2
c32.5332 -32.5332 65.0664 -66.3994 97.5996 -101.6c31.6025 -34.1924 65.3428 -71.1523 101.222 -110.88c-73.2012 0.833008 -139.045 5.1875 -197.536 13.0605c-65.4082 8.80469 -122.641 20.126 -171.697 33.9619c-49.0566 13.8369 -90.5508 27.9883 -124.481 42.4531
c4.90527 -32.0762 7.3584 -65.0947 7.3584 -99.0566s-2.45312 -68.8682 -7.3584 -104.717c33.9307 14.4639 75.3223 28.6152 124.175 42.4531c48.8525 13.8359 105.982 25.1572 171.391 33.9619c64.3867 8.66602 137.884 13.0693 220.492 13.2051
c32.04 -35.252 67.1182 -73.2666 105.236 -114.043l16.7998 12c-43.7334 69.8672 -81.2002 134 -112.4 192.4s-56.9336 107.334 -77.2002 146.8c17.0664 33.6006 41.6006 80.1338 73.6006 139.601c32 59.4658 70.666 126 116 199.6l-16.7998 12
c-36.8135 -39.5137 -70.5781 -76.0908 -101.294 -109.731v5.9043zM1509.05 816.173c-128.932 0 -243.71 4.40332 -344.34 13.208c-100.629 8.80469 -188.679 20.126 -264.15 33.9619c-75.4717 13.8369 -139.309 27.9883 -191.51 42.4531
c7.54688 -32.0762 11.3213 -65.0947 11.3213 -99.0566s-3.77441 -68.8682 -11.3213 -104.717c52.2012 14.4639 115.88 28.6152 191.038 42.4531c75.1572 13.8359 163.05 25.1572 263.679 33.9619c100.629 8.80371 215.724 13.208 345.283 13.208v24.5273zM1073.28 463.353
c-24.2744 -24.2734 -47.751 -44.0146 -70.4326 -59.2246c-22.6807 -15.209 -44.0605 -26.9824 -64.1396 -35.3223c-20.0791 -8.33789 -38.1016 -14.3525 -54.0664 -18.043c15.0293 -12.1885 29.749 -25.4863 44.1582 -39.8945
c14.4082 -14.4092 28.5068 -29.9297 42.2959 -46.5596c3.69141 15.9648 9.67676 33.957 17.9551 53.9775c8.2793 20.0205 20.0234 41.3701 35.2334 64.0508s35.0098 46.2178 59.4014 70.6094zM1170.86 365.772c-24.2734 -24.2744 -47.751 -44.0146 -70.4316 -59.2246
s-44.0605 -26.9834 -64.1396 -35.3223c-20.0791 -8.33789 -38.1016 -14.3525 -54.0664 -18.0439c15.0293 -12.1875 29.749 -25.4854 44.1572 -39.8945c12.0664 -12.0664 23.9141 -24.9111 35.5459 -38.5352c-58.999 6.82129 -112.787 14.6855 -161.364 23.5908
c-75.4717 13.8369 -139.309 27.9883 -191.51 42.4531c7.54688 -32.0762 11.3213 -65.0947 11.3213 -99.0566s-3.77441 -68.8682 -11.3213 -104.717c52.2012 14.4639 115.88 28.6152 191.038 42.4531c75.1572 13.8359 163.05 25.1572 263.679 33.9619
c91.6406 8.01758 195.278 12.3857 310.913 13.1025c-9.80566 -47.8662 -19.7646 -90.0469 -29.877 -126.54c32.0762 7.54688 65.0947 11.3213 99.0566 11.3213s68.8682 -3.77441 104.717 -11.3213c-14.4639 52.2012 -28.6152 115.88 -42.4531 191.038
c-13.8359 75.1572 -25.1572 163.05 -33.9619 263.679c-8.80371 100.629 -13.208 215.724 -13.208 345.283h-24.5273c0 -105.789 -2.96484 -202.05 -8.89258 -288.784c-39.6211 0.779297 -75.5283 3.33594 -107.723 7.66895c-39.2451 5.2832 -73.584 12.0762 -103.019 20.377
c-29.4336 8.30273 -54.3301 16.793 -74.6885 25.4727c2.94336 -19.2461 4.41504 -39.0576 4.41504 -59.4346s-1.47168 -41.3203 -4.41504 -62.8301c20.3584 8.67871 45.1934 17.1689 74.5049 25.4717c29.3115 8.30176 63.5898 15.0947 102.834 20.3779
c31.9355 4.29785 67.6055 6.84863 107.012 7.64941c-1.00293 -13.6787 -2.08203 -27.1152 -3.23633 -40.3086c-2.4834 -28.3809 -5.16699 -55.7607 -8.0498 -82.1396c-34.7598 1.03125 -66.5459 3.48535 -95.3574 7.36426c-39.2451 5.28223 -73.584 12.0752 -103.019 20.377
c-29.4336 8.30176 -54.3301 16.793 -74.6885 25.4717c2.94336 -19.2451 4.41504 -39.0566 4.41504 -59.4336s-1.47168 -41.3213 -4.41504 -62.8301c20.3584 8.67773 45.1934 17.1689 74.5049 25.4717c29.3115 8.30176 63.5898 15.0947 102.834 20.377
c28.3691 3.81836 59.6865 6.25781 93.9512 7.31641c-6.94727 -60.8701 -14.9932 -116.244 -24.1377 -166.125c-2.53223 -13.8096 -5.07422 -27.2285 -7.62695 -40.2588c-117.036 0.623047 -222.008 5.00098 -314.919 13.1299c-32.7637 2.86621 -64.1934 6 -94.29 9.40039
c3.72461 14.1572 9.12793 29.7988 16.21 46.9248c8.2793 20.0195 20.0234 41.3701 35.2324 64.0498c15.21 22.6807 35.0098 46.2178 59.4023 70.6104zM1259.68 654.55c-30.2217 -30.2227 -61.167 -53.0869 -92.832 -68.5986
c-31.667 -15.5098 -62.6924 -25.7637 -93.0762 -30.7598c-30.3857 -4.99707 -58.333 -6.97852 -83.8389 -5.94434c31.1963 -27.6582 62.373 -57.0654 93.5312 -88.2236c31.1572 -31.1572 62.2969 -64.0654 93.416 -98.7236c-1.0332 25.5059 0.910156 53.415 5.83301 83.7285
c4.92383 30.3105 15.1396 61.2988 30.6504 92.9658c15.5107 31.6641 38.4492 62.6836 68.8184 93.0527zM910.109 511.56c-50.2832 0 -95.0469 2.64258 -134.293 7.9248c-39.2451 5.2832 -73.584 12.0762 -103.019 20.377c-29.4336 8.30273 -54.3301 16.793 -74.6885 25.4727
c2.94336 -19.2461 4.41504 -39.0576 4.41504 -59.4346s-1.47168 -41.3203 -4.41504 -62.8301c20.3584 8.67871 45.1934 17.1689 74.5049 25.4717c29.3115 8.30176 63.5898 15.0947 102.834 20.3779c36.0283 4.84961 76.8105 7.47363 122.347 7.87109
c-19.918 -12.8525 -38.8066 -22.9863 -56.666 -30.4033c-20.0781 -8.33789 -38.1016 -14.3525 -54.0654 -18.043c15.0293 -12.1885 29.748 -25.4863 44.1572 -39.8955c10.7344 -10.7354 21.2979 -22.0869 31.6885 -34.0547
c-31.5498 1.1582 -60.5801 3.52246 -87.0928 7.09082c-39.2451 5.2832 -73.584 12.0762 -103.019 20.377c-29.4336 8.30273 -54.3301 16.793 -74.6885 25.4727c2.94336 -19.2461 4.41504 -39.0576 4.41504 -59.4346s-1.47168 -41.3203 -4.41504 -62.8301
c20.3584 8.67871 45.1934 17.1689 74.5049 25.4717c29.3115 8.30176 63.5898 15.0947 102.834 20.3779c39.2461 5.28223 84.1328 7.9248 134.661 7.9248v14.7158c-11.4434 0 -22.6006 0.136719 -33.4717 0.410156c3.63574 12.8086 8.58105 26.7744 14.834 41.8975
c8.2793 20.0195 20.0244 41.3701 35.2334 64.0508c15.21 22.6807 35.0098 46.2178 59.4014 70.6094l-10.4053 10.4062c-22.5518 -22.5518 -44.415 -41.1904 -65.5918 -55.9189v6.54492z" />
</svg>
