<?xml version="1.0" standalone="no"?>
<!DOCTYPE svg PUBLIC "-//W3C//DTD SVG 1.1//EN" "http://www.w3.org/Graphics/SVG/1.1/DTD/svg11.dtd" >
<svg xmlns="http://www.w3.org/2000/svg" xmlns:xlink="http://www.w3.org/1999/xlink" version="1.1" viewBox="0 0 870 646">
   <path fill="currentColor"
d="M573.246 233.952c86.0645 5.79492 181.649 8.69336 286.754 8.69336v24.5273c-120.665 0 -228.934 3.85645 -324.81 11.5684c-61.4434 73.667 -113.067 140.787 -154.872 201.36c-43.582 63.1504 -78.7148 118.297 -105.398 165.437
c-17.3457 -28.0176 -38.0244 -54.0342 -62.0391 -78.0488s-51.3662 -46.0283 -82.0508 -66.041c47.1387 -26.6836 102.173 -61.7051 165.103 -105.065c44.7129 -30.8096 93.0752 -67.0635 145.086 -108.764c-70.1436 7.51367 -133.312 16.4219 -189.509 26.7236
c-75.4717 13.8369 -139.309 27.9883 -191.51 42.4531c7.54688 -32.0762 11.3213 -65.0947 11.3213 -99.0566s-3.77441 -68.8682 -11.3213 -104.717c52.2012 14.4639 115.88 28.6152 191.038 42.4531c74.4893 13.7129 161.488 24.9561 260.999 33.7266
c75.8418 -63.9863 158.46 -140.675 247.852 -230.066l17.3438 17.3438c-77.4688 77.4678 -145.464 149.959 -203.986 217.473z" />
</svg>
