<?xml version="1.0" standalone="no"?>
<!DOCTYPE svg PUBLIC "-//W3C//DTD SVG 1.1//EN" "http://www.w3.org/Graphics/SVG/1.1/DTD/svg11.dtd" >
<svg xmlns="http://www.w3.org/2000/svg" xmlns:xlink="http://www.w3.org/1999/xlink" version="1.1" viewBox="0 0 730 800">
   <path fill="currentColor"
d="M497.757 309.074c67.2402 5.04688 141.322 7.57129 222.243 7.57129v24.5273c-82.8057 0 -158.535 2.66895 -227.19 8.00488c-3.9043 33.4678 -7.4707 68.6475 -10.6982 105.539c-2.32129 26.5352 -4.33691 54.0752 -6.04688 82.6221
c72.9033 6.20312 154.216 9.30664 243.936 9.30664v24.5273c-90.5479 0 -172.635 3.19043 -246.262 9.57129c-3.22266 67.791 -4.83496 140.877 -4.83496 219.256h-24.5273c0 -77.0596 -1.57324 -149.062 -4.71875 -216.012
c-1.24805 0.129883 -2.49414 0.260742 -3.7373 0.392578c-83.0195 8.80469 -155.66 20.126 -217.925 33.9619c-62.2637 13.8369 -114.929 27.9883 -157.995 42.4531c6.22656 -32.0762 9.33984 -65.0947 9.33984 -99.0566s-3.11328 -68.8682 -9.33984 -104.717
c43.0664 14.4639 95.6006 28.6152 157.606 42.4531c62.0049 13.8359 134.516 25.1572 217.535 33.9619c0.597656 0.0634766 1.19629 0.126953 1.79492 0.189453c-1.64844 -26.8701 -3.57129 -52.8584 -5.76855 -77.9668
c-3.03809 -34.7227 -6.37598 -67.9473 -10.0127 -99.6748c-76.8955 8.56152 -144.614 19.3477 -203.16 32.3574c-62.2637 13.8369 -114.929 27.9883 -157.995 42.4531c6.22656 -32.0762 9.33984 -65.0947 9.33984 -99.0566s-3.11328 -68.8682 -9.33984 -104.717
c43.0664 14.4639 95.6006 28.6152 157.606 42.4531c56.7783 12.6699 122.366 23.2305 196.767 31.6816c-5.21191 -39.1016 -10.9346 -75.6504 -17.167 -109.647c-13.8369 -75.4717 -27.9883 -139.309 -42.4531 -191.51c32.0762 7.54688 65.0947 11.3213 99.0566 11.3213
s68.8682 -3.77441 104.717 -11.3213c-14.4639 52.2012 -28.6152 115.88 -42.4531 191.038c-6.69434 36.3643 -12.7998 75.71 -18.3164 118.036z" />
</svg>
