<?xml version="1.0" standalone="no"?>
<!DOCTYPE svg PUBLIC "-//W3C//DTD SVG 1.1//EN" "http://www.w3.org/Graphics/SVG/1.1/DTD/svg11.dtd" >
<svg xmlns="http://www.w3.org/2000/svg" xmlns:xlink="http://www.w3.org/1999/xlink" version="1.1" viewBox="0 0 1051 802">
   <path fill="currentColor"
d="M385.4 802c-80 -85.8662 -145.601 -157.866 -196.801 -216c-51.1992 -58.1338 -94.3994 -103.2 -129.6 -135.2c32.5332 -32.5332 65.0664 -66.3994 97.5996 -101.6c32.5342 -35.2002 67.334 -73.334 104.4 -114.4s78.5332 -86.1338 124.4 -135.2l16.7998 12
c-43.7334 69.8672 -81.2002 134 -112.4 192.4s-56.9336 107.334 -77.2002 146.8c17.0664 33.6006 41.6006 80.1338 73.6006 139.601c32 59.4658 70.666 126 116 199.6zM466.069 355c0 -57.2139 -4.40332 -108.146 -13.208 -152.801s-20.126 -83.7266 -33.9619 -117.217
c-13.8369 -33.4902 -27.9883 -61.8184 -42.4531 -84.9824c32.0762 3.34863 65.0947 5.02344 99.0566 5.02344s68.8682 -1.6748 104.717 -5.02344c-14.4639 23.1641 -28.6152 51.4219 -42.4531 84.7734c-13.8359 33.3506 -25.1572 72.3535 -33.9619 117.007
c-8.80371 44.6543 -13.208 95.7275 -13.208 153.22h-24.5273zM696.069 355c0 -57.2139 -4.40332 -108.146 -13.208 -152.801s-20.126 -83.7266 -33.9619 -117.217c-13.8369 -33.4902 -27.9883 -61.8184 -42.4531 -84.9824c32.0762 3.34863 65.0947 5.02344 99.0566 5.02344
s68.8682 -1.6748 104.717 -5.02344c-14.4639 23.1641 -28.6152 51.4219 -42.4531 84.7734c-13.8359 33.3506 -25.1572 72.3535 -33.9619 117.007c-8.80371 44.6543 -13.208 95.7275 -13.208 153.22h-24.5273zM926.069 355c0 -57.2139 -4.40332 -108.146 -13.208 -152.801
s-20.126 -83.7266 -33.9619 -117.217c-13.8369 -33.4902 -27.9883 -61.8184 -42.4531 -84.9824c32.0762 3.34863 65.0947 5.02344 99.0566 5.02344s68.8682 -1.6748 104.717 -5.02344c-14.4639 23.1641 -28.6152 51.4219 -42.4531 84.7734
c-13.8359 33.3506 -25.1572 72.3535 -33.9619 117.007c-8.80371 44.6543 -13.208 95.7275 -13.208 153.22h-24.5273zM690.414 800c0 -71.2344 -9.52148 -134.649 -28.5605 -190.248c-19.04 -55.5977 -43.5205 -104.245 -73.4395 -145.942
c-29.9209 -41.6982 -60.5225 -76.9688 -91.8008 -105.81c69.3613 4.16992 140.761 6.25488 214.2 6.25488s148.92 -2.08496 226.439 -6.25488c-31.2764 28.8408 -61.8779 64.0234 -91.8008 105.549c-29.9189 41.5244 -54.3994 90.085 -73.4395 145.683
c-19.0371 55.5967 -28.5605 119.187 -28.5605 190.769h-53.0381z" />
</svg>
