<?xml version="1.0" standalone="no"?>
<!DOCTYPE svg PUBLIC "-//W3C//DTD SVG 1.1//EN" "http://www.w3.org/Graphics/SVG/1.1/DTD/svg11.dtd" >
<svg xmlns="http://www.w3.org/2000/svg" xmlns:xlink="http://www.w3.org/1999/xlink" version="1.1" viewBox="0 0 1394 810">
   <path fill="currentColor"
d="M1269.54 800c0 -128.932 -4.40332 -243.71 -13.208 -344.34c-8.80469 -100.629 -20.126 -188.679 -33.9619 -264.15c-2.52441 -13.7705 -5.05957 -27.1543 -7.60547 -40.1504c-110.633 0.922852 -210.278 5.26367 -298.94 13.0215
c-54.7412 4.79004 -105.76 10.3242 -153.057 16.6025c6.19043 23.1641 15.0518 48.6885 26.583 76.5742c13.7988 33.3662 33.373 68.9502 58.7217 106.751c14.5273 21.6631 31.5674 43.7949 51.1211 66.3955c19.7627 -20.4346 39.1699 -42.1416 58.2217 -65.1201
c6.15234 26.6074 16.127 56.5947 29.9258 89.9629c13.7988 33.3662 33.3721 68.9512 58.7217 106.751c25.3496 37.8008 58.3496 77.0293 99.0029 117.683l-15.0615 15.0615c41.6309 1.06836 85.0176 1.60352 130.16 1.60352v24.5273
c-128.932 0 -243.71 4.40332 -344.34 13.208c-100.629 8.80469 -188.679 20.126 -264.15 33.9619c-75.4717 13.8369 -139.309 27.9883 -191.51 42.4531c7.54688 -32.0762 11.3213 -65.0947 11.3213 -99.0566s-3.77441 -68.8682 -11.3213 -104.717
c52.2012 14.4639 115.88 28.6152 191.038 42.4531c75.1572 13.8359 163.05 25.1572 263.679 33.9619c64.2461 5.62109 134.389 9.44824 210.428 11.4814c-39.5996 -39.3574 -77.9238 -71.4561 -114.973 -96.3018c-37.8018 -25.3496 -73.4346 -44.9727 -106.899 -58.8701
c-33.4658 -13.8975 -63.5029 -23.9219 -90.1104 -30.0732c22.124 -17.9424 43.8457 -37.3271 65.1641 -58.1562c-22.4824 -19.4326 -44.5303 -36.3965 -66.1445 -50.8906c-37.8008 -25.3496 -73.4346 -44.9727 -106.899 -58.8701
c-33.4648 -13.8965 -63.5029 -23.9209 -90.1104 -30.0723c25.0488 -20.3135 49.5811 -42.4775 73.5957 -66.4922c19.4414 -19.4414 38.5439 -40.0957 57.3076 -61.9629c-33.4551 4.65137 -64.9766 9.68848 -94.5654 15.1133
c-75.4717 13.8369 -139.309 27.9883 -191.51 42.4531c7.54688 -32.0762 11.3213 -65.0947 11.3213 -99.0566s-3.77441 -68.8682 -11.3213 -104.717c52.2012 14.4639 115.88 28.6152 191.038 42.4531c75.1572 13.8359 163.05 25.1572 263.679 33.9619
c87.3867 7.64551 185.683 11.9727 294.888 12.9795c-9.79785 -47.8164 -19.748 -89.9551 -29.8516 -126.417c32.0762 7.54688 65.0947 11.3213 99.0566 11.3213s68.8682 -3.77441 104.717 -11.3213c-14.4639 52.2012 -28.6152 115.88 -42.4531 191.038
c-13.8359 75.1572 -25.1572 163.05 -33.9619 263.679c-8.80371 100.629 -13.208 215.724 -13.208 345.283h-24.5273zM386.4 770c-80 -85.8662 -145.601 -157.866 -196.801 -216c-51.1992 -58.1338 -94.3994 -103.2 -129.6 -135.2
c32.5332 -32.5332 65.0664 -66.3994 97.5996 -101.6c32.5342 -35.2002 67.334 -73.334 104.4 -114.4s78.5332 -86.1338 124.4 -135.2l16.7998 12c-43.7334 69.8672 -81.2002 134 -112.4 192.4s-56.9336 107.334 -77.2002 146.8
c17.0664 33.6006 41.6006 80.1338 73.6006 139.601c32 59.4658 70.666 126 116 199.6z" />
</svg>
