<?xml version="1.0" standalone="no"?>
<!DOCTYPE svg PUBLIC "-//W3C//DTD SVG 1.1//EN" "http://www.w3.org/Graphics/SVG/1.1/DTD/svg11.dtd" >
<svg xmlns="http://www.w3.org/2000/svg" xmlns:xlink="http://www.w3.org/1999/xlink" version="1.1" viewBox="0 0 870 646">
   <path fill="currentColor"
d="M767.22 645.776c-91.1689 -91.1689 -175.443 -169.216 -252.825 -234.146c-1.49219 -1.25195 -2.98145 -2.5 -4.46875 -3.74414c-98.2432 8.73047 -184.381 19.8838 -258.416 33.4561c-75.4717 13.8369 -139.309 27.9883 -191.51 42.4531
c7.54688 -32.0762 11.3213 -65.0947 11.3213 -99.0566s-3.77441 -68.8682 -11.3213 -104.717c52.2012 14.4639 115.88 28.6152 191.038 42.4531c55.3291 10.1855 117.56 19.0088 186.693 26.4678c-47.8018 -37.9961 -92.5137 -71.3564 -134.134 -100.081
c-63.1504 -43.582 -118.297 -78.7148 -165.437 -105.398c28.0176 -17.3447 54.0342 -38.0234 78.0488 -62.0381c24.0146 -24.0156 46.0283 -51.3662 66.04 -82.0518c26.6846 47.1396 61.7061 102.174 105.065 165.104c40.2129 58.3584 89.6982 122.932 148.461 193.722
c95.5381 7.62988 203.613 11.4463 324.224 11.4463v24.5273c-104.849 0 -200.338 2.91211 -286.47 8.73438c59.9941 69.6533 130.337 144.83 211.032 225.525z" />
</svg>
