<?xml version="1.0" standalone="no"?>
<!DOCTYPE svg PUBLIC "-//W3C//DTD SVG 1.1//EN" "http://www.w3.org/Graphics/SVG/1.1/DTD/svg11.dtd" >
<svg xmlns="http://www.w3.org/2000/svg" xmlns:xlink="http://www.w3.org/1999/xlink" version="1.1" viewBox="0 0 1298 803">
   <path fill="currentColor"
d="M1287.83 439.173c-106.368 0 -201.061 4.40332 -284.08 13.208s-155.66 20.126 -217.925 33.9619c-62.2637 13.8369 -114.929 27.9883 -157.995 42.4531c6.22656 -32.0762 9.33984 -65.0947 9.33984 -99.0566s-3.11328 -68.8682 -9.33984 -104.717
c43.0664 14.4639 95.6006 28.6152 157.606 42.4531c62.0049 13.8359 134.516 25.1572 217.535 33.9619c83.0186 8.80371 177.972 13.208 284.858 13.208v24.5273zM359.396 561.329c-40.4561 -40.457 -79.585 -73.3574 -117.386 -98.707s-73.4346 -44.9727 -106.899 -58.8701
c-33.4658 -13.8975 -63.5029 -23.9219 -90.1104 -30.0732c25.0488 -20.3135 49.5811 -42.4766 73.5957 -66.4912s47.5127 -49.8818 70.4932 -77.5986c6.15234 26.6074 16.127 56.5957 29.9258 89.9629c13.7988 33.3662 33.3721 68.9512 58.7217 106.751
c25.3496 37.8008 58.3496 77.0293 99.0029 117.683zM443.396 331.329c-40.4561 -40.457 -79.585 -73.3574 -117.386 -98.707s-73.4346 -44.9727 -106.899 -58.8701c-33.4658 -13.8975 -63.5029 -23.9219 -90.1104 -30.0732
c25.0488 -20.3135 49.5811 -42.4766 73.5957 -66.4912s47.5127 -49.8818 70.4932 -77.5986c6.15234 26.6074 16.127 56.5957 29.9258 89.9629c13.7988 33.3662 33.3721 68.9512 58.7217 106.751c25.3496 37.8008 58.3496 77.0293 99.0029 117.683zM567.211 803
c0 -128.932 -4.40332 -243.71 -13.208 -344.34c-8.80469 -100.629 -20.126 -188.679 -33.9619 -264.15c-13.8369 -75.4717 -27.9883 -139.309 -42.4531 -191.51c32.0762 7.54688 65.0947 11.3213 99.0566 11.3213s68.8682 -3.77441 104.717 -11.3213
c-14.4639 52.2012 -28.6152 115.88 -42.4531 191.038c-13.8359 75.1572 -25.1572 163.05 -33.9619 263.679c-8.80371 100.629 -13.208 215.724 -13.208 345.283h-24.5273z" />
</svg>
