<?xml version="1.0" standalone="no"?>
<!DOCTYPE svg PUBLIC "-//W3C//DTD SVG 1.1//EN" "http://www.w3.org/Graphics/SVG/1.1/DTD/svg11.dtd" >
<svg xmlns="http://www.w3.org/2000/svg" xmlns:xlink="http://www.w3.org/1999/xlink" version="1.1" viewBox="0 0 1601 868">
   <path fill="currentColor"
d="M1590.05 778.173c-174.058 0 -329.009 4.40332 -464.858 13.208s-254.717 20.126 -356.604 33.9619c-101.887 13.8369 -188.066 27.9883 -258.538 42.4531c10.1885 -32.0762 15.2842 -65.0947 15.2842 -99.0566s-5.0957 -68.8682 -15.2842 -104.717
c70.4717 14.4639 156.438 28.6152 257.901 42.4531c101.462 13.8359 220.117 25.1572 355.966 33.9619c135.85 8.80371 291.228 13.208 466.133 13.208v24.5273zM1590.05 113.173c-174.058 0 -329.009 4.40332 -464.858 13.208s-254.717 20.126 -356.604 33.9619
c-57.1309 7.75879 -109.323 15.6162 -156.577 23.5732c5.89551 19.9141 13.6348 41.46 23.2188 64.6357c13.7988 33.3662 33.3721 68.9512 58.7217 106.751c13.7441 20.4941 29.7363 41.4082 47.9785 62.7422c14.6572 -15.7725 29.1152 -32.2588 43.374 -49.4561
c6.15234 26.6074 16.127 56.5957 29.9258 89.9629c13.7988 33.3662 33.3721 68.9512 58.7217 106.751c25.3496 37.8008 58.3496 77.0293 99.0029 117.683l-17.3438 17.3438c-40.4561 -40.457 -79.585 -73.3574 -117.386 -98.707s-73.4346 -44.9727 -106.899 -58.8701
c-33.4658 -13.8975 -63.5029 -23.9219 -90.1104 -30.0732c25.0488 -20.3135 49.5811 -42.4766 73.5957 -66.4912c2.12598 -2.12598 4.24707 -4.26562 6.36523 -6.4209c-21.3779 -18.2891 -42.3613 -34.3369 -62.9512 -48.1445
c-33.0479 -22.1621 -64.4385 -39.9473 -94.1719 -53.3555c-75.3428 0.677734 -142.968 5.0498 -202.878 13.1143c-65.4082 8.80469 -122.641 20.126 -171.697 33.9619c-49.0566 13.8369 -90.5508 27.9883 -124.481 42.4531
c4.90527 -32.0762 7.3584 -65.0947 7.3584 -99.0566s-2.45312 -68.8682 -7.3584 -104.717c33.9307 14.4639 75.3223 28.6152 124.175 42.4531c48.8525 13.8359 105.982 25.1572 171.391 33.9619c40.9297 5.50879 85.541 9.29492 133.833 11.3574
c-11.5957 -3.64453 -22.6562 -6.68359 -33.1797 -9.11621c25.0488 -20.3135 49.5811 -42.4766 73.5957 -66.4912c14.792 -14.792 29.3877 -30.2861 43.7871 -46.4824c-24.2979 4.33398 -47.1475 8.69824 -68.5479 13.0908
c10.1885 -32.0762 15.2842 -65.0947 15.2842 -99.0566s-5.0957 -68.8682 -15.2842 -104.717c70.4717 14.4639 156.438 28.6152 257.901 42.4531c101.462 13.8359 220.117 25.1572 355.966 33.9619c135.85 8.80371 291.228 13.208 466.133 13.208v24.5273zM1213.97 550.81
c-30.3418 -30.3428 -59.6885 -55.0176 -88.0391 -74.0303c-28.3506 -19.0117 -55.0762 -33.7295 -80.1748 -44.1523s-47.627 -17.9414 -67.582 -22.5547c18.7861 -15.2354 37.1855 -31.8574 55.1963 -49.8682c18.0107 -18.0117 35.6348 -37.4121 52.8701 -58.1992
c4.61426 19.9551 12.0947 42.4463 22.4443 67.4717c10.3486 25.0254 25.0293 51.7139 44.041 80.0635c19.0127 28.3506 43.7627 57.7725 74.252 88.2617zM1276.97 378.31c-30.3418 -30.3428 -59.6885 -55.0176 -88.0391 -74.0303
c-28.3506 -19.0117 -55.0762 -33.7295 -80.1748 -44.1523s-47.627 -17.9414 -67.582 -22.5547c18.7861 -15.2354 37.1855 -31.8574 55.1963 -49.8682c18.0107 -18.0117 35.6348 -37.4121 52.8701 -58.1992c4.61426 19.9551 12.0947 42.4463 22.4443 67.4717
c10.3486 25.0254 25.0293 51.7139 44.041 80.0635c19.0127 28.3506 43.7627 57.7725 74.252 88.2617zM1369.83 732.063c0 -96.6992 -3.30273 -182.783 -9.90625 -258.255s-15.0947 -141.51 -25.4717 -198.113c-10.3779 -56.6035 -20.9912 -104.481 -31.8398 -143.632
c24.0576 5.66016 48.8213 8.49023 74.293 8.49023c25.4707 0 51.6504 -2.83008 78.5371 -8.49023c-10.8477 39.1504 -21.4609 86.9092 -31.8398 143.278c-10.377 56.3682 -18.8682 122.287 -25.4717 197.759c-6.60254 75.4717 -9.90527 161.793 -9.90527 258.963h-18.3955z
M585 568.173c-83.8057 0 -158.411 4.40332 -223.821 13.208c-65.4082 8.80469 -122.641 20.126 -171.697 33.9619c-49.0566 13.8369 -90.5508 27.9883 -124.481 42.4531c4.90527 -32.0762 7.3584 -65.0947 7.3584 -99.0566s-2.45312 -68.8682 -7.3584 -104.717
c33.9307 14.4639 75.3223 28.6152 124.175 42.4531c48.8525 13.8359 105.982 25.1572 171.391 33.9619c65.4092 8.80371 140.221 13.208 224.435 13.208v24.5273z" />
</svg>
