<?xml version="1.0" standalone="no"?>
<!DOCTYPE svg PUBLIC "-//W3C//DTD SVG 1.1//EN" "http://www.w3.org/Graphics/SVG/1.1/DTD/svg11.dtd" >
<svg xmlns="http://www.w3.org/2000/svg" xmlns:xlink="http://www.w3.org/1999/xlink" version="1.1" viewBox="0 0 1601 868">
   <path fill="currentColor"
d="M1590.05 778.173c-174.058 0 -329.009 4.40332 -464.858 13.208s-254.717 20.126 -356.604 33.9619c-101.887 13.8369 -188.066 27.9883 -258.538 42.4531c10.1885 -32.0762 15.2842 -65.0947 15.2842 -99.0566s-5.0957 -68.8682 -15.2842 -104.717
c70.4717 14.4639 156.438 28.6152 257.901 42.4531c101.462 13.8359 220.117 25.1572 355.966 33.9619c135.85 8.80371 291.228 13.208 466.133 13.208v24.5273zM1590.05 113.173c-174.058 0 -329.009 4.40332 -464.858 13.208s-254.717 20.126 -356.604 33.9619
c-55.6094 7.55176 -106.539 15.1982 -152.79 22.9375c12.5264 28.0674 28.29 59.1113 47.292 93.1328c22.9443 41.0742 52.4404 85.6484 88.4902 133.721c11.5098 -13.2441 22.751 -27.0928 33.7236 -41.5449c13.7656 34.2207 33.0273 73.4951 57.7861 117.824
c24.7607 44.3271 57.1523 92.7295 97.1768 145.206c11.6377 15.2568 24.0996 30.8125 37.3857 46.667c-11.8145 11.8154 -11.8145 11.8154 -26.7754 26.7764c-15.6807 -13.127 -31.0801 -25.4561 -46.1992 -36.9873c-52.4756 -40.0244 -100.951 -72.4883 -145.423 -97.3936
c-44.4727 -24.9043 -83.8193 -44.2383 -118.04 -58.0029c25.3184 -18.6025 49.6367 -39.4541 72.9541 -62.5586c-48.4541 -36.3916 -93.4268 -66.2041 -134.914 -89.4385c-14.1201 -7.90723 -27.7227 -15.2529 -40.8096 -22.0361
c-65.1387 1.34961 -124.228 5.5957 -177.271 12.7354c-65.4082 8.80469 -122.641 20.126 -171.697 33.9619c-49.0566 13.8369 -90.5508 27.9883 -124.481 42.4531c4.90527 -32.0762 7.3584 -65.0947 7.3584 -99.0566s-2.45312 -68.8682 -7.3584 -104.717
c33.9307 14.4639 75.3223 28.6152 124.175 42.4531c48.8525 13.8359 105.982 25.1572 171.391 33.9619c37.2412 5.0127 77.5312 8.59863 120.869 10.7578c-6.92676 -3.04297 -13.665 -5.88184 -20.2158 -8.5166c26.1494 -19.2129 51.2314 -40.8252 75.2461 -64.8398
c15.2119 -15.2119 29.9961 -31.3887 44.3525 -48.5283c-25.126 4.46387 -48.7139 8.95898 -70.7637 13.4854c10.1885 -32.0762 15.2842 -65.0947 15.2842 -99.0566s-5.0957 -68.8682 -15.2842 -104.717c70.4717 14.4639 156.438 28.6152 257.901 42.4531
c101.462 13.8359 220.117 25.1572 355.966 33.9619c135.85 8.80371 291.228 13.208 466.133 13.208v24.5273zM1210.42 554.36c-11.7607 -9.8457 -23.3096 -19.0928 -34.6494 -27.7412c-39.3564 -30.0176 -75.7129 -54.3662 -109.067 -73.0449
c-33.3545 -18.6777 -62.8643 -33.1787 -88.5293 -43.502c19.6113 -14.4102 38.4229 -30.6191 56.4346 -48.6299c18.0107 -18.0107 35.2217 -37.8242 51.6318 -59.4375c10.3242 25.665 24.7705 55.1211 43.3398 88.3682c18.5703 33.2451 42.8643 69.5469 72.8818 108.904
c8.72852 11.4424 18.0752 23.1094 28.04 35c-8.86133 8.8623 -8.86133 8.8623 -20.082 20.083zM1273.42 381.86c-11.7607 -9.8457 -23.3096 -19.0928 -34.6494 -27.7412c-39.3564 -30.0176 -75.7129 -54.3662 -109.067 -73.0449
c-33.3545 -18.6777 -62.8643 -33.1787 -88.5293 -43.502c19.6113 -14.4102 38.4229 -30.6191 56.4346 -48.6299c18.0107 -18.0107 35.2217 -37.8242 51.6318 -59.4375c10.3242 25.665 24.7705 55.1211 43.3398 88.3682c18.5703 33.2451 42.8643 69.5469 72.8818 108.904
c8.72852 11.4424 18.0752 23.1094 28.04 35c-8.86133 8.8623 -8.86133 8.8623 -20.082 20.083zM1369.83 732.063c0 -96.6992 -3.30273 -182.783 -9.90625 -258.255s-15.0947 -141.51 -25.4717 -198.113c-10.3779 -56.6035 -20.9912 -104.481 -31.8398 -143.632
c24.0576 5.66016 48.8213 8.49023 74.293 8.49023c25.4707 0 51.6504 -2.83008 78.5371 -8.49023c-10.8477 39.1504 -21.4609 86.9092 -31.8398 143.278c-10.377 56.3682 -18.8682 122.287 -25.4717 197.759c-6.60254 75.4717 -9.90527 161.793 -9.90527 258.963h-18.3955z
M585 568.173c-83.8057 0 -158.411 4.40332 -223.821 13.208c-65.4082 8.80469 -122.641 20.126 -171.697 33.9619c-49.0566 13.8369 -90.5508 27.9883 -124.481 42.4531c4.90527 -32.0762 7.3584 -65.0947 7.3584 -99.0566s-2.45312 -68.8682 -7.3584 -104.717
c33.9307 14.4639 75.3223 28.6152 124.175 42.4531c48.8525 13.8359 105.982 25.1572 171.391 33.9619c65.4092 8.80371 140.221 13.208 224.435 13.208v24.5273z" />
</svg>
