<?xml version="1.0" standalone="no"?>
<!DOCTYPE svg PUBLIC "-//W3C//DTD SVG 1.1//EN" "http://www.w3.org/Graphics/SVG/1.1/DTD/svg11.dtd" >
<svg xmlns="http://www.w3.org/2000/svg" xmlns:xlink="http://www.w3.org/1999/xlink" version="1.1" viewBox="0 0 1321 869">
   <path fill="currentColor"
d="M950.881 706.062c-15.6807 -13.127 -31.0801 -25.4561 -46.1992 -36.9873c-52.4756 -40.0244 -100.951 -72.4883 -145.423 -97.3936c-44.4727 -24.9043 -83.8193 -44.2383 -118.04 -58.0029c25.3184 -18.6025 49.6367 -39.4541 72.9541 -62.5586
c-48.4541 -36.3916 -93.4268 -66.2041 -134.914 -89.4385c-14.1201 -7.90723 -27.7227 -15.2529 -40.8096 -22.0361c-65.1387 1.34961 -124.228 5.5957 -177.271 12.7354c-65.4082 8.80469 -122.641 20.126 -171.697 33.9619
c-49.0566 13.8369 -90.5508 27.9883 -124.481 42.4531c4.90527 -32.0762 7.3584 -65.0947 7.3584 -99.0566s-2.45312 -68.8682 -7.3584 -104.717c33.9307 14.4639 75.3223 28.6152 124.175 42.4531c48.8525 13.8359 105.982 25.1572 171.391 33.9619
c37.2412 5.0127 77.5312 8.59863 120.869 10.7578c-6.92676 -3.04297 -13.665 -5.88184 -20.2158 -8.5166c26.1494 -19.2129 51.2314 -40.8252 75.2461 -64.8398c16.9551 -16.9551 33.3789 -35.1084 49.2705 -54.458c-27.4805 6.24414 -52.708 12.5488 -75.6816 18.915
c7.54688 -32.0762 11.3213 -65.0947 11.3213 -99.0566s-3.77441 -68.8682 -11.3213 -104.717c52.2012 14.4639 115.88 28.6152 191.038 42.4531c75.1572 13.8359 163.05 25.1572 263.679 33.9619c100.629 8.80371 215.724 13.208 345.283 13.208v24.5273
c-128.932 0 -243.71 4.40332 -344.34 13.208c-100.629 8.80469 -188.679 20.126 -264.15 33.9619c-31.4883 5.77344 -60.9521 11.6006 -88.3896 17.4834c12.9248 29.6123 29.5645 62.6416 49.9199 99.0869c22.9443 41.0742 52.4404 85.6484 88.4902 133.721
c11.5098 -13.2441 22.751 -27.0928 33.7236 -41.5449c13.7656 34.2207 33.0273 73.4951 57.7861 117.824c24.7607 44.3271 57.1523 92.7295 97.1768 145.206c11.6377 15.2568 24.0996 30.8125 37.3857 46.667c-11.8145 11.8154 -11.8145 11.8154 -26.7754 26.7764z
M1007.15 733.068c0 -62.8535 -3.30176 -118.808 -9.90527 -167.865c-6.60352 -49.0566 -15.0947 -91.9805 -25.4717 -128.773c-10.3779 -36.792 -20.9912 -67.9131 -31.8398 -93.3613c18.374 2.81055 37.1621 4.54785 56.3613 5.21191
c-6.46094 -46.1826 -14.6357 -86.7988 -24.5215 -121.851c-10.3779 -36.792 -20.9912 -67.9131 -31.8398 -93.3613c24.0566 3.67969 48.8213 5.51953 74.292 5.51953c25.4717 0 51.6514 -1.83984 78.5381 -5.51953c-10.8477 25.4482 -21.4619 56.4922 -31.8398 93.1318
c-9.9082 34.9834 -18.0967 75.627 -24.5654 121.932c18.4424 -0.75293 37.2441 -2.44141 56.4053 -5.06348c-10.8477 25.4482 -21.4619 56.4922 -31.8398 93.1318c-10.377 36.6387 -18.8682 79.4863 -25.4717 128.543c-6.60254 49.0566 -9.90625 105.165 -9.90625 168.325
h-18.3955zM1179.65 733.068c0 -62.8535 -3.30176 -118.808 -9.90527 -167.865c-6.60352 -49.0566 -15.0947 -91.9805 -25.4717 -128.773c-10.3779 -36.792 -20.9912 -67.9131 -31.8398 -93.3613c18.374 2.81055 37.1621 4.54785 56.3613 5.21191
c-6.46094 -46.1826 -14.6357 -86.7988 -24.5215 -121.851c-10.3779 -36.792 -20.9912 -67.9131 -31.8398 -93.3613c24.0566 3.67969 48.8213 5.51953 74.292 5.51953c25.4717 0 51.6514 -1.83984 78.5381 -5.51953c-10.8477 25.4482 -21.4619 56.4922 -31.8398 93.1318
c-9.9082 34.9834 -18.0967 75.627 -24.5654 121.932c18.4424 -0.75293 37.2441 -2.44141 56.4053 -5.06348c-10.8477 25.4482 -21.4619 56.4922 -31.8398 93.1318c-10.377 36.6387 -18.8682 79.4863 -25.4717 128.543c-6.60254 49.0566 -9.90625 105.165 -9.90625 168.325
h-18.3955zM585 569.173c-83.8057 0 -158.411 4.40332 -223.821 13.208c-65.4082 8.80469 -122.641 20.126 -171.697 33.9619c-49.0566 13.8369 -90.5508 27.9883 -124.481 42.4531c4.90527 -32.0762 7.3584 -65.0947 7.3584 -99.0566s-2.45312 -68.8682 -7.3584 -104.717
c33.9307 14.4639 75.3223 28.6152 124.175 42.4531c48.8525 13.8359 105.982 25.1572 171.391 33.9619c65.4092 8.80371 140.221 13.208 224.435 13.208v24.5273zM1310.05 779.173c-128.932 0 -243.71 4.40332 -344.34 13.208
c-100.629 8.80469 -188.679 20.126 -264.15 33.9619c-75.4717 13.8369 -139.309 27.9883 -191.51 42.4531c7.54688 -32.0762 11.3213 -65.0947 11.3213 -99.0566s-3.77441 -68.8682 -11.3213 -104.717c52.2012 14.4639 115.88 28.6152 191.038 42.4531
c75.1572 13.8359 163.05 25.1572 263.679 33.9619c100.629 8.80371 215.724 13.208 345.283 13.208v24.5273z" />
</svg>
