<?xml version="1.0" standalone="no"?>
<!DOCTYPE svg PUBLIC "-//W3C//DTD SVG 1.1//EN" "http://www.w3.org/Graphics/SVG/1.1/DTD/svg11.dtd" >
<svg xmlns="http://www.w3.org/2000/svg" xmlns:xlink="http://www.w3.org/1999/xlink" version="1.1" viewBox="0 0 1321 869">
   <path fill="currentColor"
d="M955.614 701.329c-40.4561 -40.457 -79.585 -73.3574 -117.386 -98.707s-73.4346 -44.9727 -106.899 -58.8701c-33.4658 -13.8975 -63.5029 -23.9219 -90.1104 -30.0732c25.0488 -20.3135 49.5811 -42.4766 73.5957 -66.4912
c2.12598 -2.12598 4.24707 -4.26562 6.36523 -6.4209c-21.3779 -18.2891 -42.3613 -34.3369 -62.9512 -48.1445c-33.0479 -22.1621 -64.4385 -39.9473 -94.1719 -53.3555c-75.3428 0.677734 -142.968 5.0498 -202.878 13.1143
c-65.4082 8.80469 -122.641 20.126 -171.697 33.9619c-49.0566 13.8369 -90.5508 27.9883 -124.481 42.4531c4.90527 -32.0762 7.3584 -65.0947 7.3584 -99.0566s-2.45312 -68.8682 -7.3584 -104.717c33.9307 14.4639 75.3223 28.6152 124.175 42.4531
c48.8525 13.8359 105.982 25.1572 171.391 33.9619c40.9297 5.50879 85.541 9.29492 133.833 11.3574c-11.5957 -3.64453 -22.6562 -6.68359 -33.1797 -9.11621c25.0488 -20.3135 49.5811 -42.4766 73.5957 -66.4912c16.5732 -16.5732 32.9004 -34.0283 48.9814 -52.3652
c-26.7295 6.09961 -51.3105 12.2578 -73.7422 18.4736c7.54688 -32.0762 11.3213 -65.0947 11.3213 -99.0566s-3.77441 -68.8682 -11.3213 -104.717c52.2012 14.4639 115.88 28.6152 191.038 42.4531c75.1572 13.8359 163.05 25.1572 263.679 33.9619
c100.629 8.80371 215.724 13.208 345.283 13.208v24.5273c-128.932 0 -243.71 4.40332 -344.34 13.208c-100.629 8.80469 -188.679 20.126 -264.15 33.9619c-32.5947 5.97559 -63.0195 12.0107 -91.2744 18.1035c6.08008 21.5596 14.3945 45.0947 24.9443 70.6055
c13.7988 33.3662 33.3721 68.9512 58.7217 106.751c13.7441 20.4941 29.7363 41.4082 47.9785 62.7422c14.6572 -15.7725 29.1152 -32.2588 43.374 -49.4561c6.15234 26.6074 16.127 56.5957 29.9258 89.9629c13.7988 33.3662 33.3721 68.9512 58.7217 106.751
c25.3496 37.8008 58.3496 77.0293 99.0029 117.683zM1007.15 733.068c0 -62.8535 -3.30176 -118.808 -9.90527 -167.865c-6.60352 -49.0566 -15.0947 -91.9805 -25.4717 -128.773c-10.3779 -36.792 -20.9912 -67.9131 -31.8398 -93.3613
c21.2871 3.25586 43.1289 5.07129 65.5234 5.44629c-1.60059 -22.8857 -4.33789 -44.1514 -8.21191 -63.7969c-6.60352 -33.4902 -15.0947 -62.7949 -25.4717 -87.9121c-10.3779 -25.1182 -20.9912 -46.3643 -31.8398 -63.7373
c24.0566 2.51172 48.8213 3.76758 74.292 3.76758c25.4717 0 51.6514 -1.25586 78.5381 -3.76758c-10.8477 17.373 -21.4619 38.5664 -31.8398 63.5801c-10.377 25.0137 -18.8682 54.2656 -25.4717 87.7559c-3.87988 19.6797 -6.62012 41.0215 -8.2207 64.0254
c21.3555 -0.517578 43.2002 -2.30469 65.5322 -5.36133c-10.8477 25.4482 -21.4619 56.4922 -31.8398 93.1318c-10.377 36.6387 -18.8682 79.4863 -25.4717 128.543c-6.60254 49.0566 -9.90625 105.165 -9.90625 168.325h-18.3955zM1179.65 733.068
c0 -62.8535 -3.30176 -118.808 -9.90527 -167.865c-6.60352 -49.0566 -15.0947 -91.9805 -25.4717 -128.773c-10.3779 -36.792 -20.9912 -67.9131 -31.8398 -93.3613c21.2871 3.25586 43.1289 5.07129 65.5234 5.44629
c-1.60059 -22.8857 -4.33789 -44.1514 -8.21191 -63.7969c-6.60352 -33.4902 -15.0947 -62.7949 -25.4717 -87.9121c-10.3779 -25.1182 -20.9912 -46.3643 -31.8398 -63.7373c24.0566 2.51172 48.8213 3.76758 74.292 3.76758c25.4717 0 51.6514 -1.25586 78.5381 -3.76758
c-10.8477 17.373 -21.4619 38.5664 -31.8398 63.5801c-10.377 25.0137 -18.8682 54.2656 -25.4717 87.7559c-3.87988 19.6797 -6.62012 41.0215 -8.2207 64.0254c21.3555 -0.517578 43.2002 -2.30469 65.5322 -5.36133c-10.8477 25.4482 -21.4619 56.4922 -31.8398 93.1318
c-10.377 36.6387 -18.8682 79.4863 -25.4717 128.543c-6.60254 49.0566 -9.90625 105.165 -9.90625 168.325h-18.3955zM585 569.173c-83.8057 0 -158.411 4.40332 -223.821 13.208c-65.4082 8.80469 -122.641 20.126 -171.697 33.9619
c-49.0566 13.8369 -90.5508 27.9883 -124.481 42.4531c4.90527 -32.0762 7.3584 -65.0947 7.3584 -99.0566s-2.45312 -68.8682 -7.3584 -104.717c33.9307 14.4639 75.3223 28.6152 124.175 42.4531c48.8525 13.8359 105.982 25.1572 171.391 33.9619
c65.4092 8.80371 140.221 13.208 224.435 13.208v24.5273zM1310.05 779.173c-128.932 0 -243.71 4.40332 -344.34 13.208c-100.629 8.80469 -188.679 20.126 -264.15 33.9619c-75.4717 13.8369 -139.309 27.9883 -191.51 42.4531
c7.54688 -32.0762 11.3213 -65.0947 11.3213 -99.0566s-3.77441 -68.8682 -11.3213 -104.717c52.2012 14.4639 115.88 28.6152 191.038 42.4531c75.1572 13.8359 163.05 25.1572 263.679 33.9619c100.629 8.80371 215.724 13.208 345.283 13.208v24.5273z" />
</svg>
