<?xml version="1.0" standalone="no"?>
<!DOCTYPE svg PUBLIC "-//W3C//DTD SVG 1.1//EN" "http://www.w3.org/Graphics/SVG/1.1/DTD/svg11.dtd" >
<svg xmlns="http://www.w3.org/2000/svg" xmlns:xlink="http://www.w3.org/1999/xlink" version="1.1" viewBox="0 0 2050 803">
   <path fill="currentColor"
d="M1030 713.173c-128.932 0 -243.71 4.40332 -344.34 13.208c-100.629 8.80469 -188.679 20.126 -264.15 33.9619c-75.4717 13.8369 -139.309 27.9883 -191.51 42.4531c7.54688 -32.0762 11.3213 -65.0947 11.3213 -99.0566s-3.77441 -68.8682 -11.3213 -104.717
c52.2012 14.4639 115.88 28.6152 191.038 42.4531c75.1572 13.8359 163.05 25.1572 263.679 33.9619c100.629 8.80371 215.724 13.208 345.283 13.208v24.5273zM1030 313.173c-83.8057 0 -158.411 4.40332 -223.821 13.208
c-65.4082 8.80469 -122.641 20.126 -171.697 33.9619c-46.9219 13.2344 -86.9248 26.7568 -120.009 40.5664c33.0752 13.8086 72.9756 27.3311 119.702 40.5664c48.8525 13.8359 105.982 25.1572 171.391 33.9619c48.6504 6.54785 102.503 10.6621 161.558 12.3408
c-2.00488 -9.5166 -4.37988 -19.1025 -7.12305 -28.7559c70.4717 14.4639 156.438 28.6152 257.901 42.4531c87.8945 11.9854 188.692 22.085 302.393 30.2949c-8.67578 -62.7451 -19.7061 -117.841 -33.0879 -165.289
c-13.8369 -49.0566 -27.9883 -90.5508 -42.4531 -124.481c32.0762 4.90527 65.0947 7.3584 99.0566 7.3584s68.8682 -2.45312 104.717 -7.3584c-14.4639 33.9307 -28.6152 75.3223 -42.4531 124.175c-13.6787 48.2988 -24.9004 104.688 -33.6611 169.168
c0.484375 0.0322266 0.969727 0.0634766 1.45508 0.0947266c135.85 8.80371 291.228 13.208 466.133 13.208v24.5273c-174.058 0 -329.009 4.40332 -464.858 13.208c-2.89844 0.1875 -5.78906 0.376953 -8.67188 0.567383
c-5.04395 52.9648 -7.56641 111.315 -7.56641 175.052h-24.5273c0 -62.5771 -2.45508 -120.024 -7.36426 -172.344c-115.979 8.28027 -218.803 18.5098 -308.474 30.6865c-101.887 13.8369 -188.066 27.9883 -258.538 42.4531
c10.1885 -32.0762 15.2842 -65.0947 15.2842 -99.0566c0 -16.3867 -1.18652 -32.9922 -3.55859 -49.8184c-60.5225 1.59766 -115.704 5.75098 -165.547 12.46c-65.4082 8.80469 -122.641 20.126 -171.697 33.9619c-49.0566 13.8369 -90.5508 27.9883 -124.481 42.4531
c4.4082 -28.8232 6.83594 -58.4072 7.28223 -88.7529c-58.7822 1.68066 -112.483 5.79297 -161.104 12.3379c-65.4082 8.80469 -122.641 20.126 -171.697 33.9619c-49.0566 13.8369 -90.5508 27.9883 -124.481 42.4531c4.90527 -32.0762 7.3584 -65.0947 7.3584 -99.0566
s-2.45312 -68.8682 -7.3584 -104.717c33.9307 14.4639 75.3223 28.6152 124.175 42.4531c48.8525 13.8359 105.982 25.1572 171.391 33.9619c48.666 6.5498 102.538 10.665 161.614 12.3428c-0.621094 -27.7764 -2.85352 -56.1729 -6.69922 -85.1895l-0.480469 0.205078
c0.0908203 -0.59375 0.180664 -1.18848 0.269531 -1.7832c-0.0888672 -0.663086 -0.178711 -1.32617 -0.269531 -1.99023c0.176758 0.0751953 0.354492 0.151367 0.532227 0.226562c4.55078 -30.9619 6.82617 -62.7988 6.82617 -95.5098
c0 -32.834 -2.29297 -66.5508 -6.87793 -101.148l-0.480469 0.205078c0.0908203 -0.59375 0.180664 -1.18848 0.269531 -1.7832c-0.0888672 -0.663086 -0.178711 -1.32617 -0.269531 -1.99023c0.176758 0.0751953 0.354492 0.151367 0.532227 0.226562
c4.55078 -30.9619 6.82617 -62.7988 6.82617 -95.5098c0 -33.9619 -2.45312 -68.8682 -7.3584 -104.717c33.9307 14.4639 75.3223 28.6152 124.175 42.4531c48.8525 13.8359 105.982 25.1572 171.391 33.9619c48.666 6.5498 102.538 10.665 161.614 12.3428
c-0.646484 -28.9141 -3.03906 -58.5 -7.17969 -88.7578c33.9307 14.4639 75.3223 28.6152 124.175 42.4531c46.6455 13.2109 100.837 24.1289 162.576 32.7529c-1.00488 -24.5898 -3.25488 -49.6582 -6.75098 -75.2061c33.9307 14.4639 75.3223 28.6152 124.175 42.4531
c46.6455 13.2109 100.837 24.1289 162.576 32.7529c-1.00488 -24.5898 -3.25488 -49.6582 -6.75098 -75.2061c33.9307 14.4639 75.3223 28.6152 124.175 42.4531c48.8525 13.8359 105.982 25.1572 171.391 33.9619c65.4092 8.80371 140.221 13.208 224.435 13.208v24.5273
c-83.8057 0 -158.411 4.40332 -223.821 13.208c-65.4082 8.80469 -122.641 20.126 -171.697 33.9619c-49.0566 13.8369 -90.5508 27.9883 -124.481 42.4531c3.74707 -24.499 6.0625 -49.5488 6.94824 -75.1484c-61.5762 8.61523 -115.731 19.5137 -162.467 32.6953
c-49.0566 13.8369 -90.5508 27.9883 -124.481 42.4531c3.74707 -24.499 6.0625 -49.5488 6.94824 -75.1484c-61.5762 8.61523 -115.731 19.5137 -162.467 32.6953c-49.0566 13.8369 -90.5508 27.9883 -124.481 42.4531c4.4082 -28.8232 6.83594 -58.4072 7.28223 -88.7529
c-58.7822 1.68066 -112.483 5.79297 -161.104 12.3379c-65.4082 8.80469 -122.641 20.126 -171.697 33.9619c-46.9219 13.2344 -86.9248 26.7568 -120.009 40.5664c33.0752 13.8086 72.9756 27.3311 119.702 40.5664c48.8525 13.8359 105.982 25.1572 171.391 33.9619
c65.4092 8.80371 140.221 13.208 224.435 13.208v24.5273z" />
</svg>
