<?xml version="1.0" standalone="no"?>
<!DOCTYPE svg PUBLIC "-//W3C//DTD SVG 1.1//EN" "http://www.w3.org/Graphics/SVG/1.1/DTD/svg11.dtd" >
<svg xmlns="http://www.w3.org/2000/svg" xmlns:xlink="http://www.w3.org/1999/xlink" version="1.1" viewBox="0 0 1194 803">
   <path fill="currentColor"
d="M480.827 336.062c-15.6807 -13.127 -31.0801 -25.4561 -46.1992 -36.9873c-52.4756 -40.0244 -100.951 -72.4883 -145.423 -97.3936c-44.4727 -24.9043 -83.8193 -44.2383 -118.04 -58.0029c26.1494 -19.2129 51.2314 -40.8252 75.2461 -64.8398
s46.9629 -50.4326 68.8428 -79.25c13.7656 34.2207 33.0273 73.4951 57.7861 117.824c24.7607 44.3271 57.1523 92.7295 97.1768 145.206c11.6377 15.2568 24.0996 30.8125 37.3857 46.667c-11.8145 11.8154 -11.8145 11.8154 -26.7754 26.7764zM413.662 549.228
c58.5986 6.46484 121.925 12.2383 189.978 17.3203c-1.97852 -37.6084 -4.46875 -73.5703 -7.47168 -107.888c-8.80469 -100.629 -20.126 -188.679 -33.9619 -264.15c-13.8369 -75.4717 -27.9883 -139.309 -42.4531 -191.51
c32.0762 7.54688 65.0947 11.3213 99.0566 11.3213s68.8682 -3.77441 104.717 -11.3213c-14.4639 52.2012 -28.6152 115.88 -42.4531 191.038c-13.8359 75.1572 -25.1572 163.05 -33.9619 263.679c-3.09277 35.3516 -5.64258 72.4893 -7.64941 111.411
c11.3428 0.788086 22.8115 1.55859 34.4053 2.30957c50.751 3.28906 104.228 5.96387 160.429 8.02441c-2.07422 -42.3086 -4.7832 -82.5762 -8.12793 -120.802c-8.80469 -100.629 -20.126 -188.679 -33.9619 -264.15c-13.8369 -75.4717 -27.9883 -139.309 -42.4531 -191.51
c32.0762 7.54688 65.0947 11.3213 99.0566 11.3213s68.8682 -3.77441 104.717 -11.3213c-14.4639 52.2012 -28.6152 115.88 -42.4531 191.038c-13.8359 75.1572 -25.1572 163.05 -33.9619 263.679c-3.39648 38.8223 -6.1377 79.7969 -8.22461 122.925
c62.0234 1.95996 127.239 3.20117 195.646 3.72168c-2.10352 -44.1035 -4.8916 -86.0039 -8.36523 -125.703c-8.80469 -100.629 -20.126 -188.679 -33.9619 -264.15c-13.8369 -75.4717 -27.9883 -139.309 -42.4531 -191.51c32.0762 7.54688 65.0947 11.3213 99.0566 11.3213
s68.8682 -3.77441 104.717 -11.3213c-14.4639 52.2012 -28.6152 115.88 -42.4531 191.038c-13.8359 75.1572 -25.1572 163.05 -33.9619 263.679c-3.49902 39.9961 -6.30371 82.2783 -8.41211 126.846c13.6436 0.0556641 27.4111 0.0830078 41.3008 0.0830078v24.5273
c-14.2578 0 -28.3877 0.0292969 -42.3887 0.0888672c-2.47168 60.5195 -3.70801 125.099 -3.70801 193.738h-24.5273c0 -68.5137 -1.24316 -133.03 -3.72949 -193.551c-69.2959 0.524414 -135.361 1.79199 -198.196 3.80469
c-2.36426 59.3652 -3.54688 122.614 -3.54688 189.746h-24.5273c0 -66.6709 -1.17773 -129.558 -3.53223 -188.66c-56.248 2.0625 -109.815 4.74316 -160.702 8.04102c-12.8652 0.833984 -25.5791 1.69043 -38.1396 2.56934
c-2.06543 55.957 -3.09863 115.308 -3.09863 178.05h-24.5273c0 -61.8711 -1.01367 -120.483 -3.04199 -175.837c-107.559 8.00488 -203.49 17.7314 -287.796 29.1797c-101.887 13.8369 -188.066 27.9883 -258.538 42.4531
c10.1885 -32.0762 15.2842 -65.0947 15.2842 -99.0566s-5.0957 -68.8682 -15.2842 -104.717c70.4717 14.4639 156.438 28.6152 257.901 42.4531c16.8955 2.30371 34.2666 4.53809 52.1152 6.70215c-6.5127 -5.17773 -12.9766 -10.2119 -19.3887 -15.1025
c-52.4756 -40.0244 -100.951 -72.4883 -145.423 -97.3936c-44.4727 -24.9043 -83.8193 -44.2383 -118.04 -58.0029c26.1494 -19.2129 51.2314 -40.8252 75.2461 -64.8398s46.9629 -50.4326 68.8428 -79.25c13.7656 34.2207 33.0273 73.4951 57.7861 117.824
c24.7607 44.3271 57.1523 92.7295 97.1768 145.206c11.6377 15.2568 24.0996 30.8125 37.3857 46.667c-4.56055 4.56055 -7.36035 7.36133 -9.94043 9.94141z" />
</svg>
