<?xml version="1.0" standalone="no"?>
<!DOCTYPE svg PUBLIC "-//W3C//DTD SVG 1.1//EN" "http://www.w3.org/Graphics/SVG/1.1/DTD/svg11.dtd" >
<svg xmlns="http://www.w3.org/2000/svg" xmlns:xlink="http://www.w3.org/1999/xlink" version="1.1" viewBox="-5 0 943 910">
   <path fill="currentColor"
d="M658.662 336.062c-15.6807 -13.127 -31.0801 -25.4561 -46.1992 -36.9873c-52.4756 -40.0244 -100.951 -72.4883 -145.423 -97.3936c-44.4727 -24.9043 -83.8193 -44.2383 -118.04 -58.0029c26.1494 -19.2129 51.2314 -40.8252 75.2461 -64.8398
s46.9629 -50.4326 68.8428 -79.25c13.7656 34.2207 33.0273 73.4951 57.7861 117.824c24.7607 44.3271 57.1523 92.7295 97.1768 145.206c11.6377 15.2568 24.0996 30.8125 37.3857 46.667c-11.8145 11.8154 -11.8145 11.8154 -26.7754 26.7764zM314.662 910.062
c-15.6807 -13.127 -31.0801 -25.4561 -46.1992 -36.9873c-52.4756 -40.0244 -100.951 -72.4883 -145.423 -97.3936c-44.4727 -24.9043 -83.8193 -44.2383 -118.04 -58.0029c26.1494 -19.2129 51.2314 -40.8252 75.2461 -64.8398s46.9629 -50.4326 68.8428 -79.25
c13.7139 34.0928 32.8838 73.2021 57.5098 117.329c-1.48828 -79.5215 -5.68652 -151.854 -12.5957 -216.998c-8.80469 -83.0195 -20.126 -155.66 -33.9619 -217.925c-13.8369 -62.2637 -27.9883 -114.929 -42.4531 -157.995
c32.0762 6.22656 65.0947 9.33984 99.0566 9.33984s68.8682 -3.11328 104.717 -9.33984c-14.4639 43.0664 -28.6152 95.6006 -42.4531 157.606c-13.8359 62.0049 -25.1572 134.516 -33.9619 217.535c-8.12109 76.583 -12.499 163.323 -13.1289 260.218
c20.4111 32.4619 44.4883 66.8818 72.2344 103.26c11.6377 15.2568 24.0996 30.8125 37.3857 46.667c-11.8145 11.8154 -11.8145 11.8154 -26.7754 26.7764zM927.835 534.173c-106.368 0 -201.061 4.40332 -284.08 13.208s-155.66 20.126 -217.925 33.9619
c-62.2637 13.8369 -114.929 27.9883 -157.995 42.4531c6.22656 -32.0762 9.33984 -65.0947 9.33984 -99.0566s-3.11328 -68.8682 -9.33984 -104.717c43.0664 14.4639 95.6006 28.6152 157.606 42.4531c62.0049 13.8359 134.516 25.1572 217.535 33.9619
c83.0186 8.80371 177.972 13.208 284.858 13.208v24.5273z" />
</svg>
