<?xml version="1.0" standalone="no"?>
<!DOCTYPE svg PUBLIC "-//W3C//DTD SVG 1.1//EN" "http://www.w3.org/Graphics/SVG/1.1/DTD/svg11.dtd" >
<svg xmlns="http://www.w3.org/2000/svg" xmlns:xlink="http://www.w3.org/1999/xlink" version="1.1" viewBox="0 0 1418 812">
   <path fill="currentColor"
d="M1043.21 800c0 -128.932 -4.40332 -243.71 -13.208 -344.34c-0.271484 -3.10645 -0.545898 -6.20117 -0.822266 -9.28418c-8.19043 0.9375 -16.2461 1.93848 -24.167 3.00488c-65.4082 8.80469 -122.641 20.126 -171.697 33.9619
c-49.0566 13.8369 -90.5508 27.9883 -124.481 42.4531c4.90527 -32.0762 7.3584 -65.0947 7.3584 -99.0566c0 -0.405273 -0.000976562 -0.810547 -0.000976562 -1.2168l-0.900391 0.900391c-15.6807 -13.127 -31.0801 -25.4561 -46.1982 -36.9863
c-52.4766 -40.0254 -100.952 -72.4893 -145.424 -97.3945c-44.4717 -24.9033 -83.8193 -44.2383 -118.04 -58.002c26.1494 -19.2129 51.2314 -40.8262 75.2471 -64.8408c24.0146 -24.0146 46.9619 -50.4316 68.8428 -79.249
c13.7646 34.2197 33.0264 73.4951 57.7852 117.823c24.7607 44.3281 57.1523 92.7305 97.1768 145.207c2.89844 3.7998 5.84863 7.61914 8.84961 11.4561c-1.17578 -13.9883 -2.74121 -28.126 -4.69629 -42.4141c33.9307 14.4639 75.3223 28.6152 124.175 42.4531
c48.8525 13.8359 105.982 25.1572 171.391 33.9619c6.7168 0.904297 13.5332 1.76172 20.4482 2.57324c-7.93262 -78.1826 -17.5361 -148.016 -28.8076 -209.501c-13.8369 -75.4717 -27.9883 -139.309 -42.4531 -191.51c32.0762 7.54688 65.0947 11.3213 99.0566 11.3213
s68.8682 -3.77441 104.717 -11.3213c-14.4639 52.2012 -28.6152 115.88 -42.4531 191.038c-13.8359 75.1572 -25.1572 163.05 -33.9619 263.679c-8.80371 100.629 -13.208 215.724 -13.208 345.283h-24.5273zM1380.66 812.062
c-15.6807 -13.127 -31.0801 -25.4561 -46.1992 -36.9873c-52.4756 -40.0244 -100.951 -72.4883 -145.423 -97.3936c-44.4727 -24.9043 -83.8193 -44.2383 -118.04 -58.0029c26.1494 -19.2129 51.2314 -40.8252 75.2461 -64.8398s46.9629 -50.4326 68.8428 -79.25
c13.7139 34.0928 32.8838 73.2021 57.5098 117.329c-1.48828 -79.5215 -5.68652 -151.854 -12.5957 -216.998c-8.80469 -83.0195 -20.126 -155.66 -33.9619 -217.925c-13.8369 -62.2637 -27.9883 -114.929 -42.4531 -157.995
c32.0762 6.22656 65.0947 9.33984 99.0566 9.33984s68.8682 -3.11328 104.717 -9.33984c-14.4639 43.0664 -28.6152 95.6006 -42.4531 157.606c-13.8359 62.0049 -25.1572 134.516 -33.9619 217.535c-8.12109 76.583 -12.499 163.323 -13.1289 260.218
c20.4111 32.4619 44.4883 66.8818 72.2344 103.26c11.6377 15.2568 24.0996 30.8125 37.3857 46.667c-11.8145 11.8154 -11.8145 11.8154 -26.7754 26.7764zM390.019 751.692c-15.6816 -13.127 -31.0811 -25.4561 -46.1992 -36.9873
c-52.4766 -40.0244 -100.951 -72.4883 -145.423 -97.3936c-44.4727 -24.9043 -83.8203 -44.2383 -118.041 -58.0029c26.1504 -19.2119 51.2324 -40.8252 75.2471 -64.8398s46.9629 -50.4316 68.8428 -79.249c13.7656 34.2197 33.0273 73.4941 57.7861 117.823
c24.7607 44.3271 57.1523 92.7295 97.1768 145.206c11.6367 15.2568 24.0986 30.8125 37.3857 46.668zM552.652 589.058c-15.6807 -13.127 -31.0811 -25.4561 -46.1992 -36.9873c-52.4766 -40.0244 -100.951 -72.4893 -145.423 -97.3936
c-44.4727 -24.9043 -83.8193 -44.2383 -118.04 -58.0029c19.9727 -14.6748 39.3223 -30.749 58.0498 -48.2246c-49.6318 -37.4492 -95.6328 -68.0361 -138 -91.7617c-44.4717 -24.9043 -83.8193 -44.2383 -118.04 -58.0029
c26.1494 -19.2129 51.2314 -40.8262 75.2471 -64.8408c24.0146 -24.0146 46.9619 -50.4316 68.8428 -79.249c13.7646 34.2197 33.0264 73.4951 57.7852 117.824c23.6416 42.3242 54.2412 88.3643 91.7979 138.118c16.6777 -18.0986 32.8135 -37.416 48.4062 -57.9531
c13.7656 34.2207 33.0273 73.4951 57.7861 117.824c24.7607 44.3271 57.1523 92.7295 97.1768 145.206c11.6377 15.2568 24.0996 30.8125 37.3857 46.667c-11.8145 11.8154 -11.8145 11.8154 -26.7754 26.7764z" />
</svg>
