<?xml version="1.0" standalone="no"?>
<!DOCTYPE svg PUBLIC "-//W3C//DTD SVG 1.1//EN" "http://www.w3.org/Graphics/SVG/1.1/DTD/svg11.dtd" >
<svg xmlns="http://www.w3.org/2000/svg" xmlns:xlink="http://www.w3.org/1999/xlink" version="1.1" viewBox="0 0 1599 810">
   <path fill="currentColor"
d="M1144.49 800c0 -96.6992 -3.30273 -182.782 -9.90625 -258.255c-6.60352 -75.4717 -15.0947 -141.509 -25.4717 -198.112c-8.98926 -49.0283 -18.1543 -91.5098 -27.4961 -127.443c-11.8301 69.4102 -21.666 148.919 -29.5068 238.527
c-8.80371 100.629 -13.208 215.724 -13.208 345.283h-24.5273c0 -26.8828 -0.191406 -53.1514 -0.574219 -78.8037c-122.366 0.354492 -231.745 4.75 -328.142 13.1846c-100.629 8.80469 -188.679 20.126 -264.15 33.9619
c-75.4717 13.8369 -139.309 27.9883 -191.51 42.4531c7.54688 -32.0762 11.3213 -65.0947 11.3213 -99.0566s-3.77441 -68.8682 -11.3213 -104.717c52.2012 14.4639 115.88 28.6152 191.038 42.4531c75.1572 13.8359 163.05 25.1572 263.679 33.9619
c96.3037 8.4248 205.855 12.8213 328.656 13.1836c-1.47656 -73.6904 -4.58301 -142.144 -9.31836 -205.359c-95.8818 0.663086 -181.927 5.03711 -258.135 13.1191c-83.0195 8.80469 -155.66 20.126 -217.925 33.9619c-62.2637 13.8369 -114.929 27.9883 -157.995 42.4531
c5.61133 -28.9082 8.69434 -58.582 9.24902 -89.0225c-42.9033 1.47754 -81.9199 5.68066 -117.05 12.6074c-44.6543 8.80469 -83.7266 20.126 -117.217 33.9619c-33.4902 13.8369 -61.8184 27.9883 -84.9824 42.4531c3.34863 -32.0762 5.02344 -65.0947 5.02344 -99.0566
s-1.6748 -68.8682 -5.02344 -104.717c23.1641 14.4639 51.4219 28.6152 84.7734 42.4531c33.3506 13.8359 72.3535 25.1572 117.007 33.9619c35.1387 6.92773 74.252 11.1309 117.34 12.6084c-0.808594 -28.998 -3.84863 -58.6729 -9.12012 -89.0234
c43.0664 14.4639 95.6006 28.6152 157.606 42.4531c62.0049 13.8359 134.516 25.1572 217.535 33.9619c75.7236 8.03027 161.376 12.4004 256.957 13.1064c-0.304688 -3.64648 -0.615234 -7.27441 -0.930664 -10.8838c-6.19727 -70.8301 -13.6416 -135.429 -22.332 -193.795
c-61.3721 1.55469 -117.275 5.72656 -167.711 12.5156c-65.4082 8.80469 -122.641 20.126 -171.697 33.9619c-49.0566 13.8369 -90.5508 27.9883 -124.481 42.4531c4.90527 -32.0762 7.3584 -65.0947 7.3584 -99.0566s-2.45312 -68.8682 -7.3584 -104.717
c33.9307 14.4639 75.3223 28.6152 124.175 42.4531c48.8525 13.8359 105.982 25.1572 171.391 33.9619c49.4033 6.64941 104.171 10.7891 164.303 12.417c-2.44531 -15.2354 -4.98145 -30.0166 -7.6084 -44.3447c-13.8369 -75.4717 -27.9883 -139.309 -42.4531 -191.51
c32.0762 7.54688 65.0947 11.3213 99.0566 11.3213s68.8682 -3.77441 104.717 -11.3213c-14.4639 52.2012 -28.6152 115.88 -42.4531 191.038c-0.639648 3.47363 -1.27344 6.97461 -1.90234 10.5029c21.8867 4.63281 44.3516 6.9502 67.3965 6.9502
c25.4717 0 51.6514 -2.83105 78.5371 -8.49121c-10.8477 39.1504 -21.4609 86.9102 -31.8398 143.278c-10.377 56.3682 -18.8682 122.288 -25.4717 197.759c-6.60254 75.4727 -9.90527 161.793 -9.90527 258.963h-18.3955zM1316.99 800
c0 -62.8545 -3.30273 -118.809 -9.90625 -167.866c-6.60352 -49.0557 -15.0947 -91.9805 -25.4717 -128.772c-10.3779 -36.793 -20.9912 -67.9131 -31.8398 -93.3613c21.2881 3.25488 43.1289 5.07031 65.5244 5.44531
c-1.60156 -22.8857 -4.33984 -44.1504 -8.21289 -63.7959c-6.60352 -33.4912 -15.0947 -62.7949 -25.4717 -87.9131c-10.3779 -25.1172 -20.9912 -46.3633 -31.8398 -63.7363c24.0576 2.51172 48.8213 3.76758 74.293 3.76758s51.6514 -1.25586 78.5371 -3.76758
c-10.8477 17.373 -21.4609 38.5664 -31.8398 63.5801c-10.377 25.0127 -18.8682 54.2656 -25.4717 87.7549c-3.87988 19.6797 -6.62012 41.0215 -8.2207 64.0254c21.3564 -0.517578 43.2012 -2.30469 65.5322 -5.36035c-10.8477 25.4482 -21.4609 56.4922 -31.8398 93.1309
c-10.377 36.6396 -18.8682 79.4873 -25.4717 128.543c-6.60254 49.0566 -9.90527 105.166 -9.90527 168.326h-18.3955zM1474.38 800c0 -128.932 -4.40332 -243.71 -13.208 -344.34c-8.80469 -100.629 -20.126 -188.679 -33.9619 -264.15
c-13.8369 -75.4717 -27.9883 -139.309 -42.4531 -191.51c32.0762 7.54688 65.0947 11.3213 99.0566 11.3213s68.8682 -3.77441 104.717 -11.3213c-14.4639 52.2012 -28.6152 115.88 -42.4531 191.038c-13.8359 75.1572 -25.1572 163.05 -33.9619 263.679
c-8.80371 100.629 -13.208 215.724 -13.208 345.283h-24.5273z" />
</svg>
