<?xml version="1.0" standalone="no"?>
<!DOCTYPE svg PUBLIC "-//W3C//DTD SVG 1.1//EN" "http://www.w3.org/Graphics/SVG/1.1/DTD/svg11.dtd" >
<svg xmlns="http://www.w3.org/2000/svg" xmlns:xlink="http://www.w3.org/1999/xlink" version="1.1" viewBox="0 0 727 807">
   <path fill="currentColor"
d="M699.395 807.329c-40.4561 -40.457 -79.585 -73.3574 -117.386 -98.707s-73.4346 -44.9727 -106.899 -58.8701c-33.4658 -13.8975 -63.5029 -23.9219 -90.1104 -30.0732c25.0488 -20.3135 49.5811 -42.4766 73.5957 -66.4912s47.5127 -49.8818 70.4932 -77.5986
c6.15234 26.6074 16.127 56.5957 29.9258 89.9629c7.58984 18.3525 16.9268 37.376 28.0098 57.0703c-0.920898 -91.3018 -5.26172 -173.535 -13.0215 -246.702c-8.80469 -83.0195 -20.126 -155.66 -33.9619 -217.925
c-13.8369 -62.2637 -27.9883 -114.929 -42.4531 -157.995c32.0762 6.22656 65.0947 9.33984 99.0566 9.33984s68.8682 -3.11328 104.717 -9.33984c-14.4639 43.0664 -28.6152 95.6006 -42.4531 157.606c-13.8359 62.0049 -25.1572 134.516 -33.9619 217.535
c-8.80371 83.0186 -13.208 177.972 -13.208 284.858h-2.09863c2.62988 4.07422 5.3291 8.17578 8.09668 12.3027c25.3496 37.8008 58.3496 77.0293 99.0029 117.683zM359.396 807.329c-40.4561 -40.457 -79.585 -73.3574 -117.386 -98.707
s-73.4346 -44.9727 -106.899 -58.8701c-33.4658 -13.8975 -63.5029 -23.9219 -90.1104 -30.0732c25.0488 -20.3135 49.5811 -42.4766 73.5957 -66.4912s47.5127 -49.8818 70.4932 -77.5986c6.15234 26.6074 16.127 56.5957 29.9258 89.9629
c7.58984 18.3525 16.9268 37.376 28.0098 57.0703c-0.920898 -91.3018 -5.26172 -173.535 -13.0215 -246.702c-8.80469 -83.0195 -20.126 -155.66 -33.9619 -217.925c-13.8369 -62.2637 -27.9883 -114.929 -42.4531 -157.995
c32.0762 6.22656 65.0947 9.33984 99.0566 9.33984s68.8682 -3.11328 104.717 -9.33984c-14.4639 43.0664 -28.6152 95.6006 -42.4531 157.606c-13.8359 62.0049 -25.1572 134.516 -33.9619 217.535c-8.80371 83.0186 -13.208 177.972 -13.208 284.858h-2.09863
c2.62988 4.07422 5.3291 8.17578 8.09668 12.3027c25.3496 37.8008 58.3496 77.0293 99.0029 117.683z" />
</svg>
