<?xml version="1.0" standalone="no"?>
<!DOCTYPE svg PUBLIC "-//W3C//DTD SVG 1.1//EN" "http://www.w3.org/Graphics/SVG/1.1/DTD/svg11.dtd" >
<svg xmlns="http://www.w3.org/2000/svg" xmlns:xlink="http://www.w3.org/1999/xlink" version="1.1" viewBox="0 0 1500 969">
   <path fill="currentColor"
d="M359.396 905.329c-40.4561 -40.457 -79.585 -73.3574 -117.386 -98.707s-73.4346 -44.9727 -106.899 -58.8701c-33.4658 -13.8975 -63.5029 -23.9219 -90.1104 -30.0732c25.0488 -20.3135 49.5811 -42.4766 73.5957 -66.4912s47.5127 -49.8818 70.4932 -77.5986
c6.15234 26.6074 16.127 56.5957 29.9258 89.9629c7.58984 18.3525 16.9268 37.376 28.0098 57.0703c-0.920898 -91.3018 -5.26172 -173.535 -13.0215 -246.702c-8.80469 -83.0195 -20.126 -155.66 -33.9619 -217.925
c-13.8369 -62.2637 -27.9883 -114.929 -42.4531 -157.995c32.0762 6.22656 65.0947 9.33984 99.0566 9.33984s68.8682 -3.11328 104.717 -9.33984c-14.4639 43.0664 -28.6152 95.6006 -42.4531 157.606c-13.8359 62.0049 -25.1572 134.516 -33.9619 217.535
c-8.80371 83.0186 -13.208 177.972 -13.208 284.858h-2.09863c2.62988 4.07422 5.3291 8.17578 8.09668 12.3027c25.3496 37.8008 58.3496 77.0293 99.0029 117.683zM703.396 331.329c-40.4561 -40.457 -79.585 -73.3574 -117.386 -98.707
s-73.4346 -44.9727 -106.899 -58.8701c-33.4658 -13.8975 -63.5029 -23.9219 -90.1104 -30.0732c25.0488 -20.3135 49.5811 -42.4766 73.5957 -66.4912s47.5127 -49.8818 70.4932 -77.5986c6.15234 26.6074 16.127 56.5957 29.9258 89.9629
c13.7988 33.3662 33.3721 68.9512 58.7217 106.751c25.3496 37.8008 58.3496 77.0293 99.0029 117.683zM1477.34 969.5c-60 -64.3994 -109.201 -118.399 -147.602 -162c-38.3984 -43.6006 -70.7988 -77.4004 -97.1992 -101.4
c12.6768 -12.6758 25.3525 -25.6221 38.0293 -38.8379c-9.375 -10.2373 -18.3906 -20.127 -27.0469 -29.6709c-13.7422 25.9795 -25.6699 48.8154 -35.7832 68.5088c12.8008 25.2012 31.2012 60.1006 55.2012 104.701c24 44.5986 52.999 94.5 87 149.699l-12.5996 9
c-60 -64.3994 -109.201 -118.399 -147.602 -162c-29.5264 -33.5264 -55.5068 -61.2578 -77.9385 -83.1953c-73.7773 0.791992 -140.102 5.15137 -198.976 13.0762c-65.4082 8.80469 -122.641 20.126 -171.697 33.9619c-49.0566 13.8369 -90.5508 27.9883 -124.481 42.4531
c4.33984 -28.3799 6.76074 -57.4971 7.26074 -87.3525c-30.4434 2.1377 -58.7354 5.7832 -84.875 10.9375c-44.6543 8.80469 -83.7266 20.126 -117.217 33.9619c-33.4902 13.8369 -61.8184 27.9883 -84.9824 42.4531c3.34863 -32.0762 5.02344 -65.0947 5.02344 -99.0566
s-1.6748 -68.8682 -5.02344 -104.717c23.1641 14.4639 51.4219 28.6152 84.7734 42.4531c33.3506 13.8359 72.3535 25.1572 117.007 33.9619c26.1855 5.16309 54.5791 8.8125 85.1797 10.9482c-0.69043 -28.4707 -3.07324 -57.5918 -7.14648 -87.3633
c33.9307 14.4639 75.3223 28.6152 124.175 42.4531c48.8525 13.8359 105.982 25.1572 171.391 33.9619c55.5664 7.47852 117.919 11.7832 187.057 12.9092c22.1572 -22.3242 44.3135 -45.4727 66.4707 -69.4463c11.5645 -12.5117 23.5098 -25.5166 35.8369 -39.0166
c-4.05371 -4.56543 -7.99902 -9.02637 -11.8369 -13.3838c-29.5264 -33.5264 -55.5068 -61.2578 -77.9385 -83.1953c-73.7773 0.791992 -140.102 5.15137 -198.976 13.0762c-65.4082 8.80469 -122.641 20.126 -171.697 33.9619
c-49.0566 13.8369 -90.5508 27.9883 -124.481 42.4531c4.33984 -28.3799 6.76074 -57.4971 7.26074 -87.3525c-30.4434 2.1377 -58.7354 5.7832 -84.875 10.9375c-44.6543 8.80469 -83.7266 20.126 -117.217 33.9619c-33.4902 13.8369 -61.8184 27.9883 -84.9824 42.4531
c3.34863 -32.0762 5.02344 -65.0947 5.02344 -99.0566s-1.6748 -68.8682 -5.02344 -104.717c23.1641 14.4639 51.4219 28.6152 84.7734 42.4531c33.3506 13.8359 72.3535 25.1572 117.007 33.9619c26.1855 5.16309 54.5791 8.8125 85.1797 10.9482
c-0.69043 -28.4707 -3.07324 -57.5918 -7.14648 -87.3633c33.9307 14.4639 75.3223 28.6152 124.175 42.4531c48.8525 13.8359 105.982 25.1572 171.391 33.9619c55.5664 7.47852 117.919 11.7832 187.057 12.9092c22.1572 -22.3242 44.3135 -45.4727 66.4707 -69.4463
c24.4014 -26.4004 50.501 -55.001 78.3008 -85.8008s58.9004 -64.5996 93.3008 -101.4l12.5996 9c-32.8008 52.4004 -60.9004 100.5 -84.3008 144.301s-42.7002 80.5 -57.9004 110.1c9.1084 17.9307 21.0508 40.7715 35.8281 68.5234
c0.157227 -0.174805 0.31543 -0.348633 0.472656 -0.523438c8.78516 -9.7334 17.9004 -19.7666 27.3457 -30.0996c-14.1387 -14.5781 -27.0869 -27.2109 -38.8457 -37.9004c24.4004 -24.3994 48.7998 -49.7988 73.1992 -76.1992
c24.4014 -26.4004 50.501 -55.001 78.3008 -85.8008s58.9004 -64.5996 93.3008 -101.4l12.5996 9c-32.8008 52.4004 -60.9004 100.5 -84.3008 144.301s-42.7002 80.5 -57.9004 110.1c9.1084 17.9307 21.0508 40.7715 35.8281 68.5234
c0.157227 -0.174805 0.31543 -0.348633 0.472656 -0.523438c27.7998 -30.7998 58.9004 -64.5996 93.3008 -101.4l12.5996 9c-31.5244 50.3613 -58.7061 96.75 -81.5479 139.167c22.9004 42.0049 50.082 88.5508 81.5479 139.634l-12.5996 9
c-34.9336 -37.4951 -66.2061 -71.4648 -93.8184 -101.909c-13.7422 25.9795 -25.6699 48.8154 -35.7832 68.5088c12.8008 25.2012 31.2012 60.1006 55.2012 104.701c24 44.5986 52.999 94.5 87 149.699zM1341.58 590.884
c-4.05371 -4.56543 -7.99902 -9.02637 -11.8369 -13.3838c-11.6455 -13.2227 -22.7383 -25.5439 -33.2803 -36.9639c-9.98828 17.3555 -19.3438 34.1328 -28.0664 50.3301c8.62793 15.8262 17.8643 32.2969 27.708 49.4111
c3.21289 -3.44141 6.42578 -6.90039 9.63867 -10.377c11.5645 -12.5117 23.5098 -25.5166 35.8369 -39.0166z" />
</svg>
