<?xml version="1.0" standalone="no"?>
<!DOCTYPE svg PUBLIC "-//W3C//DTD SVG 1.1//EN" "http://www.w3.org/Graphics/SVG/1.1/DTD/svg11.dtd" >
<svg xmlns="http://www.w3.org/2000/svg" xmlns:xlink="http://www.w3.org/1999/xlink" version="1.1" viewBox="0 0 1500 969">
   <path fill="currentColor"
d="M354.662 910.062c-15.6807 -13.127 -31.0801 -25.4561 -46.1992 -36.9873c-52.4756 -40.0244 -100.951 -72.4883 -145.423 -97.3936c-44.4727 -24.9043 -83.8193 -44.2383 -118.04 -58.0029c26.1494 -19.2129 51.2314 -40.8252 75.2461 -64.8398
s46.9629 -50.4326 68.8428 -79.25c13.7139 34.0928 32.8838 73.2021 57.5098 117.329c-1.48828 -79.5215 -5.68652 -151.854 -12.5957 -216.998c-8.80469 -83.0195 -20.126 -155.66 -33.9619 -217.925c-13.8369 -62.2637 -27.9883 -114.929 -42.4531 -157.995
c32.0762 6.22656 65.0947 9.33984 99.0566 9.33984s68.8682 -3.11328 104.717 -9.33984c-14.4639 43.0664 -28.6152 95.6006 -42.4531 157.606c-13.8359 62.0049 -25.1572 134.516 -33.9619 217.535c-8.12109 76.583 -12.499 163.323 -13.1289 260.218
c20.4111 32.4619 44.4883 66.8818 72.2344 103.26c11.6377 15.2568 24.0996 30.8125 37.3857 46.667c-11.8145 11.8154 -11.8145 11.8154 -26.7754 26.7764zM698.662 336.062c-15.6807 -13.127 -31.0801 -25.4561 -46.1992 -36.9873
c-52.4756 -40.0244 -100.951 -72.4883 -145.423 -97.3936c-44.4727 -24.9043 -83.8193 -44.2383 -118.04 -58.0029c26.1494 -19.2129 51.2314 -40.8252 75.2461 -64.8398s46.9629 -50.4326 68.8428 -79.25c13.7656 34.2207 33.0273 73.4951 57.7861 117.824
c24.7607 44.3271 57.1523 92.7295 97.1768 145.206c11.6377 15.2568 24.0996 30.8125 37.3857 46.667c-11.8145 11.8154 -11.8145 11.8154 -26.7754 26.7764zM1477.34 969.5c-60 -64.3994 -109.201 -118.399 -147.602 -162
c-38.3984 -43.6006 -70.7988 -77.4004 -97.1992 -101.4c12.6768 -12.6758 25.3525 -25.6221 38.0293 -38.8379c-9.375 -10.2373 -18.3906 -20.127 -27.0469 -29.6709c-13.7422 25.9795 -25.6699 48.8154 -35.7832 68.5088c12.8008 25.2012 31.2012 60.1006 55.2012 104.701
c24 44.5986 52.999 94.5 87 149.699l-12.5996 9c-60 -64.3994 -109.201 -118.399 -147.602 -162c-29.5264 -33.5264 -55.5068 -61.2578 -77.9385 -83.1953c-73.7773 0.791992 -140.102 5.15137 -198.976 13.0762c-65.4082 8.80469 -122.641 20.126 -171.697 33.9619
c-49.0566 13.8369 -90.5508 27.9883 -124.481 42.4531c3.74512 -24.4912 6.06152 -49.5312 6.94727 -75.1221c-61.499 8.61133 -115.592 19.501 -162.279 32.6689c-49.0566 13.8369 -90.5508 27.9883 -124.481 42.4531c4.90527 -32.0762 7.3584 -65.0947 7.3584 -99.0566
s-2.45312 -68.8682 -7.3584 -104.717c33.9307 14.4639 75.3223 28.6152 124.175 42.4531c46.5986 13.1973 100.728 24.1074 162.389 32.7266c-1.00586 -24.5811 -3.25586 -49.6416 -6.75 -75.1797c33.9307 14.4639 75.3223 28.6152 124.175 42.4531
c48.8525 13.8359 105.982 25.1572 171.391 33.9619c55.5664 7.47852 117.919 11.7832 187.057 12.9092c22.1572 -22.3242 44.3135 -45.4727 66.4707 -69.4463c11.5645 -12.5117 23.5098 -25.5166 35.8369 -39.0166c-4.05371 -4.56543 -7.99902 -9.02637 -11.8369 -13.3838
c-29.5264 -33.5264 -55.5068 -61.2578 -77.9385 -83.1953c-73.7773 0.791992 -140.102 5.15137 -198.976 13.0762c-65.4082 8.80469 -122.641 20.126 -171.697 33.9619c-49.0566 13.8369 -90.5508 27.9883 -124.481 42.4531
c3.74512 -24.4912 6.06152 -49.5312 6.94727 -75.1221c-61.499 8.61133 -115.592 19.501 -162.279 32.6689c-49.0566 13.8369 -90.5508 27.9883 -124.481 42.4531c4.90527 -32.0762 7.3584 -65.0947 7.3584 -99.0566s-2.45312 -68.8682 -7.3584 -104.717
c33.9307 14.4639 75.3223 28.6152 124.175 42.4531c46.5986 13.1973 100.728 24.1074 162.389 32.7266c-1.00586 -24.5811 -3.25586 -49.6416 -6.75 -75.1797c33.9307 14.4639 75.3223 28.6152 124.175 42.4531c48.8525 13.8359 105.982 25.1572 171.391 33.9619
c55.5664 7.47852 117.919 11.7832 187.057 12.9092c22.1572 -22.3242 44.3135 -45.4727 66.4707 -69.4463c24.4014 -26.4004 50.501 -55.001 78.3008 -85.8008s58.9004 -64.5996 93.3008 -101.4l12.5996 9c-32.8008 52.4004 -60.9004 100.5 -84.3008 144.301
s-42.7002 80.5 -57.9004 110.1c9.1084 17.9307 21.0508 40.7715 35.8281 68.5234c0.157227 -0.174805 0.31543 -0.348633 0.472656 -0.523438c8.78516 -9.7334 17.9004 -19.7666 27.3457 -30.0996c-14.1387 -14.5781 -27.0869 -27.2109 -38.8457 -37.9004
c24.4004 -24.3994 48.7998 -49.7988 73.1992 -76.1992c24.4014 -26.4004 50.501 -55.001 78.3008 -85.8008s58.9004 -64.5996 93.3008 -101.4l12.5996 9c-32.8008 52.4004 -60.9004 100.5 -84.3008 144.301s-42.7002 80.5 -57.9004 110.1
c9.1084 17.9307 21.0508 40.7715 35.8281 68.5234c0.157227 -0.174805 0.31543 -0.348633 0.472656 -0.523438c27.7998 -30.7998 58.9004 -64.5996 93.3008 -101.4l12.5996 9c-31.5244 50.3613 -58.7061 96.75 -81.5479 139.167
c22.9004 42.0049 50.082 88.5508 81.5479 139.634l-12.5996 9c-34.9336 -37.4951 -66.2061 -71.4648 -93.8184 -101.909c-13.7422 25.9795 -25.6699 48.8154 -35.7832 68.5088c12.8008 25.2012 31.2012 60.1006 55.2012 104.701c24 44.5986 52.999 94.5 87 149.699z
M1341.58 590.884c-4.05371 -4.56543 -7.99902 -9.02637 -11.8369 -13.3838c-11.6455 -13.2227 -22.7383 -25.5439 -33.2803 -36.9639c-9.98828 17.3555 -19.3438 34.1328 -28.0664 50.3301c8.62793 15.8262 17.8643 32.2969 27.708 49.4111
c3.21289 -3.44141 6.42578 -6.90039 9.63867 -10.377c11.5645 -12.5117 23.5098 -25.5166 35.8369 -39.0166z" />
</svg>
