<?xml version="1.0" standalone="no"?>
<!DOCTYPE svg PUBLIC "-//W3C//DTD SVG 1.1//EN" "http://www.w3.org/Graphics/SVG/1.1/DTD/svg11.dtd" >
<svg xmlns="http://www.w3.org/2000/svg" xmlns:xlink="http://www.w3.org/1999/xlink" version="1.1" viewBox="0 0 1639 800">
   <path fill="currentColor"
d="M394.752 749.959c-40.4561 -40.4561 -79.585 -73.3574 -117.386 -98.707c-37.8018 -25.3496 -73.4355 -44.9727 -106.899 -58.8701c-33.4658 -13.8975 -63.5029 -23.9219 -90.1113 -30.0732c25.0498 -20.3135 49.5811 -42.4766 73.5957 -66.4912
s47.5137 -49.8818 70.4941 -77.5977c6.15234 26.6064 16.127 56.5947 29.9248 89.9619c13.7988 33.3662 33.373 68.9512 58.7217 106.752c25.3506 37.7998 58.3506 77.0283 99.0039 117.682zM557.386 587.324c-40.4561 -40.457 -79.585 -73.3574 -117.386 -98.707
c-37.8018 -25.3496 -73.4346 -44.9727 -106.899 -58.8701c-33.4658 -13.8975 -63.5029 -23.9219 -90.1104 -30.0732c22.124 -17.9424 43.8457 -37.3271 65.1641 -58.1562c-22.4824 -19.4326 -44.5303 -36.3965 -66.1445 -50.8906
c-37.8008 -25.3496 -73.4346 -44.9727 -106.899 -58.8701c-33.4658 -13.8965 -63.5029 -23.9209 -90.1104 -30.0723c25.0488 -20.3135 49.5811 -42.4775 73.5957 -66.4922s47.5127 -49.8809 70.4941 -77.5977c6.15137 26.6074 16.126 56.5947 29.9248 89.9629
c13.7988 33.3662 33.373 68.9502 58.7217 106.751c14.5273 21.6631 31.5674 43.7949 51.1211 66.3955c19.7627 -20.4346 39.1699 -42.1416 58.2217 -65.1201c6.15234 26.6074 16.127 56.5947 29.9258 89.9629c13.7988 33.3662 33.3721 68.9512 58.7207 106.751
c25.3506 37.8008 58.3506 77.0293 99.0039 117.683zM720.021 424.689c-40.4561 -40.4561 -79.584 -73.3574 -117.386 -98.707c-37.8008 -25.3496 -73.4346 -44.9727 -106.899 -58.8701c-33.4658 -13.8965 -63.5029 -23.9209 -90.1104 -30.0723
c25.0488 -20.3135 49.5811 -42.4775 73.5957 -66.4922s47.5127 -49.8809 70.4941 -77.5977c6.15137 26.6064 16.126 56.5947 29.9248 89.9629c13.7988 33.3652 33.373 68.9502 58.7217 106.751c22.5869 33.6816 51.248 68.4961 85.9844 104.441
c-0.725586 -23.5879 -2.23145 -47.6162 -4.5166 -72.083c23.1641 14.4639 51.4219 28.6152 84.7734 42.4531c33.3506 13.8359 72.3535 25.1572 117.007 33.9619c34.5645 6.81445 72.9746 10.9932 115.23 12.5332c-8.12109 -82.2227 -18.0566 -155.376 -29.8047 -219.461
c-13.8369 -75.4717 -27.9883 -139.309 -42.4531 -191.51c32.0762 7.54688 65.0947 11.3213 99.0566 11.3213s68.8682 -3.77441 104.717 -11.3213c-14.4639 52.2012 -28.6152 115.88 -42.4531 191.038c-13.8359 75.1572 -25.1572 163.05 -33.9619 263.679
c-8.80371 100.629 -13.208 215.724 -13.208 345.283h-24.5273c0 -128.932 -4.40332 -243.71 -13.208 -344.34c-0.555664 -6.34766 -1.12109 -12.6465 -1.69629 -18.8945c-42.9912 1.47168 -82.0811 5.67676 -117.272 12.6152
c-44.6543 8.80469 -83.7266 20.126 -117.217 33.9619c-33.4902 13.8369 -61.8184 27.9883 -84.9824 42.4531c3.34863 -32.0762 5.02344 -65.0947 5.02344 -99.0566c0 -2.28223 -0.0078125 -4.56836 -0.0224609 -6.85938zM1284.21 800
c0 -128.932 -4.40332 -243.71 -13.208 -344.34c-8.80469 -100.629 -20.126 -188.679 -33.9619 -264.15c-13.8369 -75.4717 -27.9883 -139.309 -42.4531 -191.51c32.0762 7.54688 65.0947 11.3213 99.0566 11.3213s68.8682 -3.77441 104.717 -11.3213
c-14.4639 52.2012 -28.6152 115.88 -42.4531 191.038c-13.8359 75.1572 -25.1572 163.05 -33.9619 263.679c-8.80371 100.629 -13.208 215.724 -13.208 345.283h-24.5273zM1514.21 800c0 -128.932 -4.40332 -243.71 -13.208 -344.34
c-8.80469 -100.629 -20.126 -188.679 -33.9619 -264.15c-13.8369 -75.4717 -27.9883 -139.309 -42.4531 -191.51c32.0762 7.54688 65.0947 11.3213 99.0566 11.3213s68.8682 -3.77441 104.717 -11.3213c-14.4639 52.2012 -28.6152 115.88 -42.4531 191.038
c-13.8359 75.1572 -25.1572 163.05 -33.9619 263.679c-8.80371 100.629 -13.208 215.724 -13.208 345.283h-24.5273z" />
</svg>
