<?xml version="1.0" standalone="no"?>
<!DOCTYPE svg PUBLIC "-//W3C//DTD SVG 1.1//EN" "http://www.w3.org/Graphics/SVG/1.1/DTD/svg11.dtd" >
<svg xmlns="http://www.w3.org/2000/svg" xmlns:xlink="http://www.w3.org/1999/xlink" version="1.1" viewBox="0 0 2331 908">
   <path fill="currentColor"
d="M1967.3 593.562c-15.6807 -13.127 -31.0801 -25.4561 -46.1982 -36.9873c-52.4766 -40.0244 -100.951 -72.4893 -145.423 -97.3936c-44.4727 -24.9043 -83.8203 -44.2383 -118.041 -58.0029c26.1494 -19.2129 51.2324 -40.8262 75.2471 -64.8408
s46.9619 -50.4316 68.8428 -79.249c13.7646 34.2207 33.0264 73.4951 57.7861 117.824c24.7598 44.3271 57.1514 92.7295 97.1768 145.206c11.6367 15.2568 24.0986 30.8125 37.3848 46.668c-11.8135 11.8145 -11.8135 11.8145 -26.7754 26.7754zM2129.93 430.927
c-15.6807 -13.127 -31.0811 -25.4561 -46.1982 -36.9873c-52.4766 -40.0244 -100.951 -72.4883 -145.424 -97.3936c-44.4717 -24.9043 -83.8193 -44.2383 -118.04 -58.0029c26.1494 -19.2129 51.2324 -40.8252 75.2471 -64.8408
c24.0146 -24.0146 46.9619 -50.4316 68.8428 -79.249c13.7646 34.2207 33.0264 73.4951 57.7852 117.824c24.7607 44.3271 57.1523 92.7295 97.1777 145.206c11.6367 15.2568 24.0986 30.8125 37.3848 46.668zM2282.69 907.489
c-50.3701 -50.3701 -101.944 -88.4785 -154.721 -114.33c-52.7773 -25.8506 -104.486 -42.9395 -155.127 -51.2676c-50.6416 -8.32812 -97.2207 -11.6299 -139.731 -9.90625c51.9951 -46.0967 103.956 -95.1094 155.886 -147.039s103.828 -106.776 155.693 -164.54
c-1.72168 42.5098 1.51758 89.0254 9.72168 139.547c8.20605 50.5186 25.2334 102.166 51.084 154.943c25.8516 52.7744 64.082 104.473 114.698 155.089zM1540.96 720.062c-15.6807 -13.127 -31.0801 -25.4561 -46.1992 -36.9873
c-52.4756 -40.0244 -100.951 -72.4883 -145.423 -97.3936c-44.4727 -24.9043 -83.8193 -44.2383 -118.04 -58.0029c20.0762 -14.751 39.5234 -30.915 58.3408 -48.4961c-50.5117 -38.2412 -97.2793 -69.4082 -140.301 -93.501
c-44.4727 -24.9043 -83.8193 -44.2383 -118.04 -58.0029c26.1494 -19.2129 51.2314 -40.8252 75.2461 -64.8398s46.9629 -50.4326 68.8428 -79.25c13.7656 34.2207 33.0273 73.4951 57.7861 117.824c24.0059 42.9766 55.1855 89.7842 93.5391 140.421
c16.7734 -18.1826 32.998 -37.5977 48.6748 -58.2451c13.7656 34.2207 33.0273 73.4951 57.7861 117.824c24.7607 44.3271 57.1523 92.7295 97.1768 145.206c11.6377 15.2568 24.0996 30.8125 37.3857 46.667c-11.8145 11.8154 -11.8145 11.8154 -26.7754 26.7764z
M1066.37 867c-80 -85.8662 -145.601 -157.866 -196.801 -216c-51.1992 -58.1338 -94.3994 -103.2 -129.6 -135.2c32.5332 -32.5332 65.0664 -66.3994 97.5996 -101.6c32.5342 -35.2002 67.334 -73.334 104.4 -114.4s78.5332 -86.1338 124.4 -135.2l16.7998 12
c-43.7334 69.8672 -81.2002 134 -112.4 192.4s-56.9336 107.334 -77.2002 146.8c17.0664 33.6006 41.6006 80.1338 73.6006 139.601c32 59.4658 70.666 126 116 199.6zM1800.13 763.173c-106.368 0 -201.061 4.40332 -284.08 13.208s-155.66 20.126 -217.925 33.9619
c-62.2637 13.8369 -114.929 27.9883 -157.995 42.4531c6.22656 -32.0762 9.33984 -65.0947 9.33984 -99.0566s-3.11328 -68.8682 -9.33984 -104.717c43.0664 14.4639 95.6006 28.6152 157.606 42.4531c62.0049 13.8359 134.516 25.1572 217.535 33.9619
c78.6162 8.33691 167.936 12.7285 267.956 13.1709c-8.33691 -6.7002 -16.5918 -13.166 -24.7646 -19.3994c-52.4766 -40.0254 -100.951 -72.4893 -145.423 -97.3936c-44.4727 -24.9043 -83.8203 -44.2383 -118.041 -58.0029
c26.1504 -19.2129 51.2324 -40.8262 75.2471 -64.8408c16.8516 -16.8516 33.1787 -34.8867 48.9795 -54.1035c-58.165 -57.9629 -113.052 -106.623 -164.658 -145.985c-52.4766 -40.0244 -100.951 -72.4883 -145.423 -97.3936
c-44.4727 -24.9043 -83.8203 -44.2383 -118.041 -58.0029c26.1504 -19.2129 51.2324 -40.8252 75.2471 -64.8398s46.9629 -50.4316 68.8428 -79.249c13.7646 34.2197 33.0264 73.4941 57.7861 117.823c24.7598 44.3271 57.1514 92.7295 97.1768 145.206
c38.9248 51.0322 87.0781 105.41 144.464 163.129c1.49414 -1.93262 2.98438 -3.87793 4.46875 -5.83301c13.7646 34.2197 33.0264 73.4951 57.7861 117.824c24.7607 44.3271 57.1523 92.7295 97.1768 145.206c11.6367 15.2568 24.0986 30.8125 37.3857 46.667
c-11.8145 11.8145 -11.8145 11.8145 -26.7754 26.7764c-1.51367 -1.2666 -3.02441 -2.52637 -4.53223 -3.77832v10.7549zM354.663 756.196c-15.6807 -13.1279 -31.0811 -25.457 -46.1992 -36.9873c-52.4766 -40.0254 -100.951 -72.4893 -145.423 -97.3936
c-44.4727 -24.9043 -83.8203 -44.2383 -118.041 -58.0029c26.1504 -19.2129 51.2324 -40.8262 75.2471 -64.8408s46.9629 -50.4316 68.8428 -79.249c13.7646 34.2197 33.0264 73.4951 57.7861 117.824c24.7607 44.3271 57.1523 92.7295 97.1768 145.206
c11.6367 15.2568 24.0986 30.8125 37.3857 46.667c-11.8145 11.8145 -11.8145 11.8145 -26.7754 26.7764zM517.297 593.562c-15.6807 -13.127 -31.0801 -25.4561 -46.1982 -36.9873c-52.4766 -40.0244 -100.951 -72.4893 -145.423 -97.3936
c-44.4727 -24.9043 -83.8203 -44.2383 -118.041 -58.0029c26.1494 -19.2129 51.2324 -40.8262 75.2471 -64.8408s46.9619 -50.4316 68.8428 -79.249c13.7646 34.2207 33.0264 73.4951 57.7861 117.824c24.7598 44.3271 57.1514 92.7295 97.1768 145.206
c11.6367 15.2568 24.0986 30.8125 37.3848 46.668c-11.8135 11.8145 -11.8135 11.8145 -26.7754 26.7754zM679.932 430.927c-15.6807 -13.127 -31.0811 -25.4561 -46.1982 -36.9873c-52.4766 -40.0244 -100.951 -72.4883 -145.424 -97.3936
c-44.4717 -24.9043 -83.8193 -44.2383 -118.04 -58.0029c26.1494 -19.2129 51.2324 -40.8252 75.2471 -64.8408c24.0146 -24.0146 46.9619 -50.4316 68.8428 -79.249c13.7646 34.2207 33.0264 73.4951 57.7852 117.824c24.7607 44.3271 57.1523 92.7295 97.1777 145.206
c11.6367 15.2568 24.0986 30.8125 37.3848 46.668zM832.694 907.489c-50.3701 -50.3701 -101.944 -88.4785 -154.721 -114.33c-52.7773 -25.8506 -104.486 -42.9395 -155.127 -51.2676c-50.6416 -8.32812 -97.2207 -11.6299 -139.731 -9.90625
c51.9951 -46.0967 103.956 -95.1094 155.886 -147.039s103.828 -106.776 155.693 -164.54c-1.72168 42.5098 1.51758 89.0254 9.72168 139.547c8.20605 50.5186 25.2334 102.166 51.084 154.943c25.8516 52.7744 64.082 104.473 114.698 155.089z" />
</svg>
