<?xml version="1.0" standalone="no"?>
<!DOCTYPE svg PUBLIC "-//W3C//DTD SVG 1.1//EN" "http://www.w3.org/Graphics/SVG/1.1/DTD/svg11.dtd" >
<svg xmlns="http://www.w3.org/2000/svg" xmlns:xlink="http://www.w3.org/1999/xlink" version="1.1" viewBox="0 0 1294 894">
   <path fill="currentColor"
d="M1169.2 894c0 -128.932 -4.40332 -243.71 -13.208 -344.34c-8.80469 -100.629 -20.126 -188.679 -33.9619 -264.15c-13.8369 -75.4717 -27.9883 -139.309 -42.4531 -191.51c32.0762 7.54688 65.0947 11.3213 99.0566 11.3213s68.8682 -3.77441 104.717 -11.3213
c-14.4639 52.2012 -28.6152 115.88 -42.4531 191.038c-13.8359 75.1572 -25.1572 163.05 -33.9619 263.679c-8.80371 100.629 -13.208 215.724 -13.208 345.283h-24.5273zM939.197 894c0 -128.932 -4.40332 -243.71 -13.208 -344.34
c-8.80469 -100.629 -20.126 -188.679 -33.9619 -264.15c-13.8369 -75.4717 -27.9883 -139.309 -42.4531 -191.51c32.0762 7.54688 65.0947 11.3213 99.0566 11.3213s68.8682 -3.77441 104.717 -11.3213c-14.4639 52.2012 -28.6152 115.88 -42.4531 191.038
c-13.8359 75.1572 -25.1572 163.05 -33.9619 263.679c-8.80371 100.629 -13.208 215.724 -13.208 345.283h-24.5273zM544.622 439.731c16.2266 20.1904 33.2695 40.9268 51.1279 62.21c32.0264 38.166 67.2969 78.0645 105.813 119.694
c-1.56348 -24.7471 -3.3623 -48.7383 -5.39551 -71.9756c-3.50879 -40.1045 -7.41797 -78.2109 -11.7256 -114.319c-49.2373 0.47168 -95.8438 1.93555 -139.82 4.39062zM516.634 404.413c51.1045 3.41602 106.017 5.42773 164.734 6.03516
c-0.887695 -6.94922 -1.79102 -13.8213 -2.70996 -20.6152c-37.2529 -34.4365 -73.0527 -64.7529 -107.399 -90.9502c-52.4766 -40.0244 -100.951 -72.4883 -145.423 -97.3936c-27.6689 -15.4941 -53.3545 -28.833 -77.0557 -40.0156
c23.3457 38.7588 51.5234 82.0928 84.5352 130.004c24.3672 35.3633 52.1396 73.0078 83.3184 112.936zM447.056 447.233c-3.73535 0.374023 -7.44727 0.755859 -11.1357 1.14746c-83.0195 8.80469 -155.66 20.126 -217.925 33.9619
c-62.2637 13.8369 -114.929 27.9883 -157.995 42.4531c6.22656 -32.0762 9.33984 -65.0947 9.33984 -99.0566s-3.11328 -68.8682 -9.33984 -104.717c43.0664 14.4639 95.6006 28.6152 157.606 42.4531c45.0225 10.0469 95.584 18.7666 151.686 26.1611
c-6.63965 -4.7041 -13.2051 -9.2959 -19.6943 -13.7744c-63.1504 -43.582 -118.297 -78.7148 -165.437 -105.398c28.0176 -17.3447 54.0342 -38.0234 78.0488 -62.0381c18.6914 -18.6924 36.1709 -39.4043 52.4375 -62.1377
c-2.30664 -0.958008 -4.59082 -1.8916 -6.85254 -2.80176c6.22656 -4.5752 12.3936 -9.28613 18.499 -14.1328c0.654297 -0.989258 1.30566 -1.98242 1.95605 -2.97949c0.183594 0.325195 0.368164 0.650391 0.553711 0.976562
c18.6475 -14.958 36.7266 -31.1924 54.2383 -48.7041c24.0146 -24.0146 46.9629 -50.4316 68.8428 -79.249c13.7646 34.2197 33.0264 73.4941 57.7861 117.823c24.7598 44.3271 57.1514 92.7295 97.1768 145.206c19.2969 25.2988 40.8613 51.4199 64.6943 78.3623
c-2.97363 -19.1211 -6.08496 -37.5469 -9.33594 -55.2793c-13.8369 -75.4717 -27.9883 -139.309 -42.4531 -191.51c32.0762 7.54688 65.0947 11.3213 99.0566 11.3213s68.8682 -3.77441 104.717 -11.3213c-14.4639 52.2012 -28.6152 115.88 -42.4531 191.038
c-13.8359 75.1572 -25.1572 163.05 -33.9619 263.679c-3.1416 35.9043 -5.72266 73.6504 -7.74316 113.237c28.7676 30.29 59.165 61.4492 91.1943 93.4785l-17.3428 17.3438c-25.7305 -25.7305 -50.9131 -50.417 -75.5449 -74.0576
c-2.51465 60.9648 -3.77148 126.059 -3.77148 195.281h-24.5273c0 -81.3545 -1.75293 -157.074 -5.25879 -227.159c-0.578125 -0.542969 -1.15527 -1.08594 -1.73145 -1.62695c-99.2363 0.461914 -188.057 4.85156 -266.466 13.167
c-83.0195 8.80469 -155.66 20.126 -217.925 33.9619c-62.2637 13.8369 -114.929 27.9883 -157.995 42.4531c6.22656 -32.0762 9.33984 -65.0947 9.33984 -99.0566s-3.11328 -68.8682 -9.33984 -104.717c43.0664 14.4639 95.6006 28.6152 157.606 42.4531
c62.0049 13.8359 134.516 25.1572 217.535 33.9619c71.3691 7.56836 151.559 11.8857 240.567 12.9482c-40.0029 -36.8975 -78.4414 -70.8154 -115.314 -101.755c-39.6475 -33.2676 -77.4268 -63.7334 -113.339 -91.3975z" />
</svg>
