<?xml version="1.0" standalone="no"?>
<!DOCTYPE svg PUBLIC "-//W3C//DTD SVG 1.1//EN" "http://www.w3.org/Graphics/SVG/1.1/DTD/svg11.dtd" >
<svg xmlns="http://www.w3.org/2000/svg" xmlns:xlink="http://www.w3.org/1999/xlink" version="1.1" viewBox="0 0 1078 665">
   <path fill="currentColor"
d="M1000.05 559.652c21.6514 22.4629 44.1719 45.3896 67.5625 68.7803l-17.3428 17.3438c-24.8174 -24.8174 -49.124 -48.6631 -72.9199 -71.5352c-97.1875 0.585938 -184.312 4.96582 -261.38 13.1396c-83.0195 8.80469 -155.66 20.126 -217.925 33.9619
c-62.2637 13.8369 -114.929 27.9883 -157.995 42.4531c4.70996 -24.2646 7.63867 -49.0684 8.78613 -74.4121c-62.3594 8.65625 -117.146 19.6426 -164.358 32.959c-49.0566 13.8369 -90.5508 27.9883 -124.481 42.4531c4.90527 -32.0762 7.3584 -65.0947 7.3584 -99.0566
s-2.45312 -68.8682 -7.3584 -104.717c33.9307 14.4639 75.3223 28.6152 124.175 42.4531c47.1328 13.3486 101.97 24.3564 164.512 33.0225c-1.24121 -24.9961 -4.11914 -50.4883 -8.63281 -76.4756c43.0664 14.4639 95.6006 28.6152 157.606 42.4531
c62.0049 13.8359 134.516 25.1572 217.535 33.9619c70.1562 7.43945 148.835 11.7373 236.036 12.8906c-53.9746 -51.0625 -105.235 -96.9619 -153.783 -137.697c-23.2549 -19.5127 -45.8672 -38.0615 -67.8359 -55.6465
c-4.58105 0.452148 -9.12695 0.917969 -13.6387 1.39648c-83.0195 8.80469 -155.66 20.126 -217.925 33.9619c-62.2637 13.8369 -114.929 27.9883 -157.995 42.4531c4.70996 -24.2646 7.63867 -49.0684 8.78613 -74.4121c-62.3594 8.65625 -117.146 19.6426 -164.358 32.959
c-49.0566 13.8369 -90.5508 27.9883 -124.481 42.4531c4.90527 -32.0762 7.3584 -65.0947 7.3584 -99.0566s-2.45312 -68.8682 -7.3584 -104.717c33.9307 14.4639 75.3223 28.6152 124.175 42.4531c47.1328 13.3486 101.97 24.3564 164.512 33.0225
c-1.24121 -24.9961 -4.11914 -50.4883 -8.63281 -76.4756c43.0664 14.4639 95.6006 28.6152 157.606 42.4531c47.0684 10.5029 100.189 19.5566 159.367 27.1611c-24.3662 -18.2861 -47.8252 -35.2109 -70.376 -50.7744
c-63.1504 -43.582 -118.297 -78.7148 -165.437 -105.398c28.0176 -17.3447 54.0342 -38.0234 78.0488 -62.0381c24.0146 -24.0156 46.0283 -51.3662 66.04 -82.0518c26.6846 47.1396 61.7061 102.174 105.065 165.104c31.3574 45.5078 68.3545 94.7939 110.991 147.86
c66.2959 4.87109 139.193 7.30762 218.693 7.30762v24.5273c-67.5127 0 -130.322 1.77344 -188.429 5.32129c6.92773 8.39355 13.9873 16.876 21.1787 25.4473c45.8799 54.6768 98.4199 112.908 157.622 174.692c3.19824 0.0078125 6.4082 0.0117188 9.62793 0.0117188
v10.0068z" />
</svg>
