<?xml version="1.0" standalone="no"?>
<!DOCTYPE svg PUBLIC "-//W3C//DTD SVG 1.1//EN" "http://www.w3.org/Graphics/SVG/1.1/DTD/svg11.dtd" >
<svg xmlns="http://www.w3.org/2000/svg" xmlns:xlink="http://www.w3.org/1999/xlink" version="1.1" viewBox="0 0 1078 665">
   <path fill="currentColor"
d="M1000.05 559.652c21.6514 22.4629 44.1719 45.3896 67.5625 68.7803l-17.3428 17.3438c-24.8174 -24.8174 -49.124 -48.6631 -72.9199 -71.5352c-97.1875 0.585938 -184.312 4.96582 -261.38 13.1396c-83.0195 8.80469 -155.66 20.126 -217.925 33.9619
c-62.2637 13.8369 -114.929 27.9883 -157.995 42.4531c5.45703 -28.1104 8.52246 -56.9443 9.19727 -86.502c-31.2725 2.11426 -60.29 5.81055 -87.0518 11.0869c-44.6543 8.80469 -83.7266 20.126 -117.217 33.9619c-33.4902 13.8369 -61.8184 27.9883 -84.9824 42.4531
c3.34863 -32.0762 5.02344 -65.0947 5.02344 -99.0566s-1.6748 -68.8682 -5.02344 -104.717c23.1641 14.4639 51.4219 28.6152 84.7734 42.4531c33.3506 13.8359 72.3535 25.1572 117.007 33.9619c26.8125 5.28613 55.9385 8.98633 87.3789 11.0986
c-0.829102 -28.8359 -3.86523 -58.3408 -9.10547 -88.5137c43.0664 14.4639 95.6006 28.6152 157.606 42.4531c62.0049 13.8359 134.516 25.1572 217.535 33.9619c70.1562 7.43945 148.835 11.7373 236.036 12.8906c-53.9746 -51.0625 -105.235 -96.9619 -153.783 -137.697
c-23.2549 -19.5127 -45.8672 -38.0615 -67.8359 -55.6465c-4.58105 0.452148 -9.12695 0.917969 -13.6387 1.39648c-83.0195 8.80469 -155.66 20.126 -217.925 33.9619c-62.2637 13.8369 -114.929 27.9883 -157.995 42.4531
c5.45703 -28.1104 8.52246 -56.9443 9.19727 -86.502c-31.2725 2.11426 -60.29 5.81055 -87.0518 11.0869c-44.6543 8.80469 -83.7266 20.126 -117.217 33.9619c-33.4902 13.8369 -61.8184 27.9883 -84.9824 42.4531c3.34863 -32.0762 5.02344 -65.0947 5.02344 -99.0566
s-1.6748 -68.8682 -5.02344 -104.717c23.1641 14.4639 51.4219 28.6152 84.7734 42.4531c33.3506 13.8359 72.3535 25.1572 117.007 33.9619c26.8125 5.28613 55.9385 8.98633 87.3789 11.0986c-0.829102 -28.8359 -3.86523 -58.3408 -9.10547 -88.5137
c43.0664 14.4639 95.6006 28.6152 157.606 42.4531c47.0684 10.5029 100.189 19.5566 159.367 27.1611c-24.3662 -18.2861 -47.8252 -35.2109 -70.376 -50.7744c-63.1504 -43.582 -118.297 -78.7148 -165.437 -105.398c28.0176 -17.3447 54.0342 -38.0234 78.0488 -62.0381
c24.0146 -24.0156 46.0283 -51.3662 66.04 -82.0518c26.6846 47.1396 61.7061 102.174 105.065 165.104c31.3574 45.5078 68.3545 94.7939 110.991 147.86c66.2959 4.87109 139.193 7.30762 218.693 7.30762v24.5273c-67.5127 0 -130.322 1.77344 -188.429 5.32129
c6.92773 8.39355 13.9873 16.876 21.1787 25.4473c45.8799 54.6768 98.4199 112.908 157.622 174.692c3.19824 0.0078125 6.4082 0.0117188 9.62793 0.0117188v10.0068z" />
</svg>
