<?xml version="1.0" standalone="no"?>
<!DOCTYPE svg PUBLIC "-//W3C//DTD SVG 1.1//EN" "http://www.w3.org/Graphics/SVG/1.1/DTD/svg11.dtd" >
<svg xmlns="http://www.w3.org/2000/svg" xmlns:xlink="http://www.w3.org/1999/xlink" version="1.1" viewBox="0 0 2104 800">
   <path fill="currentColor"
d="M1259.21 800c0 -83.8057 -4.40332 -158.411 -13.208 -223.821c-0.216797 -1.61133 -0.435547 -3.21875 -0.655273 -4.82031c-71.9414 0.920898 -136.736 5.26172 -194.388 13.0225c-65.4082 8.80469 -122.641 20.126 -171.697 33.9619
c-49.0566 13.8369 -90.5508 27.9883 -124.481 42.4531c4.90527 -32.0762 7.3584 -65.0947 7.3584 -99.0566s-2.45312 -68.8682 -7.3584 -104.717c33.9307 14.4639 75.3223 28.6152 124.175 42.4531c48.8525 13.8359 105.982 25.1572 171.391 33.9619
c56.7256 7.63477 120.521 11.9609 191.39 12.9756c-8.10059 -53.1533 -18 -100.463 -29.6953 -141.932c-6.24512 -22.1426 -12.5547 -42.7441 -18.9287 -61.8057c-51.4229 1.96875 -98.8066 5.87012 -142.152 11.7051c-65.4082 8.80469 -122.641 20.126 -171.697 33.9619
c-49.0566 13.8369 -90.5508 27.9883 -124.481 42.4531c4.90527 -32.0762 7.3584 -65.0947 7.3584 -99.0566s-2.45312 -68.8682 -7.3584 -104.717c33.9307 14.4639 75.3223 28.6152 124.175 42.4531c48.8525 13.8359 105.982 25.1572 171.391 33.9619
c40.6885 5.47656 85.0156 9.25 132.98 11.3213c-4.54785 -12.3555 -9.12793 -23.9414 -13.7393 -34.7588c24.499 3.74707 49.5488 6.0625 75.1484 6.94824c-8.61523 -61.5762 -19.5137 -115.731 -32.6953 -162.467c-13.8369 -49.0566 -27.9883 -90.5508 -42.4531 -124.481
c32.0762 4.90527 65.0947 7.3584 99.0566 7.3584s68.8682 -2.45312 104.717 -7.3584c-14.4639 33.9307 -28.6152 75.3223 -42.4531 124.175c-13.2109 46.6455 -24.1289 100.837 -32.7529 162.576c24.5898 -1.00488 49.6582 -3.25488 75.2061 -6.75098
c-14.4639 33.9307 -28.6152 75.3223 -42.4531 124.175c-13.8359 48.8525 -25.1572 105.982 -33.9619 171.391c-8.80371 65.4092 -13.208 140.221 -13.208 224.435h-24.5273zM1489.21 800c0 -83.8057 -4.40332 -158.411 -13.208 -223.821
c-8.80469 -65.4082 -20.126 -122.641 -33.9619 -171.697c-13.8369 -49.0566 -27.9883 -90.5508 -42.4531 -124.481c24.499 3.74707 49.5488 6.0625 75.1484 6.94824c-8.61523 -61.5762 -19.5137 -115.731 -32.6953 -162.467
c-13.8369 -49.0566 -27.9883 -90.5508 -42.4531 -124.481c32.0762 4.90527 65.0947 7.3584 99.0566 7.3584s68.8682 -2.45312 104.717 -7.3584c-14.4639 33.9307 -28.6152 75.3223 -42.4531 124.175c-13.2109 46.6455 -24.1289 100.837 -32.7529 162.576
c24.5898 -1.00488 49.6582 -3.25488 75.2061 -6.75098c-14.4639 33.9307 -28.6152 75.3223 -42.4531 124.175c-13.8359 48.8525 -25.1572 105.982 -33.9619 171.391c-8.80371 65.4092 -13.208 140.221 -13.208 224.435h-24.5273zM1719.21 800
c0 -83.8057 -4.40332 -158.411 -13.208 -223.821c-8.80469 -65.4082 -20.126 -122.641 -33.9619 -171.697c-13.8369 -49.0566 -27.9883 -90.5508 -42.4531 -124.481c24.499 3.74707 49.5488 6.0625 75.1484 6.94824c-8.61523 -61.5762 -19.5137 -115.731 -32.6953 -162.467
c-13.8369 -49.0566 -27.9883 -90.5508 -42.4531 -124.481c32.0762 4.90527 65.0947 7.3584 99.0566 7.3584s68.8682 -2.45312 104.717 -7.3584c-14.4639 33.9307 -28.6152 75.3223 -42.4531 124.175c-13.2109 46.6455 -24.1289 100.837 -32.7529 162.576
c24.5898 -1.00488 49.6582 -3.25488 75.2061 -6.75098c-14.4639 33.9307 -28.6152 75.3223 -42.4531 124.175c-13.8359 48.8525 -25.1572 105.982 -33.9619 171.391c-8.80371 65.4092 -13.208 140.221 -13.208 224.435h-24.5273zM1979.21 800
c0 -83.8057 -4.40332 -158.411 -13.208 -223.821c-8.80469 -65.4082 -20.126 -122.641 -33.9619 -171.697c-13.8369 -49.0566 -27.9883 -90.5508 -42.4531 -124.481c24.499 3.74707 49.5488 6.0625 75.1484 6.94824c-8.61523 -61.5762 -19.5137 -115.731 -32.6953 -162.467
c-13.8369 -49.0566 -27.9883 -90.5508 -42.4531 -124.481c32.0762 4.90527 65.0947 7.3584 99.0566 7.3584s68.8682 -2.45312 104.717 -7.3584c-14.4639 33.9307 -28.6152 75.3223 -42.4531 124.175c-13.2109 46.6455 -24.1289 100.837 -32.7529 162.576
c24.5898 -1.00488 49.6582 -3.25488 75.2061 -6.75098c-14.4639 33.9307 -28.6152 75.3223 -42.4531 124.175c-13.8359 48.8525 -25.1572 105.982 -33.9619 171.391c-8.80371 65.4092 -13.208 140.221 -13.208 224.435h-24.5273zM390.019 754.692
c-15.6816 -13.127 -31.0811 -25.4561 -46.1992 -36.9873c-52.4766 -40.0244 -100.951 -72.4883 -145.423 -97.3936c-44.4727 -24.9043 -83.8203 -44.2383 -118.041 -58.0029c26.1504 -19.2119 51.2324 -40.8252 75.2471 -64.8398s46.9629 -50.4316 68.8428 -79.249
c13.7656 34.2197 33.0273 73.4941 57.7861 117.823c24.7607 44.3271 57.1523 92.7295 97.1768 145.206c11.6367 15.2568 24.0986 30.8125 37.3857 46.668zM552.652 592.058c-15.6807 -13.127 -31.0811 -25.4561 -46.1992 -36.9873
c-52.4766 -40.0244 -100.951 -72.4893 -145.423 -97.3936c-44.4727 -24.9043 -83.8193 -44.2383 -118.04 -58.0029c19.9727 -14.6748 39.3223 -30.749 58.0498 -48.2246c-49.6318 -37.4492 -95.6328 -68.0361 -138 -91.7617
c-44.4717 -24.9043 -83.8193 -44.2383 -118.04 -58.0029c26.1494 -19.2129 51.2314 -40.8262 75.2471 -64.8408c24.0146 -24.0146 46.9619 -50.4316 68.8428 -79.249c13.7646 34.2197 33.0264 73.4951 57.7852 117.824c23.6416 42.3242 54.2412 88.3643 91.7979 138.118
c16.6777 -18.0986 32.8135 -37.416 48.4062 -57.9531c13.7656 34.2207 33.0273 73.4951 57.7861 117.824c24.7607 44.3271 57.1523 92.7295 97.1768 145.206c11.6377 15.2568 24.0996 30.8125 37.3857 46.667c-11.8145 11.8154 -11.8145 11.8154 -26.7754 26.7764z
M715.287 429.423c-15.6807 -13.127 -31.0801 -25.4561 -46.1982 -36.9863c-52.4766 -40.0254 -100.952 -72.4893 -145.424 -97.3945c-44.4717 -24.9033 -83.8193 -44.2383 -118.04 -58.002c26.1494 -19.2129 51.2314 -40.8262 75.2471 -64.8408
c24.0146 -24.0146 46.9619 -50.4316 68.8428 -79.249c13.7646 34.2197 33.0264 73.4951 57.7852 117.823c24.7607 44.3281 57.1523 92.7305 97.1768 145.207c11.6377 15.2559 24.0996 30.8125 37.3867 46.667c-11.8154 11.8145 -11.8154 11.8145 -26.7764 26.7754z" />
</svg>
