<?xml version="1.0" standalone="no"?>
<!DOCTYPE svg PUBLIC "-//W3C//DTD SVG 1.1//EN" "http://www.w3.org/Graphics/SVG/1.1/DTD/svg11.dtd" >
<svg xmlns="http://www.w3.org/2000/svg" xmlns:xlink="http://www.w3.org/1999/xlink" version="1.1" viewBox="0 0 1259 900">
   <path fill="currentColor"
d="M1140 811.173c-128.932 0 -243.71 4.40332 -344.34 13.208c-100.629 8.80469 -188.679 20.126 -264.15 33.9619c-75.4717 13.8369 -139.309 27.9883 -191.51 42.4531c7.54688 -32.0762 11.3213 -65.0947 11.3213 -99.0566
c0 -32.8662 -3.53516 -66.6162 -10.6025 -101.249c-0.240234 0.101562 -0.479492 0.204102 -0.71875 0.305664c0.111328 -0.729492 0.22168 -1.45996 0.331055 -2.19043c-0.109375 -0.527344 -0.219727 -1.05469 -0.331055 -1.58301
c0.180664 0.0498047 0.362305 0.100586 0.542969 0.150391c3.42871 -23.3447 5.56348 -47.1865 6.40527 -71.5254c-61.5762 8.61523 -115.731 19.5137 -162.467 32.6953c-49.0566 13.8369 -90.5508 27.9883 -124.481 42.4531
c4.90527 -32.0762 7.3584 -65.0947 7.3584 -99.0566s-2.45312 -68.8682 -7.3584 -104.717c33.9307 14.4639 75.3223 28.6152 124.175 42.4531c46.6455 13.2109 100.837 24.1289 162.576 32.7529c-0.958008 -23.4434 -3.04785 -47.3232 -6.27051 -71.6377l-0.480469 0.205078
c0.0908203 -0.59375 0.180664 -1.18848 0.269531 -1.7832c-0.0888672 -0.663086 -0.178711 -1.32617 -0.269531 -1.99023c0.176758 0.0751953 0.354492 0.151367 0.532227 0.226562c4.55078 -30.9619 6.82617 -62.7988 6.82617 -95.5098
c0 -33.9619 -2.45312 -68.8682 -7.3584 -104.717c33.9307 14.4639 75.3223 28.6152 124.175 42.4531c47.8936 13.5645 103.744 24.7119 167.55 33.4404c-0.944336 -23.6641 -3.04395 -47.7725 -6.29785 -72.3252l-0.480469 0.205078
c0.0908203 -0.59375 0.180664 -1.18848 0.269531 -1.7832c-0.0888672 -0.663086 -0.178711 -1.32617 -0.269531 -1.99023c0.176758 0.0751953 0.354492 0.151367 0.532227 0.226562c4.55078 -30.9619 6.82617 -62.7988 6.82617 -95.5098
c0 -33.9619 -2.45312 -68.8682 -7.3584 -104.717c33.9307 14.4639 75.3223 28.6152 124.175 42.4531c48.8525 13.8359 105.982 25.1572 171.391 33.9619c49.7754 6.69922 104.995 10.8516 165.659 12.4531c-13.5068 -73.0264 -27.3135 -134.99 -41.418 -185.891
c32.0762 7.54688 65.0947 11.3213 99.0566 11.3213s68.8682 -3.77441 104.717 -11.3213c-14.4639 52.2012 -28.6152 115.88 -42.4531 191.038c-13.8359 75.1572 -25.1572 163.05 -33.9619 263.679c-8.80371 100.629 -13.208 215.724 -13.208 345.283h-18.9033v11.1729z
M631.725 572.916c-0.944336 -23.6641 -3.04395 -47.7725 -6.29785 -72.3252l-0.480469 0.205078c0.0908203 -0.59375 0.180664 -1.18848 0.269531 -1.7832c-0.0888672 -0.663086 -0.178711 -1.32617 -0.269531 -1.99023
c0.176758 0.0751953 0.354492 0.151367 0.532227 0.226562c3.4668 -23.5889 5.61328 -47.6855 6.43945 -72.2891c-63.6357 8.71973 -119.448 19.8486 -167.437 33.3828c-46.9219 13.2344 -86.9248 26.7568 -120.009 40.5664
c33.0752 13.8086 72.9756 27.3311 119.702 40.5664c47.8936 13.5645 103.744 24.7119 167.55 33.4404zM631.918 624.96c-63.6357 8.71973 -119.448 19.8486 -167.437 33.3828c-46.4727 13.1084 -86.1592 26.498 -119.058 40.1699
c51.1689 13.9463 113.04 27.6006 185.614 40.9629c75.1572 13.8359 163.05 25.1572 263.679 33.9619c99.166 8.67578 212.381 13.0791 339.644 13.2051c-0.147461 -61.7744 -1.32129 -120.25 -3.52148 -175.428c-78.0938 0.469727 -147.997 4.8584 -209.714 13.166
c-65.4082 8.80469 -122.641 20.126 -171.697 33.9619c-49.0566 13.8369 -90.5508 27.9883 -124.481 42.4531c3.78027 -24.7188 6.10449 -49.998 6.97168 -75.8359zM629.419 298.909c33.0752 13.8086 72.9756 27.3311 119.702 40.5664
c48.8525 13.8359 105.982 25.1572 171.391 33.9619c57.4189 7.72852 122.084 12.0664 193.995 13.0107c-6.75 -63.9482 -14.6465 -122.159 -23.6914 -174.632c-62.1504 1.51367 -118.713 5.70215 -169.69 12.5645c-65.4082 8.80469 -122.641 20.126 -171.697 33.9619
c-46.9219 13.2344 -86.9248 26.7568 -120.009 40.5664zM629.419 498.909c33.0752 13.8086 72.9756 27.3311 119.702 40.5664c48.8525 13.8359 105.982 25.1572 171.391 33.9619c61.4561 8.27148 131.212 12.6592 209.268 13.1602
c-2.12988 -46.0254 -5.00098 -89.6709 -8.61133 -130.938c-1.31738 -15.0547 -2.69043 -29.8281 -4.12109 -44.3203c-72.5547 0.87793 -137.86 5.22559 -195.922 13.041c-65.4082 8.80469 -122.641 20.126 -171.697 33.9619
c-46.9219 13.2344 -86.9248 26.7568 -120.009 40.5664z" />
</svg>
