<?xml version="1.0" standalone="no"?>
<!DOCTYPE svg PUBLIC "-//W3C//DTD SVG 1.1//EN" "http://www.w3.org/Graphics/SVG/1.1/DTD/svg11.dtd" >
<svg xmlns="http://www.w3.org/2000/svg" xmlns:xlink="http://www.w3.org/1999/xlink" version="1.1" viewBox="0 0 1259 900">
   <path fill="currentColor"
d="M1140 811.173c-128.932 0 -243.71 4.40332 -344.34 13.208c-100.629 8.80469 -188.679 20.126 -264.15 33.9619c-75.4717 13.8369 -139.309 27.9883 -191.51 42.4531c7.54688 -32.0762 11.3213 -65.0947 11.3213 -99.0566
c0 -32.9062 -3.54297 -66.6982 -10.6279 -101.375c-0.231445 0.143555 -0.462891 0.288086 -0.693359 0.431641c0.0878906 -0.842773 0.174805 -1.68555 0.260742 -2.5293c-0.0869141 -0.415039 -0.173828 -0.829102 -0.260742 -1.24414
c0.125 0.0341797 0.25 0.0693359 0.375 0.103516c2.72266 -27.1699 4.24902 -55.0137 4.58008 -83.5312c-29.6387 2.15625 -57.2236 5.75195 -82.7559 10.7861c-44.6543 8.80469 -83.7266 20.126 -117.217 33.9619c-33.4902 13.8369 -61.8184 27.9883 -84.9824 42.4531
c3.34863 -32.0762 5.02344 -65.0947 5.02344 -99.0566s-1.6748 -68.8682 -5.02344 -104.717c23.1641 14.4639 51.4219 28.6152 84.7734 42.4531c33.3506 13.8359 72.3535 25.1572 117.007 33.9619c25.5908 5.04492 53.2891 8.64551 83.0967 10.7998
c-0.456055 -27.2842 -1.97266 -55.167 -4.54883 -83.6465l-0.328125 0.205078c0.0615234 -0.59375 0.123047 -1.18848 0.18457 -1.7832c-0.0615234 -0.663086 -0.123047 -1.32617 -0.18457 -1.99023c0.121094 0.0751953 0.242188 0.151367 0.363281 0.226562
c3.10645 -30.9619 4.66016 -62.7988 4.66016 -95.5098c0 -33.9619 -1.6748 -68.8682 -5.02344 -104.717c23.1641 14.4639 51.4219 28.6152 84.7734 42.4531c33.3506 13.8359 72.3535 25.1572 117.007 33.9619c27.6465 5.4502 57.7539 9.21484 90.3213 11.292
c-0.65332 -27.4414 -2.87793 -55.4883 -6.6748 -84.1387l-0.480469 0.205078c0.0908203 -0.59375 0.180664 -1.18848 0.269531 -1.7832c-0.0888672 -0.663086 -0.178711 -1.32617 -0.269531 -1.99023c0.176758 0.0751953 0.354492 0.151367 0.532227 0.226562
c4.55078 -30.9619 6.82617 -62.7988 6.82617 -95.5098c0 -33.9619 -2.45312 -68.8682 -7.3584 -104.717c33.9307 14.4639 75.3223 28.6152 124.175 42.4531c48.8525 13.8359 105.982 25.1572 171.391 33.9619c49.7754 6.69922 104.995 10.8516 165.659 12.4531
c-13.5068 -73.0264 -27.3135 -134.99 -41.418 -185.891c32.0762 7.54688 65.0947 11.3213 99.0566 11.3213s68.8682 -3.77441 104.717 -11.3213c-14.4639 52.2012 -28.6152 115.88 -42.4531 191.038c-13.8359 75.1572 -25.1572 163.05 -33.9619 263.679
c-8.80371 100.629 -13.208 215.724 -13.208 345.283h-18.9033v11.1729zM632.102 584.729c-0.65332 -27.4414 -2.87793 -55.4883 -6.6748 -84.1387l-0.480469 0.205078c0.0908203 -0.59375 0.180664 -1.18848 0.269531 -1.7832
c-0.0888672 -0.663086 -0.178711 -1.32617 -0.269531 -1.99023c0.176758 0.0751953 0.354492 0.151367 0.532227 0.226562c4.02246 -27.3672 6.2666 -55.417 6.73438 -84.1504c-32.4043 2.07812 -62.4092 5.83887 -90.0137 11.2822
c-44.6543 8.80469 -83.7266 20.126 -117.217 33.9619c-32.0332 13.2344 -59.3428 26.7568 -81.9287 40.5664c22.5801 13.8086 49.8193 27.3311 81.7197 40.5664c33.3506 13.8359 72.3535 25.1572 117.007 33.9619c27.6465 5.4502 57.7539 9.21484 90.3213 11.292z
M632.213 613.099c-32.4043 2.07812 -62.4092 5.83887 -90.0137 11.2822c-44.6543 8.80469 -83.7266 20.126 -117.217 33.9619c-31.4756 13.0049 -58.3916 26.2871 -80.7461 39.8457c51.3984 14.0586 113.665 27.8213 186.802 41.2871
c75.1572 13.8359 163.05 25.1572 263.679 33.9619c99.166 8.67578 212.381 13.0791 339.644 13.2051c-0.147461 -61.7744 -1.32129 -120.25 -3.52148 -175.428c-78.0938 0.469727 -147.997 4.8584 -209.714 13.166c-65.4082 8.80469 -122.641 20.126 -171.697 33.9619
c-49.0566 13.8369 -90.5508 27.9883 -124.481 42.4531c4.35645 -28.4893 6.7793 -57.7207 7.2666 -87.6973zM629.419 298.909c33.0752 13.8086 72.9756 27.3311 119.702 40.5664c48.8525 13.8359 105.982 25.1572 171.391 33.9619
c57.4189 7.72852 122.084 12.0664 193.995 13.0107c-6.75 -63.9482 -14.6465 -122.159 -23.6914 -174.632c-62.1504 1.51367 -118.713 5.70215 -169.69 12.5645c-65.4082 8.80469 -122.641 20.126 -171.697 33.9619c-46.9219 13.2344 -86.9248 26.7568 -120.009 40.5664z
M629.419 498.909c33.0752 13.8086 72.9756 27.3311 119.702 40.5664c48.8525 13.8359 105.982 25.1572 171.391 33.9619c61.4561 8.27148 131.212 12.6592 209.268 13.1602c-2.12988 -46.0254 -5.00098 -89.6709 -8.61133 -130.938
c-1.31738 -15.0547 -2.69043 -29.8281 -4.12109 -44.3203c-72.5547 0.87793 -137.86 5.22559 -195.922 13.041c-65.4082 8.80469 -122.641 20.126 -171.697 33.9619c-46.9219 13.2344 -86.9248 26.7568 -120.009 40.5664z" />
</svg>
