<?xml version="1.0" standalone="no"?>
<!DOCTYPE svg PUBLIC "-//W3C//DTD SVG 1.1//EN" "http://www.w3.org/Graphics/SVG/1.1/DTD/svg11.dtd" >
<svg xmlns="http://www.w3.org/2000/svg" xmlns:xlink="http://www.w3.org/1999/xlink" version="1.1" viewBox="0 0 1321 792">
   <path fill="currentColor"
d="M1310.05 113.173c-128.932 0 -243.71 4.40332 -344.34 13.208c-100.629 8.80469 -188.679 20.126 -264.15 33.9619c-74.8574 13.7246 -138.268 27.7578 -190.231 42.0996c23.6992 0.801758 48.2559 1.20312 73.668 1.20312v24.5273
c-83.8057 0 -158.411 4.40332 -223.821 13.208c-65.4082 8.80469 -122.641 20.126 -171.697 33.9619c-49.0566 13.8369 -90.5508 27.9883 -124.481 42.4531c4.90527 -32.0762 7.3584 -65.0947 7.3584 -99.0566s-2.45312 -68.8682 -7.3584 -104.717
c33.9307 14.4639 75.3223 28.6152 124.175 42.4531c48.8525 13.8359 105.982 25.1572 171.391 33.9619c45.3418 6.10254 95.2021 10.0918 149.581 11.9648c7.48535 -31.9531 11.2285 -64.8398 11.2285 -98.6631c0 -33.9619 -3.77441 -68.8682 -11.3213 -104.717
c52.2012 14.4639 115.88 28.6152 191.038 42.4531c75.1572 13.8359 163.05 25.1572 263.679 33.9619c100.629 8.80371 215.724 13.208 345.283 13.208v24.5273zM511.332 492.442c23.6992 0.801758 48.2559 1.20312 73.668 1.20312v24.5273
c-25.3896 0 -49.9336 0.404297 -73.6348 1.21191c51.9551 14.3379 115.197 28.3682 189.727 42.0908c75.1572 13.8359 163.05 25.1572 263.679 33.9619c12.7764 1.11816 25.7852 2.16504 39.0283 3.14062c-1.99609 -31.626 -4.52148 -61.8447 -7.57715 -90.6582
c-3.46289 -32.6494 -7.31445 -63.6934 -11.5557 -93.1318c-6.37207 0.513672 -12.6895 1.04492 -18.9521 1.59277c-100.629 8.80469 -188.679 20.126 -264.15 33.9619c-74.8574 13.7246 -138.268 27.7578 -190.231 42.0996zM510.146 492.402
c7.48535 -31.9531 11.2285 -64.8398 11.2285 -98.6631c0 -33.9619 -3.77441 -68.8682 -11.3213 -104.717c52.2012 14.4639 115.88 28.6152 191.038 42.4531c75.1572 13.8359 163.05 25.1572 263.679 33.9619c4.09082 0.358398 8.20605 0.708984 12.3457 1.05176
c-4.58008 -27.0342 -9.53223 -52.5322 -14.8564 -76.4941c-13.8369 -62.2637 -27.9883 -114.929 -42.4531 -157.995c32.0762 6.22656 65.0947 9.33984 99.0566 9.33984s68.8682 -3.11328 104.717 -9.33984c-14.4639 43.0664 -28.6152 95.6006 -42.4531 157.606
c-5.75977 25.8105 -11.083 53.4424 -15.9717 82.8945c74.9043 4.0957 156.537 6.14453 244.898 6.14453v24.5273c-90.5449 0 -174.11 2.17188 -250.696 6.51465c-4.49316 30.6934 -8.55762 63.1777 -12.1924 97.4541c-3.15527 29.752 -5.74512 61.0361 -7.76953 93.8535
c81.8418 5.09961 172.062 7.65039 270.658 7.65039v24.5273c-99.3389 0 -190.275 2.61426 -272.812 7.84082c-2.18945 47.3623 -3.28418 97.6904 -3.28418 150.986h-24.5273c0 -52.4639 -1.07129 -102.086 -3.21289 -148.869
c-13.7471 1.00684 -27.248 2.08984 -40.5029 3.25c-100.629 8.80469 -188.679 20.126 -264.15 33.9619c-75.4717 13.8369 -139.309 27.9883 -191.51 42.4531c7.54688 -32.0762 11.3213 -65.0947 11.3213 -99.0566c0 -33.834 -3.74609 -68.6055 -11.2363 -104.312
c-54.0557 1.87695 -103.708 5.8623 -148.96 11.9531c-65.4082 8.80469 -122.641 20.126 -171.697 33.9619c-49.0566 13.8369 -90.5508 27.9883 -124.481 42.4531c4.90527 -32.0762 7.3584 -65.0947 7.3584 -99.0566s-2.45312 -68.8682 -7.3584 -104.717
c33.9307 14.4639 75.3223 28.6152 124.175 42.4531c48.8525 13.8359 105.982 25.1572 171.391 33.9619c45.3418 6.10254 95.2021 10.0918 149.581 11.9648z" />
</svg>
