<?xml version="1.0" standalone="no"?>
<!DOCTYPE svg PUBLIC "-//W3C//DTD SVG 1.1//EN" "http://www.w3.org/Graphics/SVG/1.1/DTD/svg11.dtd" >
<svg xmlns="http://www.w3.org/2000/svg" xmlns:xlink="http://www.w3.org/1999/xlink" version="1.1" viewBox="0 0 1159 909">
   <path fill="currentColor"
d="M835.106 249.173c-83.8057 0 -158.411 4.40332 -223.821 13.208c-65.4082 8.80469 -122.641 20.126 -171.697 33.9619c-49.0566 13.8369 -90.5508 27.9883 -124.481 42.4531c4.90527 -32.0762 7.3584 -65.0947 7.3584 -99.0566
c0 -32.7031 -2.27441 -66.2812 -6.82324 -100.734c-28.2275 45.7295 -52.7412 88.0605 -73.542 126.995c-23.4004 43.8008 -42.7002 80.5 -57.9004 110.1c12.8008 25.2012 31.2012 60.1006 55.2012 104.701c24 44.5986 52.999 94.5 87 149.699l-12.5996 9
c-60 -64.3994 -109.201 -118.399 -147.602 -162c-38.3984 -43.6006 -70.7988 -77.4004 -97.1992 -101.4c24.4004 -24.3994 48.7998 -49.7988 73.1992 -76.1992c24.4014 -26.4004 50.501 -55.001 78.3008 -85.8008s58.9004 -64.5996 93.3008 -101.4l12.5996 9
c-3.0127 4.8125 -5.98535 9.58984 -8.91895 14.3301c33.4814 14.1143 74.0811 27.9297 121.8 41.4463c48.8525 13.8359 105.982 25.1572 171.391 33.9619c59.6084 8.02246 127.025 12.3926 202.25 13.1045c-13.1699 -8.2207 -26.0225 -15.8408 -38.5566 -22.8604
c-44.4727 -24.9043 -83.8193 -44.2383 -118.04 -58.0029c26.1494 -19.2129 51.2314 -40.8252 75.2461 -64.8398s46.9629 -50.4326 68.8428 -79.25c13.7656 34.2207 33.0273 73.4951 57.7861 117.824c24.7607 44.3271 57.1523 92.7295 97.1768 145.206
c10.9756 14.3887 22.6846 29.043 35.126 43.9639c-1.03125 -5.93164 -2.07617 -11.7891 -3.13672 -17.5732c-13.8369 -75.4717 -27.9883 -139.309 -42.4531 -191.51c32.0762 7.54688 65.0947 11.3213 99.0566 11.3213s68.8682 -3.77441 104.717 -11.3213
c-14.4639 52.2012 -28.6152 115.88 -42.4531 191.038c-13.8359 75.1572 -25.1572 163.05 -33.9619 263.679c-8.80371 100.629 -13.208 215.724 -13.208 345.283h-24.5273c0 -26.6836 -0.188477 -52.7607 -0.56543 -78.2324
c-75.2656 0.68457 -142.826 5.05566 -202.686 13.1133c-65.4082 8.80469 -122.641 20.126 -171.697 33.9619c-49.0566 13.8369 -90.5508 27.9883 -124.481 42.4531c4.90527 -32.0762 7.3584 -65.0947 7.3584 -99.0566c0 -32.834 -2.29297 -66.5508 -6.87793 -101.148
l-0.480469 0.205078c0.0908203 -0.59375 0.180664 -1.18848 0.269531 -1.7832c-0.0888672 -0.663086 -0.178711 -1.32617 -0.269531 -1.99023c0.176758 0.0751953 0.354492 0.151367 0.532227 0.226562c4.55078 -30.9619 6.82617 -62.7988 6.82617 -95.5098
c0 -32.834 -2.29297 -66.5508 -6.87793 -101.148l-0.480469 0.205078c0.0908203 -0.59375 0.180664 -1.18848 0.269531 -1.7832c-0.0888672 -0.663086 -0.178711 -1.32617 -0.269531 -1.99023c0.176758 0.0751953 0.354492 0.151367 0.532227 0.226562
c4.55078 -30.9619 6.82617 -62.7988 6.82617 -95.5098c0 -33.9619 -2.45312 -68.8682 -7.3584 -104.717c33.9307 14.4639 75.3223 28.6152 124.175 42.4531c48.8525 13.8359 105.982 25.1572 171.391 33.9619c51.8428 6.97754 109.591 11.1914 173.246 12.6396
c-3.94043 -29.1914 -8.16895 -56.9453 -12.6846 -83.2617c-10.3154 10.3164 -10.96 10.9609 -25.2461 25.2471c-15.6807 -13.127 -31.0801 -25.4561 -46.1992 -36.9873c-29.4912 -22.4932 -57.7178 -42.5986 -84.6816 -60.3164v10.4141zM394.536 898
c0 -83.8057 -4.40332 -158.411 -13.208 -223.821c-8.80469 -65.4082 -20.126 -122.641 -33.9619 -171.697c-13.8369 -49.0566 -27.9883 -90.5508 -42.4531 -124.481c32.0762 4.90527 65.0947 7.3584 99.0566 7.3584s68.8682 -2.45312 104.717 -7.3584
c-14.4639 33.9307 -28.6152 75.3223 -42.4531 124.175c-13.8359 48.8525 -25.1572 105.982 -33.9619 171.391c-8.80371 65.4092 -13.208 140.221 -13.208 224.435h-24.5273zM1033.54 794.547c-1.23828 -62.1182 -3.63477 -120.517 -7.18848 -175.196
c-72.2129 0.901367 -137.234 5.24512 -195.067 13.0303c-65.4082 8.80469 -122.641 20.126 -171.697 33.9619c-46.9219 13.2344 -86.9248 26.7568 -120.009 40.5664c33.0752 13.8086 72.9756 27.3311 119.702 40.5664c48.8525 13.8359 105.982 25.1572 171.391 33.9619
c59.7715 8.04492 127.395 12.416 202.869 13.1094zM1024.64 594.448c-1.02344 -14.0176 -2.12598 -27.7803 -3.30762 -41.2881c-4.13574 -47.2715 -8.82715 -91.7676 -14.0742 -133.487c-64.624 1.37891 -123.28 5.61523 -175.969 12.708
c-65.4082 8.80469 -122.641 20.126 -171.697 33.9619c-46.9219 13.2344 -86.9248 26.7568 -120.009 40.5664c33.0752 13.8086 72.9756 27.3311 119.702 40.5664c48.8525 13.8359 105.982 25.1572 171.391 33.9619c57.4111 7.72754 122.065 12.0654 193.964 13.0107z" />
</svg>
