<?xml version="1.0" standalone="no"?>
<!DOCTYPE svg PUBLIC "-//W3C//DTD SVG 1.1//EN" "http://www.w3.org/Graphics/SVG/1.1/DTD/svg11.dtd" >
<svg xmlns="http://www.w3.org/2000/svg" xmlns:xlink="http://www.w3.org/1999/xlink" version="1.1" viewBox="0 0 1450 910">
   <path fill="currentColor"
d="M1440 669.173c-128.932 0 -243.71 4.40332 -344.34 13.208c-100.629 8.80469 -188.679 20.126 -264.15 33.9619c-75.4717 13.8369 -139.309 27.9883 -191.51 42.4531c4.90527 -32.0762 7.3584 -65.0947 7.3584 -99.0566s-2.45312 -68.8682 -7.3584 -104.717
c52.2012 14.4639 115.88 28.6152 191.038 42.4531c75.1572 13.8359 163.05 25.1572 263.679 33.9619c100.629 8.80371 215.724 13.208 345.283 13.208v24.5273zM1440 439.173c-128.932 0 -243.71 4.40332 -344.34 13.208c-100.629 8.80469 -188.679 20.126 -264.15 33.9619
c-75.4717 13.8369 -139.309 27.9883 -191.51 42.4531c4.90527 -32.0762 7.3584 -65.0947 7.3584 -99.0566s-2.45312 -68.8682 -7.3584 -104.717c52.2012 14.4639 115.88 28.6152 191.038 42.4531c75.1572 13.8359 163.05 25.1572 263.679 33.9619
c100.629 8.80371 215.724 13.208 345.283 13.208v24.5273zM1020.83 336.062c-15.6807 -13.127 -31.0801 -25.4561 -46.1992 -36.9873c-52.4756 -40.0244 -100.951 -72.4883 -145.423 -97.3936c-44.4727 -24.9043 -83.8193 -44.2383 -118.04 -58.0029
c26.1494 -19.2129 51.2314 -40.8252 75.2461 -64.8398s46.9629 -50.4326 68.8428 -79.25c13.7656 34.2207 33.0273 73.4951 57.7861 117.824c24.7607 44.3271 57.1523 92.7295 97.1768 145.206c11.6377 15.2568 24.0996 30.8125 37.3857 46.667
c-11.8145 11.8154 -11.8145 11.8154 -26.7754 26.7764zM676.827 910.062c-15.6807 -13.127 -31.0801 -25.4561 -46.1992 -36.9873c-52.4756 -40.0244 -100.951 -72.4883 -145.423 -97.3936c-44.4727 -24.9043 -83.8193 -44.2383 -118.04 -58.0029
c17.4395 -12.8135 34.4043 -26.6943 50.8945 -41.6426c-19.6953 1.77148 -38.6729 3.88672 -56.9346 6.34473c-65.4082 8.80469 -122.641 20.126 -171.697 33.9619c-49.0566 13.8369 -90.5508 27.9883 -124.481 42.4531
c0.113281 -0.741211 0.225586 -1.48242 0.335938 -2.22363c-1.78027 0.740234 -3.54102 1.48145 -5.28223 2.22363c4.90527 -32.0762 7.3584 -65.0947 7.3584 -99.0566s-2.45312 -68.8682 -7.3584 -104.717c1.72949 0.737305 3.47754 1.47363 5.24512 2.20898
c-0.0986328 -0.736328 -0.198242 -1.47266 -0.298828 -2.20898c33.9307 14.4639 75.3223 28.6152 124.175 42.4531c48.8525 13.8359 105.982 25.1572 171.391 33.9619c29.375 3.9541 60.6455 7.02051 93.8135 9.19824c19.7178 -20.6807 38.6943 -43.0303 56.9287 -67.0469
c8.67188 21.5586 19.5254 45.123 32.5605 70.6934c7.82812 0.140625 15.7451 0.241211 23.748 0.299805c-2.05371 -61.5137 -5.85156 -118.4 -11.3945 -170.662c-1.24219 -11.7129 -2.53418 -23.2188 -3.87695 -34.5176c-70.6553 1.00781 -134.376 5.33398 -191.166 12.9785
c-65.4082 8.80469 -122.641 20.126 -171.697 33.9619c-49.0566 13.8369 -90.5508 27.9883 -124.481 42.4531c0.113281 -0.741211 0.225586 -1.48242 0.335938 -2.22363c-1.78027 0.740234 -3.54102 1.48145 -5.28223 2.22363
c4.90527 -32.0762 7.3584 -65.0947 7.3584 -99.0566s-2.45312 -68.8682 -7.3584 -104.717c1.72949 0.737305 3.47754 1.47363 5.24512 2.20898c-0.0986328 -0.736328 -0.198242 -1.47266 -0.298828 -2.20898c33.9307 14.4639 75.3223 28.6152 124.175 42.4531
c48.8525 13.8359 105.982 25.1572 171.391 33.9619c56.001 7.53711 118.895 11.8496 188.681 12.9346c-7.56836 -58.6807 -16.5635 -111.473 -26.9863 -158.377c-13.8369 -62.2637 -27.9883 -114.929 -42.4531 -157.995c32.0762 6.22656 65.0947 9.33984 99.0566 9.33984
s68.8682 -3.11328 104.717 -9.33984c-14.4639 43.0664 -28.6152 95.6006 -42.4531 157.606c-13.8359 62.0049 -25.1572 134.516 -33.9619 217.535c-8.12109 76.583 -12.499 163.323 -13.1289 260.218c20.4111 32.4619 44.4883 66.8818 72.2344 103.26
c11.6377 15.2568 24.0996 30.8125 37.3857 46.667c-11.8145 11.8154 -11.8145 11.8154 -26.7754 26.7764zM556.942 669.341c3.78906 7.05371 7.73047 14.2461 11.8213 21.5771c-0.136719 -7.28906 -0.295898 -14.5176 -0.477539 -21.6865
c-3.80078 0.0273438 -7.58203 0.0634766 -11.3438 0.109375z" />
</svg>
