<?xml version="1.0" standalone="no"?>
<!DOCTYPE svg PUBLIC "-//W3C//DTD SVG 1.1//EN" "http://www.w3.org/Graphics/SVG/1.1/DTD/svg11.dtd" >
<svg xmlns="http://www.w3.org/2000/svg" xmlns:xlink="http://www.w3.org/1999/xlink" version="1.1" viewBox="0 0 1419 810">
   <path fill="currentColor"
d="M585 491.173c-83.8057 0 -158.411 4.40332 -223.821 13.208c-65.4082 8.80469 -122.641 20.126 -171.697 33.9619c-49.0566 13.8369 -90.5508 27.9883 -124.481 42.4531c4.90527 -32.0762 7.3584 -65.0947 7.3584 -99.0566s-2.45312 -68.8682 -7.3584 -104.717
c33.9307 14.4639 75.3223 28.6152 124.175 42.4531c48.8525 13.8359 105.982 25.1572 171.391 33.9619c65.4092 8.80371 140.221 13.208 224.435 13.208v24.5273zM1321.2 287.147c28.4746 -0.69043 57.5996 -3.07324 87.376 -7.14746
c-14.4639 33.9307 -28.6152 75.3223 -42.4531 124.175c-13.8359 48.8525 -25.1572 105.982 -33.9619 171.391c-8.80371 65.4092 -13.208 140.221 -13.208 224.435h-24.5273c0 -27.2432 -0.464844 -53.5137 -1.39551 -78.8135
c-167.155 0.279297 -316.434 4.67773 -447.839 13.1943c-135.85 8.80469 -254.717 20.126 -356.604 33.9619c-101.887 13.8369 -188.066 27.9883 -258.538 42.4531c10.1885 -32.0762 15.2842 -65.0947 15.2842 -99.0566s-5.0957 -68.8682 -15.2842 -104.717
c70.4717 14.4639 156.438 28.6152 257.901 42.4531c101.462 13.8359 220.117 25.1572 355.966 33.9619c131.149 8.49902 280.499 12.8984 448.048 13.1924c-2.16016 -43.1221 -5.74219 -83.2715 -10.7471 -120.451c-8.80469 -65.4082 -20.126 -122.641 -33.9619 -171.697
c-13.8369 -49.0566 -27.9883 -90.5508 -42.4531 -124.481c28.3838 4.34082 57.5049 6.76074 87.3652 7.26074c-0.616211 -8.80762 -1.3584 -17.4346 -2.22754 -25.8828c-48.709 0.961914 -92.6055 5.2959 -131.691 13.0029
c-44.6543 8.80469 -83.7266 20.126 -117.217 33.9619c-33.4902 13.8369 -61.8184 27.9883 -84.9824 42.4531c2.95801 -28.3311 4.60938 -57.3984 4.95508 -87.2012c-29.6387 2.15625 -57.2236 5.75195 -82.7559 10.7861c-44.6543 8.80469 -83.7266 20.126 -117.217 33.9619
c-33.4902 13.8369 -61.8184 27.9883 -84.9824 42.4531c2.95801 -28.3311 4.60938 -57.3984 4.95508 -87.2012c-29.6387 2.15625 -57.2236 5.75195 -82.7559 10.7861c-44.6543 8.80469 -83.7266 20.126 -117.217 33.9619c-33.4902 13.8369 -61.8184 27.9883 -84.9824 42.4531
c3.34863 -32.0762 5.02344 -65.0947 5.02344 -99.0566s-1.6748 -68.8682 -5.02344 -104.717c23.1641 14.4639 51.4219 28.6152 84.7734 42.4531c33.3506 13.8359 72.3535 25.1572 117.007 33.9619c25.5908 5.04492 53.2891 8.64551 83.0967 10.7998
c-0.475586 -28.4229 -2.10059 -57.4951 -4.87695 -87.2148c23.1641 14.4639 51.4219 28.6152 84.7734 42.4531c33.3506 13.8359 72.3535 25.1572 117.007 33.9619c25.5908 5.04492 53.2891 8.64551 83.0967 10.7998c-0.475586 -28.4229 -2.10059 -57.4951 -4.87695 -87.2148
c23.1641 14.4639 51.4219 28.6152 84.7734 42.4531c33.3506 13.8359 72.3535 25.1572 117.007 33.9619c38.3086 7.55273 81.3408 11.8672 129.099 12.9414c-1.63672 -11.7754 -3.54004 -23.168 -5.71094 -34.1797c-8.80469 -44.6543 -20.126 -83.7266 -33.9619 -117.217
c-13.8369 -33.4902 -27.9883 -61.8184 -42.4531 -84.9824c32.0762 3.34863 65.0947 5.02344 99.0566 5.02344s68.8682 -1.6748 104.717 -5.02344c-14.4639 23.1641 -28.6152 51.4219 -42.4531 84.7734c-13.8359 33.3506 -25.1572 72.3535 -33.9619 117.007
c-5.17285 26.2393 -8.82715 54.6953 -10.9609 85.3672z" />
</svg>
