<?xml version="1.0" standalone="no"?>
<!DOCTYPE svg PUBLIC "-//W3C//DTD SVG 1.1//EN" "http://www.w3.org/Graphics/SVG/1.1/DTD/svg11.dtd" >
<svg xmlns="http://www.w3.org/2000/svg" xmlns:xlink="http://www.w3.org/1999/xlink" version="1.1" viewBox="0 0 1659 810">
   <path fill="currentColor"
d="M1509.05 721.173c-128.932 0 -243.71 4.40332 -344.34 13.208c-100.629 8.80469 -188.679 20.126 -264.15 33.9619c-75.4717 13.8369 -139.309 27.9883 -191.51 42.4531c7.54688 -32.0762 11.3213 -65.0947 11.3213 -99.0566s-3.77441 -68.8682 -11.3213 -104.717
c52.2012 14.4639 115.88 28.6152 191.038 42.4531c24.9062 4.58496 51.2119 8.89453 78.915 12.9268c-51.6055 -55.6152 -94.5781 -102.916 -128.914 -141.902c-38.3984 -43.6006 -70.7988 -77.4004 -97.1992 -101.4c24.4004 -24.3994 48.7998 -49.7988 73.1992 -76.1992
c24.4014 -26.4004 50.501 -55.001 78.3008 -85.8008c19.707 -21.834 41.0723 -45.1748 64.0967 -70.0234c-23.6738 3.54883 -46.3154 7.30469 -67.9268 11.2666c-75.4717 13.8369 -139.309 27.9883 -191.51 42.4531c7.54688 -32.0762 11.3213 -65.0947 11.3213 -99.0566
s-3.77441 -68.8682 -11.3213 -104.717c52.2012 14.4639 115.88 28.6152 191.038 42.4531c75.1572 13.8359 163.05 25.1572 263.679 33.9619c95.1074 8.32031 203.136 12.7109 324.085 13.168c-0.198242 -0.709961 -0.396484 -1.41797 -0.595703 -2.12402
c-13.8369 -49.0566 -27.9883 -90.5508 -42.4531 -124.481c32.0762 4.90527 65.0947 7.3584 99.0566 7.3584s68.8682 -2.45312 104.717 -7.3584c-14.4639 33.9307 -28.6152 75.3223 -42.4531 124.175c-13.2109 46.6455 -24.1289 100.837 -32.7529 162.576
c24.5898 -1.00488 49.6582 -3.25488 75.2061 -6.75098c-14.4639 33.9307 -28.6152 75.3223 -42.4531 124.175c-13.8359 48.8525 -25.1572 105.982 -33.9619 171.391c-8.80371 65.4092 -13.208 140.221 -13.208 224.435h-24.5273
c0 -83.8057 -4.40332 -158.411 -13.208 -223.821c-8.80469 -65.4082 -20.126 -122.641 -33.9619 -171.697c-13.8369 -49.0566 -27.9883 -90.5508 -42.4531 -124.481c24.499 3.74707 49.5488 6.0625 75.1484 6.94824c-7.02051 -50.1807 -15.5586 -95.4316 -25.6113 -135.756
c-106.097 0.279297 -202.447 3.58984 -289.054 9.93262l5.00391 3.57422c-32.8008 52.4004 -60.9004 100.5 -84.3008 144.301s-42.7002 80.5 -57.9004 110.1c12.8008 25.2012 31.2012 60.1006 55.2012 104.701c24 44.5986 52.999 94.5 87 149.699l-12.5996 9
c-60 -64.3994 -109.201 -118.399 -147.602 -162c-38.3984 -43.6006 -70.7988 -77.4004 -97.1992 -101.4c24.4004 -24.3994 48.7998 -49.7988 73.1992 -76.1992c24.4014 -26.4004 50.501 -55.001 78.3008 -85.8008c26.167 -28.9902 55.2578 -60.6387 87.2715 -94.9453
c-9.09375 0.708008 -18.0771 1.4502 -26.9512 2.22656c-59.6123 5.21582 -114.81 11.3145 -165.594 18.2969c-28.0527 45.4717 -52.4287 87.5791 -73.127 126.322c-23.4004 43.8008 -42.7002 80.5 -57.9004 110.1c12.8008 25.2012 31.2012 60.1006 55.2012 104.701
c22.9307 42.6123 50.4258 90.0645 82.4863 142.354c48.6182 6.55957 101.282 12.3203 157.99 17.2822c100.629 8.80371 215.724 13.208 345.283 13.208v24.5273zM580 666.173c-83.8057 0 -158.411 4.40332 -223.821 13.208
c-65.4082 8.80469 -122.641 20.126 -171.697 33.9619c-49.0566 13.8369 -90.5508 27.9883 -124.481 42.4531c4.90527 -32.0762 7.3584 -65.0947 7.3584 -99.0566s-2.45312 -68.8682 -7.3584 -104.717c33.9307 14.4639 75.3223 28.6152 124.175 42.4531
c48.8525 13.8359 105.982 25.1572 171.391 33.9619c60.9688 8.20605 130.107 12.5898 207.414 13.1475c-29.1201 -32.043 -55.2822 -61.2383 -78.4863 -87.585c-38.0605 -43.2158 -71.7002 -79.21 -100.92 -107.983c-9.28516 1.03906 -18.3994 2.16113 -27.3408 3.36426
c-65.4082 8.80469 -122.641 20.126 -171.697 33.9619c-49.0566 13.8369 -90.5508 27.9883 -124.481 42.4531c4.90527 -32.0762 7.3584 -65.0947 7.3584 -99.0566s-2.45312 -68.8682 -7.3584 -104.717c33.9307 14.4639 75.3223 28.6152 124.175 42.4531
c48.8525 13.8359 105.982 25.1572 171.391 33.9619c5.69531 0.766602 11.4629 1.5 17.3008 2.19922c26.5244 -26.9258 53.0488 -54.7373 79.5732 -83.4365c31.6025 -34.1924 65.3428 -71.1523 101.222 -110.88c-73.2012 0.833008 -139.045 5.1875 -197.536 13.0605
c-65.4082 8.80469 -122.641 20.126 -171.697 33.9619c-49.0566 13.8369 -90.5508 27.9883 -124.481 42.4531c4.90527 -32.0762 7.3584 -65.0947 7.3584 -99.0566s-2.45312 -68.8682 -7.3584 -104.717c33.9307 14.4639 75.3223 28.6152 124.175 42.4531
c48.8525 13.8359 105.982 25.1572 171.391 33.9619c64.3867 8.66602 137.884 13.0693 220.492 13.2051c32.04 -35.252 67.1182 -73.2666 105.236 -114.043l16.7998 12c-43.7334 69.8672 -81.2002 134 -112.4 192.4s-56.9336 107.334 -77.2002 146.8
c17.0664 33.6006 41.6006 80.1338 73.6006 139.601c32 59.4658 70.666 126 116 199.6l-16.7998 12c-36.8135 -39.5137 -70.5781 -76.0908 -101.294 -109.731v5.9043zM1397.69 682.5c-60 -64.3994 -109.201 -118.399 -147.602 -162
c-38.3984 -43.6006 -70.7988 -77.4004 -97.1992 -101.4c24.4004 -24.3994 48.7998 -49.7988 73.1992 -76.1992c24.4014 -26.4004 50.501 -55.001 78.3008 -85.8008s58.9004 -64.5996 93.3008 -101.4l12.5996 9c-32.8008 52.4004 -60.9004 100.5 -84.3008 144.301
s-42.7002 80.5 -57.9004 110.1c12.8008 25.2012 31.2012 60.1006 55.2012 104.701c24 44.5986 52.999 94.5 87 149.699z" />
</svg>
