<?xml version="1.0" standalone="no"?>
<!DOCTYPE svg PUBLIC "-//W3C//DTD SVG 1.1//EN" "http://www.w3.org/Graphics/SVG/1.1/DTD/svg11.dtd" >
<svg xmlns="http://www.w3.org/2000/svg" xmlns:xlink="http://www.w3.org/1999/xlink" version="1.1" viewBox="0 0 1159 810">
   <path fill="currentColor"
d="M1034.43 800c0 -128.932 -4.40332 -243.71 -13.208 -344.34c-8.80469 -100.629 -20.126 -188.679 -33.9619 -264.15c-13.8369 -75.4717 -27.9883 -139.309 -42.4531 -191.51c32.0762 7.54688 65.0947 11.3213 99.0566 11.3213s68.8682 -3.77441 104.717 -11.3213
c-14.4639 52.2012 -28.6152 115.88 -42.4531 191.038c-13.8359 75.1572 -25.1572 163.05 -33.9619 263.679c-8.80371 100.629 -13.208 215.724 -13.208 345.283h-24.5273zM804.43 800c0 -128.932 -4.40332 -243.71 -13.208 -344.34
c-8.80469 -100.629 -20.126 -188.679 -33.9619 -264.15c-13.8369 -75.4717 -27.9883 -139.309 -42.4531 -191.51c32.0762 7.54688 65.0947 11.3213 99.0566 11.3213s68.8682 -3.77441 104.717 -11.3213c-14.4639 52.2012 -28.6152 115.88 -42.4531 191.038
c-13.8359 75.1572 -25.1572 163.05 -33.9619 263.679c-8.80371 100.629 -13.208 215.724 -13.208 345.283h-24.5273zM81.7822 443.91c30.5244 12.0762 66.3213 23.9316 107.393 35.5654c48.8525 13.8359 105.982 25.1572 171.391 33.9619
c60.5928 8.15527 129.254 12.5352 205.984 13.1367c-1.54785 -24.3711 -3.32422 -48.0088 -5.32812 -70.9141c-2.86523 -32.749 -5.99707 -64.166 -9.39551 -94.25c-70.4492 1.02051 -133.997 5.34473 -190.647 12.9707c-65.4082 8.80469 -122.641 20.126 -171.697 33.9619
c-41.2461 11.6338 -77.1455 23.4902 -107.699 35.5674zM66.8457 437.806c3.6748 -27.9824 5.5127 -56.6709 5.5127 -86.0664c0 -33.9619 -2.45312 -68.8682 -7.3584 -104.717c33.9307 14.4639 75.3223 28.6152 124.175 42.4531
c48.8525 13.8359 105.982 25.1572 171.391 33.9619c55.9082 7.52539 118.686 11.8359 188.333 12.9297c-6.30762 -52.1465 -13.4561 -100.082 -21.4473 -143.81c-35.9375 1.92871 -69.0029 5.86914 -99.1982 11.8232c-44.6543 8.80469 -83.7266 20.126 -117.217 33.9619
c-33.4902 13.8369 -61.8184 27.9883 -84.9824 42.4531c3.34863 -32.0762 5.02344 -65.0947 5.02344 -99.0566s-1.6748 -68.8682 -5.02344 -104.717c23.1641 14.4639 51.4219 28.6152 84.7734 42.4531c33.3506 13.8359 72.3535 25.1572 117.007 33.9619
c28.8135 5.68066 60.2988 9.5293 94.458 11.5459c-12.252 -64.0186 -24.7471 -119.013 -37.4854 -164.983c32.0762 7.54688 65.0947 11.3213 99.0566 11.3213s68.8682 -3.77441 104.717 -11.3213c-14.4639 52.2012 -28.6152 115.88 -42.4531 191.038
c-13.8359 75.1572 -25.1572 163.05 -33.9619 263.679c-8.80371 100.629 -13.208 215.724 -13.208 345.283h-24.5273c0 -26.8828 -0.191406 -53.1514 -0.574219 -78.8037c-54.2959 0.355469 -102.83 4.75098 -145.603 13.1846
c-44.6543 8.80469 -83.7266 20.126 -117.217 33.9619c-33.4902 13.8369 -61.8184 27.9883 -84.9824 42.4531c3.34863 -32.0762 5.02344 -65.0947 5.02344 -99.0566s-1.6748 -68.8682 -5.02344 -104.717c23.1641 14.4639 51.4219 28.6152 84.7734 42.4531
c33.3506 13.8359 72.3535 25.1572 117.007 33.9619c42.6699 8.41211 91.2002 12.8076 145.592 13.1816c-1.02051 -50.9668 -2.82129 -99.4287 -5.40137 -145.385c-76.9385 0.557617 -145.886 4.94043 -206.846 13.1465c-65.4082 8.80469 -122.641 20.126 -171.697 33.9619
c-49.0566 13.8369 -90.5508 27.9883 -124.481 42.4531c4.90527 -32.0762 7.3584 -65.0947 7.3584 -99.0566c0 -29.8252 -1.8916 -60.3779 -5.6748 -91.6582c-0.563477 0.238281 -1.12402 0.476562 -1.68359 0.714844c0.332031 -2.16797 0.652344 -4.34082 0.960938 -6.51758
c-0.308594 -2.41406 -0.628906 -4.83301 -0.960938 -7.25586c0.613281 0.260742 1.22852 0.522461 1.8457 0.783203z" />
</svg>
