<?xml version="1.0" standalone="no"?>
<!DOCTYPE svg PUBLIC "-//W3C//DTD SVG 1.1//EN" "http://www.w3.org/Graphics/SVG/1.1/DTD/svg11.dtd" >
<svg xmlns="http://www.w3.org/2000/svg" xmlns:xlink="http://www.w3.org/1999/xlink" version="1.1" viewBox="0 0 968 800">
   <path fill="currentColor"
d="M368.559 637.823c-0.574219 -97.3975 -4.95508 -184.698 -13.1436 -261.903c-8.80469 -83.0195 -20.126 -155.66 -33.9619 -217.925c-13.8369 -62.2637 -27.9883 -114.929 -42.4531 -157.995c32.0762 6.22656 65.0947 9.33984 99.0566 9.33984
s68.8682 -3.11328 104.717 -9.33984c-14.4639 43.0664 -28.6152 95.6006 -42.4531 157.606c-13.8359 62.0049 -25.1572 134.516 -33.9619 217.535c-8.27637 78.0469 -12.665 166.642 -13.1602 265.783c37.9795 4.62109 78.2354 8.79102 120.766 12.5127
c96.1201 8.40918 205.439 12.8047 327.957 13.1816c-2.02637 -76.1338 -5.8623 -146.453 -11.5059 -210.959c-0.55957 -6.3916 -1.12891 -12.7324 -1.70801 -19.0225c-44.5645 1.34277 -84.9844 5.59082 -121.261 12.7432
c-44.6543 8.80469 -83.7266 20.126 -117.217 33.9619c-33.4902 13.8369 -61.8184 27.9883 -84.9824 42.4531c3.34863 -32.0762 5.02344 -65.0947 5.02344 -99.0566s-1.6748 -68.8682 -5.02344 -104.717c23.1641 14.4639 51.4219 28.6152 84.7734 42.4531
c33.3506 13.8359 72.3535 25.1572 117.007 33.9619c35.6553 7.0293 75.4033 11.2539 119.244 12.6719c-8.12402 -82.2793 -18.0635 -155.479 -29.8184 -219.6c-13.8369 -75.4717 -27.9883 -139.309 -42.4531 -191.51c32.0762 7.54688 65.0947 11.3213 99.0566 11.3213
s68.8682 -3.77441 104.717 -11.3213c-14.4639 52.2012 -28.6152 115.88 -42.4531 191.038c-13.8359 75.1572 -25.1572 163.05 -33.9619 263.679c-8.80371 100.629 -13.208 215.724 -13.208 345.283h-24.5273c0 -37.4619 -0.37207 -73.7295 -1.11523 -108.802
c-122.147 0.366211 -231.347 4.76074 -327.601 13.1826c-100.629 8.80469 -188.679 20.126 -264.15 33.9619c-75.4717 13.8369 -139.309 27.9883 -191.51 42.4531c7.54688 -32.0762 11.3213 -65.0947 11.3213 -99.0566s-3.77441 -68.8682 -11.3213 -104.717
c23.876 6.61523 50.1533 13.166 78.832 19.6504c-1.4248 -81 -5.64648 -154.584 -12.6641 -220.753c-8.80469 -83.0195 -20.126 -155.66 -33.9619 -217.925c-13.8369 -62.2637 -27.9883 -114.929 -42.4531 -157.995c32.0762 6.22656 65.0947 9.33984 99.0566 9.33984
s68.8682 -3.11328 104.717 -9.33984c-14.4639 43.0664 -28.6152 95.6006 -42.4531 157.606c-13.8359 62.0049 -25.1572 134.516 -33.9619 217.535c-7.18652 67.7646 -11.4414 143.48 -12.7617 227.148c26.9648 5.78125 55.8613 11.5098 86.6885 17.1855
c36.4316 6.70703 75.8564 12.8232 118.273 18.3477z" />
</svg>
