<?xml version="1.0" standalone="no"?>
<!DOCTYPE svg PUBLIC "-//W3C//DTD SVG 1.1//EN" "http://www.w3.org/Graphics/SVG/1.1/DTD/svg11.dtd" >
<svg xmlns="http://www.w3.org/2000/svg" xmlns:xlink="http://www.w3.org/1999/xlink" version="1.1" viewBox="0 0 1497 940">
   <path fill="currentColor"
d="M1055.5 576.194c0 -42.9111 -3.30176 -81.1104 -9.90527 -114.601c-6.60352 -33.4912 -15.0947 -62.7949 -25.4717 -87.9131c-10.3779 -25.1172 -20.9912 -46.3633 -31.8398 -63.7363c24.0566 2.51074 48.8213 3.76758 74.292 3.76758
c1.99316 0 3.99023 -0.0078125 5.99121 -0.0234375c-1.63965 -40.7197 -5.77344 -77.8828 -12.3994 -111.489c-8.80469 -44.6543 -20.126 -83.7266 -33.9619 -117.217c-13.8369 -33.4902 -27.9883 -61.8184 -42.4531 -84.9824
c32.0762 3.34863 65.0947 5.02344 99.0566 5.02344s68.8682 -1.6748 104.717 -5.02344c-14.4639 23.1641 -28.6152 51.4219 -42.4531 84.7734c-13.8359 33.3506 -25.1572 72.3535 -33.9619 117.007c-6.60156 33.4844 -10.7295 70.5771 -12.3809 111.279
c15.2197 -0.610352 30.6816 -1.64844 46.3838 -3.11523c-10.8477 17.373 -21.4619 38.5664 -31.8398 63.5801c-10.377 25.0127 -18.8682 54.2646 -25.4717 87.7549c-6.60254 33.4902 -9.90625 71.7959 -9.90625 114.915h-18.3955zM1228 576.194
c0 -42.9111 -3.30176 -81.1104 -9.90527 -114.601c-6.60352 -33.4912 -15.0947 -62.7949 -25.4717 -87.9131c-10.3779 -25.1172 -20.9912 -46.3633 -31.8398 -63.7363c24.0566 2.51074 48.8213 3.76758 74.292 3.76758c20.665 0 41.7959 -0.827148 63.3926 -2.48047
c-1.70508 -39.7588 -5.80371 -76.1025 -12.2969 -109.032c-8.80469 -44.6543 -20.126 -83.7266 -33.9619 -117.217c-13.8369 -33.4902 -27.9883 -61.8184 -42.4531 -84.9824c32.0762 3.34863 65.0947 5.02344 99.0566 5.02344s68.8682 -1.6748 104.717 -5.02344
c-14.4639 23.1641 -28.6152 51.4219 -42.4531 84.7734c-13.8359 33.3506 -25.1572 72.3535 -33.9619 117.007c-8.80371 44.6543 -13.208 95.7275 -13.208 153.22h-24.5273c0 -6.57129 -0.0576172 -13.0596 -0.173828 -19.4639
c-5.88281 11.4941 -11.6934 24.1572 -17.4316 37.9883c-10.377 25.0127 -18.8682 54.2646 -25.4717 87.7549c-6.60254 33.4902 -9.90625 71.7959 -9.90625 114.915h-18.3955zM1400.5 576.194c0 -42.9111 -3.30176 -81.1104 -9.90527 -114.601
c-6.60352 -33.4912 -15.0947 -62.7949 -25.4717 -87.9131c-10.3779 -25.1172 -20.9912 -46.3633 -31.8398 -63.7363c24.0566 2.51074 48.8213 3.76758 74.292 3.76758c25.4717 0 51.6514 -1.25684 78.5381 -3.76758c-10.8477 17.373 -21.4619 38.5664 -31.8398 63.5801
c-10.377 25.0127 -18.8682 54.2646 -25.4717 87.7549c-6.60254 33.4902 -9.90625 71.7959 -9.90625 114.915h-18.3955zM1223.76 909.944c0 -53.4258 -7.14062 -100.987 -21.4199 -142.687c-14.2803 -41.6982 -32.6406 -78.1836 -55.0801 -109.457
c-22.4404 -31.2734 -45.3916 -57.7266 -68.8506 -79.3564c52.0215 3.12695 105.57 4.69043 160.65 4.69043c55.0791 0 111.689 -1.56348 169.829 -4.69043c-23.457 21.6299 -46.4082 48.0176 -68.8506 79.1611c-22.4385 31.1436 -40.7988 67.5635 -55.0791 109.262
c-14.2783 41.6982 -21.4209 89.3906 -21.4209 143.077h-39.7783zM823.487 631.64c-5.61914 -48.9121 -12.1562 -94.0381 -19.6113 -135.377c-95.8105 0.667969 -181.795 5.04102 -257.956 13.1182c-83.0195 8.80469 -155.66 20.126 -217.925 33.9619
c-30.5283 6.78418 -58.749 13.6445 -84.6621 20.5801c25.8203 6.92578 53.9111 13.7764 84.2734 20.5527c62.0049 13.8359 134.516 25.1572 217.535 33.9619c81.3281 8.62402 174.11 13.0273 278.346 13.2021zM826.195 656.175
c-104.823 0.103516 -198.247 4.50684 -280.275 13.2061c-83.0195 8.80469 -155.66 20.126 -217.925 33.9619c-41.0371 9.11914 -77.9043 18.376 -110.602 27.7686c10.9473 2.12891 22.1621 4.25 33.6445 6.36426c75.1572 13.8359 163.05 25.1572 263.679 33.9619
c94.334 8.25293 201.381 12.6396 321.139 13.1562c-2.19434 -45.5264 -5.41504 -88.333 -9.66016 -128.419zM799.216 471.521c-2.25977 -11.4912 -4.59668 -22.667 -7.00977 -33.5264c-8.26367 -37.1855 -16.6396 -70.9473 -25.1279 -101.285
c-81.1602 1.41797 -154.879 5.6416 -221.158 12.6709c-83.0195 8.80469 -155.66 20.126 -217.925 33.9619c-30.5283 6.78418 -58.749 13.6445 -84.6621 20.5801c25.8203 6.92578 53.9111 13.7764 84.2734 20.5527c62.0049 13.8359 134.516 25.1572 217.535 33.9619
c74.9609 7.94922 159.653 12.3115 254.074 13.084zM173.582 564.994c-1.05078 -7.61328 -2.24414 -15.2705 -3.58203 -22.9717c2.07227 0.696289 4.16602 1.3916 6.28223 2.08594c2.03809 -18.8145 3.05762 -37.9375 3.05762 -57.3691
c0 -20.6191 -1.14746 -41.5869 -3.44238 -62.9023c-1.98535 0.652344 -3.95117 1.30566 -5.89746 1.95898c1.33789 -6.89062 2.53125 -13.8242 3.58203 -20.8018c-1.05078 -7.61328 -2.24414 -15.2705 -3.58203 -22.9717c2.07227 0.696289 4.16602 1.3916 6.28223 2.08594
c2.03809 -18.8145 3.05762 -37.9375 3.05762 -57.3691c0 -20.6191 -1.14746 -41.5869 -3.44238 -62.9023c-1.98535 0.652344 -3.95117 1.30566 -5.89746 1.95898c1.33789 -6.89062 2.53125 -13.8242 3.58203 -20.8018
c-1.05078 -7.61328 -2.24414 -15.2705 -3.58203 -22.9717c2.07227 0.696289 4.16602 1.3916 6.28223 2.08594c2.03809 -18.8145 3.05762 -37.9375 3.05762 -57.3691c0 -33.9619 -3.11328 -68.8682 -9.33984 -104.717c43.0664 14.4639 95.6006 28.6152 157.606 42.4531
c62.0049 13.8359 134.516 25.1572 217.535 33.9619c78.9785 8.375 168.759 12.7686 269.339 13.1768c-6.51074 -24.2383 -13.9365 -46.4482 -22.2744 -66.6318c-13.8369 -33.4902 -27.9883 -61.8184 -42.4531 -84.9824c32.0762 3.34863 65.0947 5.02344 99.0566 5.02344
s68.8682 -1.6748 104.717 -5.02344c-14.4639 23.1641 -28.6152 51.4219 -42.4531 84.7734c-13.8359 33.3506 -25.1572 72.3535 -33.9619 117.007c-5.28125 26.7881 -8.97949 55.8867 -11.0938 87.2959c28.5166 -0.871094 57.6865 -3.89648 87.5088 -9.07617
c-14.4639 43.0664 -28.6152 95.6006 -42.4531 157.606c-13.8359 62.0049 -25.1572 134.516 -33.9619 217.535c-8.80371 83.0186 -13.208 177.972 -13.208 284.858h-24.5273c0 -45.7529 -0.814453 -89.3467 -2.44434 -130.779
c-119.594 0.49707 -226.683 4.88379 -321.271 13.1602c-100.629 8.80469 -188.679 20.126 -264.15 33.9619c-75.4717 13.8369 -139.309 27.9883 -191.51 42.4531c7.54688 -32.0762 11.3213 -65.0947 11.3213 -99.0566s-3.77441 -68.8682 -11.3213 -104.717
c33.3164 9.23145 71.3076 18.335 113.975 27.3115c3.57715 -24.6562 5.36523 -49.8545 5.36523 -75.5947c0 -20.6191 -1.14746 -41.5869 -3.44238 -62.9023c-1.98535 0.652344 -3.95117 1.30566 -5.89746 1.95898c1.33789 -6.89062 2.53125 -13.8242 3.58203 -20.8018z
M759.604 310.976c-3.26758 -10.8252 -6.55176 -21.1504 -9.85156 -30.9756c28.4268 5.51855 57.5928 8.59082 87.5 9.21875c-2.11523 -31.2607 -5.80957 -60.2666 -11.085 -87.0195c-1.75391 -8.89258 -3.60645 -17.5645 -5.55957 -26.0146
c-102.559 0.251953 -194.12 4.65137 -274.688 13.1963c-83.0195 8.80469 -155.66 20.126 -217.925 33.9619c-30.5283 6.78418 -58.749 13.6445 -84.6621 20.5801c25.8203 6.92578 53.9111 13.7764 84.2734 20.5527c62.0049 13.8359 134.516 25.1572 217.535 33.9619
c64.3232 6.82129 135.811 11.001 214.463 12.5381z" />
</svg>
