<?xml version="1.0" standalone="no"?>
<!DOCTYPE svg PUBLIC "-//W3C//DTD SVG 1.1//EN" "http://www.w3.org/Graphics/SVG/1.1/DTD/svg11.dtd" >
<svg xmlns="http://www.w3.org/2000/svg" xmlns:xlink="http://www.w3.org/1999/xlink" version="1.1" viewBox="0 0 1497 940">
   <path fill="currentColor"
d="M1050.48 576.194c-1.35449 -15.2783 -2.98242 -29.9834 -4.88477 -44.1162c-6.60352 -49.0566 -15.0947 -91.9805 -25.4717 -128.773c-10.3779 -36.792 -20.9912 -67.9131 -31.8398 -93.3604c22.8037 3.4873 46.2441 5.32227 70.3184 5.50391
c-0.770508 -6.50977 -1.58203 -12.9326 -2.43457 -19.2695c-8.80469 -65.4082 -20.126 -122.641 -33.9619 -171.697c-13.8369 -49.0566 -27.9883 -90.5508 -42.4531 -124.481c32.0762 4.90527 65.0947 7.3584 99.0566 7.3584s68.8682 -2.45312 104.717 -7.3584
c-14.4639 33.9307 -28.6152 75.3223 -42.4531 124.175c-13.8359 48.8525 -25.1572 105.982 -33.9619 171.391c-0.808594 6.00781 -1.58008 12.0957 -2.31445 18.2627c11.959 -0.913086 24.0645 -2.20703 36.3174 -3.88379
c-10.8477 25.4473 -21.4619 56.4912 -31.8398 93.1309c-10.377 36.6396 -18.8682 79.4863 -25.4717 128.543c-1.91992 14.2627 -3.56055 29.1211 -4.92188 44.5762h-28.4004zM1222.98 576.194c-1.35449 -15.2783 -2.9834 -29.9834 -4.88477 -44.1162
c-6.60352 -49.0566 -15.0947 -91.9805 -25.4717 -128.773c-10.3779 -36.792 -20.9912 -67.9131 -31.8398 -93.3604c24.0566 3.67871 48.8213 5.51855 74.292 5.51855c17.4111 0 35.1523 -0.859375 53.2246 -2.57812c-0.678711 -5.63379 -1.38867 -11.2021 -2.12891 -16.7061
c-8.80469 -65.4082 -20.126 -122.641 -33.9619 -171.697c-13.8369 -49.0566 -27.9883 -90.5508 -42.4531 -124.481c32.0762 4.90527 65.0947 7.3584 99.0566 7.3584s68.8682 -2.45312 104.717 -7.3584c-14.4639 33.9307 -28.6152 75.3223 -42.4531 124.175
c-13.8359 48.8525 -25.1572 105.982 -33.9619 171.391c-0.651367 4.83984 -1.27832 9.73047 -1.88184 14.6729c23.4443 3.48242 47.5596 5.22461 72.3428 5.22461c25.4717 0 51.6514 -1.83984 78.5381 -5.51855c-10.8477 25.4473 -21.4619 56.4912 -31.8398 93.1309
c-10.377 36.6396 -18.8682 79.4863 -25.4717 128.543c-1.91992 14.2627 -3.56055 29.1211 -4.92285 44.5762h-28.3994c-1.35449 -15.2783 -2.9834 -29.9834 -4.88477 -44.1162c-6.60352 -49.0566 -15.0947 -91.9805 -25.4717 -128.773
c-9.88574 -35.0459 -19.9844 -64.9463 -30.2969 -89.6992c-1.60059 13.4219 -3.02637 27.2207 -4.27539 41.3945h-33.9473c-4.99512 14.7822 -9.93945 30.8076 -14.8301 48.0752c-10.377 36.6396 -18.8682 79.4863 -25.4717 128.543
c-1.91992 14.2627 -3.56055 29.1211 -4.92285 44.5762h-28.3994zM1223.76 909.944c0 -53.4258 -7.14062 -100.987 -21.4199 -142.687c-14.2803 -41.6982 -32.6406 -78.1836 -55.0801 -109.457c-22.4404 -31.2734 -45.3916 -57.7266 -68.8506 -79.3564
c52.0215 3.12695 105.57 4.69043 160.65 4.69043c55.0791 0 111.689 -1.56348 169.829 -4.69043c-23.457 21.6299 -46.4082 48.0176 -68.8506 79.1611c-22.4385 31.1436 -40.7988 67.5635 -55.0791 109.262c-14.2783 41.6982 -21.4209 89.3906 -21.4209 143.077h-39.7783z
M823.487 631.64c-5.61914 -48.9121 -12.1562 -94.0381 -19.6113 -135.377c-95.8105 0.667969 -181.795 5.04102 -257.956 13.1182c-83.0195 8.80469 -155.66 20.126 -217.925 33.9619c-30.5283 6.78418 -58.749 13.6445 -84.6621 20.5801
c25.8203 6.92578 53.9111 13.7764 84.2734 20.5527c62.0049 13.8359 134.516 25.1572 217.535 33.9619c81.3281 8.62402 174.11 13.0273 278.346 13.2021zM826.195 656.175c-104.823 0.103516 -198.247 4.50684 -280.275 13.2061
c-83.0195 8.80469 -155.66 20.126 -217.925 33.9619c-41.0371 9.11914 -77.9043 18.376 -110.602 27.7686c10.9473 2.12891 22.1621 4.25 33.6445 6.36426c75.1572 13.8359 163.05 25.1572 263.679 33.9619c94.334 8.25293 201.381 12.6396 321.139 13.1562
c-2.19434 -45.5264 -5.41504 -88.333 -9.66016 -128.419zM799.216 471.521c-2.25977 -11.4912 -4.59668 -22.667 -7.00977 -33.5264c-8.26367 -37.1855 -16.6396 -70.9473 -25.1279 -101.285c-81.1602 1.41797 -154.879 5.6416 -221.158 12.6709
c-83.0195 8.80469 -155.66 20.126 -217.925 33.9619c-30.5283 6.78418 -58.749 13.6445 -84.6621 20.5801c25.8203 6.92578 53.9111 13.7764 84.2734 20.5527c62.0049 13.8359 134.516 25.1572 217.535 33.9619c74.9609 7.94922 159.653 12.3115 254.074 13.084z
M173.582 564.994c-1.05078 -7.61328 -2.24414 -15.2705 -3.58203 -22.9717c2.07227 0.696289 4.16602 1.3916 6.28223 2.08594c2.03809 -18.8145 3.05762 -37.9375 3.05762 -57.3691c0 -20.6191 -1.14746 -41.5869 -3.44238 -62.9023
c-1.98535 0.652344 -3.95117 1.30566 -5.89746 1.95898c1.33789 -6.89062 2.53125 -13.8242 3.58203 -20.8018c-1.05078 -7.61328 -2.24414 -15.2705 -3.58203 -22.9717c2.07227 0.696289 4.16602 1.3916 6.28223 2.08594
c2.03809 -18.8145 3.05762 -37.9375 3.05762 -57.3691c0 -20.6191 -1.14746 -41.5869 -3.44238 -62.9023c-1.98535 0.652344 -3.95117 1.30566 -5.89746 1.95898c1.33789 -6.89062 2.53125 -13.8242 3.58203 -20.8018
c-1.05078 -7.61328 -2.24414 -15.2705 -3.58203 -22.9717c2.07227 0.696289 4.16602 1.3916 6.28223 2.08594c2.03809 -18.8145 3.05762 -37.9375 3.05762 -57.3691c0 -33.9619 -3.11328 -68.8682 -9.33984 -104.717c43.0664 14.4639 95.6006 28.6152 157.606 42.4531
c62.0049 13.8359 134.516 25.1572 217.535 33.9619c75.0029 7.9541 159.746 12.3164 254.23 13.085c-2.30859 -9.27441 -4.69727 -18.2881 -7.16602 -27.041c-13.8369 -49.0566 -27.9883 -90.5508 -42.4531 -124.481c32.0762 4.90527 65.0947 7.3584 99.0566 7.3584
s68.8682 -2.45312 104.717 -7.3584c-14.4639 33.9307 -28.6152 75.3223 -42.4531 124.175c-13.3408 47.1064 -24.3447 101.908 -33.0078 164.407c24.6709 -1.26855 49.8252 -4.12891 75.4609 -8.58203c-14.4639 43.0664 -28.6152 95.6006 -42.4531 157.606
c-13.8359 62.0049 -25.1572 134.516 -33.9619 217.535c-8.80371 83.0186 -13.208 177.972 -13.208 284.858h-24.5273c0 -45.7529 -0.814453 -89.3467 -2.44434 -130.779c-119.594 0.49707 -226.683 4.88379 -321.271 13.1602
c-100.629 8.80469 -188.679 20.126 -264.15 33.9619c-75.4717 13.8369 -139.309 27.9883 -191.51 42.4531c7.54688 -32.0762 11.3213 -65.0947 11.3213 -99.0566s-3.77441 -68.8682 -11.3213 -104.717c33.3164 9.23145 71.3076 18.335 113.975 27.3115
c3.57715 -24.6562 5.36523 -49.8545 5.36523 -75.5947c0 -20.6191 -1.14746 -41.5869 -3.44238 -62.9023c-1.98535 0.652344 -3.95117 1.30566 -5.89746 1.95898c1.33789 -6.89062 2.53125 -13.8242 3.58203 -20.8018zM759.604 310.976
c-3.26758 -10.8252 -6.55176 -21.1504 -9.85156 -30.9756c24.583 4.77246 49.7197 7.71582 75.4102 8.83008c-5.6582 -40.7607 -12.3115 -78.2861 -19.9619 -112.576c-96.3428 0.636719 -182.77 5.0127 -259.281 13.127c-83.0195 8.80469 -155.66 20.126 -217.925 33.9619
c-30.5283 6.78418 -58.749 13.6445 -84.6621 20.5801c25.8203 6.92578 53.9111 13.7764 84.2734 20.5527c62.0049 13.8359 134.516 25.1572 217.535 33.9619c64.3232 6.82129 135.811 11.001 214.463 12.5381z" />
</svg>
