<?xml version="1.0" standalone="no"?>
<!DOCTYPE svg PUBLIC "-//W3C//DTD SVG 1.1//EN" "http://www.w3.org/Graphics/SVG/1.1/DTD/svg11.dtd" >
<svg xmlns="http://www.w3.org/2000/svg" xmlns:xlink="http://www.w3.org/1999/xlink" version="1.1" viewBox="0 0 1818 986">
   <path fill="currentColor"
d="M580 511.173c-83.8057 0 -158.411 4.40332 -223.821 13.208c-65.4082 8.80469 -122.641 20.126 -171.697 33.9619c-49.0566 13.8369 -90.5508 27.9883 -124.481 42.4531c4.90527 -32.0762 7.3584 -65.0947 7.3584 -99.0566s-2.45312 -68.8682 -7.3584 -104.717
c33.9307 14.4639 75.3223 28.6152 124.175 42.4531c48.8525 13.8359 105.982 25.1572 171.391 33.9619c65.4092 8.80371 140.221 13.208 224.435 13.208v24.5273zM1674.64 986.5c-60 -64.3994 -109.201 -118.399 -147.602 -162
c-29.1338 -33.0811 -54.8154 -60.5195 -77.042 -82.3174c-35.0371 0.521484 -69.1963 1.24609 -102.478 2.17188c-5.74316 55.749 -8.61621 117.631 -8.61621 185.646h-24.5273c0 -67.4053 -2.84863 -128.859 -8.54492 -184.364
c-63.5801 2.14355 -123.812 5.05859 -180.693 8.74512c-2.89844 0.1875 -5.78906 0.376953 -8.67188 0.567383c-5.04395 52.9648 -7.56641 111.315 -7.56641 175.052h-24.5273c0 -62.5771 -2.45508 -120.024 -7.36426 -172.344
c-68.7041 4.90527 -132.791 10.4941 -192.263 16.7666c-3.89648 47.6982 -5.8457 99.5576 -5.8457 155.577h-24.5273c0 -54.4258 -1.85742 -104.972 -5.57129 -151.639c-27.834 3.16699 -54.5898 6.49414 -80.2666 9.98145
c-101.887 13.8369 -188.066 27.9883 -258.538 42.4531c9.17578 -28.8896 14.2217 -58.543 15.1328 -88.9619c-61.8604 1.5293 -118.178 5.71191 -168.954 12.5469c-65.4082 8.80469 -122.641 20.126 -171.697 33.9619c-49.0566 13.8369 -90.5508 27.9883 -124.481 42.4531
c4.90527 -32.0762 7.3584 -65.0947 7.3584 -99.0566s-2.45312 -68.8682 -7.3584 -104.717c33.9307 14.4639 75.3223 28.6152 124.175 42.4531c48.8525 13.8359 105.982 25.1572 171.391 33.9619c50.7842 6.83496 107.236 11.0186 169.356 12.5479
c-1.32715 -28.9795 -6.30176 -58.6338 -14.9219 -88.9629c70.4717 14.4639 156.438 28.6152 257.901 42.4531c22.2637 3.03613 45.3555 5.95117 69.2744 8.74512c-8.15137 -53.8887 -18.1416 -101.802 -29.9697 -143.739
c-13.8369 -49.0566 -27.9883 -90.5508 -42.4531 -124.481c32.0762 4.90527 65.0947 7.3584 99.0566 7.3584s68.8682 -2.45312 104.717 -7.3584c-14.4639 33.9307 -28.6152 75.3223 -42.4531 124.175c-12.3359 43.5547 -22.6719 93.6895 -31.0088 150.404
c54.5381 5.62988 112.948 10.6943 175.229 15.1914c-8.67578 -62.7451 -19.7061 -117.841 -33.0879 -165.289c-13.8369 -49.0566 -27.9883 -90.5508 -42.4531 -124.481c32.0762 4.90527 65.0947 7.3584 99.0566 7.3584s68.8682 -2.45312 104.717 -7.3584
c-14.4639 33.9307 -28.6152 75.3223 -42.4531 124.175c-13.6787 48.2988 -24.9004 104.688 -33.6611 169.168c0.484375 0.0322266 0.969727 0.0634766 1.45508 0.0947266c56.0391 3.63184 115.4 6.51465 178.085 8.64844
c-0.255859 -1.97754 -0.516602 -3.94629 -0.780273 -5.90723c-8.80469 -65.4082 -20.126 -122.641 -33.9619 -171.697c-13.8369 -49.0566 -27.9883 -90.5508 -42.4531 -124.481c32.0762 4.90527 65.0947 7.3584 99.0566 7.3584s68.8682 -2.45312 104.717 -7.3584
c-14.4639 33.9307 -28.6152 75.3223 -42.4531 124.175c-13.8359 48.8525 -25.1572 105.982 -33.9619 171.391c-0.357422 2.6582 -0.708008 5.33203 -1.05176 8.02051c28.1641 0.764648 56.9629 1.38574 86.3975 1.86426c21.8613 -22.0469 43.7217 -44.8965 65.582 -68.5498
c24.4014 -26.4004 50.501 -55.001 78.3008 -85.8008s58.9004 -64.5996 93.3008 -101.4l12.5996 9c-32.8008 52.4004 -60.9004 100.5 -84.3008 144.301c-21.707 40.6309 -39.8848 75.1504 -54.5352 103.561c13.7393 0.0566406 27.6025 0.0849609 41.5918 0.0849609v24.5273
c-11.9727 0 -23.8545 0.0205078 -35.6465 0.0625c11.8994 22.9697 27.1963 51.8252 45.8906 86.5654c24 44.5986 52.999 94.5 87 149.699zM1794.64 526.5c-60 -64.3994 -109.201 -118.399 -147.602 -162c-29.5215 -33.5215 -55.498 -61.249 -77.9277 -83.1846
c-73.3809 0.820312 -139.375 5.17578 -197.986 13.0654c-65.4082 8.80469 -122.641 20.126 -171.697 33.9619c-49.0566 13.8369 -90.5508 27.9883 -124.481 42.4531c4.35645 -28.4893 6.7793 -57.7207 7.2666 -87.6973c-32.4043 2.07812 -62.4092 5.83887 -90.0137 11.2822
c-44.6543 8.80469 -83.7266 20.126 -117.217 33.9619c-33.4902 13.8369 -61.8184 27.9883 -84.9824 42.4531c2.95801 -28.332 4.60938 -57.3984 4.95508 -87.2012c-29.6396 2.15625 -57.2266 5.75195 -82.7598 10.7861c-44.6543 8.80469 -83.7266 20.126 -117.217 33.9619
c-33.4902 13.8369 -61.8184 27.9883 -84.9824 42.4531c3.00684 -28.8018 4.66406 -58.3633 4.9707 -88.6855c-57.8799 1.72168 -110.81 5.81152 -158.792 12.2705c-65.4082 8.80469 -122.641 20.126 -171.697 33.9619c-49.0566 13.8369 -90.5508 27.9883 -124.481 42.4531
c4.90527 -32.0762 7.3584 -65.0947 7.3584 -99.0566s-2.45312 -68.8682 -7.3584 -104.717c33.9307 14.4639 75.3223 28.6152 124.175 42.4531c48.8525 13.8359 105.982 25.1572 171.391 33.9619c48.04 6.46582 101.151 10.5586 159.335 12.2764
c-0.442383 -28.8926 -2.07617 -58.457 -4.90039 -88.6914c23.1641 14.4639 51.4219 28.6152 84.7734 42.4531c33.3506 13.8359 72.3535 25.1572 117.007 33.9619c25.5918 5.0459 53.292 8.64551 83.1006 10.8008c-0.474609 -28.4238 -2.10059 -57.4961 -4.87695 -87.2158
c23.1641 14.4639 51.4219 28.6152 84.7734 42.4531c33.3506 13.8359 72.3535 25.1572 117.007 33.9619c27.6465 5.4502 57.7539 9.21484 90.3213 11.292c-0.679688 -28.5801 -3.06543 -57.8164 -7.15527 -87.707c33.9307 14.4639 75.3223 28.6152 124.175 42.4531
c48.8525 13.8359 105.982 25.1572 171.391 33.9619c55.3027 7.44336 117.327 11.7422 186.072 12.8926c22.1523 -22.3184 44.3037 -45.4619 66.4551 -69.4297c24.4014 -26.4004 50.501 -55.001 78.3008 -85.8008s58.9004 -64.5996 93.3008 -101.4l12.5996 9
c-32.8008 52.4004 -60.9004 100.5 -84.3008 144.301s-42.7002 80.5 -57.9004 110.1c12.8008 25.2012 31.2012 60.1006 55.2012 104.701c24 44.5986 52.999 94.5 87 149.699z" />
</svg>
