<?xml version="1.0" standalone="no"?>
<!DOCTYPE svg PUBLIC "-//W3C//DTD SVG 1.1//EN" "http://www.w3.org/Graphics/SVG/1.1/DTD/svg11.dtd" >
<svg xmlns="http://www.w3.org/2000/svg" xmlns:xlink="http://www.w3.org/1999/xlink" version="1.1" viewBox="0 0 1439 810">
   <path fill="currentColor"
d="M1314.38 800c0 -128.932 -4.40332 -243.71 -13.208 -344.34c-0.504883 -5.76562 -1.01758 -11.4902 -1.53809 -17.1729c-56.9268 1.52246 -109.515 4.39551 -157.766 8.61719c-13.6914 1.19824 -27.0723 2.45801 -40.1426 3.78027
c-0.00683594 0.0742188 -0.0126953 0.147461 -0.0195312 0.22168c-6.60254 75.4717 -9.90625 161.793 -9.90625 258.962h-18.3955c0 -95.3408 -3.20996 -180.362 -9.62891 -255.069c-43.8564 5.08984 -83.8633 10.9482 -120.021 17.5771
c-56.6035 10.377 -104.481 20.9912 -143.632 31.8398c5.66016 -24.0576 8.49023 -48.8213 8.49023 -74.293s-2.83008 -51.6514 -8.49023 -78.5371c39.1504 10.8477 86.9092 21.4609 143.278 31.8398c34.7559 6.39844 73.1426 12.0791 115.161 17.043
c-5.7373 -54.4639 -12.582 -103.387 -20.5352 -146.768c-10.3779 -56.6035 -20.9912 -104.481 -31.8398 -143.633c24.0566 5.66016 48.8213 8.49121 74.292 8.49121c25.4717 0 51.6514 -2.83105 78.5381 -8.49121c-10.8477 39.1514 -21.4619 86.9102 -31.8398 143.279
c-8.23633 44.7393 -15.2842 95.4961 -21.1436 152.271c11.4688 1.14062 23.1777 2.23242 35.126 3.27832c47.8096 4.18359 99.9736 7.04199 156.491 8.5752c-8.23633 -84.873 -18.3848 -160.193 -30.4414 -225.962c-13.8369 -75.4717 -27.9883 -139.309 -42.4531 -191.51
c32.0762 7.54688 65.0947 11.3213 99.0566 11.3213s68.8682 -3.77441 104.717 -11.3213c-14.4639 52.2012 -28.6152 115.88 -42.4531 191.038c-12.1533 66.0156 -22.3662 141.856 -30.6377 227.523c14.6309 0.161133 29.5254 0.241211 44.6836 0.241211v18.3955
c-15.7695 0 -31.2568 0.0878906 -46.4619 0.263672c-0.523438 5.70898 -1.03906 11.4609 -1.5459 17.2549c-8.80371 100.629 -13.208 215.724 -13.208 345.283h-24.5273zM415 457.867c-20.3701 1.80566 -39.9775 3.97754 -58.8213 6.51367
c-65.4082 8.80469 -122.641 20.126 -171.697 33.9619c-49.0566 13.8369 -90.5508 27.9883 -124.481 42.4531c4.90527 -32.0762 7.3584 -65.0947 7.3584 -99.0566s-2.45312 -68.8682 -7.3584 -104.717c33.9307 14.4639 75.3223 28.6152 124.175 42.4531
c48.8525 13.8359 105.982 25.1572 171.391 33.9619c19.0166 2.55957 38.8281 4.74707 59.4346 6.5625v37.8672zM704.835 245.982c-2.45215 -15.2803 -4.99512 -30.1045 -7.62891 -44.4727c-13.8369 -75.4717 -27.9883 -139.309 -42.4531 -191.51
c32.0762 7.54688 65.0947 11.3213 99.0566 11.3213s68.8682 -3.77441 104.717 -11.3213c-14.4639 52.2012 -28.6152 115.88 -42.4531 191.038c-13.8359 75.1572 -25.1572 163.05 -33.9619 263.679c-8.80371 100.629 -13.208 215.724 -13.208 345.283h-24.5273
c0 -59.2393 -0.929688 -115.491 -2.78809 -168.755c-76.3604 0.601562 -144.828 4.98145 -205.409 13.1357c-65.4082 8.80469 -122.641 20.126 -171.697 33.9619c-49.0566 13.8369 -90.5508 27.9883 -124.481 42.4531c4.90527 -32.0762 7.3584 -65.0947 7.3584 -99.0566
s-2.45312 -68.8682 -7.3584 -104.717c33.9307 14.4639 75.3223 28.6152 124.175 42.4531c48.8525 13.8359 105.982 25.1572 171.391 33.9619c60.3564 8.12402 128.718 12.501 205.086 13.1289c-2.19336 -53.4141 -5.35449 -103.716 -9.4834 -150.906
c-6.20117 -70.8789 -13.6514 -135.517 -22.3496 -193.914c-63.3115 1.45215 -120.857 5.66406 -172.64 12.6348c-65.4082 8.80469 -122.641 20.126 -171.697 33.9619c-49.0566 13.8369 -90.5508 27.9883 -124.481 42.4531c4.90527 -32.0762 7.3584 -65.0947 7.3584 -99.0566
s-2.45312 -68.8682 -7.3584 -104.717c33.9307 14.4639 75.3223 28.6152 124.175 42.4531c48.8525 13.8359 105.982 25.1572 171.391 33.9619c50.7607 6.83203 107.184 11.0146 169.27 12.5449z" />
</svg>
