<?xml version="1.0" standalone="no"?>
<!DOCTYPE svg PUBLIC "-//W3C//DTD SVG 1.1//EN" "http://www.w3.org/Graphics/SVG/1.1/DTD/svg11.dtd" >
<svg xmlns="http://www.w3.org/2000/svg" xmlns:xlink="http://www.w3.org/1999/xlink" version="1.1" viewBox="0 0 1409 800">
   <path fill="currentColor"
d="M937.154 700.068c0 -96.6982 -3.30176 -182.782 -9.90527 -258.255c-6.60352 -75.4717 -15.0947 -141.509 -25.4717 -198.112c-10.3779 -56.6035 -20.9912 -104.481 -31.8398 -143.633c24.0566 5.66016 48.8213 8.49121 74.292 8.49121
c25.4717 0 51.6514 -2.83105 78.5381 -8.49121c-10.8477 39.1514 -21.4619 86.9102 -31.8398 143.279c-10.377 56.3672 -18.8682 122.287 -25.4717 197.759c-6.60254 75.4717 -9.90625 161.793 -9.90625 258.962h-18.3955zM1109.65 700.068
c0 -96.6982 -3.30176 -182.782 -9.90527 -258.255c-6.60352 -75.4717 -15.0947 -141.509 -25.4717 -198.112c-10.3779 -56.6035 -20.9912 -104.481 -31.8398 -143.633c24.0566 5.66016 48.8213 8.49121 74.292 8.49121c25.4717 0 51.6514 -2.83105 78.5381 -8.49121
c-10.8477 39.1514 -21.4619 86.9102 -31.8398 143.279c-10.377 56.3672 -18.8682 122.287 -25.4717 197.759c-6.60254 75.4717 -9.90625 161.793 -9.90625 258.962h-18.3955zM1284.38 800c0 -128.932 -4.40332 -243.71 -13.208 -344.34
c-8.80469 -100.629 -20.126 -188.679 -33.9619 -264.15c-13.8369 -75.4717 -27.9883 -139.309 -42.4531 -191.51c32.0762 7.54688 65.0947 11.3213 99.0566 11.3213s68.8682 -3.77441 104.717 -11.3213c-14.4639 52.2012 -28.6152 115.88 -42.4531 191.038
c-13.8359 75.1572 -25.1572 163.05 -33.9619 263.679c-8.80371 100.629 -13.208 215.724 -13.208 345.283h-24.5273zM415 447.867c-20.3701 1.80566 -39.9775 3.97754 -58.8213 6.51367c-65.4082 8.80469 -122.641 20.126 -171.697 33.9619
c-49.0566 13.8369 -90.5508 27.9883 -124.481 42.4531c4.90527 -32.0762 7.3584 -65.0947 7.3584 -99.0566s-2.45312 -68.8682 -7.3584 -104.717c33.9307 14.4639 75.3223 28.6152 124.175 42.4531c48.8525 13.8359 105.982 25.1572 171.391 33.9619
c19.0166 2.55957 38.8281 4.74707 59.4346 6.5625v37.8672zM704.835 235.982c-2.45215 -15.2803 -4.99512 -30.1045 -7.62891 -44.4727c-13.8369 -75.4717 -27.9883 -139.309 -42.4531 -191.51c32.0762 7.54688 65.0947 11.3213 99.0566 11.3213
s68.8682 -3.77441 104.717 -11.3213c-14.4639 52.2012 -28.6152 115.88 -42.4531 191.038c-13.8359 75.1572 -25.1572 163.05 -33.9619 263.679c-8.80371 100.629 -13.208 215.724 -13.208 345.283h-24.5273c0 -59.2393 -0.929688 -115.491 -2.78809 -168.755
c-76.3604 0.601562 -144.828 4.98145 -205.409 13.1357c-65.4082 8.80469 -122.641 20.126 -171.697 33.9619c-49.0566 13.8369 -90.5508 27.9883 -124.481 42.4531c4.90527 -32.0762 7.3584 -65.0947 7.3584 -99.0566s-2.45312 -68.8682 -7.3584 -104.717
c33.9307 14.4639 75.3223 28.6152 124.175 42.4531c48.8525 13.8359 105.982 25.1572 171.391 33.9619c60.3564 8.12402 128.718 12.501 205.086 13.1289c-2.19336 -53.4141 -5.35449 -103.716 -9.4834 -150.906c-6.20117 -70.8789 -13.6514 -135.517 -22.3496 -193.914
c-63.3115 1.45215 -120.857 5.66406 -172.64 12.6348c-65.4082 8.80469 -122.641 20.126 -171.697 33.9619c-49.0566 13.8369 -90.5508 27.9883 -124.481 42.4531c4.90527 -32.0762 7.3584 -65.0947 7.3584 -99.0566s-2.45312 -68.8682 -7.3584 -104.717
c33.9307 14.4639 75.3223 28.6152 124.175 42.4531c48.8525 13.8359 105.982 25.1572 171.391 33.9619c50.7607 6.83203 107.184 11.0146 169.27 12.5449z" />
</svg>
