<?xml version="1.0" standalone="no"?>
<!DOCTYPE svg PUBLIC "-//W3C//DTD SVG 1.1//EN" "http://www.w3.org/Graphics/SVG/1.1/DTD/svg11.dtd" >
<svg xmlns="http://www.w3.org/2000/svg" xmlns:xlink="http://www.w3.org/1999/xlink" version="1.1" viewBox="0 0 1819 800">
   <path fill="currentColor"
d="M1547.42 592.813c-77.3594 0 -146.227 2.64258 -206.604 7.9248c-3.07129 0.268555 -6.12207 0.541016 -9.1543 0.817383c2.68652 4.4082 5.41406 8.85938 8.18262 13.3545l-10.0801 7.2002c-5.93066 -6.36523 -11.7295 -12.6045 -17.3965 -18.7158
c-48.6689 4.84277 -92.0166 10.75 -130.042 17.7207c-45.2832 8.30273 -83.585 16.793 -114.905 25.4727c4.52734 -19.2461 6.79199 -39.0576 6.79199 -59.4346c0 -8.77832 -0.419922 -17.6621 -1.26074 -26.6504c-33.1631 1.09863 -63.582 3.51074 -91.2568 7.23535
c-39.2451 5.2832 -73.584 12.0762 -103.019 20.377c-29.4336 8.30273 -54.3301 16.793 -74.6885 25.4727c2.94336 -19.2461 4.41504 -39.0576 4.41504 -59.4346s-1.47168 -41.3203 -4.41504 -62.8301c20.3584 8.67871 45.1934 17.1689 74.5049 25.4717
c29.3115 8.30176 63.5898 15.0947 102.834 20.3779c27.1865 3.65918 57.0791 6.05176 89.6787 7.17676c-0.973633 -6.62012 -2.16797 -13.2959 -3.58496 -20.0264c31.3203 8.67871 69.5273 17.1689 114.622 25.4717c28.2246 5.19629 59.4434 9.80078 93.6553 13.8145
c-24.3965 -26.6455 -45.7354 -50.3447 -64.0137 -71.0996c-30.7197 -34.8799 -56.6396 -61.9199 -77.7598 -81.1201c19.5195 -19.5195 39.0391 -39.8398 58.5596 -60.96s40.4004 -44 62.6396 -68.6396c4.62012 -5.11914 9.35449 -10.3418 14.2031 -15.668
c-31.5713 3.81738 -60.5713 8.14844 -87.001 12.9932c-45.2832 8.30273 -83.585 16.793 -114.905 25.4727c1.55469 -6.60938 2.84277 -13.2861 3.86328 -20.0293c-32.5156 1.12402 -62.3779 3.51758 -89.5889 7.17969c-39.2451 5.2832 -73.584 12.0762 -103.019 20.377
c-29.4336 8.30273 -54.3301 16.793 -74.6885 25.4727c2.94336 -19.2461 4.41504 -39.0576 4.41504 -59.4346c0 -11.2031 -0.445312 -22.5781 -1.33496 -34.124c-9.82324 62.6064 -18.1416 132.835 -24.9531 210.688c-8.80371 100.629 -13.208 215.724 -13.208 345.283
h-24.5273c0 -59.2393 -0.929688 -115.491 -2.78809 -168.755c-76.3604 0.601562 -144.828 4.98145 -205.409 13.1357c-65.4082 8.80469 -122.641 20.126 -171.697 33.9619c-49.0566 13.8369 -90.5508 27.9883 -124.481 42.4531
c4.90527 -32.0762 7.3584 -65.0947 7.3584 -99.0566s-2.45312 -68.8682 -7.3584 -104.717c33.9307 14.4639 75.3223 28.6152 124.175 42.4531c48.8525 13.8359 105.982 25.1572 171.391 33.9619c60.3564 8.12402 128.718 12.501 205.086 13.1289
c-2.19336 -53.4141 -5.35449 -103.716 -9.4834 -150.906c-6.20117 -70.8789 -13.6514 -135.517 -22.3496 -193.914c-63.3115 1.45215 -120.857 5.66406 -172.64 12.6348c-65.4082 8.80469 -122.641 20.126 -171.697 33.9619
c-49.0566 13.8369 -90.5508 27.9883 -124.481 42.4531c4.90527 -32.0762 7.3584 -65.0947 7.3584 -99.0566s-2.45312 -68.8682 -7.3584 -104.717c33.9307 14.4639 75.3223 28.6152 124.175 42.4531c48.8525 13.8359 105.982 25.1572 171.391 33.9619
c50.7607 6.83203 107.184 11.0146 169.27 12.5449c-2.45215 -15.2803 -4.99512 -30.1045 -7.62891 -44.4727c-13.8369 -75.4717 -27.9883 -139.309 -42.4531 -191.51c32.0762 7.54688 65.0947 11.3213 99.0566 11.3213s68.8682 -3.77441 104.717 -11.3213
c-14.4639 52.2012 -28.6152 115.88 -42.4531 191.038c-1.64258 8.91992 -3.24902 18.0195 -4.82031 27.2988c18.9141 7.63281 41.3262 15.1191 67.2363 22.458c29.3115 8.30176 63.5898 15.0947 102.834 20.3779c27.7969 3.74121 58.4238 6.1582 91.8799 7.25
c0.670898 -7.67285 1.00586 -15.4297 1.00586 -23.2695c0 -20.377 -2.26465 -41.3203 -6.79199 -62.8301c31.3203 8.67871 69.5273 17.1689 114.622 25.4717c36.6348 6.74414 78.3135 12.4932 125.035 17.2451c7.35156 -7.93164 14.9141 -16.0557 22.6865 -24.3701
l10.0801 7.2002c-4.05664 6.48047 -8.02344 12.8789 -11.9004 19.1953c4.06641 0.375977 8.16895 0.745117 12.3066 1.10742c55.7764 4.87988 118.96 7.50684 189.551 7.87891c-5.88477 -28.7275 -11.8613 -54.041 -17.9297 -75.9414
c19.2461 4.52734 39.0566 6.79199 59.4346 6.79199c20.377 0 41.3203 -2.26465 62.8301 -6.79199c-8.67871 31.3203 -17.1699 69.5273 -25.4727 114.622c-8.30078 45.0947 -15.0938 97.8301 -20.377 158.208c-5.28223 60.377 -7.9248 129.434 -7.9248 207.17h-14.7158
c0 -77.3594 -2.64258 -146.227 -7.9248 -206.604c-5.2832 -60.377 -12.0762 -113.207 -20.3779 -158.49c-1.51953 -8.29102 -3.0459 -16.3477 -4.5791 -24.1699c-71.4277 0.314453 -135.41 2.94629 -191.948 7.89258c-11.5625 1.01172 -22.8486 2.0791 -33.8574 3.20117
c-12.6709 21.5117 -24.1895 41.9678 -34.5547 61.3701c-18.7197 35.041 -34.1602 64.4004 -46.3203 88.0801c10.2402 20.1602 24.9609 48.0801 44.1602 83.7607c12.0684 22.4258 25.7168 46.5273 40.9453 72.3037c9.48242 0.947266 19.1689 1.85352 29.0615 2.71875
c60.377 5.28223 129.434 7.9248 207.17 7.9248v14.7158zM1694.38 800c0 -128.932 -4.40332 -243.71 -13.208 -344.34c-8.80469 -100.629 -20.126 -188.679 -33.9619 -264.15c-13.8369 -75.4717 -27.9883 -139.309 -42.4531 -191.51
c32.0762 7.54688 65.0947 11.3213 99.0566 11.3213s68.8682 -3.77441 104.717 -11.3213c-14.4639 52.2012 -28.6152 115.88 -42.4531 191.038c-13.8359 75.1572 -25.1572 163.05 -33.9619 263.679c-8.80371 100.629 -13.208 215.724 -13.208 345.283h-24.5273zM415 447.867
c-20.3701 1.80566 -39.9775 3.97754 -58.8213 6.51367c-65.4082 8.80469 -122.641 20.126 -171.697 33.9619c-49.0566 13.8369 -90.5508 27.9883 -124.481 42.4531c4.90527 -32.0762 7.3584 -65.0947 7.3584 -99.0566s-2.45312 -68.8682 -7.3584 -104.717
c33.9307 14.4639 75.3223 28.6152 124.175 42.4531c48.8525 13.8359 105.982 25.1572 171.391 33.9619c19.0166 2.55957 38.8281 4.74707 59.4346 6.5625v37.8672z" />
</svg>
