<?xml version="1.0" standalone="no"?>
<!DOCTYPE svg PUBLIC "-//W3C//DTD SVG 1.1//EN" "http://www.w3.org/Graphics/SVG/1.1/DTD/svg11.dtd" >
<svg xmlns="http://www.w3.org/2000/svg" xmlns:xlink="http://www.w3.org/1999/xlink" version="1.1" viewBox="0 0 1454 810">
   <path fill="currentColor"
d="M1329.43 800c0 -128.932 -4.40332 -243.71 -13.208 -344.34c-8.80469 -100.629 -20.126 -188.679 -33.9619 -264.15c-2.5332 -13.8174 -5.07715 -27.2461 -7.63184 -40.2832c-119.047 0.524414 -225.684 4.90918 -319.914 13.1543
c-19.2705 1.68652 -38.0801 3.46484 -56.4287 5.33496c-21.1191 35.8525 -40.3154 69.9473 -57.5918 102.284c-31.2002 58.4004 -56.9336 107.334 -77.2002 146.8c17.0664 33.6006 41.6006 80.1338 73.6006 139.601c20.1133 37.377 42.8604 77.5459 68.2412 120.507
c15.8027 1.57715 31.9482 3.08789 48.4355 4.53027c100.629 8.80371 215.724 13.208 345.283 13.208v24.5273c-128.932 0 -243.71 4.40332 -344.34 13.208c-5.11816 0.448242 -10.2041 0.902344 -15.2568 1.36328c4.47656 7.3457 9.02246 14.7637 13.6367 22.2559
l-16.7998 12c-9.88379 -10.6094 -19.5488 -21.0059 -28.9932 -31.1924c-81.1152 8.07129 -153.361 17.917 -216.737 29.5352c-75.4717 13.8369 -139.309 27.9883 -191.51 42.4531c7.54688 -32.0762 11.3213 -65.0947 11.3213 -99.0566
c0 -14.6309 -0.700195 -29.4365 -2.10156 -44.418c-55.2715 1.83105 -105.97 5.85059 -152.095 12.0596c-65.4082 8.80469 -122.641 20.126 -171.697 33.9619c-49.0566 13.8369 -90.5508 27.9883 -124.481 42.4531c4.90527 -32.0762 7.3584 -65.0947 7.3584 -99.0566
s-2.45312 -68.8682 -7.3584 -104.717c33.9307 14.4639 75.3223 28.6152 124.175 42.4531c48.8525 13.8359 105.982 25.1572 171.391 33.9619c45.3096 6.09863 95.1318 10.0859 149.465 11.9609c-1.62305 -11.0332 -3.61523 -22.1582 -5.97656 -33.376
c52.2012 14.4639 115.88 28.6152 191.038 42.4531c47.041 8.66016 99.0713 16.335 156.092 23.0244c-40.6621 -44.4092 -76.2256 -83.9092 -106.69 -118.5c-51.1992 -58.1338 -94.3994 -103.2 -129.6 -135.2c32.5332 -32.5332 65.0664 -66.3994 97.5996 -101.6
c32.5342 -35.2002 67.334 -73.334 104.4 -114.4c7.7002 -8.53125 15.5908 -17.2363 23.6719 -26.1133c-52.6191 6.3623 -100.953 13.5811 -145.002 21.6562c-75.4717 13.8369 -139.309 27.9883 -191.51 42.4531c2.5918 -11.0156 4.73828 -22.1426 6.44043 -33.3809
c-54.1934 1.87207 -103.965 5.86133 -149.315 11.9658c-65.4082 8.80469 -122.641 20.126 -171.697 33.9619c-49.0566 13.8369 -90.5508 27.9883 -124.481 42.4531c4.90527 -32.0762 7.3584 -65.0947 7.3584 -99.0566s-2.45312 -68.8682 -7.3584 -104.717
c33.9307 14.4639 75.3223 28.6152 124.175 42.4531c48.8525 13.8359 105.982 25.1572 171.391 33.9619c46.3281 6.23535 97.3721 10.2637 153.134 12.084c1.11719 -12.7881 1.67578 -25.7148 1.67578 -38.7822c0 -33.9619 -3.77441 -68.8682 -11.3213 -104.717
c52.2012 14.4639 115.88 28.6152 191.038 42.4531c61.0586 11.2402 130.522 20.8213 208.392 28.7412c12.2529 -13.2197 24.8564 -26.7588 37.8105 -40.6172l16.7998 12c-6.76074 10.8008 -13.3721 21.4648 -19.834 31.9922
c6.77734 0.626953 13.6143 1.24219 20.5107 1.8457c92.9609 8.13281 198.268 12.5117 315.919 13.1309c-9.80762 -47.8779 -19.7686 -90.0674 -29.8828 -126.568c32.0762 7.54688 65.0947 11.3213 99.0566 11.3213s68.8682 -3.77441 104.717 -11.3213
c-14.4639 52.2012 -28.6152 115.88 -42.4531 191.038c-13.8359 75.1572 -25.1572 163.05 -33.9619 263.679c-8.80371 100.629 -13.208 215.724 -13.208 345.283h-24.5273z" />
</svg>
