<?xml version="1.0" standalone="no"?>
<!DOCTYPE svg PUBLIC "-//W3C//DTD SVG 1.1//EN" "http://www.w3.org/Graphics/SVG/1.1/DTD/svg11.dtd" >
<svg xmlns="http://www.w3.org/2000/svg" xmlns:xlink="http://www.w3.org/1999/xlink" version="1.1" viewBox="0 0 1149 879">
   <path fill="currentColor"
d="M1024.38 879c0 -128.932 -4.40332 -243.71 -13.208 -344.34c-8.80469 -100.629 -20.126 -188.679 -33.9619 -264.15c-13.8369 -75.4717 -27.9883 -139.309 -42.4531 -191.51c32.0762 7.54688 65.0947 11.3213 99.0566 11.3213s68.8682 -3.77441 104.717 -11.3213
c-14.4639 52.2012 -28.6152 115.88 -42.4531 191.038c-13.8359 75.1572 -25.1572 163.05 -33.9619 263.679c-8.80371 100.629 -13.208 215.724 -13.208 345.283h-24.5273zM924.641 526c-60 -64.3994 -109.201 -118.399 -147.602 -162
c-29.5215 -33.5215 -55.498 -61.249 -77.9277 -83.1846c-73.3809 0.820312 -139.375 5.17578 -197.986 13.0654c-65.4082 8.80469 -122.641 20.126 -171.697 33.9619c-49.0566 13.8369 -90.5508 27.9883 -124.481 42.4531c4.90527 -32.0762 7.3584 -65.0947 7.3584 -99.0566
s-2.45312 -68.8682 -7.3584 -104.717c33.9307 14.4639 75.3223 28.6152 124.175 42.4531c48.8525 13.8359 105.982 25.1572 171.391 33.9619c55.3027 7.44336 117.327 11.7422 186.072 12.8926c22.1523 -22.3184 44.3037 -45.4619 66.4551 -69.4297
c24.4014 -26.4004 50.501 -55.001 78.3008 -85.8008s58.9004 -64.5996 93.3008 -101.4l12.5996 9c-32.8008 52.4004 -60.9004 100.5 -84.3008 144.301s-42.7002 80.5 -57.9004 110.1c12.8008 25.2012 31.2012 60.1006 55.2012 104.701c24 44.5986 52.999 94.5 87 149.699z
M621.92 659.867c-0.24707 -1.90332 -0.498047 -3.7998 -0.751953 -5.68848c-8.80469 -65.4082 -20.126 -122.641 -33.9619 -171.697c-13.8369 -49.0566 -27.9883 -90.5508 -42.4531 -124.481c32.0762 4.90527 65.0947 7.3584 99.0566 7.3584
s68.8682 -2.45312 104.717 -7.3584c-14.4639 33.9307 -28.6152 75.3223 -42.4531 124.175c-13.8359 48.8525 -25.1572 105.982 -33.9619 171.391c-0.381836 2.83691 -0.754883 5.69043 -1.12012 8.5625c59.1514 2.34473 122.154 3.51758 189.009 3.51758v24.5273
c-68.168 0 -132.38 1.23047 -192.636 3.69238c-5.63965 55.3555 -8.46094 116.733 -8.46094 184.135h-24.5273c0 -66.54 -2.77539 -127.279 -8.32617 -182.222c-38.5156 1.99902 -75.3125 4.5332 -110.39 7.60254c-27.5967 2.41504 -54.2471 5.01855 -79.9512 7.81152
c-4.53613 50.7588 -6.80566 106.361 -6.80566 166.808h-24.5273c0 -58.6689 -2.1582 -112.828 -6.47363 -162.481c-53.1582 6.40332 -101.955 13.6777 -146.393 21.8242c-75.4717 13.8369 -139.309 27.9883 -191.51 42.4531
c7.54688 -32.0762 11.3213 -65.0947 11.3213 -99.0566s-3.77441 -68.8682 -11.3213 -104.717c52.2012 14.4639 115.88 28.6152 191.038 42.4531c42.0381 7.73926 88.0605 14.6914 138.068 20.8564c-8.4873 -59.2578 -19.1211 -111.541 -31.9004 -156.851
c-13.8369 -49.0566 -27.9883 -90.5508 -42.4531 -124.481c32.0762 4.90527 65.0947 7.3584 99.0566 7.3584s68.8682 -2.45312 104.717 -7.3584c-14.4639 33.9307 -28.6152 75.3223 -42.4531 124.175c-13.2666 46.8418 -24.2207 101.293 -32.8623 163.355
c23.0752 2.45312 46.9102 4.75488 71.5059 6.90723c34.0752 2.98145 69.8096 5.45801 107.203 7.42969z" />
</svg>
