<?xml version="1.0" standalone="no"?>
<!DOCTYPE svg PUBLIC "-//W3C//DTD SVG 1.1//EN" "http://www.w3.org/Graphics/SVG/1.1/DTD/svg11.dtd" >
<svg xmlns="http://www.w3.org/2000/svg" xmlns:xlink="http://www.w3.org/1999/xlink" version="1.1" viewBox="0 0 1838 813">
   <path fill="currentColor"
d="M1814.69 683.5c-60 -64.3994 -109.201 -118.399 -147.602 -162c-29.5215 -33.5215 -55.498 -61.249 -77.9277 -83.1846c-73.3809 0.820312 -139.375 5.17578 -197.986 13.0654c-65.4082 8.80469 -122.641 20.126 -171.697 33.9619
c-49.0566 13.8369 -90.5508 27.9883 -124.481 42.4531c4.90527 -32.0762 7.3584 -65.0947 7.3584 -99.0566s-2.45312 -68.8682 -7.3584 -104.717c33.9307 14.4639 75.3223 28.6152 124.175 42.4531c48.8525 13.8359 105.982 25.1572 171.391 33.9619
c55.3027 7.44336 117.327 11.7422 186.072 12.8926c22.1523 -22.3184 44.3037 -45.4619 66.4551 -69.4297c24.4014 -26.4004 50.501 -55.001 78.3008 -85.8008s58.9004 -64.5996 93.3008 -101.4l12.5996 9c-32.8008 52.4004 -60.9004 100.5 -84.3008 144.301
s-42.7002 80.5 -57.9004 110.1c12.8008 25.2012 31.2012 60.1006 55.2012 104.701c24 44.5986 52.999 94.5 87 149.699zM856.954 493.827c-40.457 -40.4561 -79.585 -73.3574 -117.387 -98.707c-37.8008 -25.3486 -73.4346 -44.9717 -106.899 -58.8701
c-33.4648 -13.8965 -63.5029 -23.9209 -90.1104 -30.0723c25.0488 -20.3135 49.5811 -42.4766 73.5957 -66.4912s47.5127 -49.8818 70.4941 -77.5986c6.15137 26.6074 16.127 56.5947 29.9248 89.9629c13.7988 33.3662 33.373 68.9502 58.7217 106.751
c25.3506 37.8008 58.3506 77.0293 99.0029 117.683zM1019.59 331.193c-40.4561 -40.457 -79.584 -73.3574 -117.386 -98.707c-37.8008 -25.3496 -73.4346 -44.9727 -106.899 -58.8701s-63.5029 -23.9219 -90.1104 -30.0732
c25.0488 -20.3135 49.5811 -42.4766 73.5957 -66.4912s47.5127 -49.8818 70.4941 -77.5986c6.15137 26.6074 16.126 56.5947 29.9248 89.9629c13.7988 33.3662 33.373 68.9512 58.7217 106.751c25.3496 37.8008 58.3496 77.0293 99.0029 117.683zM1167.62 812.489
c-50.3701 -50.3701 -101.944 -88.4785 -154.721 -114.33c-52.7773 -25.8506 -104.486 -42.9395 -155.127 -51.2676c-50.6416 -8.32812 -97.2207 -11.6299 -139.731 -9.90625c51.9951 -46.0967 103.956 -95.1094 155.886 -147.039s103.828 -106.776 155.693 -164.54
c-1.72168 42.5098 1.51758 89.0254 9.72168 139.547c8.20605 50.5186 25.2334 102.166 51.084 154.943c25.8516 52.7744 64.082 104.473 114.698 155.089zM585 574.173c-83.8057 0 -158.411 4.40332 -223.821 13.208c-65.4082 8.80469 -122.641 20.126 -171.697 33.9619
c-49.0566 13.8369 -90.5508 27.9883 -124.481 42.4531c4.90527 -32.0762 7.3584 -65.0947 7.3584 -99.0566s-2.45312 -68.8682 -7.3584 -104.717c33.9307 14.4639 75.3223 28.6152 124.175 42.4531c48.8525 13.8359 105.982 25.1572 171.391 33.9619
c60.0459 8.08203 128.016 12.4561 203.909 13.1191c-33.1963 -21.4199 -64.6768 -38.3105 -94.4414 -50.6719c-33.4648 -13.8965 -63.5029 -23.9209 -90.1104 -30.0723c25.0498 -20.3135 49.5811 -42.4766 73.5957 -66.4922
c17.8916 -17.8916 35.4961 -36.8105 52.8135 -56.7568c-52.582 1.92969 -100.966 5.86914 -145.153 11.8174c-65.4082 8.80469 -122.641 20.126 -171.697 33.9619c-49.0566 13.8369 -90.5508 27.9883 -124.481 42.4531c4.90527 -32.0762 7.3584 -65.0947 7.3584 -99.0566
s-2.45312 -68.8682 -7.3584 -104.717c33.9307 14.4639 75.3223 28.6152 124.175 42.4531c48.8525 13.8359 105.982 25.1572 171.391 33.9619c65.4092 8.80371 140.221 13.208 224.435 13.208v24.5273c-19.0713 0 -37.667 0.228516 -55.7861 0.68457
c6.06055 21.3467 14.3008 44.623 24.7236 69.8281c13.7988 33.3662 33.373 68.9502 58.7217 106.751c25.3506 37.8008 58.3506 77.0293 99.0029 117.683l-17.3428 17.3428c-37.5869 -37.5859 -74.0254 -68.6504 -109.319 -93.1973v10.9082z" />
</svg>
