<?xml version="1.0" standalone="no"?>
<!DOCTYPE svg PUBLIC "-//W3C//DTD SVG 1.1//EN" "http://www.w3.org/Graphics/SVG/1.1/DTD/svg11.dtd" >
<svg xmlns="http://www.w3.org/2000/svg" xmlns:xlink="http://www.w3.org/1999/xlink" version="1.1" viewBox="0 0 1444 702">
   <path fill="currentColor"
d="M1310.05 598.173c-128.932 0 -243.71 4.40332 -344.34 13.208c-100.629 8.80469 -188.679 20.126 -264.15 33.9619c-75.4717 13.8369 -139.309 27.9883 -191.51 42.4531c7.54688 -32.0762 11.3213 -65.0947 11.3213 -99.0566
c0 -33.834 -3.74609 -68.6055 -11.2363 -104.312c-54.0557 1.87695 -103.708 5.8623 -148.96 11.9531c-65.4082 8.80469 -122.641 20.126 -171.697 33.9619c-49.0566 13.8369 -90.5508 27.9883 -124.481 42.4531c4.90527 -32.0762 7.3584 -65.0947 7.3584 -99.0566
s-2.45312 -68.8682 -7.3584 -104.717c33.9307 14.4639 75.3223 28.6152 124.175 42.4531c48.8525 13.8359 105.982 25.1572 171.391 33.9619c45.3281 6.10059 95.1709 10.0889 149.529 11.9629c3.32129 -31.9521 4.98242 -64.8389 4.98242 -98.6611
c0 -33.834 -1.66211 -68.6045 -4.98535 -104.311c-54.0371 1.87891 -103.675 5.8623 -148.913 11.9521c-65.4082 8.80469 -122.641 20.126 -171.697 33.9619c-49.0566 13.8369 -90.5508 27.9883 -124.481 42.4531c4.90527 -32.0762 7.3584 -65.0947 7.3584 -99.0566
s-2.45312 -68.8682 -7.3584 -104.717c33.9307 14.4639 75.3223 28.6152 124.175 42.4531c48.8525 13.8359 105.982 25.1572 171.391 33.9619c45.3418 6.10254 95.2021 10.0918 149.581 11.9648c7.48535 -31.9531 11.2285 -64.8398 11.2285 -98.6631
c0 -33.9619 -3.77441 -68.8682 -11.3213 -104.717c52.2012 14.4639 115.88 28.6152 191.038 42.4531c75.1572 13.8359 163.05 25.1572 263.679 33.9619c100.629 8.80371 215.724 13.208 345.283 13.208v1.10156c32.3105 -35.5615 67.7236 -73.9443 106.24 -115.147
l16.7998 12c-43.7334 69.8672 -81.2002 134 -112.4 192.4s-56.9336 107.334 -77.2002 146.8c17.0664 33.6006 41.6006 80.1338 73.6006 139.601c32 59.4658 70.666 126 116 199.6l-16.7998 12c-38.8008 -41.6455 -74.2139 -80.0303 -106.24 -115.152v11.3252z
M1098.07 342.601c29.8086 -30.0146 59.6182 -61.1475 89.4277 -93.4004c31.6309 -34.2227 65.4033 -71.2188 101.318 -110.987c-120.33 0.459961 -228.028 4.84961 -323.098 13.168c-100.629 8.80469 -188.679 20.126 -264.15 33.9619
c-74.8574 13.7246 -138.268 27.7578 -190.231 42.0996c23.6992 0.801758 48.2559 1.20312 73.668 1.20312v24.5273c-25.6357 0 -50.4111 0.412109 -74.3262 1.23633c23.0479 14.3291 51.0986 28.3516 84.1533 42.0664c33.3506 13.8359 72.3535 25.1572 117.007 33.9619
c25.5918 5.0459 53.292 8.64551 83.1006 10.8008c-0.474609 -28.4238 -2.10059 -57.4961 -4.87695 -87.2158c23.1641 14.4639 51.4219 28.6152 84.7734 42.4531c33.3506 13.8359 72.3535 25.1572 117.007 33.9619c32.0938 6.32715 67.5029 10.3818 106.228 12.1631z
M1109.09 368.781c-42.8174 1.48438 -81.7607 5.68457 -116.832 12.5996c-44.6543 8.80469 -83.7266 20.126 -117.217 33.9619c-33.4902 13.8369 -61.8184 27.9883 -84.9824 42.4531c2.95801 -28.332 4.60938 -57.3984 4.95508 -87.2012
c-29.6396 2.15625 -57.2266 5.75195 -82.7598 10.7861c-44.6543 8.80469 -83.7266 20.126 -117.217 33.9619c-33.2002 13.7168 -61.3262 27.7432 -84.3789 42.0771c23.9092 0.817383 48.6895 1.22559 74.3428 1.22559v24.5273
c-25.3896 0 -49.9336 0.404297 -73.6348 1.21191c51.9551 14.3379 115.197 28.3682 189.727 42.0908c75.1572 13.8359 163.05 25.1572 263.679 33.9619c97.5039 8.53027 208.588 12.9297 333.253 13.1953c-29.1377 -32.0615 -55.3145 -61.2725 -78.5303 -87.6328
c-42.248 -47.9707 -79.0498 -87.043 -110.404 -117.219z" />
</svg>
