<?xml version="1.0" standalone="no"?>
<!DOCTYPE svg PUBLIC "-//W3C//DTD SVG 1.1//EN" "http://www.w3.org/Graphics/SVG/1.1/DTD/svg11.dtd" >
<svg xmlns="http://www.w3.org/2000/svg" xmlns:xlink="http://www.w3.org/1999/xlink" version="1.1" viewBox="0 0 1444 702">
   <path fill="currentColor"
d="M1310.05 598.173c-128.932 0 -243.71 4.40332 -344.34 13.208c-100.629 8.80469 -188.679 20.126 -264.15 33.9619c-75.4717 13.8369 -139.309 27.9883 -191.51 42.4531c7.54688 -32.0762 11.3213 -65.0947 11.3213 -99.0566
c0 -33.834 -3.74609 -68.6055 -11.2363 -104.312c-54.0557 1.87695 -103.708 5.8623 -148.96 11.9531c-65.4082 8.80469 -122.641 20.126 -171.697 33.9619c-49.0566 13.8369 -90.5508 27.9883 -124.481 42.4531c4.90527 -32.0762 7.3584 -65.0947 7.3584 -99.0566
s-2.45312 -68.8682 -7.3584 -104.717c33.9307 14.4639 75.3223 28.6152 124.175 42.4531c48.8525 13.8359 105.982 25.1572 171.391 33.9619c45.333 6.10156 95.1826 10.0898 149.549 11.9639c4.86523 -31.9531 7.29785 -64.8398 7.29785 -98.6621
c0 -33.834 -2.43457 -68.6045 -7.30273 -104.311c-54.0439 1.87793 -103.688 5.8623 -148.931 11.9521c-65.4082 8.80469 -122.641 20.126 -171.697 33.9619c-49.0566 13.8369 -90.5508 27.9883 -124.481 42.4531c4.90527 -32.0762 7.3584 -65.0947 7.3584 -99.0566
s-2.45312 -68.8682 -7.3584 -104.717c33.9307 14.4639 75.3223 28.6152 124.175 42.4531c48.8525 13.8359 105.982 25.1572 171.391 33.9619c45.3418 6.10254 95.2021 10.0918 149.581 11.9648c7.48535 -31.9531 11.2285 -64.8398 11.2285 -98.6631
c0 -33.9619 -3.77441 -68.8682 -11.3213 -104.717c52.2012 14.4639 115.88 28.6152 191.038 42.4531c75.1572 13.8359 163.05 25.1572 263.679 33.9619c100.629 8.80371 215.724 13.208 345.283 13.208v1.10156c32.3105 -35.5615 67.7236 -73.9443 106.24 -115.147
l16.7998 12c-43.7334 69.8672 -81.2002 134 -112.4 192.4s-56.9336 107.334 -77.2002 146.8c17.0664 33.6006 41.6006 80.1338 73.6006 139.601c32 59.4658 70.666 126 116 199.6l-16.7998 12c-38.8008 -41.6455 -74.2139 -80.0303 -106.24 -115.152v11.3252z
M1107.4 333.165c26.6982 -27.0898 53.3955 -55.0781 80.0938 -83.9648c31.6309 -34.2227 65.4033 -71.2188 101.318 -110.987c-120.33 0.459961 -228.028 4.84961 -323.098 13.168c-100.629 8.80469 -188.679 20.126 -264.15 33.9619
c-74.8574 13.7246 -138.268 27.7578 -190.231 42.0996c23.6992 0.801758 48.2559 1.20312 73.668 1.20312v24.5273c-25.541 0 -50.2275 0.40918 -74.0596 1.22656c33.7646 14.333 74.8604 28.3584 123.288 42.0762c46.6465 13.2109 100.84 24.1299 162.58 32.7539
c-1.00488 -24.5898 -3.25488 -49.6592 -6.75098 -75.207c33.9307 14.4639 75.3223 28.6152 124.175 42.4531c48.8525 13.8359 105.982 25.1572 171.391 33.9619c7.14648 0.961914 14.4053 1.87109 21.7764 2.72754zM1118.07 377.521
c-10.8428 1.17578 -21.4541 2.46191 -31.834 3.85938c-65.4082 8.80469 -122.641 20.126 -171.697 33.9619c-49.0566 13.8369 -90.5508 27.9883 -124.481 42.4531c3.74707 -24.5 6.0625 -49.5488 6.94824 -75.1484c-61.5781 8.61523 -115.734 19.5137 -162.471 32.6953
c-48.6416 13.7197 -89.8477 27.749 -123.618 42.0859c23.8281 0.811523 48.5225 1.2168 74.083 1.2168v24.5273c-25.3896 0 -49.9336 0.404297 -73.6348 1.21191c51.9551 14.3379 115.197 28.3682 189.727 42.0908c75.1572 13.8359 163.05 25.1572 263.679 33.9619
c97.5039 8.53027 208.588 12.9297 333.253 13.1953c-29.1377 -32.0615 -55.3145 -61.2725 -78.5303 -87.6328c-38.2793 -43.4639 -72.0869 -79.623 -101.423 -108.479z" />
</svg>
