<?xml version="1.0" standalone="no"?>
<!DOCTYPE svg PUBLIC "-//W3C//DTD SVG 1.1//EN" "http://www.w3.org/Graphics/SVG/1.1/DTD/svg11.dtd" >
<svg xmlns="http://www.w3.org/2000/svg" xmlns:xlink="http://www.w3.org/1999/xlink" version="1.1" viewBox="0 0 1649 810">
   <path fill="currentColor"
d="M1524.43 800c0 -128.932 -4.40332 -243.71 -13.208 -344.34c-8.80469 -100.629 -20.126 -188.679 -33.9619 -264.15c-13.8369 -75.4717 -27.9883 -139.309 -42.4531 -191.51c32.0762 7.54688 65.0947 11.3213 99.0566 11.3213s68.8682 -3.77441 104.717 -11.3213
c-14.4639 52.2012 -28.6152 115.88 -42.4531 191.038c-13.8359 75.1572 -25.1572 163.05 -33.9619 263.679c-8.80371 100.629 -13.208 215.724 -13.208 345.283h-24.5273zM511.332 350.442c23.6992 0.801758 48.2559 1.20312 73.668 1.20312v24.5273
c-25.3896 0 -49.9336 0.404297 -73.6348 1.21191c51.9551 14.3379 115.197 28.3682 189.727 42.0908c75.1572 13.8359 163.05 25.1572 263.679 33.9619c93.3467 8.16699 199.143 12.5479 317.385 13.1387c-0.305664 -3.65723 -0.617188 -7.2959 -0.933594 -10.916
c-6.21387 -71.0137 -13.6807 -135.764 -22.3994 -194.249c-108.305 1.02539 -206.007 5.34863 -293.108 12.9697c-100.629 8.80469 -188.679 20.126 -264.15 33.9619c-74.8574 13.7246 -138.268 27.7578 -190.231 42.0996zM510.146 350.402
c7.48535 -31.9531 11.2285 -64.8398 11.2285 -98.6631c0 -33.9619 -3.77441 -68.8682 -11.3213 -104.717c52.2012 14.4639 115.88 28.6152 191.038 42.4531c75.1572 13.8359 163.05 25.1572 263.679 33.9619c86.1299 7.53516 182.856 11.8477 290.181 12.9336
c-2.47168 -15.417 -5.03516 -30.3711 -7.69141 -44.8613c-13.8369 -75.4717 -27.9883 -139.309 -42.4531 -191.51c32.0762 7.54688 65.0947 11.3213 99.0566 11.3213s68.8682 -3.77441 104.717 -11.3213c-14.4639 52.2012 -28.6152 115.88 -42.4531 191.038
c-13.8359 75.1572 -25.1572 163.05 -33.9619 263.679c-8.80371 100.629 -13.208 215.724 -13.208 345.283h-24.5273c0 -26.8828 -0.191406 -53.1514 -0.574219 -78.8037c-122.366 0.354492 -231.745 4.75 -328.142 13.1846
c-100.629 8.80469 -188.679 20.126 -264.15 33.9619c-75.4717 13.8369 -139.309 27.9883 -191.51 42.4531c7.54688 -32.0762 11.3213 -65.0947 11.3213 -99.0566c0 -33.834 -3.74609 -68.6055 -11.2363 -104.312c-54.0557 1.87695 -103.708 5.8623 -148.96 11.9531
c-65.4082 8.80469 -122.641 20.126 -171.697 33.9619c-49.0566 13.8369 -90.5508 27.9883 -124.481 42.4531c4.90527 -32.0762 7.3584 -65.0947 7.3584 -99.0566s-2.45312 -68.8682 -7.3584 -104.717c33.9307 14.4639 75.3223 28.6152 124.175 42.4531
c48.8525 13.8359 105.982 25.1572 171.391 33.9619c45.3418 6.10254 95.2021 10.0918 149.581 11.9648c7.48535 -31.9531 11.2285 -64.8398 11.2285 -98.6631c0 -33.834 -3.74609 -68.6055 -11.2363 -104.312c-54.0557 1.87695 -103.708 5.8623 -148.96 11.9531
c-65.4082 8.80469 -122.641 20.126 -171.697 33.9619c-49.0566 13.8369 -90.5508 27.9883 -124.481 42.4531c4.90527 -32.0762 7.3584 -65.0947 7.3584 -99.0566s-2.45312 -68.8682 -7.3584 -104.717c33.9307 14.4639 75.3223 28.6152 124.175 42.4531
c48.8525 13.8359 105.982 25.1572 171.391 33.9619c45.3418 6.10254 95.2021 10.0918 149.581 11.9648zM511.332 580.442c23.6992 0.801758 48.2559 1.20312 73.668 1.20312v24.5273c-25.3896 0 -49.9336 0.404297 -73.6348 1.21191
c51.9551 14.3379 115.197 28.3682 189.727 42.0908c75.1572 13.8359 163.05 25.1572 263.679 33.9619c96.3037 8.4248 205.855 12.8213 328.656 13.1836c-1.47754 -73.7012 -4.58398 -142.164 -9.32031 -205.388c-118.434 0.554688 -224.563 4.9375 -318.393 13.1475
c-100.629 8.80469 -188.679 20.126 -264.15 33.9619c-74.8574 13.7246 -138.268 27.7578 -190.231 42.0996z" />
</svg>
