<?xml version="1.0" standalone="no"?>
<!DOCTYPE svg PUBLIC "-//W3C//DTD SVG 1.1//EN" "http://www.w3.org/Graphics/SVG/1.1/DTD/svg11.dtd" >
<svg xmlns="http://www.w3.org/2000/svg" xmlns:xlink="http://www.w3.org/1999/xlink" version="1.1" viewBox="0 0 1423 800">
   <path fill="currentColor"
d="M1060.19 754.692c-15.6816 -13.127 -31.0811 -25.4561 -46.1992 -36.9873c-52.4766 -40.0244 -100.951 -72.4883 -145.423 -97.3936c-44.4727 -24.9043 -83.8203 -44.2383 -118.041 -58.0029c26.1504 -19.2119 51.2324 -40.8252 75.2471 -64.8398
s46.9629 -50.4316 68.8428 -79.249c13.7656 34.2197 33.0273 73.4941 57.7861 117.823c24.7607 44.3271 57.1523 92.7295 97.1768 145.206c11.6367 15.2568 24.0986 30.8125 37.3857 46.668zM1222.82 592.058c-15.6807 -13.127 -31.0811 -25.4561 -46.1992 -36.9873
c-52.4766 -40.0244 -100.951 -72.4893 -145.423 -97.3936c-44.4727 -24.9043 -83.8193 -44.2383 -118.04 -58.0029c19.9727 -14.6748 39.3223 -30.749 58.0498 -48.2246c-49.6318 -37.4492 -95.6328 -68.0361 -138 -91.7617
c-44.4717 -24.9043 -83.8193 -44.2383 -118.04 -58.0029c26.1494 -19.2129 51.2314 -40.8262 75.2471 -64.8408c24.0146 -24.0146 46.9619 -50.4316 68.8428 -79.249c13.7646 34.2197 33.0264 73.4951 57.7852 117.824c23.6416 42.3242 54.2412 88.3643 91.7979 138.118
c16.6777 -18.0986 32.8135 -37.416 48.4062 -57.9531c13.7656 34.2207 33.0273 73.4951 57.7861 117.824c24.7607 44.3271 57.1523 92.7295 97.1768 145.206c11.6377 15.2568 24.0996 30.8125 37.3857 46.667c-11.8145 11.8154 -11.8145 11.8154 -26.7754 26.7764z
M1385.46 429.423c-15.6807 -13.127 -31.0801 -25.4561 -46.1982 -36.9863c-52.4766 -40.0254 -100.952 -72.4893 -145.424 -97.3945c-44.4717 -24.9033 -83.8193 -44.2383 -118.04 -58.002c26.1494 -19.2129 51.2314 -40.8262 75.2471 -64.8408
c24.0146 -24.0146 46.9619 -50.4316 68.8428 -79.249c13.7646 34.2197 33.0264 73.4951 57.7852 117.823c24.7607 44.3281 57.1523 92.7305 97.1768 145.207c11.6377 15.2559 24.0996 30.8125 37.3867 46.667c-11.8154 11.8145 -11.8154 11.8145 -26.7764 26.7754z
M393.376 800c0 -128.932 -4.40332 -243.71 -13.208 -344.34c-0.271484 -3.10645 -0.545898 -6.20117 -0.822266 -9.28418c-8.19043 0.9375 -16.2461 1.93848 -24.167 3.00488c-65.4082 8.80469 -122.641 20.126 -171.697 33.9619
c-49.0566 13.8369 -90.5508 27.9883 -124.481 42.4531c4.90527 -32.0762 7.3584 -65.0947 7.3584 -99.0566s-2.45312 -68.8682 -7.3584 -104.717c33.9307 14.4639 75.3223 28.6152 124.175 42.4531c48.8525 13.8359 105.982 25.1572 171.391 33.9619
c6.7168 0.904297 13.5332 1.76172 20.4482 2.57324c-7.93262 -78.1826 -17.5361 -148.016 -28.8076 -209.501c-13.8369 -75.4717 -27.9883 -139.309 -42.4531 -191.51c32.0762 7.54688 65.0947 11.3213 99.0566 11.3213s68.8682 -3.77441 104.717 -11.3213
c-14.4639 52.2012 -28.6152 115.88 -42.4531 191.038c-13.8359 75.1572 -25.1572 163.05 -33.9619 263.679c-8.80371 100.629 -13.208 215.724 -13.208 345.283h-24.5273zM623.376 800c0 -128.932 -4.40332 -243.71 -13.208 -344.34
c-8.80469 -100.629 -20.126 -188.679 -33.9619 -264.15c-13.8369 -75.4717 -27.9883 -139.309 -42.4531 -191.51c32.0762 7.54688 65.0947 11.3213 99.0566 11.3213s68.8682 -3.77441 104.717 -11.3213c-14.4639 52.2012 -28.6152 115.88 -42.4531 191.038
c-13.8359 75.1572 -25.1572 163.05 -33.9619 263.679c-8.80371 100.629 -13.208 215.724 -13.208 345.283h-24.5273z" />
</svg>
