<?xml version="1.0" standalone="no"?>
<!DOCTYPE svg PUBLIC "-//W3C//DTD SVG 1.1//EN" "http://www.w3.org/Graphics/SVG/1.1/DTD/svg11.dtd" >
<svg xmlns="http://www.w3.org/2000/svg" xmlns:xlink="http://www.w3.org/1999/xlink" version="1.1" viewBox="0 0 2560 814">
   <path fill="currentColor"
d="M1586.54 803c0 -83.8057 -4.40332 -158.411 -13.208 -223.821c-8.80469 -65.4082 -20.126 -122.641 -33.9619 -171.697c-13.8369 -49.0566 -27.9883 -90.5508 -42.4531 -124.481c28.3838 4.34082 57.5049 6.76074 87.3652 7.26074
c-2.13574 -30.5146 -5.78516 -58.8682 -10.9502 -85.0615c-8.80469 -44.6543 -20.126 -83.7266 -33.9619 -117.217c-13.8369 -33.4902 -27.9883 -61.8184 -42.4531 -84.9824c32.0762 3.34863 65.0947 5.02344 99.0566 5.02344s68.8682 -1.6748 104.717 -5.02344
c-14.4639 23.1641 -28.6152 51.4219 -42.4531 84.7734c-13.8359 33.3506 -25.1572 72.3535 -33.9619 117.007c-5.17285 26.2393 -8.82715 54.6953 -10.9609 85.3672c28.4746 -0.69043 57.5996 -3.07324 87.376 -7.14746c-14.4639 33.9307 -28.6152 75.3223 -42.4531 124.175
c-13.8359 48.8525 -25.1572 105.982 -33.9619 171.391c-8.80371 65.4092 -13.208 140.221 -13.208 224.435h-24.5273zM1462.72 331.329c-40.4561 -40.457 -79.585 -73.3574 -117.386 -98.707s-73.4346 -44.9727 -106.899 -58.8701
c-33.4658 -13.8975 -63.5029 -23.9219 -90.1104 -30.0732c25.0488 -20.3135 49.5811 -42.4766 73.5957 -66.4912s47.5127 -49.8818 70.4932 -77.5986c6.15234 26.6074 16.127 56.5957 29.9258 89.9629c13.7988 33.3662 33.3721 68.9512 58.7217 106.751
c25.3496 37.8008 58.3496 77.0293 99.0029 117.683zM1378.72 561.329c-40.4561 -40.457 -79.585 -73.3574 -117.386 -98.707s-73.4346 -44.9727 -106.899 -58.8701c-18.0654 -7.50195 -35.1328 -13.876 -51.2002 -19.1211c-65.4072 1.33496 -124.724 5.58496 -177.95 12.75
c-65.4082 8.80469 -122.641 20.126 -171.697 33.9619c-29.8125 8.40918 -56.8311 16.9336 -81.0576 25.5742c24.165 8.63477 51.082 17.1543 80.751 25.5586c48.8525 13.8359 105.982 25.1572 171.391 33.9619c65.4092 8.80371 140.221 13.208 224.435 13.208v24.5273
c-83.8057 0 -158.411 4.40332 -223.821 13.208c-65.4082 8.80469 -122.641 20.126 -171.697 33.9619c-49.0566 13.8369 -90.5508 27.9883 -124.481 42.4531c4.35645 -28.4893 6.7793 -57.7207 7.2666 -87.6973c-32.4043 2.07812 -62.4092 5.83887 -90.0137 11.2822
c-44.6543 8.80469 -83.7266 20.126 -117.217 33.9619c-24.4463 10.1006 -46.1416 20.3682 -65.0859 30.8027c31.0205 6.85059 64.7344 13.627 101.142 20.3301c75.1572 13.8359 163.05 25.1572 263.679 33.9619c100.629 8.80371 215.724 13.208 345.283 13.208v24.5273
c-128.932 0 -243.71 4.40332 -344.34 13.208c-100.629 8.80469 -188.679 20.126 -264.15 33.9619c-75.4717 13.8369 -139.309 27.9883 -191.51 42.4531c7.54688 -32.0762 11.3213 -65.0947 11.3213 -99.0566c0 -17.502 -1.00293 -35.2559 -3.00684 -53.2598
c-35.3613 -38.7461 -66.6533 -73.5723 -93.874 -104.479c-51.1992 -58.1338 -94.3994 -103.2 -129.6 -135.2c32.5332 -32.5332 65.0664 -66.3994 97.5996 -101.6c32.5342 -35.2002 67.334 -73.334 104.4 -114.4c25.96 -28.7607 54.0771 -59.4844 84.3535 -92.1699
c-0.371094 -4.52051 -0.769531 -9.05664 -1.19434 -13.6074c2.86914 1.79102 5.81641 3.57812 8.8418 5.36035c10.5439 -11.3623 21.3438 -22.957 32.3994 -34.7832l16.7998 12c-7.86035 12.5576 -15.5186 24.9297 -22.9736 37.1172
c15.0742 7.67773 31.6436 15.2646 49.7061 22.7588c33.3506 13.8359 72.3535 25.1572 117.007 33.9619c27.6465 5.4502 57.7539 9.21484 90.3213 11.292c-0.679688 -28.5801 -3.06543 -57.8164 -7.15527 -87.707c33.9307 14.4639 75.3223 28.6152 124.175 42.4531
c48.8525 13.8359 105.982 25.1572 171.391 33.9619c65.4092 8.80371 140.221 13.208 224.435 13.208v24.5273c-83.8057 0 -158.411 4.40332 -223.821 13.208c-65.4082 8.80469 -122.641 20.126 -171.697 33.9619c-29.8125 8.40918 -56.8311 16.9336 -81.0576 25.5742
c24.165 8.63477 51.082 17.1543 80.751 25.5586c48.8525 13.8359 105.982 25.1572 171.391 33.9619c47.584 6.4043 100.144 10.4805 157.68 12.2266c18.8213 -16.0928 37.3447 -33.252 55.5693 -51.4766c24.0146 -24.0146 47.5127 -49.8818 70.4932 -77.5986
c6.15234 26.6074 16.127 56.5957 29.9258 89.9629c13.7988 33.3662 33.3721 68.9512 58.7217 106.751c25.3496 37.8008 58.3496 77.0293 99.0029 117.683zM2038.42 657.462c-40.457 -40.4561 -79.585 -73.3574 -117.386 -98.707
c-37.8018 -25.3496 -73.4355 -44.9717 -106.9 -58.8701c-33.4648 -13.8965 -63.5029 -23.9209 -90.1104 -30.0723c25.0498 -20.3135 49.5811 -42.4766 73.5957 -66.4922c24.0146 -24.0146 47.5127 -49.8809 70.4941 -77.5977
c6.15234 26.6074 16.127 56.5947 29.9248 89.9629c13.7988 33.3662 33.373 68.9502 58.7217 106.751c25.3506 37.8008 58.3506 77.0293 99.0029 117.683zM2201.06 494.827c-40.457 -40.4561 -79.585 -73.3574 -117.387 -98.707
c-37.8008 -25.3486 -73.4346 -44.9717 -106.899 -58.8701c-33.4648 -13.8965 -63.5029 -23.9209 -90.1104 -30.0723c25.0488 -20.3135 49.5811 -42.4766 73.5957 -66.4912s47.5127 -49.8818 70.4941 -77.5986c6.15137 26.6074 16.127 56.5947 29.9248 89.9629
c13.7988 33.3662 33.373 68.9502 58.7217 106.751c25.3506 37.8008 58.3506 77.0293 99.0029 117.683zM2363.69 332.193c-40.4561 -40.457 -79.584 -73.3574 -117.386 -98.707c-37.8008 -25.3496 -73.4346 -44.9727 -106.899 -58.8701s-63.5029 -23.9219 -90.1104 -30.0732
c25.0488 -20.3135 49.5811 -42.4766 73.5957 -66.4912s47.5127 -49.8818 70.4941 -77.5986c6.15137 26.6074 16.126 56.5947 29.9248 89.9629c13.7988 33.3662 33.373 68.9512 58.7217 106.751c25.3496 37.8008 58.3496 77.0293 99.0029 117.683zM2511.72 813.489
c-50.3701 -50.3701 -101.944 -88.4785 -154.721 -114.33c-52.7773 -25.8506 -104.486 -42.9395 -155.127 -51.2676c-50.6416 -8.32812 -97.2207 -11.6299 -139.731 -9.90625c51.9951 -46.0967 103.956 -95.1094 155.886 -147.039s103.828 -106.776 155.693 -164.54
c-1.72168 42.5098 1.51758 89.0254 9.72168 139.547c8.20605 50.5186 25.2334 102.166 51.084 154.943c25.8516 52.7744 64.082 104.473 114.698 155.089zM636.372 216.099c-32.4043 2.07812 -62.4092 5.83887 -90.0137 11.2822
c-44.6543 8.80469 -83.7266 20.126 -117.217 33.9619c-20.3525 8.40918 -38.7979 16.9336 -55.3369 25.5742c16.4971 8.63477 34.873 17.1543 55.1279 25.5586c33.3506 13.8359 72.3535 25.1572 117.007 33.9619c27.6465 5.4502 57.7539 9.21484 90.3213 11.292
c-0.433594 -18.2422 -1.5625 -36.75 -3.38574 -55.5264c-1.2666 0.530273 -2.52344 1.06152 -3.76953 1.59277c0.813477 -5.31641 1.55859 -10.6582 2.2373 -16.0264c-0.678711 -5.88965 -1.42383 -11.8057 -2.2373 -17.7471
c1.33984 0.571289 2.69141 1.1416 4.05469 1.71191c1.83496 -18.251 2.90527 -36.7969 3.21191 -55.6357zM346.928 271.734c1.50293 -21.9082 2.25488 -44.2402 2.25488 -66.9951c0 -11.2705 -0.18457 -22.6445 -0.553711 -34.123
c-21.6064 36.6221 -41.2158 71.416 -58.8291 104.384c-31.2002 58.4004 -56.9336 107.334 -77.2002 146.8c17.0664 33.6006 41.6006 80.1338 73.6006 139.601c10.4365 19.3936 21.582 39.5391 33.4355 60.4365c8.43848 2.0625 17.1152 4.11719 26.0303 6.16602
c2.34375 -27.0947 3.5166 -54.8486 3.5166 -83.2637c0 -23.7188 -0.816406 -47.8975 -2.4502 -72.5361c-0.864258 0.530273 -1.72266 1.06152 -2.57324 1.59277c0.554688 -5.31641 1.06445 -10.6582 1.52734 -16.0264
c-0.462891 -5.88965 -0.972656 -11.8057 -1.52734 -17.7471c0.915039 0.571289 1.83789 1.1416 2.76855 1.71191c1.50293 -21.9082 2.25488 -44.2402 2.25488 -66.9951c0 -23.7188 -0.816406 -47.8975 -2.4502 -72.5361
c-0.864258 0.530273 -1.72266 1.06152 -2.57324 1.59277c0.554688 -5.31641 1.06445 -10.6582 1.52734 -16.0264c-0.462891 -5.88965 -0.972656 -11.8057 -1.52734 -17.7471c0.915039 0.571289 1.83789 1.1416 2.76855 1.71191zM636.372 386.099
c-32.4043 2.07812 -62.4092 5.83887 -90.0137 11.2822c-44.6543 8.80469 -83.7266 20.126 -117.217 33.9619c-20.3525 8.40918 -38.7979 16.9336 -55.3369 25.5742c16.4971 8.63477 34.873 17.1543 55.1279 25.5586c33.3506 13.8359 72.3535 25.1572 117.007 33.9619
c27.6465 5.4502 57.7539 9.21484 90.3213 11.292c-0.433594 -18.2422 -1.5625 -36.75 -3.38574 -55.5264c-1.2666 0.530273 -2.52344 1.06152 -3.76953 1.59277c0.813477 -5.31641 1.55859 -10.6582 2.2373 -16.0264c-0.678711 -5.88965 -1.42383 -11.8057 -2.2373 -17.7471
c1.33984 0.571289 2.69141 1.1416 4.05469 1.71191c1.83496 -18.251 2.90527 -36.7969 3.21191 -55.6357z" />
</svg>
