<?xml version="1.0" standalone="no"?>
<!DOCTYPE svg PUBLIC "-//W3C//DTD SVG 1.1//EN" "http://www.w3.org/Graphics/SVG/1.1/DTD/svg11.dtd" >
<svg xmlns="http://www.w3.org/2000/svg" xmlns:xlink="http://www.w3.org/1999/xlink" version="1.1" viewBox="0 0 2560 814">
   <path fill="currentColor"
d="M1586.54 803c0 -83.8057 -4.40332 -158.411 -13.208 -223.821c-8.80469 -65.4082 -20.126 -122.641 -33.9619 -171.697c-13.8369 -49.0566 -27.9883 -90.5508 -42.4531 -124.481c24.499 3.74707 49.5488 6.0625 75.1484 6.94824
c-8.61523 -61.5762 -19.5137 -115.731 -32.6953 -162.467c-13.8369 -49.0566 -27.9883 -90.5508 -42.4531 -124.481c32.0762 4.90527 65.0947 7.3584 99.0566 7.3584s68.8682 -2.45312 104.717 -7.3584c-14.4639 33.9307 -28.6152 75.3223 -42.4531 124.175
c-13.2109 46.6455 -24.1289 100.837 -32.7529 162.576c24.5898 -1.00488 49.6582 -3.25488 75.2061 -6.75098c-14.4639 33.9307 -28.6152 75.3223 -42.4531 124.175c-13.8359 48.8525 -25.1572 105.982 -33.9619 171.391c-8.80371 65.4092 -13.208 140.221 -13.208 224.435
h-24.5273zM1457.99 336.062c-15.6807 -13.127 -31.0801 -25.4561 -46.1992 -36.9873c-52.4756 -40.0244 -100.951 -72.4883 -145.423 -97.3936c-44.4727 -24.9043 -83.8193 -44.2383 -118.04 -58.0029c26.1494 -19.2129 51.2314 -40.8252 75.2461 -64.8398
s46.9629 -50.4326 68.8428 -79.25c13.7656 34.2207 33.0273 73.4951 57.7861 117.824c24.7607 44.3271 57.1523 92.7295 97.1768 145.206c11.6377 15.2568 24.0996 30.8125 37.3857 46.667c-11.8145 11.8154 -11.8145 11.8154 -26.7754 26.7764zM1373.99 566.062
c-15.6807 -13.127 -31.0801 -25.4561 -46.1992 -36.9873c-52.4756 -40.0244 -100.951 -72.4883 -145.423 -97.3936c-33.4629 -18.7393 -64.0244 -34.3242 -91.6836 -46.7568c-60.4639 1.60059 -115.596 5.75293 -165.396 12.4561
c-65.4082 8.80469 -122.641 20.126 -171.697 33.9619c-29.8125 8.40918 -56.8311 16.9336 -81.0576 25.5742c24.165 8.63477 51.082 17.1543 80.751 25.5586c48.8525 13.8359 105.982 25.1572 171.391 33.9619c65.4092 8.80371 140.221 13.208 224.435 13.208v24.5273
c-83.8057 0 -158.411 4.40332 -223.821 13.208c-65.4082 8.80469 -122.641 20.126 -171.697 33.9619c-49.0566 13.8369 -90.5508 27.9883 -124.481 42.4531c3.78027 -24.7188 6.10449 -49.998 6.97168 -75.8359c-63.6357 8.71973 -119.448 19.8486 -167.437 33.3828
c-37.2773 10.5146 -70.1875 21.21 -98.7305 32.0879c29.3955 6.41309 61.1572 12.7607 95.2871 19.0449c75.1572 13.8359 163.05 25.1572 263.679 33.9619c100.629 8.80371 215.724 13.208 345.283 13.208v24.5273c-128.932 0 -243.71 4.40332 -344.34 13.208
c-100.629 8.80469 -188.679 20.126 -264.15 33.9619c-75.4717 13.8369 -139.309 27.9883 -191.51 42.4531c7.54688 -32.0762 11.3213 -65.0947 11.3213 -99.0566c0 -17.502 -1.00293 -35.2559 -3.00684 -53.2598c-35.3613 -38.7461 -66.6533 -73.5723 -93.874 -104.479
c-51.1992 -58.1338 -94.3994 -103.2 -129.6 -135.2c32.5332 -32.5332 65.0664 -66.3994 97.5996 -101.6c32.5342 -35.2002 67.334 -73.334 104.4 -114.4c26.0996 -28.916 54.3818 -59.8164 84.8447 -92.7002c-0.525391 -4.34473 -1.08691 -8.7041 -1.68555 -13.0771
c3.25293 1.38672 6.57422 2.77051 9.96387 4.15137c10.1875 -10.9756 20.6133 -22.167 31.2773 -33.5742l16.7998 12c-6.83887 10.9248 -13.5244 21.71 -20.0566 32.3555c25.5459 9.30664 54.2764 18.4805 86.1904 27.5205c47.8936 13.5645 103.744 24.7119 167.55 33.4404
c-0.990234 -24.8096 -3.25 -50.1074 -6.77832 -75.8936c33.9307 14.4639 75.3223 28.6152 124.175 42.4531c48.8525 13.8359 105.982 25.1572 171.391 33.9619c65.4092 8.80371 140.221 13.208 224.435 13.208v24.5273c-83.8057 0 -158.411 4.40332 -223.821 13.208
c-65.4082 8.80469 -122.641 20.126 -171.697 33.9619c-29.8125 8.40918 -56.8311 16.9336 -81.0576 25.5742c24.165 8.63477 51.082 17.1543 80.751 25.5586c48.8525 13.8359 105.982 25.1572 171.391 33.9619c48.0029 6.46094 101.07 10.5527 159.202 12.2725
c19.1631 -15.2793 37.7295 -31.9033 55.6973 -49.8711c24.0146 -24.0146 46.9629 -50.4326 68.8428 -79.25c13.7656 34.2207 33.0273 73.4951 57.7861 117.824c24.7607 44.3271 57.1523 92.7295 97.1768 145.206c11.6377 15.2568 24.0996 30.8125 37.3857 46.667
c-11.8145 11.8154 -11.8145 11.8154 -26.7754 26.7764zM2033.69 662.196c-15.6807 -13.1279 -31.0811 -25.457 -46.1992 -36.9873c-52.4766 -40.0254 -100.951 -72.4893 -145.423 -97.3936c-44.4727 -24.9043 -83.8203 -44.2383 -118.041 -58.0029
c26.1504 -19.2129 51.2324 -40.8262 75.2471 -64.8408s46.9629 -50.4316 68.8428 -79.249c13.7646 34.2197 33.0264 73.4951 57.7861 117.824c24.7607 44.3271 57.1523 92.7295 97.1768 145.206c11.6367 15.2568 24.0986 30.8125 37.3857 46.667
c-11.8145 11.8145 -11.8145 11.8145 -26.7754 26.7764zM2196.33 499.562c-15.6807 -13.127 -31.0801 -25.4561 -46.1982 -36.9873c-52.4766 -40.0244 -100.951 -72.4893 -145.423 -97.3936c-44.4727 -24.9043 -83.8203 -44.2383 -118.041 -58.0029
c26.1494 -19.2129 51.2324 -40.8262 75.2471 -64.8408s46.9619 -50.4316 68.8428 -79.249c13.7646 34.2207 33.0264 73.4951 57.7861 117.824c24.7598 44.3271 57.1514 92.7295 97.1768 145.206c11.6367 15.2568 24.0986 30.8125 37.3848 46.668
c-11.8135 11.8145 -11.8135 11.8145 -26.7754 26.7754zM2358.96 336.927c-15.6807 -13.127 -31.0811 -25.4561 -46.1982 -36.9873c-52.4766 -40.0244 -100.951 -72.4883 -145.424 -97.3936c-44.4717 -24.9043 -83.8193 -44.2383 -118.04 -58.0029
c26.1494 -19.2129 51.2324 -40.8252 75.2471 -64.8408c24.0146 -24.0146 46.9619 -50.4316 68.8428 -79.249c13.7646 34.2207 33.0264 73.4951 57.7852 117.824c24.7607 44.3271 57.1523 92.7295 97.1777 145.206c11.6367 15.2568 24.0986 30.8125 37.3848 46.668z
M2511.72 813.489c-50.3701 -50.3701 -101.944 -88.4785 -154.721 -114.33c-52.7773 -25.8506 -104.486 -42.9395 -155.127 -51.2676c-50.6416 -8.32812 -97.2207 -11.6299 -139.731 -9.90625c51.9951 -46.0967 103.956 -95.1094 155.886 -147.039
s103.828 -106.776 155.693 -164.54c-1.72168 42.5098 1.51758 89.0254 9.72168 139.547c8.20605 50.5186 25.2334 102.166 51.084 154.943c25.8516 52.7744 64.082 104.473 114.698 155.089zM636.077 227.96c-63.6357 8.71973 -119.448 19.8486 -167.437 33.3828
c-29.8125 8.40918 -56.8311 16.9336 -81.0576 25.5742c24.165 8.63477 51.082 17.1543 80.751 25.5586c47.8936 13.5645 103.744 24.7119 167.55 33.4404c-0.575195 -14.4062 -1.57812 -28.9775 -3.00879 -43.7129c-1.2666 0.530273 -2.52344 1.06152 -3.76953 1.59277
c0.813477 -5.31641 1.55859 -10.6582 2.2373 -16.0264c-0.678711 -5.88965 -1.42383 -11.8057 -2.2373 -17.7471c1.33984 0.571289 2.69141 1.1416 4.05469 1.71191c1.44824 -14.4082 2.4209 -29 2.91699 -43.7744zM348.214 271.734
c2.20215 -21.9082 3.30371 -44.2402 3.30371 -66.9951c0 -12.332 -0.323242 -24.7891 -0.970703 -37.3691c-22.3652 37.8125 -42.6143 73.6895 -60.7471 107.63c-31.2002 58.4004 -56.9336 107.334 -77.2002 146.8c17.0664 33.6006 41.6006 80.1338 73.6006 139.601
c10.4365 19.3936 21.582 39.5391 33.4355 60.4365c8.65234 2.11426 17.5566 4.22168 26.7109 6.32227c3.44727 -27.1436 5.1709 -54.9502 5.1709 -83.4199c0 -23.7188 -1.19629 -47.8975 -3.58887 -72.5361c-1.2666 0.530273 -2.52344 1.06152 -3.76953 1.59277
c0.813477 -5.31641 1.55859 -10.6582 2.2373 -16.0264c-0.678711 -5.88965 -1.42383 -11.8057 -2.2373 -17.7471c1.33984 0.571289 2.69141 1.1416 4.05469 1.71191c2.20215 -21.9082 3.30371 -44.2402 3.30371 -66.9951c0 -23.7188 -1.19629 -47.8975 -3.58887 -72.5361
c-1.2666 0.530273 -2.52344 1.06152 -3.76953 1.59277c0.813477 -5.31641 1.55859 -10.6582 2.2373 -16.0264c-0.678711 -5.88965 -1.42383 -11.8057 -2.2373 -17.7471c1.33984 0.571289 2.69141 1.1416 4.05469 1.71191zM636.077 397.96
c-63.6357 8.71973 -119.448 19.8486 -167.437 33.3828c-29.8125 8.40918 -56.8311 16.9336 -81.0576 25.5742c24.165 8.63477 51.082 17.1543 80.751 25.5586c47.8936 13.5645 103.744 24.7119 167.55 33.4404c-0.575195 -14.4062 -1.57812 -28.9775 -3.00879 -43.7129
c-1.2666 0.530273 -2.52344 1.06152 -3.76953 1.59277c0.813477 -5.31641 1.55859 -10.6582 2.2373 -16.0264c-0.678711 -5.88965 -1.42383 -11.8057 -2.2373 -17.7471c1.33984 0.571289 2.69141 1.1416 4.05469 1.71191c1.44824 -14.4082 2.4209 -29 2.91699 -43.7744z" />
</svg>
