<?xml version="1.0" standalone="no"?>
<!DOCTYPE svg PUBLIC "-//W3C//DTD SVG 1.1//EN" "http://www.w3.org/Graphics/SVG/1.1/DTD/svg11.dtd" >
<svg xmlns="http://www.w3.org/2000/svg" xmlns:xlink="http://www.w3.org/1999/xlink" version="1.1" viewBox="0 0 1332 803">
   <path fill="currentColor"
d="M1207.38 803c0 -83.8057 -4.40332 -158.411 -13.208 -223.821c-8.80469 -65.4082 -20.126 -122.641 -33.9619 -171.697c-13.8369 -49.0566 -27.9883 -90.5508 -42.4531 -124.481c24.499 3.74707 49.5488 6.0625 75.1484 6.94824
c-8.61523 -61.5762 -19.5137 -115.731 -32.6953 -162.467c-13.8369 -49.0566 -27.9883 -90.5508 -42.4531 -124.481c32.0762 4.90527 65.0947 7.3584 99.0566 7.3584s68.8682 -2.45312 104.717 -7.3584c-14.4639 33.9307 -28.6152 75.3223 -42.4531 124.175
c-13.2109 46.6455 -24.1289 100.837 -32.7529 162.576c24.5898 -1.00488 49.6582 -3.25488 75.2061 -6.75098c-14.4639 33.9307 -28.6152 75.3223 -42.4531 124.175c-13.8359 48.8525 -25.1572 105.982 -33.9619 171.391c-8.80371 65.4092 -13.208 140.221 -13.208 224.435
h-24.5273zM1078.83 336.062c-15.6807 -13.127 -31.0801 -25.4561 -46.1992 -36.9873c-52.4756 -40.0244 -100.951 -72.4883 -145.423 -97.3936c-33.7881 -18.9209 -64.6182 -34.627 -92.4883 -47.1182c-102.72 1.25488 -195.738 5.52734 -279.057 12.8174
c-100.629 8.80469 -188.679 20.126 -264.15 33.9619c-75.4717 13.8369 -139.309 27.9883 -191.51 42.4531c7.54688 -32.0762 11.3213 -65.0947 11.3213 -99.0566s-3.77441 -68.8682 -11.3213 -104.717c52.2012 14.4639 115.88 28.6152 191.038 42.4531
c75.1572 13.8359 163.05 25.1572 263.679 33.9619c81.6211 7.14062 172.76 11.3867 273.414 12.7363c19.3701 -15.4062 38.1299 -32.1846 56.2803 -50.335c24.0146 -24.0146 46.9629 -50.4326 68.8428 -79.25c13.7656 34.2207 33.0273 73.4951 57.7861 117.824
c24.7607 44.3271 57.1523 92.7295 97.1768 145.206c11.6377 15.2568 24.0996 30.8125 37.3857 46.667c-11.8145 11.8154 -11.8145 11.8154 -26.7754 26.7764zM1044.83 616.062c-15.6807 -13.127 -31.0801 -25.4561 -46.1992 -36.9873
c-52.4756 -40.0244 -100.951 -72.4883 -145.423 -97.3936c-44.4727 -24.9043 -83.8193 -44.2383 -118.04 -58.0029c26.1494 -19.2129 51.2314 -40.8252 75.2461 -64.8398s46.9629 -50.4326 68.8428 -79.25c13.7656 34.2207 33.0273 73.4951 57.7861 117.824
c24.7607 44.3271 57.1523 92.7295 97.1768 145.206c11.6377 15.2568 24.0996 30.8125 37.3857 46.667c-11.8145 11.8154 -11.8145 11.8154 -26.7754 26.7764zM667.468 617.861c-5.70898 55.6172 -8.56445 117.33 -8.56445 185.139h-24.5273
c0 -66.9414 -2.80957 -128.013 -8.42773 -183.217c-38.4785 1.99902 -75.2412 4.53125 -110.288 7.59766c-27.5645 2.41211 -54.1846 5.0127 -79.8604 7.80176c-4.59766 51.0303 -6.89648 106.97 -6.89648 167.817h-24.5273c0 -59.0586 -2.18652 -113.548 -6.55957 -163.471
c-53.125 6.40039 -101.894 13.6719 -146.307 21.8135c-75.4717 13.8369 -139.309 27.9883 -191.51 42.4531c7.54688 -32.0762 11.3213 -65.0947 11.3213 -99.0566s-3.77441 -68.8682 -11.3213 -104.717c52.2012 14.4639 115.88 28.6152 191.038 42.4531
c41.9971 7.73145 87.9717 14.6777 137.922 20.8379c-8.46289 -58.8389 -19.0479 -110.782 -31.7539 -155.832c-13.8369 -49.0566 -27.9883 -90.5508 -42.4531 -124.481c32.0762 4.90527 65.0947 7.3584 99.0566 7.3584s68.8682 -2.45312 104.717 -7.3584
c-14.4639 33.9307 -28.6152 75.3223 -42.4531 124.175c-13.1963 46.5938 -24.1045 100.717 -32.7246 162.37c23.0312 2.44727 46.8213 4.74512 71.3682 6.89258c34.0361 2.97754 69.7266 5.45215 107.072 7.42285c-0.205078 -1.56543 -0.412109 -3.12598 -0.621094 -4.68164
c-8.80469 -65.4082 -20.126 -122.641 -33.9619 -171.697c-13.8369 -49.0566 -27.9883 -90.5508 -42.4531 -124.481c32.0762 4.90527 65.0947 7.3584 99.0566 7.3584s68.8682 -2.45312 104.717 -7.3584c-14.4639 33.9307 -28.6152 75.3223 -42.4531 124.175
c-13.8359 48.8525 -25.1572 105.982 -33.9619 171.391c-0.337891 2.50879 -0.668945 5.03125 -0.993164 7.56738c59.1143 2.3418 122.075 3.5127 188.882 3.5127v24.5273c-68.1289 0 -132.307 1.22949 -192.532 3.68848z" />
</svg>
