<?xml version="1.0" standalone="no"?>
<!DOCTYPE svg PUBLIC "-//W3C//DTD SVG 1.1//EN" "http://www.w3.org/Graphics/SVG/1.1/DTD/svg11.dtd" >
<svg xmlns="http://www.w3.org/2000/svg" xmlns:xlink="http://www.w3.org/1999/xlink" version="1.1" viewBox="0 0 1010 203">
   <path fill="currentColor"
d="M1000 113.173c-106.368 0 -201.061 4.40332 -284.08 13.208s-155.66 20.126 -217.925 33.9619c-62.2637 13.8369 -114.929 27.9883 -157.995 42.4531c5.51855 -28.4268 8.59082 -57.5928 9.21875 -87.5c-31.2607 2.11523 -60.2666 5.80957 -87.0195 11.085
c-44.6543 8.80469 -83.7266 20.126 -117.217 33.9619c-33.4902 13.8369 -61.8184 27.9883 -84.9824 42.4531c3.34863 -32.0762 5.02344 -65.0947 5.02344 -99.0566s-1.6748 -68.8682 -5.02344 -104.717c23.1641 14.4639 51.4219 28.6152 84.7734 42.4531
c33.3506 13.8359 72.3535 25.1572 117.007 33.9619c26.7881 5.28125 55.8867 8.97949 87.2959 11.0938c-0.871094 -28.5166 -3.89648 -57.6865 -9.07617 -87.5088c43.0664 14.4639 95.6006 28.6152 157.606 42.4531c62.0049 13.8359 134.516 25.1572 217.535 33.9619
c83.0186 8.80371 177.972 13.208 284.858 13.208v24.5273z" />
</svg>
