<?xml version="1.0" standalone="no"?>
<!DOCTYPE svg PUBLIC "-//W3C//DTD SVG 1.1//EN" "http://www.w3.org/Graphics/SVG/1.1/DTD/svg11.dtd" >
<svg xmlns="http://www.w3.org/2000/svg" xmlns:xlink="http://www.w3.org/1999/xlink" version="1.1" viewBox="0 0 623 1138">
   <path fill="currentColor"
d="M385.4 1138c-80 -85.8662 -145.601 -157.866 -196.801 -216c-51.1992 -58.1338 -94.3994 -103.2 -129.6 -135.2c32.5332 -32.5332 65.0664 -66.3994 97.5996 -101.6c32.5342 -35.2002 67.334 -73.334 104.4 -114.4c0.589844 -0.65332 1.18066 -1.30859 1.77344 -1.96387
c-27.3965 -30.1846 -52.1211 -57.7969 -74.1738 -82.8359c-51.1992 -58.1338 -94.3994 -103.2 -129.6 -135.2c32.5332 -32.5332 65.0664 -66.3994 97.5996 -101.6c32.5342 -35.2002 67.334 -73.334 104.4 -114.4s78.5332 -86.1338 124.4 -135.2l16.7998 12
c-43.7334 69.8672 -81.2002 134 -112.4 192.4s-56.9336 107.334 -77.2002 146.8c17.0664 33.6006 41.6006 80.1338 73.6006 139.601c5.7793 10.7402 11.7764 21.71 17.9902 32.9111c20.5127 -22.3955 42.1631 -45.8252 64.9521 -70.2891
c-38.5283 -42.4814 -71.9092 -76.5557 -100.144 -102.223c32.5332 -32.5332 65.0664 -66.3994 97.5996 -101.6c32.5342 -35.2002 67.334 -73.334 104.4 -114.4s78.5332 -86.1338 124.4 -135.2l16.7998 12c-43.7334 69.8672 -81.2002 134 -112.4 192.4
s-56.9336 107.334 -77.2002 146.8c17.0664 33.6006 41.6006 80.1338 73.6006 139.601c5.7793 10.7402 11.7764 21.71 17.9902 32.9111c25.335 -27.6602 52.4043 -56.8975 81.21 -87.7119l16.7998 12c-26.5 42.3359 -50.6992 82.5664 -72.5977 120.692
c21.9258 38.1592 46.125 78.7295 72.5977 121.708l-16.7998 12c-29.0547 -31.1855 -56.21 -60.542 -81.4668 -88.0693c-4.8457 8.81348 -9.55762 17.5029 -14.1338 26.0693c-31.2002 58.4004 -56.9336 107.334 -77.2002 146.8
c17.0664 33.6006 41.6006 80.1338 73.6006 139.601c32 59.4658 70.666 126 116 199.6l-16.7998 12c-80 -85.8662 -145.601 -157.866 -196.801 -216c-51.1992 -58.1338 -94.3994 -103.2 -129.6 -135.2c32.5332 -32.5332 65.0664 -66.3994 97.5996 -101.6
c0.526367 -0.569336 1.05273 -1.13965 1.58008 -1.70996c-22.6299 -24.3564 -44.0449 -47.543 -64.2451 -69.5596c-4.8457 8.81348 -9.55762 17.5029 -14.1338 26.0693c-31.2002 58.4004 -56.9336 107.334 -77.2002 146.8c17.0664 33.6006 41.6006 80.1338 73.6006 139.601
c32 59.4658 70.666 126 116 199.6zM386.694 472.557c-20.5088 33.2646 -39.54 65.1758 -57.0918 95.7354c17.4365 30.3477 36.3115 62.2188 56.624 95.6143c26.8018 -29.1504 55.0586 -60.1865 84.7725 -93.1064c0.589844 -0.65332 1.18066 -1.30859 1.77344 -1.96387
c-27.3965 -30.1846 -52.1211 -57.7969 -74.1738 -82.8359c-4.01758 -4.56152 -7.98535 -9.04297 -11.9043 -13.4434z" />
</svg>
