<?xml version="1.0" standalone="no"?>
<!DOCTYPE svg PUBLIC "-//W3C//DTD SVG 1.1//EN" "http://www.w3.org/Graphics/SVG/1.1/DTD/svg11.dtd" >
<svg xmlns="http://www.w3.org/2000/svg" xmlns:xlink="http://www.w3.org/1999/xlink" version="1.1" viewBox="0 0 724 800">
   <path fill="currentColor"
d="M599.088 520c0 -83.8057 -4.40332 -158.411 -13.208 -223.821c-8.80469 -65.4082 -20.126 -122.641 -33.9619 -171.697c-13.8369 -49.0566 -27.9883 -90.5508 -42.4531 -124.481c32.0762 4.90527 65.0947 7.3584 99.0566 7.3584s68.8682 -2.45312 104.717 -7.3584
c-14.4639 33.9307 -28.6152 75.3223 -42.4531 124.175c-13.8359 48.8525 -25.1572 105.982 -33.9619 171.391c-8.80371 65.4092 -13.208 140.221 -13.208 224.435h-24.5273zM368.623 355c0 -57.2139 -4.40332 -108.146 -13.208 -152.801s-20.126 -83.7266 -33.9619 -117.217
c-13.8369 -33.4902 -27.9883 -61.8184 -42.4531 -84.9824c32.0762 3.34863 65.0947 5.02344 99.0566 5.02344s68.8682 -1.6748 104.717 -5.02344c-14.4639 23.1641 -28.6152 51.4219 -42.4531 84.7734c-13.8359 33.3506 -25.1572 72.3535 -33.9619 117.007
c-8.80371 44.6543 -13.208 95.7275 -13.208 153.22h-24.5273zM138.623 355c0 -57.2139 -4.40332 -108.146 -13.208 -152.801s-20.126 -83.7266 -33.9619 -117.217c-13.8369 -33.4902 -27.9883 -61.8184 -42.4531 -84.9824c32.0762 3.34863 65.0947 5.02344 99.0566 5.02344
s68.8682 -1.6748 104.717 -5.02344c-14.4639 23.1641 -28.6152 51.4219 -42.4531 84.7734c-13.8359 33.3506 -25.1572 72.3535 -33.9619 117.007c-4.9668 25.1934 -8.5332 52.4287 -10.6992 81.708c23.6367 2.58008 47.7695 3.87012 72.3975 3.87012
c33.9619 0 68.8682 -2.45312 104.717 -7.3584c-14.4639 33.9307 -28.6152 75.3223 -42.4531 124.175c-13.8359 48.8525 -25.1572 105.982 -33.9619 171.391c-8.80371 65.4092 -13.208 140.221 -13.208 224.435h-24.5273c0 -83.8057 -4.40332 -158.411 -13.208 -223.821
c-8.80469 -65.4082 -20.126 -122.641 -33.9619 -171.697c-6.02539 -21.3623 -12.1104 -41.29 -18.2549 -59.7842c-0.0322266 3.41113 -0.0478516 6.8457 -0.0478516 10.3027h-24.5273z" />
</svg>
