<?xml version="1.0" standalone="no"?>
<!DOCTYPE svg PUBLIC "-//W3C//DTD SVG 1.1//EN" "http://www.w3.org/Graphics/SVG/1.1/DTD/svg11.dtd" >
<svg xmlns="http://www.w3.org/2000/svg" xmlns:xlink="http://www.w3.org/1999/xlink" version="1.1" viewBox="0 0 724 800">
   <path fill="currentColor"
d="M599.088 520c0 -83.8057 -4.40332 -158.411 -13.208 -223.821c-8.80469 -65.4082 -20.126 -122.641 -33.9619 -171.697c-13.8369 -49.0566 -27.9883 -90.5508 -42.4531 -124.481c32.0762 4.90527 65.0947 7.3584 99.0566 7.3584s68.8682 -2.45312 104.717 -7.3584
c-14.4639 33.9307 -28.6152 75.3223 -42.4531 124.175c-13.8359 48.8525 -25.1572 105.982 -33.9619 171.391c-8.80371 65.4092 -13.208 140.221 -13.208 224.435h-24.5273zM361.929 355c-1.80566 -20.3701 -3.97754 -39.9775 -6.51367 -58.8213
c-8.80469 -65.4082 -20.126 -122.641 -33.9619 -171.697c-13.8369 -49.0566 -27.9883 -90.5508 -42.4531 -124.481c32.0762 4.90527 65.0947 7.3584 99.0566 7.3584s68.8682 -2.45312 104.717 -7.3584c-14.4639 33.9307 -28.6152 75.3223 -42.4531 124.175
c-13.8359 48.8525 -25.1572 105.982 -33.9619 171.391c-2.55957 19.0166 -4.74707 38.8281 -6.56348 59.4346h-37.8662zM131.929 355c-1.80664 -20.3701 -3.97754 -39.9775 -6.51367 -58.8213c-8.80469 -65.4082 -20.126 -122.641 -33.9619 -171.697
c-13.8369 -49.0566 -27.9883 -90.5508 -42.4531 -124.481c32.0762 4.90527 65.0947 7.3584 99.0566 7.3584s68.8682 -2.45312 104.717 -7.3584c-14.4639 33.9307 -28.6152 75.3223 -42.4531 124.175c-13.0645 46.1289 -23.8867 99.6367 -32.4658 160.526
c19.7266 1.77148 39.7939 2.65723 60.2021 2.65723c33.9619 0 68.8682 -2.45312 104.717 -7.3584c-14.4639 33.9307 -28.6152 75.3223 -42.4531 124.175c-13.8359 48.8525 -25.1572 105.982 -33.9619 171.391c-8.80371 65.4092 -13.208 140.221 -13.208 224.435h-24.5273
c0 -83.8057 -4.40332 -158.411 -13.208 -223.821c-8.80469 -65.4082 -20.126 -122.641 -33.9619 -171.697c-4.92188 -17.4512 -9.88379 -33.9443 -14.8857 -49.4814h-34.6387z" />
</svg>
