<?xml version="1.0" standalone="no"?>
<!DOCTYPE svg PUBLIC "-//W3C//DTD SVG 1.1//EN" "http://www.w3.org/Graphics/SVG/1.1/DTD/svg11.dtd" >
<svg xmlns="http://www.w3.org/2000/svg" xmlns:xlink="http://www.w3.org/1999/xlink" version="1.1" viewBox="0 0 870 800">
   <path fill="currentColor"
d="M860 571.173c-128.932 0 -243.71 4.40332 -344.34 13.208c-21.3545 1.86816 -42.1436 3.85059 -62.3652 5.94531c-2.92773 65.083 -4.3916 134.974 -4.3916 209.674h-24.5273c0 -73.2617 -1.42188 -141.953 -4.26465 -206.076
c-61.8447 7.01074 -118.045 15.1504 -168.602 24.4189c-75.4717 13.8369 -139.309 27.9883 -191.51 42.4531c7.54688 -32.0762 11.3213 -65.0947 11.3213 -99.0566s-3.77441 -68.8682 -11.3213 -104.717c52.2012 14.4639 115.88 28.6152 191.038 42.4531
c49.5527 9.12207 104.641 17.1514 165.266 24.0869c-1.50293 -23.3076 -3.21387 -45.9424 -5.13574 -67.9023c-2.71973 -31.0889 -5.68066 -60.9775 -8.88086 -89.666c-54.8623 6.5293 -105.121 13.9785 -150.777 22.3486
c-75.4717 13.8369 -139.309 27.9883 -191.51 42.4531c7.54688 -32.0762 11.3213 -65.0947 11.3213 -99.0566s-3.77441 -68.8682 -11.3213 -104.717c52.2012 14.4639 115.88 28.6152 191.038 42.4531c43.1191 7.93848 90.4307 15.0479 141.935 21.3301
c-4.83203 -35.2178 -10.0869 -68.3164 -15.7666 -99.2959c-13.8369 -75.4717 -27.9883 -139.309 -42.4531 -191.51c32.0762 7.54688 65.0947 11.3213 99.0566 11.3213s68.8682 -3.77441 104.717 -11.3213c-14.4639 52.2012 -28.6152 115.88 -42.4531 191.038
c-6.22168 33.7949 -11.9346 70.165 -17.1387 109.11c11.7432 1.13281 23.6699 2.22949 35.7822 3.28906c100.629 8.80371 215.724 13.208 345.283 13.208v24.5273c-128.932 0 -243.71 4.40332 -344.34 13.208c-14.916 1.30469 -29.5566 2.66602 -43.9199 4.08105
c-3.48828 30.6738 -6.69824 62.7588 -9.62891 96.2549c-2.06543 23.6084 -3.88867 48.0137 -5.46973 73.2148c18.8623 1.93359 38.2207 3.76855 58.0752 5.50586c100.629 8.80371 215.724 13.208 345.283 13.208v24.5273z" />
</svg>
