<?xml version="1.0" standalone="no"?>
<!DOCTYPE svg PUBLIC "-//W3C//DTD SVG 1.1//EN" "http://www.w3.org/Graphics/SVG/1.1/DTD/svg11.dtd" >
<svg xmlns="http://www.w3.org/2000/svg" xmlns:xlink="http://www.w3.org/1999/xlink" version="1.1" viewBox="0 0 870 810">
   <path fill="currentColor"
d="M860 721.173c-128.932 0 -243.71 4.40332 -344.34 13.208c-22.792 1.99414 -44.9375 4.11719 -66.4385 6.37012c-0.211914 19.4014 -0.318359 39.1514 -0.318359 59.249h-24.5273c0 -19.1533 -0.0976562 -37.9951 -0.291992 -56.5244
c-63.4131 7.11133 -120.938 15.4004 -172.574 24.8672c-75.4717 13.8369 -139.309 27.9883 -191.51 42.4531c7.54688 -32.0762 11.3213 -65.0947 11.3213 -99.0566s-3.77441 -68.8682 -11.3213 -104.717c52.2012 14.4639 115.88 28.6152 191.038 42.4531
c51.3359 9.4502 108.614 17.7275 171.834 24.832c-1.40625 -56.459 -3.7959 -109.752 -7.1709 -159.881c-60.1084 6.89648 -114.84 14.8682 -164.191 23.916c-75.4717 13.8369 -139.309 27.9883 -191.51 42.4531c7.54688 -32.0762 11.3213 -65.0947 11.3213 -99.0566
s-3.77441 -68.8682 -11.3213 -104.717c52.2012 14.4639 115.88 28.6152 191.038 42.4531c47.8369 8.80664 100.833 16.5938 158.988 23.3623c-5.05957 -55.8447 -10.9111 -107.731 -17.5537 -155.66c-51.0557 6.24121 -98.043 13.2969 -140.963 21.165
c-75.4717 13.8369 -139.309 27.9883 -191.51 42.4531c7.54688 -32.0762 11.3213 -65.0947 11.3213 -99.0566s-3.77441 -68.8682 -11.3213 -104.717c52.2012 14.4639 115.88 28.6152 191.038 42.4531c39.5791 7.28613 82.6895 13.875 129.332 19.7666
c-1.03906 -5.98633 -2.09473 -11.8965 -3.16406 -17.7324c-13.8369 -75.4717 -27.9883 -139.309 -42.4531 -191.51c32.0762 7.54688 65.0947 11.3213 99.0566 11.3213s68.8682 -3.77441 104.717 -11.3213c-14.4639 52.2012 -28.6152 115.88 -42.4531 191.038
c-1.81445 9.8584 -3.58691 19.9365 -5.31445 30.2334c7.9043 0.738281 15.8896 1.45996 23.958 2.16602c100.629 8.80371 215.724 13.208 345.283 13.208v24.5273c-128.932 0 -243.71 4.40332 -344.34 13.208c-11.3584 0.994141 -22.5566 2.01953 -33.5947 3.07812
c-7.43164 52.1592 -13.9014 109.187 -19.4092 171.085c16.957 1.70898 34.3105 3.34082 52.0605 4.89355c100.629 8.80371 215.724 13.208 345.283 13.208v24.5273c-128.932 0 -243.71 4.40332 -344.34 13.208c-19.7637 1.72949 -39.041 3.55566 -57.834 5.47852
c-3.57617 52.2744 -6.07715 108.081 -7.50391 167.42c20.8516 2.17383 42.3164 4.22656 64.3945 6.1582c100.629 8.80371 215.724 13.208 345.283 13.208v24.5273z" />
</svg>
