<?xml version="1.0" standalone="no"?>
<!DOCTYPE svg PUBLIC "-//W3C//DTD SVG 1.1//EN" "http://www.w3.org/Graphics/SVG/1.1/DTD/svg11.dtd" >
<svg xmlns="http://www.w3.org/2000/svg" xmlns:xlink="http://www.w3.org/1999/xlink" version="1.1" viewBox="0 0 943 831">
   <path fill="currentColor"
d="M919.694 526.5c-60 -64.3994 -109.201 -118.399 -147.602 -162c-29.5459 -33.5488 -55.54 -61.2949 -77.9824 -83.2383c-76.6006 0.530273 -146.921 3.42773 -210.964 8.69238c-7.88672 54.1807 -14.7168 113.71 -20.4902 178.59
c16.957 1.70898 34.3105 3.34082 52.0605 4.89355c100.629 8.80371 215.724 13.208 345.283 13.208v24.5273c-128.932 0 -243.71 4.40332 -344.34 13.208c-19.7637 1.72949 -39.041 3.55566 -57.834 5.47852c-3.57617 52.2744 -6.07715 108.081 -7.50391 167.42
c20.8516 2.17383 42.3164 4.22656 64.3945 6.1582c100.629 8.80371 215.724 13.208 345.283 13.208v24.5273c-128.932 0 -243.71 4.40332 -344.34 13.208c-22.792 1.99414 -44.9375 4.11719 -66.4385 6.37012c-0.211914 19.4014 -0.318359 39.1514 -0.318359 59.249
h-24.5273c0 -19.1533 -0.0976562 -37.9951 -0.291992 -56.5244c-63.4131 7.11133 -120.938 15.4004 -172.574 24.8672c-75.4717 13.8369 -139.309 27.9883 -191.51 42.4531c7.54688 -32.0762 11.3213 -65.0947 11.3213 -99.0566s-3.77441 -68.8682 -11.3213 -104.717
c52.2012 14.4639 115.88 28.6152 191.038 42.4531c51.3359 9.4502 108.614 17.7275 171.834 24.832c-1.40625 -56.459 -3.7959 -109.752 -7.1709 -159.881c-60.1084 6.89648 -114.84 14.8682 -164.191 23.916c-75.4717 13.8369 -139.309 27.9883 -191.51 42.4531
c7.54688 -32.0762 11.3213 -65.0947 11.3213 -99.0566s-3.77441 -68.8682 -11.3213 -104.717c52.2012 14.4639 115.88 28.6152 191.038 42.4531c47.8369 8.80664 100.833 16.5938 158.988 23.3623c-5.33203 -58.8506 -11.543 -113.306 -18.6338 -163.365
c-64.7051 7.94531 -122.485 17.5684 -173.344 28.8701c-62.2637 13.8369 -114.929 27.9883 -157.995 42.4531c6.22656 -32.0762 9.33984 -65.0947 9.33984 -99.0566s-3.11328 -68.8682 -9.33984 -104.717c43.0664 14.4639 95.6006 28.6152 157.606 42.4531
c48.3145 10.7812 103.009 20.0352 164.082 27.7617c-1.48047 -8.73242 -2.99219 -17.3086 -4.53613 -25.7275c-13.8369 -75.4717 -27.9883 -139.309 -42.4531 -191.51c32.0762 7.54688 65.0947 11.3213 99.0566 11.3213s68.8682 -3.77441 104.717 -11.3213
c-14.4639 52.2012 -28.6152 115.88 -42.4531 191.038c-2.23438 12.1357 -4.40234 24.6025 -6.50586 37.4023c58.6855 4.62402 122.67 7.29395 191.952 8.00879c22.1914 -22.3555 44.3828 -45.5381 66.5732 -69.5488c24.4014 -26.4004 50.501 -55.001 78.3008 -85.8008
s58.9004 -64.5996 93.3008 -101.4l12.5996 9c-32.8008 52.4004 -60.9004 100.5 -84.3008 144.301s-42.7002 80.5 -57.9004 110.1c12.8008 25.2012 31.2012 60.1006 55.2012 104.701c24 44.5986 52.999 94.5 87 149.699z" />
</svg>
