<?xml version="1.0" standalone="no"?>
<!DOCTYPE svg PUBLIC "-//W3C//DTD SVG 1.1//EN" "http://www.w3.org/Graphics/SVG/1.1/DTD/svg11.dtd" >
<svg xmlns="http://www.w3.org/2000/svg" xmlns:xlink="http://www.w3.org/1999/xlink" version="1.1" viewBox="0 0 943 831">
   <path fill="currentColor"
d="M919.694 526.5c-60 -64.3994 -109.201 -118.399 -147.602 -162c-11.6455 -13.2227 -22.7383 -25.5439 -33.2803 -36.9639c-11.0479 19.1963 -21.3203 37.6846 -30.8193 55.4639c-23.4004 43.8008 -42.7002 80.5 -57.9004 110.1
c12.8008 25.2012 31.2012 60.1006 55.2012 104.701c19.3408 35.9404 41.9277 75.3232 67.7627 118.148c28.2188 0.463867 57.2002 0.696289 86.9434 0.696289v24.5273c-24.2715 0 -48.04 0.15625 -71.3086 0.467773c1.19434 1.94629 2.39551 3.89941 3.60254 5.85938
l-12.5996 9c-4.56055 -4.89551 -9.05957 -9.73047 -13.4961 -14.5059c-91.4863 1.64844 -174.999 5.77734 -250.538 12.3867c-22.792 1.99414 -44.9375 4.11719 -66.4385 6.37012c-0.211914 19.4014 -0.318359 39.1514 -0.318359 59.249h-24.5273
c0 -19.1533 -0.0976562 -37.9951 -0.291992 -56.5244c-63.4131 7.11133 -120.938 15.4004 -172.574 24.8672c-75.4717 13.8369 -139.309 27.9883 -191.51 42.4531c7.54688 -32.0762 11.3213 -65.0947 11.3213 -99.0566s-3.77441 -68.8682 -11.3213 -104.717
c52.2012 14.4639 115.88 28.6152 191.038 42.4531c51.3359 9.4502 108.614 17.7275 171.834 24.832c-1.56152 -62.7041 -4.33691 -121.504 -8.32617 -176.4c-20.208 1.79785 -39.6631 3.95605 -58.3672 6.47363c-65.4082 8.80469 -122.641 20.126 -171.697 33.9619
c-49.0566 13.8369 -90.5508 27.9883 -124.481 42.4531c4.90527 -32.0762 7.3584 -65.0947 7.3584 -99.0566s-2.45312 -68.8682 -7.3584 -104.717c33.9307 14.4639 75.3223 28.6152 124.175 42.4531c48.8525 13.8359 105.982 25.1572 171.391 33.9619
c17.9434 2.41504 36.5938 4.49902 55.9521 6.25195c-0.116211 -1.3457 -0.232422 -2.68848 -0.349609 -4.0293c-5.58105 -63.7822 -12.1729 -122.512 -19.7754 -176.188c-64.7051 7.94531 -122.485 17.5684 -173.344 28.8701
c-62.2637 13.8369 -114.929 27.9883 -157.995 42.4531c6.22656 -32.0762 9.33984 -65.0947 9.33984 -99.0566s-3.11328 -68.8682 -9.33984 -104.717c43.0664 14.4639 95.6006 28.6152 157.606 42.4531c48.3145 10.7812 103.009 20.0352 164.082 27.7617
c-1.48047 -8.73242 -2.99219 -17.3086 -4.53613 -25.7275c-13.8369 -75.4717 -27.9883 -139.309 -42.4531 -191.51c32.0762 7.54688 65.0947 11.3213 99.0566 11.3213s68.8682 -3.77441 104.717 -11.3213c-14.4639 52.2012 -28.6152 115.88 -42.4531 191.038
c-2.23438 12.1357 -4.40234 24.6025 -6.50586 37.4023c58.6855 4.62402 122.67 7.29395 191.952 8.00879c22.1914 -22.3555 44.3828 -45.5381 66.5732 -69.5488c24.4014 -26.4004 50.501 -55.001 78.3008 -85.8008s58.9004 -64.5996 93.3008 -101.4l12.5996 9
c-32.8008 52.4004 -60.9004 100.5 -84.3008 144.301s-42.7002 80.5 -57.9004 110.1c12.8008 25.2012 31.2012 60.1006 55.2012 104.701c24 44.5986 52.999 94.5 87 149.699zM694.11 281.262c-76.6006 0.530273 -146.921 3.42773 -210.964 8.69238
c-8.13672 55.8945 -15.1484 117.481 -21.0352 184.763c-0.251953 2.87598 -0.5 5.76367 -0.744141 8.66309c25.6533 1.50098 52.4102 2.48438 80.2705 2.9502c22.1523 -22.3184 44.3037 -45.4619 66.4551 -69.4297c24.4014 -26.4004 50.501 -55.001 78.3008 -85.8008
c8.78516 -9.7334 17.9004 -19.7666 27.3457 -30.0996c-6.82031 -7.03223 -13.3633 -13.6113 -19.6289 -19.7383zM450.322 697.279c20.8516 2.17383 42.3164 4.22656 64.3945 6.1582c68.8262 6.02148 144.419 9.98438 226.779 11.8887
c-43.0215 -46.5859 -79.4893 -86.8613 -109.403 -120.826c-29.5215 -33.5215 -55.498 -61.249 -77.9277 -83.1846c-33.2715 0.37207 -65.0234 1.4707 -95.2578 3.2959c-4.15723 56.6318 -7.01855 117.521 -8.58496 182.668z" />
</svg>
