<?xml version="1.0" standalone="no"?>
<!DOCTYPE svg PUBLIC "-//W3C//DTD SVG 1.1//EN" "http://www.w3.org/Graphics/SVG/1.1/DTD/svg11.dtd" >
<svg xmlns="http://www.w3.org/2000/svg" xmlns:xlink="http://www.w3.org/1999/xlink" version="1.1" viewBox="0 0 387 652">
   <path fill="currentColor"
d="M359.396 652.319c-40.457 -40.457 -79.585 -73.3574 -117.387 -98.707c-37.8008 -25.3496 -73.4346 -44.9727 -106.899 -58.8701s-63.5029 -23.9219 -90.1104 -30.0732c25.0488 -20.3135 49.5811 -42.4766 73.5957 -66.4912s47.5127 -49.8818 70.4941 -77.5986
c6.15137 26.6074 16.127 56.5947 29.9248 89.9629c13.7988 33.3662 33.373 68.9512 58.7217 106.751c25.3506 37.8008 58.3506 77.0293 99.0029 117.683zM359.406 331.329c-40.4561 -40.4561 -79.585 -73.3574 -117.386 -98.707
c-37.8018 -25.3496 -73.4355 -44.9727 -106.899 -58.8701c-33.4658 -13.8975 -63.5029 -23.9219 -90.1113 -30.0732c25.0498 -20.3135 49.5811 -42.4766 73.5957 -66.4912s47.5137 -49.8818 70.4941 -77.5977c6.15234 26.6064 16.127 56.5947 29.9248 89.9629
c13.7988 33.3652 33.373 68.9502 58.7217 106.751c25.3506 37.7998 58.3506 77.0283 99.0039 117.682z" />
</svg>
