<?xml version="1.0" standalone="no"?>
<!DOCTYPE svg PUBLIC "-//W3C//DTD SVG 1.1//EN" "http://www.w3.org/Graphics/SVG/1.1/DTD/svg11.dtd" >
<svg xmlns="http://www.w3.org/2000/svg" xmlns:xlink="http://www.w3.org/1999/xlink" version="1.1" viewBox="0 0 590 534">
   <path fill="currentColor"
d="M552.652 534.053c-15.6807 -13.127 -31.0811 -25.4561 -46.1992 -36.9873c-52.4766 -40.0244 -100.951 -72.4883 -145.423 -97.3936c-44.4727 -24.9043 -83.8203 -44.2383 -118.041 -58.0029c19.9736 -14.6748 39.3242 -30.749 58.0508 -48.2246
c-49.6318 -37.4492 -95.6328 -68.0361 -138 -91.7627c-44.4727 -24.9043 -83.8193 -44.2383 -118.04 -58.0029c26.1494 -19.2119 51.2314 -40.8252 75.2461 -64.8398c24.0156 -24.0146 46.9629 -50.4316 68.8428 -79.249c13.7656 34.2197 33.0273 73.4941 57.7861 117.823
c23.6426 42.3252 54.2412 88.3643 91.7988 138.119c16.6768 -18.0986 32.8125 -37.416 48.4053 -57.9531c13.7646 34.2207 33.0264 73.4951 57.7861 117.824c24.7598 44.3271 57.1514 92.7295 97.1768 145.206c11.6367 15.2568 24.0986 30.8125 37.3857 46.667
c-11.8145 11.8154 -11.8145 11.8154 -26.7754 26.7764z" />
</svg>
