<?xml version="1.0" standalone="no"?>
<!DOCTYPE svg PUBLIC "-//W3C//DTD SVG 1.1//EN" "http://www.w3.org/Graphics/SVG/1.1/DTD/svg11.dtd" >
<svg xmlns="http://www.w3.org/2000/svg" xmlns:xlink="http://www.w3.org/1999/xlink" version="1.1" viewBox="0 0 585 529">
   <path fill="currentColor"
d="M557.386 529.319c-40.457 -40.457 -79.585 -73.3574 -117.387 -98.707c-37.8008 -25.3496 -73.4346 -44.9727 -106.899 -58.8701s-63.5029 -23.9219 -90.1104 -30.0732c22.125 -17.9424 43.8467 -37.3271 65.1641 -58.1562
c-22.4814 -19.4326 -44.5293 -36.3965 -66.1436 -50.8906c-37.8008 -25.3496 -73.4346 -44.9727 -106.899 -58.8701c-33.4658 -13.8975 -63.5029 -23.9219 -90.1104 -30.0732c25.0488 -20.3135 49.5811 -42.4766 73.5957 -66.4912s47.5127 -49.8818 70.4932 -77.5977
c6.15234 26.6064 16.127 56.5947 29.9258 89.9629c13.7988 33.3652 33.3721 68.9502 58.7217 106.751c14.5273 21.6621 31.5674 43.7939 51.1211 66.3945c19.7617 -20.4346 39.1689 -42.1406 58.2217 -65.1191c6.15234 26.6074 16.127 56.5947 29.9248 89.9629
c13.7988 33.3662 33.373 68.9512 58.7217 106.751c25.3506 37.8008 58.3506 77.0293 99.0029 117.683z" />
</svg>
