<?xml version="1.0" standalone="no"?>
<!DOCTYPE svg PUBLIC "-//W3C//DTD SVG 1.1//EN" "http://www.w3.org/Graphics/SVG/1.1/DTD/svg11.dtd" >
<svg xmlns="http://www.w3.org/2000/svg" xmlns:xlink="http://www.w3.org/1999/xlink" version="1.1" viewBox="0 0 788 732">
   <path fill="currentColor"
d="M750.642 732.053c-15.6807 -13.127 -31.0811 -25.4561 -46.1982 -36.9873c-52.4766 -40.0244 -100.951 -72.4883 -145.424 -97.3936c-44.4717 -24.9043 -83.8193 -44.2383 -118.04 -58.0029c19.9727 -14.6748 39.3232 -30.749 58.0508 -48.2246
c-49.6328 -37.4492 -95.6328 -68.0361 -138 -91.7627c-44.4727 -24.9033 -83.8203 -44.2383 -118.041 -58.002c19.9736 -14.6748 39.3232 -30.749 58.0508 -48.2256c-49.6328 -37.4492 -95.6328 -68.0361 -138 -91.7617
c-44.4727 -24.9043 -83.8193 -44.2393 -118.04 -58.0029c26.1494 -19.2129 51.2314 -40.8262 75.2461 -64.8408s46.9629 -50.4316 68.8428 -79.249c13.7656 34.2197 33.0273 73.4951 57.7861 117.823c23.6416 42.3252 54.2412 88.3652 91.7988 138.119
c16.6768 -18.0977 32.8125 -37.415 48.4053 -57.9521c13.7646 34.2197 33.0264 73.4951 57.7861 117.823c23.6406 42.3252 54.2402 88.3652 91.7979 138.119c16.6777 -18.0986 32.8125 -37.416 48.4062 -57.9531c13.7646 34.2207 33.0264 73.4951 57.7861 117.824
c24.7598 44.3271 57.1514 92.7295 97.1768 145.206c11.6367 15.2568 24.0986 30.8125 37.3857 46.667z" />
</svg>
