<?xml version="1.0" standalone="no"?>
<!DOCTYPE svg PUBLIC "-//W3C//DTD SVG 1.1//EN" "http://www.w3.org/Graphics/SVG/1.1/DTD/svg11.dtd" >
<svg xmlns="http://www.w3.org/2000/svg" xmlns:xlink="http://www.w3.org/1999/xlink" version="1.1" viewBox="0 0 760 800">
   <path fill="currentColor"
d="M590.303 550.139l-10.0273 -41.3154c-24.3145 -100.174 -43.0791 -165.504 -53.7275 -187.049c-8.53125 -17.2617 -8.73926 -31.6641 -0.542969 -37.5225c3.32617 -2.37695 7.23145 -4.3584 8.5918 -4.3584c4.19922 0 14.1348 6.25977 25.2197 15.8896
c8.02539 6.97168 19.3145 12.9375 33.9697 17.9414c-2.08594 -19.873 -3.4834 -43.5859 -3.4834 -43.5859l-10.0273 -41.3154c-24.3145 -100.174 -43.0791 -165.504 -53.7275 -187.049c-8.53125 -17.2617 -8.73926 -31.6641 -0.542969 -37.5225
c3.32617 -2.37695 7.23145 -4.3584 8.5918 -4.3584c4.19922 0 14.1348 6.25977 25.2197 15.8896c12.6045 10.9482 33.2578 19.418 62.3584 25.5732c20.209 4.27441 22.3535 8.36914 68.3604 3.64355c8.86816 -0.911133 59.4033 -4.97656 59.4033 -3.64941
c0 1.32227 -5.70312 10.0449 -12.6738 19.3838c-22.5166 30.166 -37.5723 55.7471 -55.7939 94.7979c-23.8301 51.0723 -22.9355 73.4678 -39.7041 131.02c0 0 -5.55957 20.1738 -10.2773 36.9941c13.002 3.25195 21.1211 5.34961 59.0459 1.4541
c8.86816 -0.911133 59.4033 -4.97656 59.4033 -3.64941c0 1.32227 -5.70312 10.0449 -12.6738 19.3838c-22.5166 30.166 -37.5723 55.7471 -55.7939 94.7979c-23.8301 51.0723 -22.9355 73.4678 -39.7041 131.02c0 0 -15.1748 221.07 -16.6611 225.098
c-2.30078 6.2334 -6.22559 9.1377 -10.5703 9.00195c-5.6875 -0.177734 -12.0947 -5.56445 -16.5225 -15.5098c-4.19824 -9.42969 -7.70996 -235.003 -7.70996 -235.003zM262.611 402.604l-7.52148 -30.9863c-18.2354 -75.1299 -32.3086 -124.128 -40.2949 -140.286
c-6.39844 -12.9463 -6.55469 -23.748 -0.407227 -28.1416c2.49414 -1.7832 5.42285 -3.26953 6.44336 -3.26953c3.14941 0 10.6016 4.69531 18.915 11.918c9.45312 8.21094 24.9434 14.5625 46.7686 19.1797c15.1572 3.20508 16.7656 6.27637 51.2705 2.73242
c6.65137 -0.683594 44.5527 -3.73242 44.5527 -2.7373c0 0.992188 -4.27734 7.53418 -9.50586 14.5381c-16.8867 22.625 -28.1787 41.8105 -41.8457 71.0986c-17.8721 38.3037 -17.2012 55.1006 -29.7773 98.2646c0 0 -11.3809 375.803 -12.4961 378.823
c-1.72559 4.6748 -4.66895 6.85254 -7.92773 6.75098c-4.26562 -0.132812 -9.07129 -4.17285 -12.3916 -11.6318c-3.14941 -7.07227 -5.78223 -386.253 -5.78223 -386.253zM435.111 612.604l-7.52148 -30.9863c-18.2354 -75.1299 -32.3086 -124.128 -40.2949 -140.286
c-6.39844 -12.9463 -6.55469 -23.748 -0.407227 -28.1416c2.49414 -1.7832 5.42285 -3.26953 6.44336 -3.26953c3.14941 0 10.6016 4.69531 18.915 11.918c6.01855 5.22852 14.4854 9.70312 25.4775 13.4551c-1.56445 -14.9043 -2.6123 -32.6895 -2.6123 -32.6895
l-7.52148 -30.9863c-18.2354 -75.1299 -32.3086 -124.128 -40.2949 -140.286c-6.39844 -12.9463 -6.55469 -23.748 -0.407227 -28.1416c2.49414 -1.7832 5.42285 -3.26953 6.44336 -3.26953c3.14941 0 10.6016 4.69531 18.915 11.918
c9.45312 8.21094 24.9434 14.5625 46.7686 19.1797c15.1572 3.20508 16.7656 6.27637 51.2705 2.73242c6.65137 -0.683594 44.5527 -3.73242 44.5527 -2.7373c0 0.992188 -4.27734 7.53418 -9.50586 14.5381c-16.8867 22.625 -28.1787 41.8105 -41.8457 71.0986
c-17.8721 38.3037 -17.2012 55.1006 -29.7773 98.2646c0 0 -4.16992 15.1299 -7.70801 27.7451c9.75098 2.43848 15.8418 4.01172 44.2842 1.09082c6.65137 -0.683594 44.5527 -3.73242 44.5527 -2.7373c0 0.992188 -4.27734 7.53418 -9.50586 14.5381
c-16.8867 22.625 -28.1787 41.8105 -41.8457 71.0986c-17.8721 38.3037 -17.2012 55.1006 -29.7773 98.2646c0 0 -11.3809 165.803 -12.4961 168.823c-1.72559 4.6748 -4.66895 6.85254 -7.92773 6.75098c-4.26562 -0.132812 -9.07129 -4.17285 -12.3916 -11.6318
c-3.14941 -7.07227 -5.78223 -176.253 -5.78223 -176.253zM130.303 270.139l-10.0273 -41.3154c-24.3145 -100.174 -43.0791 -165.504 -53.7275 -187.049c-8.53125 -17.2617 -8.73926 -31.6641 -0.542969 -37.5225c3.32617 -2.37695 7.23145 -4.3584 8.5918 -4.3584
c4.19922 0 14.1348 6.25977 25.2197 15.8896c12.6045 10.9482 33.2578 19.418 62.3584 25.5732c20.209 4.27441 22.3535 8.36914 68.3604 3.64355c8.86816 -0.911133 59.4033 -4.97656 59.4033 -3.64941c0 1.32227 -5.70312 10.0449 -12.6738 19.3838
c-22.5166 30.166 -37.5723 55.7471 -55.7939 94.7979c-23.8301 51.0723 -22.9355 73.4678 -39.7041 131.02c0 0 -15.1748 501.07 -16.6611 505.098c-2.30078 6.2334 -6.22559 9.1377 -10.5703 9.00195c-5.6875 -0.177734 -12.0947 -5.56445 -16.5225 -15.5098
c-4.19824 -9.42969 -7.70996 -515.003 -7.70996 -515.003z" />
</svg>
