<?xml version="1.0" standalone="no"?>
<!DOCTYPE svg PUBLIC "-//W3C//DTD SVG 1.1//EN" "http://www.w3.org/Graphics/SVG/1.1/DTD/svg11.dtd" >
<svg xmlns="http://www.w3.org/2000/svg" xmlns:xlink="http://www.w3.org/1999/xlink" version="1.1" viewBox="0 0 990 800">
   <path fill="currentColor"
d="M737.11 211.488c5.57227 -6.81348 23.001 -3.58984 20.7891 4.83984c-7.81543 29.7803 -45 75.8242 -65.2617 143.709c-16.4102 54.9805 14.0605 126.369 49.1914 172.742c20.1621 26.6133 34.9004 74.1094 29.6553 79.3545
c-2.1377 2.13867 -9.82617 -7.49902 -17.1768 -21.5322c-7.31836 -13.9717 -30.1982 -42.8232 -50.8438 -64.1133c-35.0771 -36.1729 -49.5596 -46.2432 -120.205 -83.585c-6.41211 -3.38867 -12.1299 -6.99805 -16.627 -10.7295
c-45.8926 2.33203 -157.012 4.06152 -157.012 4.06152l-30.9863 7.52051c-75.1309 18.2354 -124.128 32.3096 -140.287 40.2959c-12.9463 6.39844 -23.748 6.55371 -28.1416 0.407227c-1.7832 -2.49512 -3.26855 -5.42383 -3.26855 -6.44434
c0 -3.14941 4.69434 -10.6006 11.917 -18.915c8.21094 -9.45312 14.5635 -24.9434 19.1797 -46.7686c3.20605 -15.1562 6.27734 -16.7646 2.73242 -51.2705c-0.682617 -6.65039 -3.73242 -44.5518 -2.73633 -44.5518c0.991211 0 7.5332 4.27734 14.5371 9.50488
c22.625 16.8877 41.8105 28.1797 71.0986 41.8457c38.3047 17.8721 55.1006 17.2012 98.2646 29.7783c0 0 88.9551 6.10645 137.738 9.81055c3.29395 -4.01367 9.18066 -7.93457 18.2686 -11.6514c17.0352 -6.96875 78.9414 -62.3096 91.8809 -73.0723
c24.75 -20.5859 28.4658 -63.7578 67.293 -111.236zM662.865 367.408c0.860352 -0.966797 1.67871 -1.9248 2.45215 -2.87109c-0.902344 0.507812 -1.72168 1.48828 -2.45215 2.87109zM820.303 550.139l-10.0273 -41.3154
c-24.3145 -100.174 -43.0791 -165.504 -53.7275 -187.049c-8.53125 -17.2617 -8.73926 -31.6641 -0.542969 -37.5225c3.32617 -2.37695 7.23145 -4.3584 8.5918 -4.3584c4.19922 0 14.1348 6.25977 25.2197 15.8896c8.02539 6.97168 19.3145 12.9375 33.9697 17.9414
c-2.08594 -19.873 -3.4834 -43.5859 -3.4834 -43.5859l-10.0273 -41.3154c-24.3145 -100.174 -43.0791 -165.504 -53.7275 -187.049c-8.53125 -17.2617 -8.73926 -31.6641 -0.542969 -37.5225c3.32617 -2.37695 7.23145 -4.3584 8.5918 -4.3584
c4.19922 0 14.1348 6.25977 25.2197 15.8896c12.6045 10.9482 33.2578 19.418 62.3584 25.5732c20.209 4.27441 22.3535 8.36914 68.3604 3.64355c8.86816 -0.911133 59.4033 -4.97656 59.4033 -3.64941c0 1.32227 -5.70312 10.0449 -12.6738 19.3838
c-22.5166 30.166 -37.5723 55.7471 -55.7939 94.7979c-23.8301 51.0723 -22.9355 73.4678 -39.7041 131.02c0 0 -5.55957 20.1738 -10.2773 36.9941c13.002 3.25195 21.1211 5.34961 59.0459 1.4541c8.86816 -0.911133 59.4033 -4.97656 59.4033 -3.64941
c0 1.32227 -5.70312 10.0449 -12.6738 19.3838c-22.5166 30.166 -37.5723 55.7471 -55.7939 94.7979c-23.8301 51.0723 -22.9355 73.4678 -39.7041 131.02c0 0 -15.1748 221.07 -16.6611 225.098c-2.30078 6.2334 -6.22559 9.1377 -10.5703 9.00195
c-5.6875 -0.177734 -12.0947 -5.56445 -16.5225 -15.5098c-4.19824 -9.42969 -7.70996 -235.003 -7.70996 -235.003zM130.303 270.139l-10.0273 -41.3154c-24.3145 -100.174 -43.0791 -165.504 -53.7275 -187.049c-8.53125 -17.2617 -8.73926 -31.6641 -0.542969 -37.5225
c3.32617 -2.37695 7.23145 -4.3584 8.5918 -4.3584c4.19922 0 14.1348 6.25977 25.2197 15.8896c12.6045 10.9482 33.2578 19.418 62.3584 25.5732c20.209 4.27441 22.3535 8.36914 68.3604 3.64355c8.86816 -0.911133 59.4033 -4.97656 59.4033 -3.64941
c0 1.32227 -5.70312 10.0449 -12.6738 19.3838c-22.5166 30.166 -37.5723 55.7471 -55.7939 94.7979c-23.8301 51.0723 -22.9355 73.4678 -39.7041 131.02c0 0 -15.1748 501.07 -16.6611 505.098c-2.30078 6.2334 -6.22559 9.1377 -10.5703 9.00195
c-5.6875 -0.177734 -12.0947 -5.56445 -16.5225 -15.5098c-4.19824 -9.42969 -7.70996 -515.003 -7.70996 -515.003z" />
</svg>
