<?xml version="1.0" standalone="no"?>
<!DOCTYPE svg PUBLIC "-//W3C//DTD SVG 1.1//EN" "http://www.w3.org/Graphics/SVG/1.1/DTD/svg11.dtd" >
<svg xmlns="http://www.w3.org/2000/svg" xmlns:xlink="http://www.w3.org/1999/xlink" version="1.1" viewBox="0 0 1511 800">
   <path fill="currentColor"
d="M817.629 650.431c-19.1475 2.02637 -28.5693 -16.2109 -26.916 -26.1494c0.416992 -2.50391 1.09961 -5.05859 1.78711 -6.86523c-10.5859 -8.98438 -19.335 -16.7598 -19.335 -16.7598l-36.3047 -22.124c-56.3232 -34.3213 -100.952 -60.1631 -131.757 -76.3428
l-36.1738 8.7793c-100.174 24.3145 -165.504 43.0791 -187.049 53.7275c-17.2617 8.53125 -31.6641 8.73926 -37.5225 0.542969c-2.37695 -3.32617 -4.3584 -7.23145 -4.3584 -8.5918c0 -4.19922 6.25977 -14.1348 15.8896 -25.2197
c6.97168 -8.02539 12.9375 -19.3154 17.9414 -33.9707c-19.873 2.08691 -43.5859 3.48438 -43.5859 3.48438l-41.3154 10.0273c-100.174 24.3145 -165.504 43.0791 -187.049 53.7275c-17.2617 8.53125 -31.6641 8.73926 -37.5225 0.542969
c-2.37695 -3.32617 -4.3584 -7.23145 -4.3584 -8.5918c0 -4.19922 6.25977 -14.1348 15.8896 -25.2197c10.9482 -12.6045 19.418 -33.2578 25.5732 -62.3584c4.27441 -20.209 8.36914 -22.3535 3.64355 -68.3604c-0.911133 -8.86816 -4.97656 -59.4033 -3.64941 -59.4033
c1.32227 0 10.0449 5.70312 19.3838 12.6738c30.166 22.5166 55.7471 37.5723 94.7979 55.7939c51.0723 23.8301 73.4678 22.9355 131.02 39.7041c0 0 20.1738 5.55859 36.9941 10.2773c3.25195 -13.002 5.34961 -21.1221 1.4541 -59.0459
c-0.911133 -8.86816 -4.97656 -59.4033 -3.64941 -59.4033c1.32227 0 10.0449 5.70312 19.3838 12.6738c30.166 22.5166 55.7471 37.5723 94.7979 55.7939c37.8408 17.6562 59.9385 21.7393 92.2578 29.4912c13.3184 -3.96387 28.6172 -11.585 46.0322 -22.9189
c17.3125 -11.2676 21.7246 -9.8877 50.915 -45.7617c5.62598 -6.91504 38.4854 -45.5234 39.4238 -44.585c0.93457 0.935547 3.07031 11.1357 4.74414 22.668c5.40918 37.2529 12.8516 65.9873 27.5801 106.485c19.2637 52.9639 35.7314 68.167 64.5703 120.72
c0 0 7.37402 12.9844 14.8223 26.1973c34.0049 -21.1924 118.093 -88.9248 158.05 -119.382c-1.29297 -0.360352 -2.625 -0.800781 -3.99023 -1.3252c-9.63574 -3.69922 -54.2441 -43.3408 -54.2441 -43.3408l-36.3047 -22.124
c-88.0264 -53.6406 -147.49 -86.5674 -170.255 -94.2725c-18.2383 -6.17285 -28.5693 -16.21 -26.916 -26.1484c0.670898 -4.03223 2.03125 -8.19531 2.99316 -9.15723c2.96973 -2.96875 14.4219 -5.56836 29.0693 -6.59668
c12.3057 -0.865234 26.7617 -5.79492 43.5293 -14.8555c-139.69 2.93457 -447.671 5.07422 -447.671 5.07422l-41.3154 10.0273c-100.174 24.3145 -165.504 43.0791 -187.049 53.7275c-17.2617 8.53125 -31.6641 8.73926 -37.5225 0.542969
c-2.37695 -3.32617 -4.3584 -7.23145 -4.3584 -8.5918c0 -4.19922 6.25977 -14.1348 15.8896 -25.2197c10.9482 -12.6045 19.418 -33.2578 25.5732 -62.3584c4.27441 -20.209 8.36914 -22.3535 3.64355 -68.3604c-0.911133 -8.86816 -4.97656 -59.4033 -3.64941 -59.4033
c1.32227 0 10.0449 5.70312 19.3838 12.6738c30.166 22.5166 55.7471 37.5723 94.7979 55.7939c51.0723 23.8301 73.4678 22.9355 131.02 39.7041c0 0 372.91 11.2939 477.907 15.3496c5.71973 -5.55762 12.8408 -13.501 22.9121 -25.8779
c5.62695 -6.91406 38.4863 -45.5234 39.4248 -44.585c0.93457 0.935547 3.06934 11.1357 4.74414 22.6689c5.40918 37.252 12.8516 65.9863 27.5801 106.484c19.2627 52.9639 35.7314 68.167 64.5693 120.72c0 0 28.2109 49.6709 30.0078 53.5693
c0.177734 0.386719 0.341797 0.768555 0.491211 1.14551c20.9688 -15.1689 98.4697 -87.5059 126.633 -122.116c2.7666 -3.40039 12.1152 -14.4609 21.0176 -24.7168c-2.84082 -0.34082 -5.95703 -1.12109 -9.2666 -2.3916
c-9.63574 -3.69922 -54.2441 -43.3398 -54.2441 -43.3398l-36.3047 -22.124c-88.0264 -53.6416 -147.49 -86.5684 -170.255 -94.2725c-18.2383 -6.17383 -28.5693 -16.2109 -26.916 -26.1484c0.670898 -4.0332 2.03125 -8.19531 2.99316 -9.15723
c2.96973 -2.96973 14.4209 -5.56836 29.0693 -6.59766c16.6543 -1.1709 37.2471 -9.78613 62.1768 -26.0107c17.3125 -11.2676 21.7246 -9.88867 50.9141 -45.7617c5.62695 -6.91504 38.4863 -45.5234 39.4238 -44.585c0.935547 0.93457 3.07031 11.1348 4.74512 22.668
c5.40918 37.252 12.8516 65.9863 27.5801 106.484c19.2627 52.9639 35.7314 68.167 64.5693 120.72c0 0 28.2109 49.6709 30.0078 53.5693c0.0712891 0.155273 0.140625 0.310547 0.208008 0.463867c2.14551 -2.26562 3.52344 -3.56641 3.70508 -3.38477
c0.93457 0.93457 3.78418 11.0537 4.74414 22.668c13.5059 163.358 58.1191 308.339 143.37 457.551c3.29688 5.76855 2.05957 10.8633 -1.1084 13.8398c-4.14746 3.89551 -15.8496 9.21582 -22.6504 0.71582c-28.7207 -35.9014 -91.6328 -66.9072 -163.955 -91.043
c0.0117188 0.240234 0.00585938 0.482422 0.00585938 0.726562c-0.177734 5.6875 -5.56445 12.0947 -15.5098 16.5225c-9.42969 4.19824 -795.003 7.70996 -795.003 7.70996l-41.3154 10.0273c-100.174 24.3145 -165.504 43.0791 -187.049 53.7275
c-17.2617 8.53125 -31.6641 8.73926 -37.5225 0.542969c-2.37695 -3.32617 -4.3584 -7.23145 -4.3584 -8.5918c0 -4.19922 6.25977 -14.1348 15.8896 -25.2197c10.9482 -12.6045 19.418 -33.2578 25.5732 -62.3584c4.27441 -20.209 8.36914 -22.3535 3.64355 -68.3604
c-0.911133 -8.86816 -4.97656 -59.4033 -3.64941 -59.4033c1.32227 0 10.0449 5.70312 19.3838 12.6738c30.166 22.5166 55.7471 37.5723 94.7979 55.7939c51.0723 23.8301 73.4678 22.9355 131.02 39.7041c0 0 625.354 12.1494 759.835 15.7705
c-111.296 -32.7363 -234.962 -49.5225 -288.864 -43.8174zM1340.71 270.139l-10.0273 -41.3154c-24.3145 -100.174 -43.0791 -165.504 -53.7275 -187.049c-8.53125 -17.2617 -8.73926 -31.6641 -0.542969 -37.5225c3.32617 -2.37695 7.23145 -4.3584 8.5918 -4.3584
c4.19922 0 14.1348 6.25977 25.2197 15.8896c12.6045 10.9482 33.2578 19.418 62.3584 25.5732c20.209 4.27441 22.3535 8.36914 68.3604 3.64355c8.86816 -0.911133 59.4033 -4.97656 59.4033 -3.64941c0 1.32227 -5.70312 10.0449 -12.6738 19.3838
c-22.5166 30.166 -37.5723 55.7471 -55.7939 94.7979c-23.8301 51.0723 -22.9355 73.4678 -39.7041 131.02c0 0 -15.1748 501.07 -16.6611 505.098c-2.30078 6.2334 -6.22559 9.1377 -10.5703 9.00195c-5.6875 -0.177734 -12.0947 -5.56445 -16.5225 -15.5098
c-4.19824 -9.42969 -7.70996 -515.003 -7.70996 -515.003z" />
</svg>
