<?xml version="1.0" standalone="no"?>
<!DOCTYPE svg PUBLIC "-//W3C//DTD SVG 1.1//EN" "http://www.w3.org/Graphics/SVG/1.1/DTD/svg11.dtd" >
<svg xmlns="http://www.w3.org/2000/svg" xmlns:xlink="http://www.w3.org/1999/xlink" version="1.1" viewBox="0 0 1701 895">
   <path fill="currentColor"
d="M1472.63 274.778c5.57227 -6.81348 23.001 -3.59082 20.7891 4.83984c-7.81543 29.7803 -44.999 75.8242 -65.2617 143.708c-16.4102 54.9814 14.0605 126.369 49.1914 172.743c20.1621 26.6133 34.9004 74.1094 29.6562 79.3535
c-2.13867 2.13867 -9.82715 -7.49902 -17.1777 -21.5312c-7.31836 -13.9717 -30.1982 -42.8232 -50.8438 -64.1133c-35.0771 -36.1738 -49.5586 -46.2441 -120.205 -83.5859c-26.8896 -14.2119 -41.5586 -32.2861 -5.32227 -47.1064
c17.0352 -6.96777 78.9414 -62.3086 91.8809 -73.0723c24.75 -20.585 28.4658 -63.7578 67.293 -111.235zM681.631 55.2471c9.90625 -12.1133 27.5576 -6.38281 23.625 8.60352c-13.8916 52.9434 -79.998 134.799 -116.02 255.482
c-29.1738 97.7432 24.9961 224.656 87.4512 307.098c35.8438 47.3125 75.3789 131.75 66.0547 141.074c-3.80078 3.80273 -17.4707 -13.332 -30.5371 -38.2793c-13.0117 -24.8379 -53.6855 -76.1289 -90.3887 -113.979
c-62.3594 -64.3086 -88.1055 -82.2109 -213.697 -148.596c-47.8047 -25.2676 -73.8838 -57.3984 -9.46289 -83.7461c30.2852 -12.3867 140.34 -110.771 163.344 -129.905c44 -36.5967 50.6055 -113.348 119.631 -197.753zM335.245 214.941l-41.3154 10.0273
c-100.174 24.3145 -165.504 43.0791 -187.049 53.7275c-17.2617 8.53125 -31.6641 8.73926 -37.5225 0.542969c-2.37695 -3.32617 -4.3584 -7.23145 -4.3584 -8.5918c0 -4.19922 6.25977 -14.1348 15.8896 -25.2197c10.9482 -12.6045 19.418 -33.2578 25.5732 -62.3584
c4.27441 -20.209 8.36914 -22.3535 3.64355 -68.3604c-0.911133 -8.86816 -4.97656 -59.4033 -3.64941 -59.4033c1.32227 0 10.0449 5.70312 19.3838 12.6738c30.166 22.5166 55.7471 37.5723 94.7979 55.7939c51.0723 23.8301 73.4678 22.9355 131.02 39.7041
c0 0 221.07 15.1748 225.098 16.6611c6.2334 2.30078 9.1377 6.22559 9.00195 10.5703c-0.177734 5.6875 -5.56445 12.0947 -15.5098 16.5225c-9.42969 4.19824 -235.003 7.70996 -235.003 7.70996zM335.245 674.941l-41.3154 10.0273
c-100.174 24.3145 -165.504 43.0791 -187.049 53.7275c-17.2617 8.53125 -31.6641 8.73926 -37.5225 0.542969c-2.37695 -3.32617 -4.3584 -7.23145 -4.3584 -8.5918c0 -4.19922 6.25977 -14.1348 15.8896 -25.2197c10.9482 -12.6045 19.418 -33.2578 25.5732 -62.3584
c4.27441 -20.209 8.36914 -22.3535 3.64355 -68.3604c-0.911133 -8.86816 -4.97656 -59.4033 -3.64941 -59.4033c1.32227 0 10.0449 5.70312 19.3838 12.6738c30.166 22.5166 55.7471 37.5723 94.7979 55.7939c51.0723 23.8301 73.4678 22.9355 131.02 39.7041
c0 0 221.07 15.1748 225.098 16.6611c6.2334 2.30078 9.1377 6.22559 9.00195 10.5703c-0.177734 5.6875 -5.56445 12.0947 -15.5098 16.5225c-9.42969 4.19824 -235.003 7.70996 -235.003 7.70996zM1530.77 270.139l-10.0273 -41.3154
c-6.98535 -28.7793 -13.5127 -54.6826 -19.5205 -77.498c-0.619141 0.310547 -1.25879 0.612305 -1.91797 0.90625c-9.42969 4.19824 -515.003 7.70996 -515.003 7.70996l-41.3154 10.0273c-100.174 24.3145 -165.504 43.0791 -187.049 53.7275
c-17.2617 8.53125 -31.6641 8.73926 -37.5225 0.542969c-2.37695 -3.32617 -4.3584 -7.23145 -4.3584 -8.5918c0 -4.19922 6.25977 -14.1348 15.8896 -25.2197c10.9482 -12.6045 19.418 -33.2578 25.5732 -62.3584c4.27441 -20.209 8.36914 -22.3535 3.64355 -68.3604
c-0.911133 -8.86816 -4.97656 -59.4033 -3.64941 -59.4033c1.32227 0 10.0449 5.70312 19.3838 12.6738c30.166 22.5166 55.7471 37.5723 94.7979 55.7939c51.0723 23.8301 73.4678 22.9355 131.02 39.7041c0 0 417.165 12.6338 493.277 15.9756
c-11.4902 -41.7188 -20.6611 -69.9004 -26.9766 -82.6787c-8.53125 -17.2617 -8.73926 -31.6641 -0.542969 -37.5225c3.32617 -2.37695 7.23145 -4.3584 8.5918 -4.3584c4.19922 0 14.1348 6.25977 25.2197 15.8896c12.6045 10.9482 33.2578 19.418 62.3584 25.5732
c20.209 4.27441 22.3535 8.36914 68.3604 3.64355c8.86816 -0.911133 59.4033 -4.97656 59.4033 -3.64941c0 1.32227 -5.70312 10.0449 -12.6738 19.3838c-22.5166 30.166 -37.5723 55.7471 -55.7939 94.7979c-23.8301 51.0723 -22.9355 73.4678 -39.7041 131.02
c0 0 -15.1748 501.07 -16.6611 505.098c-2.30078 6.2334 -6.22559 9.1377 -10.5703 9.00195c-5.6875 -0.177734 -12.0947 -5.56445 -16.5225 -15.5098c-4.19824 -9.42969 -7.70996 -515.003 -7.70996 -515.003zM984.299 824.941l-41.3154 10.0273
c-100.174 24.3145 -165.504 43.0791 -187.049 53.7275c-17.2617 8.53125 -31.6641 8.73926 -37.5225 0.542969c-2.37695 -3.32617 -4.3584 -7.23145 -4.3584 -8.5918c0 -4.19922 6.25977 -14.1348 15.8896 -25.2197c10.9482 -12.6045 19.418 -33.2578 25.5732 -62.3584
c4.27441 -20.209 8.36914 -22.3535 3.64355 -68.3604c-0.911133 -8.86816 -4.97656 -59.4033 -3.64941 -59.4033c1.32227 0 10.0449 5.70312 19.3838 12.6738c30.166 22.5166 55.7471 37.5723 94.7979 55.7939c51.0723 23.8301 73.4678 22.9355 131.02 39.7041
c0 0 501.07 15.1748 505.098 16.6611c6.2334 2.30078 9.1377 6.22559 9.00195 10.5703c-0.177734 5.6875 -5.56445 12.0947 -15.5098 16.5225c-9.42969 4.19824 -515.003 7.70996 -515.003 7.70996zM1026.28 577.673l-7.52051 -30.9863
c-18.2354 -75.1309 -32.3086 -124.128 -40.2949 -140.287c-6.39844 -12.9463 -6.55469 -23.748 -0.407227 -28.1416c2.49414 -1.7832 5.42285 -3.26855 6.44336 -3.26855c3.14941 0 10.6016 4.69434 18.915 11.917c6.01953 5.22852 14.4863 9.70312 25.4775 13.4561
c-1.56445 -14.9043 -2.61328 -32.6895 -2.61328 -32.6895l-7.52051 -30.9863c-18.2354 -75.1309 -32.3086 -124.128 -40.2949 -140.287c-6.39844 -12.9463 -6.55469 -23.748 -0.407227 -28.1416c2.49414 -1.7832 5.42285 -3.26855 6.44336 -3.26855
c3.14941 0 10.6016 4.69434 18.915 11.917c9.45312 8.21094 24.9434 14.5635 46.7686 19.1797c15.1572 3.20605 16.7656 6.27734 51.2705 2.73242c6.65137 -0.682617 44.5527 -3.73242 44.5527 -2.73633c0 0.991211 -4.27734 7.5332 -9.50586 14.5371
c-16.8877 22.625 -28.1787 41.8105 -41.8457 71.0986c-17.8721 38.3047 -17.2012 55.1006 -29.7773 98.2646c0 0 -4.16992 15.1309 -7.70801 27.7461c9.75098 2.43848 15.8408 4.01172 44.2842 1.08984c6.65137 -0.682617 44.5527 -3.73242 44.5527 -2.73633
c0 0.991211 -4.27734 7.5332 -9.50586 14.5371c-16.8877 22.625 -28.1787 41.8105 -41.8457 71.0986c-17.8721 38.3047 -17.2012 55.1006 -29.7773 98.2646c0 0 -11.3818 165.803 -12.4961 168.823c-1.72559 4.6748 -4.66895 6.85352 -7.92773 6.75195
c-4.26562 -0.133789 -9.07129 -4.17383 -12.3916 -11.6328c-3.14941 -7.07227 -5.7832 -176.252 -5.7832 -176.252zM1198.78 577.673l-7.52051 -30.9863c-18.2354 -75.1309 -32.3086 -124.128 -40.2949 -140.287c-6.39844 -12.9463 -6.55469 -23.748 -0.407227 -28.1416
c2.49414 -1.7832 5.42285 -3.26855 6.44336 -3.26855c3.14941 0 10.6016 4.69434 18.915 11.917c6.01953 5.22852 14.4863 9.70312 25.4775 13.4561c-1.56445 -14.9043 -2.61328 -32.6895 -2.61328 -32.6895l-7.52051 -30.9863
c-18.2354 -75.1309 -32.3086 -124.128 -40.2949 -140.287c-6.39844 -12.9463 -6.55469 -23.748 -0.407227 -28.1416c2.49414 -1.7832 5.42285 -3.26855 6.44336 -3.26855c3.14941 0 10.6016 4.69434 18.915 11.917c9.45312 8.21094 24.9434 14.5635 46.7686 19.1797
c15.1572 3.20605 16.7656 6.27734 51.2705 2.73242c6.65137 -0.682617 44.5527 -3.73242 44.5527 -2.73633c0 0.991211 -4.27734 7.5332 -9.50586 14.5371c-16.8877 22.625 -28.1787 41.8105 -41.8457 71.0986c-17.8721 38.3047 -17.2012 55.1006 -29.7773 98.2646
c0 0 -4.16992 15.1309 -7.70801 27.7461c9.75098 2.43848 15.8408 4.01172 44.2842 1.08984c6.65137 -0.682617 44.5527 -3.73242 44.5527 -2.73633c0 0.991211 -4.27734 7.5332 -9.50586 14.5371c-16.8877 22.625 -28.1787 41.8105 -41.8457 71.0986
c-17.8721 38.3047 -17.2012 55.1006 -29.7773 98.2646c0 0 -11.3818 165.803 -12.4961 168.823c-1.72559 4.6748 -4.66895 6.85352 -7.92773 6.75195c-4.26562 -0.133789 -9.07129 -4.17383 -12.3916 -11.6328c-3.14941 -7.07227 -5.7832 -176.252 -5.7832 -176.252z
M1398.38 430.696c0.859375 -0.96582 1.67773 -1.92383 2.45117 -2.87012c-0.901367 0.507812 -1.7207 1.48828 -2.45117 2.87012zM552.857 314.84c0.388672 -0.288086 0.769531 -0.568359 1.14258 -0.839844c-0.389648 0.219727 -0.770508 0.5 -1.14258 0.839844z" />
</svg>
