<?xml version="1.0" standalone="no"?>
<!DOCTYPE svg PUBLIC "-//W3C//DTD SVG 1.1//EN" "http://www.w3.org/Graphics/SVG/1.1/DTD/svg11.dtd" >
<svg xmlns="http://www.w3.org/2000/svg" xmlns:xlink="http://www.w3.org/1999/xlink" version="1.1" viewBox="0 0 1956 895">
   <path fill="currentColor"
d="M935.914 585.185l-6.01562 -24.79c-14.5889 -60.1035 -25.8477 -99.3018 -32.2373 -112.229c-5.11816 -10.3574 -5.24316 -18.999 -0.325195 -22.5137c1.99512 -1.42676 4.33887 -2.61523 5.15527 -2.61523c2.51953 0 8.48047 3.75586 15.1318 9.53418
c4.81543 4.18262 11.5889 7.76172 20.3818 10.7646c-1.25195 -11.9238 -2.09082 -26.1514 -2.09082 -26.1514l-6.01562 -24.79c-14.5889 -60.1035 -25.8477 -99.3018 -32.2373 -112.229c-5.11816 -10.3574 -5.24316 -18.999 -0.325195 -22.5137
c1.99512 -1.42676 4.33887 -2.61523 5.15527 -2.61523c2.51953 0 8.48047 3.75586 15.1318 9.53418c7.5625 6.56836 19.9541 11.6504 37.415 15.3438c12.125 2.56445 13.4121 5.02148 41.0156 2.18555c5.32129 -0.545898 35.6426 -2.98535 35.6426 -2.18945
c0 0.793945 -3.42188 6.02734 -7.60449 11.6309c-13.5098 18.0996 -22.5439 33.4482 -33.4766 56.8779c-14.2979 30.6436 -13.7617 44.0811 -23.8223 78.6123c0 0 -3.33594 12.1045 -6.16699 22.1963c7.80176 1.95117 12.6738 3.20996 35.4277 0.87207
c5.32129 -0.545898 35.6426 -2.98535 35.6426 -2.18945c0 0.793945 -3.42188 6.02734 -7.60449 11.6309c-13.5098 18.0996 -22.5439 33.4482 -33.4766 56.8779c-14.2979 30.6436 -13.7617 44.0811 -23.8223 78.6123c0 0 -9.10547 132.642 -9.99707 135.059
c-1.37988 3.74023 -3.73535 5.48242 -6.3418 5.40137c-3.41309 -0.107422 -7.25684 -3.33887 -9.91406 -9.30664c-2.51855 -5.65723 -4.62598 -141.001 -4.62598 -141.001zM827.163 419.815l-21.7832 -13.2744c-52.8154 -32.1846 -88.4941 -51.9404 -102.153 -56.5635
c-10.9424 -3.70508 -17.1416 -9.72656 -16.1494 -15.6895c0.402344 -2.41992 1.21875 -4.91699 1.7959 -5.49414c1.78223 -1.78223 8.65234 -3.34082 17.4414 -3.95898c9.99219 -0.702148 22.3486 -5.87109 37.3066 -15.6064
c10.3877 -6.76074 13.0342 -5.93262 30.5479 -27.457c3.37695 -4.14844 23.0918 -27.3135 23.6543 -26.751c0.561523 0.560547 1.84277 6.68066 2.84766 13.6006c3.24512 22.3516 7.71094 39.5918 16.5479 63.8906c11.5576 31.7783 21.4385 40.9004 38.7412 72.4326
c0 0 16.9268 29.8018 18.0049 32.1416c1.66797 3.62109 1.23535 6.51855 -0.665039 8.30371c-2.48926 2.33789 -7.49316 2.77051 -13.5908 0.429688c-5.78223 -2.21973 -32.5459 -26.0039 -32.5459 -26.0039zM776.763 557.815l-21.7832 -13.2744
c-52.8154 -32.1846 -88.4941 -51.9404 -102.152 -56.5635c-10.9434 -3.70508 -17.1416 -9.72656 -16.1494 -15.6895c0.402344 -2.41992 1.21875 -4.91699 1.7959 -5.49414c1.78125 -1.78223 8.65234 -3.34082 17.4404 -3.95898
c9.99316 -0.702148 22.3486 -5.87109 37.3066 -15.6064c10.3877 -6.76074 13.0342 -5.93262 30.5488 -27.457c3.37598 -4.14844 23.0908 -27.3135 23.6543 -26.751c0.561523 0.560547 1.8418 6.68066 2.84668 13.6006c3.24609 22.3516 7.71094 39.5918 16.5479 63.8906
c11.5576 31.7783 21.4395 40.9004 38.7422 72.4326c0 0 16.9268 29.8018 18.0039 32.1416c1.66895 3.62109 1.23535 6.51855 -0.665039 8.30371c-2.48828 2.33789 -7.49219 2.77051 -13.5898 0.429688c-5.78223 -2.21973 -32.5469 -26.0039 -32.5469 -26.0039z
M1519.51 274.523l-36.3047 -22.124c-88.0264 -53.6406 -147.49 -86.5674 -170.255 -94.2725c-18.2383 -6.17383 -28.5693 -16.2109 -26.916 -26.1484c0.670898 -4.0332 2.03125 -8.19531 2.99316 -9.15723c2.96973 -2.96973 14.4209 -5.56836 29.0684 -6.59766
c16.6543 -1.1709 37.248 -9.78613 62.1777 -26.0107c17.3125 -11.2676 21.7236 -9.88867 50.9141 -45.7617c5.62695 -6.91504 38.4854 -45.5234 39.4238 -44.585c0.935547 0.93457 3.07031 11.1348 4.74512 22.668c5.40918 37.252 12.8516 65.9863 27.5801 106.484
c19.2627 52.9639 35.7314 68.167 64.5693 120.72c0 0 28.2109 49.6709 30.0068 53.5693c2.78125 6.03516 2.05957 10.8643 -1.1084 13.8398c-4.14746 3.89648 -12.4873 4.61816 -22.6504 0.716797c-9.63672 -3.69922 -54.2441 -43.3408 -54.2441 -43.3408zM560.768 365.139
l-10.0273 -41.3154c-24.3145 -100.174 -43.0791 -165.504 -53.7275 -187.049c-8.53125 -17.2617 -8.73926 -31.6641 -0.542969 -37.5225c3.32617 -2.37695 7.23145 -4.3584 8.5918 -4.3584c4.19922 0 14.1348 6.25977 25.2197 15.8896
c12.6045 10.9482 33.2578 19.418 62.3584 25.5732c20.209 4.27441 22.3535 8.36914 68.3604 3.64355c8.86816 -0.911133 59.4033 -4.97656 59.4033 -3.64941c0 1.32227 -5.70312 10.0449 -12.6738 19.3838c-22.5166 30.166 -37.5723 55.7471 -55.7939 94.7979
c-23.8301 51.0723 -22.9355 73.4678 -39.7041 131.02c0 0 -9.30273 221.344 -14.0537 319.358c0.251953 0.699219 0.506836 1.40234 0.763672 2.1084c19.2627 52.9639 35.7314 68.167 64.5693 120.72c0 0 28.2109 49.6709 30.0068 53.5693
c2.78125 6.03516 2.05957 10.8643 -1.1084 13.8398c-4.14746 3.89648 -12.4873 4.61816 -22.6504 0.716797c-9.63672 -3.69922 -54.2441 -43.3408 -54.2441 -43.3408l-36.3047 -22.124c-88.0264 -53.6406 -147.49 -86.5674 -170.255 -94.2725
c-18.2383 -6.17383 -28.5693 -16.2109 -26.916 -26.1484c0.670898 -4.0332 2.03125 -8.19531 2.99316 -9.15723c2.96973 -2.96973 14.4209 -5.56836 29.0684 -6.59766c16.6543 -1.1709 37.248 -9.78613 62.1777 -26.0107
c17.3125 -11.2676 21.7236 -9.88867 50.9141 -45.7617c4.6377 -5.69922 27.7715 -32.9248 36.2891 -41.7988c-0.430664 -26.3359 -0.821289 -53.3115 -1.16309 -78.8037c-28.252 3.91992 -232.073 7.09277 -232.073 7.09277l-41.3154 10.0273
c-100.174 24.3145 -165.504 43.0791 -187.049 53.7275c-17.2617 8.53125 -31.6641 8.73926 -37.5225 0.542969c-2.37695 -3.32617 -4.3584 -7.23145 -4.3584 -8.5918c0 -4.19922 6.25977 -14.1348 15.8896 -25.2197c10.9482 -12.6045 19.418 -33.2578 25.5732 -62.3584
c4.27441 -20.209 8.36914 -22.3535 3.64355 -68.3604c-0.911133 -8.86816 -4.97656 -59.4033 -3.64941 -59.4033c1.32227 0 10.0449 5.70312 19.3838 12.6738c30.166 22.5166 55.7471 37.5723 94.7979 55.7939c51.0723 23.8301 73.4678 22.9355 131.02 39.7041
c0 0 171.87 11.7979 215.285 15.6074c-0.743164 -58.8877 -1.17578 -103.946 -1.17578 -103.946zM1555.3 539.941l-41.3154 10.0273c-100.174 24.3145 -165.504 43.0791 -187.049 53.7275c-17.2617 8.53125 -31.6641 8.73926 -37.5225 0.542969
c-2.37695 -3.32617 -4.3584 -7.23145 -4.3584 -8.5918c0 -4.19922 6.25977 -14.1348 15.8896 -25.2197c6.97168 -8.02539 12.9375 -19.3154 17.9414 -33.9707c-19.873 2.08691 -43.5859 3.48438 -43.5859 3.48438l-41.3154 10.0273
c-100.174 24.3145 -165.504 43.0791 -187.049 53.7275c-17.2617 8.53125 -31.6641 8.73926 -37.5225 0.542969c-2.37695 -3.32617 -4.3584 -7.23145 -4.3584 -8.5918c0 -4.19922 6.25977 -14.1348 15.8896 -25.2197c10.9482 -12.6045 19.418 -33.2578 25.5732 -62.3584
c4.27441 -20.209 8.36914 -22.3535 3.64355 -68.3604c-0.911133 -8.86816 -4.97656 -59.4033 -3.64941 -59.4033c1.32227 0 10.0449 5.70312 19.3838 12.6738c30.166 22.5166 55.7471 37.5723 94.7979 55.7939c51.0723 23.8301 73.4678 22.9355 131.02 39.7041
c0 0 20.1738 5.55859 36.9941 10.2773c3.25195 -13.002 5.34961 -21.1221 1.4541 -59.0459c-0.911133 -8.86816 -4.97656 -59.4033 -3.64941 -59.4033c1.32227 0 10.0449 5.70312 19.3838 12.6738c30.166 22.5166 55.7471 37.5723 94.7979 55.7939
c51.0723 23.8301 73.4678 22.9355 131.02 39.7041c0 0 28.7314 1.20703 70.0762 2.97461c-0.647461 -72.668 -1.02051 -126.313 -1.02051 -126.313l-10.0273 -41.3154c-24.3145 -100.174 -43.0791 -165.504 -53.7275 -187.049
c-8.53125 -17.2617 -8.73926 -31.6641 -0.542969 -37.5225c3.32617 -2.37695 7.23145 -4.3584 8.5918 -4.3584c4.19922 0 14.1348 6.25977 25.2197 15.8896c12.6045 10.9482 33.2578 19.418 62.3584 25.5732c20.209 4.27441 22.3535 8.36914 68.3604 3.64355
c8.86816 -0.911133 59.4033 -4.97656 59.4033 -3.64941c0 1.32227 -5.70312 10.0449 -12.6738 19.3838c-22.5166 30.166 -37.5723 55.7471 -55.7939 94.7979c-23.8301 51.0723 -22.9355 73.4678 -39.7041 131.02c0 0 -1.41699 46.8047 -3.42871 111.919
c105.836 4.56641 245.511 10.7471 248.007 11.668c6.2334 2.30078 9.1377 6.22559 9.00195 10.5703c-0.177734 5.6875 -5.56445 12.0947 -15.5098 16.5225c-5.60742 2.49707 -137.167 4.75098 -242.891 6.16699c-4.58105 147.354 -10.9082 345.723 -11.8408 348.251
c-2.30078 6.2334 -6.22559 9.1377 -10.5703 9.00195c-5.6875 -0.177734 -12.0947 -5.56445 -16.5225 -15.5098c-2.5459 -5.71875 -4.83984 -193.924 -6.25098 -341.165c-50.332 0.613281 -86.9277 0.964844 -86.9277 0.964844z" />
</svg>
