<?xml version="1.0" standalone="no"?>
<!DOCTYPE svg PUBLIC "-//W3C//DTD SVG 1.1//EN" "http://www.w3.org/Graphics/SVG/1.1/DTD/svg11.dtd" >
<svg xmlns="http://www.w3.org/2000/svg" xmlns:xlink="http://www.w3.org/1999/xlink" version="1.1" viewBox="0 0 1213 1059">
   <path fill="currentColor"
d="M381.352 149.247c9.90625 -12.1133 27.5576 -6.38281 23.625 8.60352c-13.8916 52.9434 -79.998 134.799 -116.02 255.482c-29.1738 97.7432 24.9961 224.656 87.4512 307.098c35.8438 47.3125 75.3789 131.75 66.0547 141.074
c-3.80078 3.80273 -17.4707 -13.332 -30.5371 -38.2793c-13.0117 -24.8379 -53.6855 -76.1289 -90.3887 -113.979c-62.3594 -64.3086 -88.1055 -82.2109 -213.697 -148.596c-47.8047 -25.2676 -73.8838 -57.3984 -9.46289 -83.7461
c30.2852 -12.3867 140.34 -110.771 163.344 -129.905c44 -36.5967 50.6055 -113.348 119.631 -197.753zM1155.62 524.279c7.42969 -9.08496 30.668 -4.78711 27.7188 6.45312c-10.4199 39.707 -59.999 101.099 -87.0156 191.611
c-21.8799 73.3076 18.748 168.492 65.5889 230.323c26.8828 35.4844 46.5342 98.8125 39.541 105.806c-2.85059 2.85156 -13.1025 -9.99902 -22.9033 -28.709c-9.75781 -18.6289 -40.2637 -57.0977 -67.791 -85.4844c-46.7695 -48.2314 -66.0791 -61.6582 -160.273 -111.447
c-8.5498 -4.51855 -16.1729 -9.33105 -22.1699 -14.3066c-61.1904 3.10938 -209.349 5.41602 -209.349 5.41602l-41.3154 10.0273c-100.174 24.3145 -165.504 43.0791 -187.049 53.7275c-17.2617 8.53125 -31.6641 8.73926 -37.5225 0.542969
c-2.37695 -3.32617 -4.3584 -7.23145 -4.3584 -8.5918c0 -4.19922 6.25977 -14.1348 15.8896 -25.2197c10.9482 -12.6045 19.418 -33.2578 25.5732 -62.3584c4.27441 -20.209 8.36914 -22.3535 3.64355 -68.3604c-0.911133 -8.86816 -4.97656 -59.4033 -3.64941 -59.4033
c1.32227 0 10.0449 5.70312 19.3838 12.6738c30.166 22.5166 55.7471 37.5723 94.7979 55.7939c51.0723 23.8301 73.4678 22.9355 131.02 39.7041c0 0 118.606 8.1416 183.65 13.082c4.39258 -5.35254 12.2412 -10.5801 24.3584 -15.5361
c22.7139 -9.29102 105.255 -83.0791 122.508 -97.4297c33 -27.4473 37.9541 -85.0107 89.7236 -148.314zM1155.62 4.2793c7.42969 -9.08496 30.668 -4.78711 27.7188 6.45312c-10.4199 39.707 -59.999 101.099 -87.0156 191.611
c-21.8799 73.3076 18.748 168.492 65.5889 230.323c26.8828 35.4844 46.5342 98.8125 39.541 105.806c-2.85059 2.85156 -13.1025 -9.99902 -22.9033 -28.709c-9.75781 -18.6289 -40.2637 -57.0977 -67.791 -85.4844c-46.7695 -48.2314 -66.0791 -61.6582 -160.273 -111.447
c-8.5498 -4.51855 -16.1729 -9.33105 -22.1699 -14.3066c-61.1904 3.10938 -209.349 5.41602 -209.349 5.41602l-41.3154 10.0273c-100.174 24.3145 -165.504 43.0791 -187.049 53.7275c-17.2617 8.53125 -31.6641 8.73926 -37.5225 0.542969
c-2.37695 -3.32617 -4.3584 -7.23145 -4.3584 -8.5918c0 -4.19922 6.25977 -14.1348 15.8896 -25.2197c10.9482 -12.6045 19.418 -33.2578 25.5732 -62.3584c4.27441 -20.209 8.36914 -22.3535 3.64355 -68.3604c-0.911133 -8.86816 -4.97656 -59.4033 -3.64941 -59.4033
c1.32227 0 10.0449 5.70312 19.3838 12.6738c30.166 22.5166 55.7471 37.5723 94.7979 55.7939c51.0723 23.8301 73.4678 22.9355 131.02 39.7041c0 0 118.606 8.1416 183.65 13.082c4.39258 -5.35254 12.2412 -10.5801 24.3584 -15.5361
c22.7139 -9.29102 105.255 -83.0791 122.508 -97.4297c33 -27.4473 37.9541 -85.0107 89.7236 -148.314zM252.578 408.84c0.388672 -0.288086 0.769531 -0.568359 1.14258 -0.839844c-0.389648 0.219727 -0.770508 0.5 -1.14258 0.839844zM1056.63 732.171
c1.14746 -1.28809 2.23828 -2.56543 3.26953 -3.82715c-1.20312 0.676758 -2.29492 1.9834 -3.26953 3.82715zM1056.63 212.171c1.14746 -1.28809 2.23828 -2.56543 3.26953 -3.82715c-1.20312 0.676758 -2.29492 1.9834 -3.26953 3.82715zM755.796 712.28
l-21.7832 -13.2744c-52.8154 -32.1846 -88.4941 -51.9404 -102.152 -56.5635c-10.9424 -3.7041 -17.1416 -9.72656 -16.1504 -15.6895c0.40332 -2.41992 1.21973 -4.91699 1.79688 -5.49414c1.78125 -1.78223 8.65234 -3.34082 17.4414 -3.95898
c9.99219 -0.702148 22.3477 -5.87109 37.3057 -15.6064c10.3877 -6.75977 13.0352 -5.93262 30.5488 -27.457c3.37598 -4.14844 23.0918 -27.3135 23.6543 -26.751c0.560547 0.561523 1.84277 6.68164 2.84668 13.6016c3.24512 22.3506 7.71094 39.5918 16.5479 63.8906
c11.5586 31.7783 21.4395 40.9004 38.7422 72.4316c0 0 16.9258 29.8027 18.0039 32.1416c1.66895 3.62109 1.23633 6.51855 -0.665039 8.30371c-2.48828 2.33789 -7.49219 2.77051 -13.5898 0.429688c-5.78223 -2.21875 -32.5469 -26.0039 -32.5469 -26.0039z
M853.377 614.699l-21.7832 -13.2744c-52.8154 -32.1846 -88.4951 -51.9414 -102.153 -56.5635c-10.9424 -3.7041 -17.1416 -9.72656 -16.1494 -15.6895c0.402344 -2.41992 1.21875 -4.91699 1.7959 -5.49414c1.78125 -1.78125 8.65234 -3.3418 17.4414 -3.95801
c6.3623 -0.447266 13.6826 -2.70605 22.0234 -6.80078c-9.31641 -7.5459 -19.9697 -17.0137 -19.9697 -17.0137l-21.7822 -13.2744c-52.8164 -32.1846 -88.4941 -51.9404 -102.153 -56.5635c-10.9424 -3.7041 -17.1416 -9.72656 -16.1494 -15.6895
c0.402344 -2.41895 1.21875 -4.91699 1.7959 -5.49414c1.78223 -1.78125 8.65234 -3.34082 17.4414 -3.95801c9.99316 -0.703125 22.3486 -5.87207 37.3066 -15.6074c10.3867 -6.75977 13.0342 -5.93262 30.5479 -27.457c3.37598 -4.14844 23.0918 -27.3135 23.6543 -26.751
c0.561523 0.561523 1.84277 6.68164 2.84766 13.6016c3.24512 22.3516 7.71094 39.5918 16.5479 63.8906c11.5576 31.7783 21.4385 40.9004 38.7412 72.4316c0 0 6.2002 10.918 11.335 20.0557c6.89551 -4.13672 11.2305 -6.69141 25.668 -24.4336
c3.37695 -4.14941 23.0918 -27.3145 23.6543 -26.751c0.561523 0.560547 1.84277 6.68066 2.84766 13.6006c3.24512 22.3506 7.71094 39.5918 16.5479 63.8906c11.5576 31.7783 21.4385 40.9004 38.7412 72.4316c0 0 16.9268 29.8027 18.0049 32.1416
c1.66797 3.62109 1.23535 6.51758 -0.665039 8.30371c-2.48926 2.33789 -7.49316 2.77148 -13.5908 0.429688c-5.78223 -2.21973 -32.5459 -26.0039 -32.5459 -26.0039zM950.957 517.118l-21.7822 -13.2744c-52.8164 -32.1846 -88.4941 -51.9404 -102.153 -56.5635
c-10.9424 -3.70312 -17.1416 -9.72559 -16.1494 -15.6885c0.402344 -2.41992 1.21875 -4.91797 1.7959 -5.49512c1.78223 -1.78125 8.65234 -3.34082 17.4414 -3.95801c9.99316 -0.703125 22.3486 -5.87207 37.3066 -15.6064
c10.3867 -6.76074 13.0342 -5.93359 30.5479 -27.457c3.37598 -4.14941 23.0918 -27.3145 23.6543 -26.751c0.561523 0.560547 1.84277 6.68164 2.84766 13.6006c3.24512 22.3516 7.71094 39.5928 16.5479 63.8906c11.5576 31.7793 21.4385 40.9004 38.7412 72.4326
c0 0 16.9268 29.8018 18.0049 32.1416c1.66797 3.62012 1.23535 6.51758 -0.666016 8.30371c-2.48828 2.33691 -7.49219 2.77051 -13.5898 0.429688c-5.78223 -2.21973 -32.5469 -26.0049 -32.5469 -26.0049z" />
</svg>
