<?xml version="1.0" standalone="no"?>
<!DOCTYPE svg PUBLIC "-//W3C//DTD SVG 1.1//EN" "http://www.w3.org/Graphics/SVG/1.1/DTD/svg11.dtd" >
<svg xmlns="http://www.w3.org/2000/svg" xmlns:xlink="http://www.w3.org/1999/xlink" version="1.1" viewBox="0 0 6478 6407">
   <path fill="currentColor"
d="M3219 549.429l-10.0273 -41.3154c-24.3145 -100.174 -43.0791 -165.504 -53.7275 -187.049c-8.53125 -17.2617 -8.73926 -31.6641 -0.542969 -37.5225c3.32617 -2.37695 7.23145 -4.3584 8.5918 -4.3584c4.19922 0 14.1348 6.25977 25.2197 15.8896
c8.02539 6.97168 19.3154 12.9375 33.9707 17.9414c-2.08691 -19.873 -3.48438 -43.5859 -3.48438 -43.5859l-10.0273 -41.3154c-24.3145 -100.174 -43.0791 -165.504 -53.7275 -187.049c-8.53125 -17.2617 -8.73926 -31.6641 -0.542969 -37.5225
c3.32617 -2.37695 7.23145 -4.3584 8.5918 -4.3584c4.19922 0 14.1348 6.25977 25.2197 15.8896c12.6045 10.9482 33.2578 19.418 62.3584 25.5732c20.209 4.27441 22.3535 8.36914 68.3604 3.64355c8.86816 -0.911133 59.4033 -4.97656 59.4033 -3.64941
c0 1.32227 -5.70312 10.0449 -12.6738 19.3838c-22.5166 30.166 -37.5723 55.7471 -55.7939 94.7979c-23.8301 51.0723 -22.9355 73.4678 -39.7041 131.02c0 0 -5.55859 20.1738 -10.2773 36.9941c13.002 3.25195 21.1221 5.34961 59.0459 1.4541
c8.86816 -0.911133 59.4033 -4.97656 59.4033 -3.64941c0 1.32227 -5.70312 10.0449 -12.6738 19.3838c-22.5166 30.166 -37.5723 55.7471 -55.7939 94.7979c-23.8301 51.0723 -22.9355 73.4678 -39.7041 131.02c0 0 -1.20703 28.7314 -2.97461 70.0762
c72.668 -0.647461 126.313 -1.02051 126.313 -1.02051l41.3154 -10.0273c100.174 -24.3145 165.504 -43.0791 187.049 -53.7275c17.2617 -8.53125 31.6641 -8.73926 37.5225 -0.542969c2.37695 3.32617 4.3584 7.23145 4.3584 8.5918
c0 4.19922 -6.25977 14.1348 -15.8896 25.2197c-10.9482 12.6045 -19.418 33.2578 -25.5732 62.3584c-4.27441 20.209 -8.36914 22.3535 -3.64355 68.3604c0.911133 8.86816 4.97656 59.4033 3.64941 59.4033c-1.32227 0 -10.0449 -5.70312 -19.3838 -12.6738
c-30.166 -22.5166 -55.7471 -37.5723 -94.7979 -55.7939c-51.0723 -23.8301 -73.4678 -22.9355 -131.02 -39.7041c0 0 -46.8047 -1.41699 -111.919 -3.42871c-4.56641 105.836 -10.7471 245.511 -11.668 248.007c-2.30078 6.2334 -6.22559 9.1377 -10.5703 9.00195
c-5.6875 -0.177734 -12.0947 -5.56445 -16.5225 -15.5098c-2.49707 -5.60742 -4.75098 -137.167 -6.16699 -242.891c-147.354 -4.58105 -345.723 -10.9082 -348.251 -11.8408c-6.2334 -2.30078 -9.1377 -6.22559 -9.00195 -10.5703
c0.177734 -5.6875 5.56445 -12.0947 15.5098 -16.5225c5.71875 -2.5459 193.924 -4.83984 341.165 -6.25098c-0.613281 -50.332 -0.964844 -86.9277 -0.964844 -86.9277zM3046 1049.43l-10.0273 -41.3154c-18.709 -77.0781 -34.1318 -133.527 -45.0996 -165.274
c-21.3711 28.9629 -36.0527 54.1523 -53.7051 91.9834c-23.8301 51.0723 -22.9355 73.4678 -39.7041 131.02c0 0 -8.94043 460.163 -13.7686 675.907c22.1426 -2.4375 110.206 -4.56152 170.734 -5.77441c-0.245117 -0.501953 -0.485352 -1.01562 -0.719727 -1.54297
c-4.19824 -9.42969 -7.70996 -235.003 -7.70996 -235.003l-10.0273 -41.3154c-24.3145 -100.174 -43.0791 -165.504 -53.7275 -187.049c-8.53125 -17.2617 -8.73926 -31.6641 -0.542969 -37.5225c3.32617 -2.37695 7.23145 -4.3584 8.5918 -4.3584
c4.19922 0 14.1348 6.25977 25.2197 15.8896c8.42285 7.31543 20.4385 13.5244 36.167 18.6758c-3.24219 -57.6729 -5.68066 -214.32 -5.68066 -214.32zM3097.47 1065.84c0 0 -10.3896 151.365 -14.8174 205.88c16.1104 3.82812 21.4678 6.89453 63.5859 2.56836
c4.77637 -0.490234 21.6377 -1.89648 36.1816 -2.88184c-0.0566406 -0.115234 -0.113281 -0.230469 -0.168945 -0.34375c-8.53125 -17.2617 -8.73926 -31.6641 -0.542969 -37.5225c3.32617 -2.37695 7.23145 -4.3584 8.5918 -4.3584
c4.19922 0 14.1348 6.25977 25.2197 15.8896c12.6045 10.9482 33.2578 19.418 62.3584 25.5732c20.209 4.27441 22.3535 8.36914 68.3604 3.64355c4.77637 -0.490234 21.6377 -1.89648 36.1816 -2.88184c-0.0566406 -0.115234 -0.113281 -0.230469 -0.168945 -0.34375
c-8.53125 -17.2617 -8.73926 -31.6641 -0.542969 -37.5225c3.32617 -2.37695 7.23145 -4.3584 8.5918 -4.3584c4.19922 0 14.1348 6.25977 25.2197 15.8896c12.6045 10.9482 33.2578 19.418 62.3584 25.5732c20.209 4.27441 22.3535 8.36914 68.3604 3.64355
c8.86816 -0.911133 59.4033 -4.97656 59.4033 -3.64941c0 1.32227 -5.70312 10.0449 -12.6738 19.3838c-22.5166 30.166 -37.5723 55.7471 -55.7939 94.7979c-23.8301 51.0723 -22.9355 73.4678 -39.7041 131.02c0 0 -9.38379 136.701 -14.1152 197.069
c72.9805 -18.5283 120.953 -32.9385 138.818 -41.7686c17.2617 -8.53125 31.6641 -8.73926 37.5225 -0.542969c2.37695 3.32617 4.3584 7.23145 4.3584 8.5918c0 4.19922 -6.25977 14.1348 -15.8896 25.2197c-10.9482 12.6045 -19.418 33.2578 -25.5732 62.3584
c-4.27441 20.209 -8.36914 22.3535 -3.64355 68.3604c0.911133 8.86816 4.97656 59.4033 3.64941 59.4033c-1.32227 0 -10.0449 -5.70312 -19.3838 -12.6738c-30.166 -22.5166 -55.7471 -37.5723 -94.7979 -55.7939c-51.0723 -23.8301 -73.4678 -22.9355 -131.02 -39.7041
c0 0 -20.1738 -5.55859 -36.9941 -10.2773c-3.25195 13.002 -5.34961 21.1221 -1.4541 59.0459c0.911133 8.86816 4.97656 59.4033 3.64941 59.4033c-1.32227 0 -10.0449 -5.70312 -19.3838 -12.6738c-30.166 -22.5166 -55.7471 -37.5723 -94.7979 -55.7939
c-51.0723 -23.8301 -73.4678 -22.9355 -131.02 -39.7041c0 0 -169.472 -11.6328 -214.354 -15.5264c-1.125 48.71 -1.94141 79.3154 -2.23242 80.1045c-2.30078 6.2334 -6.22559 9.1377 -10.5703 9.00195c-5.6875 -0.177734 -12.0947 -5.56445 -16.5225 -15.5098
c-4.19824 -9.42969 -7.70996 -795.003 -7.70996 -795.003l-10.0273 -41.3154c-24.3145 -100.174 -43.0791 -165.504 -53.7275 -187.049c-8.53125 -17.2617 -8.73926 -31.6641 -0.542969 -37.5225c3.32617 -2.37695 7.23145 -4.3584 8.5918 -4.3584
c4.19922 0 14.1348 6.25977 25.2197 15.8896c12.6045 10.9482 33.2578 19.418 62.3584 25.5732c20.209 4.27441 22.3535 8.36914 68.3604 3.64355c4.77637 -0.490234 21.6377 -1.89648 36.1816 -2.88184c-0.0566406 -0.115234 -0.113281 -0.230469 -0.168945 -0.34375
c-8.53125 -17.2617 -8.73926 -31.6641 -0.542969 -37.5225c3.32617 -2.37695 7.23145 -4.3584 8.5918 -4.3584c4.19922 0 14.1348 6.25977 25.2197 15.8896c12.6045 10.9482 33.2578 19.418 62.3584 25.5732c20.209 4.27441 22.3535 8.36914 68.3604 3.64355
c8.86816 -0.911133 59.4033 -4.97656 59.4033 -3.64941c0 1.32227 -5.70312 10.0449 -12.6738 19.3838c-22.5166 30.166 -37.5723 55.7471 -55.7939 94.7979c-23.8301 51.0723 -22.9355 73.4678 -39.7041 131.02zM3246 1499.43l-10.0273 -41.3154
c-18.709 -77.0781 -34.1318 -133.527 -45.0996 -165.274c-21.3711 28.9629 -36.0527 54.1523 -53.7051 91.9834c-23.8301 51.0723 -22.9355 73.4678 -39.7041 131.02c0 0 -12.6992 185.008 -16.001 219.613c19.5791 -0.359375 32.3398 -0.557617 32.3398 -0.557617
l41.3154 -10.0273c36.8232 -8.9375 68.9385 -17.126 95.9014 -24.4365c-2.90723 -65.2949 -5.01953 -201.005 -5.01953 -201.005zM3297.47 1515.84c0 0 -7.46094 108.692 -12.4326 175.038c27.8271 -8.14648 47.168 -14.8105 57.1357 -19.7373
c17.2617 -8.53125 31.6641 -8.73926 37.5225 -0.542969c2.37695 3.32617 4.3584 7.23145 4.3584 8.5918c0 4.19922 -6.25977 14.1348 -15.8896 25.2197c-6.97168 8.02539 -12.9375 19.3154 -17.9414 33.9707c19.873 -2.08691 43.5859 -3.48438 43.5859 -3.48438
l41.3154 -10.0273c5.78027 -1.40332 11.4453 -2.78809 16.9922 -4.15332c-3.4541 -50.6621 -6.11035 -221.288 -6.11035 -221.288l-10.0273 -41.3154c-18.709 -77.0781 -34.1318 -133.527 -45.0996 -165.274c-21.3711 28.9629 -36.0527 54.1523 -53.7051 91.9834
c-23.8301 51.0723 -22.9355 73.4678 -39.7041 131.02zM3113.81 2687.9l41.3154 -10.0273c100.174 -24.3145 165.504 -43.0791 187.049 -53.7275c17.2617 -8.53125 31.6641 -8.73926 37.5225 -0.542969c2.37695 3.32617 4.3584 7.23145 4.3584 8.5918
c0 4.19922 -6.25977 14.1348 -15.8896 25.2197c-10.9482 12.6045 -19.418 33.2578 -25.5732 62.3584c-4.27441 20.209 -8.36914 22.3535 -3.64355 68.3604c0.911133 8.86816 4.97656 59.4033 3.64941 59.4033c-1.32227 0 -10.0449 -5.70312 -19.3838 -12.6738
c-30.166 -22.5166 -55.7471 -37.5723 -94.7979 -55.7939c-51.0723 -23.8301 -73.4678 -22.9355 -131.02 -39.7041c0 0 -4.87109 -0.333984 -13.1807 -0.90918c-2.65918 126.19 -4.88281 224.068 -5.40625 225.487c-2.30078 6.2334 -6.22559 9.1377 -10.5703 9.00195
c-5.6875 -0.177734 -12.0947 -5.56445 -16.5225 -15.5098c-1.44336 -3.24219 -2.80566 -98.2402 -3.97168 -221.514c-65.4346 -4.57031 -172.652 -12.1865 -175.446 -13.2178c-6.2334 -2.30078 -9.1377 -6.22559 -9.00195 -10.5703
c0.177734 -5.6875 5.56445 -12.0947 15.5098 -16.5225c6.05273 -2.69531 101.172 -5.10742 168.516 -6.48926c-0.508789 -58.8672 -0.972656 -121.974 -1.38379 -183.326c-65.5811 -4.58301 -170.872 -12.0703 -173.64 -13.0918
c-6.2334 -2.30078 -9.1377 -6.22559 -9.00195 -10.5703c0.177734 -5.6875 5.56445 -12.0947 15.5098 -16.5225c6.00293 -2.67285 99.5947 -5.06641 166.828 -6.4541c-0.43457 -68.3545 -0.794922 -132.451 -1.06445 -183.457
c-65.667 -4.59082 -169.522 -11.9814 -172.271 -12.9961c-6.2334 -2.30078 -9.1377 -6.22559 -9.00195 -10.5703c0.177734 -5.6875 5.56445 -12.0947 15.5098 -16.5225c5.96387 -2.65527 98.3896 -5.03613 165.522 -6.42676
c-0.208984 -41.502 -0.322266 -66.752 -0.322266 -66.752l-10.0273 -41.3154c-24.3145 -100.174 -43.0791 -165.504 -53.7275 -187.049c-8.53125 -17.2617 -8.73926 -31.6641 -0.542969 -37.5225c3.32617 -2.37695 7.23145 -4.3584 8.5918 -4.3584
c4.19922 0 14.1348 6.25977 25.2197 15.8896c12.6045 10.9482 33.2578 19.418 62.3584 25.5732c20.209 4.27441 22.3535 8.36914 68.3604 3.64355c8.86816 -0.911133 59.4033 -4.97656 59.4033 -3.64941c0 1.32227 -5.70312 10.0449 -12.6738 19.3838
c-22.5166 30.166 -37.5723 55.7471 -55.7939 94.7979c-23.8301 51.0723 -22.9355 73.4678 -39.7041 131.02c0 0 -0.356445 18.3262 -0.964844 49.3799c12.0137 -0.210938 19.3037 -0.324219 19.3037 -0.324219l41.3154 -10.0273
c100.174 -24.3145 165.504 -43.0791 187.049 -53.7275c17.2617 -8.53125 31.6641 -8.73926 37.5225 -0.542969c2.37695 3.32617 4.3584 7.23145 4.3584 8.5918c0 4.19922 -6.25977 14.1348 -15.8896 25.2197c-10.9482 12.6045 -19.418 33.2578 -25.5732 62.3584
c-4.27441 20.209 -8.36914 22.3535 -3.64355 68.3604c0.911133 8.86816 4.97656 59.4033 3.64941 59.4033c-1.32227 0 -10.0449 -5.70312 -19.3838 -12.6738c-30.166 -22.5166 -55.7471 -37.5723 -94.7979 -55.7939c-51.0723 -23.8301 -73.4678 -22.9355 -131.02 -39.7041
c0 0 -1.36719 -0.09375 -3.88965 -0.267578c-0.960938 48.8262 -2.20312 111.568 -3.55859 179.208c14.7031 -0.261719 23.8613 -0.404297 23.8613 -0.404297l41.3154 -10.0273c100.174 -24.3145 165.504 -43.0791 187.049 -53.7275
c17.2617 -8.53125 31.6641 -8.73926 37.5225 -0.542969c2.37695 3.32617 4.3584 7.23145 4.3584 8.5918c0 4.19922 -6.25977 14.1348 -15.8896 25.2197c-10.9482 12.6045 -19.418 33.2578 -25.5732 62.3584c-4.27441 20.209 -8.36914 22.3535 -3.64355 68.3604
c0.911133 8.86816 4.97656 59.4033 3.64941 59.4033c-1.32227 0 -10.0449 -5.70312 -19.3838 -12.6738c-30.166 -22.5166 -55.7471 -37.5723 -94.7979 -55.7939c-51.0723 -23.8301 -73.4678 -22.9355 -131.02 -39.7041c0 0 -3.05859 -0.209961 -8.46191 -0.583008
c-1.20605 59.7939 -2.46484 121.578 -3.6709 179.608c17.417 -0.316406 28.5459 -0.489258 28.5459 -0.489258zM3504 2162.43l-10.0273 -41.3154c-24.3145 -100.174 -43.0791 -165.504 -53.7275 -187.049c-8.53125 -17.2617 -8.73926 -31.6641 -0.542969 -37.5225
c3.32617 -2.37695 7.23145 -4.3584 8.5918 -4.3584c4.19922 0 14.1348 6.25977 25.2197 15.8896c12.6045 10.9482 33.2578 19.418 62.3584 25.5732c20.209 4.27441 22.3535 8.36914 68.3604 3.64355c8.86816 -0.911133 59.4033 -4.97656 59.4033 -3.64941
c0 1.32227 -5.70312 10.0449 -12.6738 19.3838c-22.5166 30.166 -37.5723 55.7471 -55.7939 94.7979c-23.8301 51.0723 -22.9355 73.4678 -39.7041 131.02c0 0 -15.1748 781.07 -16.6611 785.098c-2.30078 6.2334 -6.22559 9.1377 -10.5703 9.00195
c-5.6875 -0.177734 -12.0947 -5.56445 -16.5225 -15.5098c-4.19824 -9.42969 -7.70996 -795.003 -7.70996 -795.003zM3308.76 5856.7l10.0273 41.3154c24.3145 100.174 43.0791 165.504 53.7275 187.049c8.53125 17.2617 8.73926 31.6641 0.542969 37.5225
c-3.32617 2.37695 -7.23145 4.3584 -8.5918 4.3584c-4.19922 0 -14.1348 -6.25977 -25.2197 -15.8896c-8.02539 -6.97168 -19.3154 -12.9375 -33.9707 -17.9414c2.08691 19.873 3.48438 43.5859 3.48438 43.5859l10.0273 41.3154
c24.3145 100.174 43.0791 165.504 53.7275 187.049c8.53125 17.2617 8.73926 31.6641 0.542969 37.5225c-3.32617 2.37695 -7.23145 4.3584 -8.5918 4.3584c-4.19922 0 -14.1348 -6.25977 -25.2197 -15.8896c-12.6045 -10.9482 -33.2578 -19.418 -62.3584 -25.5732
c-20.209 -4.27441 -22.3535 -8.36914 -68.3604 -3.64355c-8.86816 0.911133 -59.4033 4.97656 -59.4033 3.64941c0 -1.32227 5.70312 -10.0449 12.6738 -19.3838c22.5166 -30.166 37.5723 -55.7471 55.7939 -94.7979c23.8301 -51.0723 22.9355 -73.4678 39.7041 -131.02
c0 0 5.55859 -20.1738 10.2773 -36.9941c-13.002 -3.25195 -21.1221 -5.34961 -59.0459 -1.4541c-8.86816 0.911133 -59.4033 4.97656 -59.4033 3.64941c0 -1.32227 5.70312 -10.0449 12.6738 -19.3838c22.5166 -30.166 37.5723 -55.7471 55.7939 -94.7979
c23.8301 -51.0723 22.9355 -73.4678 39.7041 -131.02c0 0 1.20703 -28.7314 2.97461 -70.0762c-72.668 0.647461 -126.313 1.02051 -126.313 1.02051l-41.3154 10.0273c-100.174 24.3145 -165.504 43.0791 -187.049 53.7275
c-17.2617 8.53125 -31.6641 8.73926 -37.5225 0.542969c-2.37695 -3.32617 -4.3584 -7.23145 -4.3584 -8.5918c0 -4.19922 6.25977 -14.1348 15.8896 -25.2197c10.9482 -12.6045 19.418 -33.2578 25.5732 -62.3584c4.27441 -20.209 8.36914 -22.3535 3.64355 -68.3604
c-0.911133 -8.86816 -4.97656 -59.4033 -3.64941 -59.4033c1.32227 0 10.0449 5.70312 19.3838 12.6738c30.166 22.5166 55.7471 37.5723 94.7979 55.7939c51.0723 23.8301 73.4678 22.9355 131.02 39.7041c0 0 46.8047 1.41699 111.919 3.42871
c4.56641 -105.836 10.7471 -245.511 11.668 -248.007c2.30078 -6.2334 6.22559 -9.1377 10.5703 -9.00195c5.6875 0.177734 12.0947 5.56445 16.5225 15.5098c2.49707 5.60742 4.75098 137.167 6.16699 242.891c147.354 4.58105 345.723 10.9082 348.251 11.8408
c6.2334 2.30078 9.1377 6.22559 9.00195 10.5703c-0.177734 5.6875 -5.56445 12.0947 -15.5098 16.5225c-5.71875 2.5459 -193.924 4.83984 -341.165 6.25098c0.613281 50.332 0.964844 86.9277 0.964844 86.9277zM3481.76 5356.7l10.0273 41.3154
c18.709 77.0781 34.1318 133.527 45.0996 165.274c21.3711 -28.9629 36.0527 -54.1523 53.7051 -91.9834c23.8301 -51.0723 22.9355 -73.4678 39.7041 -131.02c0 0 8.94043 -460.163 13.7686 -675.907c-22.1426 2.4375 -110.206 4.56152 -170.734 5.77441
c0.245117 0.501953 0.485352 1.01562 0.719727 1.54297c4.19824 9.42969 7.70996 235.003 7.70996 235.003l10.0273 41.3154c24.3145 100.174 43.0791 165.504 53.7275 187.049c8.53125 17.2617 8.73926 31.6641 0.542969 37.5225
c-3.32617 2.37695 -7.23145 4.3584 -8.5918 4.3584c-4.19922 0 -14.1348 -6.25977 -25.2197 -15.8896c-8.42285 -7.31543 -20.4385 -13.5244 -36.167 -18.6758c3.24219 57.6729 5.68066 214.32 5.68066 214.32zM3430.29 5340.29c0 0 10.3896 -151.365 14.8174 -205.88
c-16.1104 -3.82812 -21.4678 -6.89453 -63.5859 -2.56836c-4.77637 0.490234 -21.6377 1.89648 -36.1816 2.88184c0.0566406 0.115234 0.113281 0.230469 0.168945 0.34375c8.53125 17.2617 8.73926 31.6641 0.542969 37.5225
c-3.32617 2.37695 -7.23145 4.3584 -8.5918 4.3584c-4.19922 0 -14.1348 -6.25977 -25.2197 -15.8896c-12.6045 -10.9482 -33.2578 -19.418 -62.3584 -25.5732c-20.209 -4.27441 -22.3535 -8.36914 -68.3604 -3.64355c-4.77637 0.490234 -21.6377 1.89648 -36.1816 2.88184
c0.0566406 0.115234 0.113281 0.230469 0.168945 0.34375c8.53125 17.2617 8.73926 31.6641 0.542969 37.5225c-3.32617 2.37695 -7.23145 4.3584 -8.5918 4.3584c-4.19922 0 -14.1348 -6.25977 -25.2197 -15.8896c-12.6045 -10.9482 -33.2578 -19.418 -62.3584 -25.5732
c-20.209 -4.27441 -22.3535 -8.36914 -68.3604 -3.64355c-8.86816 0.911133 -59.4033 4.97656 -59.4033 3.64941c0 -1.32227 5.70312 -10.0449 12.6738 -19.3838c22.5166 -30.166 37.5723 -55.7471 55.7939 -94.7979c23.8301 -51.0723 22.9355 -73.4678 39.7041 -131.02
c0 0 9.38379 -136.701 14.1152 -197.069c-72.9805 18.5283 -120.953 32.9385 -138.818 41.7686c-17.2617 8.53125 -31.6641 8.73926 -37.5225 0.542969c-2.37695 -3.32617 -4.3584 -7.23145 -4.3584 -8.5918c0 -4.19922 6.25977 -14.1348 15.8896 -25.2197
c10.9482 -12.6045 19.418 -33.2578 25.5732 -62.3584c4.27441 -20.209 8.36914 -22.3535 3.64355 -68.3604c-0.911133 -8.86816 -4.97656 -59.4033 -3.64941 -59.4033c1.32227 0 10.0449 5.70312 19.3838 12.6738c30.166 22.5166 55.7471 37.5723 94.7979 55.7939
c51.0723 23.8301 73.4678 22.9355 131.02 39.7041c0 0 20.1738 5.55859 36.9941 10.2773c3.25195 -13.002 5.34961 -21.1221 1.4541 -59.0459c-0.911133 -8.86816 -4.97656 -59.4033 -3.64941 -59.4033c1.32227 0 10.0449 5.70312 19.3838 12.6738
c30.166 22.5166 55.7471 37.5723 94.7979 55.7939c51.0723 23.8301 73.4678 22.9355 131.02 39.7041c0 0 169.472 11.6328 214.354 15.5264c1.125 -48.71 1.94141 -79.3154 2.23242 -80.1045c2.30078 -6.2334 6.22559 -9.1377 10.5703 -9.00195
c5.6875 0.177734 12.0947 5.56445 16.5225 15.5098c4.19824 9.42969 7.70996 795.003 7.70996 795.003l10.0273 41.3154c24.3145 100.174 43.0791 165.504 53.7275 187.049c8.53125 17.2617 8.73926 31.6641 0.542969 37.5225
c-3.32617 2.37695 -7.23145 4.3584 -8.5918 4.3584c-4.19922 0 -14.1348 -6.25977 -25.2197 -15.8896c-12.6045 -10.9482 -33.2578 -19.418 -62.3584 -25.5732c-20.209 -4.27441 -22.3535 -8.36914 -68.3604 -3.64355c-4.77637 0.490234 -21.6377 1.89648 -36.1816 2.88184
c0.0566406 0.115234 0.113281 0.230469 0.168945 0.34375c8.53125 17.2617 8.73926 31.6641 0.542969 37.5225c-3.32617 2.37695 -7.23145 4.3584 -8.5918 4.3584c-4.19922 0 -14.1348 -6.25977 -25.2197 -15.8896c-12.6045 -10.9482 -33.2578 -19.418 -62.3584 -25.5732
c-20.209 -4.27441 -22.3535 -8.36914 -68.3604 -3.64355c-8.86816 0.911133 -59.4033 4.97656 -59.4033 3.64941c0 -1.32227 5.70312 -10.0449 12.6738 -19.3838c22.5166 -30.166 37.5723 -55.7471 55.7939 -94.7979c23.8301 -51.0723 22.9355 -73.4678 39.7041 -131.02z
M3281.76 4906.7l10.0273 41.3154c18.709 77.0781 34.1318 133.527 45.0996 165.274c21.3711 -28.9629 36.0527 -54.1523 53.7051 -91.9834c23.8301 -51.0723 22.9355 -73.4678 39.7041 -131.02c0 0 12.6992 -185.008 16.001 -219.613
c-19.5791 0.359375 -32.3398 0.557617 -32.3398 0.557617l-41.3154 10.0273c-36.8232 8.9375 -68.9385 17.126 -95.9014 24.4365c2.90723 65.2949 5.01953 201.005 5.01953 201.005zM3230.29 4890.29c0 0 7.46094 -108.692 12.4326 -175.038
c-27.8271 8.14648 -47.168 14.8105 -57.1357 19.7373c-17.2617 8.53125 -31.6641 8.73926 -37.5225 0.542969c-2.37695 -3.32617 -4.3584 -7.23145 -4.3584 -8.5918c0 -4.19922 6.25977 -14.1348 15.8896 -25.2197c6.97168 -8.02539 12.9375 -19.3154 17.9414 -33.9707
c-19.873 2.08691 -43.5859 3.48438 -43.5859 3.48438l-41.3154 10.0273c-5.78027 1.40332 -11.4453 2.78809 -16.9922 4.15332c3.4541 50.6621 6.11035 221.288 6.11035 221.288l10.0273 41.3154c18.709 77.0781 34.1318 133.527 45.0996 165.274
c21.3711 -28.9629 36.0527 -54.1523 53.7051 -91.9834c23.8301 -51.0723 22.9355 -73.4678 39.7041 -131.02zM3413.96 3718.23l-41.3154 10.0273c-100.174 24.3145 -165.504 43.0791 -187.049 53.7275c-17.2617 8.53125 -31.6641 8.73926 -37.5225 0.542969
c-2.37695 -3.32617 -4.3584 -7.23145 -4.3584 -8.5918c0 -4.19922 6.25977 -14.1348 15.8896 -25.2197c10.9482 -12.6045 19.418 -33.2578 25.5732 -62.3584c4.27441 -20.209 8.36914 -22.3535 3.64355 -68.3604c-0.911133 -8.86816 -4.97656 -59.4033 -3.64941 -59.4033
c1.32227 0 10.0449 5.70312 19.3838 12.6738c30.166 22.5166 55.7471 37.5723 94.7979 55.7939c51.0723 23.8301 73.4678 22.9355 131.02 39.7041c0 0 4.87109 0.333984 13.1807 0.90918c2.65918 -126.19 4.88281 -224.068 5.40625 -225.487
c2.30078 -6.2334 6.22559 -9.1377 10.5703 -9.00195c5.6875 0.177734 12.0947 5.56445 16.5225 15.5098c1.44336 3.24219 2.80566 98.2402 3.97168 221.514c65.4346 4.57031 172.652 12.1865 175.446 13.2178c6.2334 2.30078 9.1377 6.22559 9.00195 10.5703
c-0.177734 5.6875 -5.56445 12.0947 -15.5098 16.5225c-6.05273 2.69531 -101.172 5.10742 -168.516 6.48926c0.508789 58.8672 0.972656 121.974 1.38379 183.326c65.5811 4.58301 170.872 12.0703 173.64 13.0918c6.2334 2.30078 9.1377 6.22559 9.00195 10.5703
c-0.177734 5.6875 -5.56445 12.0947 -15.5098 16.5225c-6.00293 2.67285 -99.5947 5.06641 -166.828 6.4541c0.43457 68.3545 0.794922 132.451 1.06445 183.457c65.667 4.59082 169.522 11.9814 172.271 12.9961c6.2334 2.30078 9.1377 6.22559 9.00195 10.5703
c-0.177734 5.6875 -5.56445 12.0947 -15.5098 16.5225c-5.96387 2.65527 -98.3896 5.03613 -165.522 6.42676c0.208984 41.502 0.322266 66.752 0.322266 66.752l10.0273 41.3154c24.3145 100.174 43.0791 165.504 53.7275 187.049
c8.53125 17.2617 8.73926 31.6641 0.542969 37.5225c-3.32617 2.37695 -7.23145 4.3584 -8.5918 4.3584c-4.19922 0 -14.1348 -6.25977 -25.2197 -15.8896c-12.6045 -10.9482 -33.2578 -19.418 -62.3584 -25.5732c-20.209 -4.27441 -22.3535 -8.36914 -68.3604 -3.64355
c-8.86816 0.911133 -59.4033 4.97656 -59.4033 3.64941c0 -1.32227 5.70312 -10.0449 12.6738 -19.3838c22.5166 -30.166 37.5723 -55.7471 55.7939 -94.7979c23.8301 -51.0723 22.9355 -73.4678 39.7041 -131.02c0 0 0.356445 -18.3262 0.964844 -49.3799
c-12.0137 0.210938 -19.3037 0.324219 -19.3037 0.324219l-41.3154 10.0273c-100.174 24.3145 -165.504 43.0791 -187.049 53.7275c-17.2617 8.53125 -31.6641 8.73926 -37.5225 0.542969c-2.37695 -3.32617 -4.3584 -7.23145 -4.3584 -8.5918
c0 -4.19922 6.25977 -14.1348 15.8896 -25.2197c10.9482 -12.6045 19.418 -33.2578 25.5732 -62.3584c4.27441 -20.209 8.36914 -22.3535 3.64355 -68.3604c-0.911133 -8.86816 -4.97656 -59.4033 -3.64941 -59.4033c1.32227 0 10.0449 5.70312 19.3838 12.6738
c30.166 22.5166 55.7471 37.5723 94.7979 55.7939c51.0723 23.8301 73.4678 22.9355 131.02 39.7041c0 0 1.36719 0.09375 3.88965 0.267578c0.960938 -48.8262 2.20312 -111.568 3.55859 -179.208c-14.7031 0.261719 -23.8613 0.404297 -23.8613 0.404297l-41.3154 10.0273
c-100.174 24.3145 -165.504 43.0791 -187.049 53.7275c-17.2617 8.53125 -31.6641 8.73926 -37.5225 0.542969c-2.37695 -3.32617 -4.3584 -7.23145 -4.3584 -8.5918c0 -4.19922 6.25977 -14.1348 15.8896 -25.2197c10.9482 -12.6045 19.418 -33.2578 25.5732 -62.3584
c4.27441 -20.209 8.36914 -22.3535 3.64355 -68.3604c-0.911133 -8.86816 -4.97656 -59.4033 -3.64941 -59.4033c1.32227 0 10.0449 5.70312 19.3838 12.6738c30.166 22.5166 55.7471 37.5723 94.7979 55.7939c51.0723 23.8301 73.4678 22.9355 131.02 39.7041
c0 0 3.05859 0.209961 8.46191 0.583008c1.20605 -59.7939 2.46484 -121.578 3.6709 -179.608c-17.417 0.316406 -28.5459 0.489258 -28.5459 0.489258zM3023.76 4243.7l10.0273 41.3154c24.3145 100.174 43.0791 165.504 53.7275 187.049
c8.53125 17.2617 8.73926 31.6641 0.542969 37.5225c-3.32617 2.37695 -7.23145 4.3584 -8.5918 4.3584c-4.19922 0 -14.1348 -6.25977 -25.2197 -15.8896c-12.6045 -10.9482 -33.2578 -19.418 -62.3584 -25.5732c-20.209 -4.27441 -22.3535 -8.36914 -68.3604 -3.64355
c-8.86816 0.911133 -59.4033 4.97656 -59.4033 3.64941c0 -1.32227 5.70312 -10.0449 12.6738 -19.3838c22.5166 -30.166 37.5723 -55.7471 55.7939 -94.7979c23.8301 -51.0723 22.9355 -73.4678 39.7041 -131.02c0 0 15.1748 -781.07 16.6611 -785.098
c2.30078 -6.2334 6.22559 -9.1377 10.5703 -9.00195c5.6875 0.177734 12.0947 5.56445 16.5225 15.5098c4.19824 9.42969 7.70996 795.003 7.70996 795.003zM5917.52 3158.2l41.3154 -10.0273c100.174 -24.3145 165.504 -43.0791 187.049 -53.7275
c17.2617 -8.53125 31.6641 -8.73926 37.5225 -0.542969c2.37695 3.32617 4.3584 7.23145 4.3584 8.5918c0 4.19922 -6.25977 14.1348 -15.8896 25.2197c-6.97168 8.02539 -12.9375 19.3154 -17.9414 33.9707c19.873 -2.08691 43.5859 -3.48438 43.5859 -3.48438
l41.3154 -10.0273c100.174 -24.3145 165.504 -43.0791 187.049 -53.7275c17.2617 -8.53125 31.6641 -8.73926 37.5225 -0.542969c2.37695 3.32617 4.3584 7.23145 4.3584 8.5918c0 4.19922 -6.25977 14.1348 -15.8896 25.2197
c-10.9482 12.6045 -19.418 33.2578 -25.5732 62.3584c-4.27441 20.209 -8.36914 22.3535 -3.64355 68.3604c0.911133 8.86816 4.97656 59.4033 3.64941 59.4033c-1.32227 0 -10.0449 -5.70312 -19.3838 -12.6738c-30.166 -22.5166 -55.7471 -37.5723 -94.7979 -55.7939
c-51.0723 -23.8301 -73.4678 -22.9355 -131.02 -39.7041c0 0 -20.1738 -5.55859 -36.9941 -10.2773c-3.25195 13.002 -5.34961 21.1221 -1.4541 59.0459c0.911133 8.86816 4.97656 59.4033 3.64941 59.4033c-1.32227 0 -10.0449 -5.70312 -19.3838 -12.6738
c-30.166 -22.5166 -55.7471 -37.5723 -94.7979 -55.7939c-51.0723 -23.8301 -73.4678 -22.9355 -131.02 -39.7041c0 0 -28.7314 -1.20703 -70.0762 -2.97461c0.647461 72.668 1.02051 126.313 1.02051 126.313l10.0273 41.3154
c24.3145 100.174 43.0791 165.504 53.7275 187.049c8.53125 17.2617 8.73926 31.6641 0.542969 37.5225c-3.32617 2.37695 -7.23145 4.3584 -8.5918 4.3584c-4.19922 0 -14.1348 -6.25977 -25.2197 -15.8896c-12.6045 -10.9482 -33.2578 -19.418 -62.3584 -25.5732
c-20.209 -4.27441 -22.3535 -8.36914 -68.3604 -3.64355c-8.86816 0.911133 -59.4033 4.97656 -59.4033 3.64941c0 -1.32227 5.70312 -10.0449 12.6738 -19.3838c22.5166 -30.166 37.5723 -55.7471 55.7939 -94.7979c23.8301 -51.0723 22.9355 -73.4678 39.7041 -131.02
c0 0 1.41699 -46.8047 3.42871 -111.919c-105.836 -4.56641 -245.511 -10.7471 -248.007 -11.668c-6.2334 -2.30078 -9.1377 -6.22559 -9.00195 -10.5703c0.177734 -5.6875 5.56445 -12.0947 15.5098 -16.5225c5.60742 -2.49707 137.167 -4.75098 242.891 -6.16699
c4.58105 -147.354 10.9082 -345.723 11.8408 -348.251c2.30078 -6.2334 6.22559 -9.1377 10.5703 -9.00195c5.6875 0.177734 12.0947 5.56445 16.5225 15.5098c2.5459 5.71875 4.83984 193.924 6.25098 341.165c50.332 -0.613281 86.9277 -0.964844 86.9277 -0.964844z
M5417.52 2985.2l41.3154 -10.0273c77.0781 -18.709 133.527 -34.1318 165.274 -45.0996c-28.9629 -21.3711 -54.1523 -36.0527 -91.9834 -53.7051c-51.0723 -23.8301 -73.4678 -22.9355 -131.02 -39.7041c0 0 -460.163 -8.94043 -675.907 -13.7686
c2.4375 22.1426 4.56152 110.206 5.77441 170.734c0.501953 -0.245117 1.01562 -0.485352 1.54297 -0.719727c9.42969 -4.19824 235.003 -7.70996 235.003 -7.70996l41.3154 -10.0273c100.174 -24.3145 165.504 -43.0791 187.049 -53.7275
c17.2617 -8.53125 31.6641 -8.73926 37.5225 -0.542969c2.37695 3.32617 4.3584 7.23145 4.3584 8.5918c0 4.19922 -6.25977 14.1348 -15.8896 25.2197c-7.31543 8.42285 -13.5244 20.4385 -18.6758 36.167c57.6729 -3.24219 214.32 -5.68066 214.32 -5.68066z
M5401.1 3036.66c0 0 -151.365 -10.3896 -205.88 -14.8174c-3.82812 16.1104 -6.89453 21.4678 -2.56836 63.5859c0.490234 4.77637 1.89648 21.6377 2.88184 36.1816c0.115234 -0.0566406 0.230469 -0.113281 0.34375 -0.168945
c17.2617 -8.53125 31.6641 -8.73926 37.5225 -0.542969c2.37695 3.32617 4.3584 7.23145 4.3584 8.5918c0 4.19922 -6.25977 14.1348 -15.8896 25.2197c-10.9482 12.6045 -19.418 33.2578 -25.5732 62.3584c-4.27441 20.209 -8.36914 22.3535 -3.64355 68.3604
c0.490234 4.77637 1.89648 21.6377 2.88184 36.1816c0.115234 -0.0566406 0.230469 -0.113281 0.34375 -0.168945c17.2617 -8.53125 31.6641 -8.73926 37.5225 -0.542969c2.37695 3.32617 4.3584 7.23145 4.3584 8.5918c0 4.19922 -6.25977 14.1348 -15.8896 25.2197
c-10.9482 12.6045 -19.418 33.2578 -25.5732 62.3584c-4.27441 20.209 -8.36914 22.3535 -3.64355 68.3604c0.911133 8.86816 4.97656 59.4033 3.64941 59.4033c-1.32227 0 -10.0449 -5.70312 -19.3838 -12.6738c-30.166 -22.5166 -55.7471 -37.5723 -94.7979 -55.7939
c-51.0723 -23.8301 -73.4678 -22.9355 -131.02 -39.7041c0 0 -136.701 -9.38379 -197.069 -14.1152c18.5283 72.9805 32.9385 120.953 41.7686 138.818c8.53125 17.2617 8.73926 31.6641 0.542969 37.5225c-3.32617 2.37695 -7.23145 4.3584 -8.5918 4.3584
c-4.19922 0 -14.1348 -6.25977 -25.2197 -15.8896c-12.6045 -10.9482 -33.2578 -19.418 -62.3584 -25.5732c-20.209 -4.27441 -22.3535 -8.36914 -68.3604 -3.64355c-8.86816 0.911133 -59.4033 4.97656 -59.4033 3.64941c0 -1.32227 5.70312 -10.0449 12.6738 -19.3838
c22.5166 -30.166 37.5723 -55.7471 55.7939 -94.7979c23.8301 -51.0723 22.9355 -73.4678 39.7041 -131.02c0 0 5.55859 -20.1738 10.2773 -36.9941c-13.002 -3.25195 -21.1221 -5.34961 -59.0459 -1.4541c-8.86816 0.911133 -59.4033 4.97656 -59.4033 3.64941
c0 -1.32227 5.70312 -10.0449 12.6738 -19.3838c22.5166 -30.166 37.5723 -55.7471 55.7939 -94.7979c23.8301 -51.0723 22.9355 -73.4678 39.7041 -131.02c0 0 11.6328 -169.472 15.5264 -214.354c-48.71 -1.125 -79.3154 -1.94141 -80.1045 -2.23242
c-6.2334 -2.30078 -9.1377 -6.22559 -9.00195 -10.5703c0.177734 -5.6875 5.56445 -12.0947 15.5098 -16.5225c9.42969 -4.19824 795.003 -7.70996 795.003 -7.70996l41.3154 -10.0273c100.174 -24.3145 165.504 -43.0791 187.049 -53.7275
c17.2617 -8.53125 31.6641 -8.73926 37.5225 -0.542969c2.37695 3.32617 4.3584 7.23145 4.3584 8.5918c0 4.19922 -6.25977 14.1348 -15.8896 25.2197c-10.9482 12.6045 -19.418 33.2578 -25.5732 62.3584c-4.27441 20.209 -8.36914 22.3535 -3.64355 68.3604
c0.490234 4.77637 1.89648 21.6377 2.88184 36.1816c0.115234 -0.0566406 0.230469 -0.113281 0.34375 -0.168945c17.2617 -8.53125 31.6641 -8.73926 37.5225 -0.542969c2.37695 3.32617 4.3584 7.23145 4.3584 8.5918c0 4.19922 -6.25977 14.1348 -15.8896 25.2197
c-10.9482 12.6045 -19.418 33.2578 -25.5732 62.3584c-4.27441 20.209 -8.36914 22.3535 -3.64355 68.3604c0.911133 8.86816 4.97656 59.4033 3.64941 59.4033c-1.32227 0 -10.0449 -5.70312 -19.3838 -12.6738c-30.166 -22.5166 -55.7471 -37.5723 -94.7979 -55.7939
c-51.0723 -23.8301 -73.4678 -22.9355 -131.02 -39.7041zM4967.52 3185.2l41.3154 -10.0273c77.0781 -18.709 133.527 -34.1318 165.274 -45.0996c-28.9629 -21.3711 -54.1523 -36.0527 -91.9834 -53.7051c-51.0723 -23.8301 -73.4678 -22.9355 -131.02 -39.7041
c0 0 -185.008 -12.6992 -219.613 -16.001c0.359375 19.5791 0.557617 32.3398 0.557617 32.3398l10.0273 41.3154c8.9375 36.8232 17.126 68.9385 24.4365 95.9014c65.2949 -2.90723 201.005 -5.01953 201.005 -5.01953zM4951.1 3236.66
c0 0 -108.692 -7.46094 -175.038 -12.4326c8.14648 27.8271 14.8105 47.168 19.7373 57.1357c8.53125 17.2617 8.73926 31.6641 0.542969 37.5225c-3.32617 2.37695 -7.23145 4.3584 -8.5918 4.3584c-4.19922 0 -14.1348 -6.25977 -25.2197 -15.8896
c-8.02539 -6.97168 -19.3154 -12.9375 -33.9707 -17.9414c2.08691 19.873 3.48438 43.5859 3.48438 43.5859l10.0273 41.3154c1.40332 5.78027 2.78809 11.4453 4.15332 16.9922c50.6621 -3.4541 221.288 -6.11035 221.288 -6.11035l41.3154 -10.0273
c77.0781 -18.709 133.527 -34.1318 165.274 -45.0996c-28.9629 -21.3711 -54.1523 -36.0527 -91.9834 -53.7051c-51.0723 -23.8301 -73.4678 -22.9355 -131.02 -39.7041zM3779.05 3053l10.0273 41.3154c24.3145 100.174 43.0791 165.504 53.7275 187.049
c8.53125 17.2617 8.73926 31.6641 0.542969 37.5225c-3.32617 2.37695 -7.23145 4.3584 -8.5918 4.3584c-4.19922 0 -14.1348 -6.25977 -25.2197 -15.8896c-12.6045 -10.9482 -33.2578 -19.418 -62.3584 -25.5732c-20.209 -4.27441 -22.3535 -8.36914 -68.3604 -3.64355
c-8.86816 0.911133 -59.4033 4.97656 -59.4033 3.64941c0 -1.32227 5.70312 -10.0449 12.6738 -19.3838c22.5166 -30.166 37.5723 -55.7471 55.7939 -94.7979c23.8301 -51.0723 22.9355 -73.4678 39.7041 -131.02c0 0 0.333984 -4.87109 0.90918 -13.1807
c-126.19 -2.65918 -224.068 -4.88281 -225.487 -5.40625c-6.2334 -2.30078 -9.1377 -6.22559 -9.00195 -10.5703c0.177734 -5.6875 5.56445 -12.0947 15.5098 -16.5225c3.24219 -1.44336 98.2402 -2.80566 221.514 -3.97168
c4.57031 -65.4346 12.1865 -172.652 13.2178 -175.446c2.30078 -6.2334 6.22559 -9.1377 10.5703 -9.00195c5.6875 0.177734 12.0947 5.56445 16.5225 15.5098c2.69531 6.05273 5.10742 101.172 6.48926 168.516c58.8672 -0.508789 121.974 -0.972656 183.326 -1.38379
c4.58301 -65.5811 12.0703 -170.872 13.0918 -173.64c2.30078 -6.2334 6.22559 -9.1377 10.5703 -9.00195c5.6875 0.177734 12.0947 5.56445 16.5225 15.5098c2.67285 6.00293 5.06641 99.5947 6.4541 166.828c68.3545 -0.43457 132.451 -0.794922 183.457 -1.06445
c4.59082 -65.667 11.9814 -169.522 12.9961 -172.271c2.30078 -6.2334 6.22559 -9.1377 10.5703 -9.00195c5.6875 0.177734 12.0947 5.56445 16.5225 15.5098c2.65527 5.96387 5.03613 98.3896 6.42676 165.522c41.502 -0.208984 66.752 -0.322266 66.752 -0.322266
l41.3154 -10.0273c100.174 -24.3145 165.504 -43.0791 187.049 -53.7275c17.2617 -8.53125 31.6641 -8.73926 37.5225 -0.542969c2.37695 3.32617 4.3584 7.23145 4.3584 8.5918c0 4.19922 -6.25977 14.1348 -15.8896 25.2197
c-10.9482 12.6045 -19.418 33.2578 -25.5732 62.3584c-4.27441 20.209 -8.36914 22.3535 -3.64355 68.3604c0.911133 8.86816 4.97656 59.4033 3.64941 59.4033c-1.32227 0 -10.0449 -5.70312 -19.3838 -12.6738c-30.166 -22.5166 -55.7471 -37.5723 -94.7979 -55.7939
c-51.0723 -23.8301 -73.4678 -22.9355 -131.02 -39.7041c0 0 -18.3262 -0.356445 -49.3799 -0.964844c0.210938 12.0137 0.324219 19.3037 0.324219 19.3037l10.0273 41.3154c24.3145 100.174 43.0791 165.504 53.7275 187.049
c8.53125 17.2617 8.73926 31.6641 0.542969 37.5225c-3.32617 2.37695 -7.23145 4.3584 -8.5918 4.3584c-4.19922 0 -14.1348 -6.25977 -25.2197 -15.8896c-12.6045 -10.9482 -33.2578 -19.418 -62.3584 -25.5732c-20.209 -4.27441 -22.3535 -8.36914 -68.3604 -3.64355
c-8.86816 0.911133 -59.4033 4.97656 -59.4033 3.64941c0 -1.32227 5.70312 -10.0449 12.6738 -19.3838c22.5166 -30.166 37.5723 -55.7471 55.7939 -94.7979c23.8301 -51.0723 22.9355 -73.4678 39.7041 -131.02c0 0 0.09375 -1.36719 0.267578 -3.88965
c-48.8262 -0.960938 -111.568 -2.20312 -179.208 -3.55859c0.261719 14.7031 0.404297 23.8613 0.404297 23.8613l10.0273 41.3154c24.3145 100.174 43.0791 165.504 53.7275 187.049c8.53125 17.2617 8.73926 31.6641 0.542969 37.5225
c-3.32617 2.37695 -7.23145 4.3584 -8.5918 4.3584c-4.19922 0 -14.1348 -6.25977 -25.2197 -15.8896c-12.6045 -10.9482 -33.2578 -19.418 -62.3584 -25.5732c-20.209 -4.27441 -22.3535 -8.36914 -68.3604 -3.64355c-8.86816 0.911133 -59.4033 4.97656 -59.4033 3.64941
c0 -1.32227 5.70312 -10.0449 12.6738 -19.3838c22.5166 -30.166 37.5723 -55.7471 55.7939 -94.7979c23.8301 -51.0723 22.9355 -73.4678 39.7041 -131.02c0 0 0.209961 -3.05859 0.583008 -8.46191c-59.7939 -1.20605 -121.578 -2.46484 -179.608 -3.6709
c0.316406 17.417 0.489258 28.5459 0.489258 28.5459zM4304.52 3443.2l41.3154 -10.0273c100.174 -24.3145 165.504 -43.0791 187.049 -53.7275c17.2617 -8.53125 31.6641 -8.73926 37.5225 -0.542969c2.37695 3.32617 4.3584 7.23145 4.3584 8.5918
c0 4.19922 -6.25977 14.1348 -15.8896 25.2197c-10.9482 12.6045 -19.418 33.2578 -25.5732 62.3584c-4.27441 20.209 -8.36914 22.3535 -3.64355 68.3604c0.911133 8.86816 4.97656 59.4033 3.64941 59.4033c-1.32227 0 -10.0449 -5.70312 -19.3838 -12.6738
c-30.166 -22.5166 -55.7471 -37.5723 -94.7979 -55.7939c-51.0723 -23.8301 -73.4678 -22.9355 -131.02 -39.7041c0 0 -781.07 -15.1748 -785.098 -16.6611c-6.2334 -2.30078 -9.1377 -6.22559 -9.00195 -10.5703c0.177734 -5.6875 5.56445 -12.0947 15.5098 -16.5225
c9.42969 -4.19824 795.003 -7.70996 795.003 -7.70996zM610.245 3247.94l-41.3154 10.0273c-100.174 24.3145 -165.504 43.0791 -187.049 53.7275c-17.2617 8.53125 -31.6641 8.73926 -37.5225 0.542969c-2.37695 -3.32617 -4.3584 -7.23145 -4.3584 -8.5918
c0 -4.19922 6.25977 -14.1348 15.8896 -25.2197c6.97168 -8.02539 12.9375 -19.3154 17.9414 -33.9707c-19.873 2.08691 -43.5859 3.48438 -43.5859 3.48438l-41.3154 10.0273c-100.174 24.3145 -165.504 43.0791 -187.049 53.7275
c-17.2617 8.53125 -31.6641 8.73926 -37.5225 0.542969c-2.37695 -3.32617 -4.3584 -7.23145 -4.3584 -8.5918c0 -4.19922 6.25977 -14.1348 15.8896 -25.2197c10.9482 -12.6045 19.418 -33.2578 25.5732 -62.3584c4.27441 -20.209 8.36914 -22.3535 3.64355 -68.3604
c-0.911133 -8.86816 -4.97656 -59.4033 -3.64941 -59.4033c1.32227 0 10.0449 5.70312 19.3838 12.6738c30.166 22.5166 55.7471 37.5723 94.7979 55.7939c51.0723 23.8301 73.4678 22.9355 131.02 39.7041c0 0 20.1738 5.55859 36.9941 10.2773
c3.25195 -13.002 5.34961 -21.1221 1.4541 -59.0459c-0.911133 -8.86816 -4.97656 -59.4033 -3.64941 -59.4033c1.32227 0 10.0449 5.70312 19.3838 12.6738c30.166 22.5166 55.7471 37.5723 94.7979 55.7939c51.0723 23.8301 73.4678 22.9355 131.02 39.7041
c0 0 28.7314 1.20703 70.0762 2.97461c-0.647461 -72.668 -1.02051 -126.313 -1.02051 -126.313l-10.0273 -41.3154c-24.3145 -100.174 -43.0791 -165.504 -53.7275 -187.049c-8.53125 -17.2617 -8.73926 -31.6641 -0.542969 -37.5225
c3.32617 -2.37695 7.23145 -4.3584 8.5918 -4.3584c4.19922 0 14.1348 6.25977 25.2197 15.8896c12.6045 10.9482 33.2578 19.418 62.3584 25.5732c20.209 4.27441 22.3535 8.36914 68.3604 3.64355c8.86816 -0.911133 59.4033 -4.97656 59.4033 -3.64941
c0 1.32227 -5.70312 10.0449 -12.6738 19.3838c-22.5166 30.166 -37.5723 55.7471 -55.7939 94.7979c-23.8301 51.0723 -22.9355 73.4678 -39.7041 131.02c0 0 -1.41699 46.8047 -3.42871 111.919c105.836 4.56641 245.511 10.7471 248.007 11.668
c6.2334 2.30078 9.1377 6.22559 9.00195 10.5703c-0.177734 5.6875 -5.56445 12.0947 -15.5098 16.5225c-5.60742 2.49707 -137.167 4.75098 -242.891 6.16699c-4.58105 147.354 -10.9082 345.723 -11.8408 348.251c-2.30078 6.2334 -6.22559 9.1377 -10.5703 9.00195
c-5.6875 -0.177734 -12.0947 -5.56445 -16.5225 -15.5098c-2.5459 -5.71875 -4.83984 -193.924 -6.25098 -341.165c-50.332 0.613281 -86.9277 0.964844 -86.9277 0.964844zM1110.25 3420.94l-41.3154 10.0273c-77.0781 18.709 -133.527 34.1318 -165.274 45.0996
c28.9629 21.3711 54.1523 36.0527 91.9834 53.7051c51.0723 23.8301 73.4678 22.9355 131.02 39.7041c0 0 460.163 8.94043 675.907 13.7686c-2.4375 -22.1426 -4.56152 -110.206 -5.77441 -170.734c-0.501953 0.245117 -1.01562 0.485352 -1.54297 0.719727
c-9.42969 4.19824 -235.003 7.70996 -235.003 7.70996l-41.3154 10.0273c-100.174 24.3145 -165.504 43.0791 -187.049 53.7275c-17.2617 8.53125 -31.6641 8.73926 -37.5225 0.542969c-2.37695 -3.32617 -4.3584 -7.23145 -4.3584 -8.5918
c0 -4.19922 6.25977 -14.1348 15.8896 -25.2197c7.31543 -8.42285 13.5244 -20.4385 18.6758 -36.167c-57.6729 3.24219 -214.32 5.68066 -214.32 5.68066zM1126.66 3369.48c0 0 151.365 10.3896 205.88 14.8174c3.82812 -16.1104 6.89453 -21.4678 2.56836 -63.5859
c-0.490234 -4.77637 -1.89648 -21.6377 -2.88184 -36.1816c-0.115234 0.0566406 -0.230469 0.113281 -0.34375 0.168945c-17.2617 8.53125 -31.6641 8.73926 -37.5225 0.542969c-2.37695 -3.32617 -4.3584 -7.23145 -4.3584 -8.5918
c0 -4.19922 6.25977 -14.1348 15.8896 -25.2197c10.9482 -12.6045 19.418 -33.2578 25.5732 -62.3584c4.27441 -20.209 8.36914 -22.3535 3.64355 -68.3604c-0.490234 -4.77637 -1.89648 -21.6377 -2.88184 -36.1816
c-0.115234 0.0566406 -0.230469 0.113281 -0.34375 0.168945c-17.2617 8.53125 -31.6641 8.73926 -37.5225 0.542969c-2.37695 -3.32617 -4.3584 -7.23145 -4.3584 -8.5918c0 -4.19922 6.25977 -14.1348 15.8896 -25.2197
c10.9482 -12.6045 19.418 -33.2578 25.5732 -62.3584c4.27441 -20.209 8.36914 -22.3535 3.64355 -68.3604c-0.911133 -8.86816 -4.97656 -59.4033 -3.64941 -59.4033c1.32227 0 10.0449 5.70312 19.3838 12.6738c30.166 22.5166 55.7471 37.5723 94.7979 55.7939
c51.0723 23.8301 73.4678 22.9355 131.02 39.7041c0 0 136.701 9.38379 197.069 14.1152c-18.5283 -72.9805 -32.9385 -120.953 -41.7686 -138.818c-8.53125 -17.2617 -8.73926 -31.6641 -0.542969 -37.5225c3.32617 -2.37695 7.23145 -4.3584 8.5918 -4.3584
c4.19922 0 14.1348 6.25977 25.2197 15.8896c12.6045 10.9482 33.2578 19.418 62.3584 25.5732c20.209 4.27441 22.3535 8.36914 68.3604 3.64355c8.86816 -0.911133 59.4033 -4.97656 59.4033 -3.64941c0 1.32227 -5.70312 10.0449 -12.6738 19.3838
c-22.5166 30.166 -37.5723 55.7471 -55.7939 94.7979c-23.8301 51.0723 -22.9355 73.4678 -39.7041 131.02c0 0 -5.55859 20.1738 -10.2773 36.9941c13.002 3.25195 21.1221 5.34961 59.0459 1.4541c8.86816 -0.911133 59.4033 -4.97656 59.4033 -3.64941
c0 1.32227 -5.70312 10.0449 -12.6738 19.3838c-22.5166 30.166 -37.5723 55.7471 -55.7939 94.7979c-23.8301 51.0723 -22.9355 73.4678 -39.7041 131.02c0 0 -11.6328 169.472 -15.5264 214.354c48.71 1.125 79.3154 1.94141 80.1045 2.23242
c6.2334 2.30078 9.1377 6.22559 9.00195 10.5703c-0.177734 5.6875 -5.56445 12.0947 -15.5098 16.5225c-9.42969 4.19824 -795.003 7.70996 -795.003 7.70996l-41.3154 10.0273c-100.174 24.3145 -165.504 43.0791 -187.049 53.7275
c-17.2617 8.53125 -31.6641 8.73926 -37.5225 0.542969c-2.37695 -3.32617 -4.3584 -7.23145 -4.3584 -8.5918c0 -4.19922 6.25977 -14.1348 15.8896 -25.2197c10.9482 -12.6045 19.418 -33.2578 25.5732 -62.3584c4.27441 -20.209 8.36914 -22.3535 3.64355 -68.3604
c-0.490234 -4.77637 -1.89648 -21.6377 -2.88184 -36.1816c-0.115234 0.0566406 -0.230469 0.113281 -0.34375 0.168945c-17.2617 8.53125 -31.6641 8.73926 -37.5225 0.542969c-2.37695 -3.32617 -4.3584 -7.23145 -4.3584 -8.5918
c0 -4.19922 6.25977 -14.1348 15.8896 -25.2197c10.9482 -12.6045 19.418 -33.2578 25.5732 -62.3584c4.27441 -20.209 8.36914 -22.3535 3.64355 -68.3604c-0.911133 -8.86816 -4.97656 -59.4033 -3.64941 -59.4033c1.32227 0 10.0449 5.70312 19.3838 12.6738
c30.166 22.5166 55.7471 37.5723 94.7979 55.7939c51.0723 23.8301 73.4678 22.9355 131.02 39.7041zM1560.25 3220.94l-41.3154 10.0273c-77.0781 18.709 -133.527 34.1318 -165.274 45.0996c28.9629 21.3711 54.1523 36.0527 91.9834 53.7051
c51.0723 23.8301 73.4678 22.9355 131.02 39.7041c0 0 185.008 12.6992 219.613 16.001c-0.359375 -19.5791 -0.557617 -32.3398 -0.557617 -32.3398l-10.0273 -41.3154c-8.9375 -36.8232 -17.126 -68.9385 -24.4365 -95.9014
c-65.2949 2.90723 -201.005 5.01953 -201.005 5.01953zM1576.66 3169.48c0 0 108.692 7.46094 175.038 12.4326c-8.14648 -27.8271 -14.8105 -47.168 -19.7373 -57.1357c-8.53125 -17.2617 -8.73926 -31.6641 -0.542969 -37.5225
c3.32617 -2.37695 7.23145 -4.3584 8.5918 -4.3584c4.19922 0 14.1348 6.25977 25.2197 15.8896c8.02539 6.97168 19.3154 12.9375 33.9707 17.9414c-2.08691 -19.873 -3.48438 -43.5859 -3.48438 -43.5859l-10.0273 -41.3154
c-1.40332 -5.78027 -2.78809 -11.4453 -4.15332 -16.9922c-50.6621 3.4541 -221.288 6.11035 -221.288 6.11035l-41.3154 10.0273c-77.0781 18.709 -133.527 34.1318 -165.274 45.0996c28.9629 21.3711 54.1523 36.0527 91.9834 53.7051
c51.0723 23.8301 73.4678 22.9355 131.02 39.7041zM2748.71 3353.14l-10.0273 -41.3154c-24.3145 -100.174 -43.0791 -165.504 -53.7275 -187.049c-8.53125 -17.2617 -8.73926 -31.6641 -0.542969 -37.5225c3.32617 -2.37695 7.23145 -4.3584 8.5918 -4.3584
c4.19922 0 14.1348 6.25977 25.2197 15.8896c12.6045 10.9482 33.2578 19.418 62.3584 25.5732c20.209 4.27441 22.3535 8.36914 68.3604 3.64355c8.86816 -0.911133 59.4033 -4.97656 59.4033 -3.64941c0 1.32227 -5.70312 10.0449 -12.6738 19.3838
c-22.5166 30.166 -37.5723 55.7471 -55.7939 94.7979c-23.8301 51.0723 -22.9355 73.4678 -39.7041 131.02c0 0 -0.333984 4.87109 -0.90918 13.1807c126.19 2.65918 224.068 4.88281 225.487 5.40625c6.2334 2.30078 9.1377 6.22559 9.00195 10.5703
c-0.177734 5.6875 -5.56445 12.0947 -15.5098 16.5225c-3.24219 1.44336 -98.2402 2.80566 -221.514 3.97168c-4.57031 65.4346 -12.1865 172.652 -13.2178 175.446c-2.30078 6.2334 -6.22559 9.1377 -10.5703 9.00195
c-5.6875 -0.177734 -12.0947 -5.56445 -16.5225 -15.5098c-2.69531 -6.05273 -5.10742 -101.172 -6.48926 -168.516c-58.8672 0.508789 -121.974 0.972656 -183.326 1.38379c-4.58301 65.5811 -12.0703 170.872 -13.0918 173.64
c-2.30078 6.2334 -6.22559 9.1377 -10.5703 9.00195c-5.6875 -0.177734 -12.0947 -5.56445 -16.5225 -15.5098c-2.67285 -6.00293 -5.06641 -99.5947 -6.4541 -166.828c-68.3545 0.43457 -132.451 0.794922 -183.457 1.06445
c-4.59082 65.667 -11.9814 169.522 -12.9961 172.271c-2.30078 6.2334 -6.22559 9.1377 -10.5703 9.00195c-5.6875 -0.177734 -12.0947 -5.56445 -16.5225 -15.5098c-2.65527 -5.96387 -5.03613 -98.3896 -6.42676 -165.522
c-41.502 0.208984 -66.752 0.322266 -66.752 0.322266l-41.3154 10.0273c-100.174 24.3145 -165.504 43.0791 -187.049 53.7275c-17.2617 8.53125 -31.6641 8.73926 -37.5225 0.542969c-2.37695 -3.32617 -4.3584 -7.23145 -4.3584 -8.5918
c0 -4.19922 6.25977 -14.1348 15.8896 -25.2197c10.9482 -12.6045 19.418 -33.2578 25.5732 -62.3584c4.27441 -20.209 8.36914 -22.3535 3.64355 -68.3604c-0.911133 -8.86816 -4.97656 -59.4033 -3.64941 -59.4033c1.32227 0 10.0449 5.70312 19.3838 12.6738
c30.166 22.5166 55.7471 37.5723 94.7979 55.7939c51.0723 23.8301 73.4678 22.9355 131.02 39.7041c0 0 18.3262 0.356445 49.3799 0.964844c-0.210938 -12.0137 -0.324219 -19.3037 -0.324219 -19.3037l-10.0273 -41.3154
c-24.3145 -100.174 -43.0791 -165.504 -53.7275 -187.049c-8.53125 -17.2617 -8.73926 -31.6641 -0.542969 -37.5225c3.32617 -2.37695 7.23145 -4.3584 8.5918 -4.3584c4.19922 0 14.1348 6.25977 25.2197 15.8896c12.6045 10.9482 33.2578 19.418 62.3584 25.5732
c20.209 4.27441 22.3535 8.36914 68.3604 3.64355c8.86816 -0.911133 59.4033 -4.97656 59.4033 -3.64941c0 1.32227 -5.70312 10.0449 -12.6738 19.3838c-22.5166 30.166 -37.5723 55.7471 -55.7939 94.7979c-23.8301 51.0723 -22.9355 73.4678 -39.7041 131.02
c0 0 -0.09375 1.36719 -0.267578 3.88965c48.8262 0.960938 111.568 2.20312 179.208 3.55859c-0.261719 -14.7031 -0.404297 -23.8613 -0.404297 -23.8613l-10.0273 -41.3154c-24.3145 -100.174 -43.0791 -165.504 -53.7275 -187.049
c-8.53125 -17.2617 -8.73926 -31.6641 -0.542969 -37.5225c3.32617 -2.37695 7.23145 -4.3584 8.5918 -4.3584c4.19922 0 14.1348 6.25977 25.2197 15.8896c12.6045 10.9482 33.2578 19.418 62.3584 25.5732c20.209 4.27441 22.3535 8.36914 68.3604 3.64355
c8.86816 -0.911133 59.4033 -4.97656 59.4033 -3.64941c0 1.32227 -5.70312 10.0449 -12.6738 19.3838c-22.5166 30.166 -37.5723 55.7471 -55.7939 94.7979c-23.8301 51.0723 -22.9355 73.4678 -39.7041 131.02c0 0 -0.209961 3.05859 -0.583008 8.46191
c59.7939 1.20605 121.578 2.46484 179.608 3.6709c-0.316406 -17.417 -0.489258 -28.5459 -0.489258 -28.5459zM2223.25 2962.94l-41.3154 10.0273c-100.174 24.3145 -165.504 43.0791 -187.049 53.7275c-17.2617 8.53125 -31.6641 8.73926 -37.5225 0.542969
c-2.37695 -3.32617 -4.3584 -7.23145 -4.3584 -8.5918c0 -4.19922 6.25977 -14.1348 15.8896 -25.2197c10.9482 -12.6045 19.418 -33.2578 25.5732 -62.3584c4.27441 -20.209 8.36914 -22.3535 3.64355 -68.3604c-0.911133 -8.86816 -4.97656 -59.4033 -3.64941 -59.4033
c1.32227 0 10.0449 5.70312 19.3838 12.6738c30.166 22.5166 55.7471 37.5723 94.7979 55.7939c51.0723 23.8301 73.4678 22.9355 131.02 39.7041c0 0 781.07 15.1748 785.098 16.6611c6.2334 2.30078 9.1377 6.22559 9.00195 10.5703
c-0.177734 5.6875 -5.56445 12.0947 -15.5098 16.5225c-9.42969 4.19824 -795.003 7.70996 -795.003 7.70996z" />
</svg>
