<?xml version="1.0" standalone="no"?>
<!DOCTYPE svg PUBLIC "-//W3C//DTD SVG 1.1//EN" "http://www.w3.org/Graphics/SVG/1.1/DTD/svg11.dtd" >
<svg xmlns="http://www.w3.org/2000/svg" xmlns:xlink="http://www.w3.org/1999/xlink" version="1.1" viewBox="0 0 731 800">
   <path fill="currentColor"
d="M435.714 270.139l-0.336914 -1.38867c-59.4668 0.75293 -105.132 1.19141 -105.132 1.19141l-41.3154 10.0273c-100.174 24.3145 -165.504 43.0791 -187.049 53.7275c-17.2617 8.53125 -31.6641 8.73926 -37.5225 0.542969
c-2.37695 -3.32617 -4.3584 -7.23145 -4.3584 -8.5918c0 -4.19922 6.25977 -14.1348 15.8896 -25.2197c10.9482 -12.6045 19.418 -33.2578 25.5732 -62.3584c4.27441 -20.209 8.36914 -22.3535 3.64355 -68.3604c-0.911133 -8.86816 -4.97656 -59.4033 -3.64941 -59.4033
c1.32227 0 10.0449 5.70312 19.3838 12.6738c30.166 22.5166 55.7471 37.5723 94.7979 55.7939c51.0723 23.8301 73.4678 22.9355 131.02 39.7041c0 0 32.1211 1.34961 77.3096 3.28418c-23.4805 -96.1836 -41.6123 -158.953 -52.0088 -179.987
c-8.53125 -17.2617 -8.73926 -31.6641 -0.542969 -37.5225c3.32617 -2.37695 7.23145 -4.3584 8.5918 -4.3584c4.19922 0 14.1348 6.25977 25.2197 15.8896c12.6045 10.9482 33.2578 19.418 62.3584 25.5732c20.209 4.27441 22.3535 8.36914 68.3604 3.64355
c8.86816 -0.911133 59.4033 -4.97656 59.4033 -3.64941c0 1.32227 -5.70312 10.0449 -12.6738 19.3838c-22.5166 30.166 -37.5723 55.7471 -55.7939 94.7979c-13.2627 28.4238 -18.8672 47.9658 -24.1201 69.6289c98.1816 4.27441 206.796 9.16602 208.994 9.97754
c6.2334 2.30078 9.1377 6.22559 9.00195 10.5703c-0.177734 5.6875 -5.56445 12.0947 -15.5098 16.5225c-5.08789 2.26465 -113.84 4.33008 -212.919 5.75195c-1.52637 5.78906 -3.22168 11.9453 -5.15137 18.5684c0 0 -2.2793 75.2754 -5.1582 167.709
c102.941 4.45898 227.381 10.0088 229.736 10.8779c6.2334 2.30078 9.1377 6.22559 9.00195 10.5703c-0.177734 5.6875 -5.56445 12.0947 -15.5098 16.5225c-5.28809 2.35449 -122.588 4.49316 -224.601 5.91699c-2.00879 64.0049 -4.16699 131.615 -5.98242 185.794
c104.268 4.50879 234.68 10.3066 237.091 11.1963c6.2334 2.30078 9.1377 6.22559 9.00195 10.5703c-0.177734 5.6875 -5.56445 12.0947 -15.5098 16.5225c-5.41797 2.41211 -128.426 4.59766 -232.099 6.02148c-1.33008 37.916 -2.30859 62.5166 -2.63281 63.3965
c-2.30078 6.2334 -6.22559 9.1377 -10.5703 9.00195c-5.6875 -0.177734 -12.0947 -5.56445 -16.5225 -15.5098c-0.833984 -1.87207 -1.64062 -23.3076 -2.39746 -56.4629c-62.2002 0.795898 -110.781 1.2627 -110.781 1.2627l-41.3154 10.0273
c-100.174 24.3145 -165.504 43.0791 -187.049 53.7275c-17.2617 8.53125 -31.6641 8.73926 -37.5225 0.542969c-2.37695 -3.32617 -4.3584 -7.23145 -4.3584 -8.5918c0 -4.19922 6.25977 -14.1348 15.8896 -25.2197c10.9482 -12.6045 19.418 -33.2578 25.5732 -62.3584
c4.27441 -20.209 8.36914 -22.3535 3.64355 -68.3604c-0.911133 -8.86816 -4.97656 -59.4033 -3.64941 -59.4033c1.32227 0 10.0449 5.70312 19.3838 12.6738c30.166 22.5166 55.7471 37.5723 94.7979 55.7939c51.0723 23.8301 73.4678 22.9355 131.02 39.7041
c0 0 39.9697 1.67969 93.4619 3.97656c-0.90918 -52.8486 -1.72461 -119.509 -2.39844 -183.733c-60.6074 0.770508 -107.477 1.2207 -107.477 1.2207l-41.3154 10.0273c-100.174 24.3145 -165.504 43.0791 -187.049 53.7275
c-17.2617 8.53125 -31.6641 8.73926 -37.5225 0.542969c-2.37695 -3.32617 -4.3584 -7.23145 -4.3584 -8.5918c0 -4.19922 6.25977 -14.1348 15.8896 -25.2197c10.9482 -12.6045 19.418 -33.2578 25.5732 -62.3584c4.27441 -20.209 8.36914 -22.3535 3.64355 -68.3604
c-0.911133 -8.86816 -4.97656 -59.4033 -3.64941 -59.4033c1.32227 0 10.0449 5.70312 19.3838 12.6738c30.166 22.5166 55.7471 37.5723 94.7979 55.7939c51.0723 23.8301 73.4678 22.9355 131.02 39.7041c0 0 38.5488 1.62012 90.5957 3.85352
c-0.963867 -99.29 -1.54004 -182.192 -1.54004 -182.192z" />
</svg>
