<?xml version="1.0" standalone="no"?>
<!DOCTYPE svg PUBLIC "-//W3C//DTD SVG 1.1//EN" "http://www.w3.org/Graphics/SVG/1.1/DTD/svg11.dtd" >
<svg xmlns="http://www.w3.org/2000/svg" xmlns:xlink="http://www.w3.org/1999/xlink" version="1.1" viewBox="0 0 1431 894">
   <path fill="currentColor"
d="M1170.19 254.941l-41.3154 10.0273c-100.174 24.3145 -165.504 43.0791 -187.049 53.7275c-17.2617 8.53125 -31.6641 8.73926 -37.5225 0.542969c-2.37695 -3.32617 -4.3584 -7.23145 -4.3584 -8.5918c0 -4.19922 6.25977 -14.1348 15.8896 -25.2197
c10.9482 -12.6045 19.418 -33.2578 25.5732 -62.3584c4.27441 -20.209 8.36914 -22.3535 3.64355 -68.3604c-0.911133 -8.86816 -4.97656 -59.4033 -3.64941 -59.4033c1.32227 0 10.0449 5.70312 19.3838 12.6738c30.166 22.5166 55.7471 37.5723 94.7979 55.7939
c51.0723 23.8301 73.4678 22.9355 131.02 39.7041c0 0 221.07 15.1748 225.098 16.6611c6.2334 2.30078 9.1377 6.22559 9.00195 10.5703c-0.177734 5.6875 -5.56445 12.0947 -15.5098 16.5225c-9.42969 4.19824 -235.003 7.70996 -235.003 7.70996zM889.245 805.941
l-41.3154 10.0273c-100.174 24.3145 -165.504 43.0791 -187.049 53.7275c-17.2617 8.53125 -31.6641 8.73926 -37.5225 0.542969c-2.37695 -3.32617 -4.3584 -7.23145 -4.3584 -8.5918c0 -4.19922 6.25977 -14.1348 15.8896 -25.2197
c10.9482 -12.6045 19.418 -33.2578 25.5732 -62.3584c4.27441 -20.209 8.36914 -22.3535 3.64355 -68.3604c-0.911133 -8.86816 -4.97656 -59.4033 -3.64941 -59.4033c1.32227 0 10.0449 5.70312 19.3838 12.6738c30.166 22.5166 55.7471 37.5723 94.7979 55.7939
c51.0723 23.8301 73.4678 22.9355 131.02 39.7041c0 0 501.07 15.1748 505.098 16.6611c6.2334 2.30078 9.1377 6.22559 9.00195 10.5703c-0.177734 5.6875 -5.56445 12.0947 -15.5098 16.5225c-9.42969 4.19824 -515.003 7.70996 -515.003 7.70996zM816.021 673.28
l-21.7832 -13.2744c-52.8154 -32.1846 -88.4941 -51.9404 -102.152 -56.5635c-10.9434 -3.7041 -17.1416 -9.72656 -16.1504 -15.6895c0.40332 -2.41992 1.21973 -4.91699 1.79688 -5.49414c1.78125 -1.78223 8.65234 -3.34082 17.4404 -3.95898
c9.99316 -0.702148 22.3486 -5.87109 37.3066 -15.6064c10.3877 -6.75977 13.0342 -5.93262 30.5488 -27.457c3.37598 -4.14844 23.0908 -27.3135 23.6543 -26.751c0.560547 0.561523 1.8418 6.68164 2.84668 13.6016c3.24512 22.3506 7.71094 39.5918 16.5479 63.8906
c11.5586 31.7783 21.4395 40.9004 38.7422 72.4316c0 0 16.9258 29.8027 18.0039 32.1416c1.66895 3.62109 1.23633 6.51855 -0.665039 8.30371c-2.48828 2.33789 -7.49219 2.77051 -13.5898 0.429688c-5.78223 -2.21875 -32.5469 -26.0039 -32.5469 -26.0039z
M913.602 575.699l-21.7822 -13.2744c-52.8164 -32.1846 -88.4951 -51.9414 -102.153 -56.5635c-10.9424 -3.7041 -17.1416 -9.72656 -16.1494 -15.6895c0.402344 -2.41992 1.21875 -4.91699 1.7959 -5.49414c1.78125 -1.78125 8.65234 -3.3418 17.4414 -3.95801
c6.3623 -0.447266 13.6836 -2.70605 22.0244 -6.80078c-9.31641 -7.5459 -19.9707 -17.0137 -19.9707 -17.0137l-21.7822 -13.2744c-52.8164 -32.1846 -88.4941 -51.9404 -102.153 -56.5635c-10.9434 -3.7041 -17.1416 -9.72656 -16.1494 -15.6895
c0.402344 -2.41895 1.21875 -4.91699 1.7959 -5.49414c1.78125 -1.78125 8.65234 -3.34082 17.4414 -3.95801c9.99219 -0.703125 22.3486 -5.87207 37.3057 -15.6074c10.3877 -6.75977 13.0342 -5.93262 30.5488 -27.457c3.37598 -4.14844 23.0908 -27.3135 23.6543 -26.751
c0.561523 0.561523 1.8418 6.68164 2.84668 13.6016c3.24609 22.3516 7.71094 39.5918 16.5488 63.8906c11.5576 31.7783 21.4385 40.9004 38.7412 72.4316c0 0 6.20117 10.918 11.3359 20.0557c6.89453 -4.13672 11.2305 -6.69141 25.667 -24.4336
c3.37598 -4.14941 23.0918 -27.3145 23.6543 -26.751c0.561523 0.560547 1.84277 6.68066 2.84766 13.6006c3.24414 22.3506 7.71094 39.5918 16.5479 63.8906c11.5576 31.7783 21.4385 40.9004 38.7412 72.4316c0 0 16.9258 29.8027 18.0039 32.1416
c1.66895 3.62109 1.23633 6.51758 -0.665039 8.30371c-2.48828 2.33789 -7.49219 2.77148 -13.5898 0.429688c-5.78223 -2.21973 -32.5469 -26.0039 -32.5469 -26.0039zM1011.18 478.118l-21.7822 -13.2744c-52.8164 -32.1846 -88.4941 -51.9404 -102.153 -56.5635
c-10.9434 -3.70312 -17.1416 -9.72559 -16.1494 -15.6885c0.402344 -2.41992 1.21875 -4.91797 1.7959 -5.49512c1.78125 -1.78125 8.65234 -3.34082 17.4414 -3.95801c9.99219 -0.703125 22.3486 -5.87207 37.3057 -15.6064
c10.3877 -6.76074 13.0342 -5.93359 30.5488 -27.457c3.37598 -4.14941 23.0908 -27.3145 23.6543 -26.751c0.561523 0.560547 1.8418 6.68164 2.84668 13.6006c3.24609 22.3516 7.71094 39.5928 16.5488 63.8906c11.5576 31.7793 21.4385 40.9004 38.7412 72.4326
c0 0 16.9268 29.8018 18.0049 32.1416c1.66797 3.62012 1.23535 6.51758 -0.666016 8.30371c-2.48828 2.33691 -7.49219 2.77051 -13.5898 0.429688c-5.78223 -2.21973 -32.5469 -26.0049 -32.5469 -26.0049zM449.461 848.523l-36.3047 -22.124
c-88.0264 -53.6406 -147.49 -86.5674 -170.255 -94.2725c-18.2383 -6.17383 -28.5693 -16.2109 -26.916 -26.1484c0.670898 -4.0332 2.03125 -8.19531 2.99316 -9.15723c2.96973 -2.96973 14.4209 -5.56836 29.0684 -6.59766
c16.6543 -1.1709 37.248 -9.78613 62.1777 -26.0107c17.3125 -11.2676 21.7236 -9.88867 50.9141 -45.7617c4.6377 -5.69922 27.7715 -32.9248 36.2891 -41.7988c-0.230469 -14.126 -0.450195 -28.4365 -0.657227 -42.6025
c-14.5244 3.82617 -66.5254 6.8916 -66.5254 6.8916l-41.3154 10.0273c-100.174 24.3145 -165.504 43.0791 -187.049 53.7275c-17.2617 8.53125 -31.6641 8.73926 -37.5225 0.542969c-2.37695 -3.32617 -4.3584 -7.23145 -4.3584 -8.5918
c0 -4.19922 6.25977 -14.1348 15.8896 -25.2197c10.9482 -12.6045 19.418 -33.2578 25.5732 -62.3584c4.27441 -20.209 8.36914 -22.3535 3.64355 -68.3604c-0.911133 -8.86816 -4.97656 -59.4033 -3.64941 -59.4033c1.32227 0 10.0449 5.70312 19.3838 12.6738
c30.166 22.5166 55.7471 37.5723 94.7979 55.7939c51.0723 23.8301 73.4678 22.9355 131.02 39.7041c0 0 32.873 9.05859 49.6807 13.8633c-1.01562 -74.7305 -1.625 -138.202 -1.625 -138.202l-10.0273 -41.3154c-24.3145 -100.174 -43.0791 -165.504 -53.7275 -187.049
c-8.53125 -17.2617 -8.73926 -31.6641 -0.542969 -37.5225c3.32617 -2.37695 7.23145 -4.3584 8.5918 -4.3584c4.19922 0 14.1348 6.25977 25.2197 15.8896c12.6045 10.9482 33.2578 19.418 62.3584 25.5732c20.209 4.27441 22.3535 8.36914 68.3604 3.64355
c8.86816 -0.911133 59.4033 -4.97656 59.4033 -3.64941c0 1.32227 -5.70312 10.0449 -12.6738 19.3838c-22.5166 30.166 -37.5723 55.7471 -55.7939 94.7979c-23.8301 51.0723 -22.9355 73.4678 -39.7041 131.02c0 0 -9.30273 221.344 -14.0537 319.358
c0.251953 0.699219 0.506836 1.40234 0.763672 2.1084c19.2627 52.9639 35.7314 68.167 64.5693 120.72c0 0 28.2109 49.6709 30.0068 53.5693c2.78125 6.03516 2.05957 10.8643 -1.1084 13.8398c-4.14746 3.89648 -12.4873 4.61816 -22.6504 0.716797
c-9.63672 -3.69922 -54.2441 -43.3408 -54.2441 -43.3408zM793.461 274.523l-36.3047 -22.124c-88.0264 -53.6406 -147.49 -86.5674 -170.255 -94.2725c-18.2383 -6.17383 -28.5693 -16.2109 -26.916 -26.1484c0.670898 -4.0332 2.03125 -8.19531 2.99316 -9.15723
c2.96973 -2.96973 14.4209 -5.56836 29.0684 -6.59766c16.6543 -1.1709 37.248 -9.78613 62.1777 -26.0107c17.3125 -11.2676 21.7236 -9.88867 50.9141 -45.7617c5.62695 -6.91504 38.4854 -45.5234 39.4238 -44.585c0.935547 0.93457 3.07031 11.1348 4.74512 22.668
c5.40918 37.252 12.8516 65.9863 27.5801 106.484c19.2627 52.9639 35.7314 68.167 64.5693 120.72c0 0 28.2109 49.6709 30.0068 53.5693c2.78125 6.03516 2.05957 10.8643 -1.1084 13.8398c-4.14746 3.89648 -12.4873 4.61816 -22.6504 0.716797
c-9.63672 -3.69922 -54.2441 -43.3408 -54.2441 -43.3408z" />
</svg>
