<?xml version="1.0" standalone="no"?>
<!DOCTYPE svg PUBLIC "-//W3C//DTD SVG 1.1//EN" "http://www.w3.org/Graphics/SVG/1.1/DTD/svg11.dtd" >
<svg xmlns="http://www.w3.org/2000/svg" xmlns:xlink="http://www.w3.org/1999/xlink" version="1.1" viewBox="0 0 1606 923">
   <path fill="currentColor"
d="M771.845 4.7793c7.42969 -9.08496 30.668 -4.78711 27.7188 6.45312c-10.4199 39.707 -59.999 101.099 -87.0156 191.611c-21.8799 73.3076 18.748 168.492 65.5889 230.323c26.8828 35.4844 46.5342 98.8125 39.541 105.806
c-2.85059 2.85156 -13.1025 -9.99902 -22.9033 -28.709c-9.75781 -18.6289 -40.2637 -57.0977 -67.791 -85.4844c-46.7695 -48.2314 -66.0791 -61.6582 -160.273 -111.447c-8.5498 -4.51855 -16.1729 -9.33105 -22.1699 -14.3066
c-61.1904 3.10938 -209.349 5.41602 -209.349 5.41602l-41.3154 10.0273c-100.174 24.3145 -165.504 43.0791 -187.049 53.7275c-17.2617 8.53125 -31.6641 8.73926 -37.5225 0.542969c-2.37695 -3.32617 -4.3584 -7.23145 -4.3584 -8.5918
c0 -4.19922 6.25977 -14.1348 15.8896 -25.2197c10.9482 -12.6045 19.418 -33.2578 25.5732 -62.3584c4.27441 -20.209 8.36914 -22.3535 3.64355 -68.3604c-0.911133 -8.86816 -4.97656 -59.4033 -3.64941 -59.4033c1.32227 0 10.0449 5.70312 19.3838 12.6738
c30.166 22.5166 55.7471 37.5723 94.7979 55.7939c51.0723 23.8301 73.4678 22.9355 131.02 39.7041c0 0 118.606 8.1416 183.651 13.082c4.39258 -5.35254 12.2402 -10.5801 24.3574 -15.5361c22.7139 -9.29102 105.255 -83.0791 122.508 -97.4297
c33 -27.4473 37.9541 -85.0107 89.7236 -148.314zM1008.82 731.153l-36.3057 -22.124c-88.0264 -53.6406 -147.49 -86.5674 -170.254 -94.2725c-18.2383 -6.17383 -28.5693 -16.2109 -26.917 -26.1484c0.671875 -4.0332 2.03223 -8.19531 2.99414 -9.15723
c2.96875 -2.96973 14.4209 -5.56836 29.0684 -6.59766c16.6543 -1.1709 37.2471 -9.78613 62.1768 -26.0107c17.3125 -11.2676 21.7246 -9.88867 50.915 -45.7617c5.62598 -6.91504 38.4854 -45.5234 39.4238 -44.585c0.93457 0.93457 3.07031 11.1357 4.74414 22.668
c5.40918 37.252 12.8516 65.9863 27.5801 106.484c19.2637 52.9639 35.7324 68.168 64.5703 120.72c0 0 28.21 49.6709 30.0068 53.5703c2.78125 6.03418 2.05957 10.8633 -1.1084 13.8389c-4.14746 3.89648 -12.4873 4.61816 -22.6504 0.716797
c-9.63672 -3.69922 -54.2441 -43.3408 -54.2441 -43.3408zM1171.46 568.519l-36.3047 -22.124c-88.0264 -53.6416 -147.491 -86.5684 -170.255 -94.2725c-18.2383 -6.17383 -28.5693 -16.2109 -26.916 -26.1484c0.670898 -4.0332 2.03125 -8.19531 2.99316 -9.15723
c2.96875 -2.96973 14.4209 -5.56934 29.0684 -6.59766c10.6045 -0.745117 22.8057 -4.50977 36.707 -11.334c-15.5273 -12.5771 -33.2832 -28.3564 -33.2832 -28.3564l-36.3047 -22.124c-88.0264 -53.6406 -147.49 -86.5674 -170.255 -94.2725
c-18.2383 -6.17285 -28.5693 -16.21 -26.916 -26.1484c0.670898 -4.03223 2.03125 -8.19531 2.99316 -9.15723c2.96973 -2.96875 14.4209 -5.56836 29.0693 -6.59668c16.6543 -1.17188 37.2471 -9.78711 62.1768 -26.0117
c17.3125 -11.2676 21.7236 -9.88867 50.9141 -45.7617c5.62695 -6.91504 38.4854 -45.5234 39.4238 -44.585c0.935547 0.935547 3.07031 11.1357 4.74512 22.668c5.40918 37.2529 12.8516 65.9873 27.5801 106.485c19.2627 52.9639 35.7314 68.167 64.5693 120.72
c0 0 10.334 18.1953 18.8916 33.4258c11.4932 -6.89453 18.7178 -11.1533 42.7803 -40.7236c5.62695 -6.91504 38.4854 -45.5234 39.4238 -44.585c0.935547 0.93457 3.07031 11.1348 4.74512 22.668c5.4082 37.252 12.8516 65.9863 27.5801 106.484
c19.2627 52.9639 35.7314 68.167 64.5693 120.72c0 0 28.21 49.6709 30.0068 53.5693c2.78125 6.03516 2.05957 10.8633 -1.1084 13.8398c-4.14746 3.89648 -12.4873 4.61816 -22.6504 0.71582c-9.63672 -3.69922 -54.2441 -43.3398 -54.2441 -43.3398zM1334.09 405.884
l-36.3047 -22.124c-88.0264 -53.6406 -147.49 -86.5674 -170.255 -94.2725c-18.2383 -6.17285 -28.5693 -16.21 -26.916 -26.1484c0.670898 -4.03223 2.03125 -8.19531 2.99316 -9.15723c2.96973 -2.96875 14.4209 -5.56836 29.0693 -6.59766
c16.6543 -1.1709 37.2471 -9.78613 62.1768 -26.0107c17.3125 -11.2676 21.7236 -9.88867 50.9141 -45.7617c5.62695 -6.91504 38.4854 -45.5234 39.4238 -44.585c0.935547 0.93457 3.07031 11.1357 4.74512 22.668c5.40918 37.2529 12.8516 65.9873 27.5801 106.484
c19.2627 52.9648 35.7314 68.168 64.5693 120.721c0 0 28.2109 49.6699 30.0078 53.5693c2.78027 6.03418 2.05859 10.8633 -1.10938 13.8398c-4.14746 3.89551 -12.4873 4.61719 -22.6504 0.71582c-9.63672 -3.69922 -54.2441 -43.3408 -54.2441 -43.3408zM1435.71 305.139
l-10.0273 -41.3154c-24.3145 -100.174 -43.0791 -165.504 -53.7275 -187.049c-8.53125 -17.2617 -8.73926 -31.6641 -0.542969 -37.5225c3.32617 -2.37695 7.23145 -4.3584 8.5918 -4.3584c4.19922 0 14.1348 6.25977 25.2197 15.8896
c12.6045 10.9482 33.2578 19.418 62.3584 25.5732c20.209 4.27441 22.3535 8.36914 68.3604 3.64355c8.86816 -0.911133 59.4033 -4.97656 59.4033 -3.64941c0 1.32227 -5.70312 10.0449 -12.6738 19.3838c-22.5166 30.166 -37.5723 55.7471 -55.7939 94.7979
c-23.8301 51.0723 -22.9355 73.4678 -39.7041 131.02c0 0 -15.1748 501.07 -16.6611 505.098c-2.30078 6.2334 -6.22559 9.1377 -10.5703 9.00195c-0.553711 -0.0175781 -1.11426 -0.0839844 -1.67871 -0.199219c-2.51758 3.58984 -6.90723 7.05859 -13.0195 9.7793
c-9.42969 4.19824 -515.003 7.70996 -515.003 7.70996l-41.3154 10.0273c-100.174 24.3145 -165.504 43.0791 -187.049 53.7275c-17.2617 8.53125 -31.6641 8.73926 -37.5225 0.542969c-2.37695 -3.32617 -4.3584 -7.23145 -4.3584 -8.5918
c0 -4.19922 6.25977 -14.1348 15.8896 -25.2197c10.9482 -12.6045 19.418 -33.2578 25.5732 -62.3584c4.14941 -19.6201 8.13086 -22.2129 4.03418 -64.4492l-0.249023 0.111328c-9.42969 4.19824 -375.003 7.70996 -375.003 7.70996l-41.3154 10.0273
c-100.174 24.3145 -165.504 43.0791 -187.049 53.7275c-17.2617 8.53125 -31.6641 8.73926 -37.5225 0.542969c-2.37695 -3.32617 -4.3584 -7.23145 -4.3584 -8.5918c0 -4.19922 6.25977 -14.1348 15.8896 -25.2197c10.9482 -12.6045 19.418 -33.2578 25.5732 -62.3584
c4.27441 -20.209 8.36914 -22.3535 3.64355 -68.3604c-0.911133 -8.86816 -4.97656 -59.4033 -3.64941 -59.4033c1.32227 0 10.0449 5.70312 19.3838 12.6738c30.166 22.5166 55.7471 37.5723 94.7979 55.7939c51.0723 23.8301 73.4678 22.9355 131.02 39.7041
c0 0 301.161 12.6572 356.463 15.9844c-1.26855 -16.7227 -2.47656 -35.6562 -1.66406 -35.6562c1.32227 0 10.0449 5.70312 19.3838 12.6738c30.166 22.5166 55.7471 37.5723 94.7979 55.7939c51.0723 23.8301 73.4678 22.9355 131.02 39.7041
c0 0 429.256 13 496.35 16.1133c-4.01172 -39.9492 -7.29395 -512.452 -7.29395 -512.452zM672.853 212.671c1.14648 -1.28809 2.23828 -2.56543 3.26855 -3.82715c-1.20215 0.676758 -2.29492 1.9834 -3.26855 3.82715z" />
</svg>
