<?xml version="1.0" standalone="no"?>
<!DOCTYPE svg PUBLIC "-//W3C//DTD SVG 1.1//EN" "http://www.w3.org/Graphics/SVG/1.1/DTD/svg11.dtd" >
<svg xmlns="http://www.w3.org/2000/svg" xmlns:xlink="http://www.w3.org/1999/xlink" version="1.1" viewBox="0 0 1600 751">
   <path fill="currentColor"
d="M1126.38 636.427c-12.1064 14.9727 -31.6641 8.73926 -37.5225 0.542969c-2.37695 -3.32617 -4.3584 -7.23145 -4.3584 -8.5918c0 -4.19922 6.25977 -14.1348 15.8896 -25.2197c5.06348 -5.8291 11.7354 -49.7422 18.0537 -98.1445
c-53.8525 3.36523 -218.481 5.92773 -218.481 5.92773l-41.3154 10.0273c-100.174 24.3145 -165.504 43.0791 -187.049 53.7275c-17.2617 8.53125 -31.6641 8.73926 -37.5225 0.542969c-2.37695 -3.32617 -4.3584 -7.23145 -4.3584 -8.5918
c0 -4.19922 6.25977 -14.1348 15.8896 -25.2197c7.06055 -8.12891 13.0898 -19.6055 18.1328 -34.5371c-20.6533 2.39648 -48.7236 4.05078 -48.7236 4.05078l-41.3154 10.0273c-90.7939 22.0371 -152.963 39.5156 -179.853 50.5244
c11.0674 6.00879 23.002 11.9531 36.5615 18.2803c51.0723 23.8301 73.4678 22.9355 131.02 39.7041c0 0 501.07 15.1748 505.098 16.6611c6.2334 2.30078 9.1377 6.22559 9.00195 10.5703c-0.177734 5.6875 -5.56445 12.0947 -15.5098 16.5225
c-9.42969 4.19824 -515.003 7.70996 -515.003 7.70996l-41.3154 10.0273c-21.9707 5.33301 -42.2656 10.3984 -60.7891 15.1699c1.32715 6.25781 1.29102 10.624 -0.451172 12.3662c-1.96289 1.96289 -6.55469 -1.65332 -12.3369 -9.04492
c-58.7861 15.3965 -97.7646 27.4736 -113.472 35.2363c-17.2617 8.53125 -31.6641 8.73926 -37.5225 0.542969c-2.37695 -3.32617 -4.3584 -7.23145 -4.3584 -8.5918c0 -4.19922 6.25977 -14.1348 15.8896 -25.2197c10.9482 -12.6045 19.418 -33.2578 25.5732 -62.3584
c4.27441 -20.209 8.36914 -22.3535 3.64355 -68.3604c-0.285156 -2.77344 -0.878906 -9.62402 -1.51953 -17.7295c-60.0957 -61.6689 -87.083 -80.082 -210.521 -145.328c-47.8047 -25.2676 -73.8838 -57.3984 -9.46289 -83.7461
c30.2852 -12.3867 140.34 -110.771 163.344 -129.905c44 -36.5967 50.6055 -113.348 119.631 -197.753c9.90625 -12.1133 27.5566 -6.38281 23.625 8.60352c-0.606445 2.31152 -1.3125 4.67773 -2.11133 7.10059c0.905273 0.660156 1.82422 1.33789 2.74902 2.02832
c30.166 22.5166 55.7471 37.5723 94.7979 55.7939c51.0723 23.8301 73.4678 22.9355 131.02 39.7041c0 0 24.1328 6.65039 41.6152 11.5771c3.43164 -13.7998 5.80273 -21.1748 1.7793 -60.3457c-0.911133 -8.86816 -4.97656 -59.4033 -3.64941 -59.4033
c1.32227 0 10.0449 5.70312 19.3838 12.6738c30.166 22.5166 55.7471 37.5723 94.7979 55.7939c51.0723 23.8301 73.4678 22.9355 131.02 39.7041c0 0 183.971 12.6279 219.318 15.9727c0.0078125 -1.53906 0.0888672 -2.41406 0.263672 -2.41406
c0.708984 0 3.67969 1.48145 7.65527 4.01855c1.44336 0.712891 2.6543 1.53125 3.63574 2.43164c2.56445 1.79102 5.3418 3.89258 8.09277 6.22363c125.062 105.962 259.126 176.933 424.915 222.159c6.41016 1.74902 9.1377 6.22559 9.00195 10.5703
c-0.177734 5.6875 -4.68945 17.7246 -15.5098 16.5225c-120.914 -13.4365 -386.881 166.66 -447.367 241.465zM615.019 170.941l-41.3154 10.0273c-56.9238 13.8164 -102.596 25.8408 -135.376 35.6025c18.3643 11.5723 37.5703 21.7637 62.085 33.2021
c51.0723 23.8301 73.4678 22.9355 131.02 39.7041c0 0 24.1328 6.65039 41.6152 11.5771c3.43164 -13.7998 5.80273 -21.1748 1.7793 -60.3457c-0.148438 -1.44043 -0.379883 -3.98145 -0.657227 -7.22656c-0.916016 0.415039 -1.77246 0.820312 -2.56836 1.21387
c-17.2617 8.53125 -31.6641 8.73926 -37.5225 0.542969c-2.37695 -3.32617 -4.3584 -7.23145 -4.3584 -8.5918c0 -4.19922 6.25977 -14.1348 15.8896 -25.2197c7.06055 -8.12891 13.0898 -19.6055 18.1328 -34.5371c-20.6533 2.39648 -48.7236 4.05078 -48.7236 4.05078z
M899.965 170.941l-41.3154 10.0273c-56.9238 13.8164 -102.596 25.8408 -135.376 35.6025c18.3643 11.5723 37.5703 21.7637 62.085 33.2021c51.0723 23.8301 73.4678 22.9355 131.02 39.7041c0 0 209.489 14.3799 224.326 16.5146
c1.42676 -39.8633 1.5918 -87.3965 -1.09473 -113.553c-0.425781 -4.13574 -1.53613 -17.335 -2.4668 -30.2441c-0.698242 0.355469 -1.42383 0.701172 -2.1748 1.03613c-9.42969 4.19824 -235.003 7.70996 -235.003 7.70996zM389.223 233.482
c-0.916016 0.415039 -1.77246 0.820312 -2.56836 1.21387c-17.2617 8.53125 -31.6641 8.73926 -37.5225 0.542969c-2.37695 -3.32617 -4.3584 -7.23145 -4.3584 -8.5918c0 -4.19922 6.25977 -14.1348 15.8896 -25.2197c10.9482 -12.6045 19.418 -33.2578 25.5732 -62.3584
c4.27441 -20.209 8.36914 -22.3535 3.64355 -68.3604c-0.258789 -2.51367 -0.770508 -8.375 -1.34082 -15.4834c-25.7598 51.4912 -71.6904 121.659 -99.582 215.107c-25.8535 86.6152 13.7412 196.137 66.5527 277.319c1.5791 -2.01074 3.30371 -4.09668 5.15332 -6.22461
c10.9482 -12.6045 19.418 -33.2578 25.5732 -62.3584c4.27441 -20.209 8.36914 -22.3535 3.64355 -68.3604c-0.148438 -1.44043 -0.379883 -3.98145 -0.657227 -7.22656c-0.916016 0.415039 -1.77246 0.820312 -2.56836 1.21387
c-17.2617 8.53125 -31.6641 8.73926 -37.5225 0.542969c-2.37695 -3.32617 -4.3584 -7.23145 -4.3584 -8.5918c0 -4.19922 6.25977 -14.1348 15.8896 -25.2197c10.9482 -12.6045 19.418 -33.2578 25.5732 -62.3584c4.27441 -20.209 8.36914 -22.3535 3.64355 -68.3604
c-0.148438 -1.44043 -0.379883 -3.98145 -0.657227 -7.22656zM615.019 340.941l-41.3154 10.0273c-56.9238 13.8164 -102.596 25.8408 -135.376 35.6025c18.3643 11.5723 37.5703 21.7637 62.085 33.2021c51.0723 23.8301 73.4678 22.9355 131.02 39.7041
c0 0 24.1328 6.65039 41.6152 11.5771c3.43164 -13.7998 5.80273 -21.1748 1.7793 -60.3457c-0.148438 -1.44043 -0.379883 -3.98145 -0.657227 -7.22656c-0.916016 0.415039 -1.77246 0.820312 -2.56836 1.21387c-17.2617 8.53125 -31.6641 8.73926 -37.5225 0.542969
c-2.37695 -3.32617 -4.3584 -7.23145 -4.3584 -8.5918c0 -4.19922 6.25977 -14.1348 15.8896 -25.2197c7.06055 -8.12891 13.0898 -19.6055 18.1328 -34.5371c-20.6533 2.39648 -48.7236 4.05078 -48.7236 4.05078zM899.965 340.941l-41.3154 10.0273
c-56.9238 13.8164 -102.596 25.8408 -135.376 35.6025c18.3643 11.5723 37.5703 21.7637 62.085 33.2021c51.0723 23.8301 73.4678 22.9355 131.02 39.7041c0 0 151.545 10.4023 205.977 14.8252c5.7959 -46.498 10.8994 -90.6816 13.6113 -103.503
c1.31055 -6.19629 2.60352 -21.0342 3.63184 -39.959c-1.41211 0.844727 -2.95703 1.64551 -4.62988 2.39062c-9.42969 4.19824 -235.003 7.70996 -235.003 7.70996zM252.578 265.84c0.388672 -0.288086 0.769531 -0.568359 1.14258 -0.839844
c-0.389648 0.219727 -0.770508 0.5 -1.14258 0.839844z" />
</svg>
