<?xml version="1.0" standalone="no"?>
<!DOCTYPE svg PUBLIC "-//W3C//DTD SVG 1.1//EN" "http://www.w3.org/Graphics/SVG/1.1/DTD/svg11.dtd" >
<svg xmlns="http://www.w3.org/2000/svg" xmlns:xlink="http://www.w3.org/1999/xlink" version="1.1" viewBox="0 0 1991 974">
   <path fill="currentColor"
d="M1710.9 404.279c7.42969 -9.08496 30.668 -4.78711 27.7188 6.45312c-2.5459 9.7002 -7.42871 20.6953 -13.748 33.0928c22.8008 36.2002 38.1699 88.3398 31.8623 94.6475c-2.85059 2.85156 -13.1025 -9.99902 -22.9033 -28.709
c-4.57129 -8.72656 -13.6953 -21.8066 -24.9326 -36.165c-18.7285 34.2158 -41.7471 76.6592 -57.2939 128.745c-21.8799 73.3076 18.748 168.492 65.5889 230.323c26.8828 35.4844 46.5342 98.8125 39.541 105.806c-2.85059 2.85156 -13.1025 -9.99902 -22.9033 -28.709
c-9.75781 -18.6289 -40.2637 -57.0977 -67.791 -85.4844c-46.7695 -48.2314 -66.0791 -61.6582 -160.273 -111.447c-8.5498 -4.51855 -16.1729 -9.33105 -22.1699 -14.3066c-61.1904 3.10938 -209.349 5.41602 -209.349 5.41602l-41.3154 10.0273
c-100.174 24.3145 -165.504 43.0791 -187.049 53.7275c-17.2617 8.53125 -31.6641 8.73926 -37.5225 0.542969c-2.37695 -3.32617 -4.3584 -7.23145 -4.3584 -8.5918c0 -4.19922 6.25977 -14.1348 15.8896 -25.2197c10.9482 -12.6045 19.418 -33.2578 25.5732 -62.3584
c4.27441 -20.209 8.36914 -22.3535 3.64355 -68.3604c-0.490234 -4.77637 -1.89648 -21.6377 -2.88184 -36.1816c-0.115234 0.0566406 -0.230469 0.113281 -0.34375 0.168945c-17.2617 8.53125 -31.6641 8.73926 -37.5225 0.542969
c-2.37695 -3.32617 -4.3584 -7.23145 -4.3584 -8.5918c0 -4.19922 6.25977 -14.1348 15.8896 -25.2197c10.9482 -12.6045 19.418 -33.2578 25.5732 -62.3584c4.27441 -20.209 8.36914 -22.3535 3.64355 -68.3604c-0.490234 -4.77637 -1.89648 -21.6377 -2.88184 -36.1816
c-0.115234 0.0566406 -0.230469 0.113281 -0.34375 0.168945c-17.2617 8.53125 -31.6641 8.73926 -37.5225 0.542969c-2.37695 -3.32617 -4.3584 -7.23145 -4.3584 -8.5918c0 -4.19922 6.25977 -14.1348 15.8896 -25.2197
c10.9482 -12.6045 19.418 -33.2578 25.5732 -62.3584c4.27441 -20.209 8.36914 -22.3535 3.64355 -68.3604c-0.911133 -8.86816 -4.97656 -59.4033 -3.64941 -59.4033c1.32227 0 10.0449 5.70312 19.3838 12.6738c30.166 22.5166 55.7471 37.5723 94.7979 55.7939
c51.0723 23.8301 73.4678 22.9355 131.02 39.7041c0 0 118.606 8.1416 183.651 13.082c4.39258 -5.35254 12.2402 -10.5801 24.3574 -15.5361c22.7139 -9.29102 105.255 -83.0791 122.508 -97.4297c33 -27.4473 37.9541 -85.0107 89.7236 -148.314
c7.42969 -9.08496 30.668 -4.78711 27.7188 6.45312c-10.4199 39.707 -59.999 101.099 -87.0156 191.611c-19.7305 66.1074 11.3701 150.005 52.0195 211.19c2.31934 -3.06934 4.74219 -6.15527 7.27734 -9.25488zM771.898 54.2793
c7.42969 -9.08496 30.668 -4.78711 27.7188 6.45312c-10.4199 39.707 -59.999 101.099 -87.0156 191.611c-21.8799 73.3076 18.748 168.492 65.5889 230.323c26.8828 35.4844 46.5342 98.8125 39.541 105.806c-2.85059 2.85156 -13.1025 -9.99902 -22.9033 -28.709
c-9.75781 -18.6289 -40.2637 -57.0977 -67.791 -85.4844c-46.7695 -48.2314 -66.0791 -61.6582 -160.273 -111.447c-8.5498 -4.51855 -16.1729 -9.33105 -22.1699 -14.3066c-61.1904 3.10938 -209.349 5.41602 -209.349 5.41602l-41.3154 10.0273
c-100.174 24.3145 -165.504 43.0791 -187.049 53.7275c-17.2617 8.53125 -31.6641 8.73926 -37.5225 0.542969c-2.37695 -3.32617 -4.3584 -7.23145 -4.3584 -8.5918c0 -4.19922 6.25977 -14.1348 15.8896 -25.2197c10.9482 -12.6045 19.418 -33.2578 25.5732 -62.3584
c4.27441 -20.209 8.36914 -22.3535 3.64355 -68.3604c-0.911133 -8.86816 -4.97656 -59.4033 -3.64941 -59.4033c1.32227 0 10.0449 5.70312 19.3838 12.6738c30.166 22.5166 55.7471 37.5723 94.7979 55.7939c51.0723 23.8301 73.4678 22.9355 131.02 39.7041
c0 0 118.606 8.1416 183.651 13.082c4.39258 -5.35254 12.2402 -10.5801 24.3574 -15.5361c22.7139 -9.29102 105.255 -83.0791 122.508 -97.4297c33 -27.4473 37.9541 -85.0107 89.7236 -148.314zM1820.77 634.139l-10.0273 -41.3154
c-24.3145 -100.174 -43.0791 -165.504 -53.7275 -187.049c-8.53125 -17.2617 -8.73926 -31.6641 -0.542969 -37.5225c3.32617 -2.37695 7.23145 -4.3584 8.5918 -4.3584c4.19922 0 14.1348 6.25977 25.2197 15.8896c8.02539 6.97168 19.3154 12.9375 33.9707 17.9414
c-2.08691 -19.873 -3.48438 -43.5859 -3.48438 -43.5859l-10.0273 -41.3154c-24.3145 -100.174 -43.0791 -165.504 -53.7275 -187.049c-8.53125 -17.2617 -8.73926 -31.6641 -0.542969 -37.5225c3.32617 -2.37695 7.23145 -4.3584 8.5918 -4.3584
c4.19922 0 14.1348 6.25977 25.2197 15.8896c12.6045 10.9482 33.2578 19.418 62.3584 25.5732c20.209 4.27441 22.3535 8.36914 68.3604 3.64355c8.86816 -0.911133 59.4033 -4.97656 59.4033 -3.64941c0 1.32227 -5.70312 10.0449 -12.6738 19.3838
c-22.5166 30.166 -37.5723 55.7471 -55.7939 94.7979c-23.8301 51.0723 -22.9355 73.4678 -39.7041 131.02c0 0 -5.55859 20.1738 -10.2773 36.9941c13.002 3.25195 21.1221 5.34961 59.0459 1.4541c8.86816 -0.911133 59.4033 -4.97656 59.4033 -3.64941
c0 1.32227 -5.70312 10.0449 -12.6738 19.3838c-22.5166 30.166 -37.5723 55.7471 -55.7939 94.7979c-23.8301 51.0723 -22.9355 73.4678 -39.7041 131.02c0 0 -15.1748 221.07 -16.6611 225.098c-2.30078 6.2334 -6.22559 9.1377 -10.5703 9.00195
c-5.6875 -0.177734 -12.0947 -5.56445 -16.5225 -15.5098c-4.19824 -9.42969 -7.70996 -235.003 -7.70996 -235.003zM1290.66 652.478c0 0 118.606 8.1416 183.651 13.082c4.39258 -5.35254 12.2402 -10.5801 24.3574 -15.5361
c22.7139 -9.29102 105.255 -83.0791 122.508 -97.4297c26.0361 -21.6553 34.6143 -62.0576 62.501 -109.235c-5.86328 -6.62207 -11.8174 -13.0762 -17.6387 -19.0791c-46.7695 -48.2314 -66.0791 -61.6582 -160.273 -111.447
c-8.5498 -4.51855 -16.1729 -9.33105 -22.1699 -14.3066c-61.1904 3.10938 -209.349 5.41602 -209.349 5.41602l-41.3154 10.0273c-77.0781 18.709 -133.527 34.1318 -165.274 45.0996c28.9629 21.3711 54.1523 36.0527 91.9834 53.7051
c51.0723 23.8301 73.4678 22.9355 131.02 39.7041c0 0 221.07 15.1748 225.098 16.6611c6.2334 2.30078 9.1377 6.22559 9.00195 10.5703c-0.177734 5.6875 -5.56445 12.0947 -15.5098 16.5225c-9.42969 4.19824 -235.003 7.70996 -235.003 7.70996l-41.3154 10.0273
c-77.0781 18.709 -133.527 34.1318 -165.274 45.0996c28.9629 21.3711 54.1523 36.0527 91.9834 53.7051c51.0723 23.8301 73.4678 22.9355 131.02 39.7041zM1611.91 612.171c1.14648 -1.28809 2.23828 -2.56543 3.26855 -3.82715
c-1.20215 0.676758 -2.29492 1.9834 -3.26855 3.82715zM1611.91 212.171c1.14648 -1.28809 2.23828 -2.56543 3.26855 -3.82715c-1.20215 0.676758 -2.29492 1.9834 -3.26855 3.82715zM335.245 813.941l-41.3154 10.0273
c-100.174 24.3145 -165.504 43.0791 -187.049 53.7275c-17.2617 8.53125 -31.6641 8.73926 -37.5225 0.542969c-2.37695 -3.32617 -4.3584 -7.23145 -4.3584 -8.5918c0 -4.19922 6.25977 -14.1348 15.8896 -25.2197c10.9482 -12.6045 19.418 -33.2578 25.5732 -62.3584
c4.27441 -20.209 8.36914 -22.3535 3.64355 -68.3604c-0.911133 -8.86816 -4.97656 -59.4033 -3.64941 -59.4033c1.32227 0 10.0449 5.70312 19.3838 12.6738c30.166 22.5166 55.7471 37.5723 94.7979 55.7939c51.0723 23.8301 73.4678 22.9355 131.02 39.7041
c0 0 103.459 7.10156 170.114 12.0645c-1.10156 -15.1387 -1.9873 -30.2363 -1.26172 -30.2363c1.32227 0 10.0449 5.70312 19.3838 12.6738c10.6123 7.9209 20.6562 14.9189 30.9199 21.4561c3.49805 0.329102 5.58203 0.570312 5.94141 0.703125
c5.11035 1.88574 7.98242 4.86328 8.77734 8.26855c14.6016 8.51465 30.3115 16.5713 49.1592 25.3662c51.0723 23.8301 73.4678 22.9355 131.02 39.7041c0 0 45.9541 0.892578 115.628 2.2666c-3.67676 -83.7021 -6.57227 -500.605 -6.57227 -500.605l-10.0273 -41.3154
c-24.3145 -100.174 -43.0791 -165.504 -53.7275 -187.049c-8.53125 -17.2617 -8.73926 -31.6641 -0.542969 -37.5225c3.32617 -2.37695 7.23145 -4.3584 8.5918 -4.3584c4.19922 0 14.1348 6.25977 25.2197 15.8896c12.6045 10.9482 33.2578 19.418 62.3584 25.5732
c20.209 4.27441 22.3535 8.36914 68.3604 3.64355c8.86816 -0.911133 59.4033 -4.97656 59.4033 -3.64941c0 1.32227 -5.70312 10.0449 -12.6738 19.3838c-22.5166 30.166 -37.5723 55.7471 -55.7939 94.7979c-23.8301 51.0723 -22.9355 73.4678 -39.7041 131.02
c0 0 -11.8232 390.402 -15.6191 484.771c226.044 4.46875 637.278 12.7393 640.197 13.8164c6.2334 2.30078 9.1377 6.22559 9.00195 10.5703c-0.177734 5.6875 -5.56445 12.0947 -15.5098 16.5225c-9.42969 4.19824 -795.003 7.70996 -795.003 7.70996l-41.3154 10.0273
c-100.174 24.3145 -165.504 43.0791 -187.049 53.7275c-17.2617 8.53125 -31.6641 8.73926 -37.5225 0.542969c-2.37695 -3.32617 -4.3584 -7.23145 -4.3584 -8.5918c0 -4.19922 6.25977 -14.1348 15.8896 -25.2197c10.9482 -12.6045 19.418 -33.2578 25.5732 -62.3584
c4.09082 -19.3408 8.0166 -22.1357 4.2041 -62.6699c-68.4609 2.6582 -189.476 4.54199 -189.476 4.54199zM672.906 262.171c1.14648 -1.28809 2.23828 -2.56543 3.26855 -3.82715c-1.20215 0.676758 -2.29492 1.9834 -3.26855 3.82715z" />
</svg>
