<?xml version="1.0" standalone="no"?>
<!DOCTYPE svg PUBLIC "-//W3C//DTD SVG 1.1//EN" "http://www.w3.org/Graphics/SVG/1.1/DTD/svg11.dtd" >
<svg xmlns="http://www.w3.org/2000/svg" xmlns:xlink="http://www.w3.org/1999/xlink" version="1.1" viewBox="0 0 1805 870">
   <path fill="currentColor"
d="M1634.72 270.139l-10.0273 -41.3154c-24.3145 -100.174 -43.0791 -165.504 -53.7275 -187.049c-8.53125 -17.2617 -8.73926 -31.6641 -0.542969 -37.5225c3.32617 -2.37695 7.23145 -4.3584 8.5918 -4.3584c4.19922 0 14.1348 6.25977 25.2197 15.8896
c12.6045 10.9482 33.2578 19.418 62.3584 25.5732c20.209 4.27441 22.3535 8.36914 68.3604 3.64355c8.86816 -0.911133 59.4033 -4.97656 59.4033 -3.64941c0 1.32227 -5.70312 10.0449 -12.6738 19.3838c-22.5166 30.166 -37.5723 55.7471 -55.7939 94.7979
c-23.8301 51.0723 -22.9355 73.4678 -39.7041 131.02c0 0 -15.1748 501.07 -16.6611 505.098c-2.30078 6.2334 -6.22559 9.1377 -10.5703 9.00195c-5.6875 -0.177734 -12.0947 -5.56445 -16.5225 -15.5098c-4.19824 -9.42969 -7.70996 -515.003 -7.70996 -515.003z
M490.245 369.941l-12.9141 3.13379c8.8125 3.12012 18.8896 5.87695 30.2549 8.28125c20.209 4.27441 22.3535 8.36914 68.3604 3.64355c8.86816 -0.911133 59.4033 -4.97656 59.4033 -3.64941c0 1.32227 -5.70312 10.0449 -12.6738 19.3838
c-22.5166 30.166 -37.5723 55.7471 -55.7939 94.7979c-23.8301 51.0723 -22.9355 73.4678 -39.7041 131.02c0 0 -1.61621 23.541 -3.84473 55.3994c55.334 1.09668 118.975 2.36816 183.789 3.67969c-0.884766 -41.8467 -1.4082 -75.4922 -1.4082 -75.4922
l-10.0273 -41.3154c-24.3145 -100.174 -43.0791 -165.504 -53.7275 -187.049c-2.26465 -4.58301 -3.94336 -8.96387 -5.0332 -13.0371c-82.7852 0.760742 -146.681 1.2041 -146.681 1.2041zM506.658 318.478c0 0 501.07 15.1748 505.098 16.6611
c6.2334 2.30078 9.1377 6.22559 9.00195 10.5703c-0.177734 5.6875 -5.56445 12.0947 -15.5098 16.5225c-2.60645 1.16016 -43.1045 2.26758 -100.353 3.26367c0.110352 0.0957031 0.220703 0.191406 0.332031 0.288086c12.6045 10.9482 33.2578 19.418 62.3584 25.5732
c20.209 4.27441 22.3535 8.36914 68.3604 3.64355c8.86816 -0.911133 59.4033 -4.97656 59.4033 -3.64941c0 1.32227 -5.70312 10.0449 -12.6738 19.3838c-22.5166 30.166 -37.5723 55.7471 -55.7939 94.7979c-17.1855 36.832 -21.5117 58.749 -28.8779 89.6943
c0.0136719 0 0.0283203 -0.00292969 0.0429688 -0.00292969c16.6543 -1.1709 37.248 -9.78613 62.1777 -26.0107c17.3125 -11.2676 21.7236 -9.88867 50.9141 -45.7617c4.6377 -5.69922 27.7715 -32.9248 36.2891 -41.7988
c-1.65234 -101.051 -2.71387 -211.514 -2.71387 -211.514l-10.0273 -41.3154c-24.3145 -100.174 -43.0791 -165.504 -53.7275 -187.049c-8.53125 -17.2617 -8.73926 -31.6641 -0.542969 -37.5225c3.32617 -2.37695 7.23145 -4.3584 8.5918 -4.3584
c4.19922 0 14.1348 6.25977 25.2197 15.8896c12.6045 10.9482 33.2578 19.418 62.3584 25.5732c20.209 4.27441 22.3535 8.36914 68.3604 3.64355c8.86816 -0.911133 59.4033 -4.97656 59.4033 -3.64941c0 1.32227 -5.70312 10.0449 -12.6738 19.3838
c-22.5166 30.166 -37.5723 55.7471 -55.7939 94.7979c-23.8301 51.0723 -22.9355 73.4678 -39.7041 131.02c0 0 -9.30273 221.344 -14.0537 319.358c0.251953 0.699219 0.506836 1.40234 0.763672 2.1084c19.2627 52.9639 35.7314 68.167 64.5693 120.72
c0 0 28.2109 49.6709 30.0068 53.5693c2.78125 6.03516 2.05957 10.8643 -1.1084 13.8398c-4.14746 3.89648 -12.4873 4.61816 -22.6504 0.716797c-9.63672 -3.69922 -54.2441 -43.3408 -54.2441 -43.3408l-36.3047 -22.124
c-9.33984 -5.69141 -18.3584 -11.1494 -27.0449 -16.3691c-2.58887 2.64746 -6.23145 5.13867 -10.8633 7.20117c-2.52246 1.12305 -60.5732 2.19629 -144.268 3.16699c-4.38184 61.9609 -9.62109 133.969 -10.4639 136.251
c-2.30078 6.2334 -6.22559 9.1377 -10.5703 9.00195c-5.6875 -0.177734 -12.0947 -5.56445 -16.5225 -15.5098c-2.19922 -4.94043 -4.20996 -69.2012 -5.62695 -129.273c-56.9141 0.583008 -121.884 1.12305 -187.672 1.60547
c-4.18262 58.8711 -8.82031 122.04 -9.6084 124.176c-2.30078 6.2334 -6.22559 9.1377 -10.5703 9.00195c-5.6875 -0.177734 -12.0947 -5.56445 -16.5225 -15.5098c-2.05469 -4.61426 -3.94434 -60.9941 -5.33887 -117.367
c-65.8252 0.458008 -130.928 0.856445 -188.065 1.18262c-4.15527 58.4443 -8.72168 120.574 -9.50293 122.692c-2.30078 6.2334 -6.22559 9.1377 -10.5703 9.00195c-5.6875 -0.177734 -12.0947 -5.56445 -16.5225 -15.5098
c-2.03711 -4.57617 -3.91309 -60.0527 -5.30371 -115.95c-87.4893 0.480469 -147.875 0.75 -147.875 0.75l-41.3154 10.0273c-100.174 24.3145 -165.504 43.0791 -187.049 53.7275c-17.2617 8.53125 -31.6641 8.73926 -37.5225 0.542969
c-2.37695 -3.32617 -4.3584 -7.23145 -4.3584 -8.5918c0 -4.19922 6.25977 -14.1348 15.8896 -25.2197c10.9482 -12.6045 19.418 -33.2578 25.5732 -62.3584c4.27441 -20.209 8.36914 -22.3535 3.64355 -68.3604c-0.911133 -8.86816 -4.97656 -59.4033 -3.64941 -59.4033
c1.32227 0 10.0449 5.70312 19.3838 12.6738c7.45605 5.56543 14.6318 10.6748 21.7998 15.4893c2.7041 -4.87598 7.34277 -11.2422 13.249 -18.041c10.9482 -12.6045 19.418 -33.2578 25.5732 -62.3584c4.27441 -20.209 8.36914 -22.3535 3.64355 -68.3604
c-0.911133 -8.86816 -4.97656 -59.4033 -3.64941 -59.4033c1.32227 0 10.0449 5.70312 19.3838 12.6738c7.45605 5.56543 14.6318 10.6748 21.7998 15.4893c2.7041 -4.87598 7.34277 -11.2422 13.249 -18.041c10.9482 -12.6045 19.418 -33.2578 25.5732 -62.3584
c4.27441 -20.209 8.36914 -22.3535 3.64355 -68.3604c-0.911133 -8.86816 -4.97656 -59.4033 -3.64941 -59.4033c1.32227 0 10.0449 5.70312 19.3838 12.6738c6.63184 4.9502 13.043 9.54004 19.4229 13.8818c-0.169922 -0.50293 -0.263672 -0.918945 -0.263672 -1.21387
c0 -4.19922 6.25977 -14.1348 15.8896 -25.2197c10.9482 -12.6045 19.418 -33.2578 25.5732 -62.3584c4.27441 -20.209 8.36914 -22.3535 3.64355 -68.3604c-0.911133 -8.86816 -4.97656 -59.4033 -3.64941 -59.4033c1.32227 0 10.0449 5.70312 19.3838 12.6738
c30.166 22.5166 55.7471 37.5723 94.7979 55.7939c51.0723 23.8301 73.4678 22.9355 131.02 39.7041c0 0 361.07 15.1748 365.098 16.6611c6.2334 2.30078 9.1377 6.22559 9.00195 10.5703c-0.177734 5.6875 -5.56445 12.0947 -15.5098 16.5225
c-9.42969 4.19824 -375.003 7.70996 -375.003 7.70996l-41.3154 10.0273c-100.174 24.3145 -165.504 43.0791 -187.049 53.7275c-7.71094 3.81152 -14.8516 5.96094 -20.915 6.44336c16.1758 9.74805 33.4316 18.7227 54.6729 28.6338
c51.0723 23.8301 73.4678 22.9355 131.02 39.7041zM253.341 437.329c12.6748 7.10254 26.3652 14.0098 42.2979 21.4443c51.0723 23.8301 73.4678 22.9355 131.02 39.7041c0 0 10.7148 2.95215 23.0381 6.38086c-14.7217 -56.9268 -26.5898 -96.7061 -34.791 -116.51
c-80.9717 20.2539 -134.024 35.957 -153.024 45.3477c-2.93848 1.45215 -5.79492 2.66406 -8.54004 3.63281zM410.245 549.941l-41.3154 10.0273c-100.174 24.3145 -165.504 43.0791 -187.049 53.7275c-2.93848 1.45215 -5.79492 2.66406 -8.54004 3.63281
c12.6748 7.10254 26.3652 14.0098 42.2979 21.4443c51.0723 23.8301 73.4678 22.9355 131.02 39.7041c0 0 52.5088 1.02051 130.368 2.55762c-0.826172 -39.6865 -1.3125 -70.8965 -1.3125 -70.8965l-10.0273 -41.3154
c-1.91895 -7.9043 -3.80273 -15.5918 -5.65039 -23.0576c-20.7393 2.46289 -49.791 4.17578 -49.791 4.17578zM1429.46 753.523l-36.3047 -22.124c-88.0264 -53.6406 -147.49 -86.5674 -170.255 -94.2725c-18.2383 -6.17383 -28.5693 -16.2109 -26.916 -26.1484
c0.670898 -4.0332 2.03125 -8.19531 2.99316 -9.15723c2.96973 -2.96973 14.4209 -5.56836 29.0684 -6.59766c16.6543 -1.1709 37.248 -9.78613 62.1777 -26.0107c17.3125 -11.2676 21.7236 -9.88867 50.9141 -45.7617c4.6377 -5.69922 27.7715 -32.9248 36.2891 -41.7988
c-1.65234 -101.051 -2.71387 -211.514 -2.71387 -211.514l-10.0273 -41.3154c-24.3145 -100.174 -43.0791 -165.504 -53.7275 -187.049c-8.53125 -17.2617 -8.73926 -31.6641 -0.542969 -37.5225c3.32617 -2.37695 7.23145 -4.3584 8.5918 -4.3584
c4.19922 0 14.1348 6.25977 25.2197 15.8896c12.6045 10.9482 33.2578 19.418 62.3584 25.5732c20.209 4.27441 22.3535 8.36914 68.3604 3.64355c8.86816 -0.911133 59.4033 -4.97656 59.4033 -3.64941c0 1.32227 -5.70312 10.0449 -12.6738 19.3838
c-22.5166 30.166 -37.5723 55.7471 -55.7939 94.7979c-23.8301 51.0723 -22.9355 73.4678 -39.7041 131.02c0 0 -9.30273 221.344 -14.0537 319.358c0.251953 0.699219 0.506836 1.40234 0.763672 2.1084c19.2627 52.9639 35.7314 68.167 64.5693 120.72
c0 0 28.2109 49.6709 30.0068 53.5693c2.78125 6.03516 2.05957 10.8643 -1.1084 13.8398c-4.14746 3.89648 -12.4873 4.61816 -22.6504 0.716797c-9.63672 -3.69922 -54.2441 -43.3408 -54.2441 -43.3408zM1100.88 694.1
c-53.9824 -31.6504 -91.0811 -51.2549 -107.974 -56.9727c-1.85352 -0.626953 -3.625 -1.29492 -5.31055 -1.99805c-0.136719 0.472656 -0.274414 0.946289 -0.413086 1.42285c0 0 -1.59668 23.2607 -3.80469 54.8301c50.0381 1.08887 91.2988 2.03418 117.502 2.71777z
M695.176 368.177c11.3105 5.2041 25.4209 9.58594 42.4102 13.1797c20.209 4.27441 22.3535 8.36914 68.3604 3.64355c8.86816 -0.911133 59.4033 -4.97656 59.4033 -3.64941c0 1.32227 -5.70312 10.0449 -12.6738 19.3838
c-22.5166 30.166 -37.5723 55.7471 -55.7939 94.7979c-23.8301 51.0723 -22.9355 73.4678 -39.7041 131.02c0 0 -1.77344 25.8389 -4.16797 60.0107c64.1094 1.30566 127.727 2.62207 184.003 3.82129c-0.818359 -39.377 -1.29883 -70.2451 -1.29883 -70.2451
l-10.0273 -41.3154c-24.3145 -100.174 -43.0791 -165.504 -53.7275 -187.049c-4.85547 -9.8252 -7.01562 -18.7236 -6.46289 -25.6475c-52.4482 0.779297 -113.188 1.47363 -170.32 2.0498z" />
</svg>
