<?xml version="1.0" standalone="no"?>
<!DOCTYPE svg PUBLIC "-//W3C//DTD SVG 1.1//EN" "http://www.w3.org/Graphics/SVG/1.1/DTD/svg11.dtd" >
<svg xmlns="http://www.w3.org/2000/svg" xmlns:xlink="http://www.w3.org/1999/xlink" version="1.1" viewBox="0 0 1311 800">
   <path fill="currentColor"
d="M330.245 159.941l-41.3154 10.0273c-100.174 24.3145 -165.504 43.0791 -187.049 53.7275c-17.2617 8.53125 -31.6641 8.73926 -37.5225 0.542969c-2.37695 -3.32617 -4.3584 -7.23145 -4.3584 -8.5918c0 -4.19922 6.25977 -14.1348 15.8896 -25.2197
c10.9482 -12.6045 19.418 -33.2578 25.5732 -62.3584c4.27441 -20.209 8.36914 -22.3535 3.64355 -68.3604c-0.911133 -8.86816 -4.97656 -59.4033 -3.64941 -59.4033c1.32227 0 10.0449 5.70312 19.3838 12.6738c30.166 22.5166 55.7471 37.5723 94.7979 55.7939
c51.0723 23.8301 73.4678 22.9355 131.02 39.7041c0 0 617.403 11.9951 757.202 15.7002c-11.4551 -41.5674 -20.5996 -69.6533 -26.9014 -82.4033c-8.53125 -17.2617 -8.73926 -31.6641 -0.542969 -37.5225c3.32617 -2.37695 7.23145 -4.3584 8.5918 -4.3584
c4.19922 0 14.1348 6.25977 25.2197 15.8896c12.6045 10.9482 33.2578 19.418 62.3584 25.5732c20.209 4.27441 22.3535 8.36914 68.3604 3.64355c8.86816 -0.911133 59.4033 -4.97656 59.4033 -3.64941c0 1.32227 -5.70312 10.0449 -12.6738 19.3838
c-22.5166 30.166 -37.5723 55.7471 -55.7939 94.7979c-23.8301 51.0723 -22.9355 73.4678 -39.7041 131.02c0 0 -15.1748 501.07 -16.6611 505.098c-2.30078 6.2334 -6.22559 9.1377 -10.5703 9.00195c-5.6875 -0.177734 -12.0947 -5.56445 -16.5225 -15.5098
c-2.61719 -5.87793 -4.96777 -204.562 -6.36621 -353.384c-28.417 0.960938 -80.2275 1.79883 -124.491 2.3916c-2.74805 88.4121 -6.54395 207.434 -7.10352 208.95c-1.38086 3.74023 -3.73535 5.48242 -6.34277 5.40137
c-3.41211 -0.106445 -7.25684 -3.33887 -9.91309 -9.30566c-1.52832 -3.43164 -2.9043 -116.354 -3.75098 -204.699c-30.1992 0.368164 -52.1562 0.579102 -52.1562 0.579102l-24.7891 6.01562c-60.1045 14.5889 -99.3027 25.8477 -112.229 32.2373
c-10.3574 5.11816 -18.999 5.24316 -22.5137 0.325195c-1.42578 -1.99512 -2.61523 -4.33887 -2.61523 -5.15527c0 -2.51953 3.75586 -8.48047 9.53418 -15.1318c4.18262 -4.81543 7.76172 -11.5889 10.7646 -20.3818c-11.9238 1.25195 -26.1514 2.09082 -26.1514 2.09082
l-24.7891 6.01562c-60.1045 14.5889 -99.3027 25.8477 -112.229 32.2373c-10.3574 5.11816 -18.999 5.24316 -22.5137 0.325195c-1.42578 -1.99512 -2.61523 -4.33887 -2.61523 -5.15527c0 -2.51953 3.75586 -8.48047 9.53418 -15.1318
c6.56836 -7.5625 11.6504 -19.9541 15.3438 -37.415c2.56445 -12.125 5.02148 -13.4121 2.18652 -41.0156c-0.546875 -5.32129 -2.98633 -35.6426 -2.19043 -35.6426c0.793945 0 6.02734 3.42188 11.6309 7.60449c18.0996 13.5098 33.4482 22.5439 56.8789 33.4766
c30.6426 14.2979 44.0801 13.7617 78.6113 23.8223c0 0 12.1045 3.33594 22.1963 6.16699c1.95117 -7.80176 3.20996 -12.6738 0.873047 -35.4277c-0.546875 -5.32129 -2.98633 -35.6426 -2.19043 -35.6426c0.793945 0 6.02734 3.42188 11.6309 7.60449
c18.0996 13.5098 33.4482 22.5439 56.8789 33.4766c30.6426 14.2979 44.0801 13.7617 78.6113 23.8223c0 0 17.2393 0.724609 42.0459 1.78516c-0.388672 -43.6006 -0.612305 -75.7881 -0.612305 -75.7881l-6.0166 -24.7891
c-14.5889 -60.1045 -25.8477 -99.3027 -32.2363 -112.229c-5.11914 -10.3574 -5.24414 -18.999 -0.326172 -22.5137c1.99609 -1.42578 4.33887 -2.61523 5.15527 -2.61523c2.51953 0 8.48047 3.75586 15.1318 9.53418c7.5625 6.56836 19.9551 11.6504 37.415 15.3438
c12.125 2.56445 13.4121 5.02148 41.0166 2.18652c5.32031 -0.546875 35.6416 -2.98633 35.6416 -2.19043c0 0.793945 -3.42188 6.02734 -7.60449 11.6309c-13.5098 18.0996 -22.543 33.4482 -33.4766 56.8789c-14.2979 30.6426 -13.7607 44.0801 -23.8223 78.6113
c0 0 -0.850586 28.083 -2.05664 67.1514c42.2441 1.82227 93.4727 4.07422 123.479 5.54004c-0.737305 -80.792 -1.16699 -142.594 -1.16699 -142.594l-10.0273 -41.3154c-6.80176 -28.0234 -13.1699 -53.3193 -19.0469 -75.6934
c-105.229 3.78906 -781.395 6.81152 -781.395 6.81152zM346.658 658.478c0 0 44.0371 0.855469 111.253 2.18066c-1.35449 -56.3555 -2.19727 -110.52 -2.19727 -110.52l-10.0273 -41.3154c-12.3232 -50.7695 -23.2197 -92.5889 -32.3574 -124.294
c-8.91699 15.125 -17.2812 31.3594 -26.4473 51.0029c-23.8301 51.0723 -22.9355 73.4678 -39.7041 131.02c0 0 -2.90527 42.3213 -6.29785 90.2676c1.88672 0.533203 3.8125 1.08496 5.77832 1.6582zM459.22 709.295
c-60.6836 0.326172 -105.685 0.539062 -122.141 0.615234c-3.15039 43.3594 -5.96484 80.1191 -6.5625 81.7393c-2.30078 6.2334 -6.22559 9.1377 -10.5703 9.00195c-5.6875 -0.177734 -12.0947 -5.56445 -16.5225 -15.5098
c-1.43457 -3.22168 -2.78809 -31.6699 -3.9502 -67.7324l-10.5439 2.55957c-100.174 24.3145 -165.504 43.0791 -187.049 53.7275c-17.2617 8.53125 -31.6641 8.73926 -37.5225 0.542969c-2.37695 -3.32617 -4.3584 -7.23145 -4.3584 -8.5918
c0 -4.19922 6.25977 -14.1348 15.8896 -25.2197c10.9482 -12.6045 19.418 -33.2578 25.5732 -62.3584c4.27441 -20.209 8.36914 -22.3535 3.64355 -68.3604c-0.911133 -8.86816 -4.97656 -59.4033 -3.64941 -59.4033c1.32227 0 10.0449 5.70312 19.3838 12.6738
c30.166 22.5166 55.7471 37.5723 94.7979 55.7939c33.6768 15.7139 54.8848 20.6768 81.9258 27.042c-1.14941 -50.6562 -1.85059 -95.6768 -1.85059 -95.6768l-10.0273 -41.3154c-24.3145 -100.174 -43.0791 -165.504 -53.7275 -187.049
c-8.53125 -17.2617 -8.73926 -31.6641 -0.542969 -37.5225c3.32617 -2.37695 7.23145 -4.3584 8.5918 -4.3584c4.19922 0 14.1348 6.25977 25.2197 15.8896c12.6045 10.9482 33.2578 19.418 62.3584 25.5732c19.8564 4.2002 22.2734 8.22559 65.9893 3.88281
c-0.557617 -1.25781 -1.09668 -2.41406 -1.61621 -3.46484c-8.53125 -17.2617 -8.73926 -31.6641 -0.542969 -37.5225c3.32617 -2.37695 7.23145 -4.3584 8.5918 -4.3584c4.19922 0 14.1348 6.25977 25.2197 15.8896c12.6045 10.9482 33.2578 19.418 62.3584 25.5732
c20.209 4.27441 22.3535 8.36914 68.3604 3.64355c8.86816 -0.911133 59.4033 -4.97656 59.4033 -3.64941c0 1.32227 -5.70312 10.0449 -12.6738 19.3838c-22.5166 30.166 -37.5723 55.7471 -55.7939 94.7979c-23.8301 51.0723 -22.9355 73.4678 -39.7041 131.02
c0 0 -3.09668 45.1104 -6.62891 94.9482c227.773 4.50684 628.326 12.5752 631.207 13.6387c6.2334 2.30078 9.1377 6.22559 9.00195 10.5703c-0.177734 5.6875 -5.56445 12.0947 -15.5098 16.5225c-6.62988 2.95215 -396.921 5.56445 -628.109 6.85547
c-3.17383 43.7158 -6.02051 80.9316 -6.62207 82.5625c-2.30078 6.2334 -6.22559 9.1377 -10.5703 9.00195c-5.6875 -0.177734 -12.0947 -5.56445 -16.5225 -15.5098c-1.54004 -3.45996 -2.98828 -36.0137 -4.2041 -75.8467z" />
</svg>
