<?xml version="1.0" standalone="no"?>
<!DOCTYPE svg PUBLIC "-//W3C//DTD SVG 1.1//EN" "http://www.w3.org/Graphics/SVG/1.1/DTD/svg11.dtd" >
<svg xmlns="http://www.w3.org/2000/svg" xmlns:xlink="http://www.w3.org/1999/xlink" version="1.1" viewBox="0 0 1561 800">
   <path fill="currentColor"
d="M346.658 658.478c0 0 42.9033 0.631836 111.24 1.64941c-1.34668 -56.1641 -2.18457 -109.988 -2.18457 -109.988l-10.0273 -41.3154c-12.3232 -50.7695 -23.2197 -92.5889 -32.3574 -124.294c-8.91699 15.125 -17.2812 31.3594 -26.4473 51.0029
c-23.8301 51.0723 -22.9355 73.4678 -39.7041 131.02c0 0 -2.90527 42.3213 -6.29785 90.2676c1.88672 0.533203 3.8125 1.08496 5.77832 1.6582zM330.245 159.941l-41.3154 10.0273c-100.174 24.3145 -165.504 43.0791 -187.049 53.7275
c-17.2617 8.53125 -31.6641 8.73926 -37.5225 0.542969c-2.37695 -3.32617 -4.3584 -7.23145 -4.3584 -8.5918c0 -4.19922 6.25977 -14.1348 15.8896 -25.2197c10.9482 -12.6045 19.418 -33.2578 25.5732 -62.3584c4.27441 -20.209 8.36914 -22.3535 3.64355 -68.3604
c-0.911133 -8.86816 -4.97656 -59.4033 -3.64941 -59.4033c1.32227 0 10.0449 5.70312 19.3838 12.6738c30.166 22.5166 55.7471 37.5723 94.7979 55.7939c51.0723 23.8301 73.4678 22.9355 131.02 39.7041c0 0 842.226 12.3955 1007.25 15.8779
c-11.4775 -41.665 -20.6396 -69.8125 -26.9502 -82.5811c-8.53125 -17.2617 -8.73926 -31.6641 -0.542969 -37.5225c3.32617 -2.37695 7.23145 -4.3584 8.5918 -4.3584c4.19922 0 14.1348 6.25977 25.2197 15.8896c12.6045 10.9482 33.2578 19.418 62.3584 25.5732
c20.209 4.27441 22.3535 8.36914 68.3604 3.64355c8.86816 -0.911133 59.4033 -4.97656 59.4033 -3.64941c0 1.32227 -5.70312 10.0449 -12.6738 19.3838c-22.5166 30.166 -37.5723 55.7471 -55.7939 94.7979c-23.8301 51.0723 -22.9355 73.4678 -39.7041 131.02
c0 0 -15.1748 501.07 -16.6611 505.098c-2.30078 6.2334 -6.22559 9.1377 -10.5703 9.00195c-5.6875 -0.177734 -12.0947 -5.56445 -16.5225 -15.5098c-4.19824 -9.42969 -7.70996 -515.003 -7.70996 -515.003l-10.0273 -41.3154
c-6.8125 -28.0684 -13.1904 -53.4014 -19.0752 -75.8027c-122.914 3.83984 -1031.37 6.9209 -1031.37 6.9209zM702.175 598.075l-24.79 6.01562c-60.1035 14.5889 -99.3018 25.8477 -112.229 32.2373c-10.3574 5.11816 -18.999 5.24316 -22.5137 0.325195
c-1.42676 -1.99512 -2.61523 -4.33887 -2.61523 -5.15527c0 -2.51953 3.75586 -8.48047 9.53418 -15.1318c6.56836 -7.5625 11.6504 -19.9541 15.3438 -37.415c2.56445 -12.125 5.02148 -13.4121 2.18555 -41.0156c-0.545898 -5.32129 -2.98535 -35.6426 -2.18945 -35.6426
c0.793945 0 6.02734 3.42188 11.6309 7.60449c18.0996 13.5098 33.4482 22.5439 56.8779 33.4766c30.6436 14.2979 44.0811 13.7617 78.6123 23.8223c0 0 92.6387 6.35938 124.488 8.96973l-5.03906 -20.7617c-10.9365 -45.0557 -20.001 -78.3633 -26.5459 -97.6631
c-41.8057 1.38477 -102.751 2.33398 -102.751 2.33398l-24.79 6.01562c-60.1035 14.5889 -99.3018 25.8477 -112.229 32.2373c-10.3574 5.11816 -18.999 5.24316 -22.5137 0.325195c-1.42676 -1.99512 -2.61523 -4.33887 -2.61523 -5.15527
c0 -2.51953 3.75586 -8.48047 9.53418 -15.1318c6.56836 -7.5625 11.6504 -19.9541 15.3438 -37.415c2.56445 -12.125 5.02148 -13.4121 2.18555 -41.0156c-0.0810547 -0.791016 -0.204102 -2.13281 -0.351562 -3.84668c-6.5498 11.876 -12.9775 24.6992 -19.8574 39.4434
c-23.8301 51.0723 -22.9355 73.4678 -39.7041 131.02c0 0 -3.06641 44.668 -6.57715 94.2119c91.7295 1.37109 214.255 3.21484 338.706 5.12695c-0.724609 -26.0537 -1.28418 -54.9873 -1.58105 -71.6895c-26.2783 2.17285 -135.551 3.87402 -135.551 3.87402z
M712.022 429.196c0 0 45.8525 3.14746 84.1309 5.92285c-1.72754 -6.65137 -0.814453 -11.9062 2.75586 -14.458c1.99609 -1.42578 4.33887 -2.61523 5.15527 -2.61523c2.51953 0 8.48047 3.75586 15.1318 9.53418c4.81543 4.18262 11.5889 7.76172 20.3818 10.7646
c-1.25098 -11.9238 -2.08984 -26.1514 -2.08984 -26.1514l-6.0166 -24.7891c-14.5889 -60.1045 -25.8477 -99.3027 -32.2363 -112.229c-5.11914 -10.3574 -5.24414 -18.999 -0.326172 -22.5137c1.99609 -1.42578 4.33887 -2.61523 5.15527 -2.61523
c2.51953 0 8.48047 3.75586 15.1318 9.53418c7.5625 6.56836 19.9541 11.6504 37.415 15.3438c12.125 2.56445 13.4121 5.02148 41.0156 2.18652c5.32129 -0.546875 35.6426 -2.98633 35.6426 -2.19043c0 0.793945 -3.42188 6.02734 -7.60449 11.6309
c-13.5098 18.0996 -22.543 33.4482 -33.4766 56.8789c-14.2979 30.6426 -13.7607 44.0801 -23.8223 78.6113c0 0 -3.33496 12.1045 -6.16602 22.1963c7.80078 1.95117 12.6729 3.20996 35.4268 0.873047c5.32129 -0.546875 35.6426 -2.98633 35.6426 -2.19043
c0 0.793945 -3.42188 6.02734 -7.60449 11.6309c-13.5098 18.0996 -22.543 33.4482 -33.4766 56.8789c-14.2979 30.6426 -13.7607 44.0801 -23.8223 78.6113c0 0 -2.73242 39.8145 -5.35059 76.2148c38.3896 0.591797 76.7881 1.18652 114.351 1.77441
c-1.13281 -39.9863 -1.87793 -87.8369 -1.87793 -87.8369l-6.0166 -24.7891c-14.5889 -60.1045 -25.8477 -99.3027 -32.2363 -112.229c-5.11914 -10.3574 -5.24414 -18.999 -0.326172 -22.5137c1.99609 -1.42578 4.33887 -2.61523 5.15527 -2.61523
c2.51953 0 8.48047 3.75586 15.1318 9.53418c4.81543 4.18262 11.5889 7.76172 20.3818 10.7646c-1.25098 -11.9238 -2.08984 -26.1514 -2.08984 -26.1514l-6.0166 -24.7891c-14.5889 -60.1045 -25.8477 -99.3027 -32.2363 -112.229
c-5.11914 -10.3574 -5.24414 -18.999 -0.326172 -22.5137c1.99609 -1.42578 4.33887 -2.61523 5.15527 -2.61523c2.51953 0 8.48047 3.75586 15.1318 9.53418c7.5625 6.56836 19.9541 11.6504 37.415 15.3438c12.125 2.56445 13.4121 5.02148 41.0156 2.18652
c5.32129 -0.546875 35.6426 -2.98633 35.6426 -2.19043c0 0.793945 -3.42188 6.02734 -7.60449 11.6309c-13.5098 18.0996 -22.543 33.4482 -33.4766 56.8789c-14.2979 30.6426 -13.7607 44.0801 -23.8223 78.6113c0 0 -3.33496 12.1045 -6.16602 22.1963
c7.80078 1.95117 12.6729 3.20996 35.4268 0.873047c5.32129 -0.546875 35.6426 -2.98633 35.6426 -2.19043c0 0.793945 -3.42188 6.02734 -7.60449 11.6309c-13.5098 18.0996 -22.543 33.4482 -33.4766 56.8789c-14.2979 30.6426 -13.7607 44.0801 -23.8223 78.6113
c0 0 -2.8418 41.3965 -5.50488 78.3584c39.6865 0.623047 78.2188 1.23535 114.567 1.82031c-1.16797 -40.4062 -1.94043 -90.0264 -1.94043 -90.0264l-6.0166 -24.7891c-14.5889 -60.1045 -25.8477 -99.3027 -32.2363 -112.229
c-5.11914 -10.3574 -5.24414 -18.999 -0.326172 -22.5137c1.99609 -1.42578 4.33887 -2.61523 5.15527 -2.61523c2.51953 0 8.48047 3.75586 15.1318 9.53418c4.81543 4.18262 11.5889 7.76172 20.3818 10.7646c-1.25098 -11.9238 -2.08984 -26.1514 -2.08984 -26.1514
l-6.0166 -24.7891c-14.5889 -60.1045 -25.8477 -99.3027 -32.2363 -112.229c-5.11914 -10.3574 -5.24414 -18.999 -0.326172 -22.5137c1.99609 -1.42578 4.33887 -2.61523 5.15527 -2.61523c2.51953 0 8.48047 3.75586 15.1318 9.53418
c7.5625 6.56836 19.9541 11.6504 37.415 15.3438c12.125 2.56445 13.4121 5.02148 41.0156 2.18652c5.32129 -0.546875 35.6426 -2.98633 35.6426 -2.19043c0 0.793945 -3.42188 6.02734 -7.60449 11.6309c-13.5098 18.0996 -22.543 33.4482 -33.4766 56.8789
c-14.2979 30.6426 -13.7607 44.0801 -23.8223 78.6113c0 0 -3.33496 12.1045 -6.16602 22.1963c7.80078 1.95117 12.6729 3.20996 35.4268 0.873047c5.32129 -0.546875 35.6426 -2.98633 35.6426 -2.19043c0 0.793945 -3.42188 6.02734 -7.60449 11.6309
c-13.5098 18.0996 -22.543 33.4482 -33.4766 56.8789c-14.2979 30.6426 -13.7607 44.0801 -23.8223 78.6113c0 0 -2.95508 43.0576 -5.66406 80.5557c50.0625 0.8125 95.3018 1.56543 132.803 2.21973c-1.21094 -40.8438 -2.0166 -92.623 -2.0166 -92.623l-6.0166 -24.7891
c-14.5889 -60.1045 -25.8477 -99.3027 -32.2363 -112.229c-5.11914 -10.3574 -5.24414 -18.999 -0.326172 -22.5137c1.99609 -1.42578 4.33887 -2.61523 5.15527 -2.61523c2.51953 0 8.48047 3.75586 15.1318 9.53418c4.81543 4.18262 11.5889 7.76172 20.3818 10.7646
c-1.25098 -11.9238 -2.08984 -26.1514 -2.08984 -26.1514l-6.0166 -24.7891c-14.5889 -60.1045 -25.8477 -99.3027 -32.2363 -112.229c-5.11914 -10.3574 -5.24414 -18.999 -0.326172 -22.5137c1.99609 -1.42578 4.33887 -2.61523 5.15527 -2.61523
c2.51953 0 8.48047 3.75586 15.1318 9.53418c7.5625 6.56836 19.9541 11.6504 37.415 15.3438c12.125 2.56445 13.4121 5.02148 41.0156 2.18652c5.32129 -0.546875 35.6426 -2.98633 35.6426 -2.19043c0 0.793945 -3.42188 6.02734 -7.60449 11.6309
c-13.5098 18.0996 -22.543 33.4482 -33.4766 56.8789c-14.2979 30.6426 -13.7607 44.0801 -23.8223 78.6113c0 0 -3.33496 12.1045 -6.16602 22.1963c7.80078 1.95117 12.6729 3.20996 35.4268 0.873047c5.32129 -0.546875 35.6426 -2.98633 35.6426 -2.19043
c0 0.793945 -3.42188 6.02734 -7.60449 11.6309c-13.5098 18.0996 -22.543 33.4482 -33.4766 56.8789c-14.2979 30.6426 -13.7607 44.0801 -23.8223 78.6113c0 0 -3.0957 45.0996 -5.85352 83.1826c53.6455 0.959961 86.5303 1.65234 87.2432 1.91504
c6.2334 2.30078 9.1377 6.22559 9.00195 10.5703c-0.177734 5.6875 -5.56445 12.0947 -15.5098 16.5225c-1.59668 0.710938 -32.6133 1.40234 -83.041 2.05957c-0.928711 12.0576 -1.62207 20.2256 -1.83789 20.8086c-1.37988 3.74023 -3.73535 5.48242 -6.3418 5.40137
c-3.41211 -0.106445 -7.25684 -3.33887 -9.91309 -9.30566c-0.500977 -1.125 -0.985352 -7.37207 -1.44043 -16.6621c-37.9766 0.448242 -84.5996 0.878906 -136.585 1.28906c-0.869141 11.2139 -1.51367 18.7197 -1.71973 19.2773
c-1.37988 3.74023 -3.73535 5.48242 -6.3418 5.40137c-3.41211 -0.106445 -7.25684 -3.33887 -9.91309 -9.30566c-0.474609 -1.06543 -0.93457 -6.73047 -1.36816 -15.2236c-37.5 0.285156 -77.46 0.55957 -118.733 0.821289
c-0.830078 10.6748 -1.44336 17.7646 -1.64355 18.3066c-1.37988 3.74023 -3.73535 5.48242 -6.3418 5.40137c-3.41211 -0.106445 -7.25684 -3.33887 -9.91309 -9.30566c-0.457031 -1.02539 -0.899414 -6.3125 -1.31934 -14.2822
c-38.9346 0.241211 -78.8613 0.47168 -118.845 0.689453c-0.798828 10.2227 -1.38574 16.9688 -1.58105 17.4971c-1.37988 3.74023 -3.73535 5.48242 -6.3418 5.40137c-3.41211 -0.106445 -7.25684 -3.33887 -9.91309 -9.30566
c-0.441406 -0.991211 -0.870117 -5.96289 -1.27734 -13.4893c-125.036 0.668945 -249.16 1.21582 -343.714 1.60059c-3.16797 43.6211 -6.00586 80.7148 -6.60645 82.3428c-2.30078 6.2334 -6.22559 9.1377 -10.5703 9.00195
c-5.6875 -0.177734 -12.0947 -5.56445 -16.5225 -15.5098c-1.53809 -3.45508 -2.98438 -35.9238 -4.19922 -75.6826c-61.626 0.244141 -105.892 0.402344 -122.146 0.458984c-3.14941 43.3555 -5.96387 80.1113 -6.56152 81.7314
c-2.30078 6.2334 -6.22559 9.1377 -10.5703 9.00195c-5.6875 -0.177734 -12.0947 -5.56445 -16.5225 -15.5098c-1.43457 -3.22168 -2.78809 -31.6699 -3.9502 -67.7324l-10.5439 2.55957c-100.174 24.3145 -165.504 43.0791 -187.049 53.7275
c-17.2617 8.53125 -31.6641 8.73926 -37.5225 0.542969c-2.37695 -3.32617 -4.3584 -7.23145 -4.3584 -8.5918c0 -4.19922 6.25977 -14.1348 15.8896 -25.2197c10.9482 -12.6045 19.418 -33.2578 25.5732 -62.3584c4.27441 -20.209 8.36914 -22.3535 3.64355 -68.3604
c-0.911133 -8.86816 -4.97656 -59.4033 -3.64941 -59.4033c1.32227 0 10.0449 5.70312 19.3838 12.6738c30.166 22.5166 55.7471 37.5723 94.7979 55.7939c33.6768 15.7139 54.8848 20.6768 81.9258 27.042c-1.14941 -50.6562 -1.85059 -95.6768 -1.85059 -95.6768
l-10.0273 -41.3154c-24.3145 -100.174 -43.0791 -165.504 -53.7275 -187.049c-8.53125 -17.2617 -8.73926 -31.6641 -0.542969 -37.5225c3.32617 -2.37695 7.23145 -4.3584 8.5918 -4.3584c4.19922 0 14.1348 6.25977 25.2197 15.8896
c12.6045 10.9482 33.2578 19.418 62.3584 25.5732c19.8564 4.2002 22.2734 8.22559 65.9893 3.88281c-0.557617 -1.25781 -1.09668 -2.41406 -1.61621 -3.46484c-8.53125 -17.2617 -8.73926 -31.6641 -0.542969 -37.5225c3.32617 -2.37695 7.23145 -4.3584 8.5918 -4.3584
c4.19922 0 14.1348 6.25977 25.2197 15.8896c12.6045 10.9482 33.2578 19.418 62.3584 25.5732c20.209 4.27441 22.3535 8.36914 68.3604 3.64355c8.86816 -0.911133 59.4033 -4.97656 59.4033 -3.64941c0 1.32227 -5.70312 10.0449 -12.6738 19.3838
c-8.56934 11.4814 -16.0586 22.2979 -23.0527 33.4463c16.7969 12.2695 31.7021 20.8877 53.7871 31.1934c30.6436 14.2979 44.0811 13.7617 78.6123 23.8223z" />
</svg>
