<?xml version="1.0" standalone="no"?>
<!DOCTYPE svg PUBLIC "-//W3C//DTD SVG 1.1//EN" "http://www.w3.org/Graphics/SVG/1.1/DTD/svg11.dtd" >
<svg xmlns="http://www.w3.org/2000/svg" xmlns:xlink="http://www.w3.org/1999/xlink" version="1.1" viewBox="0 0 871 799">
   <path fill="currentColor"
d="M470.461 753.523l-36.3047 -22.124c-88.0264 -53.6406 -147.49 -86.5674 -170.255 -94.2725c-18.2383 -6.17383 -28.5693 -16.2109 -26.916 -26.1484c0.670898 -4.0332 2.03125 -8.19531 2.99316 -9.15723c2.96973 -2.96973 14.4209 -5.56836 29.0684 -6.59766
c16.6543 -1.1709 37.248 -9.78613 62.1777 -26.0107c17.3125 -11.2676 21.7236 -9.88867 50.9141 -45.7617c4.6377 -5.69922 27.7715 -32.9248 36.2891 -41.7988c-0.202148 -12.3975 -0.396484 -24.9365 -0.581055 -37.3955
c-52.2188 0.438477 -87.6016 0.68457 -87.6016 0.68457l-41.3154 10.0273c-100.174 24.3145 -165.504 43.0791 -187.049 53.7275c-17.2617 8.53125 -31.6641 8.73926 -37.5225 0.542969c-2.37695 -3.32617 -4.3584 -7.23145 -4.3584 -8.5918
c0 -4.19922 6.25977 -14.1348 15.8896 -25.2197c10.9482 -12.6045 19.418 -33.2578 25.5732 -62.3584c4.27441 -20.209 8.36914 -22.3535 3.64355 -68.3604c-0.911133 -8.86816 -4.97656 -59.4033 -3.64941 -59.4033c1.32227 0 10.0449 5.70312 19.3838 12.6738
c30.166 22.5166 55.7471 37.5723 94.7979 55.7939c51.0723 23.8301 73.4678 22.9355 131.02 39.7041c0 0 27.8672 0.84375 70.5098 2.15332c-0.912109 -69.0781 -1.4541 -125.492 -1.4541 -125.492l-10.0273 -41.3154
c-24.3145 -100.174 -43.0791 -165.504 -53.7275 -187.049c-8.53125 -17.2617 -8.73926 -31.6641 -0.542969 -37.5225c3.32617 -2.37695 7.23145 -4.3584 8.5918 -4.3584c4.19922 0 14.1348 6.25977 25.2197 15.8896c12.6045 10.9482 33.2578 19.418 62.3584 25.5732
c20.209 4.27441 22.3535 8.36914 68.3604 3.64355c8.86816 -0.911133 59.4033 -4.97656 59.4033 -3.64941c0 1.32227 -5.70312 10.0449 -12.6738 19.3838c-22.5166 30.166 -37.5723 55.7471 -55.7939 94.7979c-23.8301 51.0723 -22.9355 73.4678 -39.7041 131.02
c0 0 -2.0459 48.6719 -4.70801 110.475c148.255 4.58105 386.514 12.0889 389.286 13.1123c6.2334 2.30078 9.1377 6.22559 9.00195 10.5703c-0.177734 5.6875 -5.56445 12.0947 -15.5098 16.5225c-6.30371 2.80664 -234.319 5.30566 -384.808 6.65527
c-2.56055 58.7891 -5.33496 121.137 -7.31641 162.023c0.251953 0.699219 0.506836 1.40234 0.763672 2.1084c19.2627 52.9639 35.7314 68.167 64.5693 120.72c0 0 28.2109 49.6709 30.0068 53.5693c2.78125 6.03516 2.05957 10.8643 -1.1084 13.8398
c-4.14746 3.89648 -12.4873 4.61816 -22.6504 0.716797c-9.63672 -3.69922 -54.2441 -43.3408 -54.2441 -43.3408z" />
</svg>
