<?xml version="1.0" standalone="no"?>
<!DOCTYPE svg PUBLIC "-//W3C//DTD SVG 1.1//EN" "http://www.w3.org/Graphics/SVG/1.1/DTD/svg11.dtd" >
<svg xmlns="http://www.w3.org/2000/svg" xmlns:xlink="http://www.w3.org/1999/xlink" version="1.1" viewBox="0 0 2220 836">
   <path fill="currentColor"
d="M1241.03 4.2793c7.42969 -9.08496 30.668 -4.78711 27.7188 6.45312c-10.4199 39.707 -59.999 101.099 -87.0156 191.611c-21.8799 73.3076 18.748 168.492 65.5889 230.323c26.8828 35.4844 46.5342 98.8125 39.541 105.806
c-2.85059 2.85156 -13.1025 -9.99902 -22.9033 -28.709c-9.75781 -18.6289 -40.2637 -57.0977 -67.791 -85.4844c-46.7695 -48.2314 -66.0791 -61.6582 -160.273 -111.447c-8.5498 -4.51855 -16.1729 -9.33105 -22.1699 -14.3066
c-61.1904 3.10938 -209.349 5.41602 -209.349 5.41602l-41.3154 10.0273c-100.174 24.3145 -165.504 43.0791 -187.049 53.7275c-17.2617 8.53125 -31.6641 8.73926 -37.5225 0.542969c-2.37695 -3.32617 -4.3584 -7.23145 -4.3584 -8.5918
c0 -4.19922 6.25977 -14.1348 15.8896 -25.2197c10.9482 -12.6045 19.418 -33.2578 25.5732 -62.3584c4.27441 -20.209 8.36914 -22.3535 3.64355 -68.3604c-0.911133 -8.86816 -4.97656 -59.4033 -3.64941 -59.4033c1.32227 0 10.0449 5.70312 19.3838 12.6738
c30.166 22.5166 55.7471 37.5723 94.7979 55.7939c51.0723 23.8301 73.4678 22.9355 131.02 39.7041c0 0 118.605 8.1416 183.65 13.082c4.39258 -5.35254 12.2412 -10.5801 24.3584 -15.5361c22.7139 -9.29102 105.255 -83.0791 122.508 -97.4297
c33 -27.4473 37.9541 -85.0107 89.7236 -148.314zM1985.43 418.941l-41.3154 10.0273c-100.174 24.3145 -165.504 43.0791 -187.049 53.7275c-17.2617 8.53125 -31.6641 8.73926 -37.5225 0.542969c-2.37695 -3.32617 -4.3584 -7.23145 -4.3584 -8.5918
c0 -4.19922 6.25977 -14.1348 15.8896 -25.2197c6.9707 -8.02539 12.9375 -19.3154 17.9404 -33.9707c-19.8721 2.08691 -43.585 3.48438 -43.585 3.48438l-41.3154 10.0273c-100.174 24.3145 -165.504 43.0791 -187.049 53.7275
c-17.2617 8.53125 -31.6641 8.73926 -37.5225 0.542969c-2.37695 -3.32617 -4.3584 -7.23145 -4.3584 -8.5918c0 -4.19922 6.25977 -14.1348 15.8896 -25.2197c10.9482 -12.6045 19.418 -33.2578 25.5732 -62.3584c4.27441 -20.209 8.36914 -22.3535 3.64355 -68.3604
c-0.911133 -8.86816 -4.97656 -59.4033 -3.64941 -59.4033c1.32227 0 10.0449 5.70312 19.3838 12.6738c30.166 22.5166 55.7471 37.5723 94.7979 55.7939c51.0723 23.8301 73.4678 22.9355 131.02 39.7041c0 0 20.1738 5.55859 36.9932 10.2773
c3.25195 -13.002 5.34961 -21.1221 1.45508 -59.0459c-0.911133 -8.86816 -4.97656 -59.4033 -3.64941 -59.4033c1.32227 0 10.0449 5.70312 19.3838 12.6738c30.166 22.5166 55.7471 37.5723 94.7979 55.7939c51.0723 23.8301 73.4678 22.9355 131.02 39.7041
c0 0 31.5586 8.69629 48.6426 13.5674c-0.37793 -45.7373 -0.586914 -75.9062 -0.586914 -75.9062l-10.0273 -41.3154c-24.3145 -100.174 -43.0791 -165.504 -53.7275 -187.049c-8.53125 -17.2617 -8.73926 -31.6641 -0.542969 -37.5225
c3.32617 -2.37695 7.23145 -4.3584 8.5918 -4.3584c4.19922 0 14.1348 6.25977 25.2197 15.8896c12.6045 10.9482 33.2578 19.418 62.3584 25.5732c20.209 4.27441 22.3535 8.36914 68.3604 3.64355c8.86816 -0.911133 59.4033 -4.97656 59.4033 -3.64941
c0 1.32227 -5.70312 10.0449 -12.6738 19.3838c-22.5166 30.166 -37.5723 55.7471 -55.7939 94.7979c-23.8301 51.0723 -22.9355 73.4678 -39.7041 131.02c0 0 -15.1748 501.07 -16.6611 505.098c-2.30078 6.2334 -6.22559 9.1377 -10.5703 9.00195
c-5.6875 -0.177734 -12.0947 -5.56445 -16.5225 -15.5098c-1.6377 -3.67676 -3.16992 -82.7705 -4.43066 -177.916c-37.9229 3.74414 -228.802 6.71582 -228.802 6.71582l-41.3154 10.0273c-100.174 24.3145 -165.504 43.0791 -187.049 53.7275
c-17.2617 8.53125 -31.6641 8.73926 -37.5225 0.542969c-2.37695 -3.32617 -4.3584 -7.23145 -4.3584 -8.5918c0 -4.19922 6.25977 -14.1348 15.8896 -25.2197c10.9482 -12.6045 19.418 -33.2578 25.5732 -62.3584c4.27441 -20.209 8.36914 -22.3535 3.64355 -68.3604
c-0.911133 -8.86816 -4.97656 -59.4033 -3.64941 -59.4033c1.32227 0 10.0449 5.70312 19.3838 12.6738c30.166 22.5166 55.7471 37.5723 94.7979 55.7939c51.0723 23.8301 73.4678 22.9355 131.02 39.7041c0 0 163.883 11.249 212.014 15.3252
c-0.84668 -68.7402 -1.5498 -142.432 -2.05273 -200.457c-15.9824 3.6875 -65.3203 6.5957 -65.3203 6.5957zM1339.9 304.139l-10.0273 -41.3154c-24.3145 -100.174 -43.0791 -165.504 -53.7275 -187.049c-8.53125 -17.2617 -8.73926 -31.6641 -0.542969 -37.5225
c3.32617 -2.37695 7.23145 -4.3584 8.5918 -4.3584c4.19922 0 14.1348 6.25977 25.2197 15.8896c12.6045 10.9482 33.2578 19.418 62.3584 25.5732c20.209 4.27441 22.3535 8.36914 68.3604 3.64355c8.86816 -0.911133 59.4033 -4.97656 59.4033 -3.64941
c0 1.32227 -5.70312 10.0449 -12.6738 19.3838c-22.5166 30.166 -37.5723 55.7471 -55.7939 94.7979c-23.8301 51.0723 -22.9355 73.4678 -39.7041 131.02c0 0 -15.1748 501.07 -16.6611 505.098c-2.30078 6.2334 -6.22559 9.1377 -10.5703 9.00195
c-5.6875 -0.177734 -12.0947 -5.56445 -16.5225 -15.5098c-4.19824 -9.42969 -7.70996 -515.003 -7.70996 -515.003zM1142.04 212.171c1.14746 -1.28809 2.23828 -2.56543 3.26953 -3.82715c-1.20312 0.676758 -2.29492 1.9834 -3.26953 3.82715zM799.433 763.441
l-41.3154 10.0273c-100.174 24.3145 -165.504 43.0791 -187.049 53.7275c-17.2617 8.53125 -31.6641 8.73926 -37.5225 0.542969c-2.37695 -3.32617 -4.3584 -7.23145 -4.3584 -8.5918c0 -4.19922 6.25977 -14.1348 15.8896 -25.2197
c10.9482 -12.6045 19.418 -33.2578 25.5732 -62.3584c4.27441 -20.209 8.36914 -22.3535 3.64355 -68.3604c-0.911133 -8.86816 -4.97656 -59.4033 -3.64941 -59.4033c1.32227 0 10.0449 5.70312 19.3838 12.6738c30.166 22.5166 55.7471 37.5723 94.7979 55.7939
c51.0723 23.8301 73.4678 22.9355 131.02 39.7041c0 0 361.07 15.1748 365.098 16.6611c6.2334 2.30078 9.1377 6.22559 9.00195 10.5703c-0.177734 5.6875 -5.56445 12.0947 -15.5098 16.5225c-9.42969 4.19824 -375.003 7.70996 -375.003 7.70996zM429.901 304.139
l-10.0273 -41.3154c-24.3145 -100.174 -43.0791 -165.504 -53.7275 -187.049c-8.53125 -17.2617 -8.73926 -31.6641 -0.542969 -37.5225c3.32617 -2.37695 7.23145 -4.3584 8.5918 -4.3584c4.19922 0 14.1348 6.25977 25.2197 15.8896
c12.6045 10.9482 33.2578 19.418 62.3584 25.5732c20.209 4.27441 22.3535 8.36914 68.3604 3.64355c8.86816 -0.911133 59.4033 -4.97656 59.4033 -3.64941c0 1.32227 -5.70312 10.0449 -12.6738 19.3838c-22.5166 30.166 -37.5723 55.7471 -55.7939 94.7979
c-23.8301 51.0723 -22.9355 73.4678 -39.7041 131.02c0 0 -15.1748 501.07 -16.6611 505.098c-2.30078 6.2334 -6.22559 9.1377 -10.5703 9.00195c-5.6875 -0.177734 -12.0947 -5.56445 -16.5225 -15.5098c-4.19824 -9.42969 -7.70996 -515.003 -7.70996 -515.003z
M252.648 787.523l-36.3047 -22.124c-88.0264 -53.6406 -147.49 -86.5674 -170.255 -94.2725c-18.2383 -6.17383 -28.5693 -16.2109 -26.916 -26.1484c0.670898 -4.0332 2.03125 -8.19531 2.99316 -9.15723c2.96973 -2.96973 14.4209 -5.56836 29.0684 -6.59766
c16.6543 -1.1709 37.248 -9.78613 62.1777 -26.0107c17.3125 -11.2676 21.7236 -9.88867 50.9141 -45.7617c4.63672 -5.69922 27.7705 -32.9248 36.2891 -41.7988c-1.65332 -101.051 -2.71387 -211.514 -2.71387 -211.514l-10.0273 -41.3154
c-24.3145 -100.174 -43.0791 -165.504 -53.7275 -187.049c-8.53125 -17.2617 -8.73926 -31.6641 -0.542969 -37.5225c3.32617 -2.37695 7.23145 -4.3584 8.5918 -4.3584c4.19922 0 14.1348 6.25977 25.2197 15.8896c12.6045 10.9482 33.2578 19.418 62.3584 25.5732
c20.209 4.27441 22.3535 8.36914 68.3604 3.64355c8.86816 -0.911133 59.4033 -4.97656 59.4033 -3.64941c0 1.32227 -5.70312 10.0449 -12.6738 19.3838c-22.5166 30.166 -37.5723 55.7471 -55.7939 94.7979c-23.8301 51.0723 -22.9355 73.4678 -39.7041 131.02
c0 0 -9.30273 221.344 -14.0547 319.358c0.25293 0.699219 0.507812 1.40234 0.764648 2.1084c19.2627 52.9639 35.7314 68.167 64.5693 120.72c0 0 28.2109 49.6709 30.0068 53.5693c2.78125 6.03516 2.05957 10.8643 -1.1084 13.8398
c-4.14746 3.89648 -12.4873 4.61816 -22.6504 0.716797c-9.63672 -3.69922 -54.2441 -43.3408 -54.2441 -43.3408z" />
</svg>
