<?xml version="1.0" standalone="no"?>
<!DOCTYPE svg PUBLIC "-//W3C//DTD SVG 1.1//EN" "http://www.w3.org/Graphics/SVG/1.1/DTD/svg11.dtd" >
<svg xmlns="http://www.w3.org/2000/svg" xmlns:xlink="http://www.w3.org/1999/xlink" version="1.1" viewBox="0 0 1541 800">
   <path fill="currentColor"
d="M337.112 650.431c-19.1475 2.02637 -28.5693 -16.2109 -26.916 -26.1494c0.416016 -2.50391 1.09863 -5.05859 1.78711 -6.86523c-10.5859 -8.98438 -19.335 -16.7598 -19.335 -16.7598l-36.3047 -22.124c-88.0264 -53.6406 -147.49 -86.5674 -170.254 -94.2725
c-18.2393 -6.17285 -28.5703 -16.21 -26.917 -26.1484c0.671875 -4.03223 2.03223 -8.19531 2.99414 -9.15723c2.96875 -2.96875 14.4209 -5.56836 29.0684 -6.59668c16.6543 -1.17188 37.2471 -9.78711 62.1768 -26.0117c17.3125 -11.2676 21.7246 -9.8877 50.915 -45.7617
c5.62598 -6.91504 38.4854 -45.5234 39.4238 -44.585c0.93457 0.935547 3.07031 11.1357 4.74414 22.668c5.40918 37.2529 12.8516 65.9873 27.5801 106.485c19.2637 52.9639 35.7314 68.167 64.5703 120.72c0 0 7.37402 12.9844 14.8223 26.1973
c34.0039 -21.1924 118.092 -88.9248 158.05 -119.382c-1.29395 -0.360352 -2.62598 -0.800781 -3.99023 -1.3252c-9.63574 -3.69922 -54.2441 -43.3408 -54.2441 -43.3408l-36.3047 -22.124c-88.0264 -53.6406 -147.49 -86.5674 -170.255 -94.2725
c-18.2383 -6.17285 -28.5693 -16.21 -26.916 -26.1484c0.670898 -4.03223 2.03125 -8.19531 2.99316 -9.15723c2.96973 -2.96875 14.4219 -5.56836 29.0693 -6.59668c16.6543 -1.1709 37.2471 -9.78613 62.1768 -26.0117c17.3125 -11.2666 21.7246 -9.8877 50.9141 -45.7617
c5.62695 -6.91406 38.4863 -45.5234 39.4248 -44.585c0.93457 0.935547 3.06934 11.1357 4.74414 22.6689c5.40918 37.252 12.8516 65.9863 27.5801 106.484c19.2627 52.9639 35.7314 68.167 64.5693 120.72c0 0 28.2109 49.6709 30.0078 53.5693
c0.177734 0.386719 0.341797 0.768555 0.491211 1.14551c20.9688 -15.1689 98.4697 -87.5059 126.633 -122.116c2.76562 -3.40039 12.1152 -14.4609 21.0176 -24.7168c-2.84082 -0.34082 -5.95703 -1.12109 -9.2666 -2.3916
c-9.63574 -3.69922 -54.2441 -43.3398 -54.2441 -43.3398l-36.3047 -22.124c-88.0264 -53.6416 -147.49 -86.5684 -170.255 -94.2725c-18.2383 -6.17383 -28.5693 -16.2109 -26.916 -26.1484c0.670898 -4.0332 2.03125 -8.19531 2.99316 -9.15723
c2.96973 -2.96973 14.4209 -5.56836 29.0693 -6.59766c16.6543 -1.1709 37.2471 -9.78613 62.1768 -26.0107c17.3125 -11.2676 21.7246 -9.88867 50.9141 -45.7617c5.62695 -6.91504 38.4863 -45.5234 39.4238 -44.585c0.935547 0.93457 3.07031 11.1348 4.74512 22.668
c5.40918 37.252 12.8516 65.9863 27.5801 106.484c19.2627 52.9639 35.7314 68.167 64.5693 120.72c0 0 28.2109 49.6709 30.0078 53.5693c0.0712891 0.155273 0.140625 0.310547 0.207031 0.463867c2.14551 -2.26562 3.52441 -3.56641 3.70605 -3.38477
c0.93457 0.93457 3.78418 11.0537 4.74414 22.668c13.5059 163.358 58.1191 308.339 143.37 457.551c3.29688 5.76855 2.05957 10.8633 -1.1084 13.8398c-4.14746 3.89551 -15.8496 9.21582 -22.6504 0.71582c-75.999 -95.001 -391.413 -155.72 -487.078 -145.595z
M1139.73 729.941l-41.3154 10.0273c-100.174 24.3145 -165.504 43.0791 -187.049 53.7275c-17.2617 8.53125 -31.6641 8.73926 -37.5225 0.542969c-2.37695 -3.32617 -4.3584 -7.23145 -4.3584 -8.5918c0 -4.19922 6.25977 -14.1348 15.8896 -25.2197
c10.9482 -12.6045 19.418 -33.2578 25.5732 -62.3584c4.27441 -20.209 8.36914 -22.3535 3.64355 -68.3604c-0.911133 -8.86816 -4.97656 -59.4033 -3.64941 -59.4033c1.32227 0 10.0449 5.70312 19.3838 12.6738c30.166 22.5166 55.7471 37.5723 94.7979 55.7939
c51.0723 23.8301 73.4678 22.9355 131.02 39.7041c0 0 39.9697 1.67969 93.4609 3.97656c-0.90918 -52.8486 -1.72363 -119.509 -2.39746 -183.733c-60.6074 0.770508 -107.477 1.2207 -107.477 1.2207l-41.3154 10.0273
c-100.174 24.3145 -165.504 43.0791 -187.049 53.7275c-17.2617 8.53125 -31.6641 8.73926 -37.5225 0.542969c-2.37695 -3.32617 -4.3584 -7.23145 -4.3584 -8.5918c0 -4.19922 6.25977 -14.1348 15.8896 -25.2197c10.9482 -12.6045 19.418 -33.2578 25.5732 -62.3584
c4.27441 -20.209 8.36914 -22.3535 3.64355 -68.3604c-0.911133 -8.86816 -4.97656 -59.4033 -3.64941 -59.4033c1.32227 0 10.0449 5.70312 19.3838 12.6738c30.166 22.5166 55.7471 37.5723 94.7979 55.7939c51.0723 23.8301 73.4678 22.9355 131.02 39.7041
c0 0 38.5488 1.62012 90.5947 3.85352c-0.963867 -99.29 -1.53906 -182.192 -1.53906 -182.192l-0.337891 -1.38867c-59.4668 0.75293 -105.131 1.19141 -105.131 1.19141l-41.3154 10.0273c-100.174 24.3145 -165.504 43.0791 -187.049 53.7275
c-17.2617 8.53125 -31.6641 8.73926 -37.5225 0.542969c-2.37695 -3.32617 -4.3584 -7.23145 -4.3584 -8.5918c0 -4.19922 6.25977 -14.1348 15.8896 -25.2197c10.9482 -12.6045 19.418 -33.2578 25.5732 -62.3584c4.27441 -20.209 8.36914 -22.3535 3.64355 -68.3604
c-0.911133 -8.86816 -4.97656 -59.4033 -3.64941 -59.4033c1.32227 0 10.0449 5.70312 19.3838 12.6738c30.166 22.5166 55.7471 37.5723 94.7979 55.7939c51.0723 23.8301 73.4678 22.9355 131.02 39.7041c0 0 32.1211 1.34961 77.3086 3.28418
c-23.4795 -96.1836 -41.6123 -158.953 -52.0078 -179.987c-8.53125 -17.2617 -8.73926 -31.6641 -0.542969 -37.5225c3.32617 -2.37695 7.23145 -4.3584 8.5918 -4.3584c4.19922 0 14.1348 6.25977 25.2197 15.8896c12.6045 10.9482 33.2578 19.418 62.3584 25.5732
c20.209 4.27441 22.3535 8.36914 68.3604 3.64355c8.86816 -0.911133 59.4033 -4.97656 59.4033 -3.64941c0 1.32227 -5.70312 10.0449 -12.6738 19.3838c-22.5166 30.166 -37.5723 55.7471 -55.7939 94.7979c-13.2627 28.4238 -18.8672 47.9658 -24.1201 69.6289
c98.1816 4.27441 206.795 9.16602 208.994 9.97754c6.2334 2.30078 9.1377 6.22559 9.00195 10.5703c-0.177734 5.6875 -5.56445 12.0947 -15.5098 16.5225c-5.08789 2.26465 -113.84 4.33008 -212.919 5.75195c-1.52637 5.78906 -3.22266 11.9453 -5.15137 18.5684
c0 0 -2.28027 75.2754 -5.15918 167.709c102.941 4.45898 227.382 10.0088 229.737 10.8779c6.2334 2.30078 9.1377 6.22559 9.00195 10.5703c-0.177734 5.6875 -5.56445 12.0947 -15.5098 16.5225c-5.28906 2.35449 -122.588 4.49316 -224.602 5.91699
c-2.00879 64.0049 -4.16699 131.615 -5.98242 185.794c104.268 4.50879 234.68 10.3066 237.092 11.1963c6.2334 2.30078 9.1377 6.22559 9.00195 10.5703c-0.177734 5.6875 -5.56445 12.0947 -15.5098 16.5225c-5.41895 2.41211 -128.427 4.59766 -232.099 6.02148
c-1.33008 37.916 -2.30859 62.5166 -2.63281 63.3965c-2.30078 6.2334 -6.22559 9.1377 -10.5703 9.00195c-5.6875 -0.177734 -12.0947 -5.56445 -16.5225 -15.5098c-0.833984 -1.87207 -1.64062 -23.3076 -2.39844 -56.4629
c-62.1992 0.795898 -110.78 1.2627 -110.78 1.2627z" />
</svg>
