<?xml version="1.0" standalone="no"?>
<!DOCTYPE svg PUBLIC "-//W3C//DTD SVG 1.1//EN" "http://www.w3.org/Graphics/SVG/1.1/DTD/svg11.dtd" >
<svg xmlns="http://www.w3.org/2000/svg" xmlns:xlink="http://www.w3.org/1999/xlink" version="1.1" viewBox="0 0 1368 1025">
   <path fill="currentColor"
d="M654.532 773.575l-40.7939 -11.9736c-98.9102 -29.0303 -164.87 -45.4443 -188.853 -46.9951c-19.2148 -1.24316 -31.792 -8.26367 -32.7666 -18.291c-0.395508 -4.06934 -0.15918 -8.44238 0.520508 -9.62012c2.09961 -3.63672 12.4893 -9.11133 26.3711 -13.8965
c15.7842 -5.44141 33.4453 -19.0928 53.3262 -41.2168c13.8066 -15.3643 18.4248 -15.1748 37.3359 -57.3799c1.27637 -2.84766 4.77051 -10.3115 8.82227 -18.7803c-48.5957 -24.1846 -191.891 -103.967 -191.891 -103.967l-40.7939 -11.9736
c-98.9102 -29.0303 -164.87 -45.4443 -188.853 -46.9951c-19.2148 -1.24219 -31.792 -8.26367 -32.7666 -18.291c-0.395508 -4.06934 -0.15918 -8.44141 0.521484 -9.62012c2.09961 -3.63672 12.4883 -9.11133 26.3701 -13.8955
c15.7842 -5.44238 33.4453 -19.0938 53.3262 -41.2178c13.8066 -15.3643 18.4248 -15.1738 37.3359 -57.3799c3.64453 -8.13574 25.3916 -53.9326 26.541 -53.2695c1.14551 0.661133 5.84766 9.96191 10.4502 20.668c14.8662 34.583 29.4922 60.4121 54.2002 95.7178
c32.3145 46.1738 52.1572 56.5967 93.6143 99.8945c0 0 117.104 78.7695 165.794 112.261c2.12305 -4.0498 3.59277 -6.58105 3.86914 -6.4209c0.915039 0.527344 4.09375 6.55664 7.67969 14.4121c5.56641 3.88672 8.91406 6.30078 9.2666 6.72559
c4.24805 5.10938 4.80078 9.96094 2.51074 13.6553c-0.464844 0.750977 -1.04785 1.4541 -1.74121 2.10254c12.6152 26.9902 26.2383 49.915 46.9346 79.4902c32.3145 46.1729 52.1572 56.5967 93.6143 99.8945c0 0 426.352 263.677 429.097 266.978
c4.24707 5.10938 4.80078 9.95996 2.51074 13.6553c-2.99805 4.83594 -10.8662 7.69141 -21.6934 6.55371c-10.2656 -1.0791 -449.86 -250.824 -449.86 -250.824zM884.532 375.203l-40.7939 -11.9736c-98.9102 -29.0303 -164.87 -45.4443 -188.853 -46.9951
c-19.2148 -1.24219 -31.792 -8.26367 -32.7666 -18.291c-0.395508 -4.06836 -0.15918 -8.44141 0.520508 -9.62012c2.09961 -3.63574 12.4893 -9.11035 26.3711 -13.8955c15.7842 -5.44141 33.4453 -19.0928 53.3262 -41.2178
c13.8066 -15.3643 18.4248 -15.1738 37.3359 -57.3799c3.64453 -8.13574 25.3916 -53.9326 26.541 -53.2695c1.14551 0.661133 5.84766 9.96191 10.4502 20.668c14.8662 34.583 29.4922 60.4121 54.2002 95.7178c32.3145 46.1738 52.1572 56.5967 93.6143 99.8945
c0 0 426.352 263.677 429.097 266.978c4.24707 5.10938 4.80078 9.96094 2.51074 13.6553c-2.99805 4.83691 -10.8662 7.69238 -21.6934 6.55469c-10.2656 -1.0791 -449.86 -250.825 -449.86 -250.825zM441.604 252.27l-40.7939 -11.9736
c-98.9102 -29.0303 -164.87 -45.4443 -188.853 -46.9951c-19.2148 -1.24316 -31.792 -8.26367 -32.7666 -18.291c-0.395508 -4.06934 -0.15918 -8.44238 0.521484 -9.62012c2.09961 -3.63672 12.4883 -9.11133 26.3701 -13.8965
c15.7842 -5.44141 33.4453 -19.0928 53.3262 -41.2168c13.8066 -15.3643 18.4248 -15.1738 37.3359 -57.3799c3.64453 -8.13574 25.3916 -53.9336 26.541 -53.2695c1.14551 0.661133 5.84766 9.96094 10.4502 20.668c14.8662 34.583 29.4922 60.4121 54.2002 95.7178
c32.3145 46.1738 52.1572 56.5967 93.6143 99.8945c0 0 117.104 78.7695 165.794 112.261c2.12305 -4.0498 3.59277 -6.58105 3.86914 -6.4209c0.915039 0.527344 4.09375 6.55664 7.67969 14.4121c5.56641 3.88672 8.91406 6.30078 9.2666 6.72559
c4.24805 5.10938 4.80078 9.95996 2.51074 13.6553c-0.464844 0.750977 -1.04785 1.4541 -1.74121 2.10254c12.6152 26.9902 26.2383 49.915 46.9346 79.4893c32.3145 46.1738 52.1572 56.5967 93.6143 99.8945c0 0 17.5752 17.8252 30.252 30.834
c9.87207 -10.2354 15.6123 -15.4365 31.7129 -51.3711c3.64453 -8.13574 25.3916 -53.9326 26.541 -53.2695c1.14551 0.661133 5.84766 9.96191 10.4502 20.668c14.8662 34.583 29.4922 60.4121 54.2002 95.7178c32.3145 46.1738 52.1572 56.5967 93.6143 99.8945
c0 0 183.865 123.677 186.609 126.978c4.24805 5.10938 4.80078 9.96094 2.51074 13.6553c-2.99805 4.83691 -10.8662 7.69238 -21.6934 6.55371c-10.2646 -1.0791 -207.373 -110.824 -207.373 -110.824l-40.7939 -11.9736
c-98.9102 -29.0303 -164.87 -45.4443 -188.853 -46.9951c-19.2148 -1.24219 -31.792 -8.26367 -32.7666 -18.291c-0.395508 -4.06934 -0.15918 -8.44141 0.521484 -9.62012c2.09961 -3.63672 12.4883 -9.11133 26.3701 -13.8955
c10.1797 -3.50977 21.1396 -10.4336 32.9727 -20.8428c-19.084 -8.25293 -44.2217 -20.8545 -44.2217 -20.8545l-40.7939 -11.9746c-98.9102 -29.0293 -164.87 -45.4443 -188.853 -46.9951c-19.2148 -1.24219 -31.792 -8.2627 -32.7666 -18.291
c-0.395508 -4.06836 -0.15918 -8.44141 0.520508 -9.61914c2.09961 -3.63672 12.4893 -9.11133 26.3711 -13.8965c15.7842 -5.44141 33.4453 -19.0928 53.3262 -41.2168c13.8066 -15.3643 18.4248 -15.1748 37.3359 -57.3809
c1.27637 -2.84766 4.77051 -10.3105 8.82227 -18.7803c-48.5967 -24.1836 -191.891 -103.966 -191.891 -103.966z" />
</svg>
