<?xml version="1.0" standalone="no"?>
<!DOCTYPE svg PUBLIC "-//W3C//DTD SVG 1.1//EN" "http://www.w3.org/Graphics/SVG/1.1/DTD/svg11.dtd" >
<svg xmlns="http://www.w3.org/2000/svg" xmlns:xlink="http://www.w3.org/1999/xlink" version="1.1" viewBox="0 0 1505 929">
   <path fill="currentColor"
d="M1001.03 4.2793c7.42969 -9.08496 30.668 -4.78711 27.7188 6.45312c-10.4199 39.707 -59.999 101.099 -87.0156 191.611c-21.8799 73.3076 18.748 168.492 65.5889 230.323c6.14551 8.11328 11.9141 17.6816 17.0723 27.6992
c36.1875 1.22266 65.3535 2.26465 81.8252 2.96191c-0.832031 -88.7686 -1.32031 -159.189 -1.32031 -159.189l-10.0273 -41.3154c-24.3145 -100.174 -43.0791 -165.504 -53.7275 -187.049c-8.53125 -17.2617 -8.73926 -31.6641 -0.542969 -37.5225
c3.32617 -2.37695 7.23145 -4.3584 8.5918 -4.3584c4.19922 0 14.1348 6.25977 25.2197 15.8896c12.6045 10.9482 33.2578 19.418 62.3584 25.5732c20.209 4.27441 22.3535 8.36914 68.3604 3.64355c8.86816 -0.911133 59.4033 -4.97656 59.4033 -3.64941
c0 1.32227 -5.70312 10.0449 -12.6738 19.3838c-22.5166 30.166 -37.5723 55.7471 -55.7939 94.7979c-23.8301 51.0723 -22.9355 73.4678 -39.7041 131.02c0 0 -15.1748 501.07 -16.6611 505.098c-2.15625 5.8418 -5.73926 8.75977 -9.75781 8.99121
c0 0.0234375 -0.000976562 0.0458984 -0.000976562 0.0683594c-0.177734 5.6875 -5.56445 12.0947 -15.5098 16.5225c-9.42969 4.19824 -515.003 7.70996 -515.003 7.70996l-41.3154 10.0273c-100.174 24.3145 -165.504 43.0791 -187.049 53.7275
c-17.2617 8.53125 -31.6641 8.73926 -37.5225 0.542969c-2.37695 -3.32617 -4.3584 -7.23145 -4.3584 -8.5918c0 -4.19922 6.25977 -14.1348 15.8896 -25.2197c10.9482 -12.6045 19.418 -33.2578 25.5732 -62.3584c4.27441 -20.209 8.36914 -22.3535 3.64355 -68.3604
c-0.275391 -2.6748 -0.836914 -9.1377 -1.45117 -16.8623c-0.621094 0.289062 -1.21289 0.572266 -1.77441 0.849609c-17.2617 8.53125 -31.6641 8.73926 -37.5225 0.542969c-2.37695 -3.32617 -4.3584 -7.23145 -4.3584 -8.5918
c0 -4.19922 6.25977 -14.1348 15.8896 -25.2197c10.9482 -12.6045 19.418 -33.2578 25.5732 -62.3584c4.27441 -20.209 8.36914 -22.3535 3.64355 -68.3604c-0.275391 -2.6748 -0.836914 -9.1377 -1.45117 -16.8623c-0.621094 0.289062 -1.21289 0.572266 -1.77441 0.849609
c-17.2617 8.53125 -31.6641 8.73926 -37.5225 0.542969c-2.37695 -3.32617 -4.3584 -7.23145 -4.3584 -8.5918c0 -4.19922 6.25977 -14.1348 15.8896 -25.2197c10.9482 -12.6045 19.418 -33.2578 25.5732 -62.3584c4.27441 -20.209 8.36914 -22.3535 3.64355 -68.3604
c-0.583008 -5.66699 -2.45312 -28.3457 -3.38086 -43.9824c-16.1123 5.13281 -27.8496 9.48535 -34.8984 12.9697c-17.2617 8.53125 -31.6641 8.73926 -37.5225 0.542969c-2.37695 -3.32617 -4.3584 -7.23145 -4.3584 -8.5918c0 -4.19922 6.25977 -14.1348 15.8896 -25.2197
c10.9482 -12.6045 19.418 -33.2578 25.5732 -62.3584c4.27441 -20.209 8.36914 -22.3535 3.64355 -68.3604c-0.911133 -8.86816 -4.97656 -59.4033 -3.64941 -59.4033c1.32227 0 10.0449 5.70312 19.3838 12.6738c30.166 22.5166 55.7471 37.5723 94.7979 55.7939
c51.0723 23.8301 73.4678 22.9355 131.02 39.7041c0 0 118.605 8.1416 183.65 13.082c4.39258 -5.35254 12.2412 -10.5801 24.3584 -15.5361c22.7139 -9.29102 105.255 -83.0791 122.508 -97.4297c33 -27.4473 37.9541 -85.0107 89.7236 -148.314zM902.039 212.171
c1.14746 -1.28809 2.23828 -2.56543 3.26953 -3.82715c-1.20312 0.676758 -2.29492 1.9834 -3.26953 3.82715zM1334.9 304.139l-10.0273 -41.3154c-24.3145 -100.174 -43.0791 -165.504 -53.7275 -187.049c-8.53125 -17.2617 -8.73926 -31.6641 -0.542969 -37.5225
c3.32617 -2.37695 7.23145 -4.3584 8.5918 -4.3584c4.19922 0 14.1348 6.25977 25.2197 15.8896c12.6045 10.9482 33.2578 19.418 62.3584 25.5732c20.209 4.27441 22.3535 8.36914 68.3604 3.64355c8.86816 -0.911133 59.4033 -4.97656 59.4033 -3.64941
c0 1.32227 -5.70312 10.0449 -12.6738 19.3838c-22.5166 30.166 -37.5723 55.7471 -55.7939 94.7979c-23.8301 51.0723 -22.9355 73.4678 -39.7041 131.02c0 0 -15.1748 501.07 -16.6611 505.098c-2.30078 6.2334 -6.22559 9.1377 -10.5703 9.00195
c-5.6875 -0.177734 -12.0947 -5.56445 -16.5225 -15.5098c-4.19824 -9.42969 -7.70996 -515.003 -7.70996 -515.003zM564.379 303.941l-41.3154 10.0273c-57.3066 13.9092 -103.209 26.0029 -136.035 35.7988c0.986328 0.71875 1.98926 1.45801 3 2.21191
c30.166 22.5166 55.7471 37.5723 94.7979 55.7939c51.0723 23.8301 73.4678 22.9355 131.02 39.7041c0 0 221.849 6.71875 371.498 11.6523c-9.96387 -11.9805 -20.7812 -24.1338 -31.1729 -34.8506c-46.7695 -48.2314 -66.0791 -61.6582 -160.273 -111.447
c-8.5498 -4.51855 -16.1729 -9.33105 -22.1699 -14.3066c-61.1904 3.10938 -209.349 5.41602 -209.349 5.41602zM599.433 498.941l-41.3154 10.0273c-63.2744 15.3584 -112.646 28.502 -145.864 38.7852c21.6924 14.5332 43.3643 26.3906 72.5732 40.0195
c51.0723 23.8301 73.4678 22.9355 131.02 39.7041c0 0 413.893 12.5342 492.364 15.9355c-0.650391 -48.7822 -1.22852 -101.926 -1.71289 -151.367c-11.8281 0.691406 -35.9307 1.3584 -67.4873 1.98633c7.95898 22.1221 11.4736 40.8223 7.85547 44.4404
c-2.85059 2.85156 -13.1025 -9.99902 -22.9033 -28.709c-2.19922 -4.19824 -5.45215 -9.4043 -9.4873 -15.2754c-149.833 2.61133 -415.042 4.45312 -415.042 4.45312zM599.433 678.941l-41.3154 10.0273c-63.2744 15.3584 -112.646 28.502 -145.864 38.7852
c21.6924 14.5332 43.3643 26.3906 72.5732 40.0195c51.0723 23.8301 73.4678 22.9355 131.02 39.7041c0 0 442.266 13.3936 499.128 16.2471c-0.833984 -1.39941 -1.62598 -2.92773 -2.3623 -4.58301c-1.45703 -3.27246 -2.83203 -66.3076 -4.00586 -147.229
c-57.3564 3.88965 -509.173 7.02832 -509.173 7.02832zM252.648 787.523l-36.3047 -22.124c-88.0264 -53.6406 -147.49 -86.5674 -170.255 -94.2725c-18.2383 -6.17383 -28.5693 -16.2109 -26.916 -26.1484c0.670898 -4.0332 2.03125 -8.19531 2.99316 -9.15723
c2.96973 -2.96973 14.4209 -5.56836 29.0684 -6.59766c16.6543 -1.1709 37.248 -9.78613 62.1777 -26.0107c17.3125 -11.2676 21.7236 -9.88867 50.9141 -45.7617c4.63672 -5.69922 27.7705 -32.9248 36.2891 -41.7988
c-1.65332 -101.051 -2.71387 -211.514 -2.71387 -211.514l-10.0273 -41.3154c-24.3145 -100.174 -43.0791 -165.504 -53.7275 -187.049c-8.53125 -17.2617 -8.73926 -31.6641 -0.542969 -37.5225c3.32617 -2.37695 7.23145 -4.3584 8.5918 -4.3584
c4.19922 0 14.1348 6.25977 25.2197 15.8896c12.6045 10.9482 33.2578 19.418 62.3584 25.5732c20.209 4.27441 22.3535 8.36914 68.3604 3.64355c8.86816 -0.911133 59.4033 -4.97656 59.4033 -3.64941c0 1.32227 -5.70312 10.0449 -12.6738 19.3838
c-22.5166 30.166 -37.5723 55.7471 -55.7939 94.7979c-23.8301 51.0723 -22.9355 73.4678 -39.7041 131.02c0 0 -9.30273 221.344 -14.0547 319.358c0.25293 0.699219 0.507812 1.40234 0.764648 2.1084c19.2627 52.9639 35.7314 68.167 64.5693 120.72
c0 0 28.2109 49.6709 30.0068 53.5693c2.78125 6.03516 2.05957 10.8643 -1.1084 13.8398c-4.14746 3.89648 -12.4873 4.61816 -22.6504 0.716797c-9.63672 -3.69922 -54.2441 -43.3408 -54.2441 -43.3408z" />
</svg>
