<?xml version="1.0" standalone="no"?>
<!DOCTYPE svg PUBLIC "-//W3C//DTD SVG 1.1//EN" "http://www.w3.org/Graphics/SVG/1.1/DTD/svg11.dtd" >
<svg xmlns="http://www.w3.org/2000/svg" xmlns:xlink="http://www.w3.org/1999/xlink" version="1.1" viewBox="0 0 3323 3253">
   <path fill="currentColor"
d="M1565.43 277.803c-2.02637 -19.1475 16.2109 -28.5693 26.1494 -26.916c2.50391 0.416992 5.05859 1.09961 6.86523 1.78711c8.98438 -10.5859 16.7598 -19.335 16.7598 -19.335l22.124 -36.3047c53.6406 -88.0264 86.5674 -147.49 94.2725 -170.254
c6.17285 -18.2393 16.21 -28.5703 26.1484 -26.917c4.03223 0.671875 8.19531 2.03223 9.15723 2.99414c2.96875 2.96875 5.56836 14.4209 6.59668 29.0684c1.17188 16.6543 9.78711 37.2471 26.0117 62.1768c11.2676 17.3125 9.8877 21.7246 45.7617 50.915
c6.91504 5.62598 45.5234 38.4854 44.585 39.4238c-0.935547 0.93457 -11.1357 3.07031 -22.668 4.74414c-37.2529 5.40918 -65.9873 12.8516 -106.485 27.5801c-52.9639 19.2637 -68.167 35.7314 -120.72 64.5703c0 0 -12.9844 7.37402 -26.1973 14.8223
c21.1914 34.0049 88.9238 118.093 119.382 158.05c0.360352 -1.29297 0.800781 -2.625 1.3252 -3.99023c3.69922 -9.63574 43.3408 -54.2441 43.3408 -54.2441l22.124 -36.3047c53.6406 -88.0264 86.5674 -147.49 94.2725 -170.255
c6.17285 -18.2383 16.21 -28.5693 26.1484 -26.916c4.03223 0.670898 8.19531 2.03125 9.15723 2.99316c2.96875 2.96973 5.56836 14.4219 6.59668 29.0693c1.1709 16.6543 9.78613 37.2471 26.0117 62.1768c11.2666 17.3125 9.8877 21.7246 45.7617 50.9141
c6.91406 5.62695 45.5234 38.4863 44.585 39.4248c-0.935547 0.93457 -11.1357 3.06934 -22.6689 4.74414c-37.252 5.40918 -65.9863 12.8516 -106.484 27.5801c-52.9639 19.2627 -68.167 35.7314 -120.72 64.5693c0 0 -49.6709 28.2109 -53.5693 30.0078
c-0.386719 0.177734 -0.768555 0.341797 -1.14551 0.491211c15.168 20.9688 87.5049 98.4697 122.116 126.633c3.39941 2.7666 14.4609 12.1152 24.7168 21.0176c0.339844 -2.84082 1.12012 -5.95703 2.3916 -9.2666c3.69922 -9.63574 43.3398 -54.2441 43.3398 -54.2441
l22.124 -36.3047c53.6416 -88.0264 86.5684 -147.49 94.2725 -170.255c6.17383 -18.2383 16.2109 -28.5693 26.1484 -26.916c4.0332 0.670898 8.19531 2.03125 9.15723 2.99316c2.96973 2.96973 5.56836 14.4209 6.59766 29.0693
c1.1709 16.6543 9.78613 37.2471 26.0107 62.1768c11.2676 17.3125 9.88867 21.7246 45.7617 50.9141c6.91504 5.62695 45.5234 38.4863 44.585 39.4238c-0.93457 0.935547 -11.1348 3.07031 -22.668 4.74512c-37.252 5.40918 -65.9863 12.8516 -106.484 27.5801
c-52.9639 19.2627 -68.167 35.7314 -120.72 64.5693c0 0 -49.6709 28.2109 -53.5693 30.0078c-0.15625 0.0712891 -0.310547 0.140625 -0.464844 0.208008c2.2666 2.14551 3.56738 3.52344 3.38574 3.70508c-0.93457 0.93457 -11.0537 3.78418 -22.668 4.74414
c-163.358 13.5059 -308.339 58.1191 -457.551 143.37c-5.76855 3.29688 -10.8633 2.05957 -13.8398 -1.1084c-3.89551 -4.14746 -9.21582 -15.8496 -0.71582 -22.6504c95.001 -75.999 155.72 -391.413 145.595 -487.078zM1805.74 2974.75
c2.02637 19.1475 -16.2109 28.5693 -26.1494 26.916c-2.50488 -0.416992 -5.05859 -1.09961 -6.86621 -1.78711c-8.98438 10.5859 -16.7588 19.335 -16.7588 19.335l-22.124 36.3047c-53.6406 88.0264 -86.5674 147.49 -94.2725 170.254
c-6.17285 18.2393 -16.21 28.5703 -26.1484 26.917c-4.03223 -0.671875 -8.19531 -2.03223 -9.15723 -2.99414c-2.96875 -2.96875 -5.56836 -14.4209 -6.59668 -29.0684c-1.17188 -16.6543 -9.78711 -37.2471 -26.0117 -62.1768
c-11.2676 -17.3125 -9.8877 -21.7246 -45.7617 -50.915c-6.91504 -5.62598 -45.5234 -38.4854 -44.585 -39.4238c0.935547 -0.93457 11.1357 -3.07031 22.668 -4.74414c37.2529 -5.40918 65.9873 -12.8516 106.485 -27.5801
c52.9639 -19.2637 68.167 -35.7314 120.72 -64.5703c0 0 12.9844 -7.37402 26.1963 -14.8223c-21.1914 -34.0049 -88.9238 -118.093 -119.381 -158.05c-0.361328 1.29297 -0.801758 2.625 -1.3252 3.99023c-3.69922 9.63574 -43.3408 54.2441 -43.3408 54.2441
l-22.124 36.3047c-53.6406 88.0264 -86.5674 147.49 -94.2725 170.255c-6.17285 18.2383 -16.21 28.5693 -26.1484 26.916c-4.03223 -0.670898 -8.19531 -2.03125 -9.15723 -2.99316c-2.96875 -2.96973 -5.56836 -14.4219 -6.59668 -29.0693
c-1.1709 -16.6543 -9.78613 -37.2471 -26.0117 -62.1768c-11.2666 -17.3125 -9.8877 -21.7246 -45.7617 -50.9141c-6.91406 -5.62695 -45.5234 -38.4863 -44.585 -39.4248c0.935547 -0.93457 11.1357 -3.06934 22.6689 -4.74414
c37.252 -5.40918 65.9863 -12.8516 106.484 -27.5801c52.9639 -19.2627 68.167 -35.7314 120.72 -64.5693c0 0 49.6709 -28.2109 53.5693 -30.0078c0.386719 -0.177734 0.768555 -0.341797 1.14453 -0.491211c-15.168 -20.9688 -87.5049 -98.4697 -122.115 -126.633
c-3.40039 -2.7666 -14.4619 -12.1152 -24.7178 -21.0176c-0.339844 2.84082 -1.12012 5.95703 -2.39062 9.2666c-3.69922 9.63574 -43.3398 54.2441 -43.3398 54.2441l-22.124 36.3047c-53.6416 88.0264 -86.5684 147.49 -94.2725 170.255
c-6.17383 18.2383 -16.2109 28.5693 -26.1484 26.916c-4.0332 -0.670898 -8.19531 -2.03125 -9.15723 -2.99316c-2.96973 -2.96973 -5.56836 -14.4209 -6.59766 -29.0693c-1.1709 -16.6543 -9.78613 -37.2471 -26.0107 -62.1768
c-11.2676 -17.3125 -9.88867 -21.7246 -45.7617 -50.9141c-6.91504 -5.62695 -45.5234 -38.4863 -44.585 -39.4238c0.93457 -0.935547 11.1348 -3.07031 22.668 -4.74512c37.252 -5.40918 65.9863 -12.8516 106.484 -27.5801
c52.9639 -19.2627 68.167 -35.7314 120.72 -64.5693c0 0 49.6709 -28.2109 53.5693 -30.0078c0.155273 -0.0712891 0.30957 -0.140625 0.463867 -0.208008c-2.2666 -2.14551 -3.56641 -3.52344 -3.38477 -3.70508c0.93457 -0.93457 11.0537 -3.78418 22.668 -4.74414
c163.358 -13.5059 308.339 -58.1191 457.551 -143.37c5.76855 -3.29688 10.8633 -2.05957 13.8398 1.1084c3.89551 4.14746 9.21582 15.8496 0.71582 22.6504c-95.001 75.999 -155.72 391.413 -145.595 487.078zM3034.05 1506.12
c19.1475 -2.02637 28.5693 16.2109 26.916 26.1494c-0.416992 2.50391 -1.09961 5.05859 -1.78809 6.86523c10.5859 8.98438 19.3359 16.7598 19.3359 16.7598l36.3047 22.124c88.0264 53.6406 147.49 86.5674 170.254 94.2725
c18.2393 6.17285 28.5703 16.21 26.917 26.1484c-0.671875 4.03223 -2.03223 8.19531 -2.99414 9.15723c-2.96875 2.96875 -14.4209 5.56836 -29.0684 6.59668c-16.6543 1.17188 -37.2471 9.78711 -62.1768 26.0117c-17.3125 11.2676 -21.7246 9.8877 -50.915 45.7617
c-5.62598 6.91504 -38.4854 45.5234 -39.4238 44.585c-0.93457 -0.935547 -3.07031 -11.1357 -4.74414 -22.668c-5.40918 -37.2529 -12.8516 -65.9873 -27.5801 -106.485c-19.2637 -52.9639 -35.7314 -68.167 -64.5703 -120.72c0 0 -7.375 -12.9844 -14.8232 -26.1973
c-34.0039 21.1924 -118.092 88.9248 -158.05 119.382c1.29395 0.360352 2.62598 0.800781 3.99121 1.3252c9.63574 3.69922 54.2441 43.3408 54.2441 43.3408l36.3047 22.124c88.0264 53.6406 147.49 86.5674 170.255 94.2725c18.2383 6.17285 28.5693 16.21 26.916 26.1484
c-0.670898 4.03223 -2.03125 8.19531 -2.99316 9.15723c-2.96973 2.96875 -14.4219 5.56836 -29.0693 6.59668c-16.6543 1.1709 -37.2471 9.78613 -62.1768 26.0117c-17.3125 11.2666 -21.7246 9.8877 -50.9141 45.7617c-5.62695 6.91406 -38.4863 45.5234 -39.4248 44.585
c-0.93457 -0.935547 -3.06934 -11.1357 -4.74414 -22.6689c-5.40918 -37.252 -12.8516 -65.9863 -27.5801 -106.484c-19.2627 -52.9639 -35.7314 -68.167 -64.5693 -120.72c0 0 -28.2109 -49.6709 -30.0078 -53.5693
c-0.178711 -0.386719 -0.342773 -0.768555 -0.492188 -1.14551c-20.9688 15.1689 -98.4688 87.5059 -126.632 122.116c-2.7666 3.40039 -12.1162 14.4609 -21.0186 24.7168c2.8418 0.34082 5.95801 1.12109 9.26758 2.3916c9.63574 3.69922 54.2441 43.3398 54.2441 43.3398
l36.3047 22.124c88.0264 53.6416 147.49 86.5684 170.255 94.2725c18.2383 6.17383 28.5693 16.2109 26.916 26.1484c-0.670898 4.0332 -2.03125 8.19531 -2.99316 9.15723c-2.96973 2.96973 -14.4209 5.56836 -29.0693 6.59766
c-16.6543 1.1709 -37.2471 9.78613 -62.1768 26.0107c-17.3125 11.2676 -21.7246 9.88867 -50.9141 45.7617c-5.62695 6.91504 -38.4863 45.5234 -39.4238 44.585c-0.935547 -0.93457 -3.07031 -11.1348 -4.74512 -22.668
c-5.40918 -37.252 -12.8516 -65.9863 -27.5801 -106.484c-19.2627 -52.9639 -35.7314 -68.167 -64.5693 -120.72c0 0 -28.2109 -49.6709 -30.0078 -53.5693c-0.0722656 -0.155273 -0.141602 -0.310547 -0.208008 -0.463867
c-2.14551 2.26562 -3.52344 3.56641 -3.70508 3.38477c-0.93457 -0.93457 -3.78418 -11.0537 -4.74414 -22.668c-13.5059 -163.358 -58.1191 -308.339 -143.37 -457.551c-3.29688 -5.76855 -2.05957 -10.8633 1.1084 -13.8398
c4.14746 -3.89551 15.8496 -9.21582 22.6504 -0.71582c75.999 95.001 391.413 155.72 487.078 145.595zM337.112 1746.43c-19.1475 2.02637 -28.5693 -16.2109 -26.916 -26.1494c0.416016 -2.50391 1.09863 -5.05859 1.78711 -6.86523
c-10.5859 -8.98438 -19.335 -16.7598 -19.335 -16.7598l-36.3047 -22.124c-88.0264 -53.6406 -147.49 -86.5674 -170.254 -94.2725c-18.2393 -6.17285 -28.5703 -16.21 -26.917 -26.1484c0.671875 -4.03223 2.03223 -8.19531 2.99414 -9.15723
c2.96875 -2.96875 14.4209 -5.56836 29.0684 -6.59668c16.6543 -1.17188 37.2471 -9.78711 62.1768 -26.0117c17.3125 -11.2676 21.7246 -9.8877 50.915 -45.7617c5.62598 -6.91504 38.4854 -45.5234 39.4238 -44.585c0.93457 0.935547 3.07031 11.1357 4.74414 22.668
c5.40918 37.2529 12.8516 65.9873 27.5801 106.485c19.2637 52.9639 35.7314 68.167 64.5703 120.72c0 0 7.37402 12.9844 14.8223 26.1973c34.0039 -21.1924 118.092 -88.9248 158.05 -119.382c-1.29395 -0.360352 -2.62598 -0.800781 -3.99023 -1.3252
c-9.63574 -3.69922 -54.2441 -43.3408 -54.2441 -43.3408l-36.3047 -22.124c-88.0264 -53.6406 -147.49 -86.5674 -170.255 -94.2725c-18.2383 -6.17285 -28.5693 -16.21 -26.916 -26.1484c0.670898 -4.03223 2.03125 -8.19531 2.99316 -9.15723
c2.96973 -2.96875 14.4219 -5.56836 29.0693 -6.59668c16.6543 -1.1709 37.2471 -9.78613 62.1768 -26.0117c17.3125 -11.2666 21.7246 -9.8877 50.9141 -45.7617c5.62695 -6.91406 38.4863 -45.5234 39.4248 -44.585c0.93457 0.935547 3.06934 11.1357 4.74414 22.6689
c5.40918 37.252 12.8516 65.9863 27.5801 106.484c19.2627 52.9639 35.7314 68.167 64.5693 120.72c0 0 28.2109 49.6709 30.0078 53.5693c0.177734 0.386719 0.341797 0.768555 0.491211 1.14551c20.9688 -15.1689 98.4697 -87.5059 126.633 -122.116
c2.76562 -3.40039 12.1152 -14.4609 21.0176 -24.7168c-2.84082 -0.34082 -5.95703 -1.12109 -9.2666 -2.3916c-9.63574 -3.69922 -54.2441 -43.3398 -54.2441 -43.3398l-36.3047 -22.124c-88.0264 -53.6416 -147.49 -86.5684 -170.255 -94.2725
c-18.2383 -6.17383 -28.5693 -16.2109 -26.916 -26.1484c0.670898 -4.0332 2.03125 -8.19531 2.99316 -9.15723c2.96973 -2.96973 14.4209 -5.56836 29.0693 -6.59766c16.6543 -1.1709 37.2471 -9.78613 62.1768 -26.0107
c17.3125 -11.2676 21.7246 -9.88867 50.9141 -45.7617c5.62695 -6.91504 38.4863 -45.5234 39.4238 -44.585c0.935547 0.93457 3.07031 11.1348 4.74512 22.668c5.40918 37.252 12.8516 65.9863 27.5801 106.484c19.2627 52.9639 35.7314 68.167 64.5693 120.72
c0 0 28.2109 49.6709 30.0078 53.5693c0.0712891 0.155273 0.140625 0.310547 0.207031 0.463867c2.14551 -2.26562 3.52441 -3.56641 3.70605 -3.38477c0.93457 0.93457 3.78418 11.0537 4.74414 22.668c13.5059 163.358 58.1191 308.339 143.37 457.551
c3.29688 5.76855 2.05957 10.8633 -1.1084 13.8398c-4.14746 3.89551 -15.8496 9.21582 -22.6504 0.71582c-75.999 -95.001 -391.413 -155.72 -487.078 -145.595zM1770.92 960.419l-10.0273 -41.3154c-24.3145 -100.174 -43.0791 -165.504 -53.7275 -187.049
c-8.53125 -17.2617 -8.73926 -31.6641 -0.542969 -37.5225c3.32617 -2.37695 7.23145 -4.3584 8.5918 -4.3584c4.19922 0 14.1348 6.25977 25.2197 15.8896c12.6045 10.9482 33.2578 19.418 62.3584 25.5732c20.209 4.27441 22.3535 8.36914 68.3604 3.64355
c8.86816 -0.911133 59.4033 -4.97656 59.4033 -3.64941c0 1.32227 -5.70312 10.0449 -12.6738 19.3838c-22.5166 30.166 -37.5723 55.7471 -55.7939 94.7979c-23.8301 51.0723 -22.9355 73.4678 -39.7041 131.02c0 0 -6.28711 22.8154 -11.1641 40.1494
c76.79 -0.693359 134.503 -1.09375 134.503 -1.09375l41.3154 -10.0273c100.174 -24.3145 165.504 -43.0791 187.049 -53.7275c17.2617 -8.53125 31.6641 -8.73926 37.5225 -0.542969c2.37695 3.32617 4.3584 7.23145 4.3584 8.5918
c0 4.19922 -6.25977 14.1348 -15.8896 25.2197c-10.9482 12.6045 -19.418 33.2578 -25.5732 62.3584c-4.27441 20.209 -8.36914 22.3535 -3.64355 68.3604c0.911133 8.86816 4.97656 59.4033 3.64941 59.4033c-1.32227 0 -10.0449 -5.70312 -19.3838 -12.6738
c-30.166 -22.5166 -55.7471 -37.5723 -94.7979 -55.7939c-51.0723 -23.8301 -73.4678 -22.9355 -131.02 -39.7041c0 0 -501.07 -15.1748 -505.098 -16.6611c-6.2334 -2.30078 -9.1377 -6.22559 -9.00195 -10.5703c0.177734 -5.6875 5.56445 -12.0947 15.5098 -16.5225
c5.77246 -2.57031 197.473 -4.88281 345.301 -6.29004c-2.94922 -20.3809 -5.10059 -56.8887 -5.10059 -56.8887zM1945.72 1245.89l41.3154 -10.0273c100.174 -24.3145 165.504 -43.0791 187.049 -53.7275c17.2617 -8.53125 31.6641 -8.73926 37.5225 -0.542969
c2.37695 3.32617 4.3584 7.23145 4.3584 8.5918c0 4.19922 -6.25977 14.1348 -15.8896 25.2197c-10.9482 12.6045 -19.418 33.2578 -25.5732 62.3584c-4.27441 20.209 -8.36914 22.3535 -3.64355 68.3604c0.911133 8.86816 4.97656 59.4033 3.64941 59.4033
c-1.32227 0 -10.0449 -5.70312 -19.3838 -12.6738c-30.166 -22.5166 -55.7471 -37.5723 -94.7979 -55.7939c-51.0723 -23.8301 -73.4678 -22.9355 -131.02 -39.7041c0 0 -501.07 -15.1748 -505.098 -16.6611c-6.2334 -2.30078 -9.1377 -6.22559 -9.00195 -10.5703
c0.177734 -5.6875 5.56445 -12.0947 15.5098 -16.5225c9.42969 -4.19824 515.003 -7.70996 515.003 -7.70996zM1600.25 2292.13l10.0273 41.3154c24.3145 100.174 43.0791 165.504 53.7275 187.049c8.53125 17.2617 8.73926 31.6641 0.542969 37.5225
c-3.32617 2.37695 -7.23145 4.3584 -8.5918 4.3584c-4.19922 0 -14.1348 -6.25977 -25.2197 -15.8896c-12.6045 -10.9482 -33.2578 -19.418 -62.3584 -25.5732c-20.209 -4.27441 -22.3535 -8.36914 -68.3604 -3.64355c-8.86816 0.911133 -59.4033 4.97656 -59.4033 3.64941
c0 -1.32227 5.70312 -10.0449 12.6738 -19.3838c22.5166 -30.166 37.5723 -55.7471 55.7939 -94.7979c23.8301 -51.0723 22.9355 -73.4678 39.7041 -131.02c0 0 6.28613 -22.8154 11.1631 -40.1494c-76.79 0.693359 -134.502 1.09375 -134.502 1.09375l-41.3154 10.0273
c-100.174 24.3145 -165.504 43.0791 -187.049 53.7275c-17.2617 8.53125 -31.6641 8.73926 -37.5225 0.542969c-2.37695 -3.32617 -4.3584 -7.23145 -4.3584 -8.5918c0 -4.19922 6.25977 -14.1348 15.8896 -25.2197c10.9482 -12.6045 19.418 -33.2578 25.5732 -62.3584
c4.27441 -20.209 8.36914 -22.3535 3.64355 -68.3604c-0.911133 -8.86816 -4.97656 -59.4033 -3.64941 -59.4033c1.32227 0 10.0449 5.70312 19.3838 12.6738c30.166 22.5166 55.7471 37.5723 94.7979 55.7939c51.0723 23.8301 73.4678 22.9355 131.02 39.7041
c0 0 501.07 15.1748 505.098 16.6611c6.2334 2.30078 9.1377 6.22559 9.00195 10.5703c-0.177734 5.6875 -5.56445 12.0947 -15.5098 16.5225c-5.77344 2.57031 -197.474 4.88281 -345.302 6.29004c2.94922 20.3809 5.10156 56.8887 5.10156 56.8887zM1425.45 2006.66
l-41.3154 10.0273c-100.174 24.3145 -165.504 43.0791 -187.049 53.7275c-17.2617 8.53125 -31.6641 8.73926 -37.5225 0.542969c-2.37695 -3.32617 -4.3584 -7.23145 -4.3584 -8.5918c0 -4.19922 6.25977 -14.1348 15.8896 -25.2197
c10.9482 -12.6045 19.418 -33.2578 25.5732 -62.3584c4.27441 -20.209 8.36914 -22.3535 3.64355 -68.3604c-0.911133 -8.86816 -4.97656 -59.4033 -3.64941 -59.4033c1.32227 0 10.0449 5.70312 19.3838 12.6738c30.166 22.5166 55.7471 37.5723 94.7979 55.7939
c51.0723 23.8301 73.4678 22.9355 131.02 39.7041c0 0 501.07 15.1748 505.098 16.6611c6.2334 2.30078 9.1377 6.22559 9.00195 10.5703c-0.177734 5.6875 -5.56445 12.0947 -15.5098 16.5225c-9.42969 4.19824 -515.003 7.70996 -515.003 7.70996zM2351.43 1711.61
l41.3154 -10.0273c100.174 -24.3145 165.504 -43.0791 187.049 -53.7275c17.2617 -8.53125 31.6641 -8.73926 37.5225 -0.542969c2.37695 3.32617 4.3584 7.23145 4.3584 8.5918c0 4.19922 -6.25977 14.1348 -15.8896 25.2197
c-10.9482 12.6045 -19.418 33.2578 -25.5732 62.3584c-4.27441 20.209 -8.36914 22.3535 -3.64355 68.3604c0.911133 8.86816 4.97656 59.4033 3.64941 59.4033c-1.32227 0 -10.0449 -5.70312 -19.3838 -12.6738c-30.166 -22.5166 -55.7471 -37.5723 -94.7979 -55.7939
c-51.0723 -23.8301 -73.4678 -22.9355 -131.02 -39.7041c0 0 -22.8154 -6.28711 -40.1494 -11.1641c0.692383 76.791 1.09375 134.503 1.09375 134.503l10.0273 41.3154c24.3145 100.174 43.0791 165.504 53.7275 187.049c8.53125 17.2617 8.73926 31.6641 0.542969 37.5225
c-3.32617 2.37695 -7.23145 4.3584 -8.5918 4.3584c-4.19922 0 -14.1348 -6.25977 -25.2197 -15.8896c-12.6045 -10.9482 -33.2578 -19.418 -62.3584 -25.5732c-20.209 -4.27441 -22.3535 -8.36914 -68.3604 -3.64355c-8.86816 0.911133 -59.4033 4.97656 -59.4033 3.64941
c0 -1.32227 5.70312 -10.0449 12.6738 -19.3838c22.5166 -30.166 37.5723 -55.7471 55.7939 -94.7979c23.8301 -51.0723 22.9355 -73.4678 39.7041 -131.02c0 0 15.1748 -501.07 16.6611 -505.098c2.30078 -6.2334 6.22559 -9.1377 10.5703 -9.00195
c5.6875 0.177734 12.0947 5.56445 16.5225 15.5098c2.56934 5.77246 4.88281 197.473 6.29004 345.301c20.3799 -2.94824 56.8887 -5.10059 56.8887 -5.10059zM2065.96 1886.41l10.0273 41.3154c24.3145 100.174 43.0791 165.504 53.7275 187.049
c8.53125 17.2617 8.73926 31.6641 0.542969 37.5225c-3.32617 2.37695 -7.23145 4.3584 -8.5918 4.3584c-4.19922 0 -14.1348 -6.25977 -25.2197 -15.8896c-12.6045 -10.9482 -33.2578 -19.418 -62.3584 -25.5732c-20.209 -4.27441 -22.3535 -8.36914 -68.3604 -3.64355
c-8.86816 0.911133 -59.4033 4.97656 -59.4033 3.64941c0 -1.32227 5.70312 -10.0449 12.6738 -19.3838c22.5166 -30.166 37.5723 -55.7471 55.7939 -94.7979c23.8301 -51.0723 22.9355 -73.4678 39.7041 -131.02c0 0 15.1748 -501.07 16.6611 -505.098
c2.30078 -6.2334 6.22559 -9.1377 10.5703 -9.00195c5.6875 0.177734 12.0947 5.56445 16.5225 15.5098c4.19824 9.42969 7.70996 515.003 7.70996 515.003zM1019.73 1540.94l-41.3154 10.0273c-100.174 24.3145 -165.504 43.0791 -187.049 53.7275
c-17.2617 8.53125 -31.6641 8.73926 -37.5225 0.542969c-2.37695 -3.32617 -4.3584 -7.23145 -4.3584 -8.5918c0 -4.19922 6.25977 -14.1348 15.8896 -25.2197c10.9482 -12.6045 19.418 -33.2578 25.5732 -62.3584c4.27441 -20.209 8.36914 -22.3535 3.64355 -68.3604
c-0.911133 -8.86816 -4.97656 -59.4033 -3.64941 -59.4033c1.32227 0 10.0449 5.70312 19.3838 12.6738c30.166 22.5166 55.7471 37.5723 94.7979 55.7939c51.0723 23.8301 73.4678 22.9355 131.02 39.7041c0 0 22.8145 6.28711 40.1484 11.1641
c-0.692383 -76.791 -1.09277 -134.503 -1.09277 -134.503l-10.0273 -41.3154c-24.3145 -100.174 -43.0791 -165.504 -53.7275 -187.049c-8.53125 -17.2617 -8.73926 -31.6641 -0.542969 -37.5225c3.32617 -2.37695 7.23145 -4.3584 8.5918 -4.3584
c4.19922 0 14.1348 6.25977 25.2197 15.8896c12.6045 10.9482 33.2578 19.418 62.3584 25.5732c20.209 4.27441 22.3535 8.36914 68.3604 3.64355c8.86816 -0.911133 59.4033 -4.97656 59.4033 -3.64941c0 1.32227 -5.70312 10.0449 -12.6738 19.3838
c-22.5166 30.166 -37.5723 55.7471 -55.7939 94.7979c-23.8301 51.0723 -22.9355 73.4678 -39.7041 131.02c0 0 -15.1748 501.07 -16.6611 505.098c-2.30078 6.2334 -6.22559 9.1377 -10.5703 9.00195c-5.6875 -0.177734 -12.0947 -5.56445 -16.5225 -15.5098
c-2.57031 -5.77246 -4.88281 -197.473 -6.29102 -345.301c-20.3799 2.94824 -56.8877 5.10059 -56.8877 5.10059zM1305.2 1366.14l-10.0273 -41.3154c-24.3145 -100.174 -43.0791 -165.504 -53.7275 -187.049c-8.53125 -17.2617 -8.73926 -31.6641 -0.542969 -37.5225
c3.32617 -2.37695 7.23145 -4.3584 8.5918 -4.3584c4.19922 0 14.1348 6.25977 25.2197 15.8896c12.6045 10.9482 33.2578 19.418 62.3584 25.5732c20.209 4.27441 22.3535 8.36914 68.3604 3.64355c8.86816 -0.911133 59.4033 -4.97656 59.4033 -3.64941
c0 1.32227 -5.70312 10.0449 -12.6738 19.3838c-22.5166 30.166 -37.5723 55.7471 -55.7939 94.7979c-23.8301 51.0723 -22.9355 73.4678 -39.7041 131.02c0 0 -15.1748 501.07 -16.6611 505.098c-2.30078 6.2334 -6.22559 9.1377 -10.5703 9.00195
c-5.6875 -0.177734 -12.0947 -5.56445 -16.5225 -15.5098c-4.19824 -9.42969 -7.70996 -515.003 -7.70996 -515.003z" />
</svg>
