<?xml version="1.0" standalone="no"?>
<!DOCTYPE svg PUBLIC "-//W3C//DTD SVG 1.1//EN" "http://www.w3.org/Graphics/SVG/1.1/DTD/svg11.dtd" >
<svg xmlns="http://www.w3.org/2000/svg" xmlns:xlink="http://www.w3.org/1999/xlink" version="1.1" viewBox="0 0 1726 897">
   <path fill="currentColor"
d="M1165.25 158.941l-41.3154 10.0273c-100.174 24.3145 -165.504 43.0791 -187.049 53.7275c-17.2617 8.53125 -31.6641 8.73926 -37.5225 0.542969c-2.37695 -3.32617 -4.3584 -7.23145 -4.3584 -8.5918c0 -4.19922 6.25977 -14.1348 15.8896 -25.2197
c10.9482 -12.6045 19.418 -33.2578 25.5732 -62.3584c4.27441 -20.209 8.36914 -22.3535 3.64355 -68.3604c-0.911133 -8.86816 -4.97656 -59.4033 -3.64941 -59.4033c1.32227 0 10.0449 5.70312 19.3838 12.6738c30.166 22.5166 55.7471 37.5723 94.7979 55.7939
c51.0723 23.8301 73.4678 22.9355 131.02 39.7041c0 0 249.759 10.4971 336.146 14.8848c-10.9619 -39.4736 -19.7383 -66.2314 -25.8457 -78.5879c-8.53125 -17.2617 -8.73926 -31.6641 -0.542969 -37.5225c3.32617 -2.37695 7.23145 -4.3584 8.5918 -4.3584
c4.19922 0 14.1348 6.25977 25.2197 15.8896c12.6045 10.9482 33.2578 19.418 62.3584 25.5732c20.209 4.27441 22.3535 8.36914 68.3604 3.64355c8.86816 -0.911133 59.4033 -4.97656 59.4033 -3.64941c0 1.32227 -5.70312 10.0449 -12.6738 19.3838
c-22.5166 30.166 -37.5723 55.7471 -55.7939 94.7979c-23.8301 51.0723 -22.9355 73.4678 -39.7041 131.02c0 0 -15.1748 501.07 -16.6611 505.098c-2.15625 5.8418 -5.73926 8.75977 -9.75684 8.99121c0 0.0234375 -0.00195312 0.0458984 -0.00195312 0.0683594
c-0.177734 5.6875 -5.56445 12.0947 -15.5098 16.5225c-9.42969 4.19824 -795.003 7.70996 -795.003 7.70996l-41.3154 10.0273c-100.174 24.3145 -165.504 43.0791 -187.049 53.7275c-17.2617 8.53125 -31.6641 8.73926 -37.5225 0.542969
c-2.37695 -3.32617 -4.3584 -7.23145 -4.3584 -8.5918c0 -4.19922 6.25977 -14.1348 15.8896 -25.2197c10.9482 -12.6045 19.418 -33.2578 25.5732 -62.3584c4.27441 -20.209 8.36914 -22.3535 3.64355 -68.3604c-0.911133 -8.86816 -4.97656 -59.4033 -3.64941 -59.4033
c1.32227 0 10.0449 5.70312 19.3838 12.6738c30.166 22.5166 55.7471 37.5723 94.7979 55.7939c49.7793 23.2266 72.3154 22.9648 126.715 38.4639c-1.08594 -23.4434 -2.10449 -76.1748 -3.00293 -139.042c-37.1953 3.75879 -229.105 6.74609 -229.105 6.74609
l-41.3154 10.0273c-100.174 24.3145 -165.504 43.0791 -187.049 53.7275c-17.2617 8.53125 -31.6641 8.73926 -37.5225 0.542969c-2.37695 -3.32617 -4.3584 -7.23145 -4.3584 -8.5918c0 -4.19922 6.25977 -14.1348 15.8896 -25.2197
c10.9482 -12.6045 19.418 -33.2578 25.5732 -62.3584c4.27441 -20.209 8.36914 -22.3535 3.64355 -68.3604c-0.911133 -8.86816 -4.97656 -59.4033 -3.64941 -59.4033c1.32227 0 10.0449 5.70312 19.3838 12.6738c30.166 22.5166 55.7471 37.5723 94.7979 55.7939
c51.0723 23.8301 73.4678 22.9355 131.02 39.7041c0 0 164.515 11.293 212.291 15.3486c-1.94824 -148.339 -3.23535 -333.688 -3.23535 -333.688l-1.57617 -6.49414c-47.1016 3.54492 -223.893 6.29688 -223.893 6.29688l-41.3154 10.0273
c-100.174 24.3145 -165.504 43.0791 -187.049 53.7275c-17.2617 8.53125 -31.6641 8.73926 -37.5225 0.542969c-2.37695 -3.32617 -4.3584 -7.23145 -4.3584 -8.5918c0 -4.19922 6.25977 -14.1348 15.8896 -25.2197c10.9482 -12.6045 19.418 -33.2578 25.5732 -62.3584
c4.27441 -20.209 8.36914 -22.3535 3.64355 -68.3604c-0.911133 -8.86816 -4.97656 -59.4033 -3.64941 -59.4033c1.32227 0 10.0449 5.70312 19.3838 12.6738c30.166 22.5166 55.7471 37.5723 94.7979 55.7939c51.0723 23.8301 73.4678 22.9355 131.02 39.7041
c0 0 141.258 9.69629 199.999 14.3467l-0.970703 -4.00098c-24.3145 -100.174 -43.0791 -165.504 -53.7275 -187.049c-8.53125 -17.2617 -8.73926 -31.6641 -0.542969 -37.5225c3.32617 -2.37695 7.23145 -4.3584 8.5918 -4.3584c4.19922 0 14.1348 6.25977 25.2197 15.8896
c12.6045 10.9482 33.2578 19.418 62.3584 25.5732c20.209 4.27441 22.3535 8.36914 68.3604 3.64355c8.86816 -0.911133 59.4033 -4.97656 59.4033 -3.64941c0 1.32227 -5.70312 10.0449 -12.6738 19.3838c-22.5166 30.166 -37.5723 55.7471 -55.7939 94.7979
c-23.8301 51.0723 -22.9355 73.4678 -39.7041 131.02c0 0 -12.0518 397.944 -15.7266 487.409c125.832 2.45801 690.339 13.5459 754.397 15.8672c-0.857422 -1.42676 -1.66992 -2.99023 -2.4248 -4.68652c-4.19824 -9.42969 -7.70996 -515.003 -7.70996 -515.003
l-10.0273 -41.3154c-7.06445 -29.1064 -13.6611 -55.2715 -19.7256 -78.2754c-68.9424 3.59082 -360.716 6.39355 -360.716 6.39355zM1145.02 380.604l-7.52148 -30.9863c-18.2354 -75.1299 -32.3086 -124.128 -40.2949 -140.286
c-6.39844 -12.9463 -6.55469 -23.748 -0.407227 -28.1416c2.49414 -1.7832 5.42285 -3.26953 6.44336 -3.26953c3.14941 0 10.6016 4.69531 18.915 11.918c9.45312 8.21094 24.9434 14.5625 46.7686 19.1797c15.1572 3.20508 16.7656 6.27637 51.2705 2.73242
c6.65137 -0.683594 44.5527 -3.73242 44.5527 -2.7373c0 0.992188 -4.27734 7.53418 -9.50586 14.5381c-16.8867 22.625 -28.1787 41.8105 -41.8457 71.0986c-17.8721 38.3037 -17.2012 55.1006 -29.7773 98.2646c0 0 -11.3809 375.803 -12.4961 378.823
c-1.72559 4.6748 -4.66895 6.85254 -7.92773 6.75098c-4.26562 -0.132812 -9.07129 -4.17285 -12.3916 -11.6318c-3.14941 -7.07227 -5.78223 -386.253 -5.78223 -386.253zM1317.52 590.604l-7.52148 -30.9863c-18.2354 -75.1299 -32.3086 -124.128 -40.2949 -140.286
c-6.39844 -12.9463 -6.55469 -23.748 -0.407227 -28.1416c2.49414 -1.7832 5.42285 -3.26953 6.44336 -3.26953c3.14941 0 10.6016 4.69531 18.915 11.918c6.01953 5.22852 14.4863 9.70312 25.4775 13.4551c-1.56445 -14.9043 -2.6123 -32.6895 -2.6123 -32.6895
l-7.52148 -30.9863c-18.2354 -75.1299 -32.3086 -124.128 -40.2949 -140.286c-6.39844 -12.9463 -6.55469 -23.748 -0.407227 -28.1416c2.49414 -1.7832 5.42285 -3.26953 6.44336 -3.26953c3.14941 0 10.6016 4.69531 18.915 11.918
c9.45312 8.21094 24.9434 14.5625 46.7686 19.1797c15.1572 3.20508 16.7656 6.27637 51.2705 2.73242c6.65137 -0.683594 44.5527 -3.73242 44.5527 -2.7373c0 0.992188 -4.27734 7.53418 -9.50586 14.5381c-16.8867 22.625 -28.1787 41.8105 -41.8457 71.0986
c-17.8721 38.3037 -17.2012 55.1006 -29.7773 98.2646c0 0 -4.16895 15.1299 -7.70801 27.7451c9.75195 2.43848 15.8418 4.01172 44.2842 1.09082c6.65137 -0.683594 44.5527 -3.73242 44.5527 -2.7373c0 0.992188 -4.27734 7.53418 -9.50586 14.5381
c-16.8867 22.625 -28.1787 41.8105 -41.8457 71.0986c-17.8721 38.3037 -17.2012 55.1006 -29.7773 98.2646c0 0 -11.3809 165.803 -12.4961 168.823c-1.72559 4.6748 -4.66895 6.85254 -7.92773 6.75098c-4.26562 -0.132812 -9.07129 -4.17285 -12.3916 -11.6318
c-3.14941 -7.07227 -5.78223 -176.253 -5.78223 -176.253zM370.245 451.941l-41.3154 10.0273c-100.174 24.3145 -165.504 43.0791 -187.049 53.7275c-17.2617 8.53125 -31.6641 8.73926 -37.5225 0.542969c-2.37695 -3.32617 -4.3584 -7.23145 -4.3584 -8.5918
c0 -4.19922 6.25977 -14.1348 15.8896 -25.2197c10.9482 -12.6045 19.418 -33.2578 25.5732 -62.3584c4.27441 -20.209 8.36914 -22.3535 3.64355 -68.3604c-0.911133 -8.86816 -4.97656 -59.4033 -3.64941 -59.4033c1.32227 0 10.0449 5.70312 19.3838 12.6738
c30.166 22.5166 55.7471 37.5723 94.7979 55.7939c51.0723 23.8301 73.4678 22.9355 131.02 39.7041c0 0 55.0703 15.1748 59.0977 16.6611c6.2334 2.30078 9.1377 6.22559 9.00195 10.5703c-0.177734 5.6875 -5.56445 12.0947 -15.5098 16.5225
c-9.42969 4.19824 -69.0029 7.70996 -69.0029 7.70996z" />
</svg>
