<?xml version="1.0" standalone="no"?>
<!DOCTYPE svg PUBLIC "-//W3C//DTD SVG 1.1//EN" "http://www.w3.org/Graphics/SVG/1.1/DTD/svg11.dtd" >
<svg xmlns="http://www.w3.org/2000/svg" xmlns:xlink="http://www.w3.org/1999/xlink" version="1.1" viewBox="0 0 1726 897">
   <path fill="currentColor"
d="M1016.1 534.524c-11.2295 -9.08008 -6.55469 -23.748 -0.407227 -28.1416c1.54883 -1.10742 3.2666 -2.10059 4.58887 -2.69336c-0.848633 -10.3789 -1.36523 -19.1416 -1.36523 -19.1416l-7.52051 -30.9863c-18.2363 -75.1309 -32.3096 -124.128 -40.2959 -140.287
c-6.39844 -12.9463 -6.55469 -23.748 -0.407227 -28.1416c2.49414 -1.7832 5.42383 -3.26855 6.44336 -3.26855c3.14941 0 10.6016 4.69434 18.915 11.917c9.45312 8.21094 24.9434 14.5635 46.7686 19.1797c15.1572 3.20605 16.7656 6.27734 51.2705 2.73242
c6.65137 -0.682617 44.5527 -3.73242 44.5527 -2.73633c0 0.991211 -4.27734 7.5332 -9.50586 14.5371c-16.8867 22.625 -28.1787 41.8105 -41.8447 71.0986c-17.873 38.3047 -17.2021 55.1006 -29.7783 98.2646c0 0 -2.97559 10.7969 -6.03223 21.7539
c29.2725 6.79492 109.787 15.4688 147.13 20.5068c-0.494141 -0.876953 -0.966797 -1.81641 -1.41309 -2.81836c-3.14844 -7.07227 -5.78223 -51.752 -5.78223 -51.752l-7.52051 -30.9863c-18.2363 -75.1309 -32.3096 -124.128 -40.2959 -140.287
c-6.39844 -12.9463 -6.55469 -23.748 -0.407227 -28.1416c2.49414 -1.7832 5.42383 -3.26855 6.44336 -3.26855c3.14941 0 10.6016 4.69434 18.915 11.917c9.45312 8.21094 24.9434 14.5635 46.7686 19.1797c15.1572 3.20605 16.7656 6.27734 51.2705 2.73242
c6.65137 -0.682617 44.5527 -3.73242 44.5527 -2.73633c0 0.991211 -4.27734 7.5332 -9.50586 14.5371c-16.8867 22.625 -28.1787 41.8105 -41.8447 71.0986c-17.873 38.3047 -17.2021 55.1006 -29.7783 98.2646c0 0 -11.3809 41.3027 -12.4961 44.3232
c-0.110352 0.299805 -0.226562 0.588867 -0.34668 0.868164c19.165 3.07617 98.6289 5.81445 131.919 2.39453c3.27051 -0.335938 14.0947 -1.24316 24.2549 -1.96094c-1.32617 -1.6875 -2.56543 -3.75391 -3.64648 -6.18262
c-3.14844 -7.07227 -5.78223 -51.752 -5.78223 -51.752l-7.52051 -30.9863c-18.2363 -75.1309 -32.3096 -124.128 -40.2959 -140.287c-6.39844 -12.9463 -6.55469 -23.748 -0.407227 -28.1416c2.49414 -1.7832 5.42383 -3.26855 6.44336 -3.26855
c3.14941 0 10.6016 4.69434 18.915 11.917c9.45312 8.21094 24.9434 14.5635 46.7686 19.1797c15.1572 3.20605 16.7656 6.27734 51.2705 2.73242c6.65137 -0.682617 44.5527 -3.73242 44.5527 -2.73633c0 0.991211 -4.27734 7.5332 -9.50586 14.5371
c-16.8867 22.625 -28.1787 41.8105 -41.8447 71.0986c-17.873 38.3047 -17.2021 55.1006 -29.7783 98.2646c0 0 -11.3809 41.3027 -12.4961 44.3232c-0.0449219 0.120117 -0.0898438 0.239258 -0.135742 0.356445c2.33984 -0.0644531 3.76074 -0.0224609 3.76074 0.169922
c0 0.991211 -3.85547 7.86914 -9.50586 14.5371c-59.3232 70.0176 -104.023 143.796 -136.984 228.427c151.439 3.11426 288.967 6.08008 318.697 7.15723c-0.857422 -1.42676 -1.66992 -2.99023 -2.4248 -4.68652c-4.19824 -9.42969 -7.70996 -515.003 -7.70996 -515.003
l-10.0273 -41.3154c-7.06445 -29.1064 -13.6611 -55.2715 -19.7256 -78.2754c-68.9424 3.59082 -360.716 6.39355 -360.716 6.39355l-41.3154 10.0273c-100.174 24.3145 -165.504 43.0791 -187.049 53.7275c-17.2617 8.53125 -31.6641 8.73926 -37.5225 0.542969
c-2.37695 -3.32617 -4.3584 -7.23145 -4.3584 -8.5918c0 -4.19922 6.25977 -14.1348 15.8896 -25.2197c10.9482 -12.6045 19.418 -33.2578 25.5732 -62.3584c4.27441 -20.209 8.36914 -22.3535 3.64355 -68.3604c-0.911133 -8.86816 -4.97656 -59.4033 -3.64941 -59.4033
c1.32227 0 10.0449 5.70312 19.3838 12.6738c30.166 22.5166 55.7471 37.5723 94.7979 55.7939c51.0723 23.8301 73.4678 22.9355 131.02 39.7041c0 0 249.759 10.4971 336.146 14.8848c-10.9619 -39.4736 -19.7383 -66.2314 -25.8457 -78.5879
c-8.53125 -17.2617 -8.73926 -31.6641 -0.542969 -37.5225c3.32617 -2.37695 7.23145 -4.3584 8.5918 -4.3584c4.19922 0 14.1348 6.25977 25.2197 15.8896c12.6045 10.9482 33.2578 19.418 62.3584 25.5732c20.209 4.27441 22.3535 8.36914 68.3604 3.64355
c8.86816 -0.911133 59.4033 -4.97656 59.4033 -3.64941c0 1.32227 -5.70312 10.0449 -12.6738 19.3838c-22.5166 30.166 -37.5723 55.7471 -55.7939 94.7979c-23.8301 51.0723 -22.9355 73.4678 -39.7041 131.02c0 0 -15.1748 501.07 -16.6611 505.098
c-2.15625 5.8418 -5.73926 8.75977 -9.75684 8.99121c0 0.0234375 -0.00195312 0.0458984 -0.00195312 0.0683594c-0.177734 5.6875 -5.56445 12.0947 -15.5098 16.5225c-4.16602 1.85547 -159.859 3.57617 -332.361 4.91895
c-5.5127 16.4932 -10.6299 33.4043 -15.3701 50.7803c-1.31055 4.80762 -4.66895 6.85352 -7.92773 6.75195c-4.26562 -0.133789 -13.293 -3.51855 -12.3916 -11.6328c1.46387 -13.1729 -0.134766 -28.6406 -4.10938 -45.5977
c-206.837 1.52344 -422.843 2.48926 -422.843 2.48926l-41.3154 10.0273c-100.174 24.3145 -165.504 43.0791 -187.049 53.7275c-17.2617 8.53125 -31.6641 8.73926 -37.5225 0.542969c-2.37695 -3.32617 -4.3584 -7.23145 -4.3584 -8.5918
c0 -4.19922 6.25977 -14.1348 15.8896 -25.2197c10.9482 -12.6045 19.418 -33.2578 25.5732 -62.3584c4.27441 -20.209 8.36914 -22.3535 3.64355 -68.3604c-0.911133 -8.86816 -4.97656 -59.4033 -3.64941 -59.4033c1.32227 0 10.0449 5.70312 19.3838 12.6738
c30.166 22.5166 55.7471 37.5723 94.7979 55.7939c49.7793 23.2266 72.3154 22.9648 126.715 38.4639c-1.08594 -23.4434 -2.10449 -76.1748 -3.00293 -139.042c-37.1953 3.75879 -229.105 6.74609 -229.105 6.74609l-41.3154 10.0273
c-100.174 24.3145 -165.504 43.0791 -187.049 53.7275c-17.2617 8.53125 -31.6641 8.73926 -37.5225 0.542969c-2.37695 -3.32617 -4.3584 -7.23145 -4.3584 -8.5918c0 -4.19922 6.25977 -14.1348 15.8896 -25.2197c10.9482 -12.6045 19.418 -33.2578 25.5732 -62.3584
c4.27441 -20.209 8.36914 -22.3535 3.64355 -68.3604c-0.911133 -8.86816 -4.97656 -59.4033 -3.64941 -59.4033c1.32227 0 10.0449 5.70312 19.3838 12.6738c30.166 22.5166 55.7471 37.5723 94.7979 55.7939c51.0723 23.8301 73.4678 22.9355 131.02 39.7041
c0 0 164.515 11.293 212.291 15.3486c-1.94824 -148.339 -3.23535 -333.688 -3.23535 -333.688l-1.57617 -6.49414c-47.1016 3.54492 -223.893 6.29688 -223.893 6.29688l-41.3154 10.0273c-100.174 24.3145 -165.504 43.0791 -187.049 53.7275
c-17.2617 8.53125 -31.6641 8.73926 -37.5225 0.542969c-2.37695 -3.32617 -4.3584 -7.23145 -4.3584 -8.5918c0 -4.19922 6.25977 -14.1348 15.8896 -25.2197c10.9482 -12.6045 19.418 -33.2578 25.5732 -62.3584c4.27441 -20.209 8.36914 -22.3535 3.64355 -68.3604
c-0.911133 -8.86816 -4.97656 -59.4033 -3.64941 -59.4033c1.32227 0 10.0449 5.70312 19.3838 12.6738c30.166 22.5166 55.7471 37.5723 94.7979 55.7939c51.0723 23.8301 73.4678 22.9355 131.02 39.7041c0 0 141.258 9.69629 199.999 14.3467l-0.970703 -4.00098
c-24.3145 -100.174 -43.0791 -165.504 -53.7275 -187.049c-8.53125 -17.2617 -8.73926 -31.6641 -0.542969 -37.5225c3.32617 -2.37695 7.23145 -4.3584 8.5918 -4.3584c4.19922 0 14.1348 6.25977 25.2197 15.8896c12.6045 10.9482 33.2578 19.418 62.3584 25.5732
c20.209 4.27441 22.3535 8.36914 68.3604 3.64355c8.86816 -0.911133 59.4033 -4.97656 59.4033 -3.64941c0 1.32227 -5.70312 10.0449 -12.6738 19.3838c-22.5166 30.166 -37.5723 55.7471 -55.7939 94.7979c-23.8301 51.0723 -22.9355 73.4678 -39.7041 131.02
c0 0 -12.0518 397.944 -15.7266 487.409c58.8906 1.15039 213.868 4.19141 368.66 7.33887c-36.8926 -96.0703 -122.29 -215.038 -164.013 -248.775zM370.245 451.941l-41.3154 10.0273c-100.174 24.3145 -165.504 43.0791 -187.049 53.7275
c-17.2617 8.53125 -31.6641 8.73926 -37.5225 0.542969c-2.37695 -3.32617 -4.3584 -7.23145 -4.3584 -8.5918c0 -4.19922 6.25977 -14.1348 15.8896 -25.2197c10.9482 -12.6045 19.418 -33.2578 25.5732 -62.3584c4.27441 -20.209 8.36914 -22.3535 3.64355 -68.3604
c-0.911133 -8.86816 -4.97656 -59.4033 -3.64941 -59.4033c1.32227 0 10.0449 5.70312 19.3838 12.6738c30.166 22.5166 55.7471 37.5723 94.7979 55.7939c51.0723 23.8301 73.4678 22.9355 131.02 39.7041c0 0 55.0703 15.1748 59.0977 16.6611
c6.2334 2.30078 9.1377 6.22559 9.00195 10.5703c-0.177734 5.6875 -5.56445 12.0947 -15.5098 16.5225c-9.42969 4.19824 -69.0029 7.70996 -69.0029 7.70996z" />
</svg>
