<?xml version="1.0" standalone="no"?>
<!DOCTYPE svg PUBLIC "-//W3C//DTD SVG 1.1//EN" "http://www.w3.org/Graphics/SVG/1.1/DTD/svg11.dtd" >
<svg xmlns="http://www.w3.org/2000/svg" xmlns:xlink="http://www.w3.org/1999/xlink" version="1.1" viewBox="0 0 1726 897">
   <path fill="currentColor"
d="M1033.18 414.673l-7.52051 -30.9863c-18.2354 -75.1309 -32.3086 -124.128 -40.2949 -140.287c-6.39844 -12.9463 -6.55469 -23.748 -0.407227 -28.1416c2.49414 -1.7832 5.42285 -3.26855 6.44336 -3.26855c3.14941 0 10.6016 4.69434 18.915 11.917
c9.45312 8.21094 24.9434 14.5635 46.7686 19.1797c15.1572 3.20605 16.7656 6.27734 51.2705 2.73242c6.65137 -0.682617 44.5527 -3.73242 44.5527 -2.73633c0 0.991211 -4.27734 7.5332 -9.50586 14.5371c-16.8877 22.625 -28.1787 41.8105 -41.8457 71.0986
c-17.8721 38.3047 -17.2012 55.1006 -29.7773 98.2646c0 0 -8.16309 269.529 -11.3398 353.903c207.345 4.15234 463.496 9.42383 505.408 10.9424c-0.857422 -1.42676 -1.66992 -2.99023 -2.4248 -4.68652c-2.01758 -4.53125 -3.87598 -123.637 -5.26367 -246.151
c-52.0801 2.6875 -270.33 4.78418 -270.33 4.78418l-30.9863 7.52051c-75.1299 18.2363 -124.128 32.3096 -140.286 40.2959c-12.9463 6.39844 -23.748 6.55469 -28.1426 0.407227c-1.78223 -2.49414 -3.26855 -5.42383 -3.26855 -6.44336
c0 -3.14941 4.69531 -10.6016 11.917 -18.915c8.21191 -9.45312 14.5635 -24.9434 19.1807 -46.7686c3.20508 -15.1572 6.27637 -16.7656 2.73242 -51.2705c-0.683594 -6.65137 -3.73242 -44.5527 -2.7373 -44.5527c0.992188 0 7.53418 4.27734 14.5381 9.50586
c22.624 16.8867 41.8105 28.1787 71.0986 41.8447c38.3037 17.873 55.1006 17.2021 98.2646 29.7783c0 0 199.111 8.36816 257.772 11.4561c-1.35547 -124.988 -2.19922 -246.494 -2.19922 -246.494l-10.0273 -41.3154
c-7.06445 -29.1064 -13.6611 -55.2715 -19.7256 -78.2754c-68.9424 3.59082 -360.716 6.39355 -360.716 6.39355l-41.3154 10.0273c-100.174 24.3145 -165.504 43.0791 -187.049 53.7275c-17.2617 8.53125 -31.6641 8.73926 -37.5225 0.542969
c-2.37695 -3.32617 -4.3584 -7.23145 -4.3584 -8.5918c0 -4.19922 6.25977 -14.1348 15.8896 -25.2197c10.9482 -12.6045 19.418 -33.2578 25.5732 -62.3584c4.27441 -20.209 8.36914 -22.3535 3.64355 -68.3604c-0.911133 -8.86816 -4.97656 -59.4033 -3.64941 -59.4033
c1.32227 0 10.0449 5.70312 19.3838 12.6738c30.166 22.5166 55.7471 37.5723 94.7979 55.7939c51.0723 23.8301 73.4678 22.9355 131.02 39.7041c0 0 249.759 10.4971 336.146 14.8848c-10.9619 -39.4736 -19.7383 -66.2314 -25.8457 -78.5879
c-8.53125 -17.2617 -8.73926 -31.6641 -0.542969 -37.5225c3.32617 -2.37695 7.23145 -4.3584 8.5918 -4.3584c4.19922 0 14.1348 6.25977 25.2197 15.8896c12.6045 10.9482 33.2578 19.418 62.3584 25.5732c20.209 4.27441 22.3535 8.36914 68.3604 3.64355
c8.86816 -0.911133 59.4033 -4.97656 59.4033 -3.64941c0 1.32227 -5.70312 10.0449 -12.6738 19.3838c-22.5166 30.166 -37.5723 55.7471 -55.7939 94.7979c-23.8301 51.0723 -22.9355 73.4678 -39.7041 131.02c0 0 -15.1748 501.07 -16.6611 505.098
c-2.15625 5.8418 -5.73926 8.75977 -9.75684 8.99121c0 0.0234375 -0.00195312 0.0458984 -0.00195312 0.0683594c-0.177734 5.6875 -5.56445 12.0947 -15.5098 16.5225c-9.42969 4.19824 -795.003 7.70996 -795.003 7.70996l-41.3154 10.0273
c-100.174 24.3145 -165.504 43.0791 -187.049 53.7275c-17.2617 8.53125 -31.6641 8.73926 -37.5225 0.542969c-2.37695 -3.32617 -4.3584 -7.23145 -4.3584 -8.5918c0 -4.19922 6.25977 -14.1348 15.8896 -25.2197c10.9482 -12.6045 19.418 -33.2578 25.5732 -62.3584
c4.27441 -20.209 8.36914 -22.3535 3.64355 -68.3604c-0.911133 -8.86816 -4.97656 -59.4033 -3.64941 -59.4033c1.32227 0 10.0449 5.70312 19.3838 12.6738c30.166 22.5166 55.7471 37.5723 94.7979 55.7939c49.7793 23.2266 72.3154 22.9648 126.715 38.4639
c-1.08594 -23.4434 -2.10449 -76.1748 -3.00293 -139.042c-37.1953 3.75879 -229.105 6.74609 -229.105 6.74609l-41.3154 10.0273c-100.174 24.3145 -165.504 43.0791 -187.049 53.7275c-17.2617 8.53125 -31.6641 8.73926 -37.5225 0.542969
c-2.37695 -3.32617 -4.3584 -7.23145 -4.3584 -8.5918c0 -4.19922 6.25977 -14.1348 15.8896 -25.2197c10.9482 -12.6045 19.418 -33.2578 25.5732 -62.3584c4.27441 -20.209 8.36914 -22.3535 3.64355 -68.3604c-0.911133 -8.86816 -4.97656 -59.4033 -3.64941 -59.4033
c1.32227 0 10.0449 5.70312 19.3838 12.6738c30.166 22.5166 55.7471 37.5723 94.7979 55.7939c51.0723 23.8301 73.4678 22.9355 131.02 39.7041c0 0 164.515 11.293 212.291 15.3486c-1.94824 -148.339 -3.23535 -333.688 -3.23535 -333.688l-1.57617 -6.49414
c-47.1016 3.54492 -223.893 6.29688 -223.893 6.29688l-41.3154 10.0273c-100.174 24.3145 -165.504 43.0791 -187.049 53.7275c-17.2617 8.53125 -31.6641 8.73926 -37.5225 0.542969c-2.37695 -3.32617 -4.3584 -7.23145 -4.3584 -8.5918
c0 -4.19922 6.25977 -14.1348 15.8896 -25.2197c10.9482 -12.6045 19.418 -33.2578 25.5732 -62.3584c4.27441 -20.209 8.36914 -22.3535 3.64355 -68.3604c-0.911133 -8.86816 -4.97656 -59.4033 -3.64941 -59.4033c1.32227 0 10.0449 5.70312 19.3838 12.6738
c30.166 22.5166 55.7471 37.5723 94.7979 55.7939c51.0723 23.8301 73.4678 22.9355 131.02 39.7041c0 0 141.258 9.69629 199.999 14.3467l-0.970703 -4.00098c-24.3145 -100.174 -43.0791 -165.504 -53.7275 -187.049
c-8.53125 -17.2617 -8.73926 -31.6641 -0.542969 -37.5225c3.32617 -2.37695 7.23145 -4.3584 8.5918 -4.3584c4.19922 0 14.1348 6.25977 25.2197 15.8896c12.6045 10.9482 33.2578 19.418 62.3584 25.5732c20.209 4.27441 22.3535 8.36914 68.3604 3.64355
c8.86816 -0.911133 59.4033 -4.97656 59.4033 -3.64941c0 1.32227 -5.70312 10.0449 -12.6738 19.3838c-22.5166 30.166 -37.5723 55.7471 -55.7939 94.7979c-23.8301 51.0723 -22.9355 73.4678 -39.7041 131.02c0 0 -12.0518 397.944 -15.7266 487.409
c40.4707 0.791016 126.318 2.47363 226.3 4.4707c-2.58398 -80.0029 -4.56934 -365.759 -4.56934 -365.759zM370.245 451.941l-41.3154 10.0273c-100.174 24.3145 -165.504 43.0791 -187.049 53.7275c-17.2617 8.53125 -31.6641 8.73926 -37.5225 0.542969
c-2.37695 -3.32617 -4.3584 -7.23145 -4.3584 -8.5918c0 -4.19922 6.25977 -14.1348 15.8896 -25.2197c10.9482 -12.6045 19.418 -33.2578 25.5732 -62.3584c4.27441 -20.209 8.36914 -22.3535 3.64355 -68.3604c-0.911133 -8.86816 -4.97656 -59.4033 -3.64941 -59.4033
c1.32227 0 10.0449 5.70312 19.3838 12.6738c30.166 22.5166 55.7471 37.5723 94.7979 55.7939c51.0723 23.8301 73.4678 22.9355 131.02 39.7041c0 0 55.0703 15.1748 59.0977 16.6611c6.2334 2.30078 9.1377 6.22559 9.00195 10.5703
c-0.177734 5.6875 -5.56445 12.0947 -15.5098 16.5225c-9.42969 4.19824 -69.0029 7.70996 -69.0029 7.70996z" />
</svg>
