<?xml version="1.0" standalone="no"?>
<!DOCTYPE svg PUBLIC "-//W3C//DTD SVG 1.1//EN" "http://www.w3.org/Graphics/SVG/1.1/DTD/svg11.dtd" >
<svg xmlns="http://www.w3.org/2000/svg" xmlns:xlink="http://www.w3.org/1999/xlink" version="1.1" viewBox="0 0 1151 799">
   <path fill="currentColor"
d="M745.457 274.308l-36.3047 -22.124c-88.0264 -53.6406 -147.491 -86.5674 -170.255 -94.2725c-18.2383 -6.17285 -28.5693 -16.21 -26.916 -26.1484c0.670898 -4.03223 2.03125 -8.19531 2.99316 -9.15723c2.96875 -2.96875 14.4209 -5.56836 29.0684 -6.59668
c16.6543 -1.17188 37.248 -9.78711 62.1777 -26.0117c17.3125 -11.2676 21.7236 -9.88867 50.9141 -45.7617c5.62695 -6.91504 38.4854 -45.5234 39.4238 -44.585c0.935547 0.935547 3.07031 11.1357 4.74512 22.668c5.40918 37.2529 12.8516 65.9873 27.5801 106.485
c19.2627 52.9639 35.7314 68.167 64.5693 120.72c0 0 22.7041 24.1221 56.4697 60.0312c152.193 3.1582 280.209 5.98438 281.833 6.58398c6.2334 2.30078 9.1377 6.22559 9.00195 10.5703c-0.177734 5.6875 -5.56445 12.0947 -15.5098 16.5225
c-3.40039 1.51367 -107.738 2.93848 -239.771 4.1416c58.0703 61.7832 131.836 140.339 184.776 196.969c37.7852 0.899414 60.8203 1.54492 61.5029 1.79688c6.2334 2.30078 9.1377 6.22559 9.00195 10.5703c-0.177734 5.6875 -5.56445 12.0947 -15.5098 16.5225
c-0.990234 0.44043 -10.5303 0.874023 -26.8164 1.2959c24.4023 26.1885 40.0186 43.1123 40.3984 43.9355c2.78027 6.03418 2.05957 10.8633 -1.10938 13.8389c-4.14746 3.89648 -12.4863 4.61816 -22.6494 0.716797
c-2.40918 -0.924805 -26.708 -23.7998 -61.8027 -57.5947c-64.1523 1.03613 -163.885 1.98535 -268.994 2.79297c91.4219 97.3643 189.598 202.166 190.556 204.246c2.78027 6.03418 2.05957 10.8633 -1.10938 13.8389c-4.14746 3.89648 -12.4863 4.61816 -22.6494 0.716797
c-5.50098 -2.11133 -125.143 -118.682 -226.833 -218.358c-197.581 1.40332 -393.993 2.28125 -393.993 2.28125l-41.3154 10.0273c-100.174 24.3145 -165.504 43.0791 -187.049 53.7275c-17.2617 8.53125 -31.6641 8.73926 -37.5225 0.542969
c-2.37695 -3.32617 -4.3584 -7.23145 -4.3584 -8.5918c0 -4.19922 6.25977 -14.1348 15.8896 -25.2197c10.9482 -12.6045 19.418 -33.2578 25.5732 -62.3584c4.27441 -20.209 8.36914 -22.3535 3.64355 -68.3604c-0.911133 -8.86816 -4.97656 -59.4033 -3.64941 -59.4033
c1.32227 0 10.0449 5.70312 19.3838 12.6738c30.166 22.5166 55.7471 37.5723 94.7979 55.7939c51.0723 23.8301 73.4678 22.9355 131.02 39.7041c0 0 159.187 3.09277 334.201 6.62207c-56.54 -55.5215 -99.4023 -97.792 -99.4023 -97.792l-36.3047 -22.124
c-45.3076 -27.6094 -83.0488 -49.7305 -112.113 -65.75c-62.4766 0.327148 -102.794 0.507812 -102.794 0.507812l-41.3154 10.0273c-100.174 24.3145 -165.504 43.0791 -187.049 53.7275c-17.2617 8.53125 -31.6641 8.73926 -37.5225 0.542969
c-2.37695 -3.32617 -4.3584 -7.23145 -4.3584 -8.5918c0 -4.19922 6.25977 -14.1348 15.8896 -25.2197c10.9482 -12.6045 19.418 -33.2578 25.5732 -62.3584c4.27441 -20.209 8.36914 -22.3535 3.64355 -68.3604c-0.911133 -8.86816 -4.97656 -59.4033 -3.64941 -59.4033
c1.32227 0 10.0449 5.70312 19.3838 12.6738c30.166 22.5166 55.7471 37.5723 94.7979 55.7939c51.0723 23.8301 73.4678 22.9355 131.02 39.7041c0 0 0.426758 0.0078125 1.25879 0.0244141c-0.162109 -1.24316 -0.143555 -2.49219 0.0644531 -3.73926
c0.670898 -4.03223 2.03125 -8.19531 2.99316 -9.15723c2.96875 -2.96875 14.4209 -5.56836 29.0684 -6.59668c16.6543 -1.17188 37.248 -9.78711 62.1777 -26.0117c17.3125 -11.2676 21.7236 -9.88867 50.9141 -45.7617c5.62695 -6.91504 38.4854 -45.5234 39.4238 -44.585
c0.935547 0.935547 3.07031 11.1357 4.74512 22.668c5.40918 37.2529 12.8516 65.9873 27.5801 106.485c1.41016 3.87793 2.80566 7.55371 4.19238 11.0566c65.5996 1.30664 139.058 2.78223 210.695 4.24805c-21.2363 -20.9033 -34.3145 -33.8008 -34.3145 -33.8008z
M820.26 347.933c-75.5049 0.613281 -155.722 1.1543 -228.915 1.60254c10.7012 18.3135 22.6211 35.7646 38.1084 63.9883c0 0 52.4658 55.7422 116.5 123.896c100.773 2.05078 200.954 4.1377 273.969 5.76758c-62.1514 -60.2734 -142.101 -138.678 -199.662 -195.254z" />
</svg>
