<?xml version="1.0" standalone="no"?>
<!DOCTYPE svg PUBLIC "-//W3C//DTD SVG 1.1//EN" "http://www.w3.org/Graphics/SVG/1.1/DTD/svg11.dtd" >
<svg xmlns="http://www.w3.org/2000/svg" xmlns:xlink="http://www.w3.org/1999/xlink" version="1.1" viewBox="0 0 1272 799">
   <path fill="currentColor"
d="M381.352 54.2471c9.90625 -12.1133 27.5576 -6.38281 23.625 8.60352c-13.8916 52.9434 -79.998 134.799 -116.02 255.482c-29.1738 97.7432 24.9961 224.656 87.4512 307.098c35.8438 47.3125 75.3789 131.75 66.0547 141.074
c-3.80078 3.80273 -17.4707 -13.332 -30.5371 -38.2793c-13.0117 -24.8379 -53.6855 -76.1289 -90.3887 -113.979c-62.3594 -64.3086 -88.1055 -82.2109 -213.697 -148.596c-47.8047 -25.2676 -73.8838 -57.3984 -9.46289 -83.7461
c30.2852 -12.3867 140.34 -110.771 163.344 -129.905c44 -36.5967 50.6055 -113.348 119.631 -197.753zM1115.63 353.171c1.14746 -1.28809 2.23828 -2.56543 3.26953 -3.82715c-1.20312 0.676758 -2.29492 1.9834 -3.26953 3.82715zM915.626 353.171
c1.14746 -1.28809 2.23828 -2.56543 3.26953 -3.82715c-1.20312 0.676758 -2.29492 1.9834 -3.26953 3.82715zM715.626 353.171c1.14746 -1.28809 2.23828 -2.56543 3.26953 -3.82715c-1.20312 0.676758 -2.29492 1.9834 -3.26953 3.82715zM730.02 728.941l-41.3154 10.0273
c-100.174 24.3145 -165.504 43.0791 -187.049 53.7275c-17.2617 8.53125 -31.6641 8.73926 -37.5225 0.542969c-2.37695 -3.32617 -4.3584 -7.23145 -4.3584 -8.5918c0 -4.19922 6.25977 -14.1348 15.8896 -25.2197c10.9482 -12.6045 19.418 -33.2578 25.5732 -62.3584
c4.27441 -20.209 8.36914 -22.3535 3.64355 -68.3604c-0.911133 -8.86816 -4.97656 -59.4033 -3.64941 -59.4033c1.32227 0 10.0449 5.70312 19.3838 12.6738c30.166 22.5166 55.7471 37.5723 94.7979 55.7939c51.0723 23.8301 73.4678 22.9355 131.02 39.7041
c0 0 501.07 15.1748 505.098 16.6611c6.2334 2.30078 9.1377 6.22559 9.00195 10.5703c-0.177734 5.6875 -5.56445 12.0947 -15.5098 16.5225c-9.42969 4.19824 -515.003 7.70996 -515.003 7.70996zM252.578 313.84
c0.388672 -0.288086 0.769531 -0.568359 1.14258 -0.839844c-0.389648 0.219727 -0.770508 0.5 -1.14258 0.839844zM730.02 158.941l-41.3154 10.0273c-100.174 24.3145 -165.504 43.0791 -187.049 53.7275c-17.2617 8.53125 -31.6641 8.73926 -37.5225 0.542969
c-2.37695 -3.32617 -4.3584 -7.23145 -4.3584 -8.5918c0 -4.19922 6.25977 -14.1348 15.8896 -25.2197c10.9482 -12.6045 19.418 -33.2578 25.5732 -62.3584c4.27441 -20.209 8.36914 -22.3535 3.64355 -68.3604c-0.911133 -8.86816 -4.97656 -59.4033 -3.64941 -59.4033
c1.32227 0 10.0449 5.70312 19.3838 12.6738c30.166 22.5166 55.7471 37.5723 94.7979 55.7939c51.0723 23.8301 73.4678 22.9355 131.02 39.7041c0 0 501.07 15.1748 505.098 16.6611c6.2334 2.30078 9.1377 6.22559 9.00195 10.5703
c-0.177734 5.6875 -5.56445 12.0947 -15.5098 16.5225c-0.322266 0.143555 -1.22461 0.286133 -2.66602 0.427734c-0.00585938 0.0244141 -0.0126953 0.0488281 -0.0185547 0.0732422c-10.4199 39.707 -59.999 101.099 -87.0156 191.611
c-21.8799 73.3076 18.748 168.492 65.5889 230.323c26.8828 35.4844 46.5342 98.8125 39.541 105.806c-2.85059 2.85156 -13.1025 -9.99902 -22.9033 -28.709c-9.75781 -18.6289 -40.2637 -57.0977 -67.791 -85.4844c-46.7695 -48.2314 -66.0791 -61.6582 -160.273 -111.447
c-35.8535 -18.9502 -55.4121 -43.0488 -7.09668 -62.8086c22.7139 -9.29102 105.255 -83.0791 122.508 -97.4297c31.6299 -26.3086 37.4941 -80.2852 83.5146 -140.465c-37.5879 1.05566 -99.8906 2.0293 -167.312 2.86621
c-12.6328 39.791 -59.708 100.014 -85.7754 187.349c-21.8799 73.3076 18.748 168.492 65.5889 230.323c26.8828 35.4844 46.5342 98.8125 39.541 105.806c-2.85059 2.85156 -13.1025 -9.99902 -22.9033 -28.709c-9.75781 -18.6289 -40.2637 -57.0977 -67.791 -85.4844
c-46.7695 -48.2314 -66.0791 -61.6582 -160.273 -111.447c-35.8535 -18.9502 -55.4121 -43.0488 -7.09668 -62.8086c22.7139 -9.29102 105.255 -83.0791 122.508 -97.4297c31.0537 -25.8281 37.2715 -78.3262 81.0371 -137.18
c-57.8486 0.664062 -116.938 1.22461 -165.516 1.64746c-13.5625 39.7988 -59.4746 99.4453 -85.0947 185.282c-21.8799 73.3076 18.748 168.492 65.5889 230.323c26.8828 35.4844 46.5342 98.8125 39.541 105.806c-2.85059 2.85156 -13.1025 -9.99902 -22.9033 -28.709
c-9.75781 -18.6289 -40.2637 -57.0977 -67.791 -85.4844c-46.7695 -48.2314 -66.0791 -61.6582 -160.273 -111.447c-35.8535 -18.9502 -55.4121 -43.0488 -7.09668 -62.8086c22.7139 -9.29102 105.255 -83.0791 122.508 -97.4297
c30.71 -25.543 37.1309 -77.167 79.5977 -135.228c-44.9336 0.370117 -74.4736 0.575195 -74.4736 0.575195z" />
</svg>
