<?xml version="1.0" standalone="no"?>
<!DOCTYPE svg PUBLIC "-//W3C//DTD SVG 1.1//EN" "http://www.w3.org/Graphics/SVG/1.1/DTD/svg11.dtd" >
<svg xmlns="http://www.w3.org/2000/svg" xmlns:xlink="http://www.w3.org/1999/xlink" version="1.1" viewBox="0 0 1364 631">
   <path fill="currentColor"
d="M1034.79 45.3076l36.3047 22.124c88.0264 53.6406 147.491 86.5674 170.255 94.2725c18.2383 6.17285 28.5693 16.21 26.916 26.1484c-0.670898 4.03223 -2.03125 8.19531 -2.99316 9.15723c-2.96973 2.96875 -14.4209 5.56836 -29.0684 6.59668
c-16.6543 1.17188 -37.248 9.78613 -62.1777 26.0117c-17.3125 11.2666 -21.7236 9.8877 -50.9141 45.7617c-5.62695 6.91504 -38.4854 45.5234 -39.4238 44.585c-0.935547 -0.935547 -3.07031 -11.1357 -4.74512 -22.6689
c-5.40918 -37.252 -12.8516 -65.9863 -27.5801 -106.484c-19.2627 -52.9639 -35.7314 -68.167 -64.5693 -120.72c0 0 -28.2109 -49.6709 -30.0068 -53.5693c-2.78125 -6.03516 -2.05957 -10.8633 1.1084 -13.8398c4.14746 -3.89551 12.4873 -4.61719 22.6504 -0.71582
c9.63672 3.69922 54.2441 43.3408 54.2441 43.3408zM829.729 250.369l36.3047 22.124c88.0264 53.6406 147.49 86.5674 170.255 94.2715c18.2383 6.17383 28.5693 16.2109 26.916 26.1494c-0.670898 4.03223 -2.03125 8.19434 -2.99316 9.15625
c-2.96973 2.96973 -14.4219 5.56934 -29.0693 6.59766c-16.6543 1.1709 -37.2471 9.78613 -62.1768 26.0107c-17.3125 11.2676 -21.7246 9.88867 -50.915 45.7617c-5.62598 6.91504 -38.4854 45.5234 -39.4238 44.5859
c-0.93457 -0.935547 -3.07031 -11.1357 -4.74414 -22.6689c-5.40918 -37.252 -12.8516 -65.9863 -27.5801 -106.484c-19.2637 -52.9639 -35.7314 -68.167 -64.5703 -120.72c0 0 -28.21 -49.6709 -30.0068 -53.5693c-2.78027 -6.03516 -2.05859 -10.8633 1.10938 -13.8398
c4.14746 -3.89648 12.4863 -4.61719 22.6504 -0.71582c9.63574 3.69922 54.2441 43.3408 54.2441 43.3408zM1119.64 356.435l36.3047 22.124c88.0264 53.6406 147.49 86.5674 170.254 94.2725c18.2393 6.17383 28.5703 16.21 26.917 26.1484
c-0.671875 4.0332 -2.03223 8.19531 -2.99414 9.15723c-2.96875 2.96973 -14.4209 5.56836 -29.0684 6.59766c-16.6543 1.1709 -37.2471 9.78613 -62.1768 26.0107c-17.3125 11.2676 -21.7246 9.88867 -50.915 45.7617c-5.62598 6.91504 -38.4854 45.5234 -39.4238 44.585
c-0.93457 -0.93457 -3.07031 -11.1357 -4.74414 -22.668c-5.40918 -37.252 -12.8516 -65.9873 -27.5801 -106.484c-19.2637 -52.9639 -35.7314 -68.168 -64.5703 -120.72c0 0 -28.21 -49.6709 -30.0068 -53.5703c-2.78027 -6.03418 -2.05957 -10.8633 1.10938 -13.8389
c4.14746 -3.89648 12.4863 -4.61816 22.6494 -0.716797c9.63672 3.69922 54.2451 43.3408 54.2451 43.3408zM378.502 585.177l-36.3047 -22.124c-88.0264 -53.6406 -147.491 -86.5674 -170.255 -94.2725c-18.2383 -6.17285 -28.5693 -16.21 -26.916 -26.1484
c0.670898 -4.03223 2.03125 -8.19531 2.99316 -9.15723c2.96973 -2.96875 14.4209 -5.56836 29.0684 -6.59668c16.6543 -1.17188 37.248 -9.78613 62.1777 -26.0117c17.3125 -11.2666 21.7236 -9.8877 50.9141 -45.7617c5.62695 -6.91504 38.4854 -45.5234 39.4238 -44.585
c0.935547 0.935547 3.07031 11.1357 4.74512 22.6689c5.40918 37.252 12.8516 65.9863 27.5801 106.484c19.2627 52.9639 35.7314 68.167 64.5693 120.72c0 0 28.2109 49.6709 30.0068 53.5693c2.78125 6.03516 2.05957 10.8633 -1.1084 13.8398
c-4.14746 3.89551 -12.4873 4.61719 -22.6504 0.71582c-9.63672 -3.69922 -54.2441 -43.3408 -54.2441 -43.3408zM583.562 380.115l-36.3047 -22.124c-88.0264 -53.6406 -147.49 -86.5674 -170.255 -94.2715c-18.2383 -6.17383 -28.5693 -16.2109 -26.916 -26.1494
c0.670898 -4.03223 2.03125 -8.19434 2.99316 -9.15625c2.96973 -2.96973 14.4219 -5.56934 29.0693 -6.59766c16.6543 -1.1709 37.2471 -9.78613 62.1768 -26.0107c17.3125 -11.2676 21.7246 -9.88867 50.915 -45.7617c5.62598 -6.91504 38.4854 -45.5234 39.4238 -44.5859
c0.93457 0.935547 3.07031 11.1357 4.74414 22.6689c5.40918 37.252 12.8516 65.9863 27.5801 106.484c19.2637 52.9639 35.7314 68.167 64.5703 120.72c0 0 28.21 49.6709 30.0068 53.5693c2.78027 6.03516 2.05859 10.8633 -1.10938 13.8398
c-4.14746 3.89648 -12.4863 4.61719 -22.6504 0.71582c-9.63574 -3.69922 -54.2441 -43.3408 -54.2441 -43.3408zM293.648 274.05l-36.3047 -22.124c-88.0264 -53.6406 -147.49 -86.5674 -170.254 -94.2725c-18.2393 -6.17383 -28.5703 -16.21 -26.917 -26.1484
c0.671875 -4.0332 2.03223 -8.19531 2.99414 -9.15723c2.96875 -2.96973 14.4209 -5.56836 29.0684 -6.59766c16.6543 -1.1709 37.2471 -9.78613 62.1768 -26.0107c17.3125 -11.2676 21.7246 -9.88867 50.915 -45.7617c5.62598 -6.91504 38.4854 -45.5234 39.4238 -44.585
c0.93457 0.93457 3.07031 11.1357 4.74414 22.668c5.40918 37.252 12.8516 65.9873 27.5801 106.484c19.2637 52.9639 35.7314 68.168 64.5703 120.72c0 0 28.21 49.6709 30.0068 53.5703c2.78027 6.03418 2.05957 10.8633 -1.10938 13.8389
c-4.14746 3.89648 -12.4863 4.61816 -22.6494 0.716797c-9.63672 -3.69922 -54.2451 -43.3408 -54.2451 -43.3408z" />
</svg>
