<?xml version="1.0" standalone="no"?>
<!DOCTYPE svg PUBLIC "-//W3C//DTD SVG 1.1//EN" "http://www.w3.org/Graphics/SVG/1.1/DTD/svg11.dtd" >
<svg xmlns="http://www.w3.org/2000/svg" xmlns:xlink="http://www.w3.org/1999/xlink" version="1.1" viewBox="0 0 960 895">
   <path fill="currentColor"
d="M429.818 496.673l-7.52051 -30.9863c-18.2354 -75.1309 -32.3096 -124.128 -40.2959 -140.287c-6.39844 -12.9463 -6.55371 -23.748 -0.407227 -28.1416c2.49512 -1.7832 5.42383 -3.26855 6.44434 -3.26855c3.14941 0 10.6006 4.69434 18.915 11.917
c9.45312 8.21094 24.9434 14.5635 46.7686 19.1797c15.1562 3.20605 16.7646 6.27734 51.2705 2.73242c6.65039 -0.682617 44.5518 -3.73242 44.5518 -2.73633c0 0.991211 -4.27734 7.5332 -9.50488 14.5371c-16.8877 22.625 -28.1797 41.8105 -41.8457 71.0986
c-17.8721 38.3047 -17.2012 55.1006 -29.7783 98.2646c0 0 -11.3809 375.803 -12.4951 378.823c-1.72559 4.6748 -4.66992 6.85352 -7.92773 6.75195c-4.26562 -0.133789 -9.07129 -4.17383 -12.3926 -11.6328c-3.14844 -7.07227 -5.78223 -386.252 -5.78223 -386.252z
M602.318 706.673l-7.52051 -30.9863c-18.2354 -75.1309 -32.3096 -124.128 -40.2959 -140.287c-6.39844 -12.9463 -6.55371 -23.748 -0.407227 -28.1416c2.49512 -1.7832 5.42383 -3.26855 6.44434 -3.26855c3.14941 0 10.6006 4.69434 18.915 11.917
c6.01855 5.22852 14.4854 9.70312 25.4766 13.4561c-1.56445 -14.9043 -2.6123 -32.6895 -2.6123 -32.6895l-7.52051 -30.9863c-18.2354 -75.1309 -32.3096 -124.128 -40.2959 -140.287c-6.39844 -12.9463 -6.55371 -23.748 -0.407227 -28.1416
c2.49512 -1.7832 5.42383 -3.26855 6.44434 -3.26855c3.14941 0 10.6006 4.69434 18.915 11.917c9.45312 8.21094 24.9434 14.5635 46.7686 19.1797c15.1562 3.20605 16.7646 6.27734 51.2705 2.73242c6.65039 -0.682617 44.5518 -3.73242 44.5518 -2.73633
c0 0.991211 -4.27734 7.5332 -9.50488 14.5371c-16.8877 22.625 -28.1797 41.8105 -41.8457 71.0986c-17.8721 38.3047 -17.2012 55.1006 -29.7783 98.2646c0 0 -4.16992 15.1309 -7.70801 27.7461c9.75098 2.43848 15.8408 4.01172 44.2852 1.08984
c6.65039 -0.682617 44.5518 -3.73242 44.5518 -2.73633c0 0.991211 -4.27734 7.5332 -9.50488 14.5371c-16.8877 22.625 -28.1797 41.8105 -41.8457 71.0986c-17.8721 38.3047 -17.2012 55.1006 -29.7783 98.2646c0 0 -11.3809 165.803 -12.4951 168.823
c-1.72559 4.6748 -4.66992 6.85352 -7.92773 6.75195c-4.26562 -0.133789 -9.07129 -4.17383 -12.3926 -11.6328c-3.14844 -7.07227 -5.78223 -176.252 -5.78223 -176.252zM789.901 365.139l-10.0273 -41.3154c-24.3145 -100.174 -43.0791 -165.504 -53.7275 -187.049
c-8.53125 -17.2617 -8.73926 -31.6641 -0.542969 -37.5225c3.32617 -2.37695 7.23145 -4.3584 8.5918 -4.3584c4.19922 0 14.1348 6.25977 25.2197 15.8896c12.6045 10.9482 33.2578 19.418 62.3584 25.5732c20.209 4.27441 22.3535 8.36914 68.3604 3.64355
c8.86816 -0.911133 59.4033 -4.97656 59.4033 -3.64941c0 1.32227 -5.70312 10.0449 -12.6738 19.3838c-22.5166 30.166 -37.5723 55.7471 -55.7939 94.7979c-23.8301 51.0723 -22.9355 73.4678 -39.7041 131.02c0 0 -15.1748 501.07 -16.6611 505.098
c-2.30078 6.2334 -6.22559 9.1377 -10.5703 9.00195c-5.6875 -0.177734 -12.0947 -5.56445 -16.5225 -15.5098c-4.19824 -9.42969 -7.70996 -515.003 -7.70996 -515.003zM668.648 274.523l-36.3047 -22.124c-88.0264 -53.6406 -147.49 -86.5674 -170.255 -94.2725
c-18.2383 -6.17383 -28.5693 -16.2109 -26.916 -26.1484c0.670898 -4.0332 2.03125 -8.19531 2.99316 -9.15723c2.96973 -2.96973 14.4209 -5.56836 29.0684 -6.59766c16.6543 -1.1709 37.248 -9.78613 62.1777 -26.0107
c17.3125 -11.2676 21.7236 -9.88867 50.9141 -45.7617c5.62695 -6.91504 38.4854 -45.5234 39.4238 -44.585c0.935547 0.93457 3.07031 11.1348 4.74512 22.668c5.40918 37.252 12.8516 65.9863 27.5801 106.484c19.2627 52.9639 35.7314 68.167 64.5693 120.72
c0 0 28.2109 49.6709 30.0068 53.5693c2.78125 6.03516 2.05957 10.8643 -1.1084 13.8398c-4.14746 3.89648 -12.4873 4.61816 -22.6504 0.716797c-9.63672 -3.69922 -54.2441 -43.3408 -54.2441 -43.3408zM237.901 365.139l-10.0273 -41.3154
c-24.3145 -100.174 -43.0791 -165.504 -53.7275 -187.049c-8.53125 -17.2617 -8.73926 -31.6641 -0.542969 -37.5225c3.32617 -2.37695 7.23145 -4.3584 8.5918 -4.3584c4.19922 0 14.1348 6.25977 25.2197 15.8896c12.6045 10.9482 33.2578 19.418 62.3584 25.5732
c20.209 4.27441 22.3535 8.36914 68.3604 3.64355c8.86816 -0.911133 59.4033 -4.97656 59.4033 -3.64941c0 1.32227 -5.70312 10.0449 -12.6738 19.3838c-22.5166 30.166 -37.5723 55.7471 -55.7939 94.7979c-23.8301 51.0723 -22.9355 73.4678 -39.7041 131.02
c0 0 -9.30273 221.344 -14.0547 319.358c0.25293 0.699219 0.507812 1.40234 0.764648 2.1084c19.2627 52.9639 35.7314 68.167 64.5693 120.72c0 0 28.2109 49.6709 30.0068 53.5693c2.78125 6.03516 2.05957 10.8643 -1.1084 13.8398
c-4.14746 3.89648 -12.4873 4.61816 -22.6504 0.716797c-9.63672 -3.69922 -54.2441 -43.3408 -54.2441 -43.3408l-36.3047 -22.124c-88.0264 -53.6406 -147.49 -86.5674 -170.255 -94.2725c-18.2383 -6.17383 -28.5693 -16.2109 -26.916 -26.1484
c0.670898 -4.0332 2.03125 -8.19531 2.99316 -9.15723c2.96973 -2.96973 14.4209 -5.56836 29.0684 -6.59766c16.6543 -1.1709 37.248 -9.78613 62.1777 -26.0107c17.3125 -11.2676 21.7236 -9.88867 50.9141 -45.7617c4.63672 -5.69922 27.7705 -32.9248 36.2891 -41.7988
c-1.65332 -101.051 -2.71387 -211.514 -2.71387 -211.514z" />
</svg>
