<?xml version="1.0" standalone="no"?>
<!DOCTYPE svg PUBLIC "-//W3C//DTD SVG 1.1//EN" "http://www.w3.org/Graphics/SVG/1.1/DTD/svg11.dtd" >
<svg xmlns="http://www.w3.org/2000/svg" xmlns:xlink="http://www.w3.org/1999/xlink" version="1.1" viewBox="0 0 960 895">
   <path fill="currentColor"
d="M729.334 336.488c5.57227 -6.81348 23.001 -3.58984 20.7891 4.83984c-7.81543 29.7803 -45 75.8242 -65.2617 143.709c-16.4102 54.9805 14.0605 126.369 49.1914 172.742c20.1621 26.6133 34.9004 74.1094 29.6553 79.3545
c-2.1377 2.13867 -9.82617 -7.49902 -17.1768 -21.5322c-7.31836 -13.9717 -30.1982 -42.8232 -50.8438 -64.1133c-35.0771 -36.1729 -49.5596 -46.2432 -120.205 -83.585c-5.66602 -2.99414 -10.7881 -6.16016 -15.0068 -9.43066
c-15.166 1.64746 -34.0918 2.7627 -34.0918 2.7627l-30.9863 7.52051c-75.1309 18.2354 -124.128 32.3096 -140.287 40.2959c-12.9463 6.39844 -23.748 6.55371 -28.1416 0.407227c-1.78223 -2.49512 -3.26855 -5.42383 -3.26855 -6.44434
c0 -3.14941 4.69434 -10.6006 11.917 -18.915c8.21094 -9.45312 14.5635 -24.9434 19.1797 -46.7686c3.20605 -15.1562 6.27734 -16.7646 2.7334 -51.2705c-0.683594 -6.65039 -3.73242 -44.5518 -2.7373 -44.5518c0.991211 0 7.5332 4.27734 14.5381 9.50488
c22.624 16.8877 41.8096 28.1797 71.0977 41.8457c38.3047 17.8721 55.1016 17.2012 98.2646 29.7783c0 0 8.67969 2.3916 18.373 5.08984c3.28711 -2.36816 7.60645 -4.68652 13.0938 -6.93066c17.0352 -6.96875 78.9414 -62.3096 91.8809 -73.0723
c24.75 -20.5859 28.4658 -63.7578 67.293 -111.236zM655.089 492.408c0.860352 -0.966797 1.67871 -1.9248 2.45215 -2.87109c-0.902344 0.507812 -1.72168 1.48828 -2.45215 2.87109zM789.901 365.139l-10.0273 -41.3154
c-24.3145 -100.174 -43.0791 -165.504 -53.7275 -187.049c-8.53125 -17.2617 -8.73926 -31.6641 -0.542969 -37.5225c3.32617 -2.37695 7.23145 -4.3584 8.5918 -4.3584c4.19922 0 14.1348 6.25977 25.2197 15.8896c12.6045 10.9482 33.2578 19.418 62.3584 25.5732
c20.209 4.27441 22.3535 8.36914 68.3604 3.64355c8.86816 -0.911133 59.4033 -4.97656 59.4033 -3.64941c0 1.32227 -5.70312 10.0449 -12.6738 19.3838c-22.5166 30.166 -37.5723 55.7471 -55.7939 94.7979c-23.8301 51.0723 -22.9355 73.4678 -39.7041 131.02
c0 0 -15.1748 501.07 -16.6611 505.098c-2.30078 6.2334 -6.22559 9.1377 -10.5703 9.00195c-5.6875 -0.177734 -12.0947 -5.56445 -16.5225 -15.5098c-4.19824 -9.42969 -7.70996 -515.003 -7.70996 -515.003zM668.648 274.523l-36.3047 -22.124
c-88.0264 -53.6406 -147.49 -86.5674 -170.255 -94.2725c-18.2383 -6.17383 -28.5693 -16.2109 -26.916 -26.1484c0.670898 -4.0332 2.03125 -8.19531 2.99316 -9.15723c2.96973 -2.96973 14.4209 -5.56836 29.0684 -6.59766
c16.6543 -1.1709 37.248 -9.78613 62.1777 -26.0107c17.3125 -11.2676 21.7236 -9.88867 50.9141 -45.7617c5.62695 -6.91504 38.4854 -45.5234 39.4238 -44.585c0.935547 0.93457 3.07031 11.1348 4.74512 22.668c5.40918 37.252 12.8516 65.9863 27.5801 106.484
c19.2627 52.9639 35.7314 68.167 64.5693 120.72c0 0 28.2109 49.6709 30.0068 53.5693c2.78125 6.03516 2.05957 10.8643 -1.1084 13.8398c-4.14746 3.89648 -12.4873 4.61816 -22.6504 0.716797c-9.63672 -3.69922 -54.2441 -43.3408 -54.2441 -43.3408zM237.901 365.139
l-10.0273 -41.3154c-24.3145 -100.174 -43.0791 -165.504 -53.7275 -187.049c-8.53125 -17.2617 -8.73926 -31.6641 -0.542969 -37.5225c3.32617 -2.37695 7.23145 -4.3584 8.5918 -4.3584c4.19922 0 14.1348 6.25977 25.2197 15.8896
c12.6045 10.9482 33.2578 19.418 62.3584 25.5732c20.209 4.27441 22.3535 8.36914 68.3604 3.64355c8.86816 -0.911133 59.4033 -4.97656 59.4033 -3.64941c0 1.32227 -5.70312 10.0449 -12.6738 19.3838c-22.5166 30.166 -37.5723 55.7471 -55.7939 94.7979
c-23.8301 51.0723 -22.9355 73.4678 -39.7041 131.02c0 0 -9.30273 221.344 -14.0547 319.358c0.25293 0.699219 0.507812 1.40234 0.764648 2.1084c19.2627 52.9639 35.7314 68.167 64.5693 120.72c0 0 28.2109 49.6709 30.0068 53.5693
c2.78125 6.03516 2.05957 10.8643 -1.1084 13.8398c-4.14746 3.89648 -12.4873 4.61816 -22.6504 0.716797c-9.63672 -3.69922 -54.2441 -43.3408 -54.2441 -43.3408l-36.3047 -22.124c-88.0264 -53.6406 -147.49 -86.5674 -170.255 -94.2725
c-18.2383 -6.17383 -28.5693 -16.2109 -26.916 -26.1484c0.670898 -4.0332 2.03125 -8.19531 2.99316 -9.15723c2.96973 -2.96973 14.4209 -5.56836 29.0684 -6.59766c16.6543 -1.1709 37.248 -9.78613 62.1777 -26.0107
c17.3125 -11.2676 21.7236 -9.88867 50.9141 -45.7617c4.63672 -5.69922 27.7705 -32.9248 36.2891 -41.7988c-1.65332 -101.051 -2.71387 -211.514 -2.71387 -211.514z" />
</svg>
