<?xml version="1.0" standalone="no"?>
<!DOCTYPE svg PUBLIC "-//W3C//DTD SVG 1.1//EN" "http://www.w3.org/Graphics/SVG/1.1/DTD/svg11.dtd" >
<svg xmlns="http://www.w3.org/2000/svg" xmlns:xlink="http://www.w3.org/1999/xlink" version="1.1" viewBox="0 0 1201 800">
   <path fill="currentColor"
d="M780.378 159.941l-41.3154 10.0273c-100.174 24.3145 -165.504 43.0791 -187.049 53.7275c-17.2617 8.53125 -31.6641 8.73926 -37.5225 0.542969c-2.37695 -3.32617 -4.3584 -7.23145 -4.3584 -8.5918c0 -4.19922 6.25977 -14.1348 15.8896 -25.2197
c10.9482 -12.6045 19.418 -33.2578 25.5732 -62.3584c4.27441 -20.209 8.36914 -22.3535 3.64355 -68.3604c-0.911133 -8.86816 -4.97656 -59.4033 -3.64941 -59.4033c1.32227 0 10.0449 5.70312 19.3838 12.6738c30.166 22.5166 55.7471 37.5723 94.7979 55.7939
c51.0723 23.8301 73.4678 22.9355 131.02 39.7041c0 0 136.314 9.35742 196.812 14.0957c-11.248 -40.6865 -20.2383 -68.2129 -26.458 -80.7988c-8.53125 -17.2617 -8.73926 -31.6641 -0.542969 -37.5225c3.32617 -2.37695 7.23145 -4.3584 8.5918 -4.3584
c4.19922 0 14.1348 6.25977 25.2197 15.8896c12.6045 10.9482 33.2578 19.418 62.3584 25.5732c20.209 4.27441 22.3535 8.36914 68.3604 3.64355c8.86816 -0.911133 59.4033 -4.97656 59.4033 -3.64941c0 1.32227 -5.70312 10.0449 -12.6738 19.3838
c-22.5166 30.166 -37.5723 55.7471 -55.7939 94.7979c-23.8301 51.0723 -22.9355 73.4678 -39.7041 131.02c0 0 -15.1748 501.07 -16.6611 505.098c-2.30078 6.2334 -6.22559 9.1377 -10.5703 9.00195c-5.6875 -0.177734 -12.0947 -5.56445 -16.5225 -15.5098
c-4.19824 -9.42969 -7.70996 -515.003 -7.70996 -515.003l-10.0273 -41.3154c-6.7334 -27.7402 -13.041 -52.8086 -18.8691 -75.0156c-50.2354 3.46582 -221.626 6.13379 -221.626 6.13379zM505.404 558.392l-24.7891 6.0166
c-46.248 11.2256 -80.1172 20.4795 -99.165 27.0596c17.3779 12.8232 32.4912 21.6318 55.1904 32.2236c30.6436 14.2979 44.0801 13.7607 78.6113 23.8223c0 0 276.098 5.36426 405.544 8.26074c-1.46191 -13.2861 -2.73633 -66.124 -3.46484 -102.44
c-0.300781 0.146484 -0.609375 0.291016 -0.924805 0.431641c-5.6582 2.51953 -141.002 4.62598 -141.002 4.62598l-24.7891 6.0166c-60.1045 14.5889 -99.3027 25.8477 -112.229 32.2363c-10.3574 5.11914 -18.998 5.24414 -22.5137 0.326172
c-1.42578 -1.99609 -2.61523 -4.33887 -2.61523 -5.15527c0 -2.51953 3.75586 -8.48047 9.53418 -15.1318c4.38965 -5.05371 8.11426 -12.2627 11.2051 -21.7002c-34.6045 1.94531 -128.592 3.4082 -128.592 3.4082zM515.252 527.514c0 0 90.8184 6.2334 123.527 8.88965
c2.29688 -9.66504 4.13672 -12.8799 1.54199 -38.1514c-0.294922 -2.86523 -1.13867 -12.9824 -1.72949 -21.709c-0.0693359 0.0341797 -0.138672 0.0683594 -0.206055 0.101562c-10.3574 5.11914 -18.998 5.24414 -22.5137 0.326172
c-1.42578 -1.99609 -2.61523 -4.33887 -2.61523 -5.15527c0 -2.51953 3.75586 -8.48047 9.53418 -15.1318c6.56934 -7.5625 11.6504 -19.9551 15.3438 -37.415c2.56445 -12.125 5.02148 -13.4121 2.18652 -41.0166c-0.294922 -2.86523 -1.13867 -12.9824 -1.72949 -21.709
c-0.0693359 0.0341797 -0.138672 0.0683594 -0.206055 0.101562c-10.3574 5.11914 -18.998 5.24414 -22.5137 0.326172c-1.42578 -1.99609 -2.61523 -4.33887 -2.61523 -5.15527c0 -2.51953 3.75586 -8.48047 9.53418 -15.1318
c6.56934 -7.5625 11.6504 -19.9551 15.3438 -37.415c2.56445 -12.125 5.02148 -13.4121 2.18652 -41.0166c-0.546875 -5.32031 -2.98633 -35.6416 -2.18945 -35.6416c0.792969 0 6.02637 3.42188 11.6299 7.60449c18.0996 13.5098 33.4482 22.543 56.8789 33.4766
c30.6436 14.2979 44.0801 13.7607 78.6113 23.8223c0 0 82.0205 5.62988 118.241 8.46875c-11.1172 -43.7881 -19.7637 -72.5723 -25.0605 -83.291c-5.11914 -10.3564 -5.24316 -18.998 -0.326172 -22.5137c1.99609 -1.42578 4.33887 -2.61426 5.15527 -2.61426
c2.51953 0 8.48145 3.75586 15.1318 9.5332c7.5625 6.56934 19.9551 11.6514 37.415 15.3438c12.126 2.56543 13.4121 5.02148 41.0166 2.18652c5.32031 -0.546875 35.6416 -2.98633 35.6416 -2.18945c0 0.792969 -3.42188 6.02637 -7.60449 11.6299
c-13.5098 18.0996 -22.543 33.4482 -33.4756 56.8789c-14.2988 30.6436 -13.7617 44.0811 -23.8232 78.6113c0 0 -3.33594 12.1045 -6.16602 22.1963c7.80078 1.95117 12.6729 3.20996 35.4277 0.873047c5.32031 -0.546875 35.6416 -2.98633 35.6416 -2.18945
c0 0.792969 -3.42188 6.02637 -7.60449 11.6299c-13.5098 18.0996 -22.543 33.4482 -33.4756 56.8789c-14.2988 30.6436 -13.7617 44.0811 -23.8232 78.6113c0 0 -6.97949 101.684 -9.31543 128.613c29.2256 0.674805 47.5889 1.16406 48.0625 1.33887
c3.74023 1.38086 5.48242 3.73535 5.40137 6.34277c-0.106445 3.41211 -3.33887 7.25684 -9.30566 9.91309c-5.6582 2.51953 -477.002 4.62598 -477.002 4.62598l-24.7891 6.0166c-60.1045 14.5889 -99.3027 25.8477 -112.229 32.2363
c-10.3574 5.11914 -18.998 5.24414 -22.5137 0.326172c-1.42578 -1.99609 -2.61523 -4.33887 -2.61523 -5.15527c0 -2.51953 3.75586 -8.48047 9.53418 -15.1318c6.56934 -7.5625 11.6504 -19.9551 15.3438 -37.415c2.56445 -12.125 5.02148 -13.4121 2.18652 -41.0166
c-0.294922 -2.86523 -1.13867 -12.9824 -1.72949 -21.709c-0.0693359 0.0341797 -0.138672 0.0683594 -0.206055 0.101562c-10.3574 5.11914 -18.998 5.24414 -22.5137 0.326172c-1.42578 -1.99609 -2.61523 -4.33887 -2.61523 -5.15527
c0 -2.51953 3.75586 -8.48047 9.53418 -15.1318c6.56934 -7.5625 11.6504 -19.9551 15.3438 -37.415c2.56445 -12.125 5.02148 -13.4121 2.18652 -41.0166c-0.546875 -5.32031 -2.98633 -35.6416 -2.18945 -35.6416c0.792969 0 6.02637 3.42188 11.6299 7.60449
c18.0996 13.5098 33.4482 22.543 56.8789 33.4766c30.6436 14.2979 44.0801 13.7607 78.6113 23.8223zM775.404 438.392l-24.7891 6.0166c-46.248 11.2256 -80.1172 20.4795 -99.165 27.0596c17.3779 12.8232 32.4912 21.6318 55.1904 32.2236
c30.6436 14.2979 44.0801 13.7607 78.6113 23.8223c0 0 111.006 7.61914 131.768 9.60059c-0.214844 -11.748 -0.333984 -19.4043 -0.333984 -19.4043l-6.0166 -24.7891c-5.36328 -22.0938 -10.2764 -41.3633 -14.6621 -57.541
c-39.1777 1.74414 -120.603 3.01172 -120.603 3.01172zM785.252 407.514c0 0 65.2148 4.47656 105.022 7.45898c-4.88867 -16.6963 -8.88672 -28.3008 -11.8418 -34.2812c-5.11914 -10.3564 -5.24316 -18.998 -0.326172 -22.5137
c1.99609 -1.42578 4.33887 -2.61426 5.15527 -2.61426c2.51953 0 8.48145 3.75586 15.1318 9.5332c4.81543 4.18262 11.5889 7.7627 20.3818 10.7656c-1.25098 -11.9238 -2.08984 -26.1523 -2.08984 -26.1523l-6.0166 -24.7891
c-0.842773 -3.46875 -1.67285 -6.86719 -2.49219 -10.1953c-30.3984 2.07227 -132.772 3.66602 -132.772 3.66602l-24.7891 6.0166c-46.248 11.2256 -80.1172 20.4795 -99.165 27.0596c17.3779 12.8232 32.4912 21.6318 55.1904 32.2236
c30.6436 14.2979 44.0801 13.7607 78.6113 23.8223zM293.648 753.523l-36.3047 -22.124c-88.0264 -53.6406 -147.49 -86.5674 -170.255 -94.2725c-18.2383 -6.17383 -28.5693 -16.2109 -26.916 -26.1484c0.670898 -4.0332 2.03125 -8.19531 2.99316 -9.15723
c2.96973 -2.96973 14.4209 -5.56836 29.0684 -6.59766c16.6543 -1.1709 37.248 -9.78613 62.1777 -26.0107c17.3125 -11.2676 21.7236 -9.88867 50.9141 -45.7617c4.63672 -5.69922 27.7695 -32.9229 36.2881 -41.7979
c-1.65332 -101.051 -2.71387 -211.515 -2.71387 -211.515l-10.0273 -41.3154c-24.3145 -100.174 -43.0791 -165.504 -53.7275 -187.049c-8.53125 -17.2617 -8.73926 -31.6641 -0.542969 -37.5225c3.32617 -2.37695 7.23145 -4.3584 8.5918 -4.3584
c4.19922 0 14.1348 6.25977 25.2197 15.8896c12.6045 10.9482 33.2578 19.418 62.3584 25.5732c20.209 4.27441 22.3535 8.36914 68.3604 3.64355c8.86816 -0.911133 59.4033 -4.97656 59.4033 -3.64941c0 1.32227 -5.70312 10.0449 -12.6738 19.3838
c-22.5166 30.166 -37.5723 55.7471 -55.7939 94.7979c-23.8301 51.0723 -22.9355 73.4678 -39.7041 131.02c0 0 -9.30273 221.34 -14.0547 319.356c0.25293 0.700195 0.507812 1.40332 0.765625 2.11035c19.2627 52.9639 35.7314 68.167 64.5693 120.72
c0 0 28.2109 49.6709 30.0068 53.5693c2.78125 6.03516 2.05957 10.8643 -1.1084 13.8398c-4.14746 3.89648 -12.4873 4.61816 -22.6504 0.716797c-9.63672 -3.69922 -54.2441 -43.3408 -54.2441 -43.3408z" />
</svg>
