<?xml version="1.0" standalone="no"?>
<!DOCTYPE svg PUBLIC "-//W3C//DTD SVG 1.1//EN" "http://www.w3.org/Graphics/SVG/1.1/DTD/svg11.dtd" >
<svg xmlns="http://www.w3.org/2000/svg" xmlns:xlink="http://www.w3.org/1999/xlink" version="1.1" viewBox="0 0 2380 2310">
   <path fill="currentColor"
d="M1346.52 730.748l41.3154 -10.0273c100.174 -24.3145 165.504 -43.0791 187.049 -53.7275c17.2617 -8.53125 31.6641 -8.73926 37.5225 -0.542969c2.37695 3.32617 4.3584 7.23145 4.3584 8.5918c0 4.19922 -6.25977 14.1348 -15.8896 25.2197
c-10.9482 12.6045 -19.418 33.2578 -25.5732 62.3584c-4.27441 20.209 -8.36914 22.3535 -3.64355 68.3604c0.911133 8.86816 4.97656 59.4033 3.64941 59.4033c-1.32227 0 -10.0449 -5.70312 -19.3838 -12.6738c-30.166 -22.5166 -55.7471 -37.5723 -94.7979 -55.7939
c-51.0723 -23.8301 -73.4678 -22.9355 -131.02 -39.7041c0 0 -501.07 -15.1748 -505.098 -16.6611c-6.2334 -2.30078 -9.1377 -6.22559 -9.00195 -10.5703c0.177734 -5.6875 5.56445 -12.0947 15.5098 -16.5225c9.42969 -4.19824 515.003 -7.70996 515.003 -7.70996z
M1437.13 609.495l22.124 -36.3047c53.6406 -88.0264 86.5674 -147.49 94.2725 -170.255c6.17383 -18.2383 16.2109 -28.5693 26.1484 -26.916c4.0332 0.670898 8.19531 2.03125 9.15723 2.99316c2.96973 2.96973 5.56836 14.4209 6.59766 29.0684
c1.1709 16.6543 9.78613 37.248 26.0107 62.1777c11.2676 17.3125 9.88867 21.7236 45.7617 50.9141c6.91504 5.62695 45.5234 38.4854 44.585 39.4238c-0.93457 0.935547 -11.1348 3.07031 -22.668 4.74512c-37.252 5.40918 -65.9863 12.8516 -106.484 27.5801
c-52.9639 19.2627 -68.167 35.7314 -120.72 64.5693c0 0 -49.6709 28.2109 -53.5693 30.0068c-6.03516 2.78125 -10.8643 2.05957 -13.8398 -1.1084c-3.89648 -4.14746 -4.61816 -12.4873 -0.716797 -22.6504c3.69922 -9.63672 43.3408 -54.2441 43.3408 -54.2441z
M1346.52 178.748l41.3154 -10.0273c100.174 -24.3145 165.504 -43.0791 187.049 -53.7275c17.2617 -8.53125 31.6641 -8.73926 37.5225 -0.542969c2.37695 3.32617 4.3584 7.23145 4.3584 8.5918c0 4.19922 -6.25977 14.1348 -15.8896 25.2197
c-10.9482 12.6045 -19.418 33.2578 -25.5732 62.3584c-4.27441 20.209 -8.36914 22.3535 -3.64355 68.3604c0.911133 8.86816 4.97656 59.4033 3.64941 59.4033c-1.32227 0 -10.0449 -5.70312 -19.3838 -12.6738c-30.166 -22.5166 -55.7471 -37.5723 -94.7979 -55.7939
c-51.0723 -23.8301 -73.4678 -22.9355 -131.02 -39.7041c0 0 -221.344 -9.30273 -319.359 -14.0537c-0.699219 0.251953 -1.40137 0.506836 -2.10742 0.763672c-52.9639 19.2627 -68.167 35.7314 -120.72 64.5693c0 0 -49.6709 28.2109 -53.5693 30.0068
c-6.03516 2.78125 -10.8643 2.05957 -13.8398 -1.1084c-3.89648 -4.14746 -4.61816 -12.4873 -0.716797 -22.6504c3.69922 -9.63672 43.3408 -54.2441 43.3408 -54.2441l22.124 -36.3047c53.6406 -88.0264 86.5674 -147.49 94.2725 -170.255
c6.17383 -18.2383 16.2109 -28.5693 26.1484 -26.916c4.0332 0.670898 8.19531 2.03125 9.15723 2.99316c2.96973 2.96973 5.56836 14.4209 6.59766 29.0684c1.1709 16.6543 9.78613 37.248 26.0107 62.1777c11.2676 17.3125 9.88867 21.7236 45.7617 50.9141
c5.69824 4.6377 32.9248 27.7715 41.7988 36.2891c101.05 -1.65234 211.514 -2.71387 211.514 -2.71387zM1638.28 1287.37l10.0273 41.3154c24.3145 100.174 43.0791 165.504 53.7275 187.049c8.53125 17.2617 8.73926 31.6641 0.542969 37.5225
c-3.32617 2.37695 -7.23145 4.3584 -8.5918 4.3584c-4.19922 0 -14.1348 -6.25977 -25.2197 -15.8896c-12.6045 -10.9482 -33.2578 -19.418 -62.3584 -25.5732c-20.209 -4.27441 -22.3535 -8.36914 -68.3604 -3.64355c-8.86816 0.911133 -59.4033 4.97656 -59.4033 3.64941
c0 -1.32227 5.70312 -10.0449 12.6738 -19.3838c22.5166 -30.166 37.5723 -55.7471 55.7939 -94.7979c23.8301 -51.0723 22.9355 -73.4678 39.7041 -131.02c0 0 15.1748 -501.07 16.6611 -505.098c2.30078 -6.2334 6.22559 -9.1377 10.5703 -9.00195
c5.6875 0.177734 12.0947 5.56445 16.5225 15.5098c4.19824 9.42969 7.70996 515.003 7.70996 515.003zM1759.53 1377.98l36.3047 22.124c88.0264 53.6406 147.49 86.5674 170.255 94.2725c18.2383 6.17383 28.5693 16.2109 26.916 26.1484
c-0.670898 4.0332 -2.03125 8.19531 -2.99316 9.15723c-2.96973 2.96973 -14.4209 5.56836 -29.0684 6.59766c-16.6543 1.1709 -37.248 9.78613 -62.1777 26.0107c-17.3125 11.2676 -21.7236 9.88867 -50.9141 45.7617c-5.62695 6.91504 -38.4854 45.5234 -39.4238 44.585
c-0.935547 -0.93457 -3.07031 -11.1348 -4.74512 -22.668c-5.40918 -37.252 -12.8516 -65.9863 -27.5801 -106.484c-19.2627 -52.9639 -35.7314 -68.167 -64.5693 -120.72c0 0 -28.2109 -49.6709 -30.0068 -53.5693c-2.78125 -6.03516 -2.05957 -10.8643 1.1084 -13.8398
c4.14746 -3.89648 12.4873 -4.61816 22.6504 -0.716797c9.63672 3.69922 54.2441 43.3408 54.2441 43.3408zM2190.28 1287.37l10.0273 41.3154c24.3145 100.174 43.0791 165.504 53.7275 187.049c8.53125 17.2617 8.73926 31.6641 0.542969 37.5225
c-3.32617 2.37695 -7.23145 4.3584 -8.5918 4.3584c-4.19922 0 -14.1348 -6.25977 -25.2197 -15.8896c-12.6045 -10.9482 -33.2578 -19.418 -62.3584 -25.5732c-20.209 -4.27441 -22.3535 -8.36914 -68.3604 -3.64355c-8.86816 0.911133 -59.4033 4.97656 -59.4033 3.64941
c0 -1.32227 5.70312 -10.0449 12.6738 -19.3838c22.5166 -30.166 37.5723 -55.7471 55.7939 -94.7979c23.8301 -51.0723 22.9355 -73.4678 39.7041 -131.02c0 0 9.30176 -221.344 14.0537 -319.358c-0.25293 -0.699219 -0.506836 -1.40234 -0.763672 -2.1084
c-19.2627 -52.9639 -35.7314 -68.167 -64.5693 -120.72c0 0 -28.2109 -49.6709 -30.0068 -53.5693c-2.78125 -6.03516 -2.05957 -10.8643 1.1084 -13.8398c4.14746 -3.89648 12.4873 -4.61816 22.6504 -0.716797c9.63672 3.69922 54.2441 43.3408 54.2441 43.3408
l36.3047 22.124c88.0264 53.6406 147.49 86.5674 170.255 94.2725c18.2383 6.17383 28.5693 16.2109 26.916 26.1484c-0.670898 4.0332 -2.03125 8.19531 -2.99316 9.15723c-2.96973 2.96973 -14.4209 5.56836 -29.0684 6.59766
c-16.6543 1.1709 -37.248 9.78613 -62.1777 26.0107c-17.3125 11.2676 -21.7236 9.88867 -50.9141 45.7617c-4.6377 5.69922 -27.7715 32.9248 -36.29 41.7988c1.65332 101.051 2.71484 211.514 2.71484 211.514zM1081.65 1579.12l-41.3154 10.0273
c-100.174 24.3145 -165.504 43.0791 -187.049 53.7275c-17.2617 8.53125 -31.6641 8.73926 -37.5225 0.542969c-2.37695 -3.32617 -4.3584 -7.23145 -4.3584 -8.5918c0 -4.19922 6.25977 -14.1348 15.8896 -25.2197c10.9482 -12.6045 19.418 -33.2578 25.5732 -62.3584
c4.27441 -20.209 8.36914 -22.3535 3.64355 -68.3604c-0.911133 -8.86816 -4.97656 -59.4033 -3.64941 -59.4033c1.32227 0 10.0449 5.70312 19.3838 12.6738c30.166 22.5166 55.7471 37.5723 94.7979 55.7939c51.0723 23.8301 73.4678 22.9355 131.02 39.7041
c0 0 501.07 15.1748 505.098 16.6611c6.2334 2.30078 9.1377 6.22559 9.00195 10.5703c-0.177734 5.6875 -5.56445 12.0947 -15.5098 16.5225c-9.42969 4.19824 -515.003 7.70996 -515.003 7.70996zM991.037 1700.37l-22.124 36.3047
c-53.6406 88.0264 -86.5674 147.49 -94.2725 170.255c-6.17383 18.2383 -16.2109 28.5693 -26.1484 26.916c-4.0332 -0.670898 -8.19531 -2.03125 -9.15723 -2.99316c-2.96973 -2.96973 -5.56836 -14.4209 -6.59766 -29.0684
c-1.1709 -16.6543 -9.78613 -37.248 -26.0107 -62.1777c-11.2676 -17.3125 -9.88867 -21.7236 -45.7617 -50.9141c-6.91504 -5.62695 -45.5234 -38.4854 -44.585 -39.4238c0.93457 -0.935547 11.1348 -3.07031 22.668 -4.74512
c37.252 -5.40918 65.9863 -12.8516 106.484 -27.5801c52.9639 -19.2627 68.167 -35.7314 120.72 -64.5693c0 0 49.6709 -28.2109 53.5693 -30.0068c6.03516 -2.78125 10.8643 -2.05957 13.8398 1.1084c3.89648 4.14746 4.61816 12.4873 0.716797 22.6504
c-3.69922 9.63672 -43.3408 54.2441 -43.3408 54.2441zM1081.65 2131.12l-41.3154 10.0273c-100.174 24.3145 -165.504 43.0791 -187.049 53.7275c-17.2617 8.53125 -31.6641 8.73926 -37.5225 0.542969c-2.37695 -3.32617 -4.3584 -7.23145 -4.3584 -8.5918
c0 -4.19922 6.25977 -14.1348 15.8896 -25.2197c10.9482 -12.6045 19.418 -33.2578 25.5732 -62.3584c4.27441 -20.209 8.36914 -22.3535 3.64355 -68.3604c-0.911133 -8.86816 -4.97656 -59.4033 -3.64941 -59.4033c1.32227 0 10.0449 5.70312 19.3838 12.6738
c30.166 22.5166 55.7471 37.5723 94.7979 55.7939c51.0723 23.8301 73.4678 22.9355 131.02 39.7041c0 0 221.343 9.30273 319.358 14.0537c0.699219 -0.251953 1.40137 -0.506836 2.1084 -0.763672c52.9639 -19.2627 68.167 -35.7314 120.72 -64.5693
c0 0 49.6709 -28.2109 53.5693 -30.0068c6.03516 -2.78125 10.8643 -2.05957 13.8398 1.1084c3.89648 4.14746 4.61816 12.4873 0.716797 22.6504c-3.69922 9.63672 -43.3408 54.2441 -43.3408 54.2441l-22.124 36.3047c-53.6406 88.0264 -86.5674 147.49 -94.2725 170.255
c-6.17383 18.2383 -16.2109 28.5693 -26.1484 26.916c-4.0332 -0.670898 -8.19531 -2.03125 -9.15723 -2.99316c-2.96973 -2.96973 -5.56836 -14.4209 -6.59766 -29.0684c-1.1709 -16.6543 -9.78613 -37.248 -26.0107 -62.1777
c-11.2676 -17.3125 -9.88867 -21.7236 -45.7617 -50.9141c-5.69922 -4.6377 -32.9258 -27.7715 -41.7988 -36.2891c-101.051 1.65234 -211.514 2.71387 -211.514 2.71387zM789.901 1022.14l-10.0273 -41.3154c-24.3145 -100.174 -43.0791 -165.504 -53.7275 -187.049
c-8.53125 -17.2617 -8.73926 -31.6641 -0.542969 -37.5225c3.32617 -2.37695 7.23145 -4.3584 8.5918 -4.3584c4.19922 0 14.1348 6.25977 25.2197 15.8896c12.6045 10.9482 33.2578 19.418 62.3584 25.5732c20.209 4.27441 22.3535 8.36914 68.3604 3.64355
c8.86816 -0.911133 59.4033 -4.97656 59.4033 -3.64941c0 1.32227 -5.70312 10.0449 -12.6738 19.3838c-22.5166 30.166 -37.5723 55.7471 -55.7939 94.7979c-23.8301 51.0723 -22.9355 73.4678 -39.7041 131.02c0 0 -15.1748 501.07 -16.6611 505.098
c-2.30078 6.2334 -6.22559 9.1377 -10.5703 9.00195c-5.6875 -0.177734 -12.0947 -5.56445 -16.5225 -15.5098c-4.19824 -9.42969 -7.70996 -515.003 -7.70996 -515.003zM668.648 931.523l-36.3047 -22.124c-88.0264 -53.6406 -147.49 -86.5674 -170.255 -94.2725
c-18.2383 -6.17383 -28.5693 -16.2109 -26.916 -26.1484c0.670898 -4.0332 2.03125 -8.19531 2.99316 -9.15723c2.96973 -2.96973 14.4209 -5.56836 29.0684 -6.59766c16.6543 -1.1709 37.248 -9.78613 62.1777 -26.0107
c17.3125 -11.2676 21.7236 -9.88867 50.9141 -45.7617c5.62695 -6.91504 38.4854 -45.5234 39.4238 -44.585c0.935547 0.93457 3.07031 11.1348 4.74512 22.668c5.40918 37.252 12.8516 65.9863 27.5801 106.484c19.2627 52.9639 35.7314 68.167 64.5693 120.72
c0 0 28.2109 49.6709 30.0068 53.5693c2.78125 6.03516 2.05957 10.8643 -1.1084 13.8398c-4.14746 3.89648 -12.4873 4.61816 -22.6504 0.716797c-9.63672 -3.69922 -54.2441 -43.3408 -54.2441 -43.3408zM237.901 1022.14l-10.0273 -41.3154
c-24.3145 -100.174 -43.0791 -165.504 -53.7275 -187.049c-8.53125 -17.2617 -8.73926 -31.6641 -0.542969 -37.5225c3.32617 -2.37695 7.23145 -4.3584 8.5918 -4.3584c4.19922 0 14.1348 6.25977 25.2197 15.8896c12.6045 10.9482 33.2578 19.418 62.3584 25.5732
c20.209 4.27441 22.3535 8.36914 68.3604 3.64355c8.86816 -0.911133 59.4033 -4.97656 59.4033 -3.64941c0 1.32227 -5.70312 10.0449 -12.6738 19.3838c-22.5166 30.166 -37.5723 55.7471 -55.7939 94.7979c-23.8301 51.0723 -22.9355 73.4678 -39.7041 131.02
c0 0 -9.30273 221.344 -14.0547 319.358c0.25293 0.699219 0.507812 1.40234 0.764648 2.1084c19.2627 52.9639 35.7314 68.167 64.5693 120.72c0 0 28.2109 49.6709 30.0068 53.5693c2.78125 6.03516 2.05957 10.8643 -1.1084 13.8398
c-4.14746 3.89648 -12.4873 4.61816 -22.6504 0.716797c-9.63672 -3.69922 -54.2441 -43.3408 -54.2441 -43.3408l-36.3047 -22.124c-88.0264 -53.6406 -147.49 -86.5674 -170.255 -94.2725c-18.2383 -6.17383 -28.5693 -16.2109 -26.916 -26.1484
c0.670898 -4.0332 2.03125 -8.19531 2.99316 -9.15723c2.96973 -2.96973 14.4209 -5.56836 29.0684 -6.59766c16.6543 -1.1709 37.248 -9.78613 62.1777 -26.0107c17.3125 -11.2676 21.7236 -9.88867 50.9141 -45.7617c4.63672 -5.69922 27.7705 -32.9248 36.2891 -41.7988
c-1.65332 -101.051 -2.71387 -211.514 -2.71387 -211.514z" />
</svg>
