<?xml version="1.0" standalone="no"?>
<!DOCTYPE svg PUBLIC "-//W3C//DTD SVG 1.1//EN" "http://www.w3.org/Graphics/SVG/1.1/DTD/svg11.dtd" >
<svg xmlns="http://www.w3.org/2000/svg" xmlns:xlink="http://www.w3.org/1999/xlink" version="1.1" viewBox="0 0 1808 800">
   <path fill="currentColor"
d="M300.014 5.2793c7.42969 -9.08496 30.668 -4.78711 27.7188 6.45312c-10.4199 39.707 -59.999 101.099 -87.0156 191.611c-12.5137 41.9268 -4.58105 91.0098 13.2666 136.916c10.7783 -22.7715 24.2676 -48.3691 46.0303 -74.9805
c7.42969 -9.08496 30.668 -4.78711 27.7188 6.45312c-6.92578 26.3916 -31.1504 62.3633 -54.5518 110.098c10.0635 18.791 21.3994 36.3594 33.125 51.8369c26.8828 35.4844 46.5342 98.8125 39.541 105.806c-2.85059 2.85156 -13.1025 -9.99902 -22.9033 -28.709
c-9.75781 -18.6289 -40.2637 -57.0977 -67.791 -85.4844c-0.296875 -0.306641 -0.592773 -0.611328 -0.887695 -0.915039c-4.8877 12.3477 -9.47461 25.333 -13.5479 38.9795c-21.8799 73.3076 18.748 168.492 65.5889 230.323
c26.8828 35.4844 46.5342 98.8125 39.541 105.806c-2.85059 2.85156 -13.1025 -9.99902 -22.9033 -28.709c-9.75781 -18.6289 -40.2637 -57.0977 -67.791 -85.4844c-46.7695 -48.2314 -66.0791 -61.6582 -160.273 -111.447
c-35.8535 -18.9502 -55.4121 -43.0488 -7.09668 -62.8086c22.7139 -9.29102 105.255 -83.0791 122.508 -97.4297c5.84668 -4.86328 10.8135 -10.6709 15.3154 -17.2891c-30.3066 -27.5 -58.5049 -44.2979 -130.727 -82.4727
c-35.8535 -18.9502 -55.4121 -43.0488 -7.09668 -62.8086c22.7139 -9.29102 105.255 -83.0791 122.508 -97.4297c33 -27.4473 37.9541 -85.0107 89.7236 -148.314zM819.36 729.941l-41.3154 10.0273c-100.174 24.3145 -165.504 43.0791 -187.049 53.7275
c-17.2617 8.53125 -31.6641 8.73926 -37.5225 0.542969c-2.37695 -3.32617 -4.3584 -7.23145 -4.3584 -8.5918c0 -4.19922 6.25977 -14.1348 15.8896 -25.2197c10.9482 -12.6045 19.418 -33.2578 25.5732 -62.3584c3.86816 -18.2871 7.58887 -21.7822 4.75977 -56.374
c-1.60254 0.696289 -3.05078 1.36328 -4.3418 2.00098c-17.2617 8.53125 -31.6641 8.73926 -37.5225 0.542969c-2.37695 -3.32617 -4.3584 -7.23145 -4.3584 -8.5918c0 -4.19922 6.25977 -14.1348 15.8896 -25.2197c10.9482 -12.6045 19.418 -33.2578 25.5732 -62.3584
c3.86816 -18.2871 7.58887 -21.7822 4.75977 -56.374c-1.60254 0.696289 -3.05078 1.36328 -4.3418 2.00098c-7.0127 3.46582 -13.5537 5.55762 -19.2412 6.27148c-1.51172 2.14648 -3.17188 4.4375 -4.91016 6.7666c-22.5166 30.166 -37.5723 55.7471 -55.7939 94.7979
c-23.8301 51.0723 -22.9355 73.4678 -39.7041 131.02c0 0 -15.1748 55.0703 -16.6611 59.0977c-2.30078 6.2334 -6.22559 9.1377 -10.5703 9.00195c-5.6875 -0.177734 -12.0947 -5.56445 -16.5225 -15.5098c-4.19824 -9.42969 -7.70996 -69.0029 -7.70996 -69.0029
l-10.0273 -41.3154c-24.3145 -100.174 -43.0791 -165.504 -53.7275 -187.049c-8.53125 -17.2617 -8.73926 -31.6641 -0.542969 -37.5225c3.32617 -2.37695 7.23145 -4.3584 8.5918 -4.3584c4.19922 0 14.1348 6.25977 25.2197 15.8896
c8.02637 6.97168 19.3154 12.9375 33.9707 17.9414c-2.08594 -19.873 -3.48438 -43.5859 -3.48438 -43.5859l-10.0273 -41.3154c-20.4971 -84.4492 -37.0508 -144.136 -48.123 -173.701c-2.14551 0.904297 -4.04102 1.7627 -5.68262 2.57422
c-17.2617 8.53125 -31.6641 8.73926 -37.5225 0.542969c-2.37695 -3.32617 -4.3584 -7.23145 -4.3584 -8.5918c0 -4.19922 6.25977 -14.1348 15.8896 -25.2197c10.9482 -12.6045 19.418 -33.2578 25.5732 -62.3584c4.27441 -20.209 8.36914 -22.3535 3.64355 -68.3604
c-0.911133 -8.86816 -4.97656 -59.4033 -3.64941 -59.4033c1.32227 0 10.0449 5.70312 19.3838 12.6738c30.166 22.5166 55.7471 37.5723 94.7979 55.7939c51.0723 23.8301 73.4678 22.9355 131.02 39.7041c0 0 236.891 7.17383 386.218 12.1396
c-10.9951 -39.6133 -19.7969 -66.46 -25.917 -78.8428c-8.53125 -17.2617 -8.73926 -31.6641 -0.542969 -37.5225c3.32617 -2.37695 7.23145 -4.3584 8.5918 -4.3584c4.19922 0 14.1348 6.25977 25.2197 15.8896c12.6045 10.9482 33.2578 19.418 62.3584 25.5732
c20.209 4.27441 22.3535 8.36914 68.3604 3.64355c8.86816 -0.911133 59.4033 -4.97656 59.4033 -3.64941c0 1.32227 -5.70312 10.0449 -12.6738 19.3838c-22.5166 30.166 -37.5723 55.7471 -55.7939 94.7979c-23.8301 51.0723 -22.9355 73.4678 -39.7041 131.02
c0 0 -5.55859 20.1738 -10.2773 36.9941c13.002 3.25195 21.1221 5.34961 59.0459 1.4541c8.86816 -0.911133 59.4033 -4.97656 59.4033 -3.64941c0 1.32227 -5.70312 10.0449 -12.6738 19.3838c-22.5166 30.166 -37.5723 55.7471 -55.7939 94.7979
c-23.8301 51.0723 -22.9355 73.4678 -39.7041 131.02c0 0 -4.82422 70.2861 -9.29883 132.318c1.97949 1.98926 2.90332 4.34473 2.8252 6.83887c-0.0869141 2.78906 -1.42676 5.75098 -3.94238 8.56836c-3.02051 41.4336 -5.66699 75.8066 -6.24512 77.3721
c-2.30078 6.2334 -6.22559 9.1377 -10.5703 9.00195c-5.6875 -0.177734 -12.0947 -5.56445 -16.5225 -15.5098c-1.33789 -3.00684 -2.60742 -27.9873 -3.71484 -60.625c-61.0859 3.11426 -209.518 5.4248 -209.518 5.4248zM835.773 678.478
c0 0 129.56 8.89355 192.119 13.7305c-1.18066 -42.6016 -2.09473 -89.6719 -2.59277 -117.515c-63.0986 3.02441 -205.939 5.24805 -205.939 5.24805l-41.3154 10.0273c-44.7451 10.8604 -82.5381 20.6143 -112.582 29.0312c11.833 6.52051 24.6104 12.9229 39.291 19.7734
c51.0723 23.8301 73.4678 22.9355 131.02 39.7041zM835.773 528.478c0 0 122.89 8.43555 187.091 13.3438l-8.00879 -32.998c-7.54102 -31.0684 -14.5479 -58.7842 -20.9443 -82.8828c-69.7207 2.36914 -174.551 4.00098 -174.551 4.00098l-41.3154 10.0273
c-44.7451 10.8604 -82.5381 20.6143 -112.582 29.0312c11.833 6.52051 24.6104 12.9229 39.291 19.7734c51.0723 23.8301 73.4678 22.9355 131.02 39.7041zM835.773 378.478c0 0 82.8037 5.68359 147.98 10.4355c-9.46875 -33.2275 -17.1289 -56.0166 -22.626 -67.1387
c-8.53125 -17.2617 -8.73926 -31.6641 -0.542969 -37.5225c3.32617 -2.37695 7.23145 -4.3584 8.5918 -4.3584c4.19922 0 14.1348 6.25977 25.2197 15.8896c8.02637 6.97168 19.3154 12.9375 33.9707 17.9414c-1.52832 -14.5576 -2.6875 -31.1768 -3.19727 -39.0244
c-63.166 3.02051 -205.81 5.24121 -205.81 5.24121l-41.3154 10.0273c-44.7451 10.8604 -82.5381 20.6143 -112.582 29.0312c11.833 6.52051 24.6104 12.9229 39.291 19.7734c51.0723 23.8301 73.4678 22.9355 131.02 39.7041zM595.338 341.695
c-1.60254 0.696289 -3.05078 1.36328 -4.3418 2.00098c-17.2617 8.53125 -31.6641 8.73926 -37.5225 0.542969c-2.37695 -3.32617 -4.3584 -7.23145 -4.3584 -8.5918c0 -4.19922 6.25977 -14.1348 15.8896 -25.2197c10.9482 -12.6045 19.418 -33.2578 25.5732 -62.3584
c4.27441 -20.209 8.36914 -22.3535 3.64355 -68.3604c-0.308594 -3.00977 -0.981445 -10.8203 -1.68359 -19.8262c-5.27441 0.0390625 -8.12402 0.0585938 -8.12402 0.0585938l-41.3154 10.0273c-47.293 11.4795 -86.8193 21.7207 -117.639 30.4561
c7.83594 2.57129 16.5967 4.87988 26.2949 6.93164c20.209 4.27441 22.3535 8.36914 68.3604 3.64355c8.86816 -0.911133 59.4033 -4.97656 59.4033 -3.64941c0 1.32227 -5.70312 10.0449 -12.6738 19.3838c-22.5166 30.166 -37.5723 55.7471 -55.7939 94.7979
c-23.8301 51.0723 -22.9355 73.4678 -39.7041 131.02c0 0 -5.55859 20.1738 -10.2773 36.9941c13.002 3.25195 21.1221 5.34961 59.0459 1.4541c4.10645 -0.421875 17.1475 -1.52051 29.9678 -2.44629c-0.603516 -1.27246 -0.967773 -2.32324 -0.967773 -2.90625
c0 -4.19922 6.25977 -14.1348 15.8896 -25.2197c10.9482 -12.6045 19.418 -33.2578 25.5732 -62.3584c3.86816 -18.2871 7.58887 -21.7822 4.75977 -56.374zM835.773 228.478c0 0 116.795 8.0166 182.146 12.9678l-3.06348 -12.6221
c-6.55859 -27.0215 -12.7129 -51.5078 -18.4141 -73.2832c-103.663 1.78125 -260.254 3.19922 -347.505 3.90723c16.5078 10.0166 34.0752 19.1807 55.8174 29.3262c51.0723 23.8301 73.4678 22.9355 131.02 39.7041zM201.021 213.171
c1.14648 -1.28809 2.23828 -2.56543 3.26855 -3.82715c-1.20215 0.676758 -2.29395 1.9834 -3.26855 3.82715zM201.021 473.171c1.14648 -1.28809 2.23828 -2.56543 3.26855 -3.82715c-1.20215 0.676758 -2.29395 1.9834 -3.26855 3.82715zM1392.99 696.153
l-36.3057 -22.124c-88.0264 -53.6406 -147.49 -86.5674 -170.254 -94.2725c-18.2383 -6.17383 -28.5693 -16.2109 -26.917 -26.1484c0.671875 -4.0332 2.03223 -8.19531 2.99414 -9.15723c2.96875 -2.96973 14.4209 -5.56836 29.0684 -6.59766
c16.6543 -1.1709 37.2471 -9.78613 62.1768 -26.0107c17.3125 -11.2676 21.7246 -9.88867 50.915 -45.7617c5.62598 -6.91504 38.4854 -45.5234 39.4238 -44.585c0.93457 0.93457 3.07031 11.1357 4.74414 22.668c5.40918 37.252 12.8516 65.9863 27.5801 106.484
c19.2637 52.9639 35.7324 68.168 64.5703 120.72c0 0 28.21 49.6709 30.0068 53.5703c2.78125 6.03418 2.05957 10.8633 -1.1084 13.8389c-4.14746 3.89648 -12.4873 4.61816 -22.6504 0.716797c-9.63672 -3.69922 -54.2441 -43.3408 -54.2441 -43.3408zM1555.62 533.519
l-36.3047 -22.124c-88.0264 -53.6416 -147.491 -86.5684 -170.255 -94.2725c-18.2383 -6.17383 -28.5693 -16.2109 -26.916 -26.1484c0.670898 -4.0332 2.03125 -8.19531 2.99316 -9.15723c2.96875 -2.96973 14.4209 -5.56934 29.0684 -6.59766
c10.6045 -0.745117 22.8066 -4.50977 36.708 -11.334c-15.5273 -12.5771 -33.2842 -28.3564 -33.2842 -28.3564l-36.3047 -22.124c-88.0264 -53.6406 -147.49 -86.5674 -170.255 -94.2725c-18.2383 -6.17285 -28.5693 -16.21 -26.916 -26.1484
c0.670898 -4.03223 2.03125 -8.19531 2.99316 -9.15723c2.96973 -2.96875 14.4209 -5.56836 29.0693 -6.59668c16.6543 -1.17188 37.2471 -9.78711 62.1768 -26.0117c17.3125 -11.2676 21.7236 -9.88867 50.9141 -45.7617
c5.62695 -6.91504 38.4854 -45.5234 39.4238 -44.585c0.935547 0.935547 3.07031 11.1357 4.74512 22.668c5.40918 37.2529 12.8516 65.9873 27.5801 106.485c19.2627 52.9639 35.7314 68.167 64.5693 120.72c0 0 10.335 18.1953 18.8926 33.4258
c11.4922 -6.89453 18.7178 -11.1533 42.7793 -40.7236c5.62695 -6.91504 38.4854 -45.5234 39.4238 -44.585c0.935547 0.93457 3.07031 11.1348 4.74512 22.668c5.4082 37.252 12.8516 65.9863 27.5801 106.484c19.2627 52.9639 35.7314 68.167 64.5693 120.72
c0 0 28.21 49.6709 30.0068 53.5693c2.78125 6.03516 2.05957 10.8633 -1.1084 13.8398c-4.14746 3.89648 -12.4873 4.61816 -22.6504 0.71582c-9.63672 -3.69922 -54.2441 -43.3398 -54.2441 -43.3398zM1718.26 370.884l-36.3047 -22.124
c-88.0264 -53.6406 -147.49 -86.5674 -170.255 -94.2725c-18.2383 -6.17285 -28.5693 -16.21 -26.916 -26.1484c0.670898 -4.03223 2.03125 -8.19531 2.99316 -9.15723c2.96973 -2.96875 14.4209 -5.56836 29.0693 -6.59766
c16.6543 -1.1709 37.2471 -9.78613 62.1768 -26.0107c17.3125 -11.2676 21.7236 -9.88867 50.9141 -45.7617c5.62695 -6.91504 38.4854 -45.5234 39.4238 -44.585c0.935547 0.93457 3.07031 11.1357 4.74512 22.668c5.40918 37.2529 12.8516 65.9873 27.5801 106.484
c19.2627 52.9648 35.7314 68.168 64.5693 120.721c0 0 28.2109 49.6699 30.0078 53.5693c2.78027 6.03418 2.05859 10.8633 -1.10938 13.8398c-4.14746 3.89551 -12.4873 4.61719 -22.6504 0.71582c-9.63672 -3.69922 -54.2441 -43.3408 -54.2441 -43.3408z" />
</svg>
