<?xml version="1.0" standalone="no"?>
<!DOCTYPE svg PUBLIC "-//W3C//DTD SVG 1.1//EN" "http://www.w3.org/Graphics/SVG/1.1/DTD/svg11.dtd" >
<svg xmlns="http://www.w3.org/2000/svg" xmlns:xlink="http://www.w3.org/1999/xlink" version="1.1" viewBox="0 0 1446 888">
   <path fill="currentColor"
d="M1185.19 409.941l-41.3154 10.0273c-77.0781 18.709 -133.527 34.1318 -165.274 45.0996c28.9629 21.3711 54.1523 36.0527 91.9834 53.7051c51.0723 23.8301 73.4678 22.9355 131.02 39.7041c0 0 221.07 15.1748 225.098 16.6611
c6.2334 2.30078 9.1377 6.22559 9.00195 10.5703c-0.177734 5.6875 -5.56445 12.0947 -15.5098 16.5225c-9.42969 4.19824 -235.003 7.70996 -235.003 7.70996l-41.3154 10.0273c-100.174 24.3145 -165.504 43.0791 -187.049 53.7275
c-17.2617 8.53125 -31.6641 8.73926 -37.5225 0.542969c-2.37695 -3.32617 -4.3584 -7.23145 -4.3584 -8.5918c0 -4.19922 6.25977 -14.1348 15.8896 -25.2197c10.9482 -12.6045 19.418 -33.2578 25.5732 -62.3584c4.27441 -20.209 8.36914 -22.3535 3.64355 -68.3604
c-0.490234 -4.77637 -1.89648 -21.6377 -2.88184 -36.1816c-0.115234 0.0566406 -0.230469 0.113281 -0.34375 0.168945c-17.2617 8.53125 -31.6641 8.73926 -37.5225 0.542969c-2.37695 -3.32617 -4.3584 -7.23145 -4.3584 -8.5918
c0 -4.19922 6.25977 -14.1348 15.8896 -25.2197c10.9482 -12.6045 19.418 -33.2578 25.5732 -62.3584c4.27441 -20.209 8.36914 -22.3535 3.64355 -68.3604c-0.911133 -8.86816 -4.97656 -59.4033 -3.64941 -59.4033c1.32227 0 10.0449 5.70312 19.3838 12.6738
c30.166 22.5166 55.7471 37.5723 94.7979 55.7939c51.0723 23.8301 73.4678 22.9355 131.02 39.7041c0 0 221.07 15.1748 225.098 16.6611c6.2334 2.30078 9.1377 6.22559 9.00195 10.5703c-0.177734 5.6875 -5.56445 12.0947 -15.5098 16.5225
c-9.42969 4.19824 -235.003 7.70996 -235.003 7.70996zM460.245 609.941l-41.3154 10.0273c-100.174 24.3145 -165.504 43.0791 -187.049 53.7275c-17.2617 8.53125 -31.6641 8.73926 -37.5225 0.542969c-2.37695 -3.32617 -4.3584 -7.23145 -4.3584 -8.5918
c0 -4.19922 6.25977 -14.1348 15.8896 -25.2197c10.9482 -12.6045 19.418 -33.2578 25.5732 -62.3584c4.27441 -20.209 8.36914 -22.3535 3.64355 -68.3604c-0.490234 -4.77637 -1.89648 -21.6377 -2.88184 -36.1816
c-0.115234 0.0566406 -0.230469 0.113281 -0.34375 0.168945c-17.2617 8.53125 -31.6641 8.73926 -37.5225 0.542969c-2.37695 -3.32617 -4.3584 -7.23145 -4.3584 -8.5918c0 -4.19922 6.25977 -14.1348 15.8896 -25.2197
c10.9482 -12.6045 19.418 -33.2578 25.5732 -62.3584c4.27441 -20.209 8.36914 -22.3535 3.64355 -68.3604c-0.490234 -4.77637 -1.89648 -21.6377 -2.88184 -36.1816c-0.115234 0.0566406 -0.230469 0.113281 -0.34375 0.168945
c-17.2617 8.53125 -31.6641 8.73926 -37.5225 0.542969c-2.37695 -3.32617 -4.3584 -7.23145 -4.3584 -8.5918c0 -4.19922 6.25977 -14.1348 15.8896 -25.2197c10.9482 -12.6045 19.418 -33.2578 25.5732 -62.3584c4.27441 -20.209 8.36914 -22.3535 3.64355 -68.3604
c-0.911133 -8.86816 -4.97656 -59.4033 -3.64941 -59.4033c1.32227 0 10.0449 5.70312 19.3838 12.6738c30.166 22.5166 55.7471 37.5723 94.7979 55.7939c51.0723 23.8301 73.4678 22.9355 131.02 39.7041c0 0 247.977 10.4219 335.214 14.8379
c-17.6357 -68.8955 -31.3799 -114.276 -39.9131 -131.541c-8.53125 -17.2617 -8.73926 -31.6641 -0.542969 -37.5225c3.32617 -2.37695 7.23145 -4.3584 8.5918 -4.3584c4.19922 0 14.1348 6.25977 25.2197 15.8896c12.6045 10.9482 33.2578 19.418 62.3584 25.5732
c20.209 4.27441 22.3535 8.36914 68.3604 3.64355c8.86816 -0.911133 59.4033 -4.97656 59.4033 -3.64941c0 1.32227 -5.70312 10.0449 -12.6738 19.3838c-22.5166 30.166 -37.5723 55.7471 -55.7939 94.7979c-23.8301 51.0723 -22.9355 73.4678 -39.7041 131.02
c0 0 -15.1748 501.07 -16.6611 505.098c-2.30078 6.2334 -6.22559 9.1377 -10.5703 9.00195c-0.553711 -0.0175781 -1.11426 -0.0839844 -1.67871 -0.199219c-2.51758 3.58984 -6.90723 7.05859 -13.0195 9.7793c-9.42969 4.19824 -515.003 7.70996 -515.003 7.70996
l-41.3154 10.0273c-100.174 24.3145 -165.504 43.0791 -187.049 53.7275c-17.2617 8.53125 -31.6641 8.73926 -37.5225 0.542969c-2.37695 -3.32617 -4.3584 -7.23145 -4.3584 -8.5918c0 -4.19922 6.25977 -14.1348 15.8896 -25.2197
c10.9482 -12.6045 19.418 -33.2578 25.5732 -62.3584c4.27441 -20.209 8.36914 -22.3535 3.64355 -68.3604c-0.911133 -8.86816 -4.97656 -59.4033 -3.64941 -59.4033c1.32227 0 10.0449 5.70312 19.3838 12.6738c30.166 22.5166 55.7471 37.5723 94.7979 55.7939
c51.0723 23.8301 73.4678 22.9355 131.02 39.7041c0 0 429.256 13 496.35 16.1133c-1.51855 -15.1201 -2.93262 -92.207 -4.10352 -182.187c-1.14062 0.638672 -2.35938 1.25 -3.65625 1.82715c-9.42969 4.19824 -375.003 7.70996 -375.003 7.70996zM476.658 558.478
c0 0 325.975 13.7002 361.924 16.3408c-0.716797 -58.6348 -1.33008 -120.642 -1.80273 -173.302c-0.498047 0.243164 -1.00781 0.482422 -1.53125 0.714844c-9.42969 4.19824 -375.003 7.70996 -375.003 7.70996l-41.3154 10.0273
c-77.0781 18.709 -133.527 34.1318 -165.274 45.0996c28.9629 21.3711 54.1523 36.0527 91.9834 53.7051c51.0723 23.8301 73.4678 22.9355 131.02 39.7041zM476.658 358.478c0 0 315.188 13.2461 359.885 16.1992
c-0.529297 -61.3574 -0.829102 -104.538 -0.829102 -104.538l-10.0273 -41.3154c-2.10254 -8.66309 -4.16406 -17.0654 -6.18164 -25.2021c-71.4922 3.55566 -359.26 6.32031 -359.26 6.32031l-41.3154 10.0273c-77.0781 18.709 -133.527 34.1318 -165.274 45.0996
c28.9629 21.3711 54.1523 36.0527 91.9834 53.7051c51.0723 23.8301 73.4678 22.9355 131.02 39.7041z" />
</svg>
