<?xml version="1.0" standalone="no"?>
<!DOCTYPE svg PUBLIC "-//W3C//DTD SVG 1.1//EN" "http://www.w3.org/Graphics/SVG/1.1/DTD/svg11.dtd" >
<svg xmlns="http://www.w3.org/2000/svg" xmlns:xlink="http://www.w3.org/1999/xlink" version="1.1" viewBox="0 0 1281 800">
   <path fill="currentColor"
d="M757.629 650.431c-19.1475 2.02637 -28.5693 -16.2109 -26.916 -26.1494c0.416992 -2.50391 1.09961 -5.05859 1.78711 -6.86523c-10.5859 -8.98438 -19.335 -16.7598 -19.335 -16.7598l-36.3047 -22.124c-88.0264 -53.6406 -147.49 -86.5674 -170.254 -94.2725
c-18.2393 -6.17285 -28.5703 -16.21 -26.917 -26.1484c0.671875 -4.03223 2.03223 -8.19531 2.99414 -9.15723c2.96875 -2.96875 14.4209 -5.56836 29.0684 -6.59668c4.01465 -0.282227 8.25879 -0.998047 12.7373 -2.14746
c-17.71 0.723633 -39.5137 1.39453 -62.041 1.98828c-4.58398 147.475 -10.9424 346.916 -11.8779 349.451c-2.30078 6.2334 -6.22559 9.1377 -10.5703 9.00195c-5.6875 -0.177734 -12.0947 -5.56445 -16.5225 -15.5098
c-2.5498 -5.72754 -4.84668 -194.513 -6.25684 -341.856c-46.999 1.03418 -86.9756 1.65625 -86.9756 1.65625l-41.3154 10.0273c-100.174 24.3145 -165.504 43.0791 -187.049 53.7275c-17.2617 8.53125 -31.6641 8.73926 -37.5225 0.542969
c-2.37695 -3.32617 -4.3584 -7.23145 -4.3584 -8.5918c0 -4.19922 6.25977 -14.1348 15.8896 -25.2197c10.9482 -12.6045 19.418 -33.2578 25.5732 -62.3584c4.27441 -20.209 8.36914 -22.3535 3.64355 -68.3604c-0.911133 -8.86816 -4.97656 -59.4033 -3.64941 -59.4033
c1.32227 0 10.0449 5.70312 19.3838 12.6738c30.166 22.5166 55.7471 37.5723 94.7979 55.7939c51.0723 23.8301 73.4678 22.9355 131.02 39.7041c0 0 31.0811 2.13379 70.1465 4.87891c-0.658203 -73.6328 -1.03711 -128.218 -1.03711 -128.218l-10.0273 -41.3154
c-24.3145 -100.174 -43.0791 -165.504 -53.7275 -187.049c-8.53125 -17.2617 -8.73926 -31.6641 -0.542969 -37.5225c3.32617 -2.37695 7.23145 -4.3584 8.5918 -4.3584c4.19922 0 14.1348 6.25977 25.2197 15.8896c12.6045 10.9482 33.2578 19.418 62.3584 25.5732
c20.209 4.27441 22.3535 8.36914 68.3604 3.64355c8.86816 -0.911133 59.4033 -4.97656 59.4033 -3.64941c0 1.32227 -5.70312 10.0449 -12.6738 19.3838c-22.5166 30.166 -37.5723 55.7471 -55.7939 94.7979c-23.8301 51.0723 -22.9355 73.4678 -39.7041 131.02
c0 0 -1.46387 48.3477 -3.52734 115.128c53.7354 3.8457 106.11 7.74219 108.052 8.45898c2.63379 0.97168 4.67285 2.23438 6.13965 3.69531c14.2217 -8.77637 20.1182 -10.2773 46.9482 -43.25c5.62598 -6.91504 38.4854 -45.5234 39.4238 -44.585
c0.93457 0.935547 3.07031 11.1357 4.74414 22.668c5.40918 37.2529 12.8516 65.9873 27.5801 106.485c19.2637 52.9639 35.7314 68.167 64.5703 120.72c0 0 7.37402 12.9844 14.8223 26.1973c34.0049 -21.1924 118.093 -88.9248 158.05 -119.382
c-1.29297 -0.360352 -2.625 -0.800781 -3.99023 -1.3252c-9.63574 -3.69922 -54.2441 -43.3408 -54.2441 -43.3408l-36.3047 -22.124c-88.0264 -53.6406 -147.49 -86.5674 -170.255 -94.2725c-18.2383 -6.17285 -28.5693 -16.21 -26.916 -26.1484
c0.670898 -4.03223 2.03125 -8.19531 2.99316 -9.15723c2.96973 -2.96875 14.4219 -5.56836 29.0693 -6.59668c16.6543 -1.1709 37.2471 -9.78613 62.1768 -26.0117c17.3125 -11.2666 21.7246 -9.8877 50.9141 -45.7617c5.62695 -6.91406 38.4863 -45.5234 39.4248 -44.585
c0.93457 0.935547 3.06934 11.1357 4.74414 22.6689c5.40918 37.252 12.8516 65.9863 27.5801 106.484c19.2627 52.9639 35.7314 68.167 64.5693 120.72c0 0 28.2109 49.6709 30.0078 53.5693c0.177734 0.386719 0.341797 0.768555 0.491211 1.14551
c20.9688 -15.1689 98.4697 -87.5059 126.633 -122.116c2.7666 -3.40039 12.1152 -14.4609 21.0176 -24.7168c-2.84082 -0.34082 -5.95703 -1.12109 -9.2666 -2.3916c-9.63574 -3.69922 -54.2441 -43.3398 -54.2441 -43.3398l-36.3047 -22.124
c-88.0264 -53.6416 -147.49 -86.5684 -170.255 -94.2725c-18.2383 -6.17383 -28.5693 -16.2109 -26.916 -26.1484c0.670898 -4.0332 2.03125 -8.19531 2.99316 -9.15723c2.96973 -2.96973 14.4209 -5.56836 29.0693 -6.59766
c16.6543 -1.1709 37.2471 -9.78613 62.1768 -26.0107c17.3125 -11.2676 21.7246 -9.88867 50.9141 -45.7617c5.62695 -6.91504 38.4863 -45.5234 39.4238 -44.585c0.935547 0.93457 3.07031 11.1348 4.74512 22.668c5.40918 37.252 12.8516 65.9863 27.5801 106.484
c19.2627 52.9639 35.7314 68.167 64.5693 120.72c0 0 28.2109 49.6709 30.0078 53.5693c0.0712891 0.155273 0.140625 0.310547 0.208008 0.463867c2.14551 -2.26562 3.52344 -3.56641 3.70508 -3.38477c0.93457 0.93457 3.78418 11.0537 4.74414 22.668
c13.5059 163.358 58.1191 308.339 143.37 457.551c3.29688 5.76855 2.05957 10.8633 -1.1084 13.8398c-4.14746 3.89551 -15.8496 9.21582 -22.6504 0.71582c-75.999 -95.001 -391.413 -155.72 -487.078 -145.595z" />
</svg>
