<?xml version="1.0" standalone="no"?>
<!DOCTYPE svg PUBLIC "-//W3C//DTD SVG 1.1//EN" "http://www.w3.org/Graphics/SVG/1.1/DTD/svg11.dtd" >
<svg xmlns="http://www.w3.org/2000/svg" xmlns:xlink="http://www.w3.org/1999/xlink" version="1.1" viewBox="0 0 1079 681">
   <path fill="currentColor"
d="M335.245 383.941l-41.3154 10.0273c-100.174 24.3145 -165.504 43.0791 -187.049 53.7275c-17.2617 8.53125 -31.6641 8.73926 -37.5225 0.542969c-2.37695 -3.32617 -4.3584 -7.23145 -4.3584 -8.5918c0 -4.19922 6.25977 -14.1348 15.8896 -25.2197
c10.9482 -12.6045 19.418 -33.2578 25.5732 -62.3584c4.27441 -20.209 8.36914 -22.3535 3.64355 -68.3604c-0.911133 -8.86816 -4.97656 -59.4033 -3.64941 -59.4033c1.32227 0 10.0449 5.70312 19.3838 12.6738c30.166 22.5166 55.7471 37.5723 94.7979 55.7939
c51.0723 23.8301 73.4678 22.9355 131.02 39.7041c0 0 221.07 15.1748 225.098 16.6611c6.2334 2.30078 9.1377 6.22559 9.00195 10.5703c-0.177734 5.6875 -5.56445 12.0947 -15.5098 16.5225c-9.42969 4.19824 -235.003 7.70996 -235.003 7.70996zM663.876 635.153
l-36.3057 -22.124c-88.0264 -53.6406 -147.49 -86.5674 -170.254 -94.2725c-18.2383 -6.17383 -28.5693 -16.2109 -26.917 -26.1484c0.671875 -4.0332 2.03223 -8.19531 2.99414 -9.15723c2.96875 -2.96973 14.4209 -5.56836 29.0684 -6.59766
c16.6543 -1.1709 37.2471 -9.78613 62.1768 -26.0107c17.3125 -11.2676 21.7246 -9.88867 50.915 -45.7617c5.62598 -6.91504 38.4854 -45.5234 39.4238 -44.585c0.93457 0.93457 3.07031 11.1357 4.74414 22.668c5.40918 37.252 12.8516 65.9863 27.5801 106.484
c19.2637 52.9639 35.7324 68.168 64.5703 120.72c0 0 28.21 49.6709 30.0068 53.5703c2.78125 6.03418 2.05957 10.8633 -1.1084 13.8389c-4.14746 3.89648 -12.4873 4.61816 -22.6504 0.716797c-9.63672 -3.69922 -54.2441 -43.3408 -54.2441 -43.3408zM826.51 472.519
l-36.3047 -22.124c-88.0264 -53.6416 -147.491 -86.5684 -170.255 -94.2725c-18.2383 -6.17383 -28.5693 -16.2109 -26.916 -26.1484c0.670898 -4.0332 2.03125 -8.19531 2.99316 -9.15723c2.96875 -2.96973 14.4209 -5.56934 29.0684 -6.59766
c10.6045 -0.745117 22.8057 -4.50977 36.707 -11.334c-15.5273 -12.5771 -33.2832 -28.3564 -33.2832 -28.3564l-36.3047 -22.124c-88.0264 -53.6406 -147.49 -86.5674 -170.255 -94.2725c-18.2383 -6.17285 -28.5693 -16.21 -26.916 -26.1484
c0.670898 -4.03223 2.03125 -8.19531 2.99316 -9.15723c2.96973 -2.96875 14.4209 -5.56836 29.0693 -6.59668c16.6543 -1.17188 37.2471 -9.78711 62.1768 -26.0117c17.3125 -11.2676 21.7236 -9.88867 50.9141 -45.7617
c5.62695 -6.91504 38.4854 -45.5234 39.4238 -44.585c0.935547 0.935547 3.07031 11.1357 4.74512 22.668c5.40918 37.2529 12.8516 65.9873 27.5801 106.485c19.2627 52.9639 35.7314 68.167 64.5693 120.72c0 0 10.334 18.1953 18.8916 33.4258
c11.4932 -6.89453 18.7178 -11.1533 42.7803 -40.7236c5.62695 -6.91504 38.4854 -45.5234 39.4238 -44.585c0.935547 0.93457 3.07031 11.1348 4.74512 22.668c5.4082 37.252 12.8516 65.9863 27.5801 106.484c19.2627 52.9639 35.7314 68.167 64.5693 120.72
c0 0 28.21 49.6709 30.0068 53.5693c2.78125 6.03516 2.05957 10.8633 -1.1084 13.8398c-4.14746 3.89648 -12.4873 4.61816 -22.6504 0.71582c-9.63672 -3.69922 -54.2441 -43.3398 -54.2441 -43.3398zM989.145 309.884l-36.3047 -22.124
c-88.0264 -53.6406 -147.49 -86.5674 -170.255 -94.2725c-18.2383 -6.17285 -28.5693 -16.21 -26.916 -26.1484c0.670898 -4.03223 2.03125 -8.19531 2.99316 -9.15723c2.96973 -2.96875 14.4209 -5.56836 29.0693 -6.59766
c16.6543 -1.1709 37.2471 -9.78613 62.1768 -26.0107c17.3125 -11.2676 21.7236 -9.88867 50.9141 -45.7617c5.62695 -6.91504 38.4854 -45.5234 39.4238 -44.585c0.935547 0.93457 3.07031 11.1357 4.74512 22.668c5.40918 37.2529 12.8516 65.9873 27.5801 106.484
c19.2627 52.9648 35.7314 68.168 64.5693 120.721c0 0 28.2109 49.6699 30.0078 53.5693c2.78027 6.03418 2.05859 10.8633 -1.10938 13.8398c-4.14746 3.89551 -12.4873 4.61719 -22.6504 0.71582c-9.63672 -3.69922 -54.2441 -43.3408 -54.2441 -43.3408z" />
</svg>
