<?xml version="1.0" standalone="no"?>
<!DOCTYPE svg PUBLIC "-//W3C//DTD SVG 1.1//EN" "http://www.w3.org/Graphics/SVG/1.1/DTD/svg11.dtd" >
<svg xmlns="http://www.w3.org/2000/svg" xmlns:xlink="http://www.w3.org/1999/xlink" version="1.1" viewBox="0 0 4458 976">
   <path fill="currentColor"
d="M4177.52 270.195l41.3154 -10.0273c77.0781 -18.709 133.527 -34.1318 165.274 -45.0996c-28.9629 -21.3711 -54.1523 -36.0527 -91.9834 -53.7051c-51.0723 -23.8301 -73.4678 -22.9355 -131.02 -39.7041c0 0 -460.163 -8.94043 -675.907 -13.7686
c2.4375 22.1426 4.56152 110.206 5.77441 170.734c0.501953 -0.245117 1.01562 -0.485352 1.54297 -0.719727c9.42969 -4.19824 235.003 -7.70996 235.003 -7.70996l41.3154 -10.0273c100.174 -24.3145 165.504 -43.0791 187.049 -53.7275
c17.2617 -8.53125 31.6641 -8.73926 37.5225 -0.542969c2.37695 3.32617 4.3584 7.23145 4.3584 8.5918c0 4.19922 -6.25977 14.1348 -15.8896 25.2197c-7.31543 8.42285 -13.5244 20.4385 -18.6758 36.167c57.6729 -3.24219 214.32 -5.68066 214.32 -5.68066z
M4161.1 321.659c0 0 -151.365 -10.3896 -205.88 -14.8174c-3.82812 16.1104 -6.89453 21.4678 -2.56836 63.5859c0.490234 4.77637 1.89648 21.6377 2.88184 36.1816c0.115234 -0.0566406 0.230469 -0.113281 0.34375 -0.168945
c17.2617 -8.53125 31.6641 -8.73926 37.5225 -0.542969c2.37695 3.32617 4.3584 7.23145 4.3584 8.5918c0 4.19922 -6.25977 14.1348 -15.8896 25.2197c-10.9482 12.6045 -19.418 33.2578 -25.5732 62.3584c-4.27441 20.209 -8.36914 22.3535 -3.64355 68.3604
c0.490234 4.77637 1.89648 21.6377 2.88184 36.1816c0.115234 -0.0566406 0.230469 -0.113281 0.34375 -0.168945c17.2617 -8.53125 31.6641 -8.73926 37.5225 -0.542969c2.37695 3.32617 4.3584 7.23145 4.3584 8.5918c0 4.19922 -6.25977 14.1348 -15.8896 25.2197
c-10.9482 12.6045 -19.418 33.2578 -25.5732 62.3584c-4.27441 20.209 -8.36914 22.3535 -3.64355 68.3604c0.911133 8.86816 4.97656 59.4033 3.64941 59.4033c-1.32227 0 -10.0449 -5.70312 -19.3838 -12.6738c-30.166 -22.5166 -55.7471 -37.5723 -94.7979 -55.7939
c-51.0723 -23.8301 -73.4678 -22.9355 -131.02 -39.7041c0 0 -136.701 -9.38379 -197.069 -14.1152c18.5283 72.9805 32.9385 120.953 41.7686 138.818c8.53125 17.2617 8.73926 31.6641 0.542969 37.5225c-3.32617 2.37695 -7.23145 4.3584 -8.5918 4.3584
c-4.19922 0 -14.1348 -6.25977 -25.2197 -15.8896c-12.6045 -10.9482 -33.2578 -19.418 -62.3584 -25.5732c-20.209 -4.27441 -22.3535 -8.36914 -68.3604 -3.64355c-8.86816 0.911133 -59.4033 4.97656 -59.4033 3.64941c0 -1.32227 5.70312 -10.0449 12.6738 -19.3838
c22.5166 -30.166 37.5723 -55.7471 55.7939 -94.7979c23.8301 -51.0723 22.9355 -73.4678 39.7041 -131.02c0 0 5.55859 -20.1738 10.2773 -36.9941c-13.002 -3.25195 -21.1221 -5.34961 -59.0459 -1.4541c-8.86816 0.911133 -59.4033 4.97656 -59.4033 3.64941
c0 -1.32227 5.70312 -10.0449 12.6738 -19.3838c22.5166 -30.166 37.5723 -55.7471 55.7939 -94.7979c23.8301 -51.0723 22.9355 -73.4678 39.7041 -131.02c0 0 11.6328 -169.472 15.5264 -214.354c-48.71 -1.125 -79.3154 -1.94141 -80.1045 -2.23242
c-6.2334 -2.30078 -9.1377 -6.22559 -9.00195 -10.5703c0.177734 -5.6875 5.56445 -12.0947 15.5098 -16.5225c9.42969 -4.19824 795.003 -7.70996 795.003 -7.70996l41.3154 -10.0273c100.174 -24.3145 165.504 -43.0791 187.049 -53.7275
c17.2617 -8.53125 31.6641 -8.73926 37.5225 -0.542969c2.37695 3.32617 4.3584 7.23145 4.3584 8.5918c0 4.19922 -6.25977 14.1348 -15.8896 25.2197c-10.9482 12.6045 -19.418 33.2578 -25.5732 62.3584c-4.27441 20.209 -8.36914 22.3535 -3.64355 68.3604
c0.490234 4.77637 1.89648 21.6377 2.88184 36.1816c0.115234 -0.0566406 0.230469 -0.113281 0.34375 -0.168945c17.2617 -8.53125 31.6641 -8.73926 37.5225 -0.542969c2.37695 3.32617 4.3584 7.23145 4.3584 8.5918c0 4.19922 -6.25977 14.1348 -15.8896 25.2197
c-10.9482 12.6045 -19.418 33.2578 -25.5732 62.3584c-4.27441 20.209 -8.36914 22.3535 -3.64355 68.3604c0.911133 8.86816 4.97656 59.4033 3.64941 59.4033c-1.32227 0 -10.0449 -5.70312 -19.3838 -12.6738c-30.166 -22.5166 -55.7471 -37.5723 -94.7979 -55.7939
c-51.0723 -23.8301 -73.4678 -22.9355 -131.02 -39.7041zM3727.52 470.195l41.3154 -10.0273c77.0781 -18.709 133.527 -34.1318 165.274 -45.0996c-28.9629 -21.3711 -54.1523 -36.0527 -91.9834 -53.7051c-51.0723 -23.8301 -73.4678 -22.9355 -131.02 -39.7041
c0 0 -185.008 -12.6992 -219.613 -16.001c0.359375 19.5791 0.557617 32.3398 0.557617 32.3398l10.0273 41.3154c8.9375 36.8232 17.126 68.9385 24.4365 95.9014c65.2949 -2.90723 201.005 -5.01953 201.005 -5.01953zM3711.1 521.659
c0 0 -108.692 -7.46094 -175.038 -12.4326c8.14648 27.8271 14.8105 47.168 19.7373 57.1357c8.53125 17.2617 8.73926 31.6641 0.542969 37.5225c-3.32617 2.37695 -7.23145 4.3584 -8.5918 4.3584c-4.19922 0 -14.1348 -6.25977 -25.2197 -15.8896
c-8.02539 -6.97168 -19.3154 -12.9375 -33.9707 -17.9414c2.08691 19.873 3.48438 43.5859 3.48438 43.5859l10.0273 41.3154c1.40332 5.78027 2.78809 11.4453 4.15332 16.9922c50.6621 -3.4541 221.288 -6.11035 221.288 -6.11035l41.3154 -10.0273
c77.0781 -18.709 133.527 -34.1318 165.274 -45.0996c-28.9629 -21.3711 -54.1523 -36.0527 -91.9834 -53.7051c-51.0723 -23.8301 -73.4678 -22.9355 -131.02 -39.7041zM2539.05 337.998l10.0273 41.3154c24.3145 100.174 43.0791 165.504 53.7275 187.049
c8.53125 17.2617 8.73926 31.6641 0.542969 37.5225c-3.32617 2.37695 -7.23145 4.3584 -8.5918 4.3584c-4.19922 0 -14.1348 -6.25977 -25.2197 -15.8896c-12.6045 -10.9482 -33.2578 -19.418 -62.3584 -25.5732c-20.209 -4.27441 -22.3535 -8.36914 -68.3604 -3.64355
c-8.86816 0.911133 -59.4033 4.97656 -59.4033 3.64941c0 -1.32227 5.70312 -10.0449 12.6738 -19.3838c22.5166 -30.166 37.5723 -55.7471 55.7939 -94.7979c23.8301 -51.0723 22.9355 -73.4678 39.7041 -131.02c0 0 0.333984 -4.87109 0.90918 -13.1807
c-126.19 -2.65918 -224.068 -4.88281 -225.487 -5.40625c-6.2334 -2.30078 -9.1377 -6.22559 -9.00195 -10.5703c0.177734 -5.6875 5.56445 -12.0947 15.5098 -16.5225c3.24219 -1.44336 98.2402 -2.80566 221.514 -3.97168
c4.57031 -65.4346 12.1865 -172.652 13.2178 -175.446c2.30078 -6.2334 6.22559 -9.1377 10.5703 -9.00195c5.6875 0.177734 12.0947 5.56445 16.5225 15.5098c2.69531 6.05273 5.10742 101.172 6.48926 168.516c58.8672 -0.508789 121.974 -0.972656 183.326 -1.38379
c4.58301 -65.5811 12.0703 -170.872 13.0918 -173.64c2.30078 -6.2334 6.22559 -9.1377 10.5703 -9.00195c5.6875 0.177734 12.0947 5.56445 16.5225 15.5098c2.67285 6.00293 5.06641 99.5947 6.4541 166.828c68.3545 -0.43457 132.451 -0.794922 183.457 -1.06445
c4.59082 -65.667 11.9814 -169.522 12.9961 -172.271c2.30078 -6.2334 6.22559 -9.1377 10.5703 -9.00195c5.6875 0.177734 12.0947 5.56445 16.5225 15.5098c2.65527 5.96387 5.03613 98.3896 6.42676 165.522c41.502 -0.208984 66.752 -0.322266 66.752 -0.322266
l41.3154 -10.0273c100.174 -24.3145 165.504 -43.0791 187.049 -53.7275c17.2617 -8.53125 31.6641 -8.73926 37.5225 -0.542969c2.37695 3.32617 4.3584 7.23145 4.3584 8.5918c0 4.19922 -6.25977 14.1348 -15.8896 25.2197
c-10.9482 12.6045 -19.418 33.2578 -25.5732 62.3584c-4.27441 20.209 -8.36914 22.3535 -3.64355 68.3604c0.911133 8.86816 4.97656 59.4033 3.64941 59.4033c-1.32227 0 -10.0449 -5.70312 -19.3838 -12.6738c-30.166 -22.5166 -55.7471 -37.5723 -94.7979 -55.7939
c-51.0723 -23.8301 -73.4678 -22.9355 -131.02 -39.7041c0 0 -18.3262 -0.356445 -49.3799 -0.964844c0.210938 12.0137 0.324219 19.3037 0.324219 19.3037l10.0273 41.3154c24.3145 100.174 43.0791 165.504 53.7275 187.049
c8.53125 17.2617 8.73926 31.6641 0.542969 37.5225c-3.32617 2.37695 -7.23145 4.3584 -8.5918 4.3584c-4.19922 0 -14.1348 -6.25977 -25.2197 -15.8896c-12.6045 -10.9482 -33.2578 -19.418 -62.3584 -25.5732c-20.209 -4.27441 -22.3535 -8.36914 -68.3604 -3.64355
c-8.86816 0.911133 -59.4033 4.97656 -59.4033 3.64941c0 -1.32227 5.70312 -10.0449 12.6738 -19.3838c22.5166 -30.166 37.5723 -55.7471 55.7939 -94.7979c23.8301 -51.0723 22.9355 -73.4678 39.7041 -131.02c0 0 0.09375 -1.36719 0.267578 -3.88965
c-48.8262 -0.960938 -111.568 -2.20312 -179.208 -3.55859c0.261719 14.7031 0.404297 23.8613 0.404297 23.8613l10.0273 41.3154c24.3145 100.174 43.0791 165.504 53.7275 187.049c8.53125 17.2617 8.73926 31.6641 0.542969 37.5225
c-3.32617 2.37695 -7.23145 4.3584 -8.5918 4.3584c-4.19922 0 -14.1348 -6.25977 -25.2197 -15.8896c-12.6045 -10.9482 -33.2578 -19.418 -62.3584 -25.5732c-20.209 -4.27441 -22.3535 -8.36914 -68.3604 -3.64355c-8.86816 0.911133 -59.4033 4.97656 -59.4033 3.64941
c0 -1.32227 5.70312 -10.0449 12.6738 -19.3838c22.5166 -30.166 37.5723 -55.7471 55.7939 -94.7979c23.8301 -51.0723 22.9355 -73.4678 39.7041 -131.02c0 0 0.209961 -3.05859 0.583008 -8.46191c-59.7939 -1.20605 -121.578 -2.46484 -179.608 -3.6709
c0.316406 17.417 0.489258 28.5459 0.489258 28.5459zM3064.52 728.195l41.3154 -10.0273c100.174 -24.3145 165.504 -43.0791 187.049 -53.7275c17.2617 -8.53125 31.6641 -8.73926 37.5225 -0.542969c2.37695 3.32617 4.3584 7.23145 4.3584 8.5918
c0 4.19922 -6.25977 14.1348 -15.8896 25.2197c-10.9482 12.6045 -19.418 33.2578 -25.5732 62.3584c-4.27441 20.209 -8.36914 22.3535 -3.64355 68.3604c0.911133 8.86816 4.97656 59.4033 3.64941 59.4033c-1.32227 0 -10.0449 -5.70312 -19.3838 -12.6738
c-30.166 -22.5166 -55.7471 -37.5723 -94.7979 -55.7939c-51.0723 -23.8301 -73.4678 -22.9355 -131.02 -39.7041c0 0 -781.07 -15.1748 -785.098 -16.6611c-6.2334 -2.30078 -9.1377 -6.22559 -9.00195 -10.5703c0.177734 -5.6875 5.56445 -12.0947 15.5098 -16.5225
c9.42969 -4.19824 795.003 -7.70996 795.003 -7.70996zM330.245 705.941l-41.3154 10.0273c-77.0781 18.709 -133.527 34.1318 -165.274 45.0996c28.9629 21.3711 54.1523 36.0527 91.9834 53.7051c51.0723 23.8301 73.4678 22.9355 131.02 39.7041
c0 0 460.163 8.94043 675.907 13.7686c-2.4375 -22.1426 -4.56152 -110.206 -5.77441 -170.734c-0.501953 0.245117 -1.01562 0.485352 -1.54297 0.719727c-9.42969 4.19824 -235.003 7.70996 -235.003 7.70996l-41.3154 10.0273
c-100.174 24.3145 -165.504 43.0791 -187.049 53.7275c-17.2617 8.53125 -31.6641 8.73926 -37.5225 0.542969c-2.37695 -3.32617 -4.3584 -7.23145 -4.3584 -8.5918c0 -4.19922 6.25977 -14.1348 15.8896 -25.2197c7.31543 -8.42285 13.5244 -20.4385 18.6758 -36.167
c-57.6729 3.24219 -214.32 5.68066 -214.32 5.68066zM346.658 654.478c0 0 151.365 10.3896 205.88 14.8174c3.82812 -16.1104 6.89453 -21.4678 2.56836 -63.5859c-0.490234 -4.77637 -1.89648 -21.6377 -2.88184 -36.1816
c-0.115234 0.0566406 -0.230469 0.113281 -0.34375 0.168945c-17.2617 8.53125 -31.6641 8.73926 -37.5225 0.542969c-2.37695 -3.32617 -4.3584 -7.23145 -4.3584 -8.5918c0 -4.19922 6.25977 -14.1348 15.8896 -25.2197
c10.9482 -12.6045 19.418 -33.2578 25.5732 -62.3584c4.27441 -20.209 8.36914 -22.3535 3.64355 -68.3604c-0.490234 -4.77637 -1.89648 -21.6377 -2.88184 -36.1816c-0.115234 0.0566406 -0.230469 0.113281 -0.34375 0.168945
c-17.2617 8.53125 -31.6641 8.73926 -37.5225 0.542969c-2.37695 -3.32617 -4.3584 -7.23145 -4.3584 -8.5918c0 -4.19922 6.25977 -14.1348 15.8896 -25.2197c10.9482 -12.6045 19.418 -33.2578 25.5732 -62.3584c4.27441 -20.209 8.36914 -22.3535 3.64355 -68.3604
c-0.911133 -8.86816 -4.97656 -59.4033 -3.64941 -59.4033c1.32227 0 10.0449 5.70312 19.3838 12.6738c30.166 22.5166 55.7471 37.5723 94.7979 55.7939c51.0723 23.8301 73.4678 22.9355 131.02 39.7041c0 0 136.701 9.38379 197.069 14.1152
c-18.5283 -72.9805 -32.9385 -120.953 -41.7686 -138.818c-8.53125 -17.2617 -8.73926 -31.6641 -0.542969 -37.5225c3.32617 -2.37695 7.23145 -4.3584 8.5918 -4.3584c4.19922 0 14.1348 6.25977 25.2197 15.8896c12.6045 10.9482 33.2578 19.418 62.3584 25.5732
c20.209 4.27441 22.3535 8.36914 68.3604 3.64355c8.86816 -0.911133 59.4033 -4.97656 59.4033 -3.64941c0 1.32227 -5.70312 10.0449 -12.6738 19.3838c-22.5166 30.166 -37.5723 55.7471 -55.7939 94.7979c-23.8301 51.0723 -22.9355 73.4678 -39.7041 131.02
c0 0 -5.55859 20.1738 -10.2773 36.9941c13.002 3.25195 21.1221 5.34961 59.0459 1.4541c8.86816 -0.911133 59.4033 -4.97656 59.4033 -3.64941c0 1.32227 -5.70312 10.0449 -12.6738 19.3838c-22.5166 30.166 -37.5723 55.7471 -55.7939 94.7979
c-23.8301 51.0723 -22.9355 73.4678 -39.7041 131.02c0 0 -11.6328 169.472 -15.5264 214.354c48.71 1.125 79.3154 1.94141 80.1045 2.23242c6.2334 2.30078 9.1377 6.22559 9.00195 10.5703c-0.177734 5.6875 -5.56445 12.0947 -15.5098 16.5225
c-9.42969 4.19824 -795.003 7.70996 -795.003 7.70996l-41.3154 10.0273c-100.174 24.3145 -165.504 43.0791 -187.049 53.7275c-17.2617 8.53125 -31.6641 8.73926 -37.5225 0.542969c-2.37695 -3.32617 -4.3584 -7.23145 -4.3584 -8.5918
c0 -4.19922 6.25977 -14.1348 15.8896 -25.2197c10.9482 -12.6045 19.418 -33.2578 25.5732 -62.3584c4.27441 -20.209 8.36914 -22.3535 3.64355 -68.3604c-0.490234 -4.77637 -1.89648 -21.6377 -2.88184 -36.1816
c-0.115234 0.0566406 -0.230469 0.113281 -0.34375 0.168945c-17.2617 8.53125 -31.6641 8.73926 -37.5225 0.542969c-2.37695 -3.32617 -4.3584 -7.23145 -4.3584 -8.5918c0 -4.19922 6.25977 -14.1348 15.8896 -25.2197
c10.9482 -12.6045 19.418 -33.2578 25.5732 -62.3584c4.27441 -20.209 8.36914 -22.3535 3.64355 -68.3604c-0.911133 -8.86816 -4.97656 -59.4033 -3.64941 -59.4033c1.32227 0 10.0449 5.70312 19.3838 12.6738c30.166 22.5166 55.7471 37.5723 94.7979 55.7939
c51.0723 23.8301 73.4678 22.9355 131.02 39.7041zM780.245 505.941l-41.3154 10.0273c-77.0781 18.709 -133.527 34.1318 -165.274 45.0996c28.9629 21.3711 54.1523 36.0527 91.9834 53.7051c51.0723 23.8301 73.4678 22.9355 131.02 39.7041
c0 0 185.008 12.6992 219.613 16.001c-0.359375 -19.5791 -0.557617 -32.3398 -0.557617 -32.3398l-10.0273 -41.3154c-8.9375 -36.8232 -17.126 -68.9385 -24.4365 -95.9014c-65.2949 2.90723 -201.005 5.01953 -201.005 5.01953zM796.658 454.478
c0 0 108.692 7.46094 175.038 12.4326c-8.14648 -27.8271 -14.8105 -47.168 -19.7373 -57.1357c-8.53125 -17.2617 -8.73926 -31.6641 -0.542969 -37.5225c3.32617 -2.37695 7.23145 -4.3584 8.5918 -4.3584c4.19922 0 14.1348 6.25977 25.2197 15.8896
c8.02539 6.97168 19.3154 12.9375 33.9707 17.9414c-2.08691 -19.873 -3.48438 -43.5859 -3.48438 -43.5859l-10.0273 -41.3154c-1.40332 -5.78027 -2.78809 -11.4453 -4.15332 -16.9922c-50.6621 3.4541 -221.288 6.11035 -221.288 6.11035l-41.3154 10.0273
c-77.0781 18.709 -133.527 34.1318 -165.274 45.0996c28.9629 21.3711 54.1523 36.0527 91.9834 53.7051c51.0723 23.8301 73.4678 22.9355 131.02 39.7041zM1968.71 638.139l-10.0273 -41.3154c-24.3145 -100.174 -43.0791 -165.504 -53.7275 -187.049
c-8.53125 -17.2617 -8.73926 -31.6641 -0.542969 -37.5225c3.32617 -2.37695 7.23145 -4.3584 8.5918 -4.3584c4.19922 0 14.1348 6.25977 25.2197 15.8896c12.6045 10.9482 33.2578 19.418 62.3584 25.5732c20.209 4.27441 22.3535 8.36914 68.3604 3.64355
c8.86816 -0.911133 59.4033 -4.97656 59.4033 -3.64941c0 1.32227 -5.70312 10.0449 -12.6738 19.3838c-22.5166 30.166 -37.5723 55.7471 -55.7939 94.7979c-23.8301 51.0723 -22.9355 73.4678 -39.7041 131.02c0 0 -0.333984 4.87109 -0.90918 13.1807
c126.19 2.65918 224.068 4.88281 225.487 5.40625c6.2334 2.30078 9.1377 6.22559 9.00195 10.5703c-0.177734 5.6875 -5.56445 12.0947 -15.5098 16.5225c-3.24219 1.44336 -98.2402 2.80566 -221.514 3.97168c-4.57031 65.4346 -12.1865 172.652 -13.2178 175.446
c-2.30078 6.2334 -6.22559 9.1377 -10.5703 9.00195c-5.6875 -0.177734 -12.0947 -5.56445 -16.5225 -15.5098c-2.69531 -6.05273 -5.10742 -101.172 -6.48926 -168.516c-58.8672 0.508789 -121.974 0.972656 -183.326 1.38379
c-4.58301 65.5811 -12.0703 170.872 -13.0918 173.64c-2.30078 6.2334 -6.22559 9.1377 -10.5703 9.00195c-5.6875 -0.177734 -12.0947 -5.56445 -16.5225 -15.5098c-2.67285 -6.00293 -5.06641 -99.5947 -6.4541 -166.828
c-68.3545 0.43457 -132.451 0.794922 -183.457 1.06445c-4.59082 65.667 -11.9814 169.522 -12.9961 172.271c-2.30078 6.2334 -6.22559 9.1377 -10.5703 9.00195c-5.6875 -0.177734 -12.0947 -5.56445 -16.5225 -15.5098
c-2.65527 -5.96387 -5.03613 -98.3896 -6.42676 -165.522c-41.502 0.208984 -66.752 0.322266 -66.752 0.322266l-41.3154 10.0273c-100.174 24.3145 -165.504 43.0791 -187.049 53.7275c-17.2617 8.53125 -31.6641 8.73926 -37.5225 0.542969
c-2.37695 -3.32617 -4.3584 -7.23145 -4.3584 -8.5918c0 -4.19922 6.25977 -14.1348 15.8896 -25.2197c10.9482 -12.6045 19.418 -33.2578 25.5732 -62.3584c4.27441 -20.209 8.36914 -22.3535 3.64355 -68.3604c-0.911133 -8.86816 -4.97656 -59.4033 -3.64941 -59.4033
c1.32227 0 10.0449 5.70312 19.3838 12.6738c30.166 22.5166 55.7471 37.5723 94.7979 55.7939c51.0723 23.8301 73.4678 22.9355 131.02 39.7041c0 0 18.3262 0.356445 49.3799 0.964844c-0.210938 -12.0137 -0.324219 -19.3037 -0.324219 -19.3037l-10.0273 -41.3154
c-24.3145 -100.174 -43.0791 -165.504 -53.7275 -187.049c-8.53125 -17.2617 -8.73926 -31.6641 -0.542969 -37.5225c3.32617 -2.37695 7.23145 -4.3584 8.5918 -4.3584c4.19922 0 14.1348 6.25977 25.2197 15.8896c12.6045 10.9482 33.2578 19.418 62.3584 25.5732
c20.209 4.27441 22.3535 8.36914 68.3604 3.64355c8.86816 -0.911133 59.4033 -4.97656 59.4033 -3.64941c0 1.32227 -5.70312 10.0449 -12.6738 19.3838c-22.5166 30.166 -37.5723 55.7471 -55.7939 94.7979c-23.8301 51.0723 -22.9355 73.4678 -39.7041 131.02
c0 0 -0.09375 1.36719 -0.267578 3.88965c48.8262 0.960938 111.568 2.20312 179.208 3.55859c-0.261719 -14.7031 -0.404297 -23.8613 -0.404297 -23.8613l-10.0273 -41.3154c-24.3145 -100.174 -43.0791 -165.504 -53.7275 -187.049
c-8.53125 -17.2617 -8.73926 -31.6641 -0.542969 -37.5225c3.32617 -2.37695 7.23145 -4.3584 8.5918 -4.3584c4.19922 0 14.1348 6.25977 25.2197 15.8896c12.6045 10.9482 33.2578 19.418 62.3584 25.5732c20.209 4.27441 22.3535 8.36914 68.3604 3.64355
c8.86816 -0.911133 59.4033 -4.97656 59.4033 -3.64941c0 1.32227 -5.70312 10.0449 -12.6738 19.3838c-22.5166 30.166 -37.5723 55.7471 -55.7939 94.7979c-23.8301 51.0723 -22.9355 73.4678 -39.7041 131.02c0 0 -0.209961 3.05859 -0.583008 8.46191
c59.7939 1.20605 121.578 2.46484 179.608 3.6709c-0.316406 -17.417 -0.489258 -28.5459 -0.489258 -28.5459zM1443.25 247.941l-41.3154 10.0273c-100.174 24.3145 -165.504 43.0791 -187.049 53.7275c-17.2617 8.53125 -31.6641 8.73926 -37.5225 0.542969
c-2.37695 -3.32617 -4.3584 -7.23145 -4.3584 -8.5918c0 -4.19922 6.25977 -14.1348 15.8896 -25.2197c10.9482 -12.6045 19.418 -33.2578 25.5732 -62.3584c4.27441 -20.209 8.36914 -22.3535 3.64355 -68.3604c-0.911133 -8.86816 -4.97656 -59.4033 -3.64941 -59.4033
c1.32227 0 10.0449 5.70312 19.3838 12.6738c30.166 22.5166 55.7471 37.5723 94.7979 55.7939c51.0723 23.8301 73.4678 22.9355 131.02 39.7041c0 0 781.07 15.1748 785.098 16.6611c6.2334 2.30078 9.1377 6.22559 9.00195 10.5703
c-0.177734 5.6875 -5.56445 12.0947 -15.5098 16.5225c-9.42969 4.19824 -795.003 7.70996 -795.003 7.70996z" />
</svg>
