<?xml version="1.0" standalone="no"?>
<!DOCTYPE svg PUBLIC "-//W3C//DTD SVG 1.1//EN" "http://www.w3.org/Graphics/SVG/1.1/DTD/svg11.dtd" >
<svg xmlns="http://www.w3.org/2000/svg" xmlns:xlink="http://www.w3.org/1999/xlink" version="1.1" viewBox="0 0 1801 800">
   <path fill="currentColor"
d="M672.683 650.431c-19.1475 2.02637 -28.5693 -16.2109 -26.916 -26.1494c0.416992 -2.50391 1.09961 -5.05859 1.78711 -6.86523c-10.5859 -8.98438 -19.335 -16.7598 -19.335 -16.7598l-36.3047 -22.124c-5.06738 -3.08789 -10.041 -6.10742 -14.918 -9.05762
c-1.94141 1.35254 -4.19434 2.62012 -6.74805 3.75684c-9.42969 4.19824 -235.003 7.70996 -235.003 7.70996l-41.3154 10.0273c-100.174 24.3145 -165.504 43.0791 -187.049 53.7275c-17.2617 8.53125 -31.6641 8.73926 -37.5225 0.542969
c-2.37695 -3.32617 -4.3584 -7.23145 -4.3584 -8.5918c0 -4.19922 6.25977 -14.1348 15.8896 -25.2197c10.9482 -12.6045 19.418 -33.2578 25.5732 -62.3584c4.27441 -20.209 8.36914 -22.3535 3.64355 -68.3604c-0.911133 -8.86816 -4.97656 -59.4033 -3.64941 -59.4033
c1.32227 0 10.0449 5.70312 19.3838 12.6738c30.166 22.5166 55.7471 37.5723 94.7979 55.7939c51.0723 23.8301 73.4678 22.9355 131.02 39.7041c0 0 113.961 7.82227 179.729 12.7852c-54.9336 -32.2559 -92.6533 -52.2236 -109.728 -58.0029
c-18.2393 -6.17285 -28.5703 -16.21 -26.917 -26.1484c0.671875 -4.03223 2.03223 -8.19531 2.99414 -9.15723c2.96875 -2.96875 14.4209 -5.56836 29.0684 -6.59668c16.6543 -1.17188 37.2471 -9.78711 62.1768 -26.0117c17.3125 -11.2676 21.7246 -9.8877 50.915 -45.7617
c2.89844 -3.5625 13.0273 -15.54 22.2949 -26.1865c-41.8887 3.66309 -226.947 6.54395 -226.947 6.54395l-41.3154 10.0273c-100.174 24.3145 -165.504 43.0791 -187.049 53.7275c-17.2617 8.53125 -31.6641 8.73926 -37.5225 0.542969
c-2.37695 -3.32617 -4.3584 -7.23145 -4.3584 -8.5918c0 -4.19922 6.25977 -14.1348 15.8896 -25.2197c10.9482 -12.6045 19.418 -33.2578 25.5732 -62.3584c4.27441 -20.209 8.36914 -22.3535 3.64355 -68.3604c-0.911133 -8.86816 -4.97656 -59.4033 -3.64941 -59.4033
c1.32227 0 10.0449 5.70312 19.3838 12.6738c30.166 22.5166 55.7471 37.5723 94.7979 55.7939c51.0723 23.8301 73.4678 22.9355 131.02 39.7041c0 0 182.625 12.5361 218.924 15.9355c-9.48926 -5.74316 -14.3809 -12.8652 -13.2041 -19.9365
c0.670898 -4.03223 2.03125 -8.19531 2.99316 -9.15723c2.96973 -2.96875 14.4219 -5.56836 29.0693 -6.59668c16.6543 -1.1709 37.2471 -9.78613 62.1768 -26.0117c17.3125 -11.2666 21.7246 -9.8877 50.9141 -45.7617c5.62695 -6.91406 38.4863 -45.5234 39.4248 -44.585
c0.93457 0.935547 3.06934 11.1357 4.74414 22.6689c5.40918 37.252 12.8516 65.9863 27.5801 106.484c19.2627 52.9639 35.7314 68.167 64.5693 120.72c0 0 28.2109 49.6709 30.0078 53.5693c0.177734 0.386719 0.341797 0.768555 0.491211 1.14551
c20.9688 -15.1689 98.4697 -87.5059 126.633 -122.116c2.7666 -3.40039 12.1152 -14.4609 21.0176 -24.7168c-2.84082 -0.34082 -5.95703 -1.12109 -9.2666 -2.3916c-9.63574 -3.69922 -54.2441 -43.3398 -54.2441 -43.3398l-36.3047 -22.124
c-88.0264 -53.6416 -147.49 -86.5684 -170.255 -94.2725c-18.2383 -6.17383 -28.5693 -16.2109 -26.916 -26.1484c0.670898 -4.0332 2.03125 -8.19531 2.99316 -9.15723c2.96973 -2.96973 14.4209 -5.56836 29.0693 -6.59766
c16.6543 -1.1709 37.2471 -9.78613 62.1768 -26.0107c17.3125 -11.2676 21.7246 -9.88867 50.9141 -45.7617c5.62695 -6.91504 38.4863 -45.5234 39.4238 -44.585c0.935547 0.93457 3.07031 11.1348 4.74512 22.668c5.40918 37.252 12.8516 65.9863 27.5801 106.484
c19.2627 52.9639 35.7314 68.167 64.5693 120.72c0 0 28.2109 49.6709 30.0078 53.5693c0.0712891 0.155273 0.140625 0.310547 0.208008 0.463867c2.14551 -2.26562 3.52344 -3.56641 3.70508 -3.38477c0.93457 0.93457 3.78418 11.0537 4.74414 22.668
c13.5059 163.358 58.1191 308.339 143.37 457.551c3.29688 5.76855 2.05957 10.8633 -1.1084 13.8398c-4.14746 3.89551 -15.8496 9.21582 -22.6504 0.71582c-75.999 -95.001 -391.413 -155.72 -487.078 -145.595zM1630.77 270.139l-10.0273 -41.3154
c-24.3145 -100.174 -43.0791 -165.504 -53.7275 -187.049c-8.53125 -17.2617 -8.73926 -31.6641 -0.542969 -37.5225c3.32617 -2.37695 7.23145 -4.3584 8.5918 -4.3584c4.19922 0 14.1348 6.25977 25.2197 15.8896c12.6045 10.9482 33.2578 19.418 62.3584 25.5732
c20.209 4.27441 22.3535 8.36914 68.3604 3.64355c8.86816 -0.911133 59.4033 -4.97656 59.4033 -3.64941c0 1.32227 -5.70312 10.0449 -12.6738 19.3838c-22.5166 30.166 -37.5723 55.7471 -55.7939 94.7979c-23.8301 51.0723 -22.9355 73.4678 -39.7041 131.02
c0 0 -15.1748 501.07 -16.6611 505.098c-2.30078 6.2334 -6.22559 9.1377 -10.5703 9.00195c-5.6875 -0.177734 -12.0947 -5.56445 -16.5225 -15.5098c-1.82812 -4.10645 -3.52637 -102.31 -4.86133 -211.874c-38.9141 3.72461 -228.371 6.67383 -228.371 6.67383
l-41.3154 10.0273c-100.174 24.3145 -165.504 43.0791 -187.049 53.7275c-17.2617 8.53125 -31.6641 8.73926 -37.5225 0.542969c-2.37695 -3.32617 -4.3584 -7.23145 -4.3584 -8.5918c0 -4.19922 6.25977 -14.1348 15.8896 -25.2197
c10.9482 -12.6045 19.418 -33.2578 25.5732 -62.3584c4.27441 -20.209 8.36914 -22.3535 3.64355 -68.3604c-0.911133 -8.86816 -4.97656 -59.4033 -3.64941 -59.4033c1.32227 0 10.0449 5.70312 19.3838 12.6738c30.166 22.5166 55.7471 37.5723 94.7979 55.7939
c51.0723 23.8301 73.4678 22.9355 131.02 39.7041c0 0 162.975 11.1865 211.61 15.291c-0.833008 -72.8594 -1.5 -147.438 -1.93457 -200.298c-43.4941 3.62793 -226.089 6.4707 -226.089 6.4707l-41.3154 10.0273c-100.174 24.3145 -165.504 43.0791 -187.049 53.7275
c-17.2617 8.53125 -31.6641 8.73926 -37.5225 0.542969c-2.37695 -3.32617 -4.3584 -7.23145 -4.3584 -8.5918c0 -4.19922 6.25977 -14.1348 15.8896 -25.2197c10.9482 -12.6045 19.418 -33.2578 25.5732 -62.3584c4.27441 -20.209 8.36914 -22.3535 3.64355 -68.3604
c-0.911133 -8.86816 -4.97656 -59.4033 -3.64941 -59.4033c1.32227 0 10.0449 5.70312 19.3838 12.6738c30.166 22.5166 55.7471 37.5723 94.7979 55.7939c51.0723 23.8301 73.4678 22.9355 131.02 39.7041c0 0 158.307 10.8662 209.436 15.1094
c-0.211914 -27.0078 -0.326172 -43.4482 -0.326172 -43.4482zM676.216 575.872c0 0 7.37402 12.9844 14.8223 26.1973c34.0049 -21.1924 118.093 -88.9248 158.05 -119.382c-1.29297 -0.360352 -2.625 -0.800781 -3.99023 -1.3252
c-9.63574 -3.69922 -54.2441 -43.3408 -54.2441 -43.3408l-36.3047 -22.124c-87.9346 -53.585 -147.366 -86.499 -170.184 -94.248c0.991211 1.55957 1.44824 3.27441 1.39258 5.05957c-0.0869141 2.79199 -1.42969 5.75781 -3.95117 8.57715
c0.751953 3.8125 1.54688 8.47656 2.25879 13.3809c5.40918 37.2529 12.8516 65.9873 27.5801 106.485c19.2637 52.9639 35.7314 68.167 64.5703 120.72z" />
</svg>
