<?xml version="1.0" standalone="no"?>
<!DOCTYPE svg PUBLIC "-//W3C//DTD SVG 1.1//EN" "http://www.w3.org/Graphics/SVG/1.1/DTD/svg11.dtd" >
<svg xmlns="http://www.w3.org/2000/svg" xmlns:xlink="http://www.w3.org/1999/xlink" version="1.1" viewBox="0 0 1506 1039">
   <path fill="currentColor"
d="M381.352 199.247c9.90625 -12.1133 27.5576 -6.38281 23.625 8.60352c-13.8916 52.9434 -79.998 134.799 -116.02 255.482c-29.1738 97.7432 24.9961 224.656 87.4512 307.098c35.8438 47.3125 75.3789 131.75 66.0547 141.074
c-3.80078 3.80273 -17.4707 -13.332 -30.5371 -38.2793c-13.0117 -24.8379 -53.6855 -76.1289 -90.3887 -113.979c-62.3594 -64.3086 -88.1055 -82.2109 -213.697 -148.596c-47.8047 -25.2676 -73.8838 -57.3984 -9.46289 -83.7461
c30.2852 -12.3867 140.34 -110.771 163.344 -129.905c44 -36.5967 50.6055 -113.348 119.631 -197.753zM1271.62 4.2793c7.42969 -9.08496 30.668 -4.78711 27.7188 6.45312c-10.4199 39.707 -59.999 101.099 -87.0156 191.611
c-21.8799 73.3076 18.748 168.492 65.5889 230.323c26.8828 35.4844 46.5342 98.8125 39.541 105.806c-2.85059 2.85156 -13.1025 -9.99902 -22.9033 -28.709c-9.75781 -18.6289 -40.2637 -57.0977 -67.791 -85.4844c-46.7695 -48.2314 -66.0791 -61.6582 -160.273 -111.447
c-9.18848 -4.85645 -17.3057 -10.0508 -23.4854 -15.4229c-80.5996 3.41602 -352.979 6.03223 -352.979 6.03223l-41.3154 10.0273c-100.174 24.3145 -165.504 43.0791 -187.049 53.7275c-17.2617 8.53125 -31.6641 8.73926 -37.5225 0.542969
c-2.37695 -3.32617 -4.3584 -7.23145 -4.3584 -8.5918c0 -4.19922 6.25977 -14.1348 15.8896 -25.2197c10.9482 -12.6045 19.418 -33.2578 25.5732 -62.3584c4.27441 -20.209 8.36914 -22.3535 3.64355 -68.3604c-0.911133 -8.86816 -4.97656 -59.4033 -3.64941 -59.4033
c1.32227 0 10.0449 5.70312 19.3838 12.6738c30.166 22.5166 55.7471 37.5723 94.7979 55.7939c51.0723 23.8301 73.4678 22.9355 131.02 39.7041c0 0 234.926 9.87305 327.898 14.4717c4.23535 -5.66211 12.2686 -11.1953 25.0566 -16.4258
c22.7139 -9.29102 105.255 -83.0791 122.508 -97.4297c33 -27.4473 37.9541 -85.0107 89.7236 -148.314zM599.991 741.075l-24.7891 6.01562c-60.1045 14.5889 -99.3027 25.8477 -112.229 32.2373c-10.3574 5.11816 -18.999 5.24316 -22.5137 0.325195
c-1.42578 -1.99512 -2.61523 -4.33887 -2.61523 -5.15527c0 -2.51953 3.75586 -8.48047 9.53418 -15.1318c6.56836 -7.5625 11.6504 -19.9541 15.3438 -37.415c2.56445 -12.125 5.02148 -13.4121 2.18652 -41.0156c-0.546875 -5.32129 -2.98633 -35.6426 -2.19043 -35.6426
c0.793945 0 6.02734 3.42188 11.6309 7.60449c18.0996 13.5098 33.4482 22.5439 56.8789 33.4766c30.6426 14.2979 44.0801 13.7617 78.6113 23.8223c0 0 10.9951 0.213867 29.6279 0.579102c-0.126953 -7.20801 -0.194336 -11.582 -0.194336 -11.582l-6.0166 -24.7891
c-14.5889 -60.1045 -25.8477 -99.3027 -32.2363 -112.229c-5.11914 -10.3574 -5.24414 -18.999 -0.326172 -22.5137c1.99609 -1.42578 4.33887 -2.61523 5.15527 -2.61523c2.51953 0 8.48047 3.75586 15.1318 9.53418c7.5625 6.56836 19.9551 11.6504 37.415 15.3438
c12.125 2.56445 13.4121 5.02148 41.0166 2.18652c5.32031 -0.546875 35.6416 -2.98633 35.6416 -2.19043c0 0.793945 -3.42188 6.02734 -7.60449 11.6309c-13.5098 18.0996 -22.543 33.4482 -33.4766 56.8789c-14.2979 30.6426 -13.7607 44.0801 -23.8223 78.6113
c0 0 -0.0566406 0.820312 -0.161133 2.33398c29.2959 0.576172 66.9414 1.32129 107.525 2.13477c-0.157227 -8.82129 -0.242188 -14.3164 -0.242188 -14.3164l-6.0166 -24.7891c-14.5889 -60.1045 -25.8477 -99.3027 -32.2363 -112.229
c-5.11914 -10.3574 -5.24414 -18.999 -0.326172 -22.5137c1.99609 -1.42578 4.33887 -2.61523 5.15527 -2.61523c2.51953 0 8.48047 3.75586 15.1318 9.53418c7.5625 6.56836 19.9551 11.6504 37.415 15.3438c12.125 2.56445 13.4121 5.02148 41.0166 2.18652
c5.32031 -0.546875 35.6416 -2.98633 35.6416 -2.19043c0 0.793945 -3.42188 6.02734 -7.60449 11.6309c-13.5098 18.0996 -22.543 33.4482 -33.4766 56.8789c-14.2979 30.6426 -13.7607 44.0801 -23.8223 78.6113c0 0 -0.125977 1.83496 -0.349609 5.07715
c35.876 0.723633 72.9463 1.47852 107.765 2.20312c-0.189453 -10.4502 -0.292969 -17.1279 -0.292969 -17.1279l-6.0166 -24.7891c-14.5889 -60.1045 -25.8477 -99.3027 -32.2363 -112.229c-5.11914 -10.3574 -5.24414 -18.999 -0.326172 -22.5137
c1.99609 -1.42578 4.33887 -2.61523 5.15527 -2.61523c2.51953 0 8.48047 3.75586 15.1318 9.53418c7.5625 6.56836 19.9551 11.6504 37.415 15.3438c12.125 2.56445 13.4121 5.02148 41.0166 2.18652c5.32031 -0.546875 35.6416 -2.98633 35.6416 -2.19043
c0 0.793945 -3.42188 6.02734 -7.60449 11.6309c-13.5098 18.0996 -22.543 33.4482 -33.4766 56.8789c-14.2979 30.6426 -13.7607 44.0801 -23.8223 78.6113c0 0 -0.201172 2.92285 -0.545898 7.9082c75.7148 1.59668 134.441 2.92969 135.293 3.24414
c3.74023 1.37988 5.48242 3.73535 5.40137 6.3418c-0.106445 3.41309 -3.33887 7.25684 -9.30566 9.91406c-1.94629 0.866211 -58.9443 1.68359 -132.909 2.38281c-2.74219 39.2607 -7.31152 103.592 -7.92969 105.268c-1.38086 3.74023 -3.73535 5.48242 -6.34277 5.40137
c-3.41211 -0.106445 -7.25684 -3.33887 -9.91309 -9.30566c-1.61816 -3.63184 -3.06445 -60.7031 -3.89355 -101.109c-35.3213 0.304688 -73.1846 0.583984 -109.996 0.830078c-2.75 39.3486 -7.24219 102.523 -7.85449 104.184
c-1.38086 3.74023 -3.73535 5.48242 -6.34277 5.40137c-3.41211 -0.106445 -7.25684 -3.33887 -9.91309 -9.30566c-1.60449 -3.60156 -3.04102 -59.7568 -3.87305 -100.097c-41.0127 0.259766 -79.4707 0.476562 -110.074 0.638672
c-2.75391 39.4004 -7.18848 101.713 -7.79688 103.362c-1.38086 3.74023 -3.73535 5.48242 -6.34277 5.40137c-3.41211 -0.106445 -7.25684 -3.33887 -9.91309 -9.30566c-1.59375 -3.5791 -3.02246 -59.0342 -3.85645 -99.3135
c-24.9014 0.125977 -40.0508 0.193359 -40.0508 0.193359zM767.991 465.075l-24.7891 6.01562c-60.1045 14.5889 -99.3027 25.8477 -112.229 32.2373c-10.3574 5.11816 -18.999 5.24316 -22.5137 0.325195c-1.42578 -1.99512 -2.61523 -4.33887 -2.61523 -5.15527
c0 -2.51953 3.75586 -8.48047 9.53418 -15.1318c6.56836 -7.5625 11.6504 -19.9541 15.3438 -37.415c2.56445 -12.125 5.02148 -13.4121 2.18652 -41.0156c-0.546875 -5.32129 -2.98633 -35.6426 -2.19043 -35.6426c0.793945 0 6.02734 3.42188 11.6309 7.60449
c18.0996 13.5098 33.4482 22.5439 56.8789 33.4766c30.6426 14.2979 44.0801 13.7617 78.6113 23.8223c0 0 222.603 6.74219 286.258 9.19141c-6.84375 -24.8145 -12.3086 -41.5859 -16.0771 -49.2129c-5.11914 -10.3574 -5.24414 -18.999 -0.326172 -22.5137
c1.99609 -1.42578 4.33887 -2.61523 5.15527 -2.61523c2.51953 0 8.48047 3.75586 15.1318 9.53418c7.5625 6.56836 19.9551 11.6504 37.415 15.3438c12.125 2.56445 13.4121 5.02148 41.0166 2.18652c5.32031 -0.546875 35.6416 -2.98633 35.6416 -2.19043
c0 0.793945 -3.42188 6.02734 -7.60449 11.6309c-13.5098 18.0996 -22.543 33.4482 -33.4766 56.8789c-14.2979 30.6426 -13.7607 44.0801 -23.8223 78.6113c0 0 -9.10449 300.643 -9.99609 303.059c-1.38086 3.74023 -3.73535 5.48242 -6.34277 5.40137
c-3.41211 -0.106445 -7.25684 -3.33887 -9.91309 -9.30566c-2.51953 -5.6582 -4.62598 -309.002 -4.62598 -309.002l-6.0166 -24.7891c-4.06934 -16.7637 -7.87891 -31.9004 -11.3965 -45.2949c-49.0234 2.21582 -300.868 3.96582 -300.868 3.96582zM1335.49 414.139
l-10.0273 -41.3154c-24.3145 -100.174 -43.0791 -165.504 -53.7275 -187.049c-8.53125 -17.2617 -8.73926 -31.6641 -0.542969 -37.5225c3.32617 -2.37695 7.23145 -4.3584 8.5918 -4.3584c4.19922 0 14.1348 6.25977 25.2197 15.8896
c12.6045 10.9482 33.2578 19.418 62.3584 25.5732c20.209 4.27441 22.3535 8.36914 68.3604 3.64355c8.86816 -0.911133 59.4033 -4.97656 59.4033 -3.64941c0 1.32227 -5.70312 10.0449 -12.6738 19.3838c-22.5166 30.166 -37.5723 55.7471 -55.7939 94.7979
c-23.8301 51.0723 -22.9355 73.4678 -39.7041 131.02c0 0 -15.1748 501.07 -16.6611 505.098c-2.30078 6.2334 -6.22559 9.1377 -10.5703 9.00195c-5.6875 -0.177734 -12.0947 -5.56445 -16.5225 -15.5098c-4.19824 -9.42969 -7.70996 -515.003 -7.70996 -515.003z
M252.578 458.84c0.388672 -0.288086 0.769531 -0.568359 1.14258 -0.839844c-0.389648 0.219727 -0.770508 0.5 -1.14258 0.839844zM690.02 968.941l-41.3154 10.0273c-100.174 24.3145 -165.504 43.0791 -187.049 53.7275
c-17.2617 8.53125 -31.6641 8.73926 -37.5225 0.542969c-2.37695 -3.32617 -4.3584 -7.23145 -4.3584 -8.5918c0 -4.19922 6.25977 -14.1348 15.8896 -25.2197c10.9482 -12.6045 19.418 -33.2578 25.5732 -62.3584c4.27441 -20.209 8.36914 -22.3535 3.64355 -68.3604
c-0.911133 -8.86816 -4.97656 -59.4033 -3.64941 -59.4033c1.32227 0 10.0449 5.70312 19.3838 12.6738c30.166 22.5166 55.7471 37.5723 94.7979 55.7939c51.0723 23.8301 73.4678 22.9355 131.02 39.7041c0 0 501.07 15.1748 505.098 16.6611
c6.2334 2.30078 9.1377 6.22559 9.00195 10.5703c-0.177734 5.6875 -5.56445 12.0947 -15.5098 16.5225c-9.42969 4.19824 -515.003 7.70996 -515.003 7.70996zM1172.63 212.171c1.14746 -1.28809 2.23828 -2.56543 3.26953 -3.82715
c-1.20312 0.676758 -2.29492 1.9834 -3.26953 3.82715z" />
</svg>
