<?xml version="1.0" standalone="no"?>
<!DOCTYPE svg PUBLIC "-//W3C//DTD SVG 1.1//EN" "http://www.w3.org/Graphics/SVG/1.1/DTD/svg11.dtd" >
<svg xmlns="http://www.w3.org/2000/svg" xmlns:xlink="http://www.w3.org/1999/xlink" version="1.1" viewBox="0 0 1696 895">
   <path fill="currentColor"
d="M973.775 529.497l-360.95 -1.82227c-22.0107 -48.208 -36.707 -100.451 -36.707 -149.483c0 -20.3447 2.53027 -40.1367 8.11816 -58.8584c36.0215 -120.684 102.128 -202.539 116.02 -255.482c0.383789 -1.46191 0.561523 -2.83594 0.561523 -4.11426
c0 -6.93652 -5.25 -11.042 -11.3945 -11.042c-4.32715 0 -9.09766 2.03613 -12.792 6.55273c-69.0254 84.4053 -75.6309 161.156 -119.631 197.753c-23.0039 19.1338 -133.059 117.519 -163.344 129.905c-27.3359 11.1807 -38.377 23.4014 -38.377 35.6982
c0 16.6816 20.3203 33.502 47.8398 48.0479c125.592 66.3848 151.338 84.2871 213.697 148.596c36.7031 37.8496 77.377 89.1406 90.3887 113.979c11.8438 22.6133 24.1836 38.8076 29.2197 38.8076c0.519531 0 0.961914 -0.172852 1.31738 -0.52832
c0.94043 -0.94043 1.38379 -2.64648 1.38379 -5.00098c0 -20.9834 -35.2109 -93.5342 -67.4385 -136.073c-16.334 -21.5605 -32.1006 -46.1621 -45.958 -72.4893c-4.52051 -8.58691 -8.83691 -17.3584 -12.9043 -26.2666c4.14941 -7.41211 7.53906 -17.374 10.2041 -29.9775
c2.56543 -12.125 5.02148 -13.4121 2.18652 -41.0156c-0.546875 -5.32129 -2.98633 -35.6426 -2.18945 -35.6426c0.792969 0 6.02637 3.42188 11.6299 7.60449c18.0996 13.5098 33.4482 22.5439 56.8789 33.4766c30.6436 14.2979 44.0811 13.7617 78.6113 23.8223
c0 0 68.3779 4.69434 107.839 7.67188c-32.96 -19.3535 -55.5928 -31.335 -65.8369 -34.8027c-10.9443 -3.70312 -17.1426 -9.72559 -16.1504 -15.6885c0.40332 -2.41992 1.21875 -4.91699 1.7959 -5.49414c1.78125 -1.78125 8.65332 -3.3418 17.4414 -3.95801
c9.99219 -0.703125 22.3486 -5.87305 37.3057 -15.6074c10.3877 -6.76074 13.0352 -5.93262 30.5498 -27.457c1.73926 -2.1377 7.81543 -9.32422 13.376 -15.7109c-25.1348 2.19727 -136.168 3.92578 -136.168 3.92578l-24.7891 6.01562
c-60.1045 14.5889 -99.3027 25.8477 -112.229 32.2373c-10.3564 5.11816 -18.998 5.24316 -22.5137 0.325195c-1.42578 -1.99512 -2.61426 -4.33887 -2.61426 -5.15527c0 -2.51953 3.75586 -8.48047 9.5332 -15.1318c6.56934 -7.5625 11.6514 -19.9541 15.3438 -37.415
c2.56543 -12.125 5.02148 -13.4121 2.18652 -41.0156c-0.546875 -5.32129 -2.98633 -35.6426 -2.18945 -35.6426c0.792969 0 6.02637 3.42188 11.6299 7.60449c18.0996 13.5098 33.4482 22.5439 56.8789 33.4766c30.6436 14.2979 44.0811 13.7617 78.6113 23.8223
c0 0 109.577 7.52246 131.355 9.5625c-5.69434 -3.44727 -8.62891 -7.71973 -7.92285 -11.9629c0.402344 -2.41895 1.21875 -4.91699 1.7959 -5.49414c1.78125 -1.78125 8.65234 -3.34082 17.4414 -3.95801c9.99219 -0.703125 22.3477 -5.87207 37.3057 -15.6074
c10.3877 -6.75977 13.0352 -5.93262 30.5488 -27.457c3.37598 -4.14844 23.0918 -27.3135 23.6543 -26.751c0.561523 0.561523 1.8418 6.68164 2.84668 13.6016c3.24609 22.3516 7.71094 39.5918 16.5479 63.8906c11.5576 31.7783 21.4395 40.9004 38.7422 72.4316
c0 0 16.9268 29.8027 18.0049 32.1416c0.107422 0.232422 0.205078 0.460938 0.294922 0.6875c12.5811 -9.10156 59.0811 -52.5039 75.9795 -73.2695c1.65918 -2.04004 7.26855 -8.67676 12.6104 -14.8301c-1.70508 -0.205078 -3.57422 -0.672852 -5.56055 -1.43555
c-5.78125 -2.21875 -32.5459 -26.0039 -32.5459 -26.0039l-21.7832 -13.2744c-52.8154 -32.1846 -88.4941 -51.9404 -102.152 -56.5635c-10.9434 -3.7041 -17.1416 -9.72656 -16.1504 -15.6885c0.40332 -2.41992 1.21875 -4.91699 1.7959 -5.49414
c1.78223 -1.78223 8.65332 -3.3418 17.4424 -3.95898c9.99219 -0.702148 22.3477 -5.87207 37.3057 -15.6064c10.3877 -6.76074 13.0352 -5.93359 30.5488 -27.457c3.37598 -4.14941 23.0918 -27.3145 23.6543 -26.751c0.560547 0.560547 1.8418 6.68066 2.84668 13.6006
c3.24512 22.3516 7.71094 39.5918 16.5479 63.8906c11.5576 31.7783 21.4395 40.9004 38.7422 72.4316c0 0 16.9258 29.8027 18.0039 32.1416c0.0429688 0.09375 0.0849609 0.186523 0.125 0.279297c1.28711 -1.36035 2.11426 -2.14062 2.22363 -2.03125
c0.560547 0.560547 2.27051 6.63184 2.8457 13.6006c8.10352 98.0146 34.8721 185.003 86.0225 274.53c1.97852 3.46094 1.23535 6.51855 -0.665039 8.30371c-2.48828 2.33789 -9.50977 5.53027 -13.5898 0.429688c-45.5996 -57 -292.247 -87.3564 -292.247 -87.3564
c-11.4883 1.21582 -17.1416 -9.72656 -16.1494 -15.6895c0.25 -1.50293 0.65918 -3.03516 1.07227 -4.11914c-6.35156 -5.3916 -11.6016 -10.0566 -11.6016 -10.0566c11.166 3.1582 24.2773 16.3926 28.7988 -14.8701
c-17.3037 -31.5312 -27.1846 -40.6533 -38.7422 -72.4316c-8.83789 -24.2988 -13.3027 -41.54 -16.5488 -63.8916c-0.426758 -2.94238 -0.904297 -5.74121 -1.35449 -8.02832c1.5127 -1.69141 2.31738 -3.4707 2.37012 -5.14648
c0.0341797 -1.07129 -0.240234 -2.09961 -0.834961 -3.03516c13.6895 4.64941 49.3486 24.3975 102.109 56.5488l21.7832 13.2744s26.7646 23.7842 32.5469 26.0039c0.819336 0.314453 1.61816 0.579102 2.39453 0.794922
c-23.9746 18.2744 -74.4277 58.9141 -94.8301 71.6289zM330.245 214.941l-41.3154 10.0273c-100.174 24.3145 -165.504 43.0791 -187.049 53.7275c-17.2617 8.53125 -31.6641 8.73926 -37.5225 0.542969c-2.37695 -3.32617 -4.3584 -7.23145 -4.3584 -8.5918
c0 -4.19922 6.25977 -14.1348 15.8896 -25.2197c10.9482 -12.6045 19.418 -33.2578 25.5732 -62.3584c4.27441 -20.209 8.36914 -22.3535 3.64355 -68.3604c-0.911133 -8.86816 -4.97656 -59.4033 -3.64941 -59.4033c1.32227 0 10.0449 5.70312 19.3838 12.6738
c30.166 22.5166 55.7471 37.5723 94.7979 55.7939c51.0723 23.8301 73.4678 22.9355 131.02 39.7041c0 0 221.07 15.1748 225.098 16.6611c6.2334 2.30078 9.1377 6.22559 9.00195 10.5703c-0.177734 5.6875 -5.56445 12.0947 -15.5098 16.5225
c-9.42969 4.19824 -235.003 7.70996 -235.003 7.70996zM330.245 674.941l-41.3154 10.0273c-100.174 24.3145 -165.504 43.0791 -187.049 53.7275c-17.2617 8.53125 -31.6641 8.73926 -37.5225 0.542969c-2.37695 -3.32617 -4.3584 -7.23145 -4.3584 -8.5918
c0 -4.19922 6.25977 -14.1348 15.8896 -25.2197c10.9482 -12.6045 19.418 -33.2578 25.5732 -62.3584c4.27441 -20.209 8.36914 -22.3535 3.64355 -68.3604c-0.911133 -8.86816 -4.97656 -59.4033 -3.64941 -59.4033c1.32227 0 10.0449 5.70312 19.3838 12.6738
c30.166 22.5166 55.7471 37.5723 94.7979 55.7939c51.0723 23.8301 73.4678 22.9355 131.02 39.7041c0 0 221.07 15.1748 225.098 16.6611c6.2334 2.30078 9.1377 6.22559 9.00195 10.5703c-0.177734 5.6875 -5.56445 12.0947 -15.5098 16.5225
c-9.42969 4.19824 -235.003 7.70996 -235.003 7.70996zM1525.77 270.139l-10.0273 -41.3154c-6.98535 -28.7793 -13.5127 -54.6826 -19.5205 -77.498c-0.619141 0.310547 -1.25879 0.612305 -1.91797 0.90625c-9.42969 4.19824 -515.003 7.70996 -515.003 7.70996
l-41.3154 10.0273c-100.174 24.3145 -165.504 43.0791 -187.049 53.7275c-17.2617 8.53125 -31.6641 8.73926 -37.5225 0.542969c-2.37695 -3.32617 -4.3584 -7.23145 -4.3584 -8.5918c0 -4.19922 6.25977 -14.1348 15.8896 -25.2197
c10.9482 -12.6045 19.418 -33.2578 25.5732 -62.3584c4.27441 -20.209 8.36914 -22.3535 3.64355 -68.3604c-0.911133 -8.86816 -4.97656 -59.4033 -3.64941 -59.4033c1.32227 0 10.0449 5.70312 19.3838 12.6738c30.166 22.5166 55.7471 37.5723 94.7979 55.7939
c51.0723 23.8301 73.4678 22.9355 131.02 39.7041c0 0 417.165 12.6338 493.277 15.9756c-11.4902 -41.7188 -20.6611 -69.9004 -26.9766 -82.6787c-8.53125 -17.2617 -8.73926 -31.6641 -0.542969 -37.5225c3.32617 -2.37695 7.23145 -4.3584 8.5918 -4.3584
c4.19922 0 14.1348 6.25977 25.2197 15.8896c12.6045 10.9482 33.2578 19.418 62.3584 25.5732c20.209 4.27441 22.3535 8.36914 68.3604 3.64355c8.86816 -0.911133 59.4033 -4.97656 59.4033 -3.64941c0 1.32227 -5.70312 10.0449 -12.6738 19.3838
c-22.5166 30.166 -37.5723 55.7471 -55.7939 94.7979c-23.8301 51.0723 -22.9355 73.4678 -39.7041 131.02c0 0 -15.1748 501.07 -16.6611 505.098c-2.30078 6.2334 -6.22559 9.1377 -10.5703 9.00195c-5.6875 -0.177734 -12.0947 -5.56445 -16.5225 -15.5098
c-2.16016 -4.85254 -4.13867 -141.065 -5.55078 -272.171c-36.7012 1.86621 -125.63 3.25098 -125.63 3.25098l-24.7891 6.01562c-60.1045 14.5889 -99.3027 25.8477 -112.229 32.2373c-10.3564 5.11816 -18.998 5.24316 -22.5137 0.325195
c-1.42578 -1.99512 -2.61426 -4.33887 -2.61426 -5.15527c0 -2.51953 3.75586 -8.48047 9.5332 -15.1318c6.56934 -7.5625 11.6514 -19.9541 15.3438 -37.415c2.56543 -12.125 5.02148 -13.4121 2.18652 -41.0156c-0.546875 -5.32129 -2.98633 -35.6426 -2.18945 -35.6426
c0.792969 0 6.02637 3.42188 11.6299 7.60449c18.0996 13.5098 33.4482 22.5439 56.8789 33.4766c30.6436 14.2979 44.0811 13.7617 78.6113 23.8223c0 0 78.1602 5.36523 115.577 8.2627c-0.439453 -42.3359 -0.818359 -83.4199 -1.12207 -118.569
c-37.4697 1.83301 -124.303 3.18457 -124.303 3.18457l-24.7891 6.0166c-60.1045 14.5889 -99.3027 25.8477 -112.229 32.2363c-10.3564 5.11914 -18.998 5.24414 -22.5137 0.326172c-1.42578 -1.99609 -2.61426 -4.33887 -2.61426 -5.15527
c0 -2.51953 3.75586 -8.48047 9.5332 -15.1318c6.56934 -7.5625 11.6514 -19.9551 15.3438 -37.415c2.56543 -12.125 5.02148 -13.4121 2.18652 -41.0166c-0.546875 -5.32031 -2.98633 -35.6416 -2.18945 -35.6416c0.792969 0 6.02637 3.42188 11.6299 7.60449
c18.0996 13.5098 33.4482 22.543 56.8789 33.4766c30.6436 14.2979 44.0811 13.7607 78.6113 23.8223c0 0 76.3984 5.24414 114.289 8.16211c-0.426758 -50.9912 -0.666016 -85.3662 -0.666016 -85.3662zM979.299 824.941l-41.3154 10.0273
c-100.174 24.3145 -165.504 43.0791 -187.049 53.7275c-17.2617 8.53125 -31.6641 8.73926 -37.5225 0.542969c-2.37695 -3.32617 -4.3584 -7.23145 -4.3584 -8.5918c0 -4.19922 6.25977 -14.1348 15.8896 -25.2197c10.9482 -12.6045 19.418 -33.2578 25.5732 -62.3584
c4.27441 -20.209 8.36914 -22.3535 3.64355 -68.3604c-0.911133 -8.86816 -4.97656 -59.4033 -3.64941 -59.4033c1.32227 0 10.0449 5.70312 19.3838 12.6738c30.166 22.5166 55.7471 37.5723 94.7979 55.7939c51.0723 23.8301 73.4678 22.9355 131.02 39.7041
c0 0 501.07 15.1748 505.098 16.6611c6.2334 2.30078 9.1377 6.22559 9.00195 10.5703c-0.177734 5.6875 -5.56445 12.0947 -15.5098 16.5225c-9.42969 4.19824 -515.003 7.70996 -515.003 7.70996zM547.857 314.84
c0.388672 -0.288086 0.769531 -0.568359 1.14258 -0.839844c-0.389648 0.219727 -0.770508 0.5 -1.14258 0.839844zM625.729 553.941l279.621 -44.001c-1.16504 0.811523 -2.51758 1.57227 -4.0498 2.25488c-5.6582 2.51855 -141.002 4.62598 -141.002 4.62598
l-24.7891 6.01562c-56.6992 13.7627 -94.7939 24.5615 -109.78 31.1045z" />
</svg>
