<?xml version="1.0" standalone="no"?>
<!DOCTYPE svg PUBLIC "-//W3C//DTD SVG 1.1//EN" "http://www.w3.org/Graphics/SVG/1.1/DTD/svg11.dtd" >
<svg xmlns="http://www.w3.org/2000/svg" xmlns:xlink="http://www.w3.org/1999/xlink" version="1.1" viewBox="0 0 871 628">
   <path fill="currentColor"
d="M408.87 394.349l-22.124 36.3047c-53.6406 88.0264 -86.5674 147.49 -94.2725 170.255c-6.17383 18.2383 -16.21 28.5693 -26.1484 26.916c-4.0332 -0.670898 -8.19531 -2.03125 -9.15723 -2.99316c-2.96973 -2.96973 -5.56836 -14.4219 -6.59766 -29.0693
c-1.1709 -16.6543 -9.78613 -37.2471 -26.0107 -62.1768c-11.2676 -17.3125 -9.88867 -21.7246 -45.7617 -50.9141c-6.91504 -5.62695 -45.5234 -38.4863 -44.585 -39.4248c0.93457 -0.93457 11.1357 -3.06934 22.668 -4.74414
c37.252 -5.40918 65.9873 -12.8516 106.484 -27.5801c52.9639 -19.2627 68.168 -35.7314 120.72 -64.5693c0 0 32.9697 -31.0312 79.1982 -74.4912c-76.0586 0.68457 -133.038 1.08008 -133.038 1.08008l-41.3154 10.0273
c-100.174 24.3145 -165.504 43.0791 -187.049 53.7275c-17.2617 8.53125 -31.6641 8.73926 -37.5225 0.542969c-2.37695 -3.32617 -4.3584 -7.23145 -4.3584 -8.5918c0 -4.19922 6.25977 -14.1348 15.8896 -25.2197c10.9482 -12.6045 19.418 -33.2578 25.5732 -62.3584
c4.27441 -20.209 8.36914 -22.3535 3.64355 -68.3604c-0.911133 -8.86816 -4.97656 -59.4033 -3.64941 -59.4033c1.32227 0 10.0449 5.70312 19.3838 12.6738c30.166 22.5166 55.7471 37.5723 94.7979 55.7939c51.0723 23.8301 73.4678 22.9355 131.02 39.7041
c0 0 73.7236 2.23242 164.841 5.06934c105.721 -99.3271 239.177 -224.488 241.525 -225.571c6.03516 -2.78125 10.8643 -2.05957 13.8398 1.1084c3.89648 4.14746 4.61816 12.4873 0.71582 22.6504c-1.95312 5.08789 -101.837 107.836 -195.697 203.702
c133.691 4.20703 277.722 8.9082 279.873 9.70215c6.2334 2.30078 9.1377 6.22559 9.00195 10.5703c-0.177734 5.6875 -5.56445 12.0947 -15.5098 16.5225c-5.38867 2.39941 -172.809 4.57422 -315.307 5.99805c-66.54 67.8252 -121.071 123.119 -121.071 123.119z" />
</svg>
