<?xml version="1.0" standalone="no"?>
<!DOCTYPE svg PUBLIC "-//W3C//DTD SVG 1.1//EN" "http://www.w3.org/Graphics/SVG/1.1/DTD/svg11.dtd" >
<svg xmlns="http://www.w3.org/2000/svg" xmlns:xlink="http://www.w3.org/1999/xlink" version="1.1" viewBox="0 0 871 635">
   <path fill="currentColor"
d="M386.457 274.308l-36.3047 -22.124c-88.0264 -53.6406 -147.491 -86.5674 -170.255 -94.2725c-18.2383 -6.17285 -28.5693 -16.21 -26.916 -26.1484c0.670898 -4.03223 2.03125 -8.19531 2.99316 -9.15723c2.96875 -2.96875 14.4209 -5.56836 29.0684 -6.59668
c16.6543 -1.17188 37.248 -9.78711 62.1777 -26.0117c17.3125 -11.2676 21.7236 -9.88867 50.9141 -45.7617c5.62695 -6.91504 38.4854 -45.5234 39.4238 -44.585c0.935547 0.935547 3.07031 11.1357 4.74512 22.668c5.40918 37.2529 12.8516 65.9873 27.5801 106.485
c19.2627 52.9639 35.7314 68.167 64.5693 120.72c0 0 42.8965 45.5752 98.4541 104.69c142.984 4.46777 316.485 10.0527 318.849 10.9248c6.2334 2.30078 9.1377 6.22559 9.00195 10.5703c-0.177734 5.6875 -5.56445 12.0947 -15.5098 16.5225
c-4.84277 2.15625 -140.543 4.13086 -271.416 5.54199c95.4375 101.612 204.985 218.492 205.998 220.689c2.78027 6.03418 2.05957 10.8633 -1.10938 13.8389c-4.14746 3.89648 -12.4863 4.61816 -22.6494 0.716797c-5.80273 -2.22754 -138.64 -131.842 -243.416 -234.619
c-99.3867 0.964844 -182.41 1.54199 -182.41 1.54199l-41.3154 10.0273c-100.174 24.3145 -165.504 43.0791 -187.049 53.7275c-17.2617 8.53125 -31.6641 8.73926 -37.5225 0.542969c-2.37695 -3.32617 -4.3584 -7.23145 -4.3584 -8.5918
c0 -4.19922 6.25977 -14.1348 15.8896 -25.2197c10.9482 -12.6045 19.418 -33.2578 25.5732 -62.3584c4.27441 -20.209 8.36914 -22.3535 3.64355 -68.3604c-0.911133 -8.86816 -4.97656 -59.4033 -3.64941 -59.4033c1.32227 0 10.0449 5.70312 19.3838 12.6738
c30.166 22.5166 55.7471 37.5723 94.7979 55.7939c51.0723 23.8301 73.4678 22.9355 131.02 39.7041c0 0 50.1582 1.51855 118.862 3.64258c-46.168 -45.3711 -79.0635 -77.8125 -79.0635 -77.8125z" />
</svg>
