<?xml version="1.0" standalone="no"?>
<!DOCTYPE svg PUBLIC "-//W3C//DTD SVG 1.1//EN" "http://www.w3.org/Graphics/SVG/1.1/DTD/svg11.dtd" >
<svg xmlns="http://www.w3.org/2000/svg" xmlns:xlink="http://www.w3.org/1999/xlink" version="1.1" viewBox="0 0 1601 894">
   <path fill="currentColor"
d="M780.299 823.941l-41.3154 10.0273c-100.174 24.3145 -165.504 43.0791 -187.049 53.7275c-17.2617 8.53125 -31.6641 8.73926 -37.5225 0.542969c-2.37695 -3.32617 -4.3584 -7.23145 -4.3584 -8.5918c0 -4.19922 6.25977 -14.1348 15.8896 -25.2197
c10.9482 -12.6045 19.418 -33.2578 25.5732 -62.3584c4.27441 -20.209 8.36914 -22.3535 3.64355 -68.3604c-0.911133 -8.86816 -4.97656 -59.4033 -3.64941 -59.4033c1.32227 0 10.0449 5.70312 19.3838 12.6738c30.166 22.5166 55.7471 37.5723 94.7979 55.7939
c51.0723 23.8301 73.4678 22.9355 131.02 39.7041c0 0 781.07 15.1748 785.098 16.6611c6.2334 2.30078 9.1377 6.22559 9.00195 10.5703c-0.177734 5.6875 -5.56445 12.0947 -15.5098 16.5225c-9.42969 4.19824 -795.003 7.70996 -795.003 7.70996zM780.299 158.941
l-41.3154 10.0273c-100.174 24.3145 -165.504 43.0791 -187.049 53.7275c-17.2617 8.53125 -31.6641 8.73926 -37.5225 0.542969c-2.37695 -3.32617 -4.3584 -7.23145 -4.3584 -8.5918c0 -4.19922 6.25977 -14.1348 15.8896 -25.2197
c10.9482 -12.6045 19.418 -33.2578 25.5732 -62.3584c4.27441 -20.209 8.36914 -22.3535 3.64355 -68.3604c-0.911133 -8.86816 -4.97656 -59.4033 -3.64941 -59.4033c1.32227 0 10.0449 5.70312 19.3838 12.6738c30.166 22.5166 55.7471 37.5723 94.7979 55.7939
c51.0723 23.8301 73.4678 22.9355 131.02 39.7041c0 0 781.07 15.1748 785.098 16.6611c6.2334 2.30078 9.1377 6.22559 9.00195 10.5703c-0.177734 5.6875 -5.56445 12.0947 -15.5098 16.5225c-9.42969 4.19824 -795.003 7.70996 -795.003 7.70996zM1164.42 547.456
l-27.2285 -16.5938c-66.0195 -40.2305 -110.617 -64.9248 -127.691 -70.7041c-13.6787 -4.62988 -21.4268 -12.1582 -20.1865 -19.6113c0.50293 -3.02441 1.52344 -6.14648 2.24512 -6.86816c2.22656 -2.22656 10.8154 -4.17578 21.8008 -4.94824
c12.4912 -0.87793 27.9365 -7.33887 46.6338 -19.5078c12.9844 -8.4502 16.292 -7.41602 38.1855 -34.3213c4.21973 -5.18652 28.8633 -34.1426 29.5674 -33.4385c0.702148 0.701172 2.30273 8.35059 3.55859 17.001c4.05762 27.9385 9.63867 49.4893 20.6855 79.8633
c14.4473 39.7227 26.7988 51.125 48.4268 90.54c0 0 21.1582 37.2529 22.5049 40.1768c2.08594 4.52637 1.54492 8.14844 -0.831055 10.3799c-3.11035 2.92188 -9.36523 3.46387 -16.9873 0.537109c-7.22754 -2.77441 -40.6836 -32.5049 -40.6836 -32.5049zM1227.42 374.956
l-27.2285 -16.5938c-66.0195 -40.2305 -110.617 -64.9248 -127.691 -70.7041c-13.6787 -4.62988 -21.4268 -12.1582 -20.1865 -19.6113c0.50293 -3.02441 1.52344 -6.14648 2.24512 -6.86816c2.22656 -2.22656 10.8154 -4.17578 21.8008 -4.94824
c12.4912 -0.87793 27.9365 -7.33887 46.6338 -19.5078c12.9844 -8.4502 16.292 -7.41602 38.1855 -34.3213c4.21973 -5.18652 28.8633 -34.1426 29.5674 -33.4385c0.702148 0.701172 2.30273 8.35059 3.55859 17.001c4.05762 27.9385 9.63867 49.4893 20.6855 79.8633
c14.4473 39.7227 26.7988 51.125 48.4268 90.54c0 0 21.1582 37.2529 22.5049 40.1768c2.08594 4.52637 1.54492 8.14844 -0.831055 10.3799c-3.11035 2.92188 -9.36523 3.46387 -16.9873 0.537109c-7.22754 -2.77441 -40.6836 -32.5049 -40.6836 -32.5049zM1363.36 371.667
l-7.52051 -30.9863c-18.2354 -75.1309 -32.3086 -124.128 -40.2949 -140.287c-6.39844 -12.9463 -6.55469 -23.748 -0.407227 -28.1416c2.49414 -1.78223 5.42285 -3.26855 6.44336 -3.26855c3.14941 0 10.6016 4.69434 18.915 11.917
c9.45312 8.21094 24.9434 14.5635 46.7686 19.1797c15.1572 3.20605 16.7656 6.27734 51.2705 2.7334c6.65137 -0.683594 44.5527 -3.73242 44.5527 -2.7373c0 0.991211 -4.27734 7.5332 -9.50586 14.5381c-16.8877 22.624 -28.1787 41.8096 -41.8457 71.0977
c-17.8721 38.3047 -17.2012 55.1016 -29.7773 98.2646c0 0 -11.3818 375.803 -12.4961 378.823c-1.72559 4.67578 -4.66895 6.85352 -7.92773 6.75195c-4.26562 -0.133789 -9.07129 -4.17383 -12.3916 -11.6328c-3.14941 -7.07227 -5.7832 -386.252 -5.7832 -386.252z
M889.515 683.523l-36.3047 -22.124c-88.0264 -53.6406 -147.49 -86.5674 -170.255 -94.2725c-18.2383 -6.17383 -28.5693 -16.2109 -26.916 -26.1484c0.670898 -4.0332 2.03125 -8.19531 2.99316 -9.15723c2.96973 -2.96973 14.4209 -5.56836 29.0684 -6.59766
c15.291 -1.0752 33.9023 -8.4248 56.1416 -22.1787c-15.8477 -12.7441 -34.7275 -29.5215 -34.7275 -29.5215l-36.3047 -22.124c-52.6299 -32.0713 -95.0488 -56.7373 -125.52 -73.0361c-59.1152 3.19141 -212.445 5.57812 -212.445 5.57812l-41.3154 10.0273
c-100.174 24.3145 -165.504 43.0791 -187.049 53.7275c-17.2617 8.53125 -31.6641 8.73926 -37.5225 0.542969c-2.37695 -3.32617 -4.3584 -7.23145 -4.3584 -8.5918c0 -4.19922 6.25977 -14.1348 15.8896 -25.2197c10.9482 -12.6045 19.418 -33.2578 25.5732 -62.3584
c4.27441 -20.209 8.36914 -22.3535 3.64355 -68.3604c-0.911133 -8.86816 -4.97656 -59.4033 -3.64941 -59.4033c1.32227 0 10.0449 5.70312 19.3838 12.6738c30.166 22.5166 55.7471 37.5723 94.7979 55.7939c51.0723 23.8301 73.4678 22.9355 131.02 39.7041
c0 0 66.3018 4.55078 126.947 8.91309c-2.23535 -3.36621 -3.15137 -6.89551 -2.56641 -10.4121c0.670898 -4.0332 2.03125 -8.19531 2.99316 -9.15723c2.96973 -2.96973 14.4209 -5.56836 29.0684 -6.59766c16.6543 -1.1709 37.248 -9.78613 62.1777 -26.0107
c17.3125 -11.2676 21.7236 -9.88867 50.9141 -45.7617c5.62695 -6.91504 38.4854 -45.5234 39.4238 -44.585c0.935547 0.93457 3.07031 11.1348 4.74512 22.668c5.40918 37.252 12.8516 65.9863 27.5801 106.484c19.2627 52.9639 35.7314 68.167 64.5693 120.72
c0 0 10.0254 17.6514 18.5039 32.7354c6.09766 -5.61914 13.7334 -13.958 25.1777 -28.0225c5.62695 -6.91504 38.4854 -45.5234 39.4238 -44.585c0.935547 0.93457 3.07031 11.1348 4.74512 22.668c5.40918 37.252 12.8516 65.9863 27.5801 106.484
c19.2627 52.9639 35.7314 68.167 64.5693 120.72c0 0 28.2109 49.6709 30.0068 53.5693c2.78125 6.03516 2.05957 10.8643 -1.1084 13.8398c-4.14746 3.89648 -12.4873 4.61816 -22.6504 0.716797c-9.63672 -3.69922 -54.2441 -43.3408 -54.2441 -43.3408zM335.245 613.941
l-41.3154 10.0273c-100.174 24.3145 -165.504 43.0791 -187.049 53.7275c-17.2617 8.53125 -31.6641 8.73926 -37.5225 0.542969c-2.37695 -3.32617 -4.3584 -7.23145 -4.3584 -8.5918c0 -4.19922 6.25977 -14.1348 15.8896 -25.2197
c10.9482 -12.6045 19.418 -33.2578 25.5732 -62.3584c4.27441 -20.209 8.36914 -22.3535 3.64355 -68.3604c-0.911133 -8.86816 -4.97656 -59.4033 -3.64941 -59.4033c1.32227 0 10.0449 5.70312 19.3838 12.6738c30.166 22.5166 55.7471 37.5723 94.7979 55.7939
c51.0723 23.8301 73.4678 22.9355 131.02 39.7041c0 0 221.07 15.1748 225.098 16.6611c6.2334 2.30078 9.1377 6.22559 9.00195 10.5703c-0.177734 5.6875 -5.56445 12.0947 -15.5098 16.5225c-9.42969 4.19824 -235.003 7.70996 -235.003 7.70996z" />
</svg>
