<?xml version="1.0" standalone="no"?>
<!DOCTYPE svg PUBLIC "-//W3C//DTD SVG 1.1//EN" "http://www.w3.org/Graphics/SVG/1.1/DTD/svg11.dtd" >
<svg xmlns="http://www.w3.org/2000/svg" xmlns:xlink="http://www.w3.org/1999/xlink" version="1.1" viewBox="0 0 1321 895">
   <path fill="currentColor"
d="M889.515 684.523l-36.3047 -22.124c-88.0264 -53.6406 -147.49 -86.5674 -170.255 -94.2725c-18.2383 -6.17383 -28.5693 -16.2109 -26.916 -26.1484c0.670898 -4.0332 2.03125 -8.19531 2.99316 -9.15723c2.96973 -2.96973 14.4209 -5.56836 29.0684 -6.59766
c15.291 -1.0752 33.9023 -8.4248 56.1416 -22.1787c-15.8477 -12.7441 -34.7275 -29.5215 -34.7275 -29.5215l-36.3047 -22.124c-52.6299 -32.0713 -95.0488 -56.7373 -125.52 -73.0361c-59.1152 3.19141 -212.445 5.57812 -212.445 5.57812l-41.3154 10.0273
c-100.174 24.3145 -165.504 43.0791 -187.049 53.7275c-17.2617 8.53125 -31.6641 8.73926 -37.5225 0.542969c-2.37695 -3.32617 -4.3584 -7.23145 -4.3584 -8.5918c0 -4.19922 6.25977 -14.1348 15.8896 -25.2197c10.9482 -12.6045 19.418 -33.2578 25.5732 -62.3584
c4.27441 -20.209 8.36914 -22.3535 3.64355 -68.3604c-0.911133 -8.86816 -4.97656 -59.4033 -3.64941 -59.4033c1.32227 0 10.0449 5.70312 19.3838 12.6738c30.166 22.5166 55.7471 37.5723 94.7979 55.7939c51.0723 23.8301 73.4678 22.9355 131.02 39.7041
c0 0 66.3018 4.55078 126.947 8.91309c-2.23535 -3.36621 -3.15137 -6.89551 -2.56641 -10.4121c0.670898 -4.0332 2.03125 -8.19531 2.99316 -9.15723c2.96973 -2.96973 14.4209 -5.56836 29.0684 -6.59766c16.6543 -1.1709 37.248 -9.78613 62.1777 -26.0107
c17.3125 -11.2676 21.7236 -9.88867 50.9141 -45.7617c5.62695 -6.91504 38.4854 -45.5234 39.4238 -44.585c0.935547 0.93457 3.07031 11.1348 4.74512 22.668c5.40918 37.252 12.8516 65.9863 27.5801 106.484c19.2627 52.9639 35.7314 68.167 64.5693 120.72
c0 0 10.0254 17.6514 18.5039 32.7354c6.09766 -5.61914 13.7334 -13.958 25.1777 -28.0225c5.62695 -6.91504 38.4854 -45.5234 39.4238 -44.585c0.935547 0.93457 3.07031 11.1348 4.74512 22.668c5.40918 37.252 12.8516 65.9863 27.5801 106.484
c19.2627 52.9639 35.7314 68.167 64.5693 120.72c0 0 28.2109 49.6709 30.0068 53.5693c2.78125 6.03516 2.05957 10.8643 -1.1084 13.8398c-4.14746 3.89648 -12.4873 4.61816 -22.6504 0.716797c-9.63672 -3.69922 -54.2441 -43.3408 -54.2441 -43.3408zM1000.68 582.673
l-7.52051 -30.9863c-18.2354 -75.1309 -32.3096 -124.128 -40.2959 -140.287c-6.39844 -12.9463 -6.55371 -23.748 -0.407227 -28.1416c2.49512 -1.7832 5.42383 -3.26855 6.44434 -3.26855c3.14941 0 10.6006 4.69434 18.915 11.917
c6.01953 5.22852 14.4863 9.70312 25.4775 13.4561c-1.56445 -14.9043 -2.61328 -32.6895 -2.61328 -32.6895l-7.52051 -30.9863c-18.2354 -75.1309 -32.3096 -124.128 -40.2959 -140.287c-6.39844 -12.9463 -6.55371 -23.748 -0.407227 -28.1416
c2.49512 -1.7832 5.42383 -3.26855 6.44434 -3.26855c3.14941 0 10.6006 4.69434 18.915 11.917c9.45312 8.21094 24.9434 14.5635 46.7686 19.1797c15.1562 3.20605 16.7646 6.27734 51.2705 2.73242c6.65039 -0.682617 44.5518 -3.73242 44.5518 -2.73633
c0 0.991211 -4.27734 7.5332 -9.50488 14.5371c-16.8877 22.625 -28.1797 41.8105 -41.8457 71.0986c-17.8721 38.3047 -17.2012 55.1006 -29.7783 98.2646c0 0 -4.16895 15.1309 -7.70801 27.7461c9.75098 2.43848 15.8418 4.01172 44.2852 1.08984
c6.65039 -0.682617 44.5518 -3.73242 44.5518 -2.73633c0 0.991211 -4.27734 7.5332 -9.50488 14.5371c-16.8877 22.625 -28.1797 41.8105 -41.8457 71.0986c-17.8721 38.3047 -17.2012 55.1006 -29.7783 98.2646c0 0 -11.3809 165.803 -12.4951 168.823
c-1.72559 4.6748 -4.66992 6.85352 -7.92773 6.75195c-4.26562 -0.133789 -9.07129 -4.17383 -12.3926 -11.6328c-3.14844 -7.07227 -5.78223 -176.252 -5.78223 -176.252zM1173.18 582.673l-7.52051 -30.9863c-18.2354 -75.1309 -32.3096 -124.128 -40.2959 -140.287
c-6.39844 -12.9463 -6.55371 -23.748 -0.407227 -28.1416c2.49512 -1.7832 5.42383 -3.26855 6.44434 -3.26855c3.14941 0 10.6006 4.69434 18.915 11.917c6.01953 5.22852 14.4863 9.70312 25.4775 13.4561c-1.56445 -14.9043 -2.61328 -32.6895 -2.61328 -32.6895
l-7.52051 -30.9863c-18.2354 -75.1309 -32.3096 -124.128 -40.2959 -140.287c-6.39844 -12.9463 -6.55371 -23.748 -0.407227 -28.1416c2.49512 -1.7832 5.42383 -3.26855 6.44434 -3.26855c3.14941 0 10.6006 4.69434 18.915 11.917
c9.45312 8.21094 24.9434 14.5635 46.7686 19.1797c15.1562 3.20605 16.7646 6.27734 51.2705 2.73242c6.65039 -0.682617 44.5518 -3.73242 44.5518 -2.73633c0 0.991211 -4.27734 7.5332 -9.50488 14.5371c-16.8877 22.625 -28.1797 41.8105 -41.8457 71.0986
c-17.8721 38.3047 -17.2012 55.1006 -29.7783 98.2646c0 0 -4.16895 15.1309 -7.70801 27.7461c9.75098 2.43848 15.8418 4.01172 44.2852 1.08984c6.65039 -0.682617 44.5518 -3.73242 44.5518 -2.73633c0 0.991211 -4.27734 7.5332 -9.50488 14.5371
c-16.8877 22.625 -28.1797 41.8105 -41.8457 71.0986c-17.8721 38.3047 -17.2012 55.1006 -29.7783 98.2646c0 0 -11.3809 165.803 -12.4951 168.823c-1.72559 4.6748 -4.66992 6.85352 -7.92773 6.75195c-4.26562 -0.133789 -9.07129 -4.17383 -12.3926 -11.6328
c-3.14844 -7.07227 -5.78223 -176.252 -5.78223 -176.252zM335.245 614.941l-41.3154 10.0273c-100.174 24.3145 -165.504 43.0791 -187.049 53.7275c-17.2617 8.53125 -31.6641 8.73926 -37.5225 0.542969c-2.37695 -3.32617 -4.3584 -7.23145 -4.3584 -8.5918
c0 -4.19922 6.25977 -14.1348 15.8896 -25.2197c10.9482 -12.6045 19.418 -33.2578 25.5732 -62.3584c4.27441 -20.209 8.36914 -22.3535 3.64355 -68.3604c-0.911133 -8.86816 -4.97656 -59.4033 -3.64941 -59.4033c1.32227 0 10.0449 5.70312 19.3838 12.6738
c30.166 22.5166 55.7471 37.5723 94.7979 55.7939c51.0723 23.8301 73.4678 22.9355 131.02 39.7041c0 0 221.07 15.1748 225.098 16.6611c6.2334 2.30078 9.1377 6.22559 9.00195 10.5703c-0.177734 5.6875 -5.56445 12.0947 -15.5098 16.5225
c-9.42969 4.19824 -235.003 7.70996 -235.003 7.70996zM780.299 159.441l-41.3154 10.0273c-100.174 24.3145 -165.504 43.0791 -187.049 53.7275c-17.2617 8.53125 -31.6641 8.73926 -37.5225 0.542969c-2.37695 -3.32617 -4.3584 -7.23145 -4.3584 -8.5918
c0 -4.19922 6.25977 -14.1348 15.8896 -25.2197c10.9482 -12.6045 19.418 -33.2578 25.5732 -62.3584c4.27441 -20.209 8.36914 -22.3535 3.64355 -68.3604c-0.911133 -8.86816 -4.97656 -59.4033 -3.64941 -59.4033c1.32227 0 10.0449 5.70312 19.3838 12.6738
c30.166 22.5166 55.7471 37.5723 94.7979 55.7939c51.0723 23.8301 73.4678 22.9355 131.02 39.7041c0 0 501.07 15.1748 505.098 16.6611c6.2334 2.30078 9.1377 6.22559 9.00195 10.5703c-0.177734 5.6875 -5.56445 12.0947 -15.5098 16.5225
c-9.42969 4.19824 -515.003 7.70996 -515.003 7.70996zM780.299 824.941l-41.3154 10.0273c-100.174 24.3145 -165.504 43.0791 -187.049 53.7275c-17.2617 8.53125 -31.6641 8.73926 -37.5225 0.542969c-2.37695 -3.32617 -4.3584 -7.23145 -4.3584 -8.5918
c0 -4.19922 6.25977 -14.1348 15.8896 -25.2197c10.9482 -12.6045 19.418 -33.2578 25.5732 -62.3584c4.27441 -20.209 8.36914 -22.3535 3.64355 -68.3604c-0.911133 -8.86816 -4.97656 -59.4033 -3.64941 -59.4033c1.32227 0 10.0449 5.70312 19.3838 12.6738
c30.166 22.5166 55.7471 37.5723 94.7979 55.7939c51.0723 23.8301 73.4678 22.9355 131.02 39.7041c0 0 501.07 15.1748 505.098 16.6611c6.2334 2.30078 9.1377 6.22559 9.00195 10.5703c-0.177734 5.6875 -5.56445 12.0947 -15.5098 16.5225
c-9.42969 4.19824 -515.003 7.70996 -515.003 7.70996z" />
</svg>
