<?xml version="1.0" standalone="no"?>
<!DOCTYPE svg PUBLIC "-//W3C//DTD SVG 1.1//EN" "http://www.w3.org/Graphics/SVG/1.1/DTD/svg11.dtd" >
<svg xmlns="http://www.w3.org/2000/svg" xmlns:xlink="http://www.w3.org/1999/xlink" version="1.1" viewBox="0 0 1231 800">
   <path fill="currentColor"
d="M330.245 614.941l-41.3154 10.0273c-100.174 24.3145 -165.504 43.0791 -187.049 53.7275c-17.2617 8.53125 -31.6641 8.73926 -37.5225 0.542969c-2.37695 -3.32617 -4.3584 -7.23145 -4.3584 -8.5918c0 -4.19922 6.25977 -14.1348 15.8896 -25.2197
c10.9482 -12.6045 19.418 -33.2578 25.5732 -62.3584c4.27441 -20.209 8.36914 -22.3535 3.64355 -68.3604c-0.911133 -8.86816 -4.97656 -59.4033 -3.64941 -59.4033c1.32227 0 10.0449 5.70312 19.3838 12.6738c30.166 22.5166 55.7471 37.5723 94.7979 55.7939
c51.0723 23.8301 73.4678 22.9355 131.02 39.7041c0 0 114.932 2.2334 256.848 5.06934c-1.69727 -140.845 -2.79199 -298.408 -2.79199 -298.408l-10.0273 -41.3154c-24.3145 -100.174 -43.0791 -165.504 -53.7275 -187.049
c-8.53125 -17.2617 -8.73926 -31.6641 -0.542969 -37.5225c3.32617 -2.37695 7.23145 -4.3584 8.5918 -4.3584c4.19922 0 14.1348 6.25977 25.2197 15.8896c12.6045 10.9482 33.2578 19.418 62.3584 25.5732c20.209 4.27441 22.3535 8.36914 68.3604 3.64355
c8.86816 -0.911133 59.4033 -4.97656 59.4033 -3.64941c0 1.32227 -5.70312 10.0449 -12.6738 19.3838c-22.5166 30.166 -37.5723 55.7471 -55.7939 94.7979c-23.8301 51.0723 -22.9355 73.4678 -39.7041 131.02c0 0 -4.46094 147.287 -8.78223 282.794
c62.2305 1.25 127.883 2.58105 190.167 3.86914c-1.72949 -142.007 -2.84863 -303.076 -2.84863 -303.076l-10.0273 -41.3154c-24.3145 -100.174 -43.0791 -165.504 -53.7275 -187.049c-8.53125 -17.2617 -8.73926 -31.6641 -0.542969 -37.5225
c3.32617 -2.37695 7.23145 -4.3584 8.5918 -4.3584c4.19922 0 14.1348 6.25977 25.2197 15.8896c12.6045 10.9482 33.2578 19.418 62.3584 25.5732c20.209 4.27441 22.3535 8.36914 68.3604 3.64355c8.86816 -0.911133 59.4033 -4.97656 59.4033 -3.64941
c0 1.32227 -5.70312 10.0449 -12.6738 19.3838c-22.5166 30.166 -37.5723 55.7471 -55.7939 94.7979c-23.8301 51.0723 -22.9355 73.4678 -39.7041 131.02c0 0 -4.56445 150.711 -8.93164 287.488c75.293 1.57129 143.111 3.03418 190.377 4.14551
c-1.76367 -143.191 -2.90918 -308.047 -2.90918 -308.047l-10.0273 -41.3154c-24.3145 -100.174 -43.0791 -165.504 -53.7275 -187.049c-8.53125 -17.2617 -8.73926 -31.6641 -0.542969 -37.5225c3.32617 -2.37695 7.23145 -4.3584 8.5918 -4.3584
c4.19922 0 14.1348 6.25977 25.2197 15.8896c12.6045 10.9482 33.2578 19.418 62.3584 25.5732c20.209 4.27441 22.3535 8.36914 68.3604 3.64355c8.86816 -0.911133 59.4033 -4.97656 59.4033 -3.64941c0 1.32227 -5.70312 10.0449 -12.6738 19.3838
c-22.5166 30.166 -37.5723 55.7471 -55.7939 94.7979c-23.8301 51.0723 -22.9355 73.4678 -39.7041 131.02c0 0 -4.67871 154.499 -9.09473 292.605c17.9209 0.473633 28.2197 0.814453 28.6729 0.981445c6.2334 2.30078 9.1377 6.22559 9.00195 10.5703
c-0.177734 5.6875 -5.56445 12.0947 -15.5098 16.5225c-0.912109 0.40625 -9.08496 0.805664 -23.1055 1.19629c-3.17578 98.4033 -6.02344 181.59 -6.62598 183.222c-2.30078 6.2334 -6.22559 9.1377 -10.5703 9.00195
c-5.6875 -0.177734 -12.0947 -5.56445 -16.5225 -15.5098c-1.625 -3.65039 -3.14746 -81.6543 -4.40332 -175.897c-46.3389 0.807617 -114.982 1.56641 -191.977 2.25c-3.13574 97.0586 -5.93164 178.541 -6.52734 180.155
c-2.30078 6.2334 -6.22559 9.1377 -10.5703 9.00195c-5.6875 -0.177734 -12.0947 -5.56445 -16.5225 -15.5098c-1.61035 -3.61719 -3.12012 -80.2373 -4.36914 -173.322c-62.5137 0.519531 -128.812 0.989258 -192.066 1.39746
c-3.11328 96.2988 -5.87988 176.828 -6.47168 178.433c-2.30078 6.2334 -6.22559 9.1377 -10.5703 9.00195c-5.6875 -0.177734 -12.0947 -5.56445 -16.5225 -15.5098c-1.60059 -3.5957 -3.10254 -79.3408 -4.34668 -171.685
c-149.958 0.930664 -273.832 1.48438 -273.832 1.48438zM335.461 504.523l-36.3047 -22.124c-88.0264 -53.6406 -147.49 -86.5674 -170.255 -94.2725c-18.2383 -6.17383 -28.5693 -16.2109 -26.916 -26.1484c0.670898 -4.0332 2.03125 -8.19531 2.99316 -9.15723
c2.96973 -2.96973 14.4209 -5.56836 29.0684 -6.59766c16.6543 -1.1709 37.248 -9.78613 62.1777 -26.0107c17.3125 -11.2676 21.7236 -9.88867 50.9141 -45.7617c5.62695 -6.91504 38.4854 -45.5234 39.4238 -44.585c0.935547 0.93457 3.07031 11.1348 4.74512 22.668
c5.40918 37.252 12.8516 65.9863 27.5801 106.484c19.2627 52.9639 35.7314 68.167 64.5693 120.72c0 0 28.2109 49.6709 30.0068 53.5693c2.78125 6.03516 2.05957 10.8643 -1.1084 13.8398c-4.14746 3.89648 -12.4873 4.61816 -22.6504 0.716797
c-9.63672 -3.69922 -54.2441 -43.3408 -54.2441 -43.3408zM419.461 274.523l-36.3047 -22.124c-88.0264 -53.6406 -147.49 -86.5674 -170.255 -94.2725c-18.2383 -6.17383 -28.5693 -16.2109 -26.916 -26.1484c0.670898 -4.0332 2.03125 -8.19531 2.99316 -9.15723
c2.96973 -2.96973 14.4209 -5.56836 29.0684 -6.59766c16.6543 -1.1709 37.248 -9.78613 62.1777 -26.0107c17.3125 -11.2676 21.7236 -9.88867 50.9141 -45.7617c5.62695 -6.91504 38.4854 -45.5234 39.4238 -44.585c0.935547 0.93457 3.07031 11.1348 4.74512 22.668
c5.40918 37.252 12.8516 65.9863 27.5801 106.484c19.2627 52.9639 35.7314 68.167 64.5693 120.72c0 0 28.2109 49.6709 30.0068 53.5693c2.78125 6.03516 2.05957 10.8643 -1.1084 13.8398c-4.14746 3.89648 -12.4873 4.61816 -22.6504 0.716797
c-9.63672 -3.69922 -54.2441 -43.3408 -54.2441 -43.3408z" />
</svg>
