<?xml version="1.0" standalone="no"?>
<!DOCTYPE svg PUBLIC "-//W3C//DTD SVG 1.1//EN" "http://www.w3.org/Graphics/SVG/1.1/DTD/svg11.dtd" >
<svg xmlns="http://www.w3.org/2000/svg" xmlns:xlink="http://www.w3.org/1999/xlink" version="1.1" viewBox="0 0 1636 800">
   <path fill="currentColor"
d="M640.245 499.941l-41.3154 10.0273c-100.174 24.3145 -165.504 43.0791 -187.049 53.7275c-17.2617 8.53125 -31.6641 8.73926 -37.5225 0.542969c-2.37695 -3.32617 -4.3584 -7.23145 -4.3584 -8.5918c0 -4.19922 6.25977 -14.1348 15.8896 -25.2197
c8.23633 -9.48242 15.0693 -23.5195 20.5703 -42.2822c-2.04395 1.47656 -4.45215 2.85742 -7.21191 4.08594c-9.42969 4.19824 -69.0029 7.70996 -69.0029 7.70996l-41.3154 10.0273c-100.174 24.3145 -165.504 43.0791 -187.049 53.7275
c-17.2617 8.53125 -31.6641 8.73926 -37.5225 0.542969c-2.37695 -3.32617 -4.3584 -7.23145 -4.3584 -8.5918c0 -4.19922 6.25977 -14.1348 15.8896 -25.2197c10.9482 -12.6045 19.418 -33.2578 25.5732 -62.3584c4.27441 -20.209 8.36914 -22.3535 3.64355 -68.3604
c-0.911133 -8.86816 -4.97656 -59.4033 -3.64941 -59.4033c1.32227 0 10.0449 5.70312 19.3838 12.6738c30.166 22.5166 55.7471 37.5723 94.7979 55.7939c51.0723 23.8301 73.4678 22.9355 131.02 39.7041c0 0 55.0703 15.1748 59.0977 16.6611
c2.34863 0.867188 4.22461 1.96484 5.64355 3.22852c0.0214844 -0.0996094 0.0419922 -0.198242 0.0634766 -0.297852c4.27441 -20.209 8.36914 -22.3535 3.64355 -68.3604c-0.911133 -8.86816 -4.97656 -59.4033 -3.64941 -59.4033
c1.32227 0 10.0449 5.70312 19.3838 12.6738c30.166 22.5166 55.7471 37.5723 94.7979 55.7939c51.0723 23.8301 73.4678 22.9355 131.02 39.7041c0 0 283.013 11.8945 350.711 15.6533c-1.0332 -104.433 -1.65527 -193.992 -1.65527 -193.992l-1.49512 -6.15918
c-53.2764 3.38184 -219.027 5.96191 -219.027 5.96191l-41.3154 10.0273c-100.174 24.3145 -165.504 43.0791 -187.049 53.7275c-17.2617 8.53125 -31.6641 8.73926 -37.5225 0.542969c-2.37695 -3.32617 -4.3584 -7.23145 -4.3584 -8.5918
c0 -4.19922 6.25977 -14.1348 15.8896 -25.2197c10.9482 -12.6045 19.418 -33.2578 25.5732 -62.3584c4.27441 -20.209 8.36914 -22.3535 3.64355 -68.3604c-0.911133 -8.86816 -4.97656 -59.4033 -3.64941 -59.4033c1.32227 0 10.0449 5.70312 19.3838 12.6738
c30.166 22.5166 55.7471 37.5723 94.7979 55.7939c51.0723 23.8301 73.4678 22.9355 131.02 39.7041c0 0 133.575 9.16895 194.957 13.9502l-0.875 -3.60449c-24.3145 -100.174 -43.0791 -165.504 -53.7275 -187.049
c-8.53125 -17.2617 -8.73926 -31.6641 -0.542969 -37.5225c3.32617 -2.37695 7.23145 -4.3584 8.5918 -4.3584c4.19922 0 14.1348 6.25977 25.2197 15.8896c12.6045 10.9482 33.2578 19.418 62.3584 25.5732c20.209 4.27441 22.3535 8.36914 68.3604 3.64355
c8.86816 -0.911133 59.4033 -4.97656 59.4033 -3.64941c0 1.32227 -5.70312 10.0449 -12.6738 19.3838c-22.5166 30.166 -37.5723 55.7471 -55.7939 94.7979c-23.8301 51.0723 -22.9355 73.4678 -39.7041 131.02c0 0 -15.1748 501.07 -16.6611 505.098
c-2.30078 6.2334 -6.22559 9.1377 -10.5703 9.00195c-5.6875 -0.177734 -12.0947 -5.56445 -16.5225 -15.5098c-0.881836 -1.98047 -1.7334 -25.8545 -2.52832 -62.3359c-50.5166 3.93945 -510.65 7.13574 -510.65 7.13574l-41.3154 10.0273
c-100.174 24.3145 -165.504 43.0791 -187.049 53.7275c-17.2617 8.53125 -31.6641 8.73926 -37.5225 0.542969c-2.37695 -3.32617 -4.3584 -7.23145 -4.3584 -8.5918c0 -4.19922 6.25977 -14.1348 15.8896 -25.2197c10.9482 -12.6045 19.418 -33.2578 25.5732 -62.3584
c4.27441 -20.209 8.36914 -22.3535 3.64355 -68.3604c-0.911133 -8.86816 -4.97656 -59.4033 -3.64941 -59.4033c1.32227 0 10.0449 5.70312 19.3838 12.6738c30.166 22.5166 55.7471 37.5723 94.7979 55.7939c51.0723 23.8301 73.4678 22.9355 131.02 39.7041
c0 0 418.627 12.6777 493.675 15.9932c-1.02246 -55.9971 -1.93262 -130.438 -2.66895 -201.324c-53.6875 3.78125 -367.419 6.79492 -367.419 6.79492zM1138.02 402.604l-7.52148 -30.9863c-18.2354 -75.1299 -32.3086 -124.128 -40.2949 -140.286
c-6.39844 -12.9463 -6.55469 -23.748 -0.407227 -28.1416c2.49414 -1.7832 5.42285 -3.26953 6.44336 -3.26953c3.14941 0 10.6016 4.69531 18.915 11.918c9.45312 8.21094 24.9434 14.5625 46.7686 19.1797c15.1572 3.20508 16.7656 6.27637 51.2705 2.73242
c6.65137 -0.683594 44.5527 -3.73242 44.5527 -2.7373c0 0.992188 -4.27734 7.53418 -9.50586 14.5381c-16.8867 22.625 -28.1787 41.8105 -41.8457 71.0986c-17.8721 38.3037 -17.2012 55.1006 -29.7773 98.2646c0 0 -11.3809 375.803 -12.4961 378.823
c-1.72559 4.6748 -4.66895 6.85254 -7.92773 6.75098c-4.26562 -0.132812 -9.07129 -4.17285 -12.3916 -11.6318c-3.14941 -7.07227 -5.78223 -386.253 -5.78223 -386.253zM1310.52 612.604l-7.52148 -30.9863c-18.2354 -75.1299 -32.3086 -124.128 -40.2949 -140.286
c-6.39844 -12.9463 -6.55469 -23.748 -0.407227 -28.1416c2.49414 -1.7832 5.42285 -3.26953 6.44336 -3.26953c3.14941 0 10.6016 4.69531 18.915 11.918c6.01953 5.22852 14.4863 9.70312 25.4775 13.4551c-1.56445 -14.9043 -2.6123 -32.6895 -2.6123 -32.6895
l-7.52148 -30.9863c-18.2354 -75.1299 -32.3086 -124.128 -40.2949 -140.286c-6.39844 -12.9463 -6.55469 -23.748 -0.407227 -28.1416c2.49414 -1.7832 5.42285 -3.26953 6.44336 -3.26953c3.14941 0 10.6016 4.69531 18.915 11.918
c9.45312 8.21094 24.9434 14.5625 46.7686 19.1797c15.1572 3.20508 16.7656 6.27637 51.2705 2.73242c6.65137 -0.683594 44.5527 -3.73242 44.5527 -2.7373c0 0.992188 -4.27734 7.53418 -9.50586 14.5381c-16.8867 22.625 -28.1787 41.8105 -41.8457 71.0986
c-17.8721 38.3037 -17.2012 55.1006 -29.7773 98.2646c0 0 -4.16895 15.1299 -7.70801 27.7451c9.75195 2.43848 15.8418 4.01172 44.2842 1.09082c6.65137 -0.683594 44.5527 -3.73242 44.5527 -2.7373c0 0.992188 -4.27734 7.53418 -9.50586 14.5381
c-16.8867 22.625 -28.1787 41.8105 -41.8457 71.0986c-17.8721 38.3037 -17.2012 55.1006 -29.7773 98.2646c0 0 -11.3809 165.803 -12.4961 168.823c-1.72559 4.6748 -4.66895 6.85254 -7.92773 6.75098c-4.26562 -0.132812 -9.07129 -4.17285 -12.3916 -11.6318
c-3.14941 -7.07227 -5.78223 -176.253 -5.78223 -176.253zM1465.71 270.139l-10.0273 -41.3154c-24.3145 -100.174 -43.0791 -165.504 -53.7275 -187.049c-8.53125 -17.2617 -8.73926 -31.6641 -0.542969 -37.5225c3.32617 -2.37695 7.23145 -4.3584 8.5918 -4.3584
c4.19922 0 14.1348 6.25977 25.2197 15.8896c12.6045 10.9482 33.2578 19.418 62.3584 25.5732c20.209 4.27441 22.3535 8.36914 68.3604 3.64355c8.86816 -0.911133 59.4033 -4.97656 59.4033 -3.64941c0 1.32227 -5.70312 10.0449 -12.6738 19.3838
c-22.5166 30.166 -37.5723 55.7471 -55.7939 94.7979c-23.8301 51.0723 -22.9355 73.4678 -39.7041 131.02c0 0 -15.1748 501.07 -16.6611 505.098c-2.30078 6.2334 -6.22559 9.1377 -10.5703 9.00195c-5.6875 -0.177734 -12.0947 -5.56445 -16.5225 -15.5098
c-4.19824 -9.42969 -7.70996 -515.003 -7.70996 -515.003z" />
</svg>
