<?xml version="1.0" standalone="no"?>
<!DOCTYPE svg PUBLIC "-//W3C//DTD SVG 1.1//EN" "http://www.w3.org/Graphics/SVG/1.1/DTD/svg11.dtd" >
<svg xmlns="http://www.w3.org/2000/svg" xmlns:xlink="http://www.w3.org/1999/xlink" version="1.1" viewBox="0 0 1522 965">
   <path fill="currentColor"
d="M1463.9 430.279c7.42969 -9.08496 30.668 -4.78711 27.7188 6.45312c-7.6582 29.1816 -36.4658 70.0742 -61.9238 125.631c11.7305 24.2451 25.8086 46.9141 40.4971 66.3037c26.8828 35.4844 46.5342 98.8125 39.541 105.806
c-2.85059 2.85156 -13.1025 -9.99902 -22.9033 -28.709c-9.75781 -18.6289 -40.2637 -57.0977 -67.791 -85.4844c-3.08789 -3.18359 -6.05566 -6.21582 -8.93359 -9.11719c-1.91699 5.60645 -3.75684 11.333 -5.50195 17.1816
c-21.8799 73.3076 18.748 168.492 65.5889 230.323c26.8828 35.4844 46.5342 98.8125 39.541 105.806c-2.85059 2.85156 -13.1025 -9.99902 -22.9033 -28.709c-9.75781 -18.6289 -40.2637 -57.0977 -67.791 -85.4844c-44.709 -46.1055 -64.3242 -60.4072 -148.248 -105.07
c13.1836 41.6133 35.4824 81.8848 59.4014 113.458c26.8828 35.4844 46.5342 98.8125 39.541 105.806c-2.85059 2.85156 -13.1025 -9.99902 -22.9033 -28.709c-9.75781 -18.6289 -40.2637 -57.0977 -67.791 -85.4844c-46.7695 -48.2314 -66.0791 -61.6582 -160.273 -111.447
c-8.57812 -4.5332 -16.2227 -9.36133 -22.2285 -14.3545c-60.5967 3.13379 -210.29 5.46387 -210.29 5.46387l-41.3154 10.0273c-100.174 24.3145 -165.504 43.0791 -187.049 53.7275c-17.2617 8.53125 -31.6641 8.73926 -37.5225 0.542969
c-2.37695 -3.32617 -4.3584 -7.23145 -4.3584 -8.5918c0 -4.19922 6.25977 -14.1348 15.8896 -25.2197c6.96777 -8.02246 12.9316 -19.3047 17.9336 -33.9502c-19.832 2.0752 -43.3916 3.46387 -43.3916 3.46387l-41.3154 10.0273
c-100.174 24.3145 -165.504 43.0791 -187.049 53.7275c-17.2617 8.53125 -31.6641 8.73926 -37.5225 0.542969c-2.37695 -3.32617 -4.3584 -7.23145 -4.3584 -8.5918c0 -4.19922 6.25977 -14.1348 15.8896 -25.2197c10.9482 -12.6045 19.418 -33.2578 25.5732 -62.3584
c4.27441 -20.209 8.36914 -22.3535 3.64355 -68.3604c-0.911133 -8.86816 -4.97656 -59.4033 -3.64941 -59.4033c1.32227 0 10.0449 5.70312 19.3838 12.6738c30.166 22.5166 55.7471 37.5723 94.7979 55.7939c51.0723 23.8301 73.4678 22.9355 131.02 39.7041
c0 0 20.0342 5.52051 36.8193 10.2285c3.24414 -12.9736 5.33203 -21.1201 1.44238 -58.9971c-0.911133 -8.86816 -4.97656 -59.4033 -3.64941 -59.4033c1.32227 0 10.0449 5.70312 19.3838 12.6738c30.166 22.5166 55.7471 37.5723 94.7979 55.7939
c51.0723 23.8301 73.4678 22.9355 131.02 39.7041c0 0 119.758 8.2207 184.592 13.1533c4.38184 -5.37695 12.2451 -10.6299 24.417 -15.6074c22.7139 -9.29102 105.255 -83.0791 122.508 -97.4297c0.0800781 -0.0673828 0.161133 -0.134766 0.241211 -0.202148
c-25.7656 -20.7285 -55.377 -37.6992 -115.652 -69.5596c-8.57812 -4.5332 -16.2227 -9.36133 -22.2285 -14.3545c-60.5967 3.13379 -210.29 5.46387 -210.29 5.46387l-41.3154 10.0273c-100.174 24.3145 -165.504 43.0791 -187.049 53.7275
c-17.2617 8.53125 -31.6641 8.73926 -37.5225 0.542969c-2.37695 -3.32617 -4.3584 -7.23145 -4.3584 -8.5918c0 -4.19922 6.25977 -14.1348 15.8896 -25.2197c6.96777 -8.02246 12.9316 -19.3047 17.9336 -33.9502c-19.832 2.0752 -43.3916 3.46387 -43.3916 3.46387
l-41.3154 10.0273c-100.174 24.3145 -165.504 43.0791 -187.049 53.7275c-17.2617 8.53125 -31.6641 8.73926 -37.5225 0.542969c-2.37695 -3.32617 -4.3584 -7.23145 -4.3584 -8.5918c0 -4.19922 6.25977 -14.1348 15.8896 -25.2197
c10.9482 -12.6045 19.418 -33.2578 25.5732 -62.3584c4.27441 -20.209 8.36914 -22.3535 3.64355 -68.3604c-0.911133 -8.86816 -4.97656 -59.4033 -3.64941 -59.4033c1.32227 0 10.0449 5.70312 19.3838 12.6738c30.166 22.5166 55.7471 37.5723 94.7979 55.7939
c51.0723 23.8301 73.4678 22.9355 131.02 39.7041c0 0 20.0342 5.52051 36.8193 10.2285c3.24414 -12.9736 5.33203 -21.1201 1.44238 -58.9971c-0.911133 -8.86816 -4.97656 -59.4033 -3.64941 -59.4033c1.32227 0 10.0449 5.70312 19.3838 12.6738
c30.166 22.5166 55.7471 37.5723 94.7979 55.7939c51.0723 23.8301 73.4678 22.9355 131.02 39.7041c0 0 119.758 8.2207 184.592 13.1533c4.38184 -5.37695 12.2451 -10.6299 24.417 -15.6074c22.7139 -9.29102 105.255 -83.0791 122.508 -97.4297
c33 -27.4473 37.9541 -85.0107 89.7236 -148.314c7.42969 -9.08496 30.668 -4.78711 27.7188 6.45312c-10.4199 39.707 -59.999 101.099 -87.0156 191.611c-4.18652 14.0244 -6.08398 28.8496 -6.08887 44.0889c29.1611 -17.5762 99.8457 -80.6836 115.662 -93.8389
c33 -27.4473 37.9541 -85.0107 89.7236 -148.314c7.42969 -9.08496 30.668 -4.78711 27.7188 6.45312c-10.4199 39.707 -59.999 101.099 -87.0156 191.611c-10.9863 36.8086 -6.21387 79.1328 7.19238 119.981c11.876 -25.8311 26.0713 -56.2129 52.1045 -88.0459z
M292.648 848.523l-36.3047 -22.124c-88.0264 -53.6406 -147.49 -86.5674 -170.255 -94.2725c-18.2383 -6.17383 -28.5693 -16.2109 -26.916 -26.1484c0.670898 -4.0332 2.03125 -8.19531 2.99316 -9.15723c2.96973 -2.96973 14.4209 -5.56836 29.0684 -6.59766
c16.6543 -1.1709 37.248 -9.78613 62.1777 -26.0107c17.3125 -11.2676 21.7236 -9.88867 50.9141 -45.7617c4.63672 -5.69922 27.7705 -32.9248 36.2891 -41.7988c-1.65332 -101.051 -2.71387 -211.514 -2.71387 -211.514l-10.0273 -41.3154
c-24.3145 -100.174 -43.0791 -165.504 -53.7275 -187.049c-8.53125 -17.2617 -8.73926 -31.6641 -0.542969 -37.5225c3.32617 -2.37695 7.23145 -4.3584 8.5918 -4.3584c4.19922 0 14.1348 6.25977 25.2197 15.8896c12.6045 10.9482 33.2578 19.418 62.3584 25.5732
c20.209 4.27441 22.3535 8.36914 68.3604 3.64355c8.86816 -0.911133 59.4033 -4.97656 59.4033 -3.64941c0 1.32227 -5.70312 10.0449 -12.6738 19.3838c-22.5166 30.166 -37.5723 55.7471 -55.7939 94.7979c-23.8301 51.0723 -22.9355 73.4678 -39.7041 131.02
c0 0 -9.30273 221.344 -14.0547 319.358c0.25293 0.699219 0.507812 1.40234 0.764648 2.1084c19.2627 52.9639 35.7314 68.167 64.5693 120.72c0 0 28.2109 49.6709 30.0068 53.5693c2.78125 6.03516 2.05957 10.8643 -1.1084 13.8398
c-4.14746 3.89648 -12.4873 4.61816 -22.6504 0.716797c-9.63672 -3.69922 -54.2441 -43.3408 -54.2441 -43.3408zM636.648 274.523l-36.3047 -22.124c-88.0264 -53.6406 -147.49 -86.5674 -170.255 -94.2725c-18.2383 -6.17383 -28.5693 -16.2109 -26.916 -26.1484
c0.670898 -4.0332 2.03125 -8.19531 2.99316 -9.15723c2.96973 -2.96973 14.4209 -5.56836 29.0684 -6.59766c16.6543 -1.1709 37.248 -9.78613 62.1777 -26.0107c17.3125 -11.2676 21.7236 -9.88867 50.9141 -45.7617c5.62695 -6.91504 38.4854 -45.5234 39.4238 -44.585
c0.935547 0.93457 3.07031 11.1348 4.74512 22.668c5.40918 37.252 12.8516 65.9863 27.5801 106.484c19.2627 52.9639 35.7314 68.167 64.5693 120.72c0 0 28.2109 49.6709 30.0068 53.5693c2.78125 6.03516 2.05957 10.8643 -1.1084 13.8398
c-4.14746 3.89648 -12.4873 4.61816 -22.6504 0.716797c-9.63672 -3.69922 -54.2441 -43.3408 -54.2441 -43.3408zM1364.91 638.171c1.14746 -1.28809 2.23828 -2.56543 3.26953 -3.82715c-1.20312 0.676758 -2.29492 1.9834 -3.26953 3.82715zM1364.91 408.171
c1.14746 -1.28809 2.23828 -2.56543 3.26953 -3.82715c-1.20312 0.676758 -2.29492 1.9834 -3.26953 3.82715zM1374.42 578.392c-18.3281 -14.7441 -38.6016 -27.5879 -70.4736 -45.2412c-4.76172 9.25293 -9.5625 18.9844 -14.249 29.2129
c10.2363 21.1572 22.2598 41.1143 34.917 58.7383c22.0273 -18.624 42.0264 -36.2383 49.5645 -42.5078c0.0800781 -0.0673828 0.161133 -0.134766 0.241211 -0.202148zM1224.91 638.171c1.14746 -1.28809 2.23828 -2.56543 3.26953 -3.82715
c-1.20312 0.676758 -2.29492 1.9834 -3.26953 3.82715zM1272.75 516.252c-0.649414 -0.345703 -1.30176 -0.693359 -1.95898 -1.04297c0.329102 1.03906 0.664062 2.07812 1.00488 3.11621c0.316406 -0.6875 0.634766 -1.37891 0.954102 -2.07324zM1258.51 672.433
c9.98145 -6.0166 24.8281 -17.3672 40.6738 -30.2227c-6.66699 -7.61719 -13.4961 -15.0684 -20.1494 -21.9307c-3.08789 -3.18359 -6.05566 -6.21582 -8.93359 -9.11719c-1.91699 5.60645 -3.75684 11.333 -5.50195 17.1816
c-4.18652 14.0244 -6.08398 28.8496 -6.08887 44.0889zM1224.91 408.171c1.14746 -1.28809 2.23828 -2.56543 3.26953 -3.82715c-1.20312 0.676758 -2.29492 1.9834 -3.26953 3.82715z" />
</svg>
