<?xml version="1.0" standalone="no"?>
<!DOCTYPE svg PUBLIC "-//W3C//DTD SVG 1.1//EN" "http://www.w3.org/Graphics/SVG/1.1/DTD/svg11.dtd" >
<svg xmlns="http://www.w3.org/2000/svg" xmlns:xlink="http://www.w3.org/1999/xlink" version="1.1" viewBox="0 0 730 800">
   <path fill="currentColor"
d="M296.648 338.331l-36.3047 -22.124c-88.0264 -53.6406 -147.49 -86.5674 -170.255 -94.2725c-18.2383 -6.17383 -28.5693 -16.2109 -26.916 -26.1484c0.670898 -4.0332 2.03125 -8.19531 2.99316 -9.15723c2.96973 -2.96973 14.4219 -5.56836 29.0693 -6.59766
c16.6543 -1.1709 37.2471 -9.78613 62.1768 -26.0107c17.3125 -11.2676 21.7246 -9.88867 50.915 -45.7617c5.62598 -6.91504 38.4854 -45.5234 39.4238 -44.585c0.93457 0.93457 3.07031 11.1357 4.74414 22.668c5.40918 37.252 12.8516 65.9863 27.5801 106.484
c19.2637 52.9639 35.7314 68.168 64.5703 120.72c0 0 82.5625 94.7334 124.106 143.186c37.1738 2.66113 73.5908 5.33984 92.9922 6.96582c-1.03125 -104.247 -1.65137 -193.559 -1.65137 -193.559l-10.0273 -41.3154
c-24.3145 -100.174 -43.0791 -165.504 -53.7275 -187.049c-8.53125 -17.2617 -8.73926 -31.6641 -0.542969 -37.5225c3.32617 -2.37695 7.23145 -4.3584 8.5918 -4.3584c4.19922 0 14.1348 6.25977 25.2197 15.8896c12.6045 10.9482 33.2578 19.418 62.3584 25.5732
c20.209 4.27441 22.3535 8.36914 68.3604 3.64355c8.86816 -0.911133 59.4033 -4.97656 59.4033 -3.64941c0 1.32227 -5.70312 10.0449 -12.6738 19.3838c-22.5166 30.166 -37.5723 55.7471 -55.7939 94.7979c-23.8301 51.0723 -22.9355 73.4678 -39.7041 131.02
c0 0 -15.1748 501.07 -16.6611 505.098c-2.30078 6.2334 -6.22559 9.1377 -10.5703 9.00195c-5.6875 -0.177734 -12.0947 -5.56445 -16.5225 -15.5098c-2.26855 -5.09473 -4.33691 -155.022 -5.75879 -291.791c-12.5898 1.13672 -39.041 2.19824 -69.6074 3.12402
c-0.414062 0.682617 -0.921875 1.30371 -1.51367 1.86035c-4.14746 3.89648 -12.4863 4.61816 -22.6504 0.71582c-0.508789 -0.195312 -1.44043 -0.816406 -2.75098 -1.81934c-62.9072 1.65039 -130.951 2.70996 -130.951 2.70996l-41.3154 10.0273
c-100.174 24.3145 -165.504 43.0791 -187.049 53.7275c-17.2617 8.53125 -31.6641 8.73926 -37.5225 0.542969c-2.37695 -3.32617 -4.3584 -7.23145 -4.3584 -8.5918c0 -4.19922 6.25977 -14.1348 15.8896 -25.2197c10.9482 -12.6045 19.418 -33.2578 25.5732 -62.3584
c4.27441 -20.209 8.36914 -22.3535 3.64355 -68.3604c-0.911133 -8.86816 -4.97656 -59.4033 -3.64941 -59.4033c1.32227 0 10.0449 5.70312 19.3838 12.6738c30.166 22.5166 55.7471 37.5723 94.7979 55.7939c51.0723 23.8301 73.4678 22.9355 131.02 39.7041
c0 0 28.7119 1.9707 65.6309 4.56152c-50.6445 -47.5117 -119.966 -114.708 -119.966 -114.708z" />
</svg>
