<?xml version="1.0" standalone="no"?>
<!DOCTYPE svg PUBLIC "-//W3C//DTD SVG 1.1//EN" "http://www.w3.org/Graphics/SVG/1.1/DTD/svg11.dtd" >
<svg xmlns="http://www.w3.org/2000/svg" xmlns:xlink="http://www.w3.org/1999/xlink" version="1.1" viewBox="0 0 2310 894">
   <path fill="currentColor"
d="M1061.06 149.247c9.90625 -12.1133 27.5576 -6.38281 23.625 8.60352c-13.8916 52.9434 -79.998 134.799 -116.02 255.482c-29.1738 97.7432 24.9961 224.656 87.4512 307.098c35.8438 47.3125 75.3789 131.75 66.0547 141.074
c-3.80078 3.80273 -17.4707 -13.332 -30.5371 -38.2793c-13.0117 -24.8379 -53.6855 -76.1289 -90.3887 -113.979c-62.3594 -64.3086 -88.1055 -82.2109 -213.697 -148.596c-47.8047 -25.2676 -73.8838 -57.3984 -9.46289 -83.7461
c30.2852 -12.3867 140.34 -110.771 163.344 -129.905c44 -36.5967 50.6055 -113.348 119.631 -197.753zM337.112 744.431c-19.1475 2.02637 -28.5693 -16.2109 -26.916 -26.1494c0.416016 -2.50391 1.09863 -5.05859 1.78711 -6.86523
c-10.5859 -8.98438 -19.335 -16.7598 -19.335 -16.7598l-36.3047 -22.124c-88.0264 -53.6406 -147.49 -86.5674 -170.254 -94.2725c-18.2393 -6.17285 -28.5703 -16.21 -26.917 -26.1484c0.671875 -4.03223 2.03223 -8.19531 2.99414 -9.15723
c2.96875 -2.96875 14.4209 -5.56836 29.0684 -6.59668c16.6543 -1.17188 37.2471 -9.78711 62.1768 -26.0117c17.3125 -11.2676 21.7246 -9.8877 50.915 -45.7617c5.62598 -6.91504 38.4854 -45.5234 39.4238 -44.585c0.93457 0.935547 3.07031 11.1357 4.74414 22.668
c5.40918 37.2529 12.8516 65.9873 27.5801 106.485c19.2637 52.9639 35.7314 68.167 64.5703 120.72c0 0 7.37402 12.9844 14.8223 26.1973c34.0039 -21.1924 118.092 -88.9248 158.05 -119.382c-1.29395 -0.360352 -2.62598 -0.800781 -3.99023 -1.3252
c-9.63574 -3.69922 -54.2441 -43.3408 -54.2441 -43.3408l-36.3047 -22.124c-88.0264 -53.6406 -147.49 -86.5674 -170.255 -94.2725c-18.2383 -6.17285 -28.5693 -16.21 -26.916 -26.1484c0.670898 -4.03223 2.03125 -8.19531 2.99316 -9.15723
c2.96973 -2.96875 14.4219 -5.56836 29.0693 -6.59668c16.6543 -1.1709 37.2471 -9.78613 62.1768 -26.0117c17.3125 -11.2666 21.7246 -9.8877 50.9141 -45.7617c5.62695 -6.91406 38.4863 -45.5234 39.4248 -44.585c0.93457 0.935547 3.06934 11.1357 4.74414 22.6689
c5.40918 37.252 12.8516 65.9863 27.5801 106.484c19.2627 52.9639 35.7314 68.167 64.5693 120.72c0 0 28.2109 49.6709 30.0078 53.5693c0.177734 0.386719 0.341797 0.768555 0.491211 1.14551c20.9688 -15.1689 98.4697 -87.5059 126.633 -122.116
c2.76562 -3.40039 12.1152 -14.4609 21.0176 -24.7168c-2.84082 -0.34082 -5.95703 -1.12109 -9.2666 -2.3916c-9.63574 -3.69922 -54.2441 -43.3398 -54.2441 -43.3398l-36.3047 -22.124c-88.0264 -53.6416 -147.49 -86.5684 -170.255 -94.2725
c-18.2383 -6.17383 -28.5693 -16.2109 -26.916 -26.1484c0.670898 -4.0332 2.03125 -8.19531 2.99316 -9.15723c2.96973 -2.96973 14.4209 -5.56836 29.0693 -6.59766c16.6543 -1.1709 37.2471 -9.78613 62.1768 -26.0107
c17.3125 -11.2676 21.7246 -9.88867 50.9141 -45.7617c5.62695 -6.91504 38.4863 -45.5234 39.4238 -44.585c0.935547 0.93457 3.07031 11.1348 4.74512 22.668c5.40918 37.252 12.8516 65.9863 27.5801 106.484c19.2627 52.9639 35.7314 68.167 64.5693 120.72
c0 0 28.2109 49.6709 30.0078 53.5693c0.0712891 0.155273 0.140625 0.310547 0.207031 0.463867c2.14551 -2.26562 3.52441 -3.56641 3.70605 -3.38477c0.93457 0.93457 3.78418 11.0537 4.74414 22.668c13.5059 163.358 58.1191 308.339 143.37 457.551
c3.29688 5.76855 2.05957 10.8633 -1.1084 13.8398c-4.14746 3.89551 -15.8496 9.21582 -22.6504 0.71582c-75.999 -95.001 -391.413 -155.72 -487.078 -145.595zM1742.65 694.656l-36.3047 -22.124c-88.0264 -53.6406 -147.49 -86.5674 -170.254 -94.2725
c-18.2393 -6.17285 -28.5703 -16.21 -26.917 -26.1484c0.671875 -4.03223 2.03223 -8.19531 2.99414 -9.15723c2.96875 -2.96875 14.4209 -5.56836 29.0684 -6.59668c16.6543 -1.17188 37.2471 -9.78711 62.1768 -26.0117c17.3125 -11.2676 21.7246 -9.8877 50.915 -45.7617
c5.62598 -6.91504 38.4854 -45.5234 39.4238 -44.585c0.93457 0.935547 3.07031 11.1357 4.74414 22.668c5.40918 37.2529 12.8516 65.9873 27.5801 106.485c19.2637 52.9639 35.7314 68.167 64.5703 120.72c0 0 7.37402 12.9844 14.8223 26.1973
c34.0039 -21.1924 118.092 -88.9248 158.05 -119.382c-1.29395 -0.360352 -2.62598 -0.800781 -3.99023 -1.3252c-9.63574 -3.69922 -54.2441 -43.3408 -54.2441 -43.3408l-36.3047 -22.124c-88.0264 -53.6406 -147.49 -86.5674 -170.255 -94.2725
c-18.2383 -6.17285 -28.5693 -16.21 -26.916 -26.1484c0.670898 -4.03223 2.03125 -8.19531 2.99316 -9.15723c2.96973 -2.96875 14.4219 -5.56836 29.0693 -6.59668c16.6543 -1.1709 37.2471 -9.78613 62.1768 -26.0117c17.3125 -11.2666 21.7246 -9.8877 50.9141 -45.7617
c5.62695 -6.91406 38.4863 -45.5234 39.4248 -44.585c0.93457 0.935547 3.06934 11.1357 4.74414 22.6689c5.40918 37.252 12.8516 65.9863 27.5801 106.484c19.2627 52.9639 35.7314 68.167 64.5693 120.72c0 0 28.2109 49.6709 30.0078 53.5693
c0.177734 0.386719 0.341797 0.768555 0.491211 1.14551c20.9688 -15.1689 98.4697 -87.5059 126.633 -122.116c2.76562 -3.40039 12.1152 -14.4609 21.0176 -24.7168c-2.84082 -0.34082 -5.95703 -1.12109 -9.2666 -2.3916
c-9.63574 -3.69922 -54.2441 -43.3398 -54.2441 -43.3398l-36.3047 -22.124c-88.0264 -53.6416 -147.49 -86.5684 -170.255 -94.2725c-18.2383 -6.17383 -28.5693 -16.2109 -26.916 -26.1484c0.670898 -4.0332 2.03125 -8.19531 2.99316 -9.15723
c2.96973 -2.96973 14.4209 -5.56836 29.0693 -6.59766c16.6543 -1.1709 37.2471 -9.78613 62.1768 -26.0107c17.3125 -11.2676 21.7246 -9.88867 50.9141 -45.7617c5.62695 -6.91504 38.4863 -45.5234 39.4238 -44.585c0.935547 0.93457 3.07031 11.1348 4.74512 22.668
c5.40918 37.252 12.8516 65.9863 27.5801 106.484c19.2627 52.9639 35.7314 68.167 64.5693 120.72c0 0 28.2109 49.6709 30.0078 53.5693c0.0712891 0.155273 0.140625 0.310547 0.207031 0.463867c2.14551 -2.26562 3.52441 -3.56641 3.70605 -3.38477
c0.93457 0.93457 3.78418 11.0537 4.74414 22.668c13.5059 163.358 58.1191 308.339 143.37 457.551c3.29688 5.76855 2.05957 10.8633 -1.1084 13.8398c-4.14746 3.89551 -15.8496 9.21582 -22.6504 0.71582c-72.8281 -91.0371 -365.508 -150.593 -473.988 -146.495
c0.0380859 0.388672 0.0507812 0.782227 0.0390625 1.17871c-0.177734 5.6875 -5.56445 12.0947 -15.5098 16.5225c-9.42969 4.19824 -375.003 7.70996 -375.003 7.70996l-41.3154 10.0273c-100.174 24.3145 -165.504 43.0791 -187.049 53.7275
c-17.2617 8.53125 -31.6641 8.73926 -37.5225 0.542969c-2.37695 -3.32617 -4.3584 -7.23145 -4.3584 -8.5918c0 -4.19922 6.25977 -14.1348 15.8896 -25.2197c10.9482 -12.6045 19.418 -33.2578 25.5732 -62.3584c4.27441 -20.209 8.36914 -22.3535 3.64355 -68.3604
c-0.911133 -8.86816 -4.97656 -59.4033 -3.64941 -59.4033c1.32227 0 10.0449 5.70312 19.3838 12.6738c30.166 22.5166 55.7471 37.5723 94.7979 55.7939c51.0723 23.8301 73.4678 22.9355 131.02 39.7041c0 0 252.076 10.5938 337.335 14.9453
c-2.82227 -4.81836 -3.94434 -10.1494 -3.28027 -14.1416c0.416016 -2.50391 1.09863 -5.05859 1.78711 -6.86523c-10.5859 -8.98438 -19.335 -16.7598 -19.335 -16.7598zM1478.94 658.523l-36.3047 -22.124c-88.0264 -53.6406 -147.49 -86.5674 -170.255 -94.2725
c-18.2383 -6.17383 -28.5693 -16.2109 -26.916 -26.1484c0.670898 -4.0332 2.03125 -8.19531 2.99316 -9.15723c2.96973 -2.96973 14.4209 -5.56836 29.0684 -6.59766c10.6807 -0.750977 22.9824 -4.56348 37.0088 -11.4824
c-16.0176 -12.8193 -35.5947 -30.2178 -35.5947 -30.2178l-36.3047 -22.124c-88.0264 -53.6406 -147.49 -86.5674 -170.255 -94.2725c-18.2383 -6.17383 -28.5693 -16.2109 -26.916 -26.1484c0.670898 -4.0332 2.03125 -8.19531 2.99316 -9.15723
c2.96973 -2.96973 14.4209 -5.56836 29.0684 -6.59766c16.6543 -1.1709 37.248 -9.78613 62.1777 -26.0107c17.3125 -11.2676 21.7236 -9.88867 50.9141 -45.7617c5.62695 -6.91504 38.4854 -45.5234 39.4238 -44.585c0.935547 0.93457 3.07031 11.1348 4.74512 22.668
c5.40918 37.252 12.8516 65.9863 27.5801 106.484c19.2627 52.9639 35.7314 68.167 64.5693 120.72c0 0 11.4648 20.1865 20.2422 35.832c11.8838 -7.1377 18.9199 -10.9873 43.4395 -41.1191c5.62695 -6.91504 38.4854 -45.5234 39.4238 -44.585
c0.935547 0.93457 3.07031 11.1348 4.74512 22.668c5.40918 37.252 12.8516 65.9863 27.5801 106.484c19.2627 52.9639 35.7314 68.167 64.5693 120.72c0 0 28.2109 49.6709 30.0068 53.5693c2.78125 6.03516 2.05957 10.8643 -1.1084 13.8398
c-4.14746 3.89648 -12.4873 4.61816 -22.6504 0.716797c-9.63672 -3.69922 -54.2441 -43.3408 -54.2441 -43.3408zM932.286 408.84c0.388672 -0.288086 0.769531 -0.568359 1.14258 -0.839844c-0.389648 0.219727 -0.770508 0.5 -1.14258 0.839844zM1438.75 274.331
l-36.3047 -22.124c-88.0264 -53.6406 -147.49 -86.5674 -170.255 -94.2725c-18.2383 -6.17383 -28.5693 -16.2109 -26.916 -26.1484c0.670898 -4.0332 2.03125 -8.19531 2.99316 -9.15723c2.96973 -2.96973 14.4219 -5.56836 29.0693 -6.59766
c16.6543 -1.1709 37.2471 -9.78613 62.1768 -26.0107c17.3125 -11.2676 21.7246 -9.88867 50.915 -45.7617c5.62598 -6.91504 38.4854 -45.5234 39.4238 -44.585c0.93457 0.93457 3.07031 11.1357 4.74414 22.668c5.40918 37.252 12.8516 65.9863 27.5801 106.484
c19.2637 52.9639 35.7314 68.168 64.5703 120.72c0 0 145.59 167.051 147.387 170.949c2.78027 6.03516 2.05859 10.8643 -1.10938 13.8398c-4.14746 3.89648 -12.4863 4.61816 -22.6504 0.71582c-9.63574 -3.69824 -171.624 -160.72 -171.624 -160.72z" />
</svg>
