<?xml version="1.0" standalone="no"?>
<!DOCTYPE svg PUBLIC "-//W3C//DTD SVG 1.1//EN" "http://www.w3.org/Graphics/SVG/1.1/DTD/svg11.dtd" >
<svg xmlns="http://www.w3.org/2000/svg" xmlns:xlink="http://www.w3.org/1999/xlink" version="1.1" viewBox="0 0 1321 830">
   <path fill="currentColor"
d="M780.299 448.941l-41.3154 10.0273c-100.174 24.3145 -165.504 43.0791 -187.049 53.7275c-17.2617 8.53125 -31.6641 8.73926 -37.5225 0.542969c-2.37695 -3.32617 -4.3584 -7.23145 -4.3584 -8.5918c0 -4.19922 6.25977 -14.1348 15.8896 -25.2197
c10.9482 -12.6045 19.418 -33.2578 25.5732 -62.3584c4.27441 -20.209 8.36914 -22.3535 3.64355 -68.3604c-0.911133 -8.86816 -4.97656 -59.4033 -3.64941 -59.4033c1.32227 0 10.0449 5.70312 19.3838 12.6738c30.166 22.5166 55.7471 37.5723 94.7979 55.7939
c51.0723 23.8301 73.4678 22.9355 131.02 39.7041c0 0 90.8008 2.75 195.406 6.02344l-1.37793 -5.67773c-24.3145 -100.174 -43.0791 -165.504 -53.7275 -187.049c-8.53125 -17.2617 -8.73926 -31.6641 -0.542969 -37.5225
c3.32617 -2.37695 7.23145 -4.3584 8.5918 -4.3584c4.19922 0 14.1348 6.25977 25.2197 15.8896c12.6045 10.9482 33.2578 19.418 62.3584 25.5732c20.209 4.27441 22.3535 8.36914 68.3604 3.64355c8.86816 -0.911133 59.4033 -4.97656 59.4033 -3.64941
c0 1.32227 -5.70312 10.0449 -12.6738 19.3838c-22.5166 30.166 -37.5723 55.7471 -55.7939 94.7979c-15.5859 33.4033 -20.5947 54.5391 -26.8867 81.2666c119.795 3.80664 234.84 7.63086 236.761 8.33984c6.2334 2.30078 9.1377 6.22559 9.00195 10.5703
c-0.177734 5.6875 -5.56445 12.0947 -15.5098 16.5225c-4.46094 1.98633 -119.982 3.81934 -240.475 5.19824c-0.817383 2.94336 -1.68066 5.98047 -2.5957 9.12207c0 0 -3.75391 89.3145 -7.70996 179.597c126.829 4.00977 255.257 8.24023 257.288 8.99023
c6.2334 2.30078 9.1377 6.22559 9.00195 10.5703c-0.177734 5.6875 -5.56445 12.0947 -15.5098 16.5225c-4.61133 2.05273 -127.854 3.94141 -252.608 5.33594c-3.37109 75.8164 -6.48926 142.366 -7.12305 144.082c-2.30078 6.2334 -6.22559 9.1377 -10.5703 9.00195
c-5.6875 -0.177734 -12.0947 -5.56445 -16.5225 -15.5098c-1.6875 -3.79102 -3.26465 -65.1396 -4.54688 -137.156c-116.532 1.21191 -223.632 1.95605 -223.632 1.95605l-41.3154 10.0273c-100.174 24.3145 -165.504 43.0791 -187.049 53.7275
c-17.2617 8.53125 -31.6641 8.73926 -37.5225 0.542969c-2.37695 -3.32617 -4.3584 -7.23145 -4.3584 -8.5918c0 -4.19922 6.25977 -14.1348 15.8896 -25.2197c10.9482 -12.6045 19.418 -33.2578 25.5732 -62.3584c4.27441 -20.209 8.36914 -22.3535 3.64355 -68.3604
c-0.319336 -3.10449 -1.02441 -11.3145 -1.75 -20.6748c-54.1777 3.35449 -218.165 5.90723 -218.165 5.90723l-41.3154 10.0273c-100.174 24.3145 -165.504 43.0791 -187.049 53.7275c-17.2617 8.53125 -31.6641 8.73926 -37.5225 0.542969
c-2.37695 -3.32617 -4.3584 -7.23145 -4.3584 -8.5918c0 -4.19922 6.25977 -14.1348 15.8896 -25.2197c10.9482 -12.6045 19.418 -33.2578 25.5732 -62.3584c4.27441 -20.209 8.36914 -22.3535 3.64355 -68.3604c-0.911133 -8.86816 -4.97656 -59.4033 -3.64941 -59.4033
c1.32227 0 10.0449 5.70312 19.3838 12.6738c30.166 22.5166 55.7471 37.5723 94.7979 55.7939c51.0723 23.8301 73.4678 22.9355 131.02 39.7041c0 0 140.799 9.66504 199.712 14.3232c-0.185547 -4.56836 -0.178711 -7.49512 0.140625 -7.49512
c1.05566 0 6.82324 3.63184 13.8564 8.6416c6.76465 0.583008 10.8711 1 11.3887 1.19141c6.2334 2.30078 9.1377 6.22559 9.00195 10.5703c-0.0273438 0.883789 -0.180664 1.78418 -0.457031 2.69238c24.4199 17.0664 47.6807 30.1084 80.3916 45.3721
c51.0723 23.8301 73.4678 22.9355 131.02 39.7041c0 0 97.3057 2.94727 206.501 6.37109c-1.24609 -79.9531 -2.11133 -161.631 -2.36719 -186.831c-115.33 1.19336 -220.547 1.92383 -220.547 1.92383zM780.299 158.941l-41.3154 10.0273
c-100.174 24.3145 -165.504 43.0791 -187.049 53.7275c-17.2617 8.53125 -31.6641 8.73926 -37.5225 0.542969c-2.37695 -3.32617 -4.3584 -7.23145 -4.3584 -8.5918c0 -4.19922 6.25977 -14.1348 15.8896 -25.2197c10.9482 -12.6045 19.418 -33.2578 25.5732 -62.3584
c4.27441 -20.209 8.36914 -22.3535 3.64355 -68.3604c-0.911133 -8.86816 -4.97656 -59.4033 -3.64941 -59.4033c1.32227 0 10.0449 5.70312 19.3838 12.6738c30.166 22.5166 55.7471 37.5723 94.7979 55.7939c51.0723 23.8301 73.4678 22.9355 131.02 39.7041
c0 0 501.07 15.1748 505.098 16.6611c6.2334 2.30078 9.1377 6.22559 9.00195 10.5703c-0.177734 5.6875 -5.56445 12.0947 -15.5098 16.5225c-9.42969 4.19824 -515.003 7.70996 -515.003 7.70996zM335.245 273.941l-41.3154 10.0273
c-100.174 24.3145 -165.504 43.0791 -187.049 53.7275c-17.2617 8.53125 -31.6641 8.73926 -37.5225 0.542969c-2.37695 -3.32617 -4.3584 -7.23145 -4.3584 -8.5918c0 -4.19922 6.25977 -14.1348 15.8896 -25.2197c10.9482 -12.6045 19.418 -33.2578 25.5732 -62.3584
c4.27441 -20.209 8.36914 -22.3535 3.64355 -68.3604c-0.911133 -8.86816 -4.97656 -59.4033 -3.64941 -59.4033c1.32227 0 10.0449 5.70312 19.3838 12.6738c30.166 22.5166 55.7471 37.5723 94.7979 55.7939c51.0723 23.8301 73.4678 22.9355 131.02 39.7041
c0 0 221.07 15.1748 225.098 16.6611c6.2334 2.30078 9.1377 6.22559 9.00195 10.5703c-0.177734 5.6875 -5.56445 12.0947 -15.5098 16.5225c-9.42969 4.19824 -235.003 7.70996 -235.003 7.70996z" />
</svg>
