<?xml version="1.0" standalone="no"?>
<!DOCTYPE svg PUBLIC "-//W3C//DTD SVG 1.1//EN" "http://www.w3.org/Graphics/SVG/1.1/DTD/svg11.dtd" >
<svg xmlns="http://www.w3.org/2000/svg" xmlns:xlink="http://www.w3.org/1999/xlink" version="1.1" viewBox="0 0 1524 940">
   <path fill="currentColor"
d="M1046.21 562.524c-11.2295 -9.0791 -6.55371 -23.748 -0.407227 -28.1416c1.5498 -1.10645 3.2666 -2.09961 4.58887 -2.69336c-0.848633 -10.3779 -1.36523 -19.1416 -1.36523 -19.1416l-7.52051 -30.9863c-18.2354 -75.1309 -32.3096 -124.128 -40.2959 -140.287
c-6.39844 -12.9463 -6.55371 -23.748 -0.407227 -28.1416c2.49512 -1.78223 5.42383 -3.26855 6.44434 -3.26855c3.14941 0 10.6006 4.69434 18.915 11.917c8.85156 7.68848 22.9951 13.7471 42.6768 18.2764c-0.141602 -0.300781 -0.282227 -0.606445 -0.419922 -0.916016
c-4.19824 -9.42969 -7.70996 -69.0029 -7.70996 -69.0029l-10.0273 -41.3154c-24.3145 -100.174 -43.0791 -165.504 -53.7275 -187.049c-8.53125 -17.2617 -8.73926 -31.6641 -0.542969 -37.5225c3.32617 -2.37695 7.23145 -4.3584 8.5918 -4.3584
c4.19922 0 14.1348 6.25977 25.2197 15.8896c12.6045 10.9482 33.2578 19.418 62.3584 25.5732c20.209 4.27441 22.3535 8.36914 68.3604 3.64355c8.86816 -0.911133 59.4033 -4.97656 59.4033 -3.64941c0 1.32227 -5.70312 10.0449 -12.6738 19.3838
c-22.5166 30.166 -37.5723 55.7471 -55.7939 94.7979c-23.8301 51.0723 -22.9355 73.4678 -39.7041 131.02c0 0 -14.3311 52.0068 -16.5029 58.6377c6.24219 0.279297 14.7705 -0.0820312 28.5312 -1.49512c6.65039 -0.683594 44.5518 -3.73242 44.5518 -2.7373
c0 0.991211 -4.27734 7.5332 -9.50488 14.5381c-16.8877 22.624 -28.1797 41.8096 -41.8457 71.0977c-17.8721 38.3047 -17.2012 55.1016 -29.7783 98.2646c0 0 -2.97559 10.7969 -6.03223 21.7539c29.2715 6.79492 109.787 15.4688 147.13 20.5068
c-0.494141 -0.876953 -0.966797 -1.81641 -1.41309 -2.81836c-3.14844 -7.07227 -5.78223 -51.752 -5.78223 -51.752l-7.52051 -30.9863c-18.2354 -75.1309 -32.3096 -124.128 -40.2959 -140.287c-6.39844 -12.9463 -6.55371 -23.748 -0.407227 -28.1416
c2.49512 -1.78223 5.42383 -3.26855 6.44434 -3.26855c3.14941 0 10.6006 4.69434 18.915 11.917c9.45312 8.21094 24.9434 14.5635 46.7686 19.1797c15.1562 3.20605 16.7646 6.27734 51.2705 2.7334c0.836914 -0.0859375 2.16797 -0.208984 3.85547 -0.357422
c-0.75 -1.29297 -1.46484 -2.69238 -2.13379 -4.19531c-4.19824 -9.42969 -7.70996 -69.0029 -7.70996 -69.0029l-10.0273 -41.3154c-24.3145 -100.174 -43.0791 -165.504 -53.7275 -187.049c-8.53125 -17.2617 -8.73926 -31.6641 -0.542969 -37.5225
c3.32617 -2.37695 7.23145 -4.3584 8.5918 -4.3584c4.19922 0 14.1348 6.25977 25.2197 15.8896c12.6045 10.9482 33.2578 19.418 62.3584 25.5732c20.209 4.27441 22.3535 8.36914 68.3604 3.64355c8.86816 -0.911133 59.4033 -4.97656 59.4033 -3.64941
c0 1.32227 -5.70312 10.0449 -12.6738 19.3838c-22.5166 30.166 -37.5723 55.7471 -55.7939 94.7979c-23.8301 51.0723 -22.9355 73.4678 -39.7041 131.02c0 0 -11.2705 40.9004 -15.3369 54.7832c8.00684 -0.512695 14.4131 -0.787109 14.4131 -0.37793
c0 0.991211 -4.27734 7.5332 -9.50488 14.5381c-16.8877 22.624 -28.1797 41.8096 -41.8457 71.0977c-17.8721 38.3047 -17.2012 55.1016 -29.7783 98.2646c0 0 -11.3809 41.3027 -12.4951 44.3232c-0.110352 0.299805 -0.226562 0.588867 -0.34668 0.868164
c19.165 3.07617 98.6279 5.81445 131.919 2.39551c3.26953 -0.335938 14.0947 -1.24414 24.2549 -1.96191c-1.32715 -1.6875 -2.56543 -3.75391 -3.64746 -6.18262c-3.14844 -7.07227 -5.78223 -51.752 -5.78223 -51.752l-7.52051 -30.9863
c-18.2354 -75.1309 -32.3096 -124.128 -40.2959 -140.287c-6.39844 -12.9463 -6.55371 -23.748 -0.407227 -28.1416c2.49512 -1.78223 5.42383 -3.26855 6.44434 -3.26855c3.14941 0 10.6006 4.69434 18.915 11.917c9.45312 8.21094 24.9434 14.5635 46.7686 19.1797
c15.1562 3.20605 16.7646 6.27734 51.2705 2.7334c6.65039 -0.683594 44.5518 -3.73242 44.5518 -2.7373c0 0.991211 -4.27734 7.5332 -9.50488 14.5381c-16.8877 22.624 -28.1797 41.8096 -41.8457 71.0977c-17.8721 38.3047 -17.2012 55.1016 -29.7783 98.2646
c0 0 -11.3809 41.3027 -12.4951 44.3232c-0.0449219 0.120117 -0.0898438 0.239258 -0.135742 0.356445c2.33887 -0.0634766 3.75977 -0.0224609 3.75977 0.169922c0 0.991211 -3.85547 7.86914 -9.50488 14.5381c-79.4717 93.7959 -132.699 194.344 -166.619 318.686
c-1.31152 4.80762 -4.66992 6.85352 -7.92773 6.75195c-4.26562 -0.133789 -13.2939 -3.51758 -12.3926 -11.6328c10.0781 -90.6855 -124.995 -290.16 -181.099 -335.525zM830.714 550.139l-10.0273 -41.3154c-1.04395 -4.30176 -2.07812 -8.53809 -3.10156 -12.7109
c-0.748047 0.385742 -1.52734 0.758789 -2.33691 1.11914c-9.42969 4.19824 -375.003 7.70996 -375.003 7.70996l-41.3154 10.0273c-50.7695 12.3232 -92.5889 23.2197 -124.294 32.3574c15.125 8.91699 31.3594 17.2812 51.0029 26.4473
c51.0723 23.8301 73.4678 22.9355 131.02 39.7041c0 0 361.07 15.1748 365.098 16.6611c6.2334 2.30078 9.1377 6.22559 9.00195 10.5703c-0.177734 5.6875 -5.56445 12.0947 -15.5098 16.5225c-9.42969 4.19824 -375.003 7.70996 -375.003 7.70996l-41.3154 10.0273
c-94.6602 22.9766 -158.207 40.9971 -183.095 51.8965c50.9336 23.7363 73.3447 22.8652 130.823 39.6123c0 0 397.08 12.0254 487.116 15.7148c-1.84961 -105.982 -3.06055 -232.054 -3.06055 -232.054zM882.178 566.552c0 0 -15.1748 361.07 -16.6611 365.098
c-2.30078 6.2334 -6.22559 9.1377 -10.5703 9.00195c-5.6875 -0.177734 -12.0947 -5.56445 -16.5225 -15.5098c-1.50293 -3.37598 -2.91797 -52.3896 -4.11523 -113.934c-74.8682 3.75195 -504.063 6.7334 -504.063 6.7334l-41.3154 10.0273
c-100.174 24.3145 -165.504 43.0791 -187.049 53.7275c-17.2617 8.53125 -31.6641 8.73926 -37.5225 0.542969c-2.37695 -3.32617 -4.3584 -7.23145 -4.3584 -8.5918c0 -4.19922 6.25977 -14.1348 15.8896 -25.2197c10.9482 -12.6045 19.418 -33.2578 25.5732 -62.3584
c4.27441 -20.209 8.36914 -22.3535 3.64355 -68.3604c-0.911133 -8.86816 -4.97656 -59.4033 -3.64941 -59.4033c1.32227 0 10.0449 5.70312 19.3838 12.6738c18.918 14.1211 36.0332 25.3076 55.7979 36.1807c2.50879 -3.58887 5.64355 -7.58008 9.25098 -11.7324
c10.9482 -12.6045 19.418 -33.2578 25.5732 -62.3584c4.2002 -19.8564 8.22559 -22.2734 3.88281 -65.9893c-1.25781 0.557617 -2.41406 1.09668 -3.46484 1.61621c-17.2617 8.53125 -31.6641 8.73926 -37.5225 0.542969
c-2.37695 -3.32617 -4.3584 -7.23145 -4.3584 -8.5918c0 -4.19922 6.25977 -14.1348 15.8896 -25.2197c10.9482 -12.6045 19.418 -33.2578 25.5732 -62.3584c4.2002 -19.8564 8.22559 -22.2734 3.88281 -65.9893c-1.25781 0.557617 -2.41406 1.09668 -3.46484 1.61621
c-17.2617 8.53125 -31.6641 8.73926 -37.5225 0.542969c-2.37695 -3.32617 -4.3584 -7.23145 -4.3584 -8.5918c0 -4.19922 6.25977 -14.1348 15.8896 -25.2197c10.9482 -12.6045 19.418 -33.2578 25.5732 -62.3584c4.2002 -19.8564 8.22559 -22.2734 3.88281 -65.9893
c-1.25781 0.557617 -2.41406 1.09668 -3.46484 1.61621c-17.2617 8.53125 -31.6641 8.73926 -37.5225 0.542969c-2.37695 -3.32617 -4.3584 -7.23145 -4.3584 -8.5918c0 -4.19922 6.25977 -14.1348 15.8896 -25.2197c10.9482 -12.6045 19.418 -33.2578 25.5732 -62.3584
c4.27441 -20.209 8.36914 -22.3535 3.64355 -68.3604c-0.911133 -8.86816 -4.97656 -59.4033 -3.64941 -59.4033c1.32227 0 10.0449 5.70312 19.3838 12.6738c30.166 22.5166 55.7471 37.5723 94.7979 55.7939c51.0723 23.8301 73.4678 22.9355 131.02 39.7041
c0 0 265.785 11.1699 343.83 15.2822c-14.583 -55.1709 -26.0557 -91.8633 -33.5293 -106.985c-8.53125 -17.2617 -8.73926 -31.6641 -0.542969 -37.5225c3.32617 -2.37695 7.23145 -4.3584 8.5918 -4.3584c4.19922 0 14.1348 6.25977 25.2197 15.8896
c12.6045 10.9482 33.2578 19.418 62.3584 25.5732c20.209 4.27441 22.3535 8.36914 68.3604 3.64355c8.86816 -0.911133 59.4033 -4.97656 59.4033 -3.64941c0 1.32227 -5.70312 10.0449 -12.6738 19.3838c-22.5166 30.166 -37.5723 55.7471 -55.7939 94.7979
c-23.8301 51.0723 -22.9355 73.4678 -39.7041 131.02c0 0 -5.55859 20.1738 -10.2773 36.9941c13.002 3.25195 21.1221 5.34961 59.0459 1.4541c8.86816 -0.911133 59.4033 -4.97656 59.4033 -3.64941c0 1.32227 -5.70312 10.0449 -12.6738 19.3838
c-22.5166 30.166 -37.5723 55.7471 -55.7939 94.7979c-23.8301 51.0723 -22.9355 73.4678 -39.7041 131.02zM440.245 184.941l-41.3154 10.0273c-50.7695 12.3232 -92.5889 23.2197 -124.294 32.3574c15.125 8.91699 31.3594 17.2812 51.0029 26.4473
c51.0723 23.8301 73.4678 22.9355 131.02 39.7041c0 0 201.076 8.4502 304.796 13.3574c-2.36035 -10.3682 -0.71582 -18.5254 4.96191 -22.583c3.32617 -2.37695 7.23145 -4.3584 8.5918 -4.3584c4.19922 0 14.1348 6.25977 25.2197 15.8896
c8.02539 6.97168 19.3154 12.9375 33.9707 17.9414c-2.08691 -19.873 -3.48438 -43.5859 -3.48438 -43.5859l-10.0273 -41.3154c-4.38184 -18.0518 -8.58301 -34.9717 -12.5889 -50.708c-52.4053 3.7959 -367.853 6.82617 -367.853 6.82617zM456.658 453.478
c0 0 293.688 12.3428 354.277 15.8555c-15.1025 -60.0439 -27.5986 -104.164 -36.7363 -129.736c-97.4707 3.07324 -333.954 5.34473 -333.954 5.34473l-41.3154 10.0273c-50.7695 12.3232 -92.5889 23.2197 -124.294 32.3574
c15.125 8.91699 31.3594 17.2812 51.0029 26.4473c51.0723 23.8301 73.4678 22.9355 131.02 39.7041z" />
</svg>
