<?xml version="1.0" standalone="no"?>
<!DOCTYPE svg PUBLIC "-//W3C//DTD SVG 1.1//EN" "http://www.w3.org/Graphics/SVG/1.1/DTD/svg11.dtd" >
<svg xmlns="http://www.w3.org/2000/svg" xmlns:xlink="http://www.w3.org/1999/xlink" version="1.1" viewBox="0 0 1476 810">
   <path fill="currentColor"
d="M1002.83 443.774l-30.9863 7.52051c-75.1309 18.2363 -124.128 32.3096 -140.287 40.2959c-12.9463 6.39844 -23.748 6.55469 -28.1416 0.407227c-1.78223 -2.49414 -3.26855 -5.42383 -3.26855 -6.44336c0 -3.14941 4.69434 -10.6016 11.917 -18.915
c8.21094 -9.45312 14.5635 -24.9434 19.1797 -46.7686c3.20605 -15.1572 6.27734 -16.7656 2.7334 -51.2705c-0.683594 -6.65137 -3.73242 -44.5527 -2.7373 -44.5527c0.991211 0 7.5332 4.27734 14.5381 9.50586c22.624 16.8867 41.8096 28.1787 71.0977 41.8447
c38.3047 17.873 55.1016 17.2021 98.2646 29.7783c0 0 20.7559 0.628906 52.5518 1.60449c-0.482422 -54.1826 -0.759766 -94.1084 -0.759766 -94.1084l-7.52051 -30.9863c-18.2354 -75.1309 -32.3096 -124.128 -40.2959 -140.287
c-6.39844 -12.9463 -6.55371 -23.748 -0.407227 -28.1416c2.49512 -1.7832 5.42383 -3.26855 6.44434 -3.26855c3.14941 0 10.6006 4.69434 18.915 11.917c9.45312 8.21094 24.9434 14.5635 46.7686 19.1797c15.1562 3.20605 16.7646 6.27734 51.2705 2.73242
c6.65039 -0.682617 44.5518 -3.73242 44.5518 -2.73633c0 0.991211 -4.27734 7.5332 -9.50488 14.5371c-16.8877 22.625 -28.1797 41.8105 -41.8457 71.0986c-17.8721 38.3047 -17.2012 55.1006 -29.7783 98.2646c0 0 -1.04785 34.5996 -2.53906 82.8867
c61.3066 1.89453 142.769 4.44531 203.906 6.48242c-0.74707 -81.584 -1.18164 -144.213 -1.18164 -144.213l-10.0273 -41.3154c-24.3145 -100.174 -43.0791 -165.504 -53.7275 -187.049c-8.53125 -17.2617 -8.73926 -31.6641 -0.542969 -37.5225
c3.32617 -2.37695 7.23145 -4.3584 8.5918 -4.3584c4.19922 0 14.1348 6.25977 25.2197 15.8896c12.6045 10.9482 33.2578 19.418 62.3584 25.5732c20.209 4.27441 22.3535 8.36914 68.3604 3.64355c8.86816 -0.911133 59.4033 -4.97656 59.4033 -3.64941
c0 1.32227 -5.70312 10.0449 -12.6738 19.3838c-22.5166 30.166 -37.5723 55.7471 -55.7939 94.7979c-23.8301 51.0723 -22.9355 73.4678 -39.7041 131.02c0 0 -1.67578 55.3408 -3.96875 129.387c24.5508 0.874023 40.1475 1.51074 40.7529 1.73438
c4.67578 1.72559 6.85352 4.66895 6.75195 7.92773c-0.133789 4.26562 -4.17383 9.07129 -11.6328 12.3916c-1.29297 0.575195 -15.0264 1.13379 -36.6074 1.66211c-4.58984 147.714 -11.0166 349.445 -11.957 351.995c-2.30078 6.2334 -6.22559 9.1377 -10.5703 9.00195
c-5.6875 -0.177734 -12.0947 -5.56445 -16.5225 -15.5098c-2.56543 -5.76367 -4.875 -196.857 -6.2832 -344.588c-59.9785 1.00195 -141.618 1.84473 -205.238 2.41699c-3.43555 110.479 -8.1709 258.941 -8.86914 260.835
c-1.72559 4.6748 -4.66992 6.85352 -7.92773 6.75195c-4.26562 -0.133789 -9.07129 -4.17383 -12.3926 -11.6328c-1.9082 -4.28613 -3.62695 -145.261 -4.68555 -255.66c-38.8887 0.327148 -65.1982 0.509766 -65.1982 0.509766zM735.714 280.139l-1.57617 -6.49414
c-47.1016 3.54492 -223.893 6.29688 -223.893 6.29688l-41.3154 10.0273c-100.174 24.3145 -165.504 43.0791 -187.049 53.7275c-17.2617 8.53125 -31.6641 8.73926 -37.5225 0.542969c-2.37695 -3.32617 -4.3584 -7.23145 -4.3584 -8.5918
c0 -4.19922 6.25977 -14.1348 15.8896 -25.2197c10.9482 -12.6045 19.418 -33.2578 25.5732 -62.3584c4.27441 -20.209 8.36914 -22.3535 3.64355 -68.3604c-0.911133 -8.86816 -4.97656 -59.4033 -3.64941 -59.4033c1.32227 0 10.0449 5.70312 19.3838 12.6738
c30.166 22.5166 55.7471 37.5723 94.7979 55.7939c51.0723 23.8301 73.4678 22.9355 131.02 39.7041c0 0 141.258 9.69629 199.999 14.3467l-0.970703 -4.00098c-24.3145 -100.174 -43.0791 -165.504 -53.7275 -187.049
c-8.53125 -17.2617 -8.73926 -31.6641 -0.542969 -37.5225c3.32617 -2.37695 7.23145 -4.3584 8.5918 -4.3584c4.19922 0 14.1348 6.25977 25.2197 15.8896c12.6045 10.9482 33.2578 19.418 62.3584 25.5732c20.209 4.27441 22.3535 8.36914 68.3604 3.64355
c8.86816 -0.911133 59.4033 -4.97656 59.4033 -3.64941c0 1.32227 -5.70312 10.0449 -12.6738 19.3838c-22.5166 30.166 -37.5723 55.7471 -55.7939 94.7979c-23.8301 51.0723 -22.9355 73.4678 -39.7041 131.02c0 0 -15.1748 501.07 -16.6611 505.098
c-2.30078 6.2334 -6.22559 9.1377 -10.5703 9.00195c-5.6875 -0.177734 -12.0947 -5.56445 -16.5225 -15.5098c-1.48535 -3.33594 -2.88477 -68.7695 -4.07324 -151.946c-37.1953 3.75879 -229.105 6.74609 -229.105 6.74609l-41.3154 10.0273
c-100.174 24.3145 -165.504 43.0791 -187.049 53.7275c-17.2617 8.53125 -31.6641 8.73926 -37.5225 0.542969c-2.37695 -3.32617 -4.3584 -7.23145 -4.3584 -8.5918c0 -4.19922 6.25977 -14.1348 15.8896 -25.2197c10.9482 -12.6045 19.418 -33.2578 25.5732 -62.3584
c4.27441 -20.209 8.36914 -22.3535 3.64355 -68.3604c-0.911133 -8.86816 -4.97656 -59.4033 -3.64941 -59.4033c1.32227 0 10.0449 5.70312 19.3838 12.6738c30.166 22.5166 55.7471 37.5723 94.7979 55.7939c51.0723 23.8301 73.4678 22.9355 131.02 39.7041
c0 0 164.515 11.293 212.291 15.3486c-1.94824 -148.339 -3.23535 -333.688 -3.23535 -333.688zM330.245 459.941l-41.3154 10.0273c-100.174 24.3145 -165.504 43.0791 -187.049 53.7275c-17.2617 8.53125 -31.6641 8.73926 -37.5225 0.542969
c-2.37695 -3.32617 -4.3584 -7.23145 -4.3584 -8.5918c0 -4.19922 6.25977 -14.1348 15.8896 -25.2197c10.9482 -12.6045 19.418 -33.2578 25.5732 -62.3584c4.27441 -20.209 8.36914 -22.3535 3.64355 -68.3604c-0.911133 -8.86816 -4.97656 -59.4033 -3.64941 -59.4033
c1.32227 0 10.0449 5.70312 19.3838 12.6738c30.166 22.5166 55.7471 37.5723 94.7979 55.7939c51.0723 23.8301 73.4678 22.9355 131.02 39.7041c0 0 55.0703 15.1748 59.0977 16.6611c6.2334 2.30078 9.1377 6.22559 9.00195 10.5703
c-0.177734 5.6875 -5.56445 12.0947 -15.5098 16.5225c-9.42969 4.19824 -69.0029 7.70996 -69.0029 7.70996z" />
</svg>
