<?xml version="1.0" standalone="no"?>
<!DOCTYPE svg PUBLIC "-//W3C//DTD SVG 1.1//EN" "http://www.w3.org/Graphics/SVG/1.1/DTD/svg11.dtd" >
<svg xmlns="http://www.w3.org/2000/svg" xmlns:xlink="http://www.w3.org/1999/xlink" version="1.1" viewBox="0 0 1446 800">
   <path fill="currentColor"
d="M930.685 302.673l-7.52051 -30.9863c-18.2354 -75.1309 -32.3096 -124.128 -40.2959 -140.287c-6.39844 -12.9463 -6.55371 -23.748 -0.407227 -28.1416c2.49512 -1.7832 5.42383 -3.26855 6.44434 -3.26855c3.14941 0 10.6006 4.69434 18.915 11.917
c9.45312 8.21094 24.9434 14.5635 46.7686 19.1797c15.1562 3.20605 16.7646 6.27734 51.2705 2.73242c6.65039 -0.682617 44.5518 -3.73242 44.5518 -2.73633c0 0.991211 -4.27734 7.5332 -9.50488 14.5371c-16.8877 22.625 -28.1797 41.8105 -41.8457 71.0986
c-17.8721 38.3047 -17.2012 55.1006 -29.7783 98.2646c0 0 -11.3809 375.803 -12.4951 378.823c-1.72559 4.6748 -4.66992 6.85352 -7.92773 6.75195c-4.26562 -0.133789 -9.07129 -4.17383 -12.3926 -11.6328c-3.14844 -7.07227 -5.78223 -386.252 -5.78223 -386.252z
M1103.18 302.673l-7.52051 -30.9863c-18.2354 -75.1309 -32.3096 -124.128 -40.2959 -140.287c-6.39844 -12.9463 -6.55371 -23.748 -0.407227 -28.1416c2.49512 -1.7832 5.42383 -3.26855 6.44434 -3.26855c3.14941 0 10.6006 4.69434 18.915 11.917
c9.45312 8.21094 24.9434 14.5635 46.7686 19.1797c15.1562 3.20605 16.7646 6.27734 51.2705 2.73242c6.65039 -0.682617 44.5518 -3.73242 44.5518 -2.73633c0 0.991211 -4.27734 7.5332 -9.50488 14.5371c-16.8877 22.625 -28.1797 41.8105 -41.8457 71.0986
c-17.8721 38.3047 -17.2012 55.1006 -29.7783 98.2646c0 0 -11.3809 375.803 -12.4951 378.823c-1.72559 4.6748 -4.66992 6.85352 -7.92773 6.75195c-4.26562 -0.133789 -9.07129 -4.17383 -12.3926 -11.6328c-3.14844 -7.07227 -5.78223 -386.252 -5.78223 -386.252z
M1275.72 270.139l-10.0273 -41.3154c-24.3145 -100.174 -43.0791 -165.504 -53.7275 -187.049c-8.53125 -17.2617 -8.73926 -31.6641 -0.542969 -37.5225c3.32617 -2.37695 7.23145 -4.3584 8.5918 -4.3584c4.19922 0 14.1348 6.25977 25.2197 15.8896
c12.6045 10.9482 33.2578 19.418 62.3584 25.5732c20.209 4.27441 22.3535 8.36914 68.3604 3.64355c8.86816 -0.911133 59.4033 -4.97656 59.4033 -3.64941c0 1.32227 -5.70312 10.0449 -12.6738 19.3838c-22.5166 30.166 -37.5723 55.7471 -55.7939 94.7979
c-23.8301 51.0723 -22.9355 73.4678 -39.7041 131.02c0 0 -15.1748 501.07 -16.6611 505.098c-2.30078 6.2334 -6.22559 9.1377 -10.5703 9.00195c-5.6875 -0.177734 -12.0947 -5.56445 -16.5225 -15.5098c-4.19824 -9.42969 -7.70996 -515.003 -7.70996 -515.003z
M735.714 270.139l-1.57617 -6.49414c-47.1016 3.54492 -223.893 6.29688 -223.893 6.29688l-41.3154 10.0273c-100.174 24.3145 -165.504 43.0791 -187.049 53.7275c-17.2617 8.53125 -31.6641 8.73926 -37.5225 0.542969
c-2.37695 -3.32617 -4.3584 -7.23145 -4.3584 -8.5918c0 -4.19922 6.25977 -14.1348 15.8896 -25.2197c10.9482 -12.6045 19.418 -33.2578 25.5732 -62.3584c4.27441 -20.209 8.36914 -22.3535 3.64355 -68.3604c-0.911133 -8.86816 -4.97656 -59.4033 -3.64941 -59.4033
c1.32227 0 10.0449 5.70312 19.3838 12.6738c30.166 22.5166 55.7471 37.5723 94.7979 55.7939c51.0723 23.8301 73.4678 22.9355 131.02 39.7041c0 0 141.258 9.69629 199.999 14.3467l-0.970703 -4.00098c-24.3145 -100.174 -43.0791 -165.504 -53.7275 -187.049
c-8.53125 -17.2617 -8.73926 -31.6641 -0.542969 -37.5225c3.32617 -2.37695 7.23145 -4.3584 8.5918 -4.3584c4.19922 0 14.1348 6.25977 25.2197 15.8896c12.6045 10.9482 33.2578 19.418 62.3584 25.5732c20.209 4.27441 22.3535 8.36914 68.3604 3.64355
c8.86816 -0.911133 59.4033 -4.97656 59.4033 -3.64941c0 1.32227 -5.70312 10.0449 -12.6738 19.3838c-22.5166 30.166 -37.5723 55.7471 -55.7939 94.7979c-23.8301 51.0723 -22.9355 73.4678 -39.7041 131.02c0 0 -15.1748 501.07 -16.6611 505.098
c-2.30078 6.2334 -6.22559 9.1377 -10.5703 9.00195c-5.6875 -0.177734 -12.0947 -5.56445 -16.5225 -15.5098c-1.48535 -3.33594 -2.88477 -68.7695 -4.07324 -151.946c-37.1953 3.75879 -229.105 6.74609 -229.105 6.74609l-41.3154 10.0273
c-100.174 24.3145 -165.504 43.0791 -187.049 53.7275c-17.2617 8.53125 -31.6641 8.73926 -37.5225 0.542969c-2.37695 -3.32617 -4.3584 -7.23145 -4.3584 -8.5918c0 -4.19922 6.25977 -14.1348 15.8896 -25.2197c10.9482 -12.6045 19.418 -33.2578 25.5732 -62.3584
c4.27441 -20.209 8.36914 -22.3535 3.64355 -68.3604c-0.911133 -8.86816 -4.97656 -59.4033 -3.64941 -59.4033c1.32227 0 10.0449 5.70312 19.3838 12.6738c30.166 22.5166 55.7471 37.5723 94.7979 55.7939c51.0723 23.8301 73.4678 22.9355 131.02 39.7041
c0 0 164.515 11.293 212.291 15.3486c-1.94824 -148.339 -3.23535 -333.688 -3.23535 -333.688zM330.245 449.941l-41.3154 10.0273c-100.174 24.3145 -165.504 43.0791 -187.049 53.7275c-17.2617 8.53125 -31.6641 8.73926 -37.5225 0.542969
c-2.37695 -3.32617 -4.3584 -7.23145 -4.3584 -8.5918c0 -4.19922 6.25977 -14.1348 15.8896 -25.2197c10.9482 -12.6045 19.418 -33.2578 25.5732 -62.3584c4.27441 -20.209 8.36914 -22.3535 3.64355 -68.3604c-0.911133 -8.86816 -4.97656 -59.4033 -3.64941 -59.4033
c1.32227 0 10.0449 5.70312 19.3838 12.6738c30.166 22.5166 55.7471 37.5723 94.7979 55.7939c51.0723 23.8301 73.4678 22.9355 131.02 39.7041c0 0 55.0703 15.1748 59.0977 16.6611c6.2334 2.30078 9.1377 6.22559 9.00195 10.5703
c-0.177734 5.6875 -5.56445 12.0947 -15.5098 16.5225c-9.42969 4.19824 -69.0029 7.70996 -69.0029 7.70996z" />
</svg>
