<?xml version="1.0" standalone="no"?>
<!DOCTYPE svg PUBLIC "-//W3C//DTD SVG 1.1//EN" "http://www.w3.org/Graphics/SVG/1.1/DTD/svg11.dtd" >
<svg xmlns="http://www.w3.org/2000/svg" xmlns:xlink="http://www.w3.org/1999/xlink" version="1.1" viewBox="0 0 1856 800">
   <path fill="currentColor"
d="M1327.01 193.258c5.94336 -7.26758 16.5342 -3.8291 14.1748 5.16211c-2.24219 8.54492 -6.75098 18.3447 -12.5654 29.5146c79.8574 2.48047 187.712 5.90527 209.845 6.9873c-6.91309 -25.1084 -12.4287 -42.0654 -16.2256 -49.7471
c-5.11816 -10.3574 -5.24316 -18.999 -0.325195 -22.5137c1.99512 -1.42578 4.33887 -2.61523 5.1543 -2.61523c2.51953 0 8.48145 3.75586 15.1318 9.53418c7.56348 6.56836 19.9551 11.6504 37.415 15.3438c12.126 2.56445 13.4121 5.02148 41.0166 2.18652
c5.32129 -0.546875 35.6416 -2.98633 35.6416 -2.19043c0 0.793945 -3.42188 6.02734 -7.60352 11.6309c-13.5107 18.0996 -22.5439 33.4482 -33.4766 56.8789c-14.2979 30.6426 -13.7617 44.0801 -23.8223 78.6113c0 0 -9.10547 300.643 -9.99707 303.059
c-1.38086 3.74023 -3.73535 5.48242 -6.3418 5.40137c-3.41309 -0.106445 -7.25684 -3.33887 -9.91406 -9.30566c-2.51855 -5.6582 -4.62598 -309.002 -4.62598 -309.002l-6.0166 -24.7891c-4.3457 -17.9043 -8.39551 -33.9541 -12.1104 -48.0068
c-1.0957 0.735352 -2.34766 1.42676 -3.75195 2.05176c-3.69922 1.64648 -134.626 3.11719 -224.85 3.93848c-14.2363 26.1631 -30.7451 57.9756 -42.1904 96.3223c-17.5039 58.6455 14.998 134.794 52.4707 184.259c7.40625 9.77539 15.0742 22.1914 21.7178 34.5
c86.7637 2.70605 195.308 6.19043 196.756 6.72461c3.74023 1.37988 5.48242 3.73535 5.40137 6.3418c-0.106445 3.41309 -3.33887 7.25684 -9.30566 9.91406c-3.12012 1.38867 -96.7451 2.65234 -180.119 3.50684c5.01758 12.1641 7.39746 21.4424 5.18262 23.6572
c-2.28027 2.28125 -10.4824 -8 -18.3223 -22.9678c-0.0957031 -0.182617 -0.193359 -0.367188 -0.293945 -0.554688c-62.2539 0.615234 -115.449 0.984375 -115.449 0.984375l-24.7891 6.01562c-60.1045 14.5889 -99.3027 25.8477 -112.229 32.2373
c-10.3574 5.11816 -18.999 5.24316 -22.5137 0.325195c-1.42578 -1.99512 -2.61523 -4.33887 -2.61523 -5.15527c0 -2.51953 3.75586 -8.48047 9.53418 -15.1318c6.56836 -7.5625 11.6504 -19.9541 15.3438 -37.415c1.48242 -7.00781 2.92871 -10.3955 3.33789 -17.3369
c-33.834 1.97168 -129.501 3.46094 -129.501 3.46094l-24.7891 6.01562c-60.1045 14.5889 -99.3027 25.8477 -112.229 32.2373c-10.3564 5.11816 -18.998 5.24316 -22.5137 0.325195c-1.42578 -1.99512 -2.61426 -4.33887 -2.61426 -5.15527
c0 -2.51953 3.75586 -8.48047 9.5332 -15.1318c6.56934 -7.5625 11.6514 -19.9541 15.3438 -37.415c2.56543 -12.125 5.02148 -13.4121 2.18652 -41.0156c-0.546875 -5.32129 -2.98633 -35.6426 -2.18945 -35.6426c0.792969 0 6.02637 3.42188 11.6299 7.60449
c18.0996 13.5098 33.4482 22.5439 56.8789 33.4766c30.6436 14.2979 44.0811 13.7617 78.6113 23.8223c0 0 83.125 5.70605 118.965 8.52637c-0.135742 -1.50195 -0.289062 -3.0957 -0.462891 -4.78711c-0.546875 -5.32129 -2.98633 -35.6426 -2.19043 -35.6426
c0.793945 0 6.02734 3.42188 11.6309 7.60449c18.0996 13.5098 33.4482 22.5439 56.8789 33.4766c30.6426 14.2979 44.0801 13.7617 78.6113 23.8223c0 0 37.875 1.14746 86.8457 2.66699c-10.3672 -13.335 -23.1318 -28.1777 -35.1826 -40.6055
c-37.416 -38.585 -52.8633 -49.3262 -128.219 -89.1572c-28.6826 -15.1602 -44.3301 -34.4385 -5.67773 -50.2471c18.1709 -7.43262 84.2041 -66.4629 98.0059 -77.9434c14.8193 -12.3262 22.5693 -32.2441 33.8428 -56.3047
c-35.0752 0.300781 -59.4629 0.469727 -59.4629 0.469727l-24.7891 6.01562c-60.1045 14.5889 -99.3027 25.8477 -112.229 32.2373c-10.3574 5.11816 -18.999 5.24316 -22.5137 0.325195c-1.42578 -1.99512 -2.61523 -4.33887 -2.61523 -5.15527
c0 -0.679688 0.273438 -1.60938 0.785156 -2.73438c-41.7842 1.37305 -102.07 2.31152 -102.07 2.31152l-24.7891 6.01562c-60.1045 14.5889 -99.3027 25.8477 -112.229 32.2373c-10.3564 5.11816 -18.998 5.24316 -22.5137 0.325195
c-1.42578 -1.99512 -2.61426 -4.33887 -2.61426 -5.15527c0 -2.51953 3.75586 -8.48047 9.5332 -15.1318c6.56934 -7.5625 11.6514 -19.9541 15.3438 -37.415c2.56543 -12.125 5.02148 -13.4121 2.18652 -41.0156c-0.546875 -5.32129 -2.98633 -35.6426 -2.18945 -35.6426
c0.792969 0 6.02637 3.42188 11.6299 7.60449c18.0996 13.5098 33.4482 22.5439 56.8789 33.4766c30.6436 14.2979 44.0811 13.7617 78.6113 23.8223c0 0 67.1162 4.60742 106.734 7.58789c3.86621 -7.28125 7.0498 -16.8672 9.58105 -28.833
c2.56445 -12.125 5.02148 -13.4121 2.18652 -41.0156c-0.546875 -5.32129 -2.98633 -35.6426 -2.19043 -35.6426c0.793945 0 6.02734 3.42188 11.6309 7.60449c18.0996 13.5098 33.4482 22.5439 56.8789 33.4766c30.6426 14.2979 44.0801 13.7617 78.6113 23.8223
c0 0 26.6914 0.808594 64.2314 1.9668c6.2832 -10.9023 13.8154 -22.2832 23.3203 -33.9053zM1249.74 349.014c0.233398 -0.172852 0.461914 -0.34082 0.685547 -0.503906c-0.233398 0.131836 -0.461914 0.299805 -0.685547 0.503906zM1685.72 270.139l-10.0273 -41.3154
c-24.3145 -100.174 -43.0791 -165.504 -53.7275 -187.049c-8.53125 -17.2617 -8.73926 -31.6641 -0.542969 -37.5225c3.32617 -2.37695 7.23145 -4.3584 8.5918 -4.3584c4.19922 0 14.1348 6.25977 25.2197 15.8896c12.6045 10.9482 33.2578 19.418 62.3584 25.5732
c20.209 4.27441 22.3535 8.36914 68.3604 3.64355c8.86816 -0.911133 59.4033 -4.97656 59.4033 -3.64941c0 1.32227 -5.70312 10.0449 -12.6738 19.3838c-22.5166 30.166 -37.5723 55.7471 -55.7939 94.7979c-23.8301 51.0723 -22.9355 73.4678 -39.7041 131.02
c0 0 -15.1748 501.07 -16.6611 505.098c-2.30078 6.2334 -6.22559 9.1377 -10.5703 9.00195c-5.6875 -0.177734 -12.0947 -5.56445 -16.5225 -15.5098c-4.19824 -9.42969 -7.70996 -515.003 -7.70996 -515.003zM735.714 270.139l-1.57617 -6.49414
c-47.1016 3.54492 -223.893 6.29688 -223.893 6.29688l-41.3154 10.0273c-100.174 24.3145 -165.504 43.0791 -187.049 53.7275c-17.2617 8.53125 -31.6641 8.73926 -37.5225 0.542969c-2.37695 -3.32617 -4.3584 -7.23145 -4.3584 -8.5918
c0 -4.19922 6.25977 -14.1348 15.8896 -25.2197c10.9482 -12.6045 19.418 -33.2578 25.5732 -62.3584c4.27441 -20.209 8.36914 -22.3535 3.64355 -68.3604c-0.911133 -8.86816 -4.97656 -59.4033 -3.64941 -59.4033c1.32227 0 10.0449 5.70312 19.3838 12.6738
c30.166 22.5166 55.7471 37.5723 94.7979 55.7939c51.0723 23.8301 73.4678 22.9355 131.02 39.7041c0 0 141.258 9.69629 199.999 14.3467l-0.970703 -4.00098c-24.3145 -100.174 -43.0791 -165.504 -53.7275 -187.049
c-8.53125 -17.2617 -8.73926 -31.6641 -0.542969 -37.5225c3.32617 -2.37695 7.23145 -4.3584 8.5918 -4.3584c4.19922 0 14.1348 6.25977 25.2197 15.8896c12.6045 10.9482 33.2578 19.418 62.3584 25.5732c20.209 4.27441 22.3535 8.36914 68.3604 3.64355
c8.86816 -0.911133 59.4033 -4.97656 59.4033 -3.64941c0 1.32227 -5.70312 10.0449 -12.6738 19.3838c-22.5166 30.166 -37.5723 55.7471 -55.7939 94.7979c-23.8301 51.0723 -22.9355 73.4678 -39.7041 131.02c0 0 -15.1748 501.07 -16.6611 505.098
c-2.30078 6.2334 -6.22559 9.1377 -10.5703 9.00195c-5.6875 -0.177734 -12.0947 -5.56445 -16.5225 -15.5098c-1.48535 -3.33594 -2.88477 -68.7695 -4.07324 -151.946c-37.1953 3.75879 -229.105 6.74609 -229.105 6.74609l-41.3154 10.0273
c-100.174 24.3145 -165.504 43.0791 -187.049 53.7275c-17.2617 8.53125 -31.6641 8.73926 -37.5225 0.542969c-2.37695 -3.32617 -4.3584 -7.23145 -4.3584 -8.5918c0 -4.19922 6.25977 -14.1348 15.8896 -25.2197c10.9482 -12.6045 19.418 -33.2578 25.5732 -62.3584
c4.27441 -20.209 8.36914 -22.3535 3.64355 -68.3604c-0.911133 -8.86816 -4.97656 -59.4033 -3.64941 -59.4033c1.32227 0 10.0449 5.70312 19.3838 12.6738c30.166 22.5166 55.7471 37.5723 94.7979 55.7939c51.0723 23.8301 73.4678 22.9355 131.02 39.7041
c0 0 164.515 11.293 212.291 15.3486c-1.94824 -148.339 -3.23535 -333.688 -3.23535 -333.688zM330.245 449.941l-41.3154 10.0273c-100.174 24.3145 -165.504 43.0791 -187.049 53.7275c-17.2617 8.53125 -31.6641 8.73926 -37.5225 0.542969
c-2.37695 -3.32617 -4.3584 -7.23145 -4.3584 -8.5918c0 -4.19922 6.25977 -14.1348 15.8896 -25.2197c10.9482 -12.6045 19.418 -33.2578 25.5732 -62.3584c4.27441 -20.209 8.36914 -22.3535 3.64355 -68.3604c-0.911133 -8.86816 -4.97656 -59.4033 -3.64941 -59.4033
c1.32227 0 10.0449 5.70312 19.3838 12.6738c30.166 22.5166 55.7471 37.5723 94.7979 55.7939c51.0723 23.8301 73.4678 22.9355 131.02 39.7041c0 0 55.0703 15.1748 59.0977 16.6611c6.2334 2.30078 9.1377 6.22559 9.00195 10.5703
c-0.177734 5.6875 -5.56445 12.0947 -15.5098 16.5225c-9.42969 4.19824 -69.0029 7.70996 -69.0029 7.70996z" />
</svg>
