<?xml version="1.0" standalone="no"?>
<!DOCTYPE svg PUBLIC "-//W3C//DTD SVG 1.1//EN" "http://www.w3.org/Graphics/SVG/1.1/DTD/svg11.dtd" >
<svg xmlns="http://www.w3.org/2000/svg" xmlns:xlink="http://www.w3.org/1999/xlink" version="1.1" viewBox="0 0 1491 800">
   <path fill="currentColor"
d="M931.631 55.2471c9.90625 -12.1133 27.5576 -6.38281 23.625 8.60352c-3.73633 14.2412 -11.251 30.5732 -20.9414 49.1914c133.095 4.13281 312.853 9.84082 349.739 11.6436c-11.5205 -41.8467 -20.7139 -70.1084 -27.041 -82.9111
c-8.53125 -17.2617 -8.73926 -31.6641 -0.542969 -37.5225c3.32617 -2.37695 7.23145 -4.3584 8.5918 -4.3584c4.19922 0 14.1348 6.25977 25.2197 15.8896c12.6045 10.9482 33.2578 19.418 62.3584 25.5732c20.209 4.27441 22.3535 8.36914 68.3604 3.64355
c8.86816 -0.911133 59.4033 -4.97656 59.4033 -3.64941c0 1.32227 -5.70312 10.0449 -12.6738 19.3838c-22.5166 30.166 -37.5723 55.7471 -55.7939 94.7979c-23.8301 51.0723 -22.9355 73.4678 -39.7041 131.02c0 0 -15.1748 501.07 -16.6611 505.098
c-2.30078 6.2334 -6.22559 9.1377 -10.5703 9.00195c-5.6875 -0.177734 -12.0947 -5.56445 -16.5225 -15.5098c-4.19824 -9.42969 -7.70996 -515.003 -7.70996 -515.003l-10.0273 -41.3154c-7.24316 -29.8408 -13.9941 -56.5898 -20.1836 -80.0107
c-1.82715 1.22559 -3.91504 2.37695 -6.25488 3.41895c-6.16504 2.74414 -224.377 5.19531 -374.749 6.56445c-23.7275 43.6045 -51.2402 96.626 -70.3164 160.537c-29.1738 97.7432 24.9961 224.656 87.4512 307.098c12.3428 16.292 25.123 36.9863 36.1963 57.5
c144.605 4.51074 325.513 10.3174 327.926 11.208c6.2334 2.30078 9.1377 6.22559 9.00195 10.5703c-0.177734 5.6875 -5.56445 12.0947 -15.5098 16.5225c-5.19922 2.31445 -161.241 4.4209 -300.198 5.84473c8.36328 20.2725 12.3301 35.7373 8.63867 39.4287
c-3.80078 3.80273 -17.4707 -13.332 -30.5371 -38.2793c-0.15918 -0.303711 -0.323242 -0.612305 -0.490234 -0.923828c-103.757 1.02344 -192.416 1.63965 -192.416 1.63965l-41.3154 10.0273c-100.174 24.3145 -165.504 43.0791 -187.049 53.7275
c-17.2617 8.53125 -31.6641 8.73926 -37.5225 0.542969c-2.37695 -3.32617 -4.3584 -7.23145 -4.3584 -8.5918c0 -4.19922 6.25977 -14.1348 15.8896 -25.2197c10.9482 -12.6045 19.418 -33.2578 25.5732 -62.3584c2.4707 -11.6807 4.88086 -17.3262 5.56348 -28.8955
c-56.3906 3.28516 -215.835 5.76758 -215.835 5.76758l-41.3154 10.0273c-100.174 24.3145 -165.504 43.0791 -187.049 53.7275c-17.2617 8.53125 -31.6641 8.73926 -37.5225 0.542969c-2.37695 -3.32617 -4.3584 -7.23145 -4.3584 -8.5918
c0 -4.19922 6.25977 -14.1348 15.8896 -25.2197c10.9482 -12.6045 19.418 -33.2578 25.5732 -62.3584c4.27441 -20.209 8.36914 -22.3535 3.64355 -68.3604c-0.911133 -8.86816 -4.97656 -59.4033 -3.64941 -59.4033c1.32227 0 10.0449 5.70312 19.3838 12.6738
c30.166 22.5166 55.7471 37.5723 94.7979 55.7939c51.0723 23.8301 73.4678 22.9355 131.02 39.7041c0 0 138.541 9.50977 198.273 14.21c-0.225586 -2.50391 -0.481445 -5.15918 -0.771484 -7.97852c-0.911133 -8.86816 -4.97656 -59.4033 -3.64941 -59.4033
c1.32227 0 10.0449 5.70312 19.3838 12.6738c30.166 22.5166 55.7471 37.5723 94.7979 55.7939c51.0723 23.8301 73.4678 22.9355 131.02 39.7041c0 0 63.124 1.91211 144.743 4.44434c-17.2793 -22.2246 -38.5537 -46.9629 -58.6387 -67.6748
c-62.3594 -64.3086 -88.1055 -82.2109 -213.697 -148.596c-47.8047 -25.2676 -73.8838 -57.3984 -9.46289 -83.7461c30.2852 -12.3867 140.34 -110.771 163.344 -129.905c24.6992 -20.5439 37.6152 -53.7402 56.4033 -93.8408
c-58.458 0.5 -99.1045 0.782227 -99.1045 0.782227l-41.3154 10.0273c-100.174 24.3145 -165.504 43.0791 -187.049 53.7275c-17.2617 8.53125 -31.6641 8.73926 -37.5225 0.542969c-2.37695 -3.32617 -4.3584 -7.23145 -4.3584 -8.5918
c0 -1.13281 0.455078 -2.68164 1.30859 -4.55859c-69.6387 2.28809 -170.117 3.85254 -170.117 3.85254l-41.3154 10.0273c-100.174 24.3145 -165.504 43.0791 -187.049 53.7275c-17.2617 8.53125 -31.6641 8.73926 -37.5225 0.542969
c-2.37695 -3.32617 -4.3584 -7.23145 -4.3584 -8.5918c0 -4.19922 6.25977 -14.1348 15.8896 -25.2197c10.9482 -12.6045 19.418 -33.2578 25.5732 -62.3584c4.27441 -20.209 8.36914 -22.3535 3.64355 -68.3604c-0.911133 -8.86816 -4.97656 -59.4033 -3.64941 -59.4033
c1.32227 0 10.0449 5.70312 19.3838 12.6738c30.166 22.5166 55.7471 37.5723 94.7979 55.7939c51.0723 23.8301 73.4678 22.9355 131.02 39.7041c0 0 111.859 7.67871 177.891 12.6465c6.44434 -12.1367 11.75 -28.1123 15.9678 -48.0547
c4.27441 -20.209 8.36914 -22.3535 3.64355 -68.3604c-0.911133 -8.86816 -4.97656 -59.4033 -3.64941 -59.4033c1.32227 0 10.0449 5.70312 19.3838 12.6738c30.166 22.5166 55.7471 37.5723 94.7979 55.7939c51.0723 23.8301 73.4678 22.9355 131.02 39.7041
c0 0 44.4854 1.34766 107.053 3.27832c10.4727 -18.1709 23.0254 -37.1387 38.8662 -56.5088zM802.857 314.84c0.388672 -0.288086 0.769531 -0.568359 1.14258 -0.839844c-0.389648 0.219727 -0.770508 0.5 -1.14258 0.839844z" />
</svg>
