<?xml version="1.0" standalone="no"?>
<!DOCTYPE svg PUBLIC "-//W3C//DTD SVG 1.1//EN" "http://www.w3.org/Graphics/SVG/1.1/DTD/svg11.dtd" >
<svg xmlns="http://www.w3.org/2000/svg" xmlns:xlink="http://www.w3.org/1999/xlink" version="1.1" viewBox="0 0 664 719">
   <path fill="currentColor"
d="M591.352 6.24707c9.90625 -12.1133 27.5576 -6.38281 23.625 8.60352c-13.8916 52.9434 -79.998 134.799 -116.02 255.482c-29.1738 97.7432 24.9961 224.656 87.4512 307.098c35.8438 47.3125 75.3789 131.75 66.0547 141.074
c-3.80078 3.80273 -17.4707 -13.332 -30.5371 -38.2793c-13.0117 -24.8379 -53.6855 -76.1289 -90.3887 -113.979c-62.3594 -64.3086 -88.1055 -82.2109 -213.697 -148.596c-10.667 -5.6377 -20.2529 -11.6182 -27.9922 -17.7988
c15.6279 64.5918 49.6465 128.853 86.5605 177.578c35.8438 47.3125 75.3789 131.75 66.0547 141.074c-3.80078 3.80273 -17.4707 -13.332 -30.5371 -38.2793c-13.0117 -24.8379 -53.6855 -76.1289 -90.3887 -113.979
c-62.3594 -64.3086 -88.1055 -82.2109 -213.697 -148.596c-47.8047 -25.2676 -73.8838 -57.3984 -9.46289 -83.7461c30.2852 -12.3867 140.34 -110.771 163.344 -129.905c44 -36.5967 50.6055 -113.348 119.631 -197.753c9.90625 -12.1133 27.5576 -6.38281 23.625 8.60352
c-13.8916 52.9434 -79.998 134.799 -116.02 255.482c-7.38184 24.7314 -9.42773 51.3311 -7.35352 78.6055c6.15234 -5.1543 14.9346 -10.1914 26.7734 -15.0332c30.2852 -12.3867 140.34 -110.771 163.344 -129.905c44 -36.5967 50.6055 -113.348 119.631 -197.753z
M462.578 265.84c0.388672 -0.288086 0.769531 -0.568359 1.14258 -0.839844c-0.389648 0.219727 -0.770508 0.5 -1.14258 0.839844zM252.578 265.84c0.388672 -0.288086 0.769531 -0.568359 1.14258 -0.839844c-0.389648 0.219727 -0.770508 0.5 -1.14258 0.839844z" />
</svg>
