<?xml version="1.0" standalone="no"?>
<!DOCTYPE svg PUBLIC "-//W3C//DTD SVG 1.1//EN" "http://www.w3.org/Graphics/SVG/1.1/DTD/svg11.dtd" >
<svg xmlns="http://www.w3.org/2000/svg" xmlns:xlink="http://www.w3.org/1999/xlink" version="1.1" viewBox="0 0 1291 459">
   <path fill="currentColor"
d="M610.245 388.941l-41.3154 10.0273c-100.174 24.3145 -165.504 43.0791 -187.049 53.7275c-17.2617 8.53125 -31.6641 8.73926 -37.5225 0.542969c-2.37695 -3.32617 -4.3584 -7.23145 -4.3584 -8.5918c0 -4.19922 6.25977 -14.1348 15.8896 -25.2197
c6.97168 -8.02539 12.9375 -19.3154 17.9414 -33.9707c-19.873 2.08691 -43.5859 3.48438 -43.5859 3.48438l-41.3154 10.0273c-100.174 24.3145 -165.504 43.0791 -187.049 53.7275c-17.2617 8.53125 -31.6641 8.73926 -37.5225 0.542969
c-2.37695 -3.32617 -4.3584 -7.23145 -4.3584 -8.5918c0 -4.19922 6.25977 -14.1348 15.8896 -25.2197c10.9482 -12.6045 19.418 -33.2578 25.5732 -62.3584c4.27441 -20.209 8.36914 -22.3535 3.64355 -68.3604c-0.911133 -8.86816 -4.97656 -59.4033 -3.64941 -59.4033
c1.32227 0 10.0449 5.70312 19.3838 12.6738c30.166 22.5166 55.7471 37.5723 94.7979 55.7939c51.0723 23.8301 73.4678 22.9355 131.02 39.7041c0 0 20.1738 5.55859 36.9941 10.2773c3.25195 -13.002 5.34961 -21.1221 1.4541 -59.0459
c-0.911133 -8.86816 -4.97656 -59.4033 -3.64941 -59.4033c1.32227 0 10.0449 5.70312 19.3838 12.6738c30.166 22.5166 55.7471 37.5723 94.7979 55.7939c51.0723 23.8301 73.4678 22.9355 131.02 39.7041c0 0 20.1738 5.55859 36.9941 10.2773
c3.25195 -13.002 5.34961 -21.1221 1.4541 -59.0459c-0.911133 -8.86816 -4.97656 -59.4033 -3.64941 -59.4033c1.32227 0 10.0449 5.70312 19.3838 12.6738c30.166 22.5166 55.7471 37.5723 94.7979 55.7939c51.0723 23.8301 73.4678 22.9355 131.02 39.7041
c0 0 361.07 15.1748 365.098 16.6611c6.2334 2.30078 9.1377 6.22559 9.00195 10.5703c-0.177734 5.6875 -5.56445 12.0947 -15.5098 16.5225c-9.42969 4.19824 -375.003 7.70996 -375.003 7.70996l-41.3154 10.0273c-100.174 24.3145 -165.504 43.0791 -187.049 53.7275
c-17.2617 8.53125 -31.6641 8.73926 -37.5225 0.542969c-2.37695 -3.32617 -4.3584 -7.23145 -4.3584 -8.5918c0 -4.19922 6.25977 -14.1348 15.8896 -25.2197c6.97168 -8.02539 12.9375 -19.3154 17.9414 -33.9707c-19.873 2.08691 -43.5859 3.48438 -43.5859 3.48438z
M610.245 158.941l-41.3154 10.0273c-100.174 24.3145 -165.504 43.0791 -187.049 53.7275c-17.2617 8.53125 -31.6641 8.73926 -37.5225 0.542969c-2.37695 -3.32617 -4.3584 -7.23145 -4.3584 -8.5918c0 -4.19922 6.25977 -14.1348 15.8896 -25.2197
c6.97168 -8.02539 12.9375 -19.3154 17.9414 -33.9707c-19.873 2.08691 -43.5859 3.48438 -43.5859 3.48438l-41.3154 10.0273c-100.174 24.3145 -165.504 43.0791 -187.049 53.7275c-17.2617 8.53125 -31.6641 8.73926 -37.5225 0.542969
c-2.37695 -3.32617 -4.3584 -7.23145 -4.3584 -8.5918c0 -4.19922 6.25977 -14.1348 15.8896 -25.2197c10.9482 -12.6045 19.418 -33.2578 25.5732 -62.3584c4.27441 -20.209 8.36914 -22.3535 3.64355 -68.3604c-0.911133 -8.86816 -4.97656 -59.4033 -3.64941 -59.4033
c1.32227 0 10.0449 5.70312 19.3838 12.6738c30.166 22.5166 55.7471 37.5723 94.7979 55.7939c51.0723 23.8301 73.4678 22.9355 131.02 39.7041c0 0 20.1738 5.55859 36.9941 10.2773c3.25195 -13.002 5.34961 -21.1221 1.4541 -59.0459
c-0.911133 -8.86816 -4.97656 -59.4033 -3.64941 -59.4033c1.32227 0 10.0449 5.70312 19.3838 12.6738c30.166 22.5166 55.7471 37.5723 94.7979 55.7939c51.0723 23.8301 73.4678 22.9355 131.02 39.7041c0 0 20.1738 5.55859 36.9941 10.2773
c3.25195 -13.002 5.34961 -21.1221 1.4541 -59.0459c-0.911133 -8.86816 -4.97656 -59.4033 -3.64941 -59.4033c1.32227 0 10.0449 5.70312 19.3838 12.6738c30.166 22.5166 55.7471 37.5723 94.7979 55.7939c51.0723 23.8301 73.4678 22.9355 131.02 39.7041
c0 0 361.07 15.1748 365.098 16.6611c6.2334 2.30078 9.1377 6.22559 9.00195 10.5703c-0.177734 5.6875 -5.56445 12.0947 -15.5098 16.5225c-9.42969 4.19824 -375.003 7.70996 -375.003 7.70996l-41.3154 10.0273c-100.174 24.3145 -165.504 43.0791 -187.049 53.7275
c-17.2617 8.53125 -31.6641 8.73926 -37.5225 0.542969c-2.37695 -3.32617 -4.3584 -7.23145 -4.3584 -8.5918c0 -4.19922 6.25977 -14.1348 15.8896 -25.2197c6.97168 -8.02539 12.9375 -19.3154 17.9414 -33.9707c-19.873 2.08691 -43.5859 3.48438 -43.5859 3.48438z" />
</svg>
