<?xml version="1.0" standalone="no"?>
<!DOCTYPE svg PUBLIC "-//W3C//DTD SVG 1.1//EN" "http://www.w3.org/Graphics/SVG/1.1/DTD/svg11.dtd" >
<svg xmlns="http://www.w3.org/2000/svg" xmlns:xlink="http://www.w3.org/1999/xlink" version="1.1" viewBox="0 0 759 799">
   <path fill="currentColor"
d="M125.548 336.774c-14.9727 -12.1064 -8.73926 -31.6641 -0.542969 -37.5225c2.06543 -1.47656 4.35449 -2.7998 6.11816 -3.59082c-1.13184 -13.8389 -1.82031 -25.5225 -1.82031 -25.5225l-10.0273 -41.3154c-24.3145 -100.174 -43.0791 -165.504 -53.7275 -187.049
c-8.53125 -17.2617 -8.73926 -31.6641 -0.542969 -37.5225c3.32617 -2.37695 7.23145 -4.3584 8.5918 -4.3584c4.19922 0 14.1348 6.25977 25.2197 15.8896c12.6045 10.9482 33.2578 19.418 62.3584 25.5732c20.209 4.27441 22.3535 8.36914 68.3604 3.64355
c8.86816 -0.911133 59.4033 -4.97656 59.4033 -3.64941c0 1.32227 -5.70312 10.0449 -12.6738 19.3838c-22.5166 30.166 -37.5723 55.7471 -55.7939 94.7979c-23.8301 51.0723 -22.9355 73.4678 -39.7041 131.02c0 0 -3.9668 14.3965 -8.04297 29.0059
c39.0293 9.05957 146.382 20.625 196.173 27.3418c-0.65918 -1.16895 -1.29004 -2.42188 -1.88379 -3.75781c-4.19824 -9.42969 -7.70996 -69.0029 -7.70996 -69.0029l-10.0273 -41.3154c-24.3145 -100.174 -43.0791 -165.504 -53.7275 -187.049
c-8.53125 -17.2617 -8.73926 -31.6641 -0.542969 -37.5225c3.32617 -2.37695 7.23145 -4.3584 8.5918 -4.3584c4.19922 0 14.1348 6.25977 25.2197 15.8896c12.6045 10.9482 33.2578 19.418 62.3584 25.5732c20.209 4.27441 22.3535 8.36914 68.3604 3.64355
c8.86816 -0.911133 59.4033 -4.97656 59.4033 -3.64941c0 1.32227 -5.70312 10.0449 -12.6738 19.3838c-22.5166 30.166 -37.5723 55.7471 -55.7939 94.7979c-23.8301 51.0723 -22.9355 73.4678 -39.7041 131.02c0 0 -15.1748 55.0703 -16.6611 59.0977
c-0.147461 0.399414 -0.301758 0.785156 -0.461914 1.15723c25.5527 4.10156 131.504 7.75293 175.892 3.19336c4.35938 -0.448242 18.792 -1.6582 32.3389 -2.61523c-1.76855 -2.25 -3.41992 -5.00488 -4.86133 -8.24316
c-4.19824 -9.42969 -7.70996 -69.0029 -7.70996 -69.0029l-10.0273 -41.3154c-24.3145 -100.174 -43.0791 -165.504 -53.7275 -187.049c-8.53125 -17.2617 -8.73926 -31.6641 -0.542969 -37.5225c3.32617 -2.37695 7.23145 -4.3584 8.5918 -4.3584
c4.19922 0 14.1348 6.25977 25.2197 15.8896c12.6045 10.9482 33.2578 19.418 62.3584 25.5732c20.209 4.27441 22.3535 8.36914 68.3604 3.64355c8.86816 -0.911133 59.4033 -4.97656 59.4033 -3.64941c0 1.32227 -5.70312 10.0449 -12.6738 19.3838
c-22.5166 30.166 -37.5723 55.7471 -55.7939 94.7979c-23.8301 51.0723 -22.9355 73.4678 -39.7041 131.02c0 0 -15.1748 55.0703 -16.6611 59.0977c-0.0595703 0.160156 -0.120117 0.318359 -0.181641 0.474609c3.12012 -0.0849609 5.01465 -0.0302734 5.01465 0.226562
c0 1.32227 -5.14062 10.4922 -12.6738 19.3838c-105.962 125.062 -176.933 259.125 -222.159 424.915c-1.74805 6.41016 -6.22559 9.1377 -10.5703 9.00195c-5.6875 -0.177734 -17.7246 -4.69043 -16.5225 -15.5098c13.4365 -120.915 -166.66 -386.881 -241.465 -447.367z
" />
</svg>
