<?xml version="1.0" standalone="no"?>
<!DOCTYPE svg PUBLIC "-//W3C//DTD SVG 1.1//EN" "http://www.w3.org/Graphics/SVG/1.1/DTD/svg11.dtd" >
<svg xmlns="http://www.w3.org/2000/svg" xmlns:xlink="http://www.w3.org/1999/xlink" version="1.1" viewBox="0 0 761 800">
   <path fill="currentColor"
d="M360.768 270.139l-10.0273 -41.3154c-24.3145 -100.174 -43.0791 -165.504 -53.7275 -187.049c-8.53125 -17.2617 -8.73926 -31.6641 -0.542969 -37.5225c3.32617 -2.37695 7.23145 -4.3584 8.5918 -4.3584c4.19922 0 14.1348 6.25977 25.2197 15.8896
c12.6045 10.9482 33.2578 19.418 62.3584 25.5732c20.209 4.27441 22.3535 8.36914 68.3604 3.64355c8.86816 -0.911133 59.4033 -4.97656 59.4033 -3.64941c0 1.32227 -5.70312 10.0449 -12.6738 19.3838c-22.5166 30.166 -37.5723 55.7471 -55.7939 94.7979
c-23.8301 51.0723 -22.9355 73.4678 -39.7041 131.02c0 0 -15.1748 221.07 -16.6611 225.098c-2.30078 6.2334 -6.22559 9.1377 -10.5703 9.00195c-5.6875 -0.177734 -12.0947 -5.56445 -16.5225 -15.5098c-4.19824 -9.42969 -7.70996 -235.003 -7.70996 -235.003z
M590.768 270.139l-10.0273 -41.3154c-24.3145 -100.174 -43.0791 -165.504 -53.7275 -187.049c-8.53125 -17.2617 -8.73926 -31.6641 -0.542969 -37.5225c3.32617 -2.37695 7.23145 -4.3584 8.5918 -4.3584c4.19922 0 14.1348 6.25977 25.2197 15.8896
c12.6045 10.9482 33.2578 19.418 62.3584 25.5732c20.209 4.27441 22.3535 8.36914 68.3604 3.64355c8.86816 -0.911133 59.4033 -4.97656 59.4033 -3.64941c0 1.32227 -5.70312 10.0449 -12.6738 19.3838c-22.5166 30.166 -37.5723 55.7471 -55.7939 94.7979
c-23.8301 51.0723 -22.9355 73.4678 -39.7041 131.02c0 0 -15.1748 221.07 -16.6611 225.098c-2.30078 6.2334 -6.22559 9.1377 -10.5703 9.00195c-5.6875 -0.177734 -12.0947 -5.56445 -16.5225 -15.5098c-4.19824 -9.42969 -7.70996 -235.003 -7.70996 -235.003z
M130.303 270.139l-10.0273 -41.3154c-24.3145 -100.174 -43.0791 -165.504 -53.7275 -187.049c-8.53125 -17.2617 -8.73926 -31.6641 -0.542969 -37.5225c3.32617 -2.37695 7.23145 -4.3584 8.5918 -4.3584c4.19922 0 14.1348 6.25977 25.2197 15.8896
c12.6045 10.9482 33.2578 19.418 62.3584 25.5732c20.209 4.27441 22.3535 8.36914 68.3604 3.64355c8.86816 -0.911133 59.4033 -4.97656 59.4033 -3.64941c0 1.32227 -5.70312 10.0449 -12.6738 19.3838c-22.5166 30.166 -37.5723 55.7471 -55.7939 94.7979
c-23.8301 51.0723 -22.9355 73.4678 -39.7041 131.02c0 0 -5.55957 20.1738 -10.2773 36.9941c13.002 3.25195 21.1211 5.34961 59.0459 1.4541c8.86816 -0.911133 59.4033 -4.97656 59.4033 -3.64941c0 1.32227 -5.70312 10.0449 -12.6738 19.3838
c-22.5166 30.166 -37.5723 55.7471 -55.7939 94.7979c-23.8301 51.0723 -22.9355 73.4678 -39.7041 131.02c0 0 -15.1748 221.07 -16.6611 225.098c-2.30078 6.2334 -6.22559 9.1377 -10.5703 9.00195c-5.6875 -0.177734 -12.0947 -5.56445 -16.5225 -15.5098
c-4.19824 -9.42969 -7.70996 -235.003 -7.70996 -235.003l-10.0273 -41.3154c-24.3145 -100.174 -43.0791 -165.504 -53.7275 -187.049c-8.53125 -17.2617 -8.73926 -31.6641 -0.542969 -37.5225c3.32617 -2.37695 7.23145 -4.3584 8.5918 -4.3584
c4.19922 0 14.1348 6.25977 25.2197 15.8896c8.02539 6.97168 19.3145 12.9375 33.9697 17.9414c-2.08594 -19.873 -3.4834 -43.5859 -3.4834 -43.5859z" />
</svg>
