<?xml version="1.0" standalone="no"?>
<!DOCTYPE svg PUBLIC "-//W3C//DTD SVG 1.1//EN" "http://www.w3.org/Graphics/SVG/1.1/DTD/svg11.dtd" >
<svg xmlns="http://www.w3.org/2000/svg" xmlns:xlink="http://www.w3.org/1999/xlink" version="1.1" viewBox="0 0 965 835">
   <path fill="currentColor"
d="M906.898 4.2793c7.42969 -9.08496 30.668 -4.78711 27.7188 6.45312c-10.4199 39.707 -59.999 101.099 -87.0156 191.611c-21.8799 73.3076 18.748 168.492 65.5889 230.323c26.8828 35.4844 46.5342 98.8125 39.541 105.806
c-2.85059 2.85156 -13.1025 -9.99902 -22.9033 -28.709c-9.75781 -18.6289 -40.2637 -57.0977 -67.791 -85.4844c-46.7695 -48.2314 -66.0791 -61.6582 -160.273 -111.447c-8.80469 -4.65332 -16.627 -9.61816 -22.7021 -14.752
c-42.7939 1.66895 -130.205 3.13574 -206.807 4.18555c-1.50684 5.70605 -3.17871 11.7715 -5.07715 18.2861c0 0 -2.24316 74.0596 -5.08887 165.463c148.228 4.58008 386.893 12.0996 389.667 13.124c6.2334 2.30078 9.1377 6.22559 9.00195 10.5703
c-0.177734 5.6875 -5.56445 12.0947 -15.5098 16.5225c-6.30078 2.80566 -234.133 5.30371 -384.624 6.65332c-1.97559 62.9404 -4.09375 129.301 -5.88672 182.902c147.538 4.55469 394.197 12.3105 397.019 13.3516c6.2334 2.30078 9.1377 6.22559 9.00195 10.5703
c-0.177734 5.6875 -5.56445 12.0947 -15.5098 16.5225c-6.40625 2.85254 -241.831 5.3877 -392.123 6.7207c-1.31738 37.5186 -2.28613 61.8232 -2.6084 62.6973c-2.30078 6.2334 -6.22559 9.1377 -10.5703 9.00195c-5.6875 -0.177734 -12.0947 -5.56445 -16.5225 -15.5098
c-0.829102 -1.8623 -1.63086 -23.0703 -2.38477 -55.9121c-53.9639 0.456055 -90.7939 0.711914 -90.7939 0.711914l-41.3154 10.0273c-100.174 24.3145 -165.504 43.0791 -187.049 53.7275c-17.2617 8.53125 -31.6641 8.73926 -37.5225 0.542969
c-2.37695 -3.32617 -4.3584 -7.23145 -4.3584 -8.5918c0 -4.19922 6.25977 -14.1348 15.8896 -25.2197c10.9482 -12.6045 19.418 -33.2578 25.5732 -62.3584c4.27441 -20.209 8.36914 -22.3535 3.64355 -68.3604c-0.911133 -8.86816 -4.97656 -59.4033 -3.64941 -59.4033
c1.32227 0 10.0449 5.70312 19.3838 12.6738c30.166 22.5166 55.7471 37.5723 94.7979 55.7939c51.0723 23.8301 73.4678 22.9355 131.02 39.7041c0 0 29.1445 0.882812 73.4316 2.24316c-0.894531 -52.4199 -1.69629 -118.104 -2.3623 -181.463
c-52.1533 0.438477 -87.4824 0.683594 -87.4824 0.683594l-41.3154 10.0273c-100.174 24.3145 -165.504 43.0791 -187.049 53.7275c-17.2617 8.53125 -31.6641 8.73926 -37.5225 0.542969c-2.37695 -3.32617 -4.3584 -7.23145 -4.3584 -8.5918
c0 -4.19922 6.25977 -14.1348 15.8896 -25.2197c10.9482 -12.6045 19.418 -33.2578 25.5732 -62.3584c4.27441 -20.209 8.36914 -22.3535 3.64355 -68.3604c-0.911133 -8.86816 -4.97656 -59.4033 -3.64941 -59.4033c1.32227 0 10.0449 5.70312 19.3838 12.6738
c30.166 22.5166 55.7471 37.5723 94.7979 55.7939c51.0723 23.8301 73.4678 22.9355 131.02 39.7041c0 0 27.8975 0.844727 70.5791 2.15527c-0.954102 -98.5352 -1.52344 -180.494 -1.52344 -180.494l-0.276367 -1.14062
c-49.4082 0.600586 -85.1387 0.943359 -85.1387 0.943359l-41.3154 10.0273c-100.174 24.3145 -165.504 43.0791 -187.049 53.7275c-17.2617 8.53125 -31.6641 8.73926 -37.5225 0.542969c-2.37695 -3.32617 -4.3584 -7.23145 -4.3584 -8.5918
c0 -4.19922 6.25977 -14.1348 15.8896 -25.2197c10.9482 -12.6045 19.418 -33.2578 25.5732 -62.3584c4.27441 -20.209 8.36914 -22.3535 3.64355 -68.3604c-0.911133 -8.86816 -4.97656 -59.4033 -3.64941 -59.4033c1.32227 0 10.0449 5.70312 19.3838 12.6738
c30.166 22.5166 55.7471 37.5723 94.7979 55.7939c51.0723 23.8301 73.4678 22.9355 131.02 39.7041c0 0 22.8174 0.958984 57.0439 2.41797c-23.377 -95.6943 -41.4316 -158.149 -51.7969 -179.121c-8.53125 -17.2617 -8.73926 -31.6641 -0.542969 -37.5225
c3.32617 -2.37695 7.23145 -4.3584 8.5918 -4.3584c4.19922 0 14.1348 6.25977 25.2197 15.8896c12.6045 10.9482 33.2578 19.418 62.3584 25.5732c20.209 4.27441 22.3535 8.36914 68.3604 3.64355c8.86816 -0.911133 59.4033 -4.97656 59.4033 -3.64941
c0 1.32227 -5.70312 10.0449 -12.6738 19.3838c-22.5166 30.166 -37.5723 55.7471 -55.7939 94.7979c-13.0869 28.0469 -18.7168 47.4453 -23.9102 68.7676c66.1104 2.86426 140.895 6.16992 186.458 8.39551c4.18457 -5.74805 12.2646 -11.3662 25.2373 -16.6719
c22.7139 -9.29102 105.255 -83.0791 122.508 -97.4297c33 -27.4473 37.9541 -85.0107 89.7236 -148.314zM807.906 212.171c1.14648 -1.28809 2.23828 -2.56543 3.26855 -3.82715c-1.20215 0.676758 -2.29492 1.9834 -3.26855 3.82715z" />
</svg>
