<?xml version="1.0" standalone="no"?>
<!DOCTYPE svg PUBLIC "-//W3C//DTD SVG 1.1//EN" "http://www.w3.org/Graphics/SVG/1.1/DTD/svg11.dtd" >
<svg xmlns="http://www.w3.org/2000/svg" xmlns:xlink="http://www.w3.org/1999/xlink" version="1.1" viewBox="0 0 965 835">
   <path fill="currentColor"
d="M906.898 4.2793c7.42969 -9.08496 30.668 -4.78711 27.7188 6.45312c-10.4199 39.707 -59.999 101.099 -87.0156 191.611c-21.8799 73.3076 18.748 168.492 65.5889 230.323c26.8828 35.4844 46.5342 98.8125 39.541 105.806
c-2.85059 2.85156 -13.1025 -9.99902 -22.9033 -28.709c-9.75781 -18.6289 -40.2637 -57.0977 -67.791 -85.4844c-38.1299 -39.3223 -58.0078 -55.5098 -115.095 -87.1289c-14.0889 27.3809 -28.5234 58.9531 -39.3408 95.1934
c-21.8799 73.3076 18.748 168.492 65.5889 230.323c13.6279 17.9883 25.3975 43.1328 32.7803 64.4658c27.7676 1.00781 45.0508 1.73438 45.7852 2.00586c6.2334 2.30078 9.1377 6.22559 9.00195 10.5703c-0.177734 5.6875 -5.56445 12.0947 -15.5098 16.5225
c-1.34473 0.598633 -12.7744 1.18359 -31.3867 1.74609c0.610352 5.3457 0.288086 9.07715 -1.12988 10.4951c-1.74316 1.74414 -6.25586 -2.38574 -11.7412 -10.1387c-76.5264 1.96289 -235.844 3.625 -347.865 4.61816c-1.31738 37.5186 -2.28613 61.8232 -2.6084 62.6973
c-2.30078 6.2334 -6.22559 9.1377 -10.5703 9.00195c-5.6875 -0.177734 -12.0947 -5.56445 -16.5225 -15.5098c-0.829102 -1.8623 -1.63086 -23.0703 -2.38477 -55.9121c-53.9639 0.456055 -90.7939 0.711914 -90.7939 0.711914l-41.3154 10.0273
c-100.174 24.3145 -165.504 43.0791 -187.049 53.7275c-17.2617 8.53125 -31.6641 8.73926 -37.5225 0.542969c-2.37695 -3.32617 -4.3584 -7.23145 -4.3584 -8.5918c0 -4.19922 6.25977 -14.1348 15.8896 -25.2197c10.9482 -12.6045 19.418 -33.2578 25.5732 -62.3584
c4.27441 -20.209 8.36914 -22.3535 3.64355 -68.3604c-0.911133 -8.86816 -4.97656 -59.4033 -3.64941 -59.4033c1.32227 0 10.0449 5.70312 19.3838 12.6738c30.166 22.5166 55.7471 37.5723 94.7979 55.7939c51.0723 23.8301 73.4678 22.9355 131.02 39.7041
c0 0 29.1445 0.882812 73.4316 2.24316c-0.899414 -52.6914 -1.70508 -118.784 -2.37305 -182.446c-47.2129 1.04004 -87.4717 1.66699 -87.4717 1.66699l-41.3154 10.0273c-100.174 24.3145 -165.504 43.0791 -187.049 53.7275
c-17.2617 8.53125 -31.6641 8.73926 -37.5225 0.542969c-2.37695 -3.32617 -4.3584 -7.23145 -4.3584 -8.5918c0 -4.19922 6.25977 -14.1348 15.8896 -25.2197c10.9482 -12.6045 19.418 -33.2578 25.5732 -62.3584c4.27441 -20.209 8.36914 -22.3535 3.64355 -68.3604
c-0.911133 -8.86816 -4.97656 -59.4033 -3.64941 -59.4033c1.32227 0 10.0449 5.70312 19.3838 12.6738c30.166 22.5166 55.7471 37.5723 94.7979 55.7939c51.0723 23.8301 73.4678 22.9355 131.02 39.7041c0 0 31.3242 2.15039 70.6055 4.91113
c-0.969727 -99.7578 -1.5498 -183.25 -1.5498 -183.25l-0.276367 -1.14062c-49.4082 0.600586 -85.1387 0.943359 -85.1387 0.943359l-41.3154 10.0273c-100.174 24.3145 -165.504 43.0791 -187.049 53.7275c-17.2617 8.53125 -31.6641 8.73926 -37.5225 0.542969
c-2.37695 -3.32617 -4.3584 -7.23145 -4.3584 -8.5918c0 -4.19922 6.25977 -14.1348 15.8896 -25.2197c10.9482 -12.6045 19.418 -33.2578 25.5732 -62.3584c4.27441 -20.209 8.36914 -22.3535 3.64355 -68.3604c-0.911133 -8.86816 -4.97656 -59.4033 -3.64941 -59.4033
c1.32227 0 10.0449 5.70312 19.3838 12.6738c30.166 22.5166 55.7471 37.5723 94.7979 55.7939c51.0723 23.8301 73.4678 22.9355 131.02 39.7041c0 0 22.8174 0.958984 57.0439 2.41797c-23.377 -95.6943 -41.4316 -158.149 -51.7969 -179.121
c-8.53125 -17.2617 -8.73926 -31.6641 -0.542969 -37.5225c3.32617 -2.37695 7.23145 -4.3584 8.5918 -4.3584c4.19922 0 14.1348 6.25977 25.2197 15.8896c12.6045 10.9482 33.2578 19.418 62.3584 25.5732c20.209 4.27441 22.3535 8.36914 68.3604 3.64355
c8.86816 -0.911133 59.4033 -4.97656 59.4033 -3.64941c0 1.32227 -5.70312 10.0449 -12.6738 19.3838c-22.5166 30.166 -37.5723 55.7471 -55.7939 94.7979c-13.0869 28.0469 -18.7168 47.4453 -23.9102 68.7676c66.1104 2.86426 140.895 6.16992 186.458 8.39551
c4.18457 -5.74805 12.2646 -11.3662 25.2373 -16.6719c22.7139 -9.29102 105.255 -83.0791 122.508 -97.4297c33 -27.4473 37.9541 -85.0107 89.7236 -148.314zM807.906 212.171c1.14648 -1.28809 2.23828 -2.56543 3.26855 -3.82715
c-1.20215 0.676758 -2.29492 1.9834 -3.26855 3.82715zM679.062 298.08c-42.7939 1.66895 -130.205 3.13574 -206.807 4.18555c-1.50684 5.70605 -3.17871 11.7715 -5.07715 18.2861c0 0 -2.31738 76.5244 -5.22949 170.003
c24.5078 1.75195 48.8457 3.52246 68.3613 5.00488c4.39258 -5.35254 12.2402 -10.5801 24.3574 -15.5361c22.7139 -9.29102 105.255 -83.0791 122.508 -97.4297c16.8477 -14.0127 26.3848 -35.874 38.5732 -62.3418c-4.47168 -2.38281 -9.12891 -4.85352 -13.9844 -7.41992
c-8.80469 -4.65332 -16.627 -9.61816 -22.7021 -14.752zM454.737 715.787c98.8223 3.05078 242.115 7.53711 326.816 10.4814c-13.7051 -20.2871 -37.5586 -49.3457 -59.5166 -71.9893c-46.7695 -48.2314 -66.0791 -61.6582 -160.273 -111.447
c-8.5498 -4.51855 -16.1729 -9.33105 -22.1699 -14.3066c-19.8369 1.00781 -48.8125 1.93164 -78.918 2.71973c-1.99023 63.4258 -4.12988 130.475 -5.93848 184.542zM667.906 442.171c1.14648 -1.28809 2.23828 -2.56543 3.26855 -3.82715
c-1.20215 0.676758 -2.29492 1.9834 -3.26855 3.82715z" />
</svg>
