<?xml version="1.0" standalone="no"?>
<!DOCTYPE svg PUBLIC "-//W3C//DTD SVG 1.1//EN" "http://www.w3.org/Graphics/SVG/1.1/DTD/svg11.dtd" >
<svg xmlns="http://www.w3.org/2000/svg" xmlns:xlink="http://www.w3.org/1999/xlink" version="1.1" viewBox="0 0 874 1155">
   <path fill="currentColor"
d="M381.352 6.24707c9.90625 -12.1133 27.5576 -6.38281 23.625 8.60352c-13.8916 52.9434 -79.998 134.799 -116.02 255.482c-7.38184 24.7314 -9.42773 51.3311 -7.35352 78.6055c6.15234 -5.1543 14.9346 -10.1914 26.7734 -15.0332
c30.2852 -12.3867 140.34 -110.771 163.344 -129.905c44 -36.5967 50.6055 -113.348 119.631 -197.753c9.90625 -12.1133 27.5576 -6.38281 23.625 8.60352c-13.8916 52.9434 -79.998 134.799 -116.02 255.482c-7.38184 24.7314 -9.42773 51.3311 -7.35352 78.6055
c6.15234 -5.1543 14.9346 -10.1914 26.7734 -15.0332c30.2852 -12.3867 140.34 -110.771 163.344 -129.905c44 -36.5967 50.6055 -113.348 119.631 -197.753c9.90625 -12.1133 27.5576 -6.38281 23.625 8.60352c-13.8916 52.9434 -79.998 134.799 -116.02 255.482
c-29.1738 97.7432 24.9961 224.656 87.4512 307.098c35.8438 47.3125 75.3789 131.75 66.0547 141.074c-3.80078 3.80273 -17.4707 -13.332 -30.5371 -38.2793c-13.0117 -24.8379 -53.6855 -76.1289 -90.3887 -113.979
c-45.3555 -46.7725 -71.3428 -68.9971 -130.463 -103.181c-8.74414 23.667 -25.3662 52.3965 -44.0596 86.8877c6.31348 9.5957 12.8076 18.7832 19.3936 27.4766c35.8438 47.3125 75.3789 131.75 66.0547 141.074c-3.80078 3.80273 -17.4707 -13.332 -30.5371 -38.2793
c-10.999 -20.9951 -41.7627 -60.8916 -73.1855 -95.5938c-17.9268 35.2852 -36.0439 75.668 -49.7832 121.701c-29.1738 97.7432 24.9961 224.656 87.4512 307.098c35.8438 47.3125 75.3789 131.75 66.0547 141.074c-3.80078 3.80273 -17.4707 -13.332 -30.5371 -38.2793
c-13.0117 -24.8379 -53.6855 -76.1289 -90.3887 -113.979c-62.3594 -64.3086 -88.1055 -82.2109 -213.697 -148.596c-47.8047 -25.2676 -73.8838 -57.3984 -9.46289 -83.7461c18.6396 -7.62402 67.5 -47.8271 107.682 -82.0781
c-1.37598 -2.4375 -2.75781 -4.97559 -4.13281 -7.60156c-13.0117 -24.8379 -53.6855 -76.1289 -90.3887 -113.979c-62.3594 -64.3086 -88.1055 -82.2109 -213.697 -148.596c-47.8047 -25.2676 -73.8838 -57.3984 -9.46289 -83.7461
c30.2852 -12.3867 140.34 -110.771 163.344 -129.905c44 -36.5967 50.6055 -113.348 119.631 -197.753zM252.578 265.84c0.388672 -0.288086 0.769531 -0.568359 1.14258 -0.839844c-0.389648 0.219727 -0.770508 0.5 -1.14258 0.839844zM462.578 265.84
c0.388672 -0.288086 0.769531 -0.568359 1.14258 -0.839844c-0.389648 0.219727 -0.770508 0.5 -1.14258 0.839844zM289.848 399.853c15.6279 64.5918 49.6465 128.853 86.5605 177.578c20.5635 27.1436 42.3418 66.5068 55.4131 96.8945
c18.1553 -15.6191 32.9727 -28.5645 39.8994 -34.3252c22.3496 -18.5889 35.0508 -47.5391 51.1855 -82.5898c-56.3926 -57.2764 -85.4248 -76.5186 -205.066 -139.759c-10.667 -5.6377 -20.2529 -11.6182 -27.9922 -17.7988zM672.578 265.84
c0.388672 -0.288086 0.769531 -0.568359 1.14258 -0.839844c-0.389648 0.219727 -0.770508 0.5 -1.14258 0.839844zM499.848 399.853c9.40723 38.8828 25.4795 77.6455 44.8359 112.972c10.8496 -20.3164 24.0176 -41.8115 41.3203 -63.8965
c-16.7549 -9.25293 -35.8896 -19.502 -58.1641 -31.2764c-10.667 -5.6377 -20.2529 -11.6182 -27.9922 -17.7988zM462.578 701.84c0.388672 -0.288086 0.769531 -0.568359 1.14258 -0.839844c-0.389648 0.219727 -0.770508 0.5 -1.14258 0.839844z" />
</svg>
