<?xml version="1.0" standalone="no"?>
<!DOCTYPE svg PUBLIC "-//W3C//DTD SVG 1.1//EN" "http://www.w3.org/Graphics/SVG/1.1/DTD/svg11.dtd" >
<svg xmlns="http://www.w3.org/2000/svg" xmlns:xlink="http://www.w3.org/1999/xlink" version="1.1" viewBox="0 0 582 518">
   <path fill="currentColor"
d="M491.638 472.514l-36.3047 -22.124c-88.0264 -53.6406 -147.49 -86.5674 -170.254 -94.2725c-18.2393 -6.17383 -28.5703 -16.2109 -26.917 -26.1484c0.670898 -4.0332 2.03125 -8.19531 2.99316 -9.15723c2.96973 -2.96973 14.4219 -5.56836 29.0693 -6.59766
c10.6045 -0.745117 22.8057 -4.50977 36.707 -11.334c-15.5273 -12.5771 -33.2832 -28.3564 -33.2832 -28.3564l-36.3047 -22.124c-88.0264 -53.6406 -147.49 -86.5674 -170.255 -94.2725c-18.2383 -6.17383 -28.5693 -16.21 -26.916 -26.1484
c0.670898 -4.0332 2.03125 -8.19531 2.99316 -9.15723c2.96973 -2.96973 14.4209 -5.56836 29.0684 -6.59766c16.6543 -1.1709 37.248 -9.78613 62.1777 -26.0107c17.3125 -11.2676 21.7236 -9.88867 50.9141 -45.7617c5.62695 -6.91504 38.4854 -45.5234 39.4238 -44.585
c0.935547 0.93457 3.07031 11.1357 4.74512 22.668c5.40918 37.252 12.8516 65.9863 27.5801 106.484c19.2627 52.9639 35.7314 68.168 64.5693 120.72c0 0 10.334 18.1963 18.8916 33.4258c11.4932 -6.89355 18.7178 -11.1523 42.7803 -40.7227
c5.62598 -6.91504 38.4854 -45.5234 39.4238 -44.585c0.93457 0.93457 3.07031 11.1348 4.74414 22.668c5.40918 37.252 12.8516 65.9863 27.5801 106.484c19.2637 52.9639 35.7314 68.167 64.5703 120.72c0 0 28.21 49.6709 30.0068 53.5693
c2.78027 6.03516 2.05957 10.8643 -1.10938 13.8398c-4.14746 3.89648 -12.4863 4.61816 -22.6494 0.71582c-9.63672 -3.69922 -54.2451 -43.3398 -54.2451 -43.3398z" />
</svg>
