<?xml version="1.0" standalone="no"?>
<!DOCTYPE svg PUBLIC "-//W3C//DTD SVG 1.1//EN" "http://www.w3.org/Graphics/SVG/1.1/DTD/svg11.dtd" >
<svg xmlns="http://www.w3.org/2000/svg" xmlns:xlink="http://www.w3.org/1999/xlink" version="1.1" viewBox="0 0 780 716">
   <path fill="currentColor"
d="M689.628 670.514l-36.3047 -22.124c-88.0264 -53.6406 -147.49 -86.5674 -170.255 -94.2725c-18.2383 -6.17383 -28.5693 -16.2109 -26.916 -26.1484c0.670898 -4.0332 2.03125 -8.19531 2.99316 -9.15723c2.96973 -2.96973 14.4209 -5.56836 29.0693 -6.59766
c10.6045 -0.745117 22.8057 -4.50977 36.7061 -11.334c-15.5273 -12.5771 -33.2832 -28.3564 -33.2832 -28.3564l-36.3047 -22.124c-88.0264 -53.6406 -147.49 -86.5674 -170.254 -94.2725c-18.2393 -6.17285 -28.5703 -16.21 -26.917 -26.1484
c0.670898 -4.03223 2.03125 -8.19531 2.99316 -9.15723c2.96973 -2.96875 14.4219 -5.56836 29.0693 -6.59766c10.6045 -0.745117 22.8057 -4.50977 36.707 -11.334c-15.5273 -12.5771 -33.2832 -28.3564 -33.2832 -28.3564l-36.3047 -22.124
c-88.0264 -53.6406 -147.491 -86.5674 -170.255 -94.2725c-18.2383 -6.17285 -28.5693 -16.21 -26.916 -26.1484c0.670898 -4.03223 2.03125 -8.19531 2.99316 -9.15723c2.96875 -2.96875 14.4209 -5.56836 29.0684 -6.59766
c16.6543 -1.1709 37.248 -9.78613 62.1777 -26.0107c17.3115 -11.2676 21.7236 -9.88867 50.9141 -45.7617c5.62695 -6.91504 38.4854 -45.5234 39.4238 -44.585c0.935547 0.935547 3.07031 11.1357 4.74512 22.668c5.4082 37.2529 12.8516 65.9873 27.5801 106.484
c19.2627 52.9648 35.7314 68.168 64.5693 120.721c0 0 10.334 18.1953 18.8906 33.4258c11.4932 -6.89453 18.7188 -11.1533 42.7812 -40.7236c5.62598 -6.91504 38.4854 -45.5234 39.4238 -44.585c0.93457 0.93457 3.07031 11.1357 4.74414 22.668
c5.40918 37.2529 12.8516 65.9873 27.5801 106.484c19.2637 52.9648 35.7314 68.168 64.5703 120.721c0 0 10.334 18.1953 18.8906 33.4258c11.4932 -6.89453 18.7188 -11.1533 42.7803 -40.7236c5.62695 -6.91504 38.4863 -45.5234 39.4248 -44.585
c0.93457 0.93457 3.06934 11.1348 4.74414 22.668c5.40918 37.252 12.8516 65.9863 27.5801 106.484c19.2627 52.9639 35.7314 68.167 64.5693 120.72c0 0 28.2109 49.6709 30.0078 53.5693c2.78027 6.03516 2.05859 10.8643 -1.10938 13.8398
c-4.14746 3.89648 -12.4873 4.61816 -22.6504 0.71582c-9.63574 -3.69922 -54.2441 -43.3398 -54.2441 -43.3398z" />
</svg>
